<svg width="32" height="32" viewBox="0 0 32 32" fill="none" xmlns="http://www.w3.org/2000/svg">
<mask id="path-1-inside-1_313_91" fill="white">
<path d="M15 18C15 19.6569 13.6569 21 12 21C10.3431 21 9 19.6569 9 18C9 16.3431 10.3431 15 12 15C13.6569 15 15 16.3431 15 18Z"/>
</mask>
<path d="M16 19C16 21.2091 14.2091 23 12 23C9.79086 23 8 21.2091 8 19L10 18C10 18.5523 10.8954 19 12 19C13.1046 19 14 18.5523 14 18L16 19ZM9 15L15 15L9 15ZM12 15C14.2091 15 16 16.7909 16 19C16 21.2091 14.2091 23 12 23L12 19C13.1046 19 14 18.5523 14 18C14 16.3431 13.1046 15 12 15ZM12 23C9.79086 23 8 21.2091 8 19C8 16.7909 9.79086 15 12 15C10.8954 15 10 16.3431 10 18C10 18.5523 10.8954 19 12 19L12 23Z" fill="white" mask="url(#path-1-inside-1_313_91)"/>
<mask id="path-3-inside-2_313_91" fill="white">
<path d="M8.47487 11.4246C7.10804 10.0578 7.10804 7.8417 8.47487 6.47486C9.84171 5.10803 12.0578 5.10803 13.4246 6.47486C14.7915 7.8417 14.7915 10.0578 13.4246 11.4246C12.0578 12.7914 9.84171 12.7914 8.47487 11.4246Z"/>
</mask>
<path d="M7.06066 11.4246C5.3033 9.66725 5.3033 6.81801 7.06066 5.06065L7.06066 5.06065C8.81802 3.30329 11.6673 3.30329 13.4246 5.06065L12.7175 7.18197C12.1317 6.59618 10.8654 6.91277 9.88909 7.88908L9.88909 7.88908C8.91278 8.86539 8.59619 10.1317 9.18198 10.7175L7.06066 11.4246ZM15.8995 8.94974L10.9497 13.8995L15.8995 8.94974ZM13.4246 11.4246C11.6673 13.182 8.81802 13.182 7.06066 11.4246L7.06066 11.4246C5.3033 9.66725 5.3033 6.81801 7.06066 5.06065L9.88909 7.88908C8.91278 8.86539 8.59619 10.1317 9.18198 10.7175C10.5488 12.0843 12.4483 12.4009 13.4246 11.4246L13.4246 11.4246ZM7.06066 5.06065C8.81802 3.30329 11.6673 3.30329 13.4246 5.06065L13.4246 5.06065C15.182 6.81801 15.182 9.66725 13.4246 11.4246L13.4246 11.4246C14.4009 10.4483 14.0843 8.54881 12.7175 7.18197C12.1317 6.59618 10.8654 6.91277 9.88909 7.88908L7.06066 5.06065Z" fill="white" mask="url(#path-3-inside-2_313_91)"/>
<mask id="path-5-inside-3_313_91" fill="white">
<path d="M22.9498 8.44974C24.8828 8.44974 26.4498 10.0167 26.4498 11.9497C26.4498 13.8827 24.8828 15.4497 22.9498 15.4497C21.0168 15.4497 19.4498 13.8827 19.4498 11.9497C19.4498 10.0167 21.0168 8.44974 22.9498 8.44974Z"/>
</mask>
<path d="M23.9498 7.44974C26.435 7.44974 28.4498 9.46446 28.4498 11.9497L28.4498 11.9497C28.4498 14.435 26.435 16.4497 23.9498 16.4497L22.9498 14.4497C23.7782 14.4497 24.4498 13.3304 24.4498 11.9497L24.4498 11.9497C24.4498 10.569 23.7782 9.44974 22.9498 9.44974L23.9498 7.44974ZM19.4498 15.4497L19.4498 8.44974L19.4498 15.4497ZM19.4498 11.9497C19.4498 9.46446 21.4645 7.44974 23.9498 7.44974L23.9498 7.44974C26.435 7.44974 28.4498 9.46446 28.4498 11.9497L24.4498 11.9497C24.4498 10.569 23.7782 9.44974 22.9498 9.44974C21.0168 9.44974 19.4498 10.569 19.4498 11.9497L19.4498 11.9497ZM28.4498 11.9497C28.4498 14.435 26.435 16.4497 23.9498 16.4497L23.9498 16.4497C21.4645 16.4497 19.4498 14.435 19.4498 11.9497L19.4498 11.9497C19.4498 13.3304 21.0168 14.4497 22.9498 14.4497C23.7782 14.4497 24.4498 13.3304 24.4498 11.9497L28.4498 11.9497Z" fill="white" mask="url(#path-5-inside-3_313_91)"/>
<mask id="path-7-inside-4_313_91" fill="white">
<path d="M9.36394 19.364C8.19236 20.5355 6.29287 20.5355 5.12129 19.364C3.94972 18.1924 3.94972 16.2929 5.12129 15.1213C6.29287 13.9498 8.19236 13.9498 9.36394 15.1213C10.5355 16.2929 10.5355 18.1924 9.36394 19.364Z"/>
</mask>
<path d="M9.36394 20.7782C7.80184 22.3403 5.26918 22.3403 3.70708 20.7782C2.14498 19.2161 2.14498 16.6834 3.70708 15.1213L5.8284 15.8284C5.43788 16.219 5.75446 17.1687 6.53551 17.9498C7.31656 18.7308 8.2663 19.0474 8.65683 18.6569L9.36394 20.7782ZM7.24261 13L11.4853 17.2426L7.24261 13ZM9.36394 15.1213C10.926 16.6834 10.926 19.2161 9.36394 20.7782C7.80184 22.3403 5.26918 22.3403 3.70708 20.7782L6.53551 17.9498C7.31656 18.7308 8.2663 19.0474 8.65683 18.6569C9.8284 17.4853 10.145 15.9024 9.36394 15.1213ZM3.70708 20.7782C2.14498 19.2161 2.14498 16.6834 3.70708 15.1213C5.26918 13.5592 7.80184 13.5592 9.36394 15.1213C8.58289 14.3403 6.99997 14.6569 5.8284 15.8284C5.43788 16.219 5.75446 17.1687 6.53551 17.9498L3.70708 20.7782Z" fill="white" mask="url(#path-7-inside-4_313_91)"/>
<mask id="path-9-inside-5_313_91" fill="white">
<path d="M3.34892 15.5465C1.49936 14.5255 0.827659 12.1985 1.84863 10.3489C2.8696 8.49937 5.19662 7.82767 7.04617 8.84864C8.89573 9.86961 9.56743 12.1966 8.54646 14.0462C7.52549 15.8957 5.19847 16.5674 3.34892 15.5465Z"/>
</mask>
<path d="M1.99018 15.9387C-0.34289 14.6508 -1.19019 11.7155 0.0976834 9.38239L0.0976831 9.38239C1.38555 7.04933 4.3209 6.20203 6.65397 7.4899L6.5629 9.72411C5.68037 9.23695 4.35364 9.94942 3.59957 11.3155C2.84551 12.6815 2.94965 14.1838 3.83218 14.671L1.99018 15.9387ZM10.3951 10.6973L6.69783 17.3951L10.3951 10.6973ZM8.54646 14.0462C7.25859 16.3793 4.32324 17.2265 1.99018 15.9387L1.99018 15.9387C-0.34289 14.6508 -1.19019 11.7155 0.0976834 9.38239L3.59957 11.3155C2.84551 12.6815 2.94965 14.1838 3.83218 14.671C5.68174 15.692 7.79239 15.4122 8.54646 14.0462L8.54646 14.0462ZM0.0976831 9.38239C1.38555 7.04933 4.3209 6.20203 6.65397 7.4899L6.65397 7.4899C8.98703 8.77777 9.83433 11.7131 8.54646 14.0462L8.54646 14.0462C9.30053 12.6801 8.41246 10.7451 6.5629 9.72411C5.68037 9.23695 4.35364 9.94942 3.59957 11.3155L0.0976831 9.38239Z" fill="white" mask="url(#path-9-inside-5_313_91)"/>
<mask id="path-11-inside-6_313_91" fill="white">
<path d="M13.9126 6.31278C14.9689 4.48318 17.3084 3.85632 19.138 4.91263C20.9676 5.96895 21.5945 8.30845 20.5382 10.138C19.4819 11.9676 17.1424 12.5945 15.3128 11.5382C13.4832 10.4819 12.8563 8.14237 13.9126 6.31278Z"/>
</mask>
<path d="M13.5466 4.94675C14.8791 2.63886 17.8301 1.84812 20.138 3.18058L20.138 3.18058C22.4459 4.51304 23.2367 7.46413 21.9042 9.77202L19.6722 9.63804C20.1762 8.76503 19.4893 7.42486 18.138 6.64468C16.7867 5.86451 15.2827 5.93977 14.7786 6.81278L13.5466 4.94675ZM18.6255 13.4508L12 9.62556L18.6255 13.4508ZM15.3128 11.5382C13.0049 10.2057 12.2141 7.25464 13.5466 4.94675L13.5466 4.94675C14.8791 2.63886 17.8301 1.84812 20.138 3.18058L18.138 6.64468C16.7867 5.86451 15.2827 5.93977 14.7786 6.81278C13.7223 8.64237 13.9615 10.758 15.3128 11.5382L15.3128 11.5382ZM20.138 3.18058C22.4459 4.51304 23.2367 7.46413 21.9042 9.77202L21.9042 9.77202C20.5717 12.0799 17.6207 12.8706 15.3128 11.5382L15.3128 11.5382C16.6641 12.3184 18.6158 11.4676 19.6722 9.63804C20.1762 8.76503 19.4893 7.42486 18.138 6.64468L20.138 3.18058Z" fill="white" mask="url(#path-11-inside-6_313_91)"/>
<mask id="path-13-inside-7_313_91" fill="white">
<path d="M23.8252 14C25.9379 14 27.6505 15.7126 27.6505 17.8253C27.6505 19.9379 25.9379 21.6505 23.8252 21.6505C21.7126 21.6505 20 19.9379 20 17.8253C20 15.7126 21.7126 14 23.8252 14Z"/>
</mask>
<path d="M24.8252 13C27.4902 13 29.6505 15.1603 29.6505 17.8253L29.6505 17.8253C29.6505 20.4902 27.4902 22.6505 24.8252 22.6505L23.8252 20.6505C24.8333 20.6505 25.6505 19.3856 25.6505 17.8253C25.6505 16.2649 24.8333 15 23.8252 15L24.8252 13ZM20 21.6505L20 14L20 21.6505ZM20 17.8253C20 15.1603 22.1603 13 24.8252 13L24.8252 13C27.4902 13 29.6505 15.1603 29.6505 17.8253L25.6505 17.8253C25.6505 16.2649 24.8333 15 23.8252 15C21.7126 15 20 16.2649 20 17.8253L20 17.8253ZM29.6505 17.8253C29.6505 20.4902 27.4902 22.6505 24.8252 22.6505L24.8252 22.6505C22.1603 22.6505 20 20.4902 20 17.8253L20 17.8253C20 19.3856 21.7126 20.6505 23.8252 20.6505C24.8333 20.6505 25.6505 19.3856 25.6505 17.8253L29.6505 17.8253Z" fill="white" mask="url(#path-13-inside-7_313_91)"/>
<mask id="path-15-inside-8_313_91" fill="white">
<path d="M22.5301 20.1204C24.024 21.6142 24.024 24.0363 22.5301 25.5301C21.0363 27.024 18.6142 27.024 17.1204 25.5301C15.6265 24.0363 15.6265 21.6142 17.1204 20.1204C18.6142 18.6265 21.0363 18.6265 22.5301 20.1204Z"/>
</mask>
<path d="M23.9443 20.1204C25.8287 22.0048 25.8287 25.06 23.9443 26.9443L23.9443 26.9443C22.0599 28.8287 19.0048 28.8287 17.1204 26.9443L17.8275 24.823C18.5403 25.5358 20.0126 25.2192 21.1159 24.1159C22.2192 23.0126 22.5358 21.5403 21.823 20.8275L23.9443 20.1204ZM14.4155 22.8253L19.8252 17.4155L14.4155 22.8253ZM17.1204 20.1204C19.0048 18.236 22.0599 18.236 23.9443 20.1204L23.9443 20.1204C25.8287 22.0048 25.8287 25.06 23.9443 26.9443L21.1159 24.1159C22.2192 23.0126 22.5358 21.5403 21.823 20.8275C20.3291 19.3336 18.2237 19.017 17.1204 20.1204L17.1204 20.1204ZM23.9443 26.9443C22.0599 28.8287 19.0048 28.8287 17.1204 26.9443L17.1204 26.9443C15.236 25.06 15.236 22.0048 17.1204 20.1204L17.1204 20.1204C16.017 21.2237 16.3336 23.3292 17.8275 24.823C18.5403 25.5358 20.0126 25.2192 21.1159 24.1159L23.9443 26.9443Z" fill="white" mask="url(#path-15-inside-8_313_91)"/>
<mask id="path-17-inside-9_313_91" fill="white">
<path d="M13 20H16.8481V29.6651H13V20Z"/>
</mask>
<path d="M16.8481 29.6651V31.6651H17.8481V29.6651H16.8481ZM13 29.6651H12V31.6651H13V29.6651ZM15.8481 20V29.6651H17.8481V20H15.8481ZM16.8481 27.6651H13V31.6651H16.8481V27.6651ZM14 29.6651V20H12V29.6651H14Z" fill="white" mask="url(#path-17-inside-9_313_91)"/>
</svg>
