<svg width="32" height="32" viewBox="0 0 32 32" fill="none" xmlns="http://www.w3.org/2000/svg">
<mask id="path-1-inside-1_313_91" fill="white">
<path d="M16 17C16 18.6569 14.6569 20 13 20V20C11.3431 20 10 18.6569 10 17V17C10 15.3431 11.3431 14 13 14V14C14.6569 14 16 15.3431 16 17V17Z"/>
</mask>
<path d="M17 18C17 20.2091 15.2091 22 13 22L13 22C10.7909 22 9 20.2091 9 18L11 17C11 17.5523 11.8954 18 13 18L13 18C14.1046 18 15 17.5523 15 17L17 18ZM10 14L16 14L10 14ZM13 14C15.2091 14 17 15.7909 17 18C17 20.2091 15.2091 22 13 22L13 18C14.1046 18 15 17.5523 15 17C15 15.3431 14.1046 14 13 14ZM13 22C10.7909 22 9 20.2091 9 18C9 15.7909 10.7909 14 13 14C11.8954 14 11 15.3431 11 17C11 17.5523 11.8954 18 13 18L13 22Z" fill="white" mask="url(#path-1-inside-1_313_91)"/>
<mask id="path-3-inside-2_313_91" fill="white">
<path d="M9.19499 9.87471C7.71202 8.39174 7.71202 5.98735 9.19499 4.50438V4.50438C10.678 3.0214 13.0823 3.0214 14.5653 4.50438V4.50438C16.0483 5.98735 16.0483 8.39173 14.5653 9.87471V9.87471C13.0823 11.3577 10.678 11.3577 9.19499 9.87471V9.87471Z"/>
</mask>
<path d="M7.78078 9.87471C5.90728 8.00121 5.90728 4.96367 7.78078 3.09017L7.78078 3.09016C9.65428 1.21666 12.6918 1.21666 14.5653 3.09016L13.8582 5.21149C13.1563 4.50956 11.7017 4.82614 10.6092 5.91859L10.6092 5.91859C9.51675 7.01104 9.20017 8.46568 9.9021 9.1676L7.78078 9.87471ZM17.2505 7.18954L11.8802 12.5599L17.2505 7.18954ZM14.5653 9.87471C12.6918 11.7482 9.65428 11.7482 7.78078 9.87471C5.90728 8.00121 5.90728 4.96367 7.78078 3.09017L10.6092 5.91859C9.51675 7.01104 9.20017 8.46568 9.9021 9.1676C11.3851 10.6506 13.4729 10.9672 14.5653 9.87471ZM7.78078 3.09016C9.65428 1.21666 12.6918 1.21666 14.5653 3.09016C16.4388 4.96367 16.4388 8.00121 14.5653 9.87471C15.6578 8.78226 15.3412 6.69446 13.8582 5.21149C13.1563 4.50956 11.7017 4.82614 10.6092 5.91859L7.78078 3.09016Z" fill="white" mask="url(#path-3-inside-2_313_91)"/>
<mask id="path-5-inside-3_313_91" fill="white">
<path d="M25.5 7C27.433 7 29 8.567 29 10.5V10.5C29 12.433 27.433 14 25.5 14L24.5 14C22.567 14 21 12.433 21 10.5V10.5C21 8.567 22.567 7 24.5 7L25.5 7Z"/>
</mask>
<path d="M26.5 6C28.9853 6 31 8.01472 31 10.5L31 10.5C31 12.9853 28.9853 15 26.5 15L25.5 13C26.3284 13 27 11.8807 27 10.5C27 9.11929 26.3284 8 25.5 8L26.5 6ZM21 14L21 7L21 14ZM21 10.5C21 8.01472 23.0147 6 25.5 6L26.5 6C28.9853 6 31 8.01472 31 10.5L27 10.5C27 9.11929 26.3284 8 25.5 8L24.5 8C22.567 8 21 9.11929 21 10.5L21 10.5ZM31 10.5C31 12.9853 28.9853 15 26.5 15L25.5 15C23.0147 15 21 12.9853 21 10.5L21 10.5C21 11.8807 22.567 13 24.5 13L25.5 13C26.3284 13 27 11.8807 27 10.5L31 10.5Z" fill="white" mask="url(#path-5-inside-3_313_91)"/>
<mask id="path-7-inside-4_313_91" fill="white">
<path d="M10.1596 18.4887C8.88848 19.7598 6.82758 19.7598 5.55646 18.4887V18.4887C4.28534 17.2176 4.28534 15.1567 5.55646 13.8855V13.8855C6.82758 12.6144 8.88848 12.6144 10.1596 13.8855V13.8855C11.4307 15.1567 11.4307 17.2176 10.1596 18.4887V18.4887Z"/>
</mask>
<path d="M10.1596 19.9029C8.49796 21.5645 5.80389 21.5645 4.14225 19.9029L4.14225 19.9029C2.4806 18.2412 2.4806 15.5472 4.14225 13.8855L6.26357 14.5926C5.77349 15.0827 6.09008 16.1939 6.97068 17.0745C7.85127 17.9551 8.96242 18.2716 9.4525 17.7816L10.1596 19.9029ZM7.85803 11.584L12.4612 16.1871L7.85803 11.584ZM10.1596 13.8855C11.8212 15.5472 11.8212 18.2412 10.1596 19.9029L10.1596 19.9029C8.49796 21.5645 5.80389 21.5645 4.14225 19.9029L6.97068 17.0745C7.85127 17.9551 8.96242 18.2716 9.4525 17.7816C10.7236 16.5105 11.0402 14.7661 10.1596 13.8855L10.1596 13.8855ZM4.14225 19.9029C2.4806 18.2412 2.4806 15.5472 4.14225 13.8855L4.14225 13.8855C5.80389 12.2239 8.49796 12.2239 10.1596 13.8855L10.1596 13.8855C9.279 13.0049 7.53469 13.3215 6.26357 14.5926C5.77349 15.0827 6.09008 16.1939 6.97068 17.0745L4.14225 19.9029Z" fill="white" mask="url(#path-7-inside-4_313_91)"/>
<mask id="path-9-inside-5_313_91" fill="white">
<path d="M3.50189 14.2742C1.56785 13.2066 0.865466 10.7732 1.93307 8.8392L2.07834 8.57604C3.14595 6.642 5.57927 5.93961 7.51331 7.00721L7.77647 7.15249C9.71052 8.22009 10.4129 10.6534 9.3453 12.5874L9.20003 12.8506C8.13242 14.7847 5.6991 15.487 3.76506 14.4194L3.50189 14.2742Z"/>
</mask>
<path d="M2.14315 14.6664C-0.274401 13.3319 -1.15238 10.2902 0.182126 7.87267L0.327399 7.6095C1.66191 5.19195 4.70355 4.31397 7.1211 5.64847L7.03004 7.88269C6.06302 7.34888 4.62999 8.09204 3.82929 9.54257L3.68402 9.80574C2.88331 11.2563 3.01814 12.8649 3.98516 13.3987L2.14315 14.6664ZM11.2784 9.08556L7.26695 16.3525L11.2784 9.08556ZM9.20002 12.8506C7.86552 15.2682 4.82387 16.1462 2.40632 14.8116L2.14315 14.6664C-0.274401 13.3319 -1.15238 10.2902 0.182126 7.87267L3.68402 9.80574C2.88331 11.2563 3.01814 12.8649 3.98516 13.3987L4.24833 13.544C6.18237 14.6116 8.39932 14.3012 9.20002 12.8506ZM0.327399 7.6095C1.66191 5.19195 4.70355 4.31397 7.1211 5.64847L7.38427 5.79375C9.80182 7.12825 10.6798 10.1699 9.3453 12.5874C10.146 11.1369 9.22725 9.09557 7.29321 8.02796L7.03004 7.88269C6.06302 7.34888 4.62999 8.09204 3.82929 9.54257L0.327399 7.6095Z" fill="white" mask="url(#path-9-inside-5_313_91)"/>
<mask id="path-11-inside-6_313_91" fill="white">
<path d="M15.1699 4.19836C16.2745 2.28519 18.7209 1.62968 20.634 2.73425L20.8944 2.88455C22.8075 3.98912 23.463 6.43549 22.3585 8.34866L22.2082 8.60899C21.1036 10.5222 18.6572 11.1777 16.7441 10.0731L16.4837 9.92279C14.5706 8.81822 13.915 6.37186 15.0196 4.45869L15.1699 4.19836Z"/>
</mask>
<path d="M14.8039 2.83233C16.1846 0.440866 19.2426 -0.37851 21.634 1.0022L21.8944 1.15251C24.2858 2.53322 25.1052 5.59117 23.7245 7.98263L21.4924 7.84866C22.0447 6.89207 21.3292 5.44503 19.8944 4.61661L19.634 4.4663C18.1991 3.63788 16.5882 3.74177 16.0359 4.69835L14.8039 2.83233ZM20.2082 12.0731L13.0196 7.92279L20.2082 12.0731ZM16.4837 9.92279C14.0923 8.54208 13.2729 5.48412 14.6536 3.09266L14.8039 2.83233C16.1846 0.440866 19.2426 -0.37851 21.634 1.0022L19.634 4.4663C18.1991 3.63788 16.5882 3.74177 16.0359 4.69835L15.8856 4.95869C14.7811 6.87186 15.0488 9.09436 16.4837 9.92279ZM21.8944 1.15251C24.2858 2.53322 25.1052 5.59117 23.7245 7.98263L23.5742 8.24296C22.1935 10.6344 19.1355 11.4538 16.7441 10.0731C18.1789 10.9015 20.2376 10.0222 21.3421 8.10899L21.4924 7.84866C22.0447 6.89207 21.3292 5.44503 19.8944 4.61661L21.8944 1.15251Z" fill="white" mask="url(#path-11-inside-6_313_91)"/>
<mask id="path-13-inside-7_313_91" fill="white">
<path d="M26 13C28.2091 13 30 14.7909 30 17V17C30 19.2091 28.2091 21 26 21V21C23.7909 21 22 19.2091 22 17V17C22 14.7909 23.7909 13 26 13V13Z"/>
</mask>
<path d="M27 12C29.7614 12 32 14.2386 32 17C32 19.7614 29.7614 22 27 22L26 20C27.1046 20 28 18.6569 28 17L28 17C28 15.3431 27.1046 14 26 14L27 12ZM22 21L22 13L22 21ZM22 17C22 14.2386 24.2386 12 27 12L27 12C29.7614 12 32 14.2386 32 17L28 17C28 15.3431 27.1046 14 26 14C23.7909 14 22 15.3431 22 17L22 17ZM32 17C32 19.7614 29.7614 22 27 22L27 22C24.2386 22 22 19.7614 22 17L22 17C22 18.6569 23.7909 20 26 20C27.1046 20 28 18.6569 28 17L32 17Z" fill="white" mask="url(#path-13-inside-7_313_91)"/>
<mask id="path-15-inside-8_313_91" fill="white">
<path d="M24.5508 19.4156C26.1129 20.9777 26.1129 23.5104 24.5508 25.0725L24.3382 25.2851C22.7761 26.8472 20.2435 26.8472 18.6814 25.2851L18.4688 25.0725C16.9067 23.5104 16.9067 20.9777 18.4688 19.4157L18.6814 19.2031C20.2435 17.641 22.7761 17.641 24.3382 19.2031L24.5508 19.4156Z"/>
</mask>
<path d="M25.965 19.4157C27.9176 21.3683 27.9176 24.5341 25.965 26.4867L25.7524 26.6993C23.7998 28.6519 20.634 28.6519 18.6814 26.6993L19.3885 24.578C20.1695 25.359 21.7524 25.0424 22.924 23.8709L23.1366 23.6583C24.3081 22.4867 24.6247 20.9038 23.8437 20.1228L25.965 19.4157ZM15.6404 22.2441L21.5098 16.3747L15.6404 22.2441ZM18.6814 19.2031C20.634 17.2505 23.7998 17.2505 25.7524 19.2031L25.965 19.4157C27.9176 21.3683 27.9176 24.5341 25.965 26.4867L23.1366 23.6583C24.3081 22.4867 24.6247 20.9038 23.8437 20.1228L23.6311 19.9102C22.069 18.3481 19.8529 18.0315 18.6814 19.2031ZM25.7524 26.6993C23.7998 28.6519 20.634 28.6519 18.6814 26.6993L18.4688 26.4867C16.5162 24.5341 16.5162 21.3683 18.4688 19.4157C17.2972 20.5872 17.6138 22.8033 19.1759 24.3654L19.3885 24.578C20.1695 25.359 21.7524 25.0424 22.924 23.8709L25.7524 26.6993Z" fill="white" mask="url(#path-15-inside-8_313_91)"/>
<mask id="path-17-inside-9_313_91" fill="white">
<path d="M14 19H18V30H14V19Z"/>
</mask>
<path d="M18 30V32H19V30H18ZM14 30H13V32H14V30ZM17 19V30H19V19H17ZM18 28H14V32H18V28ZM15 30V19H13V30H15Z" fill="white" mask="url(#path-17-inside-9_313_91)"/>
</svg>
