<svg width="32" height="32" viewBox="0 0 32 32" fill="none" xmlns="http://www.w3.org/2000/svg">
<path d="M13 4.07693H18V2.07693H13V4.07693ZM8 17.0769V9.07693H6V17.0769H8ZM12 23.0769V24.0385H14V23.0769H12ZM16.9615 29H18.5V27H16.9615V29ZM25 22.5V20.0769H23V22.5H25ZM25 20.0769V20H23V20.0769H25ZM23 9.07693V20H25V9.07693H23ZM18.5 29C22.0899 29 25 26.0899 25 22.5H23C23 24.9853 20.9853 27 18.5 27V29ZM12 24.0385C12 26.7786 14.2214 29 16.9615 29V27C15.3259 27 14 25.6741 14 24.0385H12ZM10 21.0769C11.1046 21.0769 12 21.9724 12 23.0769H14C14 20.8678 12.2091 19.0769 10 19.0769V21.0769ZM6 17.0769C6 19.2861 7.79086 21.0769 10 21.0769V19.0769C8.89543 19.0769 8 18.1815 8 17.0769H6ZM18 4.07693C20.7614 4.07693 23 6.31551 23 9.07693H25C25 5.21094 21.866 2.07693 18 2.07693V4.07693ZM13 2.07693C9.13401 2.07693 6 5.21094 6 9.07693H8C8 6.31551 10.2386 4.07693 13 4.07693V2.07693Z" fill="white"/>
<path d="M20.0769 12.2308C19.5617 12.2308 19.0516 12.3322 18.5756 12.5294C18.0997 12.7266 17.6672 13.0155 17.3029 13.3798C16.9386 13.7441 16.6496 14.1766 16.4525 14.6526C16.2553 15.1285 16.1538 15.6387 16.1538 16.1539C16.1538 16.669 16.2553 17.1792 16.4525 17.6551C16.6496 18.1311 16.9386 18.5636 17.3029 18.9279C17.6672 19.2922 18.0997 19.5811 18.5756 19.7783C19.0516 19.9755 19.5617 20.0769 20.0769 20.0769L20.0769 18.1154C19.8193 18.1154 19.5643 18.0647 19.3263 17.9661C19.0883 17.8675 18.8721 17.723 18.6899 17.5409C18.5078 17.3587 18.3633 17.1425 18.2647 16.9045C18.1661 16.6665 18.1154 16.4114 18.1154 16.1539C18.1154 15.8963 18.1661 15.6412 18.2647 15.4032C18.3633 15.1652 18.5078 14.949 18.6899 14.7668C18.8721 14.5847 19.0883 14.4402 19.3263 14.3416C19.5643 14.243 19.8193 14.1923 20.0769 14.1923V12.2308Z" fill="white"/>
<path d="M20.0769 12.8846C20.0769 12.2836 19.9585 11.6884 19.7285 11.1331C19.4985 10.5778 19.1614 10.0733 18.7364 9.64826C18.3114 9.22325 17.8068 8.88612 17.2515 8.65611C16.6962 8.42609 16.1011 8.30771 15.5 8.30771C14.899 8.30771 14.3038 8.4261 13.7485 8.65611C13.1932 8.88612 12.6886 9.22326 12.2636 9.64826C11.8386 10.0733 11.5015 10.5778 11.2715 11.1331C11.0415 11.6884 10.9231 12.2836 10.9231 12.8846L12.7539 12.8846C12.7539 12.524 12.8249 12.1669 12.9629 11.8337C13.1009 11.5005 13.3032 11.1978 13.5582 10.9428C13.8132 10.6878 14.1159 10.4855 14.4491 10.3475C14.7823 10.2095 15.1394 10.1385 15.5 10.1385C15.8606 10.1385 16.2177 10.2095 16.5509 10.3475C16.8841 10.4855 17.1868 10.6878 17.4418 10.9428C17.6968 11.1978 17.8991 11.5005 18.0371 11.8337C18.1751 12.1669 18.2462 12.524 18.2462 12.8846H20.0769Z" fill="white"/>
</svg>
