<svg width="32" height="32" viewBox="0 0 32 32" fill="none" xmlns="http://www.w3.org/2000/svg">
<g clip-path="url(#clip0_150_215)">
<path d="M16 15.4846C19.3429 15.4846 22.4141 16.773 24.6867 18.105C25.8163 18.7671 26.7306 19.4293 27.3604 19.9244C27.4067 19.9608 27.4514 19.9963 27.4946 20.0307C27.4422 20.0763 27.3873 20.1235 27.3301 20.1722C26.6997 20.7091 25.7853 21.4265 24.6564 22.1433C22.3825 23.5871 19.3222 24.9751 16 24.9751C12.6778 24.9751 9.61748 23.5871 7.34364 22.1433C6.21469 21.4265 5.30035 20.7091 4.66992 20.1722C4.61269 20.1235 4.55784 20.0763 4.50542 20.0307C4.54856 19.9963 4.59329 19.9608 4.63957 19.9244C5.26943 19.4293 6.18374 18.7671 7.31327 18.105C9.58589 16.773 12.6571 15.4846 16 15.4846Z" stroke="white" stroke-width="2"/>
<path fill-rule="evenodd" clip-rule="evenodd" d="M16 23.5454C17.9581 23.5454 19.5455 21.9581 19.5455 20C19.5455 19.6366 19.4908 19.286 19.3893 18.956C19.1113 19.5716 18.4921 20 17.7727 20C16.7937 20 16 19.2063 16 18.2273C16 17.5079 16.4284 16.8887 17.044 16.6107C16.714 16.5092 16.3634 16.4545 16 16.4545C14.0419 16.4545 12.4546 18.0419 12.4546 20C12.4546 21.9581 14.0419 23.5454 16 23.5454Z" fill="white"/>
<line x1="5.01387" y1="12.3544" x2="7.37751" y2="15.8999" stroke="white" stroke-width="2"/>
<line y1="-1" x2="4.26111" y2="-1" transform="matrix(-0.5547 0.83205 0.83205 0.5547 27.8182 12.9091)" stroke="white" stroke-width="2"/>
<line x1="16" y1="9" x2="16" y2="14" stroke="white" stroke-width="2"/>
<path d="M27 6.5C27.8284 6.5 28.5 5.82843 28.5 5C28.5 4.17157 27.8284 3.5 27 3.5V6.5ZM3 6.5L27 6.5V3.5L3 3.5V6.5Z" fill="white"/>
</g>
<defs>
<clipPath id="clip0_150_215">
<rect width="32" height="32" fill="white"/>
</clipPath>
</defs>
</svg>
