<svg width="32" height="32" viewBox="0 0 32 32" fill="none" xmlns="http://www.w3.org/2000/svg">
<g clip-path="url(#clip0_150_223)">
<path d="M16 11.4846C19.3429 11.4846 22.4141 12.773 24.6867 14.105C25.8163 14.7671 26.7306 15.4293 27.3604 15.9244C27.4067 15.9608 27.4514 15.9963 27.4946 16.0307C27.4422 16.0763 27.3873 16.1235 27.3301 16.1722C26.6997 16.7091 25.7853 17.4265 24.6564 18.1433C22.3825 19.5871 19.3222 20.9751 16 20.9751C12.6778 20.9751 9.61748 19.5871 7.34364 18.1433C6.21469 17.4265 5.30035 16.7091 4.66992 16.1722C4.61269 16.1235 4.55784 16.0763 4.50542 16.0307C4.54856 15.9963 4.59329 15.9608 4.63957 15.9244C5.26943 15.4293 6.18374 14.7671 7.31327 14.105C9.58589 12.773 12.6571 11.4846 16 11.4846Z" stroke="white" stroke-width="2"/>
<circle cx="16" cy="16" r="3.99999" stroke="white" stroke-width="2"/>
<line x1="5.01387" y1="8.35442" x2="7.37751" y2="11.8999" stroke="white" stroke-width="2"/>
<line y1="-1" x2="4.26111" y2="-1" transform="matrix(-0.5547 0.83205 0.83205 0.5547 27.8182 8.90912)" stroke="white" stroke-width="2"/>
<line x1="16" y1="5" x2="16" y2="10" stroke="white" stroke-width="2"/>
<line x1="22.5981" y1="25.9641" x2="25.5981" y2="31.1603" stroke="white" stroke-width="2"/>
<path d="M20.5981 22.5L25.0981 25.0981L20.5981 27.6962L20.5981 22.5Z" fill="white"/>
</g>
<defs>
<clipPath id="clip0_150_223">
<rect width="32" height="32" fill="white"/>
</clipPath>
</defs>
</svg>
