<svg width="32" height="32" viewBox="0 0 32 32" fill="none" xmlns="http://www.w3.org/2000/svg">
<g clip-path="url(#clip0_152_15)">
<path d="M16 9.48457C19.3429 9.48457 22.4141 10.773 24.6867 12.105C25.8163 12.7671 26.7306 13.4293 27.3604 13.9244C27.4067 13.9608 27.4514 13.9963 27.4946 14.0307C27.4422 14.0763 27.3873 14.1235 27.3301 14.1722C26.6997 14.7091 25.7853 15.4265 24.6564 16.1433C22.3825 17.5871 19.3222 18.9751 16 18.9751C12.6778 18.9751 9.61748 17.5871 7.34364 16.1433C6.21469 15.4265 5.30035 14.7091 4.66992 14.1722C4.61269 14.1235 4.55784 14.0763 4.50542 14.0307C4.54856 13.9963 4.59329 13.9608 4.63957 13.9244C5.26943 13.4293 6.18374 12.7671 7.31327 12.105C9.58589 10.773 12.6571 9.48457 16 9.48457Z" stroke="white" stroke-width="2"/>
<path fill-rule="evenodd" clip-rule="evenodd" d="M16 17.5454C17.9581 17.5454 19.5455 15.9581 19.5455 14C19.5455 13.6366 19.4908 13.286 19.3893 12.956C19.1113 13.5716 18.4921 14 17.7728 14C16.7937 14 16 13.2063 16 12.2273C16 11.5079 16.4285 10.8887 17.0441 10.6107C16.714 10.5092 16.3634 10.4545 16 10.4545C14.0419 10.4545 12.4546 12.0419 12.4546 14C12.4546 15.9581 14.0419 17.5454 16 17.5454Z" fill="white"/>
<line x1="5.01387" y1="6.35442" x2="7.37751" y2="9.89987" stroke="white" stroke-width="2"/>
<line y1="-1" x2="4.26111" y2="-1" transform="matrix(-0.5547 0.83205 0.83205 0.5547 27.8182 6.90912)" stroke="white" stroke-width="2"/>
<line x1="16" y1="3" x2="16" y2="8" stroke="white" stroke-width="2"/>
<path d="M3 17C3 17 10.7669 22.1497 16.5417 21.9967C21.9321 21.8538 29 17 29 17" stroke="white" stroke-width="2"/>
<line x1="26.5" y1="24.134" x2="29.5" y2="29.3301" stroke="white" stroke-width="2"/>
<path d="M24.5 20.6699L29 23.2679L24.5 25.866L24.5 20.6699Z" fill="white"/>
</g>
<defs>
<clipPath id="clip0_152_15">
<rect width="32" height="32" fill="white"/>
</clipPath>
</defs>
</svg>
