<svg width="32" height="32" viewBox="0 0 32 32" fill="none" xmlns="http://www.w3.org/2000/svg">
<g clip-path="url(#clip0_152_15)">
<path d="M16 11.4846C19.3429 11.4846 22.4141 12.773 24.6867 14.105C25.8163 14.7671 26.7306 15.4293 27.3604 15.9244C27.4067 15.9608 27.4514 15.9963 27.4946 16.0307C27.4422 16.0763 27.3873 16.1235 27.3301 16.1722C26.6997 16.7091 25.7853 17.4265 24.6564 18.1433C22.3825 19.5871 19.3222 20.9751 16 20.9751C12.6778 20.9751 9.61748 19.5871 7.34364 18.1433C6.21469 17.4265 5.30035 16.7091 4.66992 16.1722C4.61269 16.1235 4.55784 16.0763 4.50542 16.0307C4.54856 15.9963 4.59329 15.9608 4.63957 15.9244C5.26943 15.4293 6.18374 14.7671 7.31327 14.105C9.58589 12.773 12.6571 11.4846 16 11.4846Z" stroke="white" stroke-width="2"/>
<path fill-rule="evenodd" clip-rule="evenodd" d="M16 19.5454C17.9581 19.5454 19.5455 17.9581 19.5455 16C19.5455 15.6366 19.4908 15.286 19.3893 14.956C19.1113 15.5716 18.4921 16 17.7728 16C16.7937 16 16 15.2063 16 14.2273C16 13.5079 16.4285 12.8887 17.0441 12.6107C16.714 12.5092 16.3634 12.4545 16 12.4545C14.0419 12.4545 12.4546 14.0419 12.4546 16C12.4546 17.9581 14.0419 19.5454 16 19.5454Z" fill="white"/>
<line x1="5.01387" y1="8.35442" x2="7.37751" y2="11.8999" stroke="white" stroke-width="2"/>
<line y1="-1" x2="4.26111" y2="-1" transform="matrix(-0.5547 0.83205 0.83205 0.5547 27.8182 8.90912)" stroke="white" stroke-width="2"/>
<line x1="16" y1="5" x2="16" y2="10" stroke="white" stroke-width="2"/>
<path d="M3 19C3 19 10.7669 24.1497 16.5417 23.9967C21.9321 23.8538 29 19 29 19" stroke="white" stroke-width="2"/>
<line x1="26.5" y1="26.134" x2="29.5" y2="31.3301" stroke="white" stroke-width="2"/>
<path d="M24.5 22.6699L29 25.2679L24.5 27.866L24.5 22.6699Z" fill="white"/>
</g>
<defs>
<clipPath id="clip0_152_15">
<rect width="32" height="32" fill="white"/>
</clipPath>
</defs>
</svg>
