<svg width="32" height="32" viewBox="0 0 32 32" fill="none" xmlns="http://www.w3.org/2000/svg">
<path fill-rule="evenodd" clip-rule="evenodd" d="M10.6667 3C8.45753 3 6.66667 4.79086 6.66667 7V12.3333C6.66667 11.597 6.06971 11 5.33333 11C4.59695 11 4 11.597 4 12.3333V20.3333C4 21.0697 4.59695 21.6667 5.33333 21.6667C6.06971 21.6667 6.66667 21.0697 6.66667 20.3333V21.8888C6.66667 25.2025 9.35296 27.8888 12.6667 27.8888H19.3333C22.647 27.8888 25.3333 25.2025 25.3333 21.8888V7C25.3333 4.79086 23.5424 3 21.3333 3H10.6667ZM25.3333 12.3333C25.3333 11.597 25.9303 11 26.6667 11C27.403 11 28 11.597 28 12.3333V20.3333C28 21.0697 27.403 21.6667 26.6667 21.6667C25.9303 21.6667 25.3333 21.0697 25.3333 20.3333V12.3333ZM13.3333 20.3333C12.597 20.3333 12 20.9303 12 21.6667C12 22.403 12.597 23 13.3333 23H20C20.7364 23 21.3333 22.403 21.3333 21.6667C21.3333 20.9303 20.7364 20.3333 20 20.3333H13.3333ZM18.6667 14.3333C18.6667 13.2288 19.5621 12.3333 20.6667 12.3333C21.7712 12.3333 22.6667 13.2288 22.6667 14.3333C22.6667 15.4379 21.7712 16.3333 20.6667 16.3333C19.5621 16.3333 18.6667 15.4379 18.6667 14.3333ZM14 12.3333C12.8954 12.3333 12 13.2288 12 14.3333C12 15.4379 12.8954 16.3333 14 16.3333C15.1046 16.3333 16 15.4379 16 14.3333C16 13.2288 15.1046 12.3333 14 12.3333Z" fill="white"/>
</svg>
