<svg width="32" height="32" viewBox="0 0 32 32" fill="none" xmlns="http://www.w3.org/2000/svg">
<mask id="path-1-outside-1_150_203" maskUnits="userSpaceOnUse" x="5.89401" y="1.48822" width="20" height="30" fill="black">
<rect fill="white" x="5.89401" y="1.48822" width="20" height="30"/>
<path fill-rule="evenodd" clip-rule="evenodd" d="M7.93408 19.0326C7.99928 18.9402 8.07324 18.852 8.15596 18.7693L9.62942 17.2958C9.84244 17.0828 10.0916 16.9279 10.3571 16.8311L10.3571 4.18639C10.3571 3.46871 10.9389 2.88691 11.6566 2.88691C12.3742 2.88691 12.956 3.46871 12.956 4.18638L12.956 17.1811L12.956 17.1811L12.956 13.9324C12.956 12.8559 13.8287 11.9832 14.9053 11.9832C15.9797 11.9832 16.8511 12.8525 16.8545 13.9262C16.8578 12.8526 17.7292 11.9832 18.8037 11.9832C19.8802 11.9832 20.7529 12.8559 20.7529 13.9324L20.7529 17.1811L20.7529 17.1811L20.7529 14.982C20.7529 14.0435 21.5137 13.2827 22.4522 13.2827C23.3907 13.2827 24.1515 14.0435 24.1515 14.982L24.1515 21.7792C24.1515 22.1258 24.0477 22.4482 23.8695 22.717L23.2414 29.4882L12.5894 28.2265L12.1191 26.4397C11.7267 26.3717 11.3508 26.1863 11.0478 25.8834L7.4798 22.3153C6.69875 21.5343 6.69875 20.268 7.4798 19.4869L7.93408 19.0326Z"/>
</mask>
<path d="M7.93408 19.0326L8.64118 19.7397L8.70186 19.6791L8.75131 19.6089L7.93408 19.0326ZM8.15596 18.7693L7.44886 18.0622H7.44886L8.15596 18.7693ZM9.62942 17.2958L10.3365 18.0029L10.3365 18.0029L9.62942 17.2958ZM10.3571 16.8311L10.6997 17.7706L11.3571 17.5308L11.3571 16.8311L10.3571 16.8311ZM12.956 17.1811L11.956 17.1811L11.956 18.1811L12.956 18.1811L12.956 17.1811ZM12.956 17.1811L12.956 18.1811L13.956 18.1811L13.956 17.1811L12.956 17.1811ZM16.8545 13.9262L15.8545 13.9293L17.8544 13.9293L16.8545 13.9262ZM20.7529 17.1811L19.7529 17.1811L19.7529 18.1811L20.7529 18.1811L20.7529 17.1811ZM20.7529 17.1811L20.7529 18.1811L21.7529 18.1811L21.7529 17.1811L20.7529 17.1811ZM24.1515 14.982L25.1515 14.982L24.1515 14.982ZM24.1515 21.7792L23.1515 21.7792L24.1515 21.7792ZM23.8695 22.717L23.036 22.1644L22.897 22.3741L22.8738 22.6247L23.8695 22.717ZM23.2414 29.4882L23.1238 30.4813L24.1424 30.6019L24.2372 29.5806L23.2414 29.4882ZM12.5894 28.2265L11.6223 28.4811L11.7956 29.1395L12.4717 29.2196L12.5894 28.2265ZM12.1191 26.4397L13.0861 26.1852L12.9226 25.5639L12.2897 25.4543L12.1191 26.4397ZM11.0478 25.8834L10.3407 26.5905L11.0478 25.8834ZM7.4798 22.3153L6.77269 23.0224H6.77269L7.4798 22.3153ZM7.4798 19.4869L6.77269 18.7798L6.77269 18.7798L7.4798 19.4869ZM8.75131 19.6089C8.78374 19.5629 8.82089 19.5186 8.86307 19.4764L7.44886 18.0622C7.32558 18.1855 7.21481 18.3174 7.11685 18.4563L8.75131 19.6089ZM8.86307 19.4764L10.3365 18.0029L8.92232 16.5887L7.44886 18.0622L8.86307 19.4764ZM10.3365 18.0029C10.4443 17.8951 10.5683 17.8184 10.6997 17.7706L10.0145 15.8916C9.6148 16.0373 9.24055 16.2705 8.92232 16.5887L10.3365 18.0029ZM11.3571 16.8311L11.3571 4.18639L9.35708 4.18639L9.35708 16.8311L11.3571 16.8311ZM11.3571 4.18639C11.3571 4.02099 11.4912 3.88691 11.6566 3.88691L11.6566 1.88691C10.3866 1.88691 9.35708 2.91642 9.35708 4.18639L11.3571 4.18639ZM11.6566 3.88691C11.8219 3.88691 11.956 4.02099 11.956 4.18638L13.956 4.18638C13.956 2.91642 12.9265 1.88691 11.6566 1.88691L11.6566 3.88691ZM11.956 4.18638L11.956 17.1811L13.956 17.1811L13.956 4.18638L11.956 4.18638ZM12.956 18.1811L12.956 18.1811L12.956 16.1811L12.956 16.1811L12.956 18.1811ZM13.956 17.1811L13.956 13.9324L11.956 13.9324L11.956 17.1811L13.956 17.1811ZM13.956 13.9324C13.956 13.4081 14.381 12.9832 14.9053 12.9832L14.9053 10.9832C13.2765 10.9832 11.956 12.3036 11.956 13.9324L13.956 13.9324ZM14.9053 12.9832C15.4285 12.9832 15.8528 13.4065 15.8545 13.9293L17.8544 13.9231C17.8494 12.2985 16.531 10.9832 14.9053 10.9832L14.9053 12.9832ZM17.8544 13.9293C17.8561 13.4066 18.2804 12.9832 18.8037 12.9832L18.8037 10.9832C17.178 10.9832 15.8595 12.2986 15.8545 13.9231L17.8544 13.9293ZM18.8037 12.9832C19.3279 12.9832 19.7529 13.4082 19.7529 13.9324L21.7529 13.9324C21.7529 12.3036 20.4325 10.9832 18.8037 10.9832L18.8037 12.9832ZM19.7529 13.9324L19.7529 17.1811L21.7529 17.1811L21.7529 13.9324L19.7529 13.9324ZM20.7529 18.1811L20.7529 18.1811L20.7529 16.1811L20.7529 16.1811L20.7529 18.1811ZM21.7529 17.1811L21.7529 14.982L19.7529 14.982L19.7529 17.1811L21.7529 17.1811ZM21.7529 14.982C21.7529 14.5957 22.066 14.2827 22.4522 14.2827L22.4522 12.2827C20.9614 12.2827 19.7529 13.4912 19.7529 14.982L21.7529 14.982ZM22.4522 14.2827C22.8384 14.2827 23.1515 14.5957 23.1515 14.982L25.1515 14.982C25.1515 13.4912 23.943 12.2827 22.4522 12.2827L22.4522 14.2827ZM23.1515 14.982L23.1515 21.7792L25.1515 21.7792L25.1515 14.982L23.1515 14.982ZM23.1515 21.7792C23.1515 21.9233 23.109 22.0544 23.036 22.1644L24.703 23.2696C24.9864 22.8421 25.1515 22.3284 25.1515 21.7792L23.1515 21.7792ZM22.8738 22.6247L22.2457 29.3959L24.2372 29.5806L24.8652 22.8094L22.8738 22.6247ZM23.3591 28.4952L12.707 27.2335L12.4717 29.2196L23.1238 30.4813L23.3591 28.4952ZM13.5564 27.972L13.0861 26.1852L11.152 26.6942L11.6223 28.4811L13.5564 27.972ZM12.2897 25.4543C12.0939 25.4205 11.9073 25.3286 11.7549 25.1762L10.3407 26.5905C10.7942 27.044 11.3595 27.323 11.9484 27.425L12.2897 25.4543ZM11.7549 25.1762L8.18691 21.6082L6.77269 23.0224L10.3407 26.5905L11.7549 25.1762ZM8.18691 21.6082C7.79638 21.2177 7.79638 20.5845 8.18691 20.194L6.77269 18.7798C5.60112 19.9514 5.60112 21.8509 6.77269 23.0224L8.18691 21.6082ZM8.18691 20.194L8.64118 19.7397L7.22697 18.3255L6.77269 18.7798L8.18691 20.194Z" fill="white" mask="url(#path-1-outside-1_150_203)"/>
<line x1="20.6402" y1="4.4507" x2="26.4357" y2="2.89779" stroke="white" stroke-width="2"/>
<path d="M16.7765 5.48595L20.4507 1.81172L21.7956 6.83081L16.7765 5.48595Z" fill="white"/>
</svg>
