<svg width="32" height="32" viewBox="0 0 32 32" fill="none" xmlns="http://www.w3.org/2000/svg">
<path d="M10.4076 7.59808C9.57917 6.1632 10.0708 4.32843 11.5057 3.5L14.1037 2L20.6037 13.2583L18.0057 14.7583C16.5708 15.5868 14.736 15.0951 13.9076 13.6603L10.4076 7.59808Z" fill="white"/>
<path d="M14.9373 12.0356C16.1088 10.8641 18.0083 10.8641 19.1799 12.0356L20.7542 13.6099L14.1359 20.2283L12.5616 18.654C11.39 17.4824 11.39 15.5829 12.5616 14.4113L14.9373 12.0356Z" fill="white"/>
<path d="M16.7863 13.1213C17.9578 11.9497 19.8573 11.9497 21.0289 13.1213L21.4124 13.5048L9.035 25.8822L8.65153 25.4987C7.47996 24.3271 7.47996 22.4276 8.65153 21.2561L16.7863 13.1213Z" fill="white"/>
<path d="M8.40759 21.5L10.7316 24.4423L11.7922 26.9172C11.7922 26.9172 13.6388 28.6934 12.8529 29.392C12.5266 29.6821 11.7922 29.7456 11.7922 29.7456L8.61026 26.5636L7.5496 25.5029C7.5496 25.5029 5.42828 24.5532 5.42828 23.3816C5.42828 22.2101 8.40759 21.5 8.40759 21.5Z" fill="white"/>
<line x1="20" y1="23" x2="26" y2="23" stroke="white" stroke-width="2"/>
<path d="M16 23L20.5 20.4019L20.5 25.5981L16 23Z" fill="white"/>
</svg>
