<svg width="32" height="32" viewBox="0 0 32 32" fill="none" xmlns="http://www.w3.org/2000/svg">
<path fill-rule="evenodd" clip-rule="evenodd" d="M13 7C10.7909 7 9 8.79086 9 11V14C9 13.4477 8.55228 13 8 13C7.44772 13 7 13.4477 7 14V20C7 20.5523 7.44772 21 8 21C8.55228 21 9 20.5523 9 20V19.6666C9 21.8874 10.2066 23.8265 12 24.8639V26V28V30H14H18H20V28V26V24.8639C21.7934 23.8264 23 21.8874 23 19.6666V11C23 8.79086 21.2091 7 18.9999 7H13ZM23 14C23 13.4477 23.4477 13 24 13C24.5523 13 25 13.4477 25 14V20C25 20.5523 24.5523 21 24 21C23.4477 21 23 20.5523 23 20V14ZM14 26H18V28H14V26Z" fill="white"/>
<path d="M8.92822 3C8.92822 3 8.58622 4.69418 8.92823 5.68567C9.31775 6.8149 10.9282 8 10.9282 8" stroke="white"/>
<path d="M12.9997 2C12.9997 2 12.053 3.44599 12.0023 4.49358C11.9445 5.68671 12.9997 7.38516 12.9997 7.38516" stroke="white"/>
<path d="M15.9997 2C15.9997 2 15.053 3.44599 15.0023 4.49358C14.9445 5.68671 15.9997 7.38516 15.9997 7.38516" stroke="white"/>
<path d="M18.9997 2C18.9997 2 18.053 3.44599 18.0023 4.49358C17.9445 5.68671 18.9997 7.38516 18.9997 7.38516" stroke="white"/>
<line x1="25" y1="5" x2="31" y2="5" stroke="white" stroke-width="2"/>
<path d="M21 5L25.5 2.40192L25.5 7.59808L21 5Z" fill="white"/>
</svg>
