<svg width="32" height="32" viewBox="0 0 32 32" fill="none" xmlns="http://www.w3.org/2000/svg">
<mask id="path-1-outside-1_150_187" maskUnits="userSpaceOnUse" x="4" y="2.03754" width="21" height="28" fill="black">
<rect fill="white" x="4" y="2.03754" width="21" height="28"/>
<path fill-rule="evenodd" clip-rule="evenodd" d="M11.5834 17.4259L11.5834 6.45093C11.5834 5.82895 12.0876 5.32473 12.7096 5.32473C13.3316 5.32473 13.8358 5.82895 13.8358 6.45093L13.8358 14.5859L14.7691 14.6303L14.7691 4.34505C14.7691 3.72307 15.2733 3.21885 15.8953 3.21885C16.5173 3.21885 17.0215 3.72307 17.0215 4.34505L17.0215 14.7376L18.4091 14.8036L18.4091 6.41266C18.4091 5.79068 18.9133 5.28646 19.5353 5.28646C20.1572 5.28646 20.6615 5.79068 20.6615 6.41266L20.6615 14.9109L21.335 14.943L21.335 9.56193C21.335 8.93994 21.8392 8.43573 22.4612 8.43573C23.0832 8.43573 23.5874 8.93994 23.5874 9.56193L23.5874 22.3695C23.5874 22.4938 23.5672 22.6135 23.53 22.7253L23.848 27.6618L14.3405 28.0375L13.7162 26.6461C13.2313 26.6269 12.752 26.4322 12.3817 26.0619L9.66661 23.3468C9.31858 22.9988 9.12563 22.5544 9.08776 22.0996L6.15198 16.8648C5.83116 16.2928 6.03482 15.5689 6.60688 15.2481C7.17893 14.9273 7.90275 15.131 8.22357 15.703L9.96215 18.803L10.92 17.8452C11.1138 17.6514 11.3412 17.5116 11.5834 17.4259Z"/>
</mask>
<path d="M11.5834 17.4259L11.917 18.3686L12.5834 18.1328L12.5834 17.4259L11.5834 17.4259ZM13.8358 6.45093L12.8358 6.45093L13.8358 6.45093ZM13.8358 14.5859L12.8358 14.5859L12.8358 15.5394L13.7883 15.5847L13.8358 14.5859ZM14.7691 14.6303L14.7216 15.6292L15.7691 15.6791L15.7691 14.6303L14.7691 14.6303ZM14.7691 4.34505L13.7691 4.34505L14.7691 4.34505ZM17.0215 14.7376L16.0215 14.7376L16.0215 15.6911L16.974 15.7364L17.0215 14.7376ZM18.4091 14.8036L18.3615 15.8025L19.4091 15.8524L19.4091 14.8036L18.4091 14.8036ZM18.4091 6.41266L19.4091 6.41266L18.4091 6.41266ZM20.6615 6.41266L21.6615 6.41266L20.6615 6.41266ZM20.6615 14.9109L19.6615 14.9109L19.6615 15.8644L20.6139 15.9098L20.6615 14.9109ZM21.335 14.943L21.2874 15.9418L22.335 15.9917L22.335 14.943L21.335 14.943ZM21.335 9.56193L20.335 9.56193L21.335 9.56193ZM23.5874 9.56193L22.5874 9.56193L23.5874 9.56193ZM23.5874 22.3695L24.5874 22.3695L23.5874 22.3695ZM23.53 22.7253L22.5812 22.4096L22.5195 22.5948L22.5321 22.7896L23.53 22.7253ZM23.848 27.6618L23.8875 28.661L24.9118 28.6205L24.8459 27.5975L23.848 27.6618ZM14.3405 28.0375L13.4281 28.4469L13.7047 29.0634L14.38 29.0368L14.3405 28.0375ZM13.7162 26.6461L14.6286 26.2368L14.375 25.6715L13.7558 25.6469L13.7162 26.6461ZM12.3817 26.0619L11.6746 26.769L11.6746 26.769L12.3817 26.0619ZM9.66661 23.3468L10.3737 22.6397L9.66661 23.3468ZM9.08776 22.0996L10.0843 22.0166L10.0663 21.8L9.95996 21.6104L9.08776 22.0996ZM6.15198 16.8648L7.02418 16.3757L7.02418 16.3757L6.15198 16.8648ZM6.60688 15.2481L7.09603 16.1203L7.09603 16.1203L6.60688 15.2481ZM8.22357 15.703L7.35138 16.1922L7.35138 16.1922L8.22357 15.703ZM9.96215 18.803L9.08995 19.2922L9.73573 20.4437L10.6693 19.5101L9.96215 18.803ZM10.92 17.8452L10.2129 17.1381L10.2129 17.1381L10.92 17.8452ZM12.5834 17.4259L12.5834 6.45093L10.5834 6.45093L10.5834 17.4259L12.5834 17.4259ZM12.5834 6.45093C12.5834 6.38123 12.6399 6.32473 12.7096 6.32473L12.7096 4.32473C11.5354 4.32473 10.5834 5.27667 10.5834 6.45093L12.5834 6.45093ZM12.7096 6.32473C12.7793 6.32473 12.8358 6.38123 12.8358 6.45093L14.8358 6.45093C14.8358 5.27666 13.8839 4.32473 12.7096 4.32473L12.7096 6.32473ZM12.8358 6.45093L12.8358 14.5859L14.8358 14.5859L14.8358 6.45093L12.8358 6.45093ZM13.7883 15.5847L14.7216 15.6292L14.8167 13.6314L13.8834 13.587L13.7883 15.5847ZM15.7691 14.6303L15.7691 4.34505L13.7691 4.34505L13.7691 14.6303L15.7691 14.6303ZM15.7691 4.34505C15.7691 4.27535 15.8256 4.21885 15.8953 4.21885L15.8953 2.21885C14.721 2.21885 13.7691 3.17078 13.7691 4.34505L15.7691 4.34505ZM15.8953 4.21885C15.965 4.21885 16.0215 4.27535 16.0215 4.34505L18.0215 4.34505C18.0215 3.17078 17.0696 2.21885 15.8953 2.21885L15.8953 4.21885ZM16.0215 4.34505L16.0215 14.7376L18.0215 14.7376L18.0215 4.34505L16.0215 4.34505ZM16.974 15.7364L18.3615 15.8025L18.4566 13.8048L17.0691 13.7387L16.974 15.7364ZM19.4091 14.8036L19.4091 6.41266L17.4091 6.41266L17.4091 14.8036L19.4091 14.8036ZM19.4091 6.41266C19.4091 6.34296 19.4656 6.28646 19.5353 6.28646L19.5353 4.28646C18.361 4.28646 17.4091 5.23839 17.4091 6.41266L19.4091 6.41266ZM19.5353 6.28646C19.605 6.28646 19.6615 6.34296 19.6615 6.41266L21.6615 6.41266C21.6615 5.23839 20.7095 4.28646 19.5353 4.28646L19.5353 6.28646ZM19.6615 6.41266L19.6615 14.9109L21.6615 14.9109L21.6615 6.41266L19.6615 6.41266ZM20.6139 15.9098L21.2874 15.9418L21.3825 13.9441L20.709 13.912L20.6139 15.9098ZM22.335 14.943L22.335 9.56193L20.335 9.56193L20.335 14.943L22.335 14.943ZM22.335 9.56193C22.335 9.49223 22.3915 9.43573 22.4612 9.43573L22.4612 7.43573C21.2869 7.43573 20.335 8.38766 20.335 9.56193L22.335 9.56193ZM22.4612 9.43573C22.5309 9.43573 22.5874 9.49223 22.5874 9.56193L24.5874 9.56193C24.5874 8.38766 23.6354 7.43573 22.4612 7.43573L22.4612 9.43573ZM22.5874 9.56193L22.5874 22.3695L24.5874 22.3695L24.5874 9.56193L22.5874 9.56193ZM22.5874 22.3695C22.5874 22.3852 22.5849 22.3983 22.5812 22.4096L24.4789 23.041C24.5495 22.8287 24.5874 22.6025 24.5874 22.3695L22.5874 22.3695ZM22.5321 22.7896L22.85 27.7261L24.8459 27.5975L24.5279 22.661L22.5321 22.7896ZM23.8085 26.6626L14.301 27.0383L14.38 29.0368L23.8875 28.661L23.8085 26.6626ZM15.2529 27.6282L14.6286 26.2368L12.8038 27.0555L13.4281 28.4469L15.2529 27.6282ZM13.7558 25.6469C13.5123 25.6373 13.2743 25.5403 13.0888 25.3548L11.6746 26.769C12.2296 27.324 12.9503 27.6166 13.6766 27.6454L13.7558 25.6469ZM13.0888 25.3548L10.3737 22.6397L8.9595 24.0539L11.6746 26.769L13.0888 25.3548ZM10.3737 22.6397C10.1991 22.4651 10.1033 22.2446 10.0843 22.0166L8.09121 22.1825C8.14797 22.8643 8.43804 23.5325 8.9595 24.0539L10.3737 22.6397ZM9.95996 21.6104L7.02418 16.3757L5.27978 17.354L8.21556 22.5887L9.95996 21.6104ZM7.02418 16.3757C6.97351 16.2853 7.00568 16.171 7.09603 16.1203L6.11773 14.3759C5.06397 14.9669 4.68881 16.3002 5.27978 17.354L7.02418 16.3757ZM7.09603 16.1203C7.18638 16.0696 7.3007 16.1018 7.35138 16.1922L9.09577 15.2139C8.5048 14.1601 7.17148 13.7849 6.11773 14.3759L7.09603 16.1203ZM7.35138 16.1922L9.08995 19.2922L10.8343 18.3139L9.09577 15.2139L7.35138 16.1922ZM10.6693 19.5101L11.6271 18.5523L10.2129 17.1381L9.25504 18.0959L10.6693 19.5101ZM11.6271 18.5523C11.7133 18.4661 11.8123 18.4056 11.917 18.3686L11.2498 16.4832C10.8701 16.6175 10.5143 16.8366 10.2129 17.1381L11.6271 18.5523Z" fill="white" mask="url(#path-1-outside-1_150_187)"/>
</svg>
