<svg width="32" height="32" viewBox="0 0 32 32" fill="none" xmlns="http://www.w3.org/2000/svg">
<path fill-rule="evenodd" clip-rule="evenodd" d="M13 5C10.7909 5 9 6.79086 9 9V12C9 11.4477 8.55228 11 8 11C7.44772 11 7 11.4477 7 12V18C7 18.5523 7.44772 19 8 19C8.55228 19 9 18.5523 9 18V17.6666C9 19.8874 10.2066 21.8265 12 22.8639V24V26V28H14H18H20V26V24V22.8639C21.7934 21.8264 23 19.8874 23 17.6666V9C23 6.79086 21.2091 5 18.9999 5H13ZM23 12C23 11.4477 23.4477 11 24 11C24.5523 11 25 11.4477 25 12V18C25 18.5523 24.5523 19 24 19C23.4477 19 23 18.5523 23 18V12ZM14 24H18V26H14V24Z" fill="white"/>
</svg>
