<svg width="32" height="32" viewBox="0 0 32 32" fill="none" xmlns="http://www.w3.org/2000/svg">
<g clip-path="url(#clip0_317_25)">
<path d="M18.9304 19.8236C18.9304 19.8236 16.0522 19.2897 14.5662 18.2541C12.9398 17.1206 11.4014 14.2849 11.4014 14.2849" stroke="white"/>
<line x1="13.6677" y1="21.9069" x2="15.7321" y2="18.3313" stroke="white"/>
<line x1="13.8701" y1="15.6562" x2="16.6901" y2="14.9006" stroke="white"/>
<rect x="3.78769" y="5.65805" width="1.91946" height="6.29866" transform="rotate(-30 3.78769 5.65805)" stroke="white"/>
<rect x="7.58017" y="3.46847" width="1.91946" height="6.29866" transform="rotate(-30 7.58017 3.46847)" stroke="white"/>
<rect x="12.1026" y="2.543" width="1.91946" height="4.8261" transform="rotate(-30 12.1026 2.543)" stroke="white"/>
<mask id="path-7-inside-1_317_25" fill="white">
<path fill-rule="evenodd" clip-rule="evenodd" d="M22.5677 5.24921L20.6214 1.87811L14.2463 5.5588C9.60464 6.17773 6.02411 10.1524 6.02411 14.9633C6.02411 20.2035 12.4617 31.7502 17.702 31.7502C22.9422 31.7502 25.0006 20.2035 25.0006 14.9633C25.0006 11.5952 23.2456 8.63691 20.6002 6.95311L22.5677 5.24921Z"/>
</mask>
<path d="M20.6214 1.87811L22.3535 0.878113L21.3535 -0.853938L19.6214 0.146062L20.6214 1.87811ZM22.5677 5.24921L23.877 6.76107L25.1257 5.67971L24.2998 4.24921L22.5677 5.24921ZM14.2463 5.5588L14.5106 7.54125L14.9032 7.4889L15.2463 7.29085L14.2463 5.5588ZM20.6002 6.95311L19.2909 5.44125L17.2615 7.19878L19.5263 8.64033L20.6002 6.95311ZM18.8894 2.87811L20.8357 6.24921L24.2998 4.24921L22.3535 0.878113L18.8894 2.87811ZM15.2463 7.29085L21.6214 3.61016L19.6214 0.146062L13.2463 3.82675L15.2463 7.29085ZM8.02411 14.9633C8.02411 11.1681 10.8494 8.02946 14.5106 7.54125L13.9819 3.57635C8.35992 4.32601 4.02411 9.1367 4.02411 14.9633H8.02411ZM17.702 29.7502C17.1006 29.7502 16.1733 29.3925 14.9782 28.3543C13.8258 27.3532 12.6485 25.9111 11.583 24.2445C10.5232 22.587 9.61818 20.7768 8.98347 19.0919C8.33591 17.373 8.02411 15.9278 8.02411 14.9633H4.02411C4.02411 16.6189 4.51701 18.5822 5.24027 20.5021C5.97637 22.456 7.00826 24.515 8.21292 26.3992C9.41181 28.2743 10.8265 30.0464 12.355 31.3741C13.8407 32.6646 15.6832 33.7502 17.702 33.7502V29.7502ZM23.0006 14.9633C23.0006 17.3969 22.5122 21.3791 21.4173 24.6947C20.868 26.3577 20.2108 27.714 19.4903 28.6161C18.7792 29.5065 18.186 29.7502 17.702 29.7502V33.7502C19.838 33.7502 21.4672 32.5506 22.6159 31.1122C23.7552 29.6856 24.5951 27.8277 25.2155 25.949C26.4598 22.1812 27.0006 17.77 27.0006 14.9633H23.0006ZM19.5263 8.64033C21.6193 9.97249 23.0006 12.3073 23.0006 14.9633H27.0006C27.0006 10.8831 24.872 7.30132 21.6741 5.26589L19.5263 8.64033ZM21.2584 3.73735L19.2909 5.44125L21.9095 8.46496L23.877 6.76107L21.2584 3.73735Z" fill="white" mask="url(#path-7-inside-1_317_25)"/>
<path d="M12.4524 8.23421C12.4524 8.23421 13.41 12.7951 11.1875 15.0176C8.96505 17.24 5.92804 17.8063 4.40414 16.2824C2.88025 14.7586 3.44656 11.7215 5.66902 9.49908C7.89147 7.27662 12.4524 8.23421 12.4524 8.23421Z" fill="white"/>
</g>
<defs>
<clipPath id="clip0_317_25">
<rect width="32" height="32" fill="white"/>
</clipPath>
</defs>
</svg>
