<svg width="32" height="32" viewBox="0 0 32 32" fill="none" xmlns="http://www.w3.org/2000/svg">
<path d="M17.8416 17.8296C17.8416 17.8296 15.8698 17.4638 14.8518 16.7544C13.7376 15.9779 12.6838 14.0352 12.6838 14.0352" stroke="white"/>
<line x1="14.0999" y1="19.178" x2="15.5142" y2="16.7285" stroke="white"/>
<line x1="14.3342" y1="14.8226" x2="16.2661" y2="14.3049" stroke="white"/>
<rect x="7.68301" y="8.18301" width="1" height="4" transform="rotate(-30 7.68301 8.18301)" stroke="white"/>
<rect x="10.2811" y="6.68301" width="1" height="4" transform="rotate(-30 10.2811 6.68301)" stroke="white"/>
<rect x="13.3792" y="6.04904" width="1" height="2.99121" transform="rotate(-30 13.3792 6.04904)" stroke="white"/>
<mask id="path-7-inside-1_317_25" fill="white">
<path fill-rule="evenodd" clip-rule="evenodd" d="M20.3333 7.84529L19 5.53589L14.6327 8.05736C11.4529 8.48135 9 11.2042 9 14.5C9 18.0899 13.4101 26 17 26C20.5899 26 22 18.0899 22 14.5C22 12.1926 20.7977 10.1661 18.9855 9.01255L20.3333 7.84529Z"/>
</mask>
<path d="M19 5.53589L20.7321 4.53589L19.7321 2.80384L18 3.80384L19 5.53589ZM20.3333 7.84529L21.6426 9.35714L22.8913 8.27579L22.0654 6.84529L20.3333 7.84529ZM14.6327 8.05736L14.897 10.0398L15.2896 9.98746L15.6327 9.78941L14.6327 8.05736ZM18.9855 9.01255L17.6762 7.5007L15.6468 9.25822L17.9116 10.6998L18.9855 9.01255ZM17.2679 6.53589L18.6013 8.84529L22.0654 6.84529L20.7321 4.53589L17.2679 6.53589ZM15.6327 9.78941L20 7.26794L18 3.80384L13.6327 6.32531L15.6327 9.78941ZM11 14.5C11 12.2199 12.6976 10.3331 14.897 10.0398L14.3683 6.07491C10.2082 6.62962 7 10.1885 7 14.5H11ZM17 24C16.8113 24 16.3201 23.8695 15.5471 23.1981C14.8169 22.5637 14.0478 21.6277 13.3388 20.5188C12.6356 19.419 12.0356 18.2181 11.6168 17.1063C11.1851 15.9603 11 15.0519 11 14.5H7C7 15.743 7.36619 17.1695 7.87358 18.5164C8.39382 19.8974 9.1207 21.3471 9.96878 22.6735C10.8111 23.991 11.8176 25.2568 12.924 26.2178C13.9875 27.1417 15.3938 28 17 28V24ZM20 14.5C20 16.1084 19.6737 18.7689 18.9471 20.969C18.582 22.0744 18.1605 22.9244 17.7329 23.4599C17.3147 23.9836 17.0715 24 17 24V28C18.7234 28 20.0027 27.0276 20.8585 25.956C21.705 24.8961 22.3091 23.5443 22.7453 22.2234C23.6213 19.571 24 16.4815 24 14.5H20ZM17.9116 10.6998C19.1714 11.5016 20 12.9047 20 14.5H24C24 11.4805 22.4241 8.83048 20.0594 7.32534L17.9116 10.6998ZM19.024 6.33343L17.6762 7.5007L20.2948 10.5244L21.6426 9.35714L19.024 6.33343Z" fill="white" mask="url(#path-7-inside-1_317_25)"/>
<path d="M13.4037 9.89023C13.4037 9.89023 14.0598 13.0147 12.5372 14.5372C11.0147 16.0597 8.9342 16.4477 7.89024 15.4037C6.84629 14.3598 7.23424 12.2792 8.75675 10.7567C10.2793 9.23422 13.4037 9.89023 13.4037 9.89023Z" fill="white"/>
</svg>
