<svg width="32" height="32" viewBox="0 0 32 32" fill="none" xmlns="http://www.w3.org/2000/svg">
<path d="M17.4076 7.59808C16.5792 6.1632 17.0708 4.32843 18.5057 3.5L21.1037 2L27.6037 13.2583L25.0057 14.7583C23.5708 15.5868 21.736 15.0951 20.9076 13.6603L17.4076 7.59808Z" fill="white"/>
<path d="M21.9373 12.0356C23.1088 10.8641 25.0083 10.8641 26.1799 12.0356L27.7542 13.6099L21.1359 20.2283L19.5616 18.654C18.39 17.4824 18.39 15.5829 19.5616 14.4113L21.9373 12.0356Z" fill="white"/>
<path d="M23.7863 13.1213C24.9578 11.9497 26.8573 11.9497 28.0289 13.1213L28.4124 13.5048L16.035 25.8822L15.6515 25.4987C14.48 24.3271 14.48 22.4276 15.6515 21.2561L23.7863 13.1213Z" fill="white"/>
<path d="M15.4076 21.5L17.7316 24.4423L18.7922 26.9172C18.7922 26.9172 20.6388 28.6934 19.8529 29.392C19.5266 29.6821 18.7922 29.7456 18.7922 29.7456L15.6103 26.5636L14.5496 25.5029C14.5496 25.5029 12.4283 24.5532 12.4283 23.3816C12.4283 22.2101 15.4076 21.5 15.4076 21.5Z" fill="white"/>
<line x1="9.5" y1="16.866" x2="6.5" y2="11.6699" stroke="white" stroke-width="2"/>
<path d="M11.5 20.3301L7.00001 17.7321L11.5 15.134L11.5 20.3301Z" fill="white"/>
</svg>
