<svg width="32" height="32" viewBox="0 0 32 32" fill="none" xmlns="http://www.w3.org/2000/svg">
<mask id="path-1-inside-1_383_153" fill="white">
<path d="M11.8284 18.8588C13.4629 20.7997 13.5013 23.8971 11.085 24.6717C10.912 24.7271 10.7372 24.7758 10.5607 24.8175C9.00887 25.184 7.40034 24.9959 5.93853 24.2769C4.47672 23.5578 3.22729 22.3402 2.34824 20.7779C1.46919 19.2157 1 17.3789 1 15.5C1 13.6211 1.46919 11.7844 2.34824 10.2221C3.22729 8.65982 4.47672 7.44218 5.93853 6.72314C7.40034 6.00411 9.00887 5.81598 10.5607 6.18254C10.7372 6.22423 10.912 6.27287 11.085 6.32831C13.5013 7.10289 13.4629 10.2003 11.8284 12.1412V12.1412C10.194 14.0822 10.194 16.9178 11.8284 18.8588V18.8588Z"/>
</mask>
<path d="M11.8284 18.8588C13.4629 20.7997 13.5013 23.8971 11.085 24.6717C10.912 24.7271 10.7372 24.7758 10.5607 24.8175C9.00887 25.184 7.40034 24.9959 5.93853 24.2769C4.47672 23.5578 3.22729 22.3402 2.34824 20.7779C1.46919 19.2157 1 17.3789 1 15.5C1 13.6211 1.46919 11.7844 2.34824 10.2221C3.22729 8.65982 4.47672 7.44218 5.93853 6.72314C7.40034 6.00411 9.00887 5.81598 10.5607 6.18254C10.7372 6.22423 10.912 6.27287 11.085 6.32831C13.5013 7.10289 13.4629 10.2003 11.8284 12.1412V12.1412C10.194 14.0822 10.194 16.9178 11.8284 18.8588V18.8588Z" stroke="white" stroke-width="4" mask="url(#path-1-inside-1_383_153)"/>
<line x1="6.27735" y1="11.584" x2="9.27735" y2="13.584" stroke="white"/>
<line x1="7.77639" y1="18.5528" x2="9.77639" y2="17.5528" stroke="white"/>
<line x1="5" y1="15.5" x2="9" y2="15.5" stroke="white"/>
<path d="M10 15.0723C10 15.0723 11.4774 14.7203 12.6193 15.5693C13.333 16.0999 13.506 16.7147 13.9289 17.5572C15.6206 20.9275 14.802 27 14.802 27" stroke="white" stroke-width="2"/>
<mask id="path-6-inside-2_383_153" fill="white">
<path d="M20.1716 18.8588C18.5371 20.7997 18.4987 23.8971 20.915 24.6717C21.088 24.7271 21.2628 24.7758 21.4393 24.8175C22.9911 25.184 24.5997 24.9959 26.0615 24.2769C27.5233 23.5578 28.7727 22.3402 29.6518 20.7779C30.5308 19.2157 31 17.3789 31 15.5C31 13.6211 30.5308 11.7844 29.6518 10.2221C28.7727 8.65982 27.5233 7.44218 26.0615 6.72314C24.5997 6.00411 22.9911 5.81598 21.4393 6.18254C21.2628 6.22423 21.088 6.27287 20.915 6.32831C18.4987 7.10289 18.5371 10.2003 20.1716 12.1412V12.1412C21.806 14.0822 21.806 16.9178 20.1716 18.8588V18.8588Z"/>
</mask>
<path d="M20.1716 18.8588C18.5371 20.7997 18.4987 23.8971 20.915 24.6717C21.088 24.7271 21.2628 24.7758 21.4393 24.8175C22.9911 25.184 24.5997 24.9959 26.0615 24.2769C27.5233 23.5578 28.7727 22.3402 29.6518 20.7779C30.5308 19.2157 31 17.3789 31 15.5C31 13.6211 30.5308 11.7844 29.6518 10.2221C28.7727 8.65982 27.5233 7.44218 26.0615 6.72314C24.5997 6.00411 22.9911 5.81598 21.4393 6.18254C21.2628 6.22423 21.088 6.27287 20.915 6.32831C18.4987 7.10289 18.5371 10.2003 20.1716 12.1412V12.1412C21.806 14.0822 21.806 16.9178 20.1716 18.8588V18.8588Z" stroke="white" stroke-width="4" mask="url(#path-6-inside-2_383_153)"/>
<line y1="-0.5" x2="3.60555" y2="-0.5" transform="matrix(-0.83205 0.5547 0.5547 0.83205 26 12)" stroke="white"/>
<line y1="-0.5" x2="2.23607" y2="-0.5" transform="matrix(-0.894427 -0.447214 -0.447214 0.894427 24 19)" stroke="white"/>
<line y1="-0.5" x2="4" y2="-0.5" transform="matrix(-1 -4.91866e-09 -4.91866e-09 1 27 16)" stroke="white"/>
<path d="M22 15.0723C22 15.0723 20.5226 14.7203 19.3807 15.5693C18.667 16.0999 18.494 16.7147 18.0711 17.5572C16.3794 20.9275 17.198 27 17.198 27" stroke="white" stroke-width="2"/>
</svg>
