<svg width="32" height="32" viewBox="0 0 32 32" fill="none" xmlns="http://www.w3.org/2000/svg">
<path d="M8.40759 7.59808C7.57917 6.1632 8.07079 4.32843 9.50567 3.5L12.1037 2L18.6037 13.2583L16.0057 14.7583C14.5708 15.5868 12.736 15.0951 11.9076 13.6603L8.40759 7.59808Z" fill="white"/>
<path d="M12.9373 12.0356C14.1088 10.8641 16.0083 10.8641 17.1799 12.0356L18.7542 13.6099L12.1359 20.2283L10.5616 18.654C9.38999 17.4824 9.38999 15.5829 10.5616 14.4113L12.9373 12.0356Z" fill="white"/>
<path d="M14.7863 13.1213C15.9578 11.9497 17.8573 11.9497 19.0289 13.1213L19.4124 13.5048L7.035 25.8822L6.65153 25.4987C5.47996 24.3271 5.47996 22.4276 6.65153 21.2561L14.7863 13.1213Z" fill="white"/>
<path d="M6.40759 21.5L8.73158 24.4423L9.79224 26.9172C9.79224 26.9172 11.6388 28.6934 10.8529 29.392C10.5266 29.6821 9.79224 29.7456 9.79224 29.7456L6.61026 26.5636L5.5496 25.5029C5.5496 25.5029 3.42828 24.5532 3.42828 23.3816C3.42828 22.2101 6.40759 21.5 6.40759 21.5Z" fill="white"/>
<line x1="25" y1="14" x2="31" y2="14" stroke="white" stroke-width="2"/>
<path d="M21 14L25.5 11.4019L25.5 16.5981L21 14Z" fill="white"/>
</svg>
