<svg width="32" height="32" viewBox="0 0 32 32" fill="none" xmlns="http://www.w3.org/2000/svg">
<path d="M7.40759 7.59808C6.57917 6.1632 7.07079 4.32843 8.50567 3.5L11.1037 2L17.6037 13.2583L15.0057 14.7583C13.5708 15.5868 11.736 15.0951 10.9076 13.6603L7.40759 7.59808Z" fill="white"/>
<path d="M11.9373 12.0356C13.1088 10.8641 15.0083 10.8641 16.1799 12.0356L17.7542 13.6099L11.1359 20.2283L9.56157 18.654C8.38999 17.4824 8.38999 15.5829 9.56157 14.4113L11.9373 12.0356Z" fill="white"/>
<path d="M13.7863 13.1213C14.9578 11.9497 16.8573 11.9497 18.0289 13.1213L18.4124 13.5048L6.035 25.8822L5.65153 25.4987C4.47996 24.3271 4.47996 22.4276 5.65153 21.2561L13.7863 13.1213Z" fill="white"/>
<path d="M5.40759 21.5L7.73158 24.4423L8.79224 26.9172C8.79224 26.9172 10.6388 28.6934 9.8529 29.392C9.52657 29.6821 8.79224 29.7456 8.79224 29.7456L5.61026 26.5636L4.5496 25.5029C4.5496 25.5029 2.42828 24.5532 2.42828 23.3816C2.42828 22.2101 5.40759 21.5 5.40759 21.5Z" fill="white"/>
<line x1="24" y1="14" x2="30" y2="14" stroke="white" stroke-width="2"/>
<path d="M20 14L24.5 11.4019L24.5 16.5981L20 14Z" fill="white"/>
</svg>
