<svg width="32" height="32" viewBox="0 0 32 32" fill="none" xmlns="http://www.w3.org/2000/svg">
<path d="M13.4076 7.59808C12.5792 6.1632 13.0708 4.32843 14.5057 3.5L17.1037 2L23.6037 13.2583L21.0057 14.7583C19.5708 15.5868 17.736 15.0951 16.9076 13.6603L13.4076 7.59808Z" fill="white"/>
<path d="M17.9373 12.0356C19.1088 10.8641 21.0083 10.8641 22.1799 12.0356L23.7542 13.6099L17.1359 20.2283L15.5616 18.654C14.39 17.4824 14.39 15.5829 15.5616 14.4113L17.9373 12.0356Z" fill="white"/>
<path d="M19.7863 13.1213C20.9578 11.9497 22.8573 11.9497 24.0289 13.1213L24.4124 13.5048L12.035 25.8822L11.6515 25.4987C10.48 24.3271 10.48 22.4276 11.6515 21.2561L19.7863 13.1213Z" fill="white"/>
<path d="M11.4076 21.5L13.7316 24.4423L14.7922 26.9172C14.7922 26.9172 16.6388 28.6934 15.8529 29.392C15.5266 29.6821 14.7922 29.7456 14.7922 29.7456L11.6103 26.5636L10.5496 25.5029C10.5496 25.5029 8.42828 24.5532 8.42828 23.3816C8.42828 22.2101 11.4076 21.5 11.4076 21.5Z" fill="white"/>
</svg>
