<svg width="32" height="32" viewBox="0 0 32 32" fill="none" xmlns="http://www.w3.org/2000/svg">
<mask id="path-1-inside-1_312_62" fill="white">
<path fill-rule="evenodd" clip-rule="evenodd" d="M31 10C31 6.68629 28.3137 4 25 4C21.6863 4 19 6.68629 19 10V18.8824C19 20.0519 19.9481 21 21.1176 21C22.2872 21 23.2353 21.9481 23.2353 23.1176V25.0407C23.2353 27.1849 24.9735 28.9231 27.1176 28.9231C29.2618 28.9231 31 27.1849 31 25.0407V21V20.9231V10Z"/>
</mask>
<path d="M21 18.8824V10H17V18.8824H21ZM21.2353 23.1176V25.0407H25.2353V23.1176H21.2353ZM33 25.0407V21H29V25.0407H33ZM33 21V20.9231H29V21H33ZM29 10V20.9231H33V10H29ZM27.1176 30.9231C30.3664 30.9231 33 28.2894 33 25.0407H29C29 26.0803 28.1572 26.9231 27.1176 26.9231V30.9231ZM21.2353 25.0407C21.2353 28.2894 23.8689 30.9231 27.1176 30.9231V26.9231C26.0781 26.9231 25.2353 26.0803 25.2353 25.0407H21.2353ZM21.1176 23C21.1826 23 21.2353 23.0527 21.2353 23.1176H25.2353C25.2353 20.8435 23.3918 19 21.1176 19V23ZM17 18.8824C17 21.1565 18.8435 23 21.1176 23V19C21.0527 19 21 18.9473 21 18.8824H17ZM25 6C27.2091 6 29 7.79086 29 10H33C33 5.58172 29.4183 2 25 2V6ZM25 2C20.5817 2 17 5.58172 17 10H21C21 7.79086 22.7909 6 25 6V2Z" fill="white" mask="url(#path-1-inside-1_312_62)"/>
<mask id="path-3-inside-2_312_62" fill="white">
<path fill-rule="evenodd" clip-rule="evenodd" d="M1 10C1 6.68629 3.68629 4 7 4C10.3137 4 13 6.68629 13 10V18.8824C13 20.0519 12.0519 21 10.8824 21C9.71281 21 8.76471 21.9481 8.76471 23.1176V25.0407C8.76471 27.1849 7.02652 28.9231 4.88235 28.9231C2.73819 28.9231 1 27.1849 1 25.0407V21V20.9231V10Z"/>
</mask>
<path d="M11 18.8824V10H15V18.8824H11ZM10.7647 23.1176V25.0407H6.76471V23.1176H10.7647ZM-1 25.0407V21H3V25.0407H-1ZM-1 21V20.9231H3V21H-1ZM3 10V20.9231H-1V10H3ZM4.88235 30.9231C1.63362 30.9231 -1 28.2894 -1 25.0407H3C3 26.0803 3.84276 26.9231 4.88235 26.9231V30.9231ZM10.7647 25.0407C10.7647 28.2894 8.13109 30.9231 4.88235 30.9231V26.9231C5.92195 26.9231 6.76471 26.0803 6.76471 25.0407H10.7647ZM10.8824 23C10.8174 23 10.7647 23.0527 10.7647 23.1176H6.76471C6.76471 20.8435 8.60824 19 10.8824 19V23ZM15 18.8824C15 21.1565 13.1565 23 10.8824 23V19C10.9473 19 11 18.9473 11 18.8824H15ZM7 6C4.79086 6 3 7.79086 3 10H-1C-1 5.58172 2.58172 2 7 2V6ZM7 2C11.4183 2 15 5.58172 15 10H11C11 7.79086 9.20914 6 7 6V2Z" fill="white" mask="url(#path-3-inside-2_312_62)"/>
<line x1="16" y1="1" x2="16" y2="6" stroke="white" stroke-width="2" stroke-dasharray="2 1"/>
<line x1="12.5251" y1="9.56065" x2="16.0607" y2="6.02512" stroke="white" stroke-width="2" stroke-dasharray="2 1"/>
<line x1="16.1716" y1="6.29289" x2="19.7071" y2="9.82843" stroke="white" stroke-width="2" stroke-dasharray="2 1"/>
</svg>
