<svg width="32" height="32" viewBox="0 0 32 32" fill="none" xmlns="http://www.w3.org/2000/svg">
<line x1="7" y1="11.3764" x2="25" y2="11.3764" stroke="white"/>
<line x1="15.9" y1="12.1634" x2="15.9" y2="21.634" stroke="white" stroke-width="2"/>
<mask id="path-3-inside-1_150_234" fill="white">
<path d="M7.20001 11.1111H24.8V22C24.8 25.866 21.666 29 17.8 29H14.2C10.334 29 7.20001 25.866 7.20001 22V11.1111Z"/>
</mask>
<path d="M7.20001 11.1111H24.8H7.20001ZM26.8 22C26.8 26.9706 22.7706 31 17.8 31H14.2C9.22945 31 5.20001 26.9706 5.20001 22H9.20001C9.20001 24.7614 11.4386 27 14.2 27H17.8C20.5614 27 22.8 24.7614 22.8 22H26.8ZM14.2 31C9.22945 31 5.20001 26.9706 5.20001 22V11.1111H9.20001V22C9.20001 24.7614 11.4386 27 14.2 27V31ZM26.8 11.1111V22C26.8 26.9706 22.7706 31 17.8 31V27C20.5614 27 22.8 24.7614 22.8 22V11.1111H26.8Z" fill="white" mask="url(#path-3-inside-1_150_234)"/>
<path fill-rule="evenodd" clip-rule="evenodd" d="M5 2C3.34315 2 2 3.34315 2 5V14C2 15.6569 3.34315 17 5 17H6.22223V15H5C4.44772 15 4 14.5523 4 14V5C4 4.44772 4.44772 4 5 4H27C27.5523 4 28 4.44772 28 5V14C28 14.5523 27.5523 15 27 15H25.7778V17H27C28.6569 17 30 15.6569 30 14V5C30 3.34315 28.6569 2 27 2H5Z" fill="white"/>
<line x1="4" y1="7.5" x2="28" y2="7.5" stroke="white"/>
<line x1="8.5" y1="8" x2="8.5" y2="4" stroke="white"/>
<line x1="13.5" y1="8" x2="13.5" y2="4" stroke="white"/>
<line x1="18.5" y1="8" x2="18.5" y2="4" stroke="white"/>
<line x1="23.5" y1="8" x2="23.5" y2="4" stroke="white"/>
<line x1="25" y1="11.5" x2="28" y2="11.5" stroke="white"/>
<line x1="4" y1="11.5" x2="7" y2="11.5" stroke="white"/>
</svg>
