<svg width="32" height="32" viewBox="0 0 32 32" fill="none" xmlns="http://www.w3.org/2000/svg">
<path fill-rule="evenodd" clip-rule="evenodd" d="M13 2C10.7909 2 9 3.79086 9 6V9C9 8.44772 8.55228 8 8 8C7.44772 8 7 8.44772 7 9V15C7 15.5523 7.44772 16 8 16C8.55228 16 9 15.5523 9 15V14.6666C9 16.8874 10.2066 18.8265 12 19.8639V21V23V25H14H18H20V23V21V19.8639C21.7934 18.8264 23 16.8874 23 14.6666V6C23 3.79086 21.2091 2 18.9999 2H13ZM23 9C23 8.44772 23.4477 8 24 8C24.5523 8 25 8.44772 25 9V15C25 15.5523 24.5523 16 24 16C23.4477 16 23 15.5523 23 15V9ZM14 21H18V23H14V21Z" fill="white"/>
<line x1="7.36397" y1="24.9497" x2="3.12133" y2="29.1924" stroke="white" stroke-width="2"/>
<path d="M10.1924 22.1213L8.84756 27.1404L5.17333 23.4662L10.1924 22.1213Z" fill="white"/>
<line y1="-1" x2="6" y2="-1" transform="matrix(0.707107 0.707107 0.707107 -0.707107 25.6569 24.2426)" stroke="white" stroke-width="2"/>
<path d="M22.1213 22.1213L23.4662 27.1404L27.1404 23.4662L22.1213 22.1213Z" fill="white"/>
</svg>
