<svg width="32" height="32" viewBox="0 0 32 32" fill="none" xmlns="http://www.w3.org/2000/svg">
<path d="M19.1358 19.024C19.4294 19.4918 20.0466 19.6331 20.5144 19.3395C20.9822 19.0459 21.1234 18.4287 20.8298 17.9609L19.1358 19.024ZM9.03248 2.92575L19.1358 19.024L20.8298 17.9609L10.7265 1.86258L9.03248 2.92575Z" fill="white"/>
<path d="M16.6499 26.9033L13.6166 25.152" stroke="white" stroke-width="3" stroke-linecap="round"/>
<path d="M7.40283 21.1002L21.7565 17.2541L7.40283 21.1002ZM24.6724 22.3411C25.2442 24.475 23.9779 26.6683 21.844 27.2401L12.803 29.6626C10.6691 30.2344 8.47574 28.968 7.90397 26.8342L9.83583 26.3165C10.1217 27.3835 11.2184 28.0166 12.2853 27.7308L20.8434 25.4376C21.6436 25.2232 22.0605 24.1845 21.7746 23.1175L24.6724 22.3411ZM12.803 29.6626C10.6691 30.2344 8.47574 28.968 7.90397 26.8342L7.47218 25.2227C6.90042 23.0888 8.16675 20.8955 10.3006 20.3237C9.23368 20.6096 8.71639 22.1387 9.14521 23.7391L9.83583 26.3165C10.1217 27.3835 11.2184 28.0166 12.2853 27.7308L12.803 29.6626ZM18.8587 18.0306C21.2593 17.3874 23.7268 18.812 24.37 21.2126L24.6724 22.3411C25.2442 24.475 23.9779 26.6683 21.844 27.2401L20.8434 25.4376C21.6436 25.2232 22.0605 24.1845 21.7746 23.1175L21.084 20.5402C20.6552 18.9398 19.6589 17.8162 18.8587 18.0306Z" fill="white"/>
</svg>
