<svg width="32" height="32" viewBox="0 0 32 32" fill="none" xmlns="http://www.w3.org/2000/svg">
<mask id="path-1-outside-1_150_169" maskUnits="userSpaceOnUse" x="6" y="1.03754" width="22" height="29" fill="black">
<rect fill="white" x="6" y="1.03754" width="22" height="29"/>
<path fill-rule="evenodd" clip-rule="evenodd" d="M20.369 17.3355L20.369 6.26708C20.369 5.6398 19.8605 5.13129 19.2332 5.13129C18.6059 5.13129 18.0974 5.6398 18.0974 6.26708L18.0974 14.4713L17.1562 14.5161L17.1562 4.14326C17.1562 3.51598 16.6477 3.00747 16.0204 3.00747C15.3931 3.00747 14.8846 3.51599 14.8846 4.14326L14.8846 14.6243L13.4853 14.6909L13.4853 6.22848C13.4853 5.60121 12.9767 5.09269 12.3495 5.09269C11.7222 5.09269 11.2137 5.60121 11.2137 6.22848L11.2137 14.7991L10.5344 14.8314L10.5344 9.40457C10.5344 8.77729 10.0259 8.26878 9.39862 8.26878C8.77134 8.26878 8.26283 8.77729 8.26283 9.40457L8.26283 22.3212C8.26283 22.4466 8.28316 22.5673 8.32069 22.6801L8.00002 27.6586L17.5885 28.0375L18.2148 26.6415C18.7007 26.6228 19.181 26.428 19.5519 26.0572L22.3142 23.2948C22.6656 22.9435 22.8589 22.4939 22.8941 22.0344L25.8467 16.7697C26.1703 16.1927 25.9649 15.4627 25.388 15.1392C24.811 14.8156 24.081 15.021 23.7575 15.598L22.0041 18.7244L21.0381 17.7584C20.8426 17.5629 20.6133 17.422 20.369 17.3355Z"/>
</mask>
<path d="M20.369 17.3355L20.0354 18.2782L19.369 18.0424L19.369 17.3355L20.369 17.3355ZM20.369 6.26708L19.369 6.26708L20.369 6.26708ZM18.0974 6.26708L17.0974 6.26708L18.0974 6.26708ZM18.0974 14.4713L19.0974 14.4713L19.0974 15.4248L18.145 15.4702L18.0974 14.4713ZM17.1562 14.5161L17.2038 15.515L16.1562 15.5649L16.1562 14.5161L17.1562 14.5161ZM14.8846 14.6243L15.8846 14.6243L15.8846 15.5778L14.9322 15.6232L14.8846 14.6243ZM13.4853 14.6909L13.5328 15.6898L12.4853 15.7397L12.4853 14.6909L13.4853 14.6909ZM13.4853 6.22848L12.4853 6.22848L13.4853 6.22848ZM11.2137 6.22848L10.2137 6.22848L11.2137 6.22848ZM11.2137 14.7991L12.2137 14.7991L12.2137 15.7526L11.2612 15.798L11.2137 14.7991ZM10.5344 14.8314L10.582 15.8303L9.53441 15.8802L9.53441 14.8314L10.5344 14.8314ZM10.5344 9.40457L9.53441 9.40457L10.5344 9.40457ZM8.26283 9.40457L7.26283 9.40457L8.26283 9.40457ZM8.26283 22.3212L9.26283 22.3212L8.26283 22.3212ZM8.32069 22.6801L9.26954 22.3643L9.33117 22.5496L9.31862 22.7443L8.32069 22.6801ZM8.00002 27.6586L7.96053 28.6578L6.9362 28.6173L7.00209 27.5943L8.00002 27.6586ZM17.5885 28.0375L18.5009 28.4469L18.2243 29.0634L17.549 29.0368L17.5885 28.0375ZM18.2148 26.6415L17.3025 26.2321L17.5565 25.666L18.1765 25.6422L18.2148 26.6415ZM22.8941 22.0344L21.897 21.958L21.9139 21.7378L22.0219 21.5453L22.8941 22.0344ZM25.8467 16.7697L26.7189 17.2588H26.7189L25.8467 16.7697ZM25.388 15.1392L24.8988 16.0114L24.8988 16.0114L25.388 15.1392ZM23.7575 15.598L22.8853 15.1088L22.8853 15.1088L23.7575 15.598ZM22.0041 18.7244L22.8763 19.2135L22.2305 20.365L21.297 19.4315L22.0041 18.7244ZM19.369 17.3355L19.369 6.26708L21.369 6.26708L21.369 17.3355L19.369 17.3355ZM19.369 6.26708C19.369 6.19208 19.3082 6.13129 19.2332 6.13129L19.2332 4.13129C20.4128 4.13129 21.369 5.08751 21.369 6.26708L19.369 6.26708ZM19.2332 6.13129C19.1582 6.13129 19.0974 6.19208 19.0974 6.26708L17.0974 6.26708C17.0974 5.08751 18.0537 4.13129 19.2332 4.13129L19.2332 6.13129ZM19.0974 6.26708L19.0974 14.4713L17.0974 14.4713L17.0974 6.26708L19.0974 6.26708ZM18.145 15.4702L17.2038 15.515L17.1086 13.5172L18.0499 13.4724L18.145 15.4702ZM16.1562 14.5161L16.1562 4.14326L18.1562 4.14326L18.1562 14.5161L16.1562 14.5161ZM16.1562 4.14326C16.1562 4.06827 16.0954 4.00747 16.0204 4.00747L16.0204 2.00747C17.2 2.00747 18.1562 2.9637 18.1562 4.14326L16.1562 4.14326ZM16.0204 4.00747C15.9454 4.00747 15.8846 4.06827 15.8846 4.14326L13.8846 4.14326C13.8846 2.9637 14.8408 2.00747 16.0204 2.00747L16.0204 4.00747ZM15.8846 4.14326L15.8846 14.6243L13.8846 14.6243L13.8846 4.14326L15.8846 4.14326ZM14.9322 15.6232L13.5328 15.6898L13.4377 13.6921L14.8371 13.6254L14.9322 15.6232ZM12.4853 14.6909L12.4853 6.22848L14.4853 6.22848L14.4853 14.6909L12.4853 14.6909ZM12.4853 6.22848C12.4853 6.15349 12.4245 6.09269 12.3495 6.09269L12.3495 4.09269C13.529 4.09269 14.4853 5.04892 14.4853 6.22848L12.4853 6.22848ZM12.3495 6.09269C12.2745 6.09269 12.2137 6.15349 12.2137 6.22848L10.2137 6.22848C10.2137 5.04892 11.1699 4.09269 12.3495 4.09269L12.3495 6.09269ZM12.2137 6.22848L12.2137 14.7991L10.2137 14.7991L10.2137 6.22848L12.2137 6.22848ZM11.2612 15.798L10.582 15.8303L10.4868 13.8326L11.1661 13.8002L11.2612 15.798ZM9.53441 14.8314L9.53441 9.40457L11.5344 9.40457L11.5344 14.8314L9.53441 14.8314ZM9.53441 9.40457C9.53441 9.32958 9.47362 9.26878 9.39862 9.26878L9.39862 7.26878C10.5782 7.26878 11.5344 8.22501 11.5344 9.40457L9.53441 9.40457ZM9.39862 9.26878C9.32363 9.26878 9.26283 9.32957 9.26283 9.40457L7.26283 9.40457C7.26283 8.22501 8.21906 7.26878 9.39862 7.26878L9.39862 9.26878ZM9.26283 9.40457L9.26283 22.3212L7.26283 22.3212L7.26283 9.40457L9.26283 9.40457ZM9.26283 22.3212C9.26283 22.338 9.26545 22.3521 9.26954 22.3643L7.37184 22.9958C7.30086 22.7825 7.26283 22.5553 7.26283 22.3212L9.26283 22.3212ZM9.31862 22.7443L8.99795 27.7229L7.00209 27.5943L7.32276 22.6158L9.31862 22.7443ZM8.03951 26.6594L17.628 27.0383L17.549 29.0368L7.96053 28.6578L8.03951 26.6594ZM16.6761 27.6282L17.3025 26.2321L19.1272 27.0508L18.5009 28.4469L16.6761 27.6282ZM18.1765 25.6422C18.4205 25.6328 18.659 25.5359 18.8448 25.35L20.259 26.7643C19.703 27.3202 18.9808 27.6128 18.2532 27.6407L18.1765 25.6422ZM18.8448 25.35L21.6071 22.5877L23.0213 24.0019L20.259 26.7643L18.8448 25.35ZM21.6071 22.5877C21.7833 22.4115 21.8794 22.1883 21.897 21.958L23.8912 22.1109C23.8384 22.7994 23.5478 23.4754 23.0213 24.0019L21.6071 22.5877ZM22.0219 21.5453L24.9745 16.2805L26.7189 17.2588L23.7663 22.5236L22.0219 21.5453ZM24.9745 16.2805C25.0279 16.1853 24.994 16.0648 24.8988 16.0114L25.8771 14.267C26.9357 14.8607 27.3126 16.2002 26.7189 17.2588L24.9745 16.2805ZM24.8988 16.0114C24.8036 15.958 24.6831 15.9919 24.6297 16.0871L22.8853 15.1088C23.479 14.0502 24.8185 13.6733 25.8771 14.267L24.8988 16.0114ZM24.6297 16.0871L22.8763 19.2135L21.1319 18.2352L22.8853 15.1088L24.6297 16.0871ZM21.297 19.4315L20.331 18.4655L21.7452 17.0513L22.7112 18.0173L21.297 19.4315ZM20.331 18.4655C20.2431 18.3776 20.1422 18.316 20.0354 18.2782L20.7026 16.3928C21.0844 16.5279 21.4421 16.7482 21.7452 17.0513L20.331 18.4655Z" fill="white" mask="url(#path-1-outside-1_150_169)"/>
<path d="M18.6174 18.3406C18.6174 18.3406 16.7638 18.8023 15.7779 19.4764C14.319 20.4739 13.0628 23.0969 13.0628 23.0969" stroke="white"/>
<line y1="-0.5" x2="4.09515" y2="-0.5" transform="matrix(-0.83205 -0.5547 -0.5547 0.83205 15.9505 20.0444)" stroke="white"/>
</svg>
