<svg width="32" height="32" viewBox="0 0 32 32" fill="none" xmlns="http://www.w3.org/2000/svg">
<path d="M17.6529 5.63426L22.46 6.16838C23.9062 6.32906 25.151 7.26235 25.7106 8.60545L28.9627 16.4106C29.2824 17.1777 29.3551 18.0252 29.171 18.8355L27.9094 24.3865C27.4955 26.2076 25.8765 27.5 24.0089 27.5H14.6198C13.3072 27.5 12.0781 26.856 11.331 25.7768L10.8225 25.0423C9.67949 23.3913 9.94137 21.1481 11.434 19.8048C12.7538 18.617 13.4786 16.9048 13.4129 15.1304L13.2139 9.75784C13.1235 7.316 15.2244 5.36442 17.6529 5.63426Z" stroke="white" stroke-width="2"/>
<path d="M7.40002 1.70001C7.40002 1.70001 7.0277 5.72595 8.5 7.5C9.83959 9.11414 13.4 9.70001 13.4 9.70001" stroke="white" stroke-width="4"/>
<path d="M10.912 23.8409C10.912 23.8409 6.87385 24.0417 5.32585 25.7501C3.91739 27.3045 3.84092 30.912 3.84092 30.912" stroke="white" stroke-width="4"/>
<path d="M13 19.6467C13 19.6467 15.2649 21.2759 17.2857 21.0753C19.5236 20.8531 20.7533 18.6759 23 18.5753C24.7624 18.4964 27.2857 19.6467 27.2857 19.6467" stroke="white" stroke-width="3"/>
<path d="M15.1429 23.7711C15.1429 23.7711 16.7283 25.156 18.1429 24.9854C19.7094 24.7966 20.5702 22.9459 22.1429 22.8604C23.3766 22.7933 25.1429 23.7711 25.1429 23.7711" stroke="white" stroke-width="2"/>
</svg>
