<svg width="32" height="32" viewBox="0 0 32 32" fill="none" xmlns="http://www.w3.org/2000/svg">
<line x1="5" y1="6.33334" x2="27" y2="6.33334" stroke="white" stroke-width="2"/>
<line x1="15.7778" y1="7.33334" x2="15.7778" y2="18.3333" stroke="white" stroke-width="2"/>
<mask id="path-3-inside-1_150_102" fill="white">
<path d="M6.22223 6.11111H25.7778V19.8889C25.7778 23.7549 22.6438 26.8889 18.7778 26.8889H13.2222C9.35624 26.8889 6.22223 23.7549 6.22223 19.8889V6.11111Z"/>
</mask>
<path d="M6.22223 6.11111H25.7778H6.22223ZM27.7778 19.8889C27.7778 24.8595 23.7483 28.8889 18.7778 28.8889H13.2222C8.25167 28.8889 4.22223 24.8595 4.22223 19.8889H8.22223C8.22223 22.6503 10.4608 24.8889 13.2222 24.8889H18.7778C21.5392 24.8889 23.7778 22.6503 23.7778 19.8889H27.7778ZM13.2222 28.8889C8.25167 28.8889 4.22223 24.8595 4.22223 19.8889V6.11111H8.22223V19.8889C8.22223 22.6503 10.4608 24.8889 13.2222 24.8889V28.8889ZM27.7778 6.11111V19.8889C27.7778 24.8595 23.7483 28.8889 18.7778 28.8889V24.8889C21.5392 24.8889 23.7778 22.6503 23.7778 19.8889V6.11111H27.7778Z" fill="white" mask="url(#path-3-inside-1_150_102)"/>
</svg>
