<svg width="32" height="32" viewBox="0 0 32 32" fill="none" xmlns="http://www.w3.org/2000/svg">
<mask id="path-1-outside-1_150_141" maskUnits="userSpaceOnUse" x="4.5" y="2.40909" width="24" height="26" fill="black">
<rect fill="white" x="4.5" y="2.40909" width="24" height="26"/>
<path fill-rule="evenodd" clip-rule="evenodd" d="M13 6.59091L18.3182 5.40909L19.233 7.54373C20.0073 8.41875 21.9799 10.709 23.0454 12.5C24.5793 15.0782 26 19.5909 26 19.5909L22.1673 21.2335C21.3983 23.3668 19.172 24.9091 16.5455 24.9091C14.7315 24.9091 13.1085 24.1735 12.0246 23.0157C11.7618 23.4396 11.4505 23.8328 11.0962 24.1871C10.4926 24.7907 9.77606 25.2695 8.98744 25.5961C8.19883 25.9228 7.35359 26.0909 6.5 26.0909L6.50001 19.5909L6.50001 13.0909C7.3536 13.0909 8.19884 13.259 8.98745 13.5857C9.77607 13.9123 10.4926 14.3911 11.0962 14.9947C11.4505 15.349 11.7618 15.7422 12.0246 16.1661C13.1085 15.0083 14.7315 14.2727 16.5455 14.2727C17.1879 14.2727 17.8064 14.365 18.3854 14.5356C18.4354 13.6504 18.4716 12.3042 18.3182 11.3182C18.1981 10.5463 17.8769 9.4486 17.7657 9.08041L17.1364 8.95454L15.9546 10.7273L12.4091 9.54545L13 6.59091Z"/>
</mask>
<path d="M18.3182 5.40909L20.1565 4.62125L19.5032 3.09696L17.8843 3.45671L18.3182 5.40909ZM13 6.59091L12.5661 4.63853L11.2944 4.92115L11.0388 6.19867L13 6.59091ZM19.233 7.54373L17.3947 8.33157L17.5217 8.62776L17.7352 8.86909L19.233 7.54373ZM23.0454 12.5L21.3266 13.5226L23.0454 12.5ZM26 19.5909L26.7878 21.4292L28.4511 20.7164L27.9077 18.9903L26 19.5909ZM22.1673 21.2335L21.3795 19.3952L20.5806 19.7376L20.2858 20.5553L22.1673 21.2335ZM12.0246 23.0157L13.4846 21.6488L11.7003 19.7429L10.3247 21.9619L12.0246 23.0157ZM11.0962 24.1871L12.5104 25.6013H12.5104L11.0962 24.1871ZM8.98744 25.5961L9.75281 27.4439L9.75281 27.4439L8.98744 25.5961ZM6.5 26.0909L4.5 26.0909L4.5 28.0909L6.5 28.0909L6.5 26.0909ZM6.50001 19.5909L8.50001 19.5909V19.5909H6.50001ZM6.50001 13.0909V11.0909H4.50001V13.0909H6.50001ZM8.98745 13.5857L9.75282 11.7379L9.75282 11.7379L8.98745 13.5857ZM11.0962 14.9947L12.5104 13.5805L12.5104 13.5805L11.0962 14.9947ZM12.0246 16.1661L10.3247 17.2199L11.7003 19.4389L13.4846 17.533L12.0246 16.1661ZM18.3854 14.5356L17.8202 16.4541L20.2399 17.167L20.3822 14.6484L18.3854 14.5356ZM18.3182 11.3182L20.2944 11.0108L20.2944 11.0108L18.3182 11.3182ZM17.7657 9.08041L19.6804 8.50248L19.3339 7.35444L18.158 7.11925L17.7657 9.08041ZM17.1364 8.95454L17.5286 6.99338L16.2152 6.73071L15.4723 7.84514L17.1364 8.95454ZM15.9546 10.7273L15.3221 12.6246L16.7713 13.1077L17.6187 11.8367L15.9546 10.7273ZM12.4091 9.54545L10.4479 9.15322L10.1017 10.8845L11.7766 11.4428L12.4091 9.54545ZM17.8843 3.45671L12.5661 4.63853L13.4339 8.54328L18.752 7.36146L17.8843 3.45671ZM21.0713 6.75589L20.1565 4.62125L16.4799 6.19693L17.3947 8.33157L21.0713 6.75589ZM24.7643 11.4774C23.5891 9.50224 21.4939 7.08075 20.7308 6.21837L17.7352 8.86909C18.5207 9.75675 20.3707 11.9158 21.3266 13.5226L24.7643 11.4774ZM26 19.5909C27.9077 18.9903 27.9076 18.9902 27.9076 18.99C27.9076 18.9899 27.9075 18.9898 27.9075 18.9896C27.9074 18.9893 27.9072 18.9889 27.9071 18.9884C27.9068 18.9875 27.9064 18.9863 27.906 18.9849C27.905 18.982 27.9038 18.9779 27.9022 18.9729C27.899 18.9628 27.8944 18.9484 27.8885 18.93C27.8767 18.8931 27.8596 18.8401 27.8376 18.7724C27.7935 18.6371 27.7295 18.4431 27.6481 18.2031C27.4855 17.7238 27.2524 17.0574 26.9693 16.3067C26.415 14.8365 25.626 12.9258 24.7643 11.4774L21.3266 13.5226C21.9988 14.6524 22.687 16.2871 23.2265 17.7179C23.4904 18.4176 23.7083 19.0406 23.86 19.4879C23.9358 19.7113 23.9947 19.89 24.0343 20.0115C24.0541 20.0723 24.0691 20.1187 24.0788 20.1493C24.0837 20.1645 24.0873 20.1758 24.0896 20.1829C24.0907 20.1865 24.0915 20.189 24.092 20.1904C24.0922 20.1911 24.0923 20.1916 24.0924 20.1918C24.0924 20.1919 24.0924 20.1919 24.0924 20.1918C24.0924 20.1918 24.0924 20.1917 24.0924 20.1917C24.0923 20.1916 24.0923 20.1915 26 19.5909ZM22.9552 23.0718L26.7878 21.4292L25.2122 17.7526L21.3795 19.3952L22.9552 23.0718ZM16.5455 26.9091C19.9299 26.9091 22.9661 24.9153 24.0488 21.9117L20.2858 20.5553C19.8306 21.8182 18.4141 22.9091 16.5455 22.9091V26.9091ZM10.5646 24.3826C12.0362 25.9545 14.1924 26.9091 16.5455 26.9091V22.9091C15.2707 22.9091 14.1808 22.3925 13.4846 21.6488L10.5646 24.3826ZM12.5104 25.6013C12.9737 25.138 13.3808 24.6238 13.7244 24.0695L10.3247 21.9619C10.1428 22.2554 9.92727 22.5276 9.68199 22.7729L12.5104 25.6013ZM9.75281 27.4439C10.7841 27.0167 11.7211 26.3906 12.5104 25.6013L9.68199 22.7729C9.26412 23.1908 8.76805 23.5222 8.22208 23.7484L9.75281 27.4439ZM6.5 28.0909C7.61623 28.0909 8.72154 27.871 9.75281 27.4439L8.22208 23.7484C7.67611 23.9745 7.09095 24.0909 6.5 24.0909L6.5 28.0909ZM4.50001 19.5909L4.5 26.0909L8.5 26.0909L8.50001 19.5909L4.50001 19.5909ZM4.50001 13.0909L4.50001 19.5909H8.50001V13.0909H4.50001ZM9.75282 11.7379C8.72155 11.3108 7.61624 11.0909 6.50001 11.0909V15.0909C7.09096 15.0909 7.67612 15.2073 8.22208 15.4334L9.75282 11.7379ZM12.5104 13.5805C11.7211 12.7912 10.7841 12.1651 9.75282 11.7379L8.22208 15.4334C8.76805 15.6596 9.26413 15.9911 9.68199 16.4089L12.5104 13.5805ZM13.7244 15.1123C13.3808 14.558 12.9737 14.0438 12.5104 13.5805L9.68199 16.4089C9.92727 16.6542 10.1428 16.9264 10.3247 17.2199L13.7244 15.1123ZM16.5455 12.2727C14.1924 12.2727 12.0362 13.2273 10.5646 14.7992L13.4846 17.533C14.1808 16.7893 15.2707 16.2727 16.5455 16.2727V12.2727ZM18.9506 12.6171C18.1886 12.3926 17.3798 12.2727 16.5455 12.2727V16.2727C16.996 16.2727 17.4241 16.3374 17.8202 16.4541L18.9506 12.6171ZM16.3419 11.6256C16.4598 12.3833 16.4383 13.5429 16.3886 14.4227L20.3822 14.6484C20.4326 13.758 20.4833 12.2251 20.2944 11.0108L16.3419 11.6256ZM15.8511 9.65835C15.9663 10.0403 16.2463 11.0109 16.3419 11.6256L20.2944 11.0108C20.1499 10.0817 19.7874 8.85693 19.6804 8.50248L15.8511 9.65835ZM16.7441 10.9157L17.3735 11.0416L18.158 7.11925L17.5286 6.99338L16.7441 10.9157ZM17.6187 11.8367L18.8005 10.0639L15.4723 7.84514L14.2905 9.61787L17.6187 11.8367ZM11.7766 11.4428L15.3221 12.6246L16.587 8.8299L13.0416 7.64809L11.7766 11.4428ZM11.0388 6.19867L10.4479 9.15322L14.3703 9.93769L14.9612 6.98314L11.0388 6.19867Z" fill="white" mask="url(#path-1-outside-1_150_141)"/>
<line x1="11.7124" y1="14.9849" x2="10.5305" y2="19.7122" stroke="white"/>
<line x1="17.4899" y1="13.3283" x2="21.0354" y2="16.8737" stroke="white"/>
<path d="M23.25 7.16508L26.0646 3.04008L28.2296 6.79008L23.25 7.16508Z" fill="white"/>
<path d="M13 6.59088L18.3182 5.40906L20.0909 9.54543L17.1364 8.95452L15.9546 10.7272L12.4091 9.54543L13 6.59088Z" fill="white"/>
</svg>
