<svg width="64" height="64" viewBox="0 0 64 64" fill="none" xmlns="http://www.w3.org/2000/svg">
<mask id="path-1-inside-1_6_3" fill="white">
<path fill-rule="evenodd" clip-rule="evenodd" d="M38 39.185C38 38.3702 38.5002 37.6473 39.2269 37.2787C44.4324 34.6389 48 29.2361 48 23C48 14.1634 40.8366 7 32 7C23.1634 7 16 14.1634 16 23C16 29.2361 19.5676 34.6389 24.7731 37.2787C25.4998 37.6473 26 38.3702 26 39.185V47C26 48.1046 26.8954 49 28 49H36C37.1046 49 38 48.1046 38 47V39.185Z"/>
</mask>
<path d="M24.7731 37.2787L26.5823 33.7113L24.7731 37.2787ZM39.2269 37.2787L37.4177 33.7113L39.2269 37.2787ZM44 23C44 27.6713 41.3317 31.7264 37.4177 33.7113L41.036 40.8462C47.5331 37.5514 52 30.8008 52 23H44ZM32 11C38.6274 11 44 16.3726 44 23H52C52 11.9543 43.0457 3 32 3V11ZM20 23C20 16.3726 25.3726 11 32 11V3C20.9543 3 12 11.9543 12 23H20ZM26.5823 33.7113C22.6683 31.7264 20 27.6713 20 23H12C12 30.8008 16.4669 37.5514 22.964 40.8462L26.5823 33.7113ZM30 47V39.185H22V47H30ZM36 45H28V53H36V45ZM34 39.185V47H42V39.185H34ZM22 47C22 50.3137 24.6863 53 28 53V45C29.1046 45 30 45.8954 30 47H22ZM22.964 40.8462C22.5208 40.6215 22 40.0629 22 39.185H30C30 36.6775 28.4788 34.6731 26.5823 33.7113L22.964 40.8462ZM36 53C39.3137 53 42 50.3137 42 47H34C34 45.8954 34.8954 45 36 45V53ZM37.4177 33.7113C35.5212 34.6731 34 36.6775 34 39.185H42C42 40.0629 41.4792 40.6215 41.036 40.8462L37.4177 33.7113Z" fill="black" mask="url(#path-1-inside-1_6_3)"/>
<line x1="23.2929" y1="24.2929" x2="27.2929" y2="20.2929" stroke="black" stroke-width="2"/>
<line x1="29.2929" y1="23.7071" x2="25.2929" y2="19.7071" stroke="black" stroke-width="2"/>
<line x1="29.2929" y1="24.2929" x2="33.2929" y2="20.2929" stroke="black" stroke-width="2"/>
<line x1="35.2929" y1="23.7071" x2="31.2929" y2="19.7071" stroke="black" stroke-width="2"/>
<line x1="35.2929" y1="24.2929" x2="39.2929" y2="20.2929" stroke="black" stroke-width="2"/>
<line x1="41.2929" y1="23.7071" x2="37.2929" y2="19.7071" stroke="black" stroke-width="2"/>
<mask id="path-9-inside-2_6_3" fill="white">
<path d="M26 42C26 40.3431 27.3431 39 29 39H35C36.6569 39 38 40.3431 38 42V54C38 55.6569 36.6569 57 35 57H29C27.3431 57 26 55.6569 26 54V42Z"/>
</mask>
<path d="M26 39H38H26ZM40 56C40 58.7614 37.7614 61 35 61H29C26.2386 61 24 58.7614 24 56L28 53C28 53 28.4477 53 29 53H35C35.5523 53 36 53 36 53L40 56ZM29 61C26.2386 61 24 58.7614 24 56V44C24 41.2386 26.2386 39 29 39C28.4477 39 28 40.3431 28 42V53C28 53 28.4477 53 29 53V61ZM35 39C37.7614 39 40 41.2386 40 44V56C40 58.7614 37.7614 61 35 61V53C35.5523 53 36 53 36 53V42C36 40.3431 35.5523 39 35 39Z" fill="black" mask="url(#path-9-inside-2_6_3)"/>
</svg>
