<svg width="304" height="220" viewBox="0 0 304 220" fill="none" xmlns="http://www.w3.org/2000/svg">
<g clip-path="url(#clip0_96_71)">
<rect x="19" y="33" width="4" height="4" rx="2" stroke="white" stroke-width="2"/>
<rect x="14" y="36" width="3" height="3" rx="1.5" stroke="white" stroke-width="2"/>
<mask id="path-3-outside-1_96_71" maskUnits="userSpaceOnUse" x="11.2679" y="3.26794" width="32.7846" height="32.7846" fill="black">
<rect fill="white" x="11.2679" y="3.26794" width="32.7846" height="32.7846"/>
<path fill-rule="evenodd" clip-rule="evenodd" d="M16.9167 18.2687C15.3058 21.0587 16.2618 24.6263 19.0518 26.2372L21.2169 27.4872L31.3205 33.3205L37.1538 23.2169L38.4038 21.0518C40.0147 18.2618 39.0587 14.6942 36.2687 13.0833C33.4787 11.4725 29.911 12.4284 28.3002 15.2185L27.0502 17.3835L24.8851 16.1335C22.0951 14.5227 18.5275 15.4786 16.9167 18.2687Z"/>
</mask>
<path d="M21.2169 27.4872L22.2169 25.7551L21.2169 27.4872ZM31.3205 33.3205L30.3205 35.0525L32.0526 36.0525L33.0526 34.3205L31.3205 33.3205ZM37.1538 23.2169L38.8859 24.2169L37.1538 23.2169ZM28.3002 15.2185L26.5682 14.2185L28.3002 15.2185ZM27.0502 17.3835L26.0502 19.1156L27.7823 20.1156L28.7823 18.3835L27.0502 17.3835ZM20.0518 24.5051C18.2184 23.4466 17.5902 21.1021 18.6487 19.2687L15.1846 17.2687C13.0215 21.0153 14.3052 25.8061 18.0518 27.9692L20.0518 24.5051ZM22.2169 25.7551L20.0518 24.5051L18.0518 27.9692L20.2169 29.2192L22.2169 25.7551ZM32.3205 31.5884L22.2169 25.7551L20.2169 29.2192L30.3205 35.0525L32.3205 31.5884ZM35.4218 22.2169L29.5885 32.3205L33.0526 34.3205L38.8859 24.2169L35.4218 22.2169ZM36.6718 20.0518L35.4218 22.2169L38.8859 24.2169L40.1359 22.0518L36.6718 20.0518ZM35.2687 14.8154C37.1021 15.8739 37.7303 18.2183 36.6718 20.0518L40.1359 22.0518C42.299 18.3052 41.0153 13.5144 37.2687 11.3513L35.2687 14.8154ZM30.0323 16.2185C31.0908 14.385 33.4352 13.7568 35.2687 14.8154L37.2687 11.3513C33.5221 9.18816 28.7313 10.4718 26.5682 14.2185L30.0323 16.2185ZM28.7823 18.3835L30.0323 16.2185L26.5682 14.2185L25.3182 16.3835L28.7823 18.3835ZM23.8851 17.8656L26.0502 19.1156L28.0502 15.6515L25.8851 14.4015L23.8851 17.8656ZM18.6487 19.2687C19.7073 17.4352 22.0517 16.807 23.8851 17.8656L25.8851 14.4015C22.1385 12.2384 17.3477 13.5221 15.1846 17.2687L18.6487 19.2687Z" fill="white" mask="url(#path-3-outside-1_96_71)"/>
<path d="M31.0811 23.0271C30.8661 22.5132 30.642 21.9824 30.4089 21.4346C30.1757 20.8868 29.9573 20.3401 29.7536 19.7945C29.5567 19.2377 29.3914 18.6921 29.2579 18.1579L28.9693 17.0034L31.8759 16.2769L32.1644 17.4313C32.298 17.9656 32.4044 18.5258 32.4836 19.1121C32.5696 19.6871 32.6386 20.2711 32.6907 20.8642C32.7427 21.4573 32.7948 22.0311 32.8468 22.5857L31.0811 23.0271ZM32.918 26.5653C32.4924 26.6716 32.1325 26.6365 31.8382 26.46C31.544 26.2834 31.3425 25.9778 31.2339 25.5432C31.1343 25.1448 31.175 24.7882 31.3561 24.4736C31.5463 24.1567 31.8406 23.9484 32.239 23.8488C32.6645 23.7425 33.0245 23.7776 33.3187 23.9541C33.613 24.1307 33.8145 24.4363 33.9231 24.8709C34.0227 25.2693 33.9774 25.627 33.7873 25.9439C33.6062 26.2585 33.3164 26.4657 32.918 26.5653Z" fill="white"/>
</g>
<path d="M68.2419 38.5C68.5208 38.915 68.5209 38.9149 68.521 38.9149L68.5213 38.9147L68.5224 38.9139L68.5262 38.9114L68.5401 38.9019L68.593 38.8658C68.639 38.8342 68.7062 38.7878 68.792 38.7275C68.9637 38.6069 69.2102 38.4309 69.5117 38.2075C70.1145 37.761 70.939 37.1239 71.8268 36.3612C73.5872 34.8489 75.6537 32.7945 76.6892 30.7236C78.1557 27.7905 78.1374 23.6627 77.7871 20.3516C77.6103 18.6808 77.3453 17.1882 77.1247 16.1135C77.0143 15.5758 76.9148 15.1419 76.8427 14.8416C76.8067 14.6914 76.7775 14.5746 76.7571 14.4948C76.747 14.4549 76.739 14.4243 76.7336 14.4034L76.7273 14.3794L76.7256 14.373L76.7251 14.3712L76.7249 14.3707C76.7249 14.3705 76.7248 14.3704 76.2419 14.5L76.7248 14.3704L76.6433 14.0665L76.3341 14.0086L68.3341 12.5086L68.2419 12.4913L68.1498 12.5086L60.1498 14.0086L59.8406 14.0665L59.759 14.3704L60.2419 14.5C59.759 14.3704 59.759 14.3705 59.759 14.3707L59.7588 14.3712L59.7583 14.373L59.7566 14.3794L59.7503 14.4034C59.7448 14.4243 59.7369 14.4549 59.7267 14.4948C59.7064 14.5746 59.6772 14.6914 59.6411 14.8416C59.569 15.1419 59.4696 15.5758 59.3592 16.1135C59.1386 17.1882 58.8736 18.6808 58.6968 20.3516C58.3465 23.6627 58.3282 27.7905 59.7947 30.7236C60.8302 32.7945 62.8967 34.8489 64.6571 36.3612C65.5448 37.1239 66.3694 37.761 66.9722 38.2075C67.2737 38.4309 67.5202 38.6069 67.6918 38.7275C67.7777 38.7878 67.8448 38.8342 67.8909 38.8658L67.9437 38.9019L67.9577 38.9114L67.9615 38.9139L67.9625 38.9147L67.9629 38.9149C67.963 38.9149 67.9631 38.915 68.2419 38.5ZM68.2419 38.5L68.5208 38.915L68.2419 39.1024L67.9631 38.915L68.2419 38.5Z" stroke="white"/>
<mask id="path-7-inside-2_96_71" fill="white">
<path fill-rule="evenodd" clip-rule="evenodd" d="M68.2419 14.5L61.317 15.8529C61.317 15.8529 58.8981 25.2435 61.317 30.2843C63.0274 33.8487 68.2419 37.5 68.2419 37.5C68.2419 37.5 73.4565 33.8487 75.1669 30.2843C77.5858 25.2435 75.1669 15.8529 75.1669 15.8529L68.2419 14.5ZM73.232 17.641C72.6852 17.7189 72.3051 18.2253 72.3829 18.772L72.806 21.742C72.8838 22.2888 73.3902 22.6689 73.937 22.5911C74.4837 22.5132 74.8639 22.0068 74.786 21.46L74.363 18.49C74.2851 17.9432 73.7787 17.5631 73.232 17.641Z"/>
</mask>
<path fill-rule="evenodd" clip-rule="evenodd" d="M68.2419 14.5L61.317 15.8529C61.317 15.8529 58.8981 25.2435 61.317 30.2843C63.0274 33.8487 68.2419 37.5 68.2419 37.5C68.2419 37.5 73.4565 33.8487 75.1669 30.2843C77.5858 25.2435 75.1669 15.8529 75.1669 15.8529L68.2419 14.5ZM73.232 17.641C72.6852 17.7189 72.3051 18.2253 72.3829 18.772L72.806 21.742C72.8838 22.2888 73.3902 22.6689 73.937 22.5911C74.4837 22.5132 74.8639 22.0068 74.786 21.46L74.363 18.49C74.2851 17.9432 73.7787 17.5631 73.232 17.641Z" fill="white"/>
<path d="M61.317 15.8529L61.1252 14.8715L60.506 14.9925L60.3486 15.6035L61.317 15.8529ZM68.2419 14.5L68.4337 13.5186L68.2419 13.4811L68.0502 13.5186L68.2419 14.5ZM61.317 30.2843L60.4154 30.7169L60.4154 30.7169L61.317 30.2843ZM68.2419 37.5L67.6684 38.3192L68.2419 38.7208L68.8155 38.3192L68.2419 37.5ZM75.1669 30.2843L76.0685 30.7169L76.0685 30.7169L75.1669 30.2843ZM75.1669 15.8529L76.1353 15.6035L75.9779 14.9925L75.3586 14.8715L75.1669 15.8529ZM72.3829 18.772L71.3929 18.913L71.3929 18.913L72.3829 18.772ZM73.232 17.641L73.0909 16.651L73.0909 16.651L73.232 17.641ZM72.806 21.742L73.796 21.601L73.796 21.601L72.806 21.742ZM73.937 22.5911L74.078 23.5811L74.078 23.5811L73.937 22.5911ZM74.786 21.46L75.776 21.319L75.776 21.319L74.786 21.46ZM74.363 18.49L73.373 18.631L73.373 18.631L74.363 18.49ZM61.5087 16.8344L68.4337 15.4814L68.0502 13.5186L61.1252 14.8715L61.5087 16.8344ZM62.2186 29.8517C61.1387 27.6012 61.1042 24.2395 61.4048 21.2793C61.5521 19.8291 61.7733 18.5295 61.958 17.5923C62.0502 17.1243 62.133 16.7482 62.1923 16.4908C62.2219 16.3621 62.2457 16.2631 62.2618 16.1972C62.2698 16.1643 62.276 16.1397 62.28 16.1237C62.282 16.1157 62.2835 16.1099 62.2844 16.1064C62.2848 16.1046 62.2851 16.1033 62.2853 16.1027C62.2854 16.1023 62.2854 16.1022 62.2855 16.1021C62.2855 16.1021 62.2854 16.1022 62.2854 16.1021C62.2854 16.1022 62.2854 16.1024 61.317 15.8529C60.3486 15.6035 60.3485 15.6037 60.3485 15.604C60.3484 15.6041 60.3484 15.6044 60.3483 15.6046C60.3482 15.6052 60.348 15.6058 60.3478 15.6066C60.3474 15.6082 60.3468 15.6104 60.3461 15.6132C60.3447 15.6187 60.3428 15.6264 60.3403 15.6364C60.3353 15.6562 60.3281 15.6849 60.3191 15.722C60.3009 15.7962 60.2751 15.9039 60.2433 16.0418C60.1798 16.3176 60.0925 16.7145 59.9957 17.2057C59.8024 18.1867 59.5701 19.5498 59.415 21.0773C59.1109 24.0726 59.0765 27.9266 60.4154 30.7169L62.2186 29.8517ZM68.2419 37.5C68.8155 36.6808 68.8156 36.6809 68.8157 36.681C68.8157 36.681 68.8158 36.681 68.8158 36.681C68.8158 36.681 68.8157 36.681 68.8156 36.6809C68.8152 36.6807 68.8146 36.6802 68.8137 36.6796C68.8119 36.6783 68.8088 36.6761 68.8045 36.6731C68.7959 36.667 68.7826 36.6575 68.7647 36.6447C68.7289 36.6191 68.675 36.5803 68.6051 36.5292C68.4654 36.4269 68.2619 36.2755 68.0115 36.0822C67.5101 35.6952 66.8243 35.143 66.0878 34.4837C64.5866 33.1398 62.9834 31.4455 62.2186 29.8517L60.4154 30.7169C61.361 32.6875 63.2203 34.601 64.7539 35.9739C65.5348 36.673 66.2596 37.2564 66.7894 37.6654C67.0546 37.8701 67.2719 38.0318 67.4239 38.1431C67.5 38.1988 67.5598 38.2419 67.6012 38.2715C67.622 38.2863 67.6381 38.2978 67.6494 38.3058C67.655 38.3098 67.6594 38.3129 67.6626 38.3151C67.6642 38.3162 67.6655 38.3171 67.6664 38.3178C67.6669 38.3181 67.6673 38.3184 67.6676 38.3186C67.6678 38.3188 67.668 38.3189 67.6681 38.3189C67.6682 38.3191 67.6684 38.3192 68.2419 37.5ZM74.2653 29.8517C73.5005 31.4455 71.8973 33.1398 70.396 34.4837C69.6596 35.143 68.9738 35.6952 68.4724 36.0822C68.222 36.2755 68.0185 36.4269 67.8787 36.5292C67.8089 36.5803 67.755 36.6191 67.7192 36.6447C67.7013 36.6575 67.688 36.667 67.6794 36.6731C67.6751 36.6761 67.672 36.6783 67.6702 36.6796C67.6693 36.6802 67.6686 36.6807 67.6683 36.6809C67.6682 36.681 67.6681 36.681 67.6681 36.681C67.6681 36.681 67.6682 36.681 67.6682 36.681C67.6683 36.6809 67.6684 36.6808 68.2419 37.5C68.8155 38.3192 68.8157 38.3191 68.8158 38.3189C68.8159 38.3189 68.8161 38.3188 68.8162 38.3186C68.8166 38.3184 68.817 38.3181 68.8175 38.3178C68.8184 38.3171 68.8197 38.3162 68.8213 38.3151C68.8245 38.3129 68.8289 38.3098 68.8345 38.3058C68.8458 38.2978 68.8619 38.2863 68.8826 38.2715C68.9241 38.2419 68.9839 38.1988 69.06 38.1431C69.212 38.0318 69.4293 37.8701 69.6945 37.6654C70.2243 37.2564 70.949 36.673 71.73 35.9739C73.2636 34.601 75.1229 32.6875 76.0685 30.7169L74.2653 29.8517ZM75.1669 15.8529C74.1985 16.1024 74.1985 16.1022 74.1984 16.1021C74.1984 16.1022 74.1984 16.1021 74.1984 16.1021C74.1984 16.1022 74.1985 16.1023 74.1986 16.1027C74.1988 16.1033 74.1991 16.1046 74.1995 16.1064C74.2004 16.1099 74.2019 16.1157 74.2039 16.1237C74.2079 16.1397 74.2141 16.1643 74.2221 16.1972C74.2382 16.2631 74.262 16.3621 74.2916 16.4908C74.3509 16.7482 74.4337 17.1243 74.5259 17.5923C74.7106 18.5295 74.9318 19.8291 75.0791 21.2793C75.3797 24.2395 75.3452 27.6012 74.2653 29.8517L76.0685 30.7169C77.4074 27.9266 77.373 24.0726 77.0689 21.0773C76.9137 19.5498 76.6815 18.1867 76.4882 17.2057C76.3914 16.7145 76.3041 16.3176 76.2406 16.0418C76.2088 15.9039 76.183 15.7962 76.1648 15.722C76.1558 15.6849 76.1486 15.6562 76.1436 15.6364C76.1411 15.6264 76.1392 15.6187 76.1378 15.6132C76.1371 15.6104 76.1365 15.6082 76.1361 15.6066C76.1359 15.6058 76.1357 15.6052 76.1356 15.6046C76.1355 15.6044 76.1354 15.6041 76.1354 15.604C76.1353 15.6037 76.1353 15.6035 75.1669 15.8529ZM68.0502 15.4814L74.9751 16.8344L75.3586 14.8715L68.4337 13.5186L68.0502 15.4814ZM73.373 18.631L73.373 18.631L73.0909 16.651C71.9974 16.8067 71.2372 17.8195 71.3929 18.913L73.373 18.631ZM73.796 21.601L73.373 18.631L71.3929 18.913L71.816 21.8831L73.796 21.601ZM73.796 21.601L73.796 21.601L71.816 21.8831C71.9717 22.9766 72.9845 23.7368 74.078 23.5811L73.796 21.601ZM73.796 21.601L73.796 21.601L74.078 23.5811C75.1715 23.4253 75.9317 22.4126 75.776 21.319L73.796 21.601ZM73.373 18.631L73.796 21.601L75.776 21.319L75.353 18.349L73.373 18.631ZM73.373 18.631L73.373 18.631L75.353 18.349C75.1972 17.2555 74.1845 16.4952 73.0909 16.651L73.373 18.631Z" fill="white" mask="url(#path-7-inside-2_96_71)"/>
<rect x="97" y="13" width="26" height="26" rx="8" stroke="white" stroke-width="2"/>
<rect x="101" y="21" width="3" height="4" rx="1" fill="white"/>
<rect x="117" y="19" width="3" height="4" rx="1" fill="white"/>
<rect x="112" y="18" width="8" height="9" rx="4" stroke="white" stroke-width="2"/>
<rect x="101" y="18" width="8" height="9" rx="4" stroke="white" stroke-width="2"/>
<path d="M107 34H113V33C113 31.3431 111.657 30 110 30V30C108.343 30 107 31.3431 107 33V34Z" stroke="white" stroke-width="2"/>
<line x1="112" y1="33" x2="112" y2="37" stroke="white" stroke-width="2"/>
<line x1="112" y1="33" x2="112" y2="37" stroke="white" stroke-width="2"/>
<line x1="112" y1="33" x2="112" y2="37" stroke="white" stroke-width="2"/>
<line x1="112" y1="33" x2="112" y2="37" stroke="white" stroke-width="2"/>
<line x1="112" y1="33" x2="112" y2="37" stroke="white" stroke-width="2"/>
<line x1="112" y1="33" x2="112" y2="37" stroke="white" stroke-width="2"/>
<circle cx="152" cy="26" r="13" stroke="white" stroke-width="2"/>
<path fill-rule="evenodd" clip-rule="evenodd" d="M154.1 30.7343C153.594 31.4485 153.399 32.3741 153.643 33.2855C154.078 34.911 155.749 35.8757 157.375 35.4402C159 35.0046 159.965 33.3337 159.529 31.7081C159.291 30.8175 158.681 30.1253 157.912 29.753L153.905 26.9058C153.905 26.9058 154.498 28.2208 154.497 29.1133C154.496 29.6206 154.303 30.2323 154.1 30.7343Z" fill="white"/>
<path fill-rule="evenodd" clip-rule="evenodd" d="M147.029 26.4804C146.746 27.0954 146.202 27.5846 145.497 27.7735C144.239 28.1104 142.947 27.3642 142.61 26.1068C142.273 24.8495 143.019 23.557 144.277 23.2201C144.966 23.0355 145.665 23.176 146.212 23.5476L149.669 25.1305C149.669 25.1305 148.559 25.2419 147.961 25.588C147.622 25.7847 147.287 26.1507 147.029 26.4804Z" fill="white"/>
<path fill-rule="evenodd" clip-rule="evenodd" d="M148.436 31.8487C148.532 32.2532 148.455 32.6961 148.186 33.0547C147.705 33.6944 146.798 33.8237 146.158 33.3436C145.519 32.8636 145.389 31.9559 145.869 31.3163C146.132 30.9659 146.524 30.7686 146.929 30.7408L149.2 30.1952C149.2 30.1952 148.706 30.67 148.548 31.0638C148.459 31.2876 148.435 31.5915 148.436 31.8487Z" fill="white"/>
<path fill-rule="evenodd" clip-rule="evenodd" d="M158.03 23.0105C158.22 23.4237 158.586 23.7525 159.06 23.8794C159.904 24.1058 160.773 23.6044 160.999 22.7595C161.226 21.9146 160.724 21.0462 159.879 20.8198C159.416 20.6958 158.946 20.7902 158.579 21.0399L156.256 22.1035C156.256 22.1035 157.002 22.1784 157.404 22.4109C157.632 22.5431 157.857 22.789 158.03 23.0105Z" fill="white"/>
<path fill-rule="evenodd" clip-rule="evenodd" d="M154.985 19.6485C155.411 19.8063 155.902 19.7802 156.327 19.535C157.084 19.0976 157.344 18.129 156.907 17.3716C156.469 16.6141 155.501 16.3545 154.743 16.7919C154.328 17.0315 154.063 17.4306 153.979 17.867L153.089 20.2615C153.089 20.2615 153.669 19.787 154.118 19.6676C154.372 19.5997 154.705 19.6144 154.985 19.6485Z" fill="white"/>
<path fill-rule="evenodd" clip-rule="evenodd" d="M149.039 21.4299C148.404 21.6648 147.673 21.6259 147.041 21.261C145.914 20.6101 145.528 19.1686 146.178 18.0412C146.829 16.9139 148.271 16.5276 149.398 17.1785C150.016 17.5351 150.411 18.129 150.535 18.7785L151.86 22.3422C151.86 22.3422 150.996 21.636 150.329 21.4584C149.95 21.3574 149.455 21.3792 149.039 21.4299Z" fill="white"/>
<path d="M150.258 22.0228C150.258 21.2804 151.07 20.824 151.704 21.2104L152.862 21.9157C152.953 21.9715 153.053 22.0123 153.158 22.0363L155.287 22.5255C155.826 22.6494 156.162 23.1874 156.037 23.7262L155.684 25.2467C155.645 25.4128 155.65 25.586 155.697 25.7499L156.678 29.1513C156.944 30.0712 155.889 30.8022 155.121 30.231L154.099 29.471C153.774 29.2297 153.336 29.2076 152.989 29.4151L150.969 30.6224C150.312 31.0148 149.476 30.5545 149.456 29.7897L149.45 29.5743C149.442 29.2585 149.285 28.965 149.027 28.7829L147.249 27.5287C146.825 27.2296 146.701 26.6559 146.962 26.2077L147.256 25.7048C147.334 25.5701 147.38 25.4189 147.39 25.2633L147.455 24.2147C147.482 23.7873 147.778 23.4244 148.191 23.3121L149.556 22.9408C149.97 22.8282 150.258 22.4521 150.258 22.0228V22.0228Z" fill="white"/>
<rect x="181" y="13" width="26" height="26" rx="2" stroke="white" stroke-width="2"/>
<path d="M194.495 16C194.495 16 192.214 19.1708 192.495 22C192.806 25.1331 195.854 26.8546 195.995 30C196.105 32.4674 194.495 36 194.495 36" stroke="white" stroke-width="3"/>
<path d="M199.72 20C199.72 20 197.782 22.2196 198.02 24.2C198.285 26.3932 200.876 27.5983 200.995 29.8C201.089 31.5272 199.72 34 199.72 34" stroke="white" stroke-width="2"/>
<path d="M188.72 19C188.72 19 186.782 21.2196 187.02 23.2C187.285 25.3932 189.876 26.5983 189.995 28.8C190.089 30.5272 188.72 33 188.72 33" stroke="white" stroke-width="2"/>
<rect x="223" y="13" width="26" height="26" rx="2" stroke="white" stroke-width="2"/>
<circle cx="238.446" cy="17.7369" r="2" transform="rotate(-30 238.446 17.7369)" fill="white"/>
<line x1="237.314" y1="20.3617" x2="232.922" y2="36.754" stroke="white" stroke-width="2"/>
<line x1="235.905" y1="25.5747" x2="238.521" y2="31.1417" stroke="white" stroke-width="2"/>
<line x1="236.995" y1="20.8993" x2="237.422" y2="25.1204" stroke="white" stroke-width="2"/>
<line x1="237.21" y1="20.866" x2="233.535" y2="22.9873" stroke="white" stroke-width="2"/>
<line x1="237.06" y1="24.4463" x2="240.158" y2="26.9755" stroke="white" stroke-width="2"/>
<line x1="234.001" y1="22.3802" x2="232.966" y2="26.2439" stroke="white" stroke-width="2"/>
<line x1="237.986" y1="29.8352" x2="239.156" y2="36.8352" stroke="white" stroke-width="2"/>
<rect x="265" y="13" width="26" height="26" rx="2" stroke="white" stroke-width="2"/>
<mask id="path-43-outside-3_96_71" maskUnits="userSpaceOnUse" x="267" y="16" width="21" height="19" fill="black">
<rect fill="white" x="267" y="16" width="21" height="19"/>
<path fill-rule="evenodd" clip-rule="evenodd" d="M276.455 17C275.351 17 274.455 17.8954 274.455 19V23H273.686C271.732 23 270.065 24.4112 269.741 26.3379L269.042 30.5034C268.735 32.3331 270.146 34 272.001 34H274.455H276.455H283.88C285.745 34 287.158 32.3157 286.834 30.4786L285.039 20.3049C284.701 18.3934 283.04 17 281.099 17H276.455Z"/>
</mask>
<path d="M274.455 23V24H275.455V23H274.455ZM269.741 26.3379L268.755 26.1724L268.755 26.1724L269.741 26.3379ZM269.042 30.5034L270.028 30.669L269.042 30.5034ZM286.834 30.4786L287.819 30.3049L287.819 30.3049L286.834 30.4786ZM285.039 20.3049L286.023 20.1311L286.023 20.1311L285.039 20.3049ZM275.455 19C275.455 18.4477 275.903 18 276.455 18V16C274.798 16 273.455 17.3431 273.455 19H275.455ZM275.455 23V19H273.455V23H275.455ZM274.455 22H273.686V24H274.455V22ZM273.686 22C271.244 22 269.159 23.764 268.755 26.1724L270.727 26.5034C270.97 25.0584 272.221 24 273.686 24V22ZM268.755 26.1724L268.056 30.3379L270.028 30.669L270.727 26.5034L268.755 26.1724ZM268.056 30.3379C267.647 32.7774 269.527 35 272.001 35V33C270.764 33 269.824 31.8887 270.028 30.669L268.056 30.3379ZM272.001 35H274.455V33H272.001V35ZM274.455 35H276.455V33H274.455V35ZM283.88 33H276.455V35H283.88V33ZM285.849 30.6524C286.065 31.8771 285.123 33 283.88 33V35C286.367 35 288.251 32.7542 287.819 30.3049L285.849 30.6524ZM284.054 20.4786L285.849 30.6524L287.819 30.3049L286.023 20.1311L284.054 20.4786ZM281.099 18C282.555 18 283.801 19.0451 284.054 20.4786L286.023 20.1311C285.602 17.7418 283.526 16 281.099 16V18ZM276.455 18H281.099V16H276.455V18Z" fill="white" mask="url(#path-43-outside-3_96_71)"/>
<rect x="283" y="23" width="2" height="12.5" fill="white"/>
<mask id="path-46-inside-4_96_71" fill="white">
<path d="M278 28.5C278 25.7386 280.239 23.5 283 23.5H285C287.761 23.5 290 25.7386 290 28.5V28.5C290 31.2614 287.761 33.5 285 33.5H283C280.239 33.5 278 31.2614 278 28.5V28.5Z"/>
</mask>
<path d="M278 26.5C278 23.1863 280.686 20.5 284 20.5C287.314 20.5 290 23.1863 290 26.5V28.5C290 27.3954 287.761 26.5 285 26.5H283C280.239 26.5 278 27.3954 278 28.5V26.5ZM290 33.5H278H290ZM278 33.5V23.5V33.5ZM290 23.5V33.5V23.5Z" fill="white" mask="url(#path-46-inside-4_96_71)"/>
<g clip-path="url(#clip1_96_71)">
<rect x="19" y="75" width="4" height="4" rx="2" stroke="white" stroke-width="2"/>
<rect x="14" y="78" width="3" height="3" rx="1.5" stroke="white" stroke-width="2"/>
<mask id="path-50-outside-5_96_71" maskUnits="userSpaceOnUse" x="10" y="51.7586" width="32" height="26" fill="black">
<rect fill="white" x="10" y="51.7586" width="32" height="26"/>
<path fill-rule="evenodd" clip-rule="evenodd" d="M16.6667 56.7586C16.6667 55.1018 18.0098 53.7586 19.6667 53.7586H23C24.6569 53.7586 26 55.1018 26 56.7586V57.5071H27.2083C27.4468 56.0887 28.6805 55.0081 30.1667 55.0081H33.5C35.1569 55.0081 36.5 56.3512 36.5 58.0081V61.2556H37C38.6569 61.2556 40 62.5987 40 64.2556V68.2515C40 69.9084 38.6569 71.2515 37 71.2515H35.3333V72C35.3333 73.6568 33.9902 75 32.3333 75H29C27.3431 75 26 73.6568 26 72V71.8758C25.493 72.2678 24.8571 72.501 24.1667 72.501H20.8333C19.1765 72.501 17.8333 71.1579 17.8333 69.501V68.7525H15C13.3431 68.7525 12 67.4094 12 65.7525V61.7566C12 60.0997 13.3431 58.7566 15 58.7566H16.6667V56.7586Z"/>
</mask>
<path d="M26 57.5071H24V59.5071H26V57.5071ZM27.2083 57.5071V59.5071H28.9001L29.1806 57.8387L27.2083 57.5071ZM36.5 61.2556H34.5V63.2556H36.5V61.2556ZM35.3333 71.2515V69.2515H33.3333V71.2515H35.3333ZM26 71.8758H28V67.8015L24.7767 70.2936L26 71.8758ZM17.8333 68.7525H19.8333V66.7525H17.8333V68.7525ZM16.6667 58.7566V60.7566H18.6667V58.7566H16.6667ZM19.6667 51.7586C16.9052 51.7586 14.6667 53.9972 14.6667 56.7586H18.6667C18.6667 56.2063 19.1144 55.7586 19.6667 55.7586V51.7586ZM23 51.7586H19.6667V55.7586H23V51.7586ZM28 56.7586C28 53.9972 25.7614 51.7586 23 51.7586V55.7586C23.5523 55.7586 24 56.2063 24 56.7586H28ZM28 57.5071V56.7586H24V57.5071H28ZM27.2083 55.5071H26V59.5071H27.2083V55.5071ZM29.1806 57.8387C29.2599 57.3674 29.6733 57.0081 30.1667 57.0081V53.0081C27.6878 53.0081 25.6337 54.8101 25.236 57.1755L29.1806 57.8387ZM30.1667 57.0081H33.5V53.0081H30.1667V57.0081ZM33.5 57.0081C34.0523 57.0081 34.5 57.4558 34.5 58.0081H38.5C38.5 55.2467 36.2614 53.0081 33.5 53.0081V57.0081ZM34.5 58.0081V61.2556H38.5V58.0081H34.5ZM37 59.2556H36.5V63.2556H37V59.2556ZM42 64.2556C42 61.4941 39.7614 59.2556 37 59.2556V63.2556C37.5523 63.2556 38 63.7033 38 64.2556H42ZM42 68.2515V64.2556H38V68.2515H42ZM37 73.2515C39.7614 73.2515 42 71.0129 42 68.2515H38C38 68.8038 37.5523 69.2515 37 69.2515V73.2515ZM35.3333 73.2515H37V69.2515H35.3333V73.2515ZM37.3333 72V71.2515H33.3333V72H37.3333ZM32.3333 77C35.0948 77 37.3333 74.7614 37.3333 72H33.3333C33.3333 72.5523 32.8856 73 32.3333 73V77ZM29 77H32.3333V73H29V77ZM24 72C24 74.7614 26.2386 77 29 77V73C28.4477 73 28 72.5523 28 72H24ZM24 71.8758V72H28V71.8758H24ZM24.1667 74.501C25.3152 74.501 26.3784 74.1113 27.2233 73.4581L24.7767 70.2936C24.6077 70.4243 24.399 70.501 24.1667 70.501V74.501ZM20.8333 74.501H24.1667V70.501H20.8333V74.501ZM15.8333 69.501C15.8333 72.2624 18.0719 74.501 20.8333 74.501V70.501C20.2811 70.501 19.8333 70.0533 19.8333 69.501H15.8333ZM15.8333 68.7525V69.501H19.8333V68.7525H15.8333ZM15 70.7525H17.8333V66.7525H15V70.7525ZM10 65.7525C10 68.5139 12.2386 70.7525 15 70.7525V66.7525C14.4477 66.7525 14 66.3048 14 65.7525H10ZM10 61.7566V65.7525H14V61.7566H10ZM15 56.7566C12.2386 56.7566 10 58.9952 10 61.7566H14C14 61.2043 14.4477 60.7566 15 60.7566V56.7566ZM16.6667 56.7566H15V60.7566H16.6667V56.7566ZM14.6667 56.7586V58.7566H18.6667V56.7586H14.6667Z" fill="white" mask="url(#path-50-outside-5_96_71)"/>
<mask id="path-52-outside-6_96_71" maskUnits="userSpaceOnUse" x="20.8781" y="56.766" width="16" height="15" fill="black">
<rect fill="white" x="20.8781" y="56.766" width="16" height="15"/>
<path fill-rule="evenodd" clip-rule="evenodd" d="M29.9926 61.7766L29.1531 62.6161H30.5667H30.5668H34.1133C34.603 62.6161 35 63.013 35 63.5027C35 63.9924 34.603 64.3894 34.1133 64.3894L33.2267 64.3894C33.7164 64.3894 34.1134 64.7863 34.1134 65.276C34.1134 65.7657 33.7164 66.1627 33.2267 66.1627H32.34C32.8297 66.1627 33.2267 66.5596 33.2267 67.0493C33.2267 67.539 32.8297 67.936 32.34 67.936H31.4534C31.9431 67.936 32.3401 68.3329 32.3401 68.8226C32.3401 69.3123 31.9431 69.7093 31.4534 69.7093L30.5668 69.7093L27.9068 69.7093L27.9055 69.7093H27.067L24.4317 70.4154L22.8781 64.6174L25.6692 63.8695C25.6227 63.5679 25.7157 63.2491 25.948 63.0168L28.4184 60.5463L28.5859 59.6424C28.6938 59.0605 29.2529 58.6763 29.8348 58.7841C30.4166 58.892 30.8009 59.4511 30.693 60.0329L30.505 61.0471C30.446 61.3655 30.2517 61.6248 29.9926 61.7766Z"/>
</mask>
<path d="M29.9926 61.7766L29.4872 60.9137L29.3763 60.9786L29.2855 61.0695L29.9926 61.7766ZM29.1531 62.6161L28.446 61.909L26.7389 63.6161H29.1531V62.6161ZM34.1133 64.3894L34.1133 63.3894L34.1133 63.3894L34.1133 64.3894ZM31.4534 69.7093L31.4534 70.7093H31.4534V69.7093ZM30.5668 69.7093L30.5668 68.7093L30.5668 68.7093L30.5668 69.7093ZM27.9068 69.7093L27.9061 70.7093L27.9068 70.7093L27.9068 69.7093ZM27.9055 69.7093L27.9062 68.7093H27.9055V69.7093ZM27.067 69.7093V68.7093H26.9354L26.8082 68.7434L27.067 69.7093ZM24.4317 70.4154L23.4658 70.6742L23.7246 71.6402L24.6905 71.3813L24.4317 70.4154ZM22.8781 64.6174L22.6193 63.6515L21.6534 63.9103L21.9122 64.8762L22.8781 64.6174ZM25.6692 63.8695L25.928 64.8355L26.7939 64.6034L26.6575 63.7174L25.6692 63.8695ZM25.948 63.0168L26.6551 63.7239L26.6551 63.7239L25.948 63.0168ZM28.4184 60.5463L29.1255 61.2534L29.345 61.0339L29.4016 60.7286L28.4184 60.5463ZM28.5859 59.6424L29.5692 59.8246L28.5859 59.6424ZM29.8348 58.7841L29.6525 59.7674L29.8348 58.7841ZM30.693 60.0329L29.7098 59.8507L29.7098 59.8507L30.693 60.0329ZM30.505 61.0471L31.4883 61.2293L31.4883 61.2293L30.505 61.0471ZM29.2855 61.0695L28.446 61.909L29.8602 63.3232L30.6997 62.4837L29.2855 61.0695ZM29.1531 63.6161H30.5667V61.6161H29.1531V63.6161ZM30.5667 63.6161H30.5668V61.6161H30.5667V63.6161ZM30.5668 63.6161H34.1133V61.6161H30.5668V63.6161ZM34.1133 63.6161C34.0507 63.6161 34 63.5653 34 63.5027H36C36 62.4608 35.1553 61.6161 34.1133 61.6161V63.6161ZM34 63.5027C34 63.4401 34.0507 63.3894 34.1133 63.3894V65.3894C35.1553 65.3894 36 64.5447 36 63.5027H34ZM34.1133 63.3894L33.2267 63.3894L33.2267 65.3894L34.1133 65.3894L34.1133 63.3894ZM33.2267 65.3894C33.1641 65.3894 33.1134 65.3386 33.1134 65.276H35.1134C35.1134 64.2341 34.2687 63.3894 33.2267 63.3894V65.3894ZM33.1134 65.276C33.1134 65.2134 33.1641 65.1627 33.2267 65.1627V67.1627C34.2687 67.1627 35.1134 66.318 35.1134 65.276H33.1134ZM33.2267 65.1627H32.34V67.1627H33.2267V65.1627ZM32.34 67.1627C32.2774 67.1627 32.2267 67.1119 32.2267 67.0493H34.2267C34.2267 66.0074 33.382 65.1627 32.34 65.1627V67.1627ZM32.2267 67.0493C32.2267 66.9867 32.2774 66.936 32.34 66.936V68.936C33.382 68.936 34.2267 68.0913 34.2267 67.0493H32.2267ZM32.34 66.936H31.4534V68.936H32.34V66.936ZM31.4534 68.936C31.3908 68.936 31.3401 68.8852 31.3401 68.8226H33.3401C33.3401 67.7807 32.4954 66.936 31.4534 66.936V68.936ZM31.3401 68.8226C31.3401 68.76 31.3908 68.7093 31.4534 68.7093V70.7093C32.4954 70.7093 33.3401 69.8646 33.3401 68.8226H31.3401ZM31.4534 68.7093L30.5668 68.7093L30.5668 70.7093L31.4534 70.7093L31.4534 68.7093ZM30.5668 68.7093L27.9068 68.7093L27.9068 70.7093L30.5668 70.7093L30.5668 68.7093ZM27.9075 68.7093L27.9062 68.7093L27.9048 70.7093L27.9061 70.7093L27.9075 68.7093ZM27.9055 68.7093H27.067V70.7093H27.9055V68.7093ZM26.8082 68.7434L24.1729 69.4495L24.6905 71.3813L27.3258 70.6752L26.8082 68.7434ZM25.3976 70.1566L23.8441 64.3586L21.9122 64.8762L23.4658 70.6742L25.3976 70.1566ZM23.137 65.5833L25.928 64.8355L25.4103 62.9036L22.6193 63.6515L23.137 65.5833ZM26.6575 63.7174C26.6576 63.7177 26.6577 63.7182 26.6572 63.7196C26.6569 63.7205 26.6564 63.7216 26.6557 63.7228C26.655 63.724 26.6545 63.7244 26.6551 63.7239L25.2409 62.3096C24.7738 62.7767 24.588 63.4188 24.6808 64.0217L26.6575 63.7174ZM26.6551 63.7239L29.1255 61.2534L27.7113 59.8392L25.2409 62.3096L26.6551 63.7239ZM29.4016 60.7286L29.5692 59.8246L27.6027 59.4601L27.4351 60.3641L29.4016 60.7286ZM29.5692 59.8246C29.5764 59.7858 29.6137 59.7602 29.6525 59.7674L30.017 57.8009C28.8921 57.5924 27.8112 58.3352 27.6027 59.4601L29.5692 59.8246ZM29.6525 59.7674C29.6913 59.7746 29.7169 59.8119 29.7098 59.8507L31.6763 60.2152C31.8848 59.0903 31.1419 58.0094 30.017 57.8009L29.6525 59.7674ZM29.7098 59.8507L29.5218 60.8648L31.4883 61.2293L31.6763 60.2152L29.7098 59.8507ZM29.5218 60.8648C29.5195 60.8772 29.5153 60.8859 29.5103 60.8929C29.5047 60.9007 29.4968 60.9081 29.4872 60.9137L30.4979 62.6395C30.997 62.3473 31.3741 61.8453 31.4883 61.2293L29.5218 60.8648Z" fill="white" mask="url(#path-52-outside-6_96_71)"/>
</g>
<mask id="path-54-outside-7_96_71" maskUnits="userSpaceOnUse" x="57" y="53" width="23" height="28" fill="black">
<rect fill="white" x="57" y="53" width="23" height="28"/>
<path fill-rule="evenodd" clip-rule="evenodd" d="M68.3612 57L73.9904 66.75H71.1036L75.7224 74.75H70.8612V79H65.8612V74.75H61L65.6188 66.75H62.7321L68.3612 57Z"/>
</mask>
<path d="M73.9904 66.75V68.75H77.4545L75.7224 65.75L73.9904 66.75ZM68.3612 57L70.0933 56L68.3612 53L66.6292 56L68.3612 57ZM71.1036 66.75V64.75H67.6395L69.3716 67.75L71.1036 66.75ZM75.7224 74.75V76.75H79.1865L77.4545 73.75L75.7224 74.75ZM70.8612 74.75V72.75H68.8612V74.75H70.8612ZM70.8612 79V81H72.8612V79H70.8612ZM65.8612 79H63.8612V81H65.8612V79ZM65.8612 74.75H67.8612V72.75H65.8612V74.75ZM61 74.75L59.2679 73.75L57.5359 76.75H61V74.75ZM65.6188 66.75L67.3509 67.75L69.0829 64.75H65.6188V66.75ZM62.7321 66.75L61 65.75L59.2679 68.75H62.7321V66.75ZM75.7224 65.75L70.0933 56L66.6292 58L72.2583 67.75L75.7224 65.75ZM71.1036 68.75H73.9904V64.75H71.1036V68.75ZM69.3716 67.75L73.9904 75.75L77.4545 73.75L72.8357 65.75L69.3716 67.75ZM75.7224 72.75H70.8612V76.75H75.7224V72.75ZM72.8612 79V74.75H68.8612V79H72.8612ZM65.8612 81H70.8612V77H65.8612V81ZM63.8612 74.75V79H67.8612V74.75H63.8612ZM65.8612 72.75H61V76.75H65.8612V72.75ZM62.7321 75.75L67.3509 67.75L63.8868 65.75L59.2679 73.75L62.7321 75.75ZM62.7321 68.75H65.6188V64.75H62.7321V68.75ZM66.6292 56L61 65.75L64.4641 67.75L70.0933 58L66.6292 56Z" fill="white" mask="url(#path-54-outside-7_96_71)"/>
<path fill-rule="evenodd" clip-rule="evenodd" d="M63.2941 66.75L63.5217 67.1441L64.1229 68.1854L64.4565 68.7632L65.6188 66.75H63.2941ZM63.0131 66.2632L63.6592 65.1441H62.367L62.8217 65.9318L63.0131 66.2632ZM63.9226 64.6878L63.7313 64.3564L63.0314 63.1441L61.7935 61L60.6388 59L59.4841 61L58.2462 63.1441L57.5463 64.3564L57.0915 65.1441H58.9106L58.4558 65.9318L57.7559 67.1441L57.1547 68.1854L56 70.1854H57.0634H58.3094H59.0634V70.8636V72.1854V72.8636H60.2142H61.0634H62.0891L61 74.75H64.2142V74.8636H62.2142H59.0634H57.0634V72.8636V72.1854H56H52.5359L54.2679 69.1854L55.4465 67.1441H53.6274L55.3594 64.1441L58.9067 58L60.6388 55L62.3708 58L65.0773 62.6878L63.9226 64.6878ZM62.2142 72.6469L63.6353 70.1854H62.9682H62.2142V70.8636V72.1854V72.6469Z" fill="white"/>
<path fill-rule="evenodd" clip-rule="evenodd" d="M73.6465 64.6017L73.3823 64.1441H73.9106L73.6465 64.6017ZM72.7369 63.0263L73.2462 62.1441L74.4841 60L75.6388 58L76.7935 60L78.0314 62.1441L78.7313 63.3564L79.1861 64.1441H77.367L77.8218 64.9318L78.5217 66.1441L79.1229 67.1854L80.2776 69.1854H79.2142H77.9682H77.2142V69.8637V71.1854V71.8637H76.0634H75.2142H74.9524L76.1071 73.8637H77.2142H79.2142V71.8637V71.1854H80.2776H83.7417L82.0096 68.1854L80.8311 66.1441H82.6502L80.9182 63.1441L77.3709 57L75.6388 54L73.9068 57L71.5822 61.0263L72.7369 63.0263ZM74.0634 70.3239L73.4061 69.1854H74.0634V69.8637V70.3239ZM72.2031 67.1017L72 66.75H72.4061L72.2031 67.1017Z" fill="white"/>
<rect x="97" y="55" width="26" height="26" rx="2" stroke="white" stroke-width="2"/>
<rect x="103" y="61" width="14" height="14" fill="white"/>
<rect x="139" y="55" width="26" height="26" rx="2" stroke="white" stroke-width="2"/>
<path fill-rule="evenodd" clip-rule="evenodd" d="M156.859 66.4988C155.831 66.2233 154.774 66.8334 154.499 67.8615C154.223 68.8896 154.833 69.9463 155.862 70.2218L157.258 70.5959C158.286 70.8714 159.343 70.2613 159.618 69.2332C159.893 68.2051 159.283 67.1483 158.255 66.8729L156.859 66.4988ZM156.259 67.9659C156.116 68.4994 156.432 69.0477 156.966 69.1906L157.932 69.4495C158.465 69.5924 159.014 69.2758 159.157 68.7424C159.3 68.2089 158.983 67.6606 158.45 67.5176L157.484 67.2588C156.95 67.1158 156.402 67.4324 156.259 67.9659Z" fill="white"/>
<path d="M143.736 72C143.736 72 154.236 72 157.236 74.5C158.802 75.8051 161.736 78 161.736 78C161.736 78 144.736 79 143.736 78C142.08 76.3431 143.736 72 143.736 72Z" fill="white"/>
<path d="M143 72C143 70.8954 143.895 70 145 70H147C148.105 70 149 70.8954 149 72V76H143V72Z" fill="white"/>
<path fill-rule="evenodd" clip-rule="evenodd" d="M153.968 64.7764C152.368 64.3476 150.723 65.2974 150.294 66.8977L149.776 68.8296C149.348 70.43 150.297 72.075 151.898 72.5038L156.727 73.7979C158.328 74.2268 159.973 73.277 160.402 71.6766L160.919 69.7448C161.348 68.1444 160.398 66.4993 158.798 66.0705L153.968 64.7764ZM155.22 65.7116C154.153 65.4257 153.056 66.0589 152.77 67.1258L152.383 68.5719C152.097 69.6388 152.73 70.7355 153.797 71.0213L157.234 71.9423C158.301 72.2282 159.398 71.5951 159.684 70.5281L160.071 69.0821C160.357 68.0151 159.724 66.9185 158.657 66.6326L155.22 65.7116Z" fill="white"/>
<line x1="146.493" y1="64.9178" x2="147.493" y2="70.9178" stroke="white"/>
<line x1="143.493" y1="64.9178" x2="144.493" y2="70.9178" stroke="white"/>
<rect x="142" y="63.5176" width="2" height="3" rx="1" transform="rotate(-15 142 63.5176)" fill="white"/>
<rect x="145" y="63.5176" width="2" height="3" rx="1" transform="rotate(-15 145 63.5176)" fill="white"/>
<rect x="181" y="55" width="26" height="26" rx="8" stroke="white" stroke-width="2"/>
<path d="M187 70.5C187 70.5 188.5 75.5 194.5 75.5C200.5 75.5 202 70.5 202 70.5" stroke="white" stroke-width="2"/>
<rect x="185" y="63" width="3" height="4" rx="1" fill="white"/>
<rect x="201" y="63" width="3" height="4" rx="1" fill="white"/>
<path d="M222.5 80.5L222.5 57.8091L228.5 55.5L235.5 57.8091L241.5 55.5L248.5 57.8091L248.5 80.5L241.5 78.1909L235.5 80.5L228.5 78.1909L222.5 80.5Z" stroke="white" stroke-width="2"/>
<path fill-rule="evenodd" clip-rule="evenodd" d="M232.667 61.3333C232.667 61.9611 232.493 62.5483 232.191 63.0496L229.333 68L226.476 63.0505C226.174 62.549 226 61.9614 226 61.3333C226 59.4924 227.492 58 229.333 58C231.174 58 232.667 59.4924 232.667 61.3333ZM229.333 63C230.254 63 231 62.2538 231 61.3333C231 60.4129 230.254 59.6667 229.333 59.6667C228.413 59.6667 227.667 60.4129 227.667 61.3333C227.667 62.2538 228.413 63 229.333 63Z" fill="white"/>
<mask id="path-75-inside-8_96_71" fill="white">
<path fill-rule="evenodd" clip-rule="evenodd" d="M272 59.4233L265.5 61.1044C264.43 61.381 263.788 62.4721 264.064 63.5415L267.82 78.0637C268.096 79.1331 269.188 79.7758 270.257 79.4992L272.257 78.9819C272.093 78.6919 272 78.3568 272 78V59.4233ZM282.822 79.8236L285.723 80.5737C286.792 80.8503 287.883 80.2075 288.16 79.1382L291.916 64.6159C292.192 63.5465 291.55 62.4554 290.48 62.1789L284 60.503V78C284 78.8114 283.517 79.5099 282.822 79.8236Z"/>
</mask>
<path d="M265.5 61.1044L265.75 62.0726L265.5 61.1044ZM272 59.4233H273V58.1318L271.75 58.4552L272 59.4233ZM264.064 63.5415L265.032 63.2911L265.032 63.2911L264.064 63.5415ZM267.82 78.0637L268.788 77.8133L268.788 77.8133L267.82 78.0637ZM270.257 79.4992L270.507 80.4674L270.507 80.4674L270.257 79.4992ZM272.257 78.9819L272.508 79.9501L273.768 79.624L273.128 78.4902L272.257 78.9819ZM285.723 80.5737L285.973 79.6056L285.973 79.6056L285.723 80.5737ZM282.822 79.8236L282.411 78.9122L279.824 80.0809L282.572 80.7917L282.822 79.8236ZM288.16 79.1382L287.192 78.8878L287.192 78.8878L288.16 79.1382ZM291.916 64.6159L290.948 64.3656L290.948 64.3656L291.916 64.6159ZM290.48 62.1789L290.73 61.2107L290.73 61.2107L290.48 62.1789ZM284 60.503L284.25 59.5349L283 59.2115V60.503H284ZM265.75 62.0726L272.25 60.3915L271.75 58.4552L265.249 60.1363L265.75 62.0726ZM265.032 63.2911C264.894 62.7564 265.215 62.2108 265.75 62.0726L265.249 60.1363C263.645 60.5511 262.681 62.1877 263.096 63.7918L265.032 63.2911ZM268.788 77.8133L265.032 63.2911L263.096 63.7918L266.852 78.3141L268.788 77.8133ZM270.007 78.5311C269.472 78.6694 268.926 78.348 268.788 77.8133L266.852 78.3141C267.267 79.9181 268.903 80.8822 270.507 80.4674L270.007 78.5311ZM272.007 78.0138L270.007 78.5311L270.507 80.4674L272.508 79.9501L272.007 78.0138ZM273.128 78.4902C273.047 78.3463 273 78.1801 273 78H271C271 78.5336 271.14 79.0374 271.386 79.4736L273.128 78.4902ZM273 78V59.4233H271V78H273ZM285.973 79.6056L283.073 78.8554L282.572 80.7917L285.473 81.5419L285.973 79.6056ZM287.192 78.8878C287.054 79.4225 286.508 79.7438 285.973 79.6056L285.473 81.5419C287.077 81.9567 288.713 80.9926 289.128 79.3885L287.192 78.8878ZM290.948 64.3656L287.192 78.8878L289.128 79.3885L292.884 64.8663L290.948 64.3656ZM290.23 63.147C290.764 63.2853 291.086 63.8309 290.948 64.3656L292.884 64.8663C293.299 63.2622 292.335 61.6256 290.73 61.2107L290.23 63.147ZM283.75 61.4712L290.23 63.147L290.73 61.2107L284.25 59.5349L283.75 61.4712ZM283 60.503V78H285V60.503H283ZM283 78C283 78.4041 282.76 78.7544 282.411 78.9122L283.234 80.7349C284.273 80.2655 285 79.2186 285 78H283Z" fill="white" mask="url(#path-75-inside-8_96_71)"/>
<rect x="272.213" y="57" width="12" height="22" rx="1" stroke="white" stroke-width="2"/>
<rect x="13" y="97" width="26" height="26" rx="2" stroke="white" stroke-width="2"/>
<line x1="38" y1="110" x2="14" y2="110" stroke="white" stroke-width="2" stroke-dasharray="4 4"/>
<path d="M14 110C14 110 16 103 18 103C20 103 22 110 22 110" stroke="white"/>
<path d="M30 110C30 110 32 103 34 103C36 103 38 110 38 110" stroke="white"/>
<path d="M22 110C22 110 24 117 26 117C28 117 30 110 30 110" stroke="white"/>
<path d="M17 110C17 110 15 103 13 103" stroke="white" stroke-dasharray="2 2"/>
<path d="M25 110C25 110 27 103 29 103C31 103 33 110 33 110" stroke="white" stroke-dasharray="2 2"/>
<path d="M17 110C17 110 19 117 21 117C23 117 25 110 25 110" stroke="white" stroke-dasharray="2 2"/>
<path d="M33 110C33 110 35 117 37 117" stroke="white" stroke-dasharray="2 2"/>
<path d="M55.5 101.598L60.6962 101.598L58.0981 106.098L55.5 101.598Z" fill="white"/>
<path d="M80.6962 101.598L75.5 101.598L78.0981 106.098L80.6962 101.598Z" fill="white"/>
<path fill-rule="evenodd" clip-rule="evenodd" d="M80.0981 111.598L74.5981 102.098H61.5981L56.0981 111.598H59.8805L58.0981 115.098H64.0148L65.3898 121.098H70.8064L72.1814 115.098H78.0981L76.3157 111.598H80.0981ZM73.5981 110.098C74.4265 110.098 75.0981 109.427 75.0981 108.598C75.0981 107.77 74.4265 107.098 73.5981 107.098C72.7697 107.098 72.0981 107.77 72.0981 108.598C72.0981 109.427 72.7697 110.098 73.5981 110.098ZM65.0981 108.598C65.0981 109.427 64.4265 110.098 63.5981 110.098C62.7697 110.098 62.0981 109.427 62.0981 108.598C62.0981 107.77 62.7697 107.098 63.5981 107.098C64.4265 107.098 65.0981 107.77 65.0981 108.598ZM69.8301 115.098L68.0981 118.098L66.366 115.098H69.8301Z" fill="white"/>
<g clip-path="url(#clip2_96_71)">
<rect x="102" y="106" width="3" height="3" rx="1" fill="white"/>
<rect x="115" y="106" width="3" height="3" rx="1" fill="white"/>
<rect x="112.5" y="103.5" width="8" height="8" rx="4" stroke="white"/>
<line x1="120.416" y1="109.723" x2="122.416" y2="112.723" stroke="white"/>
<path d="M107 113H113V115C113 116.657 111.657 118 110 118V118C108.343 118 107 116.657 107 115V113Z" fill="white"/>
<path fill-rule="evenodd" clip-rule="evenodd" d="M97 114L98.732 113L99.9434 115.098C100.188 115.034 100.444 115 100.706 115H101.596C102.758 115 103.816 115.671 104.311 116.723L106.898 122.22C107.274 123.02 107.227 123.955 106.772 124.713C106.293 125.511 105.43 126 104.499 126H99.1623C97.871 126 96.7177 125.153 96.3094 123.928C96.1102 123.331 96.1011 122.677 96.2889 122.075L97.8421 117.105C97.9427 116.783 98.094 116.488 98.2855 116.227L97 114ZM101.48 124.43C101.587 124.39 101.67 124.327 101.73 124.24C101.777 124.16 101.8 124.063 101.8 123.95C101.8 123.943 101.797 123.917 101.79 123.87C101.79 123.817 101.787 123.763 101.78 123.71V123.57C101.787 123.523 101.793 123.5 101.8 123.5C101.933 123.473 102.07 123.447 102.21 123.42C102.35 123.387 102.477 123.353 102.59 123.32C102.703 123.267 102.807 123.217 102.9 123.17C102.993 123.117 103.08 123.053 103.16 122.98C103.24 122.913 103.313 122.84 103.38 122.76C103.447 122.68 103.507 122.593 103.56 122.5C103.653 122.287 103.703 122.053 103.71 121.8C103.723 121.42 103.64 121.067 103.46 120.74C103.287 120.407 103.013 120.163 102.64 120.01C102.527 119.963 102.393 119.91 102.24 119.85C102.087 119.783 101.94 119.73 101.8 119.69V118.31C101.953 118.323 102.103 118.36 102.25 118.42C102.403 118.473 102.537 118.527 102.65 118.58C102.737 118.627 102.827 118.677 102.92 118.73C103.013 118.777 103.113 118.793 103.22 118.78C103.313 118.767 103.393 118.717 103.46 118.63C103.527 118.543 103.563 118.453 103.57 118.36C103.577 118.187 103.533 118.043 103.44 117.93C103.353 117.81 103.237 117.703 103.09 117.61C102.903 117.503 102.693 117.417 102.46 117.35C102.233 117.277 102.013 117.217 101.8 117.17C101.8 117.077 101.797 116.993 101.79 116.92C101.783 116.853 101.777 116.793 101.77 116.74V116.63C101.723 116.51 101.653 116.427 101.56 116.38C101.467 116.333 101.36 116.303 101.24 116.29C101.107 116.277 101.007 116.293 100.94 116.34C100.873 116.387 100.8 116.467 100.72 116.58C100.667 116.653 100.64 116.743 100.64 116.85V117.14C100.507 117.153 100.353 117.173 100.18 117.2C100.007 117.227 99.8633 117.267 99.75 117.32C99.63 117.373 99.5167 117.427 99.41 117.48C99.31 117.533 99.22 117.6 99.14 117.68C98.96 117.827 98.83 118 98.75 118.2C98.71 118.3 98.6767 118.41 98.65 118.53C98.6233 118.643 98.61 118.767 98.61 118.9C98.61 119.053 98.6267 119.193 98.66 119.32C98.6933 119.44 98.7433 119.56 98.81 119.68C98.9433 119.92 99.1567 120.097 99.45 120.21C99.5033 120.243 99.5633 120.273 99.63 120.3C99.7033 120.32 99.7833 120.347 99.87 120.38C99.9633 120.407 100.083 120.437 100.23 120.47C100.383 120.503 100.52 120.54 100.64 120.58V122.32C100.467 122.293 100.277 122.257 100.07 122.21C99.87 122.157 99.6933 122.1 99.54 122.04C99.48 122.013 99.42 121.977 99.36 121.93C99.3 121.877 99.24 121.83 99.18 121.79C99.12 121.75 99.0567 121.72 98.99 121.7C98.9233 121.673 98.8567 121.67 98.79 121.69C98.69 121.71 98.61 121.753 98.55 121.82C98.4967 121.887 98.4567 121.963 98.43 122.05C98.41 122.137 98.4033 122.227 98.41 122.32C98.4233 122.407 98.4467 122.49 98.48 122.57C98.52 122.677 98.58 122.77 98.66 122.85C98.7467 122.923 98.84 122.99 98.94 123.05C99.04 123.103 99.1433 123.153 99.25 123.2C99.3633 123.24 99.47 123.28 99.57 123.32C99.7233 123.373 99.9 123.42 100.1 123.46C100.307 123.493 100.487 123.52 100.64 123.54V123.62C100.647 123.673 100.65 123.733 100.65 123.8C100.657 123.86 100.66 123.92 100.66 123.98C100.667 124.04 100.673 124.077 100.68 124.09C100.707 124.203 100.763 124.29 100.85 124.35C100.943 124.417 101.043 124.457 101.15 124.47C101.263 124.483 101.373 124.47 101.48 124.43ZM100 119.13C99.96 119.063 99.9367 119.003 99.93 118.95C99.8967 118.723 99.95 118.563 100.09 118.47C100.237 118.37 100.42 118.313 100.64 118.3V119.43C100.54 119.417 100.447 119.4 100.36 119.38C100.273 119.353 100.2 119.32 100.14 119.28C100.087 119.24 100.04 119.19 100 119.13ZM102.5 121.39C102.553 121.463 102.587 121.543 102.6 121.63C102.613 121.743 102.597 121.847 102.55 121.94C102.51 122.033 102.453 122.113 102.38 122.18C102.307 122.24 102.22 122.287 102.12 122.32C102.02 122.347 101.92 122.353 101.82 122.34C101.827 122.107 101.823 121.873 101.81 121.64C101.803 121.4 101.8 121.163 101.8 120.93C101.887 120.95 101.973 120.983 102.06 121.03C102.153 121.07 102.237 121.12 102.31 121.18C102.39 121.24 102.453 121.31 102.5 121.39Z" fill="white"/>
<path fill-rule="evenodd" clip-rule="evenodd" d="M105 96C100.029 96 96 100.029 96 105V115C96 116.488 96.3609 117.891 97 119.127V113H98V105C98 101.134 101.134 98 105 98H115C118.866 98 122 101.134 122 105V115C122 118.866 118.866 122 115 122H107V124H115C119.971 124 124 119.971 124 115V105C124 100.029 119.971 96 115 96H105Z" fill="white"/>
<path fill-rule="evenodd" clip-rule="evenodd" d="M96.3392 94.2178L94.2178 96.3392L96.5355 98.6568L95.8284 99.3639L96.5355 100.071L100.071 96.5355L99.364 95.8284L98.6568 96.5355L96.3392 94.2178Z" fill="white"/>
</g>
<rect x="139" y="97" width="26" height="26" rx="2" stroke="white" stroke-width="2"/>
<path d="M161.544 112.001C161.544 112.001 158.373 114.281 155.544 114.001C152.411 113.69 150.69 110.641 147.544 110.501C145.077 110.39 141.544 112.001 141.544 112.001" stroke="white" stroke-width="3"/>
<path d="M158.544 117.775C158.544 117.775 156.325 119.714 154.344 119.475C152.151 119.21 150.946 116.62 148.744 116.5C147.017 116.406 144.544 117.775 144.544 117.775" stroke="white" stroke-width="2"/>
<circle cx="157.854" cy="104.548" r="2" transform="rotate(15 157.854 104.548)" fill="white"/>
<line x1="155.195" y1="105.604" x2="146.498" y2="110.601" stroke="white" stroke-width="2"/>
<line x1="153.866" y1="105.5" x2="155.987" y2="109.174" stroke="white" stroke-width="2"/>
<line x1="154.219" y1="106.667" x2="151.219" y2="103.667" stroke="white" stroke-width="2"/>
<line x1="155.594" y1="109.119" x2="159.457" y2="110.154" stroke="white" stroke-width="2"/>
<line x1="151.926" y1="103.96" x2="147.926" y2="103.96" stroke="white" stroke-width="2"/>
<rect x="181" y="97" width="26" height="26" rx="2" stroke="white" stroke-width="2"/>
<path fill-rule="evenodd" clip-rule="evenodd" d="M182.479 107C182.218 105.236 182.767 103.375 184.125 102.017C185.954 100.188 188.697 99.8276 190.886 100.937L190 101L188.286 107H188L186.714 109.571L185 107H182.479ZM182.719 108C182.996 108.829 183.465 109.607 184.125 110.267L185.893 112.035L194.142 120.284L202.392 112.035L204.159 110.267C204.819 109.607 205.288 108.829 205.566 108L197 108V107.553L195.985 106.03L195 108H193.754L191.962 114.275L191.951 114.272L191.997 114.929L191 115L190.208 103.912L188.962 108.275L188.541 108.154L186.894 111.447L186 111L186.25 110.5L186.168 110.555L184.465 108H182.719ZM205.805 107C206.066 105.236 205.517 103.375 204.159 102.017C201.881 99.7393 198.188 99.7393 195.91 102.017L194.142 103.785L192.374 102.017C191.958 101.601 191.495 101.261 191.002 100.997L191.745 111.393L193 107L194.382 107L195.606 104.553L196.5 105L197.833 107L205.805 107Z" fill="white"/>
<rect x="225" y="117" width="5" height="3" fill="white"/>
<rect x="225" y="113" width="5" height="3" fill="white"/>
<rect x="225" y="121" width="5" height="3" fill="white"/>
<rect x="225" y="109" width="5" height="3" fill="white"/>
<rect x="241" y="117" width="5" height="3" fill="white"/>
<rect x="241" y="113" width="5" height="3" fill="white"/>
<rect x="241" y="121" width="5" height="3" fill="white"/>
<rect x="241" y="109" width="5" height="3" fill="white"/>
<path d="M243 107.5C243 103.358 239.642 100 235.5 100C231.358 100 228 103.358 228 107.5" stroke="white" stroke-width="3" stroke-dasharray="2 1"/>
<circle cx="278" cy="108" r="10" stroke="white" stroke-width="2"/>
<line x1="267.786" y1="108.286" x2="287.429" y2="108.286" stroke="white"/>
<line x1="269.357" y1="102.786" x2="286.643" y2="102.786" stroke="white"/>
<line x1="269.357" y1="113" x2="286.643" y2="113" stroke="white"/>
<line x1="278.107" y1="98.1786" x2="278.107" y2="117.821" stroke="white"/>
<path d="M281.143 98.5714C281.143 98.5714 283.893 104.41 283.893 108.393C283.893 112.376 281.143 118.214 281.143 118.214" stroke="white"/>
<path d="M275.25 98.5714C275.25 98.5714 272.5 104.41 272.5 108.393C272.5 112.376 275.25 118.214 275.25 118.214" stroke="white"/>
<mask id="path-125-inside-9_96_71" fill="white">
<path d="M292 108C292 110.613 291.269 113.174 289.889 115.393C288.509 117.612 286.536 119.4 284.192 120.556C281.848 121.712 279.228 122.189 276.628 121.933C274.027 121.676 271.55 120.698 269.477 119.107C267.404 117.516 265.818 115.377 264.897 112.932C263.977 110.486 263.759 107.832 264.269 105.269C264.779 102.706 265.996 100.337 267.782 98.4297C269.568 96.5225 271.853 95.1533 274.377 94.477L274.739 95.8293C272.467 96.438 270.411 97.6703 268.804 99.3867C267.196 101.103 266.101 103.235 265.642 105.542C265.183 107.848 265.379 110.237 266.208 112.438C267.036 114.639 268.464 116.565 270.33 117.996C272.195 119.428 274.425 120.309 276.765 120.539C279.105 120.77 281.464 120.341 283.573 119.301C285.682 118.26 287.458 116.651 288.7 114.654C289.942 112.657 290.6 110.352 290.6 108H292Z"/>
</mask>
<path d="M292 108C292 110.613 291.269 113.174 289.889 115.393C288.509 117.612 286.536 119.4 284.192 120.556C281.848 121.712 279.228 122.189 276.628 121.933C274.027 121.676 271.55 120.698 269.477 119.107C267.404 117.516 265.818 115.377 264.897 112.932C263.977 110.486 263.759 107.832 264.269 105.269C264.779 102.706 265.996 100.337 267.782 98.4297C269.568 96.5225 271.853 95.1533 274.377 94.477L274.739 95.8293C272.467 96.438 270.411 97.6703 268.804 99.3867C267.196 101.103 266.101 103.235 265.642 105.542C265.183 107.848 265.379 110.237 266.208 112.438C267.036 114.639 268.464 116.565 270.33 117.996C272.195 119.428 274.425 120.309 276.765 120.539C279.105 120.77 281.464 120.341 283.573 119.301C285.682 118.26 287.458 116.651 288.7 114.654C289.942 112.657 290.6 110.352 290.6 108H292Z" stroke="white" stroke-width="4" mask="url(#path-125-inside-9_96_71)"/>
<line x1="287" y1="123" x2="269" y2="123" stroke="white" stroke-width="2"/>
<path fill-rule="evenodd" clip-rule="evenodd" d="M17 146.5C17 141.806 20.8056 138 25.5 138C30.1944 138 34 141.806 34 146.5V164.732L32 163L30 164.732L28 163L26 164.732L24 163L22 164.732L20 163L17.6906 165H17V146.5ZM29 146C29 144.895 29.8954 144 31 144C32.1046 144 33 144.895 33 146V149C33 150.105 32.1046 151 31 151C29.8954 151 29 150.105 29 149V146ZM24 144C22.8954 144 22 144.895 22 146V149C22 150.105 22.8954 151 24 151C25.1046 151 26 150.105 26 149V146C26 144.895 25.1046 144 24 144Z" fill="white"/>
<rect x="24" y="146" width="2" height="3" rx="1" fill="white"/>
<rect x="31" y="146" width="2" height="3" rx="1" fill="white"/>
<path d="M65 138.5L66.5 140H67L68 138L69 140H69.5L71 138.5V141.5H65V138.5Z" fill="white"/>
<path d="M70.5 152H73.5L80 163L72 165L70.5 152Z" fill="white"/>
<path fill-rule="evenodd" clip-rule="evenodd" d="M65.0782 142C64.6544 142.517 64.4 143.179 64.4 143.9V147.5C64.4 148.951 65.4307 150.162 66.8 150.44V152.9H66C65.966 152.9 65.9321 152.9 65.8984 152.901L64.4211 166L62 165.381V166.1H74V165.381L71.5789 166L70.1016 152.901C70.0679 152.9 70.034 152.9 70 152.9H69.2V150.44C70.5693 150.162 71.6 148.951 71.6 147.5V143.9C71.6 143.179 71.3456 142.517 70.9218 142H65.0782Z" fill="white"/>
<path d="M65.5 152H62.5L56 163L64 165L65.5 152Z" fill="white"/>
<rect x="97" y="139" width="26" height="26" rx="2" stroke="white" stroke-width="2"/>
<rect x="105" y="150" width="3" height="4" rx="1" fill="white"/>
<rect x="116" y="150" width="3" height="4" rx="1" fill="white"/>
<rect x="112" y="147" width="8" height="9" rx="4" stroke="white" stroke-width="2"/>
<rect x="101" y="147" width="8" height="9" rx="4" stroke="white" stroke-width="2"/>
<g clip-path="url(#clip3_96_71)">
<path d="M146 137L147.856 140.214H144.144L146 137Z" fill="white"/>
<path d="M137.34 142L141.051 142L139.196 145.214L137.34 142Z" fill="white"/>
<path d="M141 138.34L144.214 140.195L141 142.051L141 138.34Z" fill="white"/>
<path d="M154.66 142L152.804 145.214L150.949 142L154.66 142Z" fill="white"/>
<path d="M151 138.34L151 142.051L147.786 140.196L151 138.34Z" fill="white"/>
<path d="M156 147L152.786 148.856L152.786 145.144L156 147Z" fill="white"/>
<path d="M146 157L147.856 153.786H144.144L146 157Z" fill="white"/>
<path d="M154.66 152L152.804 148.786L150.949 152L154.66 152Z" fill="white"/>
<path d="M151 155.66L151 151.949L147.786 153.804L151 155.66Z" fill="white"/>
<path d="M137.34 152L141.051 152L139.196 148.786L137.34 152Z" fill="white"/>
<path d="M141 155.66L144.214 153.804L141 151.949L141 155.66Z" fill="white"/>
<path d="M136 147L139.214 148.856L139.214 145.144L136 147Z" fill="white"/>
<circle cx="146" cy="147" r="5.71429" fill="white"/>
<mask id="path-152-outside-10_96_71" maskUnits="userSpaceOnUse" x="156" y="138" width="9" height="13" fill="black">
<rect fill="white" x="156" y="138" width="9" height="13"/>
<path fill-rule="evenodd" clip-rule="evenodd" d="M160.5 144.5L158 141.5V140H163V141.5L160.5 144.5ZM160.5 144.5L163 147.5V149H158V147.5L160.5 144.5Z"/>
</mask>
<path d="M158 141.5H156V142.224L156.464 142.78L158 141.5ZM158 140V138H156V140H158ZM163 140H165V138H163V140ZM163 141.5L164.536 142.78L165 142.224V141.5H163ZM163 147.5H165V146.776L164.536 146.22L163 147.5ZM163 149V151H165V149H163ZM158 149H156V151H158V149ZM158 147.5L156.464 146.22L156 146.776V147.5H158ZM156.464 142.78L158.964 145.78L162.036 143.22L159.536 140.22L156.464 142.78ZM156 140V141.5H160V140H156ZM163 138H158V142H163V138ZM165 141.5V140H161V141.5H165ZM162.036 145.78L164.536 142.78L161.464 140.22L158.964 143.22L162.036 145.78ZM158.964 145.78L161.464 148.78L164.536 146.22L162.036 143.22L158.964 145.78ZM161 147.5V149H165V147.5H161ZM163 147H158V151H163V147ZM160 149V147.5H156V149H160ZM159.536 148.78L162.036 145.78L158.964 143.22L156.464 146.22L159.536 148.78Z" fill="white" mask="url(#path-152-outside-10_96_71)"/>
<path d="M160.5 146L162.232 148.25H158.768L160.5 146Z" fill="white"/>
<path fill-rule="evenodd" clip-rule="evenodd" d="M151.766 165.922C155.286 167.954 159.787 166.748 161.82 163.228C163.852 159.708 162.646 155.207 159.126 153.174C157.717 152.361 156.151 152.066 154.649 152.231C154.959 152.347 155.263 152.49 155.559 152.66C158.44 154.323 159.426 158.006 157.763 160.886C156.101 163.766 152.418 164.753 149.538 163.09C149.242 162.919 148.966 162.727 148.711 162.517C149.319 163.9 150.357 165.108 151.766 165.922Z" fill="white"/>
</g>
<rect x="181" y="139" width="26" height="26" rx="2" stroke="white" stroke-width="2"/>
<circle cx="193.99" cy="143.737" r="2" transform="rotate(-30 193.99 143.737)" fill="white"/>
<line x1="192.858" y1="146.362" x2="188.466" y2="162.754" stroke="white" stroke-width="2"/>
<line x1="191.449" y1="151.575" x2="194.065" y2="157.142" stroke="white" stroke-width="2"/>
<line x1="192.539" y1="146.899" x2="192.966" y2="151.12" stroke="white" stroke-width="2"/>
<line x1="192.754" y1="146.866" x2="189.08" y2="148.987" stroke="white" stroke-width="2"/>
<line x1="192.604" y1="150.446" x2="195.703" y2="152.976" stroke="white" stroke-width="2"/>
<line x1="189.545" y1="148.38" x2="188.51" y2="152.244" stroke="white" stroke-width="2"/>
<line x1="193.531" y1="155.835" x2="194.7" y2="162.835" stroke="white" stroke-width="2"/>
<line x1="182.976" y1="152.501" x2="203.976" y2="151.501" stroke="white"/>
<line x1="200.121" y1="150.515" x2="204.121" y2="151.515" stroke="white"/>
<rect x="223" y="139" width="26" height="26" rx="2" stroke="white" stroke-width="2"/>
<line x1="228" y1="148" x2="245" y2="148" stroke="white" stroke-width="4"/>
<line x1="228" y1="156" x2="245" y2="156" stroke="white" stroke-width="4"/>
<line x1="231.23" y1="161.069" x2="241.23" y2="142.069" stroke="white" stroke-width="4"/>
<rect x="265" y="139" width="26" height="26" rx="2" stroke="white" stroke-width="2"/>
<line x1="286" y1="152" x2="272" y2="152" stroke="white" stroke-width="2"/>
<path d="M289 152L281.5 156.33L281.5 147.67L289 152Z" fill="white"/>
<line x1="268.5" y1="160" x2="268.5" y2="144" stroke="white" stroke-width="3"/>
<rect x="13" y="181" width="26" height="26" rx="2" stroke="white" stroke-width="2"/>
<line x1="33" y1="202" x2="21" y2="202" stroke="white" stroke-width="2"/>
<line x1="32" y1="201" x2="32" y2="186" stroke="white" stroke-width="2"/>
<line x1="33" y1="187" x2="21" y2="187" stroke="white" stroke-width="2"/>
<line x1="30" y1="195" x2="24" y2="195" stroke="white" stroke-width="2"/>
<rect x="55" y="181" width="26" height="26" rx="2" stroke="white" stroke-width="2"/>
<path d="M74.4051 191.227C74.7127 191.093 75.0762 191.183 75.253 191.468C75.8181 192.379 76.071 193.384 75.9829 194.392C75.8794 195.577 75.31 196.711 74.3468 197.653C73.3836 198.594 72.0698 199.3 70.5715 199.682C69.2985 200.006 67.941 200.083 66.6241 199.911C66.2559 199.862 66.0415 199.482 66.1664 199.132V199.132C66.2681 198.848 66.5632 198.683 66.8628 198.724C67.9277 198.868 69.0271 198.808 70.0572 198.545C71.2558 198.24 72.3069 197.675 73.0775 196.922C73.848 196.169 74.3035 195.261 74.3863 194.314C74.4433 193.661 74.3217 193.01 74.0336 192.399C73.8302 191.968 73.9674 191.416 74.4051 191.227V191.227Z" fill="white"/>
<path d="M59.9338 194.42C59.5541 194.496 59.1684 194.283 59.0913 193.904C58.8988 192.957 59.0111 191.985 59.4246 191.071C59.9332 189.948 60.8746 188.962 62.1299 188.24C63.3852 187.517 64.8979 187.09 66.4768 187.013C67.77 186.949 69.06 187.122 70.2374 187.513C70.6306 187.644 70.7547 188.122 70.502 188.451V188.451C70.3244 188.681 70.0137 188.759 69.7393 188.662C68.7577 188.313 67.671 188.157 66.5814 188.21C65.3183 188.272 64.1081 188.614 63.1039 189.192C62.0997 189.77 61.3465 190.558 60.9396 191.457C60.6608 192.073 60.5532 192.722 60.6185 193.365C60.6666 193.838 60.4 194.326 59.9338 194.42V194.42Z" fill="white"/>
<path d="M63 192L64.1226 195.455H67.7553L64.8164 197.59L65.9389 201.045L63 198.91L60.0611 201.045L61.1836 197.59L58.2447 195.455H61.8774L63 192Z" fill="white"/>
<path d="M74.5981 186.5L74.1449 188.632L76.0325 189.722L73.8648 189.95L73.4117 192.082L72.5251 190.09L70.3574 190.318L71.9772 188.86L71.0907 186.869L72.9783 187.958L74.5981 186.5Z" fill="white"/>
<rect x="97" y="181" width="26" height="26" rx="2" stroke="white" stroke-width="2"/>
<path fill-rule="evenodd" clip-rule="evenodd" d="M112 185H103V204H117V190H112V185ZM109 192H111V194H113V196H111V198H109V196H107V194H109V192Z" fill="white"/>
<path d="M113 185L117 189H113L113 185Z" fill="white"/>
<rect x="139" y="181" width="26" height="26" rx="2" stroke="white" stroke-width="2"/>
<path fill-rule="evenodd" clip-rule="evenodd" d="M159.073 194.046L154.594 196.267L155.375 197.842C154.653 199.101 154.552 200.685 155.245 202.083C156.35 204.309 159.05 205.219 161.276 204.115C163.503 203.011 164.413 200.311 163.309 198.085C162.615 196.687 161.293 195.808 159.854 195.62L159.073 194.046ZM160.277 202.099C159.163 202.651 157.813 202.196 157.261 201.083C156.709 199.97 157.164 198.62 158.277 198.068C159.391 197.516 160.741 197.971 161.293 199.084C161.845 200.197 161.39 201.547 160.277 202.099Z" fill="white"/>
<rect x="154.827" y="193.361" width="2" height="3" rx="0.5" transform="rotate(-26.3754 154.827 193.361)" stroke="white"/>
<mask id="path-191-inside-11_96_71" fill="white">
<path d="M152.824 190.447C152.579 189.952 152.781 189.352 153.276 189.107L154.172 188.663C154.667 188.417 155.267 188.62 155.512 189.114L155.956 190.01C156.202 190.505 155.999 191.105 155.505 191.35L154.609 191.795C154.114 192.04 153.514 191.838 153.269 191.343L152.824 190.447Z"/>
</mask>
<path d="M152.38 189.551L155.068 188.218L152.38 189.551ZM156.852 189.566C157.343 190.556 156.938 191.756 155.949 192.246L155.053 192.691C154.063 193.181 152.863 192.777 152.373 191.787L154.164 190.899L155.06 190.455L156.852 189.566ZM155.053 192.691C154.063 193.181 152.863 192.777 152.373 191.787C151.882 190.798 152.286 189.598 153.276 189.107C153.276 189.107 153.475 189.508 153.72 190.003L154.164 190.899L155.053 192.691ZM154.172 188.663C155.161 188.172 156.361 188.576 156.852 189.566C157.343 190.556 156.938 191.756 155.949 192.246L155.06 190.455L154.616 189.559C154.371 189.064 154.172 188.663 154.172 188.663Z" fill="white" mask="url(#path-191-inside-11_96_71)"/>
<line x1="155.057" y1="191.573" x2="155.945" y2="193.364" stroke="white"/>
<path fill-rule="evenodd" clip-rule="evenodd" d="M144.927 193.046L149.406 195.267L148.625 196.842C149.347 198.101 149.448 199.685 148.755 201.083C147.65 203.309 144.95 204.219 142.724 203.115C140.497 202.011 139.587 199.311 140.691 197.085C141.385 195.687 142.707 194.808 144.146 194.62L144.927 193.046ZM143.723 201.099C144.837 201.651 146.187 201.196 146.739 200.083C147.291 198.97 146.836 197.62 145.723 197.068C144.609 196.516 143.259 196.971 142.707 198.084C142.155 199.197 142.61 200.547 143.723 201.099Z" fill="white"/>
<rect x="-0.670077" y="0.225826" width="2" height="3" rx="0.5" transform="matrix(-0.895903 -0.44425 -0.44425 0.895903 148.673 191.861)" stroke="white"/>
<mask id="path-196-inside-12_96_71" fill="white">
<path d="M151.176 189.447C151.421 188.952 151.219 188.352 150.724 188.107L149.828 187.663C149.333 187.417 148.733 187.62 148.488 188.114L148.044 189.01C147.798 189.505 148.001 190.105 148.495 190.35L149.391 190.795C149.886 191.04 150.486 190.838 150.731 190.343L151.176 189.447Z"/>
</mask>
<path d="M151.62 188.551L148.932 187.218L151.62 188.551ZM147.148 188.566C146.657 189.556 147.062 190.756 148.051 191.246L148.947 191.691C149.937 192.181 151.137 191.777 151.627 190.787L149.836 189.899L148.94 189.455L147.148 188.566ZM148.947 191.691C149.937 192.181 151.137 191.777 151.627 190.787C152.118 189.798 151.714 188.598 150.724 188.107C150.724 188.107 150.525 188.508 150.28 189.003L149.836 189.899L148.947 191.691ZM149.828 187.663C148.839 187.172 147.639 187.576 147.148 188.566C146.657 189.556 147.062 190.756 148.051 191.246L148.94 189.455L149.384 188.559C149.629 188.064 149.828 187.663 149.828 187.663Z" fill="white" mask="url(#path-196-inside-12_96_71)"/>
<line y1="-0.5" x2="2" y2="-0.5" transform="matrix(-0.44425 0.895903 0.895903 0.44425 149.391 190.795)" stroke="white"/>
<line x1="149.646" y1="186.354" x2="147.646" y2="184.354" stroke="white"/>
<line y1="-0.5" x2="2.82843" y2="-0.5" transform="matrix(0.707107 -0.707107 -0.707107 -0.707107 153 186)" stroke="white"/>
<line x1="151.5" y1="186" x2="151.5" y2="183" stroke="white"/>
<rect x="181" y="181" width="26" height="26" rx="2" stroke="white" stroke-width="2"/>
<line x1="182.824" y1="190.949" x2="201.529" y2="187.612" stroke="white" stroke-width="2"/>
<line x1="189.359" y1="204.556" x2="200.884" y2="188.025" stroke="white" stroke-width="2"/>
<path d="M206.42 184.763L203.725 187.148L207.073 188.468L203.476 188.564L205.192 191.726L202.375 189.487L201.657 193.013L200.938 189.487L198.121 191.726L199.837 188.564L196.24 188.468L199.588 187.148L196.893 184.763L200.306 185.904L199.775 182.345L201.657 185.412L203.538 182.345L203.007 185.904L206.42 184.763Z" fill="white"/>
<rect x="223" y="181" width="26" height="26" rx="2" stroke="white" stroke-width="2"/>
<path fill-rule="evenodd" clip-rule="evenodd" d="M225 185C225 183.895 225.895 183 227 183H236C237.105 183 238 183.895 238 185V194C238 195.105 237.105 196 236 196H227C225.895 196 225 195.105 225 194V185ZM235.725 185.925C235.725 186.643 235.143 187.225 234.425 187.225C233.707 187.225 233.125 186.643 233.125 185.925C233.125 185.207 233.707 184.625 234.425 184.625C235.143 184.625 235.725 185.207 235.725 185.925ZM229.55 187.225C230.268 187.225 230.85 186.643 230.85 185.925C230.85 185.207 230.268 184.625 229.55 184.625C228.832 184.625 228.25 185.207 228.25 185.925C228.25 186.643 228.832 187.225 229.55 187.225ZM235.725 192.425C235.725 193.143 235.143 193.725 234.425 193.725C233.707 193.725 233.125 193.143 233.125 192.425C233.125 191.707 233.707 191.125 234.425 191.125C235.143 191.125 235.725 191.707 235.725 192.425ZM229.55 193.725C230.268 193.725 230.85 193.143 230.85 192.425C230.85 191.707 230.268 191.125 229.55 191.125C228.832 191.125 228.25 191.707 228.25 192.425C228.25 193.143 228.832 193.725 229.55 193.725ZM235.725 189.175C235.725 189.893 235.143 190.475 234.425 190.475C233.707 190.475 233.125 189.893 233.125 189.175C233.125 188.457 233.707 187.875 234.425 187.875C235.143 187.875 235.725 188.457 235.725 189.175ZM229.55 190.475C230.268 190.475 230.85 189.893 230.85 189.175C230.85 188.457 230.268 187.875 229.55 187.875C228.832 187.875 228.25 188.457 228.25 189.175C228.25 189.893 228.832 190.475 229.55 190.475Z" fill="white"/>
<path fill-rule="evenodd" clip-rule="evenodd" d="M237.5 190.732C238.052 189.775 239.275 189.448 240.232 190L248.026 194.5C248.983 195.052 249.311 196.275 248.758 197.232L244.258 205.026C243.706 205.983 242.483 206.311 241.526 205.758L233.732 201.258C232.775 200.706 232.448 199.483 233 198.526L237.5 190.732ZM246.326 196.896C245.967 197.517 245.172 197.73 244.55 197.371C243.928 197.012 243.715 196.217 244.074 195.596C244.433 194.974 245.228 194.761 245.85 195.12C246.472 195.479 246.685 196.274 246.326 196.896ZM240.328 194.934C240.95 195.293 241.745 195.08 242.104 194.458C242.463 193.836 242.25 193.041 241.628 192.682C241.006 192.323 240.211 192.536 239.852 193.158C239.493 193.78 239.706 194.575 240.328 194.934ZM243.076 202.525C242.717 203.147 241.922 203.36 241.3 203.001C240.678 202.642 240.465 201.847 240.824 201.225C241.183 200.603 241.978 200.39 242.6 200.749C243.222 201.108 243.435 201.903 243.076 202.525ZM237.078 200.563C237.7 200.922 238.495 200.709 238.854 200.087C239.213 199.466 239 198.67 238.378 198.311C237.756 197.952 236.961 198.166 236.602 198.787C236.243 199.409 236.456 200.204 237.078 200.563ZM244.701 199.71C244.342 200.332 243.547 200.545 242.925 200.186C242.303 199.827 242.09 199.032 242.449 198.41C242.808 197.788 243.603 197.575 244.225 197.934C244.847 198.293 245.06 199.088 244.701 199.71ZM238.703 197.749C239.325 198.108 240.12 197.894 240.479 197.273C240.838 196.651 240.625 195.856 240.003 195.497C239.381 195.138 238.586 195.351 238.227 195.973C237.868 196.594 238.081 197.39 238.703 197.749Z" fill="white"/>
<mask id="path-209-outside-13_96_71" maskUnits="userSpaceOnUse" x="262" y="180.352" width="31" height="28" fill="black">
<rect fill="white" x="262" y="180.352" width="31" height="28"/>
<path fill-rule="evenodd" clip-rule="evenodd" d="M286.667 188.13C288.262 188.13 289.556 186.837 289.556 185.241C289.556 183.646 288.262 182.352 286.667 182.352C285.071 182.352 283.778 183.646 283.778 185.241C283.778 186.837 285.071 188.13 286.667 188.13ZM282.333 186.686L281.591 187.428L277.803 185.241L277.803 185.241L272.222 186.737L272.74 188.669L277.521 187.388L280.127 188.892L265 204.019L266.414 205.433L277.171 194.677L280.407 198.723L275.111 204.019L276.525 205.433L281.664 200.294L282.333 201.13L283.895 199.881L283.087 198.871L283.748 198.211L282.333 196.797L281.83 197.3L278.594 193.254L281.581 190.267L285.222 193.908H291V191.908H286.051L282.995 188.852L283.748 188.1L282.333 186.686Z"/>
</mask>
<path d="M281.591 187.428L281.091 188.294L281.755 188.678L282.298 188.135L281.591 187.428ZM282.333 186.686L283.04 185.979L282.333 185.272L281.626 185.979L282.333 186.686ZM277.803 185.241L276.843 185.521L276.955 185.906L277.303 186.107L277.803 185.241ZM277.803 185.241L278.763 184.962L278.49 184.022L277.544 184.275L277.803 185.241ZM272.222 186.737L271.963 185.771L270.997 186.03L271.256 186.995L272.222 186.737ZM272.74 188.669L271.774 188.927L272.033 189.893L272.999 189.634L272.74 188.669ZM277.521 187.388L278.021 186.522L277.662 186.314L277.262 186.422L277.521 187.388ZM280.127 188.892L280.834 189.599L281.755 188.678L280.627 188.026L280.127 188.892ZM265 204.019L264.293 203.312L263.586 204.019L264.293 204.726L265 204.019ZM266.414 205.433L265.707 206.14L266.414 206.847L267.121 206.14L266.414 205.433ZM277.171 194.677L277.952 194.052L277.254 193.18L276.464 193.97L277.171 194.677ZM280.407 198.723L281.115 199.43L281.747 198.797L281.188 198.098L280.407 198.723ZM275.111 204.019L274.404 203.312L273.697 204.019L274.404 204.726L275.111 204.019ZM276.525 205.433L275.818 206.14L276.525 206.847L277.232 206.14L276.525 205.433ZM281.664 200.294L282.445 199.669L281.747 198.797L280.957 199.587L281.664 200.294ZM282.333 201.13L281.552 201.755L282.177 202.536L282.958 201.911L282.333 201.13ZM283.895 199.881L284.52 200.662L285.301 200.037L284.676 199.256L283.895 199.881ZM283.087 198.871L282.38 198.164L281.747 198.797L282.307 199.496L283.087 198.871ZM283.748 198.211L284.455 198.918L285.162 198.211L284.455 197.504L283.748 198.211ZM282.333 196.797L283.04 196.09L282.333 195.383L281.626 196.09L282.333 196.797ZM281.83 197.3L281.049 197.925L281.747 198.797L282.537 198.007L281.83 197.3ZM278.594 193.254L277.886 192.547L277.254 193.18L277.813 193.879L278.594 193.254ZM281.581 190.267L282.288 189.559L281.581 188.852L280.874 189.559L281.581 190.267ZM285.222 193.908L284.515 194.615L284.808 194.908H285.222V193.908ZM291 193.908V194.908H292V193.908H291ZM291 191.908H292V190.908H291V191.908ZM286.051 191.908L285.344 192.615L285.636 192.908H286.051V191.908ZM282.995 188.852L282.288 188.145L281.581 188.852L282.288 189.559L282.995 188.852ZM283.748 188.1L284.455 188.807L285.162 188.1L284.455 187.393L283.748 188.1ZM290.556 185.241C290.556 184.534 290.366 183.869 290.035 183.296L288.303 184.297C288.464 184.574 288.556 184.896 288.556 185.241H290.556ZM288.612 181.873C288.039 181.542 287.373 181.352 286.667 181.352V183.352C287.012 183.352 287.334 183.444 287.611 183.605L288.612 181.873ZM286.667 181.352C285.96 181.352 285.294 181.542 284.721 181.873L285.723 183.605C286 183.444 286.321 183.352 286.667 183.352V181.352ZM283.299 183.296C282.967 183.869 282.778 184.534 282.778 185.241H284.778C284.778 184.896 284.87 184.574 285.03 184.297L283.299 183.296ZM282.778 185.241C282.778 185.948 282.967 186.614 283.299 187.187L285.03 186.185C284.87 185.908 284.778 185.587 284.778 185.241H282.778ZM284.721 188.609C285.294 188.941 285.96 189.13 286.667 189.13V187.13C286.321 187.13 286 187.038 285.723 186.878L284.721 188.609ZM286.667 189.13C287.373 189.13 288.039 188.941 288.612 188.609L287.611 186.878C287.334 187.038 287.012 187.13 286.667 187.13V189.13ZM290.035 187.187C290.366 186.614 290.556 185.948 290.556 185.241H288.556C288.556 185.587 288.464 185.908 288.303 186.185L290.035 187.187ZM282.091 186.562L280.828 185.833L279.828 187.565L281.091 188.294L282.091 186.562ZM279.566 185.104L278.303 184.375L277.303 186.107L278.566 186.836L279.566 185.104ZM278.763 184.962L278.763 184.962L276.843 185.521L276.843 185.521L278.763 184.962ZM278.763 184.962L278.763 184.962L276.843 185.521L276.843 185.521L278.763 184.962ZM277.544 184.275L275.684 184.774L276.202 186.706L278.062 186.207L277.544 184.275ZM273.824 185.272L271.963 185.771L272.481 187.703L274.341 187.204L273.824 185.272ZM271.256 186.995L271.429 187.639L273.361 187.122L273.188 186.478L271.256 186.995ZM271.601 188.283L271.774 188.927L273.706 188.41L273.533 187.766L271.601 188.283ZM272.999 189.634L274.592 189.207L274.075 187.276L272.481 187.703L272.999 189.634ZM276.186 188.78L277.779 188.353L277.262 186.422L275.668 186.849L276.186 188.78ZM277.021 188.254L277.889 188.755L278.889 187.023L278.021 186.522L277.021 188.254ZM278.758 189.257L279.627 189.758L280.627 188.026L279.758 187.525L278.758 189.257ZM279.42 188.185L278.159 189.446L279.573 190.86L280.834 189.599L279.42 188.185ZM276.899 190.706L274.377 193.227L275.792 194.642L278.313 192.121L276.899 190.706ZM273.117 194.488L270.596 197.009L272.01 198.423L274.531 195.902L273.117 194.488ZM269.335 198.27L266.814 200.791L268.228 202.205L270.749 199.684L269.335 198.27ZM265.553 202.051L264.293 203.312L265.707 204.726L266.968 203.466L265.553 202.051ZM264.293 204.726L264.764 205.198L266.179 203.783L265.707 203.312L264.293 204.726ZM265.236 205.669L265.707 206.14L267.121 204.726L266.65 204.255L265.236 205.669ZM267.121 206.14L268.316 204.945L266.902 203.531L265.707 204.726L267.121 206.14ZM269.512 203.75L271.902 201.36L270.488 199.946L268.097 202.336L269.512 203.75ZM273.097 200.165L275.487 197.774L274.073 196.36L271.683 198.75L273.097 200.165ZM276.683 196.579L277.878 195.384L276.464 193.97L275.268 195.165L276.683 196.579ZM276.39 195.302L277.469 196.65L279.03 195.401L277.952 194.052L276.39 195.302ZM278.548 197.999L279.627 199.347L281.188 198.098L280.109 196.749L278.548 197.999ZM279.7 198.016L277.935 199.781L279.349 201.195L281.115 199.43L279.7 198.016ZM276.169 201.547L274.404 203.312L275.818 204.726L277.584 202.961L276.169 201.547ZM274.404 204.726L274.875 205.198L276.29 203.783L275.818 203.312L274.404 204.726ZM275.347 205.669L275.818 206.14L277.232 204.726L276.761 204.255L275.347 205.669ZM277.232 206.14L278.945 204.427L277.531 203.013L275.818 204.726L277.232 206.14ZM280.659 202.714L282.372 201.001L280.957 199.587L279.244 201.3L280.659 202.714ZM280.884 200.919L281.107 201.197L282.668 199.948L282.445 199.669L280.884 200.919ZM281.33 201.476L281.552 201.755L283.114 200.505L282.891 200.227L281.33 201.476ZM282.958 201.911L283.479 201.495L282.229 199.933L281.709 200.349L282.958 201.911ZM283.999 201.078L284.52 200.662L283.27 199.1L282.75 199.516L283.999 201.078ZM284.676 199.256L284.407 198.92L282.845 200.169L283.114 200.505L284.676 199.256ZM284.137 198.583L283.868 198.246L282.307 199.496L282.576 199.832L284.137 198.583ZM283.795 199.578L284.015 199.358L282.6 197.944L282.38 198.164L283.795 199.578ZM284.235 199.138L284.455 198.918L283.04 197.504L282.82 197.724L284.235 199.138ZM284.455 197.504L283.983 197.033L282.569 198.447L283.04 198.918L284.455 197.504ZM283.512 196.561L283.04 196.09L281.626 197.504L282.098 197.975L283.512 196.561ZM281.626 196.09L281.459 196.257L282.873 197.672L283.04 197.504L281.626 196.09ZM281.291 196.425L281.123 196.593L282.537 198.007L282.705 197.839L281.291 196.425ZM282.611 196.675L281.532 195.326L279.971 196.576L281.049 197.925L282.611 196.675ZM280.453 193.978L279.374 192.629L277.813 193.879L278.892 195.227L280.453 193.978ZM279.301 193.961L280.296 192.965L278.882 191.551L277.886 192.547L279.301 193.961ZM281.292 191.969L282.288 190.974L280.874 189.559L279.878 190.555L281.292 191.969ZM280.874 190.974L282.088 192.187L283.502 190.773L282.288 189.559L280.874 190.974ZM283.301 193.401L284.515 194.615L285.929 193.201L284.716 191.987L283.301 193.401ZM285.222 194.908H287.148V192.908H285.222V194.908ZM289.074 194.908H291V192.908H289.074V194.908ZM292 193.908V193.241H290V193.908H292ZM292 192.575V191.908H290V192.575H292ZM291 190.908H289.35V192.908H291V190.908ZM287.7 190.908H286.051V192.908H287.7V190.908ZM286.758 191.201L285.739 190.182L284.325 191.597L285.344 192.615L286.758 191.201ZM284.721 189.164L283.702 188.145L282.288 189.559L283.307 190.578L284.721 189.164ZM283.702 189.559L283.953 189.309L282.539 187.894L282.288 188.145L283.702 189.559ZM284.204 189.058L284.455 188.807L283.04 187.393L282.79 187.644L284.204 189.058ZM284.455 187.393L283.983 186.921L282.569 188.336L283.04 188.807L284.455 187.393ZM283.512 186.45L283.04 185.979L281.626 187.393L282.098 187.864L283.512 186.45ZM281.626 185.979L281.379 186.226L282.793 187.64L283.04 187.393L281.626 185.979ZM281.131 186.474L280.884 186.721L282.298 188.135L282.545 187.888L281.131 186.474ZM281.591 187.428L280.591 189.16L281.92 189.928L283.005 188.842L281.591 187.428ZM282.333 186.686L283.748 185.272L282.333 183.857L280.919 185.272L282.333 186.686ZM277.803 185.241L275.883 185.8L276.107 186.572L276.803 186.973L277.803 185.241ZM277.803 185.241L279.724 184.683L279.177 182.803L277.285 183.309L277.803 185.241ZM272.222 186.737L271.705 184.805L269.773 185.322L270.29 187.254L272.222 186.737ZM272.74 188.669L270.808 189.186L271.326 191.118L273.258 190.6L272.74 188.669ZM277.521 187.388L278.521 185.655L277.803 185.241L277.003 185.456L277.521 187.388ZM280.127 188.892L281.541 190.306L283.384 188.463L281.127 187.16L280.127 188.892ZM265 204.019L263.586 202.605L262.172 204.019L263.586 205.433L265 204.019ZM266.414 205.433L265 206.847L266.414 208.262L267.828 206.847L266.414 205.433ZM277.171 194.677L278.732 193.427L277.336 191.683L275.756 193.263L277.171 194.677ZM280.407 198.723L281.822 200.137L283.087 198.871L281.969 197.473L280.407 198.723ZM275.111 204.019L273.697 202.605L272.283 204.019L273.697 205.433L275.111 204.019ZM276.525 205.433L275.111 206.847L276.525 208.262L277.94 206.847L276.525 205.433ZM281.664 200.294L283.226 199.045L281.83 197.3L280.25 198.88L281.664 200.294ZM282.333 201.13L280.772 202.38L282.021 203.941L283.583 202.692L282.333 201.13ZM283.895 199.881L285.144 201.443L286.706 200.193L285.457 198.631L283.895 199.881ZM283.087 198.871L281.673 197.457L280.407 198.723L281.526 200.121L283.087 198.871ZM283.748 198.211L285.162 199.625L286.576 198.211L285.162 196.797L283.748 198.211ZM282.333 196.797L283.748 195.383L282.333 193.968L280.919 195.383L282.333 196.797ZM281.83 197.3L280.269 198.549L281.664 200.294L283.245 198.714L281.83 197.3ZM278.594 193.254L277.179 191.84L275.914 193.105L277.032 194.503L278.594 193.254ZM281.581 190.267L282.995 188.852L281.581 187.438L280.167 188.852L281.581 190.267ZM285.222 193.908L283.808 195.322L284.394 195.908H285.222V193.908ZM291 193.908V195.908H293V193.908H291ZM291 191.908H293V189.908H291V191.908ZM286.051 191.908L284.636 193.322L285.222 193.908H286.051V191.908ZM282.995 188.852L281.581 187.438L280.167 188.852L281.581 190.267L282.995 188.852ZM283.748 188.1L285.162 189.514L286.576 188.1L285.162 186.686L283.748 188.1ZM291.556 185.241C291.556 184.354 291.317 183.516 290.9 182.795L287.438 184.798C287.512 184.927 287.556 185.076 287.556 185.241H291.556ZM289.113 181.008C288.392 180.591 287.554 180.352 286.667 180.352V184.352C286.832 184.352 286.981 184.396 287.11 184.47L289.113 181.008ZM286.667 180.352C285.779 180.352 284.942 180.591 284.22 181.008L286.224 184.47C286.352 184.396 286.501 184.352 286.667 184.352V180.352ZM282.433 182.795C282.016 183.516 281.778 184.354 281.778 185.241H285.778C285.778 185.076 285.821 184.927 285.896 184.798L282.433 182.795ZM281.778 185.241C281.778 186.129 282.016 186.966 282.433 187.688L285.896 185.684C285.821 185.556 285.778 185.407 285.778 185.241H281.778ZM284.22 189.475C284.942 189.892 285.779 190.13 286.667 190.13V186.13C286.501 186.13 286.352 186.087 286.224 186.012L284.22 189.475ZM286.667 190.13C287.554 190.13 288.392 189.892 289.113 189.475L287.11 186.012C286.981 186.087 286.832 186.13 286.667 186.13V190.13ZM290.9 187.688C291.317 186.966 291.556 186.129 291.556 185.241H287.556C287.556 185.407 287.512 185.556 287.438 185.684L290.9 187.688ZM282.591 185.696L281.328 184.967L279.328 188.431L280.591 189.16L282.591 185.696ZM280.066 184.238L278.803 183.509L276.803 186.973L278.066 187.702L280.066 184.238ZM279.724 184.683L279.724 184.683L275.883 185.8L275.883 185.8L279.724 184.683ZM279.724 184.683L279.724 184.683L275.883 185.8L275.883 185.8L279.724 184.683ZM277.285 183.309L275.425 183.808L276.46 187.672L278.321 187.173L277.285 183.309ZM273.565 184.306L271.705 184.805L272.74 188.669L274.6 188.17L273.565 184.306ZM270.29 187.254L270.463 187.898L274.327 186.863L274.154 186.219L270.29 187.254ZM270.635 188.542L270.808 189.186L274.672 188.151L274.499 187.507L270.635 188.542ZM273.258 190.6L274.851 190.173L273.816 186.31L272.222 186.737L273.258 190.6ZM276.445 189.746L278.038 189.319L277.003 185.456L275.409 185.883L276.445 189.746ZM276.521 189.12L277.389 189.621L279.389 186.157L278.521 185.655L276.521 189.12ZM278.258 190.123L279.127 190.624L281.127 187.16L280.258 186.659L278.258 190.123ZM278.713 187.478L277.452 188.739L280.28 191.567L281.541 190.306L278.713 187.478ZM276.191 189.999L273.67 192.52L276.499 195.349L279.02 192.828L276.191 189.999ZM272.41 193.781L269.889 196.302L272.717 199.13L275.238 196.609L272.41 193.781ZM268.628 197.563L266.107 200.084L268.935 202.912L271.456 200.391L268.628 197.563ZM264.846 201.344L263.586 202.605L266.414 205.433L267.675 204.173L264.846 201.344ZM263.586 205.433L264.057 205.905L266.886 203.076L266.414 202.605L263.586 205.433ZM264.529 206.376L265 206.847L267.828 204.019L267.357 203.548L264.529 206.376ZM267.828 206.847L269.024 205.652L266.195 202.824L265 204.019L267.828 206.847ZM270.219 204.457L272.609 202.067L269.781 199.238L267.39 201.629L270.219 204.457ZM273.804 200.872L276.195 198.481L273.366 195.653L270.976 198.043L273.804 200.872ZM277.39 197.286L278.585 196.091L275.756 193.263L274.561 194.458L277.39 197.286ZM275.609 195.926L276.688 197.275L279.811 194.776L278.732 193.427L275.609 195.926ZM277.767 198.624L278.846 199.972L281.969 197.473L280.89 196.125L277.767 198.624ZM278.993 197.309L277.228 199.074L280.056 201.902L281.822 200.137L278.993 197.309ZM275.462 200.839L273.697 202.605L276.525 205.433L278.291 203.668L275.462 200.839ZM273.697 205.433L274.168 205.905L276.997 203.076L276.525 202.605L273.697 205.433ZM274.64 206.376L275.111 206.847L277.94 204.019L277.468 203.548L274.64 206.376ZM277.94 206.847L279.653 205.134L276.824 202.306L275.111 204.019L277.94 206.847ZM281.366 203.421L283.079 201.708L280.25 198.88L278.537 200.593L281.366 203.421ZM280.103 201.543L280.326 201.822L283.449 199.323L283.226 199.045L280.103 201.543ZM280.549 202.101L280.772 202.38L283.895 199.881L283.672 199.602L280.549 202.101ZM283.583 202.692L284.103 202.275L281.605 199.152L281.084 199.568L283.583 202.692ZM284.624 201.859L285.144 201.443L282.646 198.319L282.125 198.736L284.624 201.859ZM285.457 198.631L285.188 198.295L282.064 200.794L282.333 201.13L285.457 198.631ZM284.918 197.958L284.649 197.622L281.526 200.121L281.795 200.457L284.918 197.958ZM284.502 200.285L284.722 200.065L281.893 197.237L281.673 197.457L284.502 200.285ZM284.942 199.845L285.162 199.625L282.333 196.797L282.113 197.017L284.942 199.845ZM285.162 196.797L284.69 196.325L281.862 199.154L282.333 199.625L285.162 196.797ZM284.219 195.854L283.748 195.383L280.919 198.211L281.391 198.682L284.219 195.854ZM280.919 195.383L280.751 195.55L283.58 198.379L283.748 198.211L280.919 195.383ZM280.584 195.718L280.416 195.886L283.245 198.714L283.412 198.546L280.584 195.718ZM283.392 196.05L282.313 194.702L279.19 197.201L280.269 198.549L283.392 196.05ZM281.234 193.353L280.155 192.005L277.032 194.503L278.111 195.852L281.234 193.353ZM280.008 194.668L281.004 193.672L278.175 190.844L277.179 191.84L280.008 194.668ZM281.999 192.677L282.995 191.681L280.167 188.852L279.171 189.848L281.999 192.677ZM280.167 191.681L281.38 192.895L284.209 190.066L282.995 188.852L280.167 191.681ZM282.594 194.108L283.808 195.322L286.636 192.494L285.423 191.28L282.594 194.108ZM285.222 195.908H287.148V191.908H285.222V195.908ZM289.074 195.908H291V191.908H289.074V195.908ZM293 193.908V193.241H289V193.908H293ZM293 192.575V191.908H289V192.575H293ZM291 189.908H289.35V193.908H291V189.908ZM287.7 189.908H286.051V193.908H287.7V189.908ZM287.465 190.494L286.446 189.475L283.618 192.304L284.636 193.322L287.465 190.494ZM285.428 188.457L284.409 187.438L281.581 190.267L282.599 191.285L285.428 188.457ZM284.409 190.267L284.66 190.016L281.832 187.187L281.581 187.438L284.409 190.267ZM284.911 189.765L285.162 189.514L282.333 186.686L282.083 186.937L284.911 189.765ZM285.162 186.686L284.69 186.214L281.862 189.043L282.333 189.514L285.162 186.686ZM284.219 185.743L283.748 185.272L280.919 188.1L281.391 188.571L284.219 185.743ZM280.919 185.272L280.672 185.519L283.5 188.347L283.748 188.1L280.919 185.272ZM280.424 185.766L280.177 186.014L283.005 188.842L283.253 188.595L280.424 185.766Z" fill="white" mask="url(#path-209-outside-13_96_71)"/>
<defs>
<clipPath id="clip0_96_71">
<rect width="32" height="32" fill="white" transform="translate(10 10)"/>
</clipPath>
<clipPath id="clip1_96_71">
<rect width="32" height="32" fill="white" transform="translate(10 52)"/>
</clipPath>
<clipPath id="clip2_96_71">
<rect width="32" height="32" fill="white" transform="translate(94 94)"/>
</clipPath>
<clipPath id="clip3_96_71">
<rect width="32" height="32" fill="white" transform="translate(136 136)"/>
</clipPath>
</defs>
</svg>
