<svg width="32" height="32" viewBox="0 0 32 32" fill="none" xmlns="http://www.w3.org/2000/svg">
<circle cx="19.5" cy="5.55556" r="2.55556" fill="white"/>
<path d="M8 6.83337C8 6.83337 14.8389 10.0278 19.5 10.0278C24.1611 10.0278 31 6.83337 31 6.83337" stroke="white" stroke-width="2"/>
<line x1="19.2222" y1="9.38892" x2="19.2222" y2="17.0556" stroke="white" stroke-width="2"/>
<line x1="19.1507" y1="15.4064" x2="24.2618" y2="28.1842" stroke="white" stroke-width="2"/>
<line y1="-1" x2="13.7621" y2="-1" transform="matrix(-0.371391 0.928477 0.928477 0.371391 20.1111 16)" stroke="white" stroke-width="2"/>
<line x1="8.22265" y1="4.58397" x2="12.7226" y2="1.58398" stroke="white"/>
<line x1="11.0528" y1="4.77639" x2="12.5528" y2="1.7764" stroke="white"/>
<line x1="8.5" y1="1.5" x2="13" y2="1.5" stroke="white"/>
<path d="M9.99999 6.5C9.99999 8.98527 7.98527 11 5.5 11C3.01472 11 1 8.98527 1 6.5C1 4.01472 3.01472 2 5.5 2C7.98527 2 9.99999 4.01472 9.99999 6.5ZM3.25 6.5C3.25 7.74264 4.25736 8.74999 5.5 8.74999C6.74264 8.74999 7.74999 7.74264 7.74999 6.5C7.74999 5.25736 6.74264 4.25 5.5 4.25C4.25736 4.25 3.25 5.25736 3.25 6.5Z" fill="white"/>
<circle cx="8" cy="15" r="3" fill="white"/>
<path d="M1.2 17.1833C1.2 17.1833 5.09521 19.0028 7.75 19.0028C10.4048 19.0028 14.3 17.1833 14.3 17.1833" stroke="white" stroke-width="2"/>
<line x1="8.02222" y1="18.6389" x2="8.02222" y2="23.0056" stroke="white" stroke-width="2"/>
<line x1="7.95069" y1="21.9063" x2="10.8618" y2="29.1841" stroke="white" stroke-width="2"/>
<line y1="-1" x2="7.83841" y2="-1" transform="matrix(-0.371391 0.928477 0.928477 0.371391 8.91111 22)" stroke="white" stroke-width="2"/>
</svg>
