<svg width="32" height="32" viewBox="0 0 32 32" fill="none" xmlns="http://www.w3.org/2000/svg">
<path d="M14.4257 8.25928C14.4257 8.25928 15.1496 7.98314 15.4257 8.25928C15.7019 8.53542 15.4257 9.25929 15.4257 9.25929L15.9108 10.638" stroke="white"/>
<path fill-rule="evenodd" clip-rule="evenodd" d="M16.4229 19.5C15.2352 19.5 13.4229 19 13.4229 19V21H14.9229L15.4229 23H17.4229L17.9229 21H19.4229V19C19.4229 19 17.6106 19.5 16.4229 19.5Z" fill="white"/>
<path fill-rule="evenodd" clip-rule="evenodd" d="M18.3485 14.3006C19.0053 13.7503 19.4229 12.9239 19.4229 12C19.4229 10.3431 18.0798 9 16.4229 9C14.7661 9 13.4229 10.3431 13.4229 12C13.4229 12.9239 13.8406 13.7503 14.4974 14.3006C13.2955 14.0795 12.0205 13.7016 10.884 13.3057C10.0109 13.0015 9.24762 12.6969 8.703 12.4685C8.43102 12.3544 8.21442 12.2596 8.0669 12.1939C7.99316 12.1611 7.93674 12.1355 7.89936 12.1185L7.8578 12.0994L7.84815 12.0949L7.84617 12.094L7.84595 12.0939C7.84603 12.0939 7.84613 12.094 7.42292 13C6.99971 13.906 6.99985 13.9061 7.00001 13.9062L7.00042 13.9064L7.00162 13.9069L7.00548 13.9087L7.01897 13.915L7.06847 13.9377C7.11128 13.9572 7.17341 13.9854 7.25314 14.0209C7.41257 14.0919 7.64261 14.1925 7.9294 14.3128C8.5023 14.5531 9.30506 14.8735 10.226 15.1943C11.7431 15.7229 13.6627 16.2823 15.4229 16.4498V18.9335C15.7719 18.9745 16.1133 19 16.4229 19C16.7325 19 17.0739 18.9745 17.4229 18.9335V16.4498C19.1831 16.2823 21.1027 15.7229 22.6198 15.1943C23.5408 14.8735 24.3435 14.5531 24.9164 14.3128C25.2032 14.1925 25.4333 14.0919 25.5927 14.0209C25.6724 13.9854 25.7346 13.9572 25.7774 13.9377L25.8269 13.915L25.8404 13.9087L25.8442 13.9069L25.8454 13.9064L25.8458 13.9062C25.846 13.9061 25.8461 13.906 25.4229 13C24.9997 12.094 24.9998 12.0939 24.9999 12.0939L24.9997 12.094L24.9977 12.0949L24.988 12.0994L24.9465 12.1185C24.9091 12.1355 24.8527 12.1611 24.7789 12.1939C24.6314 12.2596 24.4148 12.3544 24.1428 12.4685C23.5982 12.6969 22.8349 13.0015 21.9619 13.3057C20.8253 13.7016 19.5504 14.0795 18.3485 14.3006ZM18.2514 21.686L17.7562 23.6667H16.8896L19.4229 30L21.2799 29.2572L18.2514 21.686ZM15.9563 23.6667H15.0896L14.5944 21.6861L11.566 29.2572L13.4229 30L15.9563 23.6667Z" fill="white"/>
<line y1="-1" x2="4.90306" y2="-1" transform="matrix(0.97898 0.203954 -0.287348 0.957826 23.2 7)" stroke="white" stroke-width="2"/>
<line y1="-1" x2="9.77569" y2="-1" transform="matrix(0.859338 0.511407 -0.650716 0.759322 14.8 2)" stroke="white" stroke-width="2"/>
<line y1="-1" x2="9.77569" y2="-1" transform="matrix(-0.859338 0.511407 0.650716 0.759322 17.2006 2)" stroke="white" stroke-width="2"/>
<line y1="-1" x2="4.90306" y2="-1" transform="matrix(-0.97898 0.203954 0.287348 0.957826 8.8 7)" stroke="white" stroke-width="2"/>
</svg>
