<svg width="32" height="32" viewBox="0 0 32 32" fill="none" xmlns="http://www.w3.org/2000/svg">
<path fill-rule="evenodd" clip-rule="evenodd" d="M8.4 7.90002C8.4 6.24317 9.74315 4.90002 11.4 4.90002H12.6C14.2569 4.90002 15.6 6.24317 15.6 7.90002V11.5C15.6 12.9514 14.5693 14.1621 13.2 14.44V17H16C18.2091 17 20 18.7909 20 21V30H4V21C4 18.7909 5.79086 17 8 17H10.8V14.44C9.43066 14.1621 8.4 12.9514 8.4 11.5V7.90002Z" fill="white"/>
<rect x="8" y="4" width="8" height="3" fill="white"/>
<rect x="6" y="1" width="12" height="3" rx="1.5" fill="white"/>
<path fill-rule="evenodd" clip-rule="evenodd" d="M22 12C22 11.4477 22.4477 11 23 11H26C26.5523 11 27 11.4477 27 12V17C27 17.5523 26.5523 18 26 18H23C22.4477 18 22 17.5523 22 17V12ZM23.5 16C23.2239 16 23 15.7761 23 15.5V12.5C23 12.2239 23.2239 12 23.5 12C23.7761 12 24 12.2239 24 12.5V15.5C24 15.7761 23.7761 16 23.5 16ZM25.5 12C25.2239 12 25 12.2239 25 12.5V15.5C25 15.7761 25.2239 16 25.5 16C25.7761 16 26 15.7761 26 15.5V12.5C26 12.2239 25.7761 12 25.5 12Z" fill="white"/>
<line x1="24.5" y1="18" x2="24.5" y2="25" stroke="white"/>
<circle cx="24.5" cy="26.5" r="2.5" fill="white"/>
</svg>
