<svg width="32" height="32" viewBox="0 0 32 32" fill="none" xmlns="http://www.w3.org/2000/svg">
<path fill-rule="evenodd" clip-rule="evenodd" d="M13.4 8C13.4 6.34314 14.7431 5 16.4 5H17.6C19.2569 5 20.6 6.34315 20.6 8V11.6C20.6 13.0514 19.5693 14.262 18.2 14.54V17H19C21.2091 17 23 18.7909 23 21V30.2H11V21C11 18.7909 12.7909 17 15 17H15.8V14.54C14.4307 14.262 13.4 13.0514 13.4 11.6V8Z" fill="white"/>
<mask id="path-2-inside-1_64_954" fill="white">
<path fill-rule="evenodd" clip-rule="evenodd" d="M21.4 8C21.4 6.34314 22.7431 5 24.4 5H25.6C27.2569 5 28.6 6.34315 28.6 8V11.6C28.6 13.0514 27.5693 14.262 26.2 14.54V17H27C29.2091 17 31 18.7909 31 21V30.2H19V21C19 18.7909 20.7909 17 23 17H23.8V14.54C22.4307 14.262 21.4 13.0514 21.4 11.6V8Z"/>
</mask>
<path d="M26.2 14.54L25.8021 12.58L24.2 12.9052V14.54H26.2ZM26.2 17H24.2V19H26.2V17ZM31 30.2V32.2H33V30.2H31ZM19 30.2H17V32.2H19V30.2ZM23.8 17V19H25.8V17H23.8ZM23.8 14.54H25.8V12.9052L24.1979 12.58L23.8 14.54ZM24.4 3C21.6386 3 19.4 5.23857 19.4 8H23.4C23.4 7.44772 23.8477 7 24.4 7V3ZM25.6 3H24.4V7H25.6V3ZM30.6 8C30.6 5.23858 28.3614 3 25.6 3V7C26.1523 7 26.6 7.44772 26.6 8H30.6ZM30.6 11.6V8H26.6V11.6H30.6ZM26.5979 16.5C28.8809 16.0366 30.6 14.0213 30.6 11.6H26.6C26.6 12.0815 26.2577 12.4875 25.8021 12.58L26.5979 16.5ZM24.2 14.54V17H28.2V14.54H24.2ZM27 15H26.2V19H27V15ZM33 21C33 17.6863 30.3137 15 27 15V19C28.1046 19 29 19.8954 29 21H33ZM33 30.2V21H29V30.2H33ZM19 32.2H31V28.2H19V32.2ZM17 21V30.2H21V21H17ZM23 15C19.6863 15 17 17.6863 17 21H21C21 19.8954 21.8954 19 23 19V15ZM23.8 15H23V19H23.8V15ZM25.8 17V14.54H21.8V17H25.8ZM19.4 11.6C19.4 14.0213 21.1191 16.0366 23.4021 16.5L24.1979 12.58C23.7423 12.4875 23.4 12.0815 23.4 11.6H19.4ZM19.4 8V11.6H23.4V8H19.4Z" fill="white" mask="url(#path-2-inside-1_64_954)"/>
<mask id="path-4-inside-2_64_954" fill="white">
<path fill-rule="evenodd" clip-rule="evenodd" d="M4.4 8C4.4 6.34314 5.74315 5 7.4 5H8.6C10.2569 5 11.6 6.34315 11.6 8V11.6C11.6 13.0514 10.5693 14.262 9.2 14.54V17H10C12.2091 17 14 18.7909 14 21V30.2H2V21C2 18.7909 3.79086 17 6 17H6.8V14.54C5.43066 14.262 4.4 13.0514 4.4 11.6V8Z"/>
</mask>
<path d="M9.2 14.54L8.80214 12.58L7.2 12.9052V14.54H9.2ZM9.2 17H7.2V19H9.2V17ZM14 30.2V32.2H16V30.2H14ZM2 30.2H0V32.2H2V30.2ZM6.8 17V19H8.8V17H6.8ZM6.8 14.54H8.8V12.9052L7.19787 12.58L6.8 14.54ZM7.4 3C4.63858 3 2.4 5.23857 2.4 8H6.4C6.4 7.44772 6.84771 7 7.4 7V3ZM8.6 3H7.4V7H8.6V3ZM13.6 8C13.6 5.23858 11.3614 3 8.6 3V7C9.15229 7 9.6 7.44772 9.6 8H13.6ZM13.6 11.6V8H9.6V11.6H13.6ZM9.59787 16.5C11.8809 16.0366 13.6 14.0213 13.6 11.6H9.6C9.6 12.0815 9.25775 12.4875 8.80214 12.58L9.59787 16.5ZM7.2 14.54V17H11.2V14.54H7.2ZM10 15H9.2V19H10V15ZM16 21C16 17.6863 13.3137 15 10 15V19C11.1046 19 12 19.8954 12 21H16ZM16 30.2V21H12V30.2H16ZM2 32.2H14V28.2H2V32.2ZM0 21V30.2H4V21H0ZM6 15C2.68629 15 0 17.6863 0 21H4C4 19.8954 4.89543 19 6 19V15ZM6.8 15H6V19H6.8V15ZM8.8 17V14.54H4.8V17H8.8ZM2.4 11.6C2.4 14.0213 4.11906 16.0366 6.40213 16.5L7.19787 12.58C6.74226 12.4875 6.4 12.0815 6.4 11.6H2.4ZM2.4 8V11.6H6.4V8H2.4Z" fill="white" mask="url(#path-4-inside-2_64_954)"/>
</svg>
