<svg width="32" height="32" viewBox="0 0 32 32" fill="none" xmlns="http://www.w3.org/2000/svg">
<path fill-rule="evenodd" clip-rule="evenodd" d="M8.75 22.3576C7.7835 24.0316 8.35707 26.1722 10.0311 27.1387L16.2788 30.7458L17.0413 27.7002L15.3162 28.2752L15 27.3265L17.3292 26.5501L17.7942 24.6925L18.7643 24.9354L18.2376 27.0393L18.3162 27.2752L18.166 27.3253L17.2129 31.1325C18.007 31.2582 18.8323 30.8945 19.2583 30.1566L20.7583 27.5585C21.3106 26.602 20.9829 25.3788 20.0263 24.8265L13.5311 21.0765C11.8571 20.11 9.7165 20.6836 8.75 22.3576ZM14.8122 25.8576C15.5025 24.6619 15.0928 23.1329 13.8971 22.4425C12.7014 21.7522 11.1724 22.1619 10.4821 23.3576C9.79169 24.5533 10.2014 26.0823 11.3971 26.7726C12.5928 27.463 14.1218 27.0533 14.8122 25.8576Z" fill="white"/>
<path fill-rule="evenodd" clip-rule="evenodd" d="M17.8978 6.41355C16.2974 6.84237 15.3476 8.48738 15.7765 10.0878L16.7082 13.5651C17.085 14.9713 18.4006 15.8751 19.8 15.783V17.3265H19C17.067 17.3265 15.4542 18.6977 15.0812 20.5205L21.5221 24.2392C22.4787 24.7915 22.8065 26.0146 22.2542 26.9712L20.2015 30.5265H27V21.3265C27 19.1174 25.2091 17.3265 23 17.3265H22.2V15.1134C23.3904 14.4666 24.029 13.0678 23.6629 11.7016L22.7311 8.22429C22.3023 6.62389 20.6573 5.67414 19.0569 6.10297L17.8978 6.41355ZM15.2878 30.5265L15 30.3604V30.5265H15.2878Z" fill="white"/>
<line x1="12.3536" y1="22.973" x2="13.3536" y2="23.973" stroke="white"/>
<line x1="11.3536" y1="23.973" x2="12.3536" y2="24.973" stroke="white"/>
<line x1="8.22265" y1="8.58397" x2="12.7226" y2="5.58398" stroke="white"/>
<line x1="11.0528" y1="8.77639" x2="12.5528" y2="5.7764" stroke="white"/>
<line x1="8.5" y1="5.5" x2="13" y2="5.5" stroke="white"/>
<path d="M9.99999 10.5C9.99999 12.9853 7.98527 15 5.5 15C3.01472 15 1 12.9853 1 10.5C1 8.01472 3.01472 6 5.5 6C7.98527 6 9.99999 8.01472 9.99999 10.5ZM3.25 10.5C3.25 11.7426 4.25736 12.75 5.5 12.75C6.74264 12.75 7.74999 11.7426 7.74999 10.5C7.74999 9.25736 6.74264 8.25 5.5 8.25C4.25736 8.25 3.25 9.25736 3.25 10.5Z" fill="white"/>
</svg>
