<svg width="32" height="32" viewBox="0 0 32 32" fill="none" xmlns="http://www.w3.org/2000/svg">
<path fill-rule="evenodd" clip-rule="evenodd" d="M8.4 7.90002C8.4 6.24317 9.74315 4.90002 11.4 4.90002H12.6C14.2569 4.90002 15.6 6.24317 15.6 7.90002V11.5C15.6 12.9514 14.5693 14.1621 13.2 14.44V17H16C18.2091 17 20 18.7909 20 21V30H4V21C4 18.7909 5.79086 17 8 17H10.8V14.44C9.43066 14.1621 8.4 12.9514 8.4 11.5V7.90002Z" fill="white"/>
<line x1="30.4815" y1="11.2893" x2="21.4815" y2="11.2893" stroke="white"/>
<line x1="25.9929" y1="11.7669" x2="26.1678" y2="2.52421" stroke="white"/>
<line x1="30.1098" y1="11.7782" x2="30.2847" y2="3.89497" stroke="white"/>
<line x1="21.8759" y1="11.7524" x2="22.0508" y2="3.89496" stroke="white"/>
<rect x="26.942" y="29.8634" width="2" height="19" transform="rotate(180 26.942 29.8634)" fill="white"/>
<circle cx="25.5" cy="24.5" r="2.5" fill="white"/>
<path fill-rule="evenodd" clip-rule="evenodd" d="M16.4148 3.43133C17.3039 3.19309 18.2178 3.72073 18.4561 4.60984L18.6717 5.41478L18.8011 5.89774C19.087 6.96467 18.4539 8.06134 17.3869 8.34723L15.2941 8.908L14.4314 5.68825L16.8462 5.0412L16.4148 3.43133Z" fill="white"/>
<path fill-rule="evenodd" clip-rule="evenodd" d="M5.51764 5.89774C5.23175 6.96467 5.86492 8.06134 6.93185 8.34723L9.02469 8.908L9.88742 5.68825L7.47261 5.0412L7.90397 3.43133C7.01486 3.19309 6.10097 3.72073 5.86273 4.60984L5.64705 5.41478L5.51764 5.89774Z" fill="white"/>
</svg>
