<svg width="32" height="32" viewBox="0 0 32 32" fill="none" xmlns="http://www.w3.org/2000/svg">
<path fill-rule="evenodd" clip-rule="evenodd" d="M12.2945 8.6886H19.4945V11.497C19.4945 13.1539 18.1514 14.497 16.4945 14.497H15.2945C13.6376 14.497 12.2945 13.1539 12.2945 11.497V8.6886ZM13.3542 17C13.2918 17.0551 13.2308 17.1123 13.1716 17.1716C12.4214 17.9217 12 18.9391 12 20H11C11 18.9772 11.3134 17.9867 11.887 17.1569C10.2194 17.639 9 19.1771 9 21V30H23V21C23 19.1771 21.7806 17.639 20.113 17.1569C20.5259 17.7542 20.804 18.4348 20.9274 19.1507C21.8765 19.4961 22.4311 20.5096 22.1821 21.5118L21.6999 23.4528C21.4335 24.5247 20.3486 25.1778 19.2766 24.9115C19.8126 25.0446 20.463 24.2836 20.7294 23.2116L21.2116 21.2706C21.3448 20.7347 21.0183 20.1922 20.4823 20.059C19.9463 19.9258 19.4038 20.2524 19.2706 20.7884L18.7884 22.7294C18.522 23.8013 18.7406 24.7783 19.2766 24.9115C18.2046 24.6451 17.5515 23.5602 17.8179 22.4882L18.3002 20.5472C18.4963 19.7579 19.1363 19.1956 19.8881 19.0604C19.7167 18.3511 19.3529 17.696 18.8284 17.1716C18.7692 17.1123 18.7082 17.0551 18.6458 17H13.3542ZM13 21.5C13 22.3284 12.3284 23 11.5 23C10.6716 23 10 22.3284 10 21.5C10 20.6716 10.6716 20 11.5 20C12.3284 20 13 20.6716 13 21.5Z" fill="white"/>
<rect x="14.8" y="12.1" width="2.4" height="6" fill="white"/>
<path fill-rule="evenodd" clip-rule="evenodd" d="M12 1H20V9H12V1ZM15 2H17V4H19V6H17V8H15V6H13V4H15V2Z" fill="white"/>
</svg>
