<svg width="32" height="32" viewBox="0 0 32 32" fill="none" xmlns="http://www.w3.org/2000/svg">
<path fill-rule="evenodd" clip-rule="evenodd" d="M8.4 11C8.4 9.34314 9.74315 8 11.4 8H12.6C14.2569 8 15.6 9.34315 15.6 11V14.6C15.6 16.0514 14.5693 17.262 13.2 17.54V20H14C16.2091 20 18 21.7909 18 24V31H6V24C6 21.7909 7.79086 20 10 20H10.8V17.54C9.43066 17.262 8.4 16.0514 8.4 14.6V11Z" fill="white"/>
<mask id="path-2-inside-1_38_23" fill="white">
<path fill-rule="evenodd" clip-rule="evenodd" d="M16.4 11C16.4 9.34314 17.7431 8 19.4 8H20.6C22.2569 8 23.6 9.34315 23.6 11V14.6C23.6 16.0514 22.5693 17.262 21.2 17.54V20H22C24.2091 20 26 21.7909 26 24V29H14V24C14 21.7909 15.7909 20 18 20H18.8V17.54C17.4307 17.262 16.4 16.0514 16.4 14.6V11Z"/>
</mask>
<path d="M21.2 17.54L20.8021 15.58L19.2 15.9052V17.54H21.2ZM21.2 20H19.2V22H21.2V20ZM26 29V31H28V29H26ZM14 29H12V31H14V29ZM18.8 20V22H20.8V20H18.8ZM18.8 17.54H20.8V15.9052L19.1979 15.58L18.8 17.54ZM19.4 6C16.6386 6 14.4 8.23857 14.4 11H18.4C18.4 10.4477 18.8477 10 19.4 10V6ZM20.6 6H19.4V10H20.6V6ZM25.6 11C25.6 8.23858 23.3614 6 20.6 6V10C21.1523 10 21.6 10.4477 21.6 11H25.6ZM25.6 14.6V11H21.6V14.6H25.6ZM21.5979 19.5C23.8809 19.0366 25.6 17.0213 25.6 14.6H21.6C21.6 15.0815 21.2577 15.4875 20.8021 15.58L21.5979 19.5ZM19.2 17.54V20H23.2V17.54H19.2ZM22 18H21.2V22H22V18ZM28 24C28 20.6863 25.3137 18 22 18V22C23.1046 22 24 22.8954 24 24H28ZM28 29V24H24V29H28ZM14 31H26V27H14V31ZM12 24V29H16V24H12ZM18 18C14.6863 18 12 20.6863 12 24H16C16 22.8954 16.8954 22 18 22V18ZM18.8 18H18V22H18.8V18ZM20.8 20V17.54H16.8V20H20.8ZM14.4 14.6C14.4 17.0213 16.1191 19.0366 18.4021 19.5L19.1979 15.58C18.7423 15.4875 18.4 15.0815 18.4 14.6H14.4ZM14.4 11V14.6H18.4V11H14.4Z" fill="white" mask="url(#path-2-inside-1_38_23)"/>
<line y1="-1" x2="4.90306" y2="-1" transform="matrix(0.97898 0.203954 -0.287348 0.957826 23.2 7)" stroke="white" stroke-width="2"/>
<line y1="-1" x2="9.77569" y2="-1" transform="matrix(0.859338 0.511407 -0.650716 0.759322 14.8 2)" stroke="white" stroke-width="2"/>
<line y1="-1" x2="9.77569" y2="-1" transform="matrix(-0.859338 0.511407 0.650716 0.759322 17.2006 2)" stroke="white" stroke-width="2"/>
<line y1="-1" x2="4.90306" y2="-1" transform="matrix(-0.97898 0.203954 0.287348 0.957826 8.8 7)" stroke="white" stroke-width="2"/>
</svg>
