<svg width="32" height="32" viewBox="0 0 32 32" fill="none" xmlns="http://www.w3.org/2000/svg">
<path fill-rule="evenodd" clip-rule="evenodd" d="M8.4 7.90002C8.4 6.24317 9.74315 4.90002 11.4 4.90002H12.6C14.2569 4.90002 15.6 6.24317 15.6 7.90002V11.5C15.6 12.9514 14.5693 14.1621 13.2 14.44V17H16C18.2091 17 20 18.7909 20 21V30H4V21C4 18.7909 5.79086 17 8 17H10.8V14.44C9.43066 14.1621 8.4 12.9514 8.4 11.5V7.90002Z" fill="white"/>
<ellipse cx="12" cy="7" rx="9" ry="3" fill="white"/>
<rect x="8" y="2" width="8" height="4" rx="2" fill="white"/>
<line x1="30.4815" y1="11.2893" x2="21.4815" y2="11.2893" stroke="white"/>
<line x1="25.9929" y1="11.7669" x2="26.1678" y2="2.52421" stroke="white"/>
<line x1="30.1098" y1="11.7782" x2="30.2847" y2="3.89497" stroke="white"/>
<line x1="21.8759" y1="11.7524" x2="22.0508" y2="3.89496" stroke="white"/>
<rect x="26.942" y="29.8634" width="2" height="19" transform="rotate(180 26.942 29.8634)" fill="white"/>
<circle cx="25.5" cy="24.5" r="2.5" fill="white"/>
</svg>
