<svg width="32" height="32" viewBox="0 0 32 32" fill="none" xmlns="http://www.w3.org/2000/svg">
<path fill-rule="evenodd" clip-rule="evenodd" d="M9.4 8C9.4 6.34314 10.7431 5 12.4 5H13.6C15.2569 5 16.6 6.34315 16.6 8V11.6C16.6 13.0514 15.5693 14.262 14.2 14.54V17H15C17.2091 17 19 18.7909 19 21V30.2H7V24.9725C7.16417 24.9907 7.331 25 7.5 25C9.98528 25 12 22.9853 12 20.5C12 19.1129 11.3724 17.8724 10.3857 17.0469C10.5859 17.016 10.7911 17 11 17H11.8V14.54C10.4307 14.262 9.4 13.0514 9.4 11.6V8Z" fill="white"/>
<mask id="path-2-inside-1_130_2" fill="white">
<path fill-rule="evenodd" clip-rule="evenodd" d="M17.4 8C17.4 6.34314 18.7431 5 20.4 5H21.6C23.2569 5 24.6 6.34315 24.6 8V11.6C24.6 13.0514 23.5693 14.262 22.2 14.54V17H23C25.2091 17 27 18.7909 27 21V30.2H15V21C15 18.7909 16.7909 17 19 17H19.8V14.54C18.4307 14.262 17.4 13.0514 17.4 11.6V8Z"/>
</mask>
<path d="M22.2 14.54L21.8021 12.58L20.2 12.9052V14.54H22.2ZM22.2 17H20.2V19H22.2V17ZM27 30.2V32.2H29V30.2H27ZM15 30.2H13V32.2H15V30.2ZM19.8 17V19H21.8V17H19.8ZM19.8 14.54H21.8V12.9052L20.1979 12.58L19.8 14.54ZM20.4 3C17.6386 3 15.4 5.23857 15.4 8H19.4C19.4 7.44772 19.8477 7 20.4 7V3ZM21.6 3H20.4V7H21.6V3ZM26.6 8C26.6 5.23858 24.3614 3 21.6 3V7C22.1523 7 22.6 7.44772 22.6 8H26.6ZM26.6 11.6V8H22.6V11.6H26.6ZM22.5979 16.5C24.8809 16.0366 26.6 14.0213 26.6 11.6H22.6C22.6 12.0815 22.2577 12.4875 21.8021 12.58L22.5979 16.5ZM20.2 14.54V17H24.2V14.54H20.2ZM23 15H22.2V19H23V15ZM29 21C29 17.6863 26.3137 15 23 15V19C24.1046 19 25 19.8954 25 21H29ZM29 30.2V21H25V30.2H29ZM15 32.2H27V28.2H15V32.2ZM13 21V30.2H17V21H13ZM19 15C15.6863 15 13 17.6863 13 21H17C17 19.8954 17.8954 19 19 19V15ZM19.8 15H19V19H19.8V15ZM21.8 17V14.54H17.8V17H21.8ZM15.4 11.6C15.4 14.0213 17.1191 16.0366 19.4021 16.5L20.1979 12.58C19.7423 12.4875 19.4 12.0815 19.4 11.6H15.4ZM15.4 8V11.6H19.4V8H15.4Z" fill="white" mask="url(#path-2-inside-1_130_2)"/>
<circle cx="7.5" cy="20.5" r="3" stroke="white"/>
</svg>
