<svg width="32" height="32" viewBox="0 0 32 32" fill="none" xmlns="http://www.w3.org/2000/svg">
<circle cx="19.5" cy="5.55556" r="2.55556" fill="white"/>
<path d="M8 6.83337C8 6.83337 14.8389 10.0278 19.5 10.0278C24.1611 10.0278 31 6.83337 31 6.83337" stroke="white" stroke-width="2"/>
<line x1="19.2222" y1="9.38892" x2="19.2222" y2="17.0556" stroke="white" stroke-width="2"/>
<line x1="19.1507" y1="15.4064" x2="24.2618" y2="28.1842" stroke="white" stroke-width="2"/>
<line y1="-1" x2="13.7621" y2="-1" transform="matrix(-0.371391 0.928477 0.928477 0.371391 20.1111 16)" stroke="white" stroke-width="2"/>
<mask id="path-6-inside-1_38_107" fill="white">
<path d="M8 4C8 6.20914 6.20914 8 4 8C1.79086 8 0 6.20914 0 4C0 1.79086 1.79086 0 4 0C6.20914 0 8 1.79086 8 4ZM2 4C2 5.10457 2.89543 6 4 6C5.10457 6 6 5.10457 6 4C6 2.89543 5.10457 2 4 2C2.89543 2 2 2.89543 2 4Z"/>
</mask>
<path d="M8 4C8 6.20914 6.20914 8 4 8C1.79086 8 0 6.20914 0 4C0 1.79086 1.79086 0 4 0C6.20914 0 8 1.79086 8 4ZM2 4C2 5.10457 2.89543 6 4 6C5.10457 6 6 5.10457 6 4C6 2.89543 5.10457 2 4 2C2.89543 2 2 2.89543 2 4Z" fill="white" stroke="white" stroke-width="2" mask="url(#path-6-inside-1_38_107)"/>
<line x1="4" y1="7.66663" x2="4" y2="12.6666" stroke="white" stroke-width="2"/>
<line x1="1.33333" y1="10" x2="6.66666" y2="10" stroke="white" stroke-width="2"/>
<circle cx="8" cy="15" r="3" fill="white"/>
<path d="M1.2 17.1833C1.2 17.1833 5.09521 19.0028 7.75 19.0028C10.4048 19.0028 14.3 17.1833 14.3 17.1833" stroke="white" stroke-width="2"/>
<line x1="8.02222" y1="18.6389" x2="8.02222" y2="23.0056" stroke="white" stroke-width="2"/>
<line x1="7.95069" y1="21.9063" x2="10.8618" y2="29.1841" stroke="white" stroke-width="2"/>
<line y1="-1" x2="7.83841" y2="-1" transform="matrix(-0.371391 0.928477 0.928477 0.371391 8.91111 22)" stroke="white" stroke-width="2"/>
</svg>
