<svg width="32" height="32" viewBox="0 0 32 32" fill="none" xmlns="http://www.w3.org/2000/svg">
<path fill-rule="evenodd" clip-rule="evenodd" d="M12.625 10.75V13.25C12.625 13.3174 12.6283 13.3839 12.6348 13.4496C12.6947 14.0539 13.0236 14.5791 13.5 14.9038C13.8205 15.1223 14.2078 15.25 14.625 15.25H17.375C17.7922 15.25 18.1795 15.1223 18.5 14.9038C18.9764 14.5791 19.3053 14.0539 19.3652 13.4496C19.3717 13.3839 19.375 13.3174 19.375 13.25V10.75H12.625ZM15.625 25.1739V23.2986L14.5 22.7504V19.375H17.5V22.7504L16.375 23.2986V25.1739V29.3125H16H15.625V25.1739ZM15.625 29.3125H14.3125H13C13 28.5876 13.5876 28 14.3125 28C15.0374 28 15.625 28.5876 15.625 29.3125ZM16.375 29.3125C16.375 28.5876 16.9626 28 17.6875 28C18.4124 28 19 28.5876 19 29.3125H17.6875H16.375ZM14.3125 31C15.2445 31 16 30.2445 16 29.3125C16 30.2445 16.7555 31 17.6875 31C18.1306 31 18.5339 30.8292 18.835 30.5498C19.1671 30.2417 19.375 29.8014 19.375 29.3125V25.1739C19.3861 25.1685 19.3972 25.163 19.4082 25.1574C20.0562 24.8265 20.5 24.1526 20.5 23.375V22.5625V19.1875V18.375C20.5 18.0044 20.3992 17.6574 20.2235 17.3598C20.0306 17.033 19.7474 16.7658 19.4082 16.5926C19.1356 16.4535 18.827 16.375 18.5 16.375H17.375H14.625H13.5C13.173 16.375 12.8644 16.4535 12.5918 16.5926C12.2526 16.7658 11.9694 17.033 11.7765 17.3598C11.6008 17.6574 11.5 18.0044 11.5 18.375V19.1875V22.5625V23.375C11.5 24.1526 11.9438 24.8265 12.5918 25.1574C12.6028 25.163 12.6139 25.1685 12.625 25.1739V29.3125C12.625 29.8014 12.8329 30.2417 13.165 30.5498C13.4661 30.8292 13.8694 31 14.3125 31ZM25 22.5625C25 23.4569 24.3042 24.1888 23.4243 24.2464C23.3873 24.2488 23.3501 24.25 23.3125 24.25C22.6751 24.25 22.1202 23.8966 21.8331 23.375C21.7005 23.134 21.625 22.8571 21.625 22.5625V19.1875C21.625 18.8929 21.7005 18.616 21.8331 18.375C22.1202 17.8534 22.6751 17.5 23.3125 17.5C23.3501 17.5 23.3874 17.5012 23.4243 17.5036C24.3042 17.5612 25 18.2931 25 19.1875V22.5625ZM7 19.1875C7 18.2931 7.69582 17.5612 8.57566 17.5036C8.61263 17.5012 8.64992 17.5 8.6875 17.5C9.32493 17.5 9.87981 17.8534 10.1669 18.375C10.2995 18.616 10.375 18.8929 10.375 19.1875V22.5625C10.375 22.8571 10.2995 23.134 10.1669 23.375C9.87981 23.8966 9.32493 24.25 8.6875 24.25C8.64993 24.25 8.61265 24.2488 8.5757 24.2464C7.69584 24.1888 7 23.4569 7 22.5625V19.1875ZM15.625 12.25V11.5H16.375V12.25H15.625Z" fill="white"/>
<path d="M14.5365 5.27881L20.1308 2.91087L18.8434 6.39828L18.7691 6.59964L18.8639 6.79223L20.1966 9.5H12.5887L13.0302 6.80905L14.5365 5.27881Z" stroke="white"/>
</svg>
