<svg width="32" height="32" viewBox="0 0 32 32" fill="none" xmlns="http://www.w3.org/2000/svg">
<path d="M8 11.8063L11 13.5383L11 10.0742L8 11.8063Z" fill="white"/>
<path d="M25 11.8063L22 13.5383L22 10.0742L25 11.8063Z" fill="white"/>
<path fill-rule="evenodd" clip-rule="evenodd" d="M15.225 7C13.5681 7 12.225 8.34315 12.225 10V15.4C12.225 17.0066 13.4878 18.3182 15.075 18.3963V21H14C11.7909 21 10 22.7909 10 25V31H23V25C23 22.7909 21.2091 21 19 21H17.925V18.3963C19.5122 18.3182 20.775 17.0066 20.775 15.4V10C20.775 8.34315 19.4318 7 17.775 7H15.225ZM19.1719 16.3005V13.9255L16.5 11.8687L16.5 15.9823L17.9844 15.113L19.1719 16.3005ZM14.125 10.0874C14.125 9.7595 14.3908 9.49367 14.7188 9.49367C15.0467 9.49367 15.3125 9.7595 15.3125 10.0874V11.2749C15.3125 11.6028 15.0467 11.8687 14.7188 11.8687C14.3908 11.8687 14.125 11.6028 14.125 11.2749V10.0874ZM18.2812 9.49367C17.9533 9.49367 17.6875 9.7595 17.6875 10.0874V11.2749C17.6875 11.6028 17.9533 11.8687 18.2812 11.8687C18.6092 11.8687 18.875 11.6028 18.875 11.2749V10.0874C18.875 9.7595 18.6092 9.49367 18.2812 9.49367Z" fill="white"/>
</svg>
