<svg width="32" height="32" viewBox="0 0 32 32" fill="none" xmlns="http://www.w3.org/2000/svg">
<path fill-rule="evenodd" clip-rule="evenodd" d="M10.3333 22C8.67648 22 7.33333 23.3431 7.33333 25V26.4706H6C4.34315 26.4706 3 27.8137 3 29.4706V31H28.9165C28.599 29.6838 27.4137 28.7059 26 28.7059H25.75V26.1176C25.75 24.4608 24.4069 23.1176 22.75 23.1176H20.0833C18.6908 23.1176 17.5198 24.0665 17.1817 25.3529H16V25C16 23.3431 14.6569 22 13 22H10.3333Z" fill="white"/>
<path fill-rule="evenodd" clip-rule="evenodd" d="M14.7082 6.50607C14.7082 4.96418 15.9581 3.71423 17.5 3.71423C19.0419 3.71423 20.2919 4.96418 20.2919 6.50607V8.36729C20.2919 9.58289 19.515 10.617 18.4306 11.0003V12.9999H19C21.2092 12.9999 23 14.7908 23 16.9999V20.9999H12V16.9999C12 14.7908 13.7909 12.9999 16 12.9999H16.5694V11.0003C15.4851 10.617 14.7082 9.58286 14.7082 8.36729V6.50607Z" fill="white"/>
<path d="M22.7436 7.83359C22.9591 7.02929 22.9867 6.18619 22.8243 5.36951C22.6618 4.55283 22.3137 3.78447 21.8068 3.12387C21.2999 2.46326 20.6478 1.92812 19.901 1.55983C19.1542 1.19155 18.3327 1 17.5 1C16.6673 1 15.8458 1.19155 15.099 1.55983C14.3522 1.92812 13.7001 2.46326 13.1932 3.12387C12.6863 3.78447 12.3382 4.55283 12.1757 5.36951C12.0133 6.18618 12.0409 7.02928 12.2564 7.83359L14.3538 7.27158C14.2245 6.789 14.208 6.28314 14.3054 5.79313C14.4029 5.30313 14.6118 4.84211 14.9159 4.44575C15.2201 4.04938 15.6113 3.7283 16.0594 3.50733C16.5075 3.28636 17.0004 3.17143 17.5 3.17143C17.9996 3.17143 18.4925 3.28636 18.9406 3.50733C19.3887 3.7283 19.7799 4.04938 20.0841 4.44575C20.3882 4.84211 20.5971 5.30313 20.6946 5.79313C20.792 6.28314 20.7755 6.789 20.6462 7.27158L22.7436 7.83359Z" fill="white"/>
<line x1="10.6291" y1="20.4121" x2="7.91486" y2="10.9121" stroke="white" stroke-width="3"/>
<line x1="11.5971" y1="20.1581" x2="7.52566" y2="7.94383" stroke="white"/>
<line y1="-1.5" x2="9.88015" y2="-1.5" transform="matrix(0.274721 -0.961524 -0.961524 -0.274721 22.9286 20)" stroke="white" stroke-width="3"/>
<line y1="-0.5" x2="12.875" y2="-0.5" transform="matrix(0.316228 -0.948683 -0.948683 -0.316228 22.9286 20)" stroke="white"/>
</svg>
