<svg width="32" height="32" viewBox="0 0 32 32" fill="none" xmlns="http://www.w3.org/2000/svg">
<g clip-path="url(#clip0_423_54)">
<path fill-rule="evenodd" clip-rule="evenodd" d="M8.4 7.90002C8.4 6.24317 9.74315 4.90002 11.4 4.90002H12.6C14.2569 4.90002 15.6 6.24317 15.6 7.90002V11.5C15.6 12.9514 14.5693 14.1621 13.2 14.44V17H16C18.2091 17 20 18.7909 20 21V30H4V21C4 18.7909 5.79086 17 8 17H10.8V14.44C9.43066 14.1621 8.4 12.9514 8.4 11.5V7.90002Z" fill="white"/>
<circle cx="26.5" cy="27.5" r="2.5" fill="white"/>
<path fill-rule="evenodd" clip-rule="evenodd" d="M16 4H8V7V8H16H19V7H16V4Z" fill="white"/>
<line x1="26.3148" y1="13.984" x2="26.5" y2="27.9934" stroke="white"/>
<path fill-rule="evenodd" clip-rule="evenodd" d="M24.5669 18.2897L27.8729 18.2897L26.8518 15.51C27.1712 15.4679 27.5046 15.3944 27.8729 15.2897C31.0003 14.4002 31.1788 8.28969 31.1788 8.28969C31.1788 8.28969 28.1932 7.29399 26.2168 7.29447C24.2428 7.29495 21.261 8.28969 21.261 8.28969C21.261 8.28969 21.4395 14.4002 24.567 15.2897C24.9352 15.3944 25.2686 15.4679 25.588 15.51L24.5669 18.2897Z" fill="white"/>
</g>
<defs>
<clipPath id="clip0_423_54">
<rect width="32" height="32" fill="white"/>
</clipPath>
</defs>
</svg>
