<svg width="32" height="32" viewBox="0 0 32 32" fill="none" xmlns="http://www.w3.org/2000/svg">
<path fill-rule="evenodd" clip-rule="evenodd" d="M16.4 8C16.4 6.34314 17.7431 5 19.4 5H20.6C22.2569 5 23.6 6.34315 23.6 8V11.6C23.6 13.0514 22.5693 14.262 21.2 14.54V17H22C24.2091 17 26 18.7909 26 21V30.2H14V21C14 18.7909 15.7909 17 18 17H18.8V14.54C17.4307 14.262 16.4 13.0514 16.4 11.6V8Z" fill="white"/>
<line x1="8.22267" y1="14.084" x2="12.7227" y2="11.084" stroke="white"/>
<line x1="11.0528" y1="14.2764" x2="12.5528" y2="11.2764" stroke="white"/>
<line x1="8.50002" y1="11" x2="13" y2="11" stroke="white"/>
<path d="M10 16C10 18.4853 7.98529 20.5 5.50001 20.5C3.01473 20.5 1.00002 18.4853 1.00002 16C1.00002 13.5147 3.01473 11.5 5.50001 11.5C7.98529 11.5 10 13.5147 10 16ZM3.25001 16C3.25001 17.2426 4.25737 18.25 5.50001 18.25C6.74265 18.25 7.75001 17.2426 7.75001 16C7.75001 14.7574 6.74265 13.75 5.50001 13.75C4.25737 13.75 3.25001 14.7574 3.25001 16Z" fill="white"/>
</svg>
