<svg width="32" height="32" viewBox="0 0 32 32" fill="none" xmlns="http://www.w3.org/2000/svg">
<path d="M12 0.714286L14 2.85714H14.6667L16 0L17.3333 2.85714H18L20 0.714286V5H12V0.714286Z" fill="white"/>
<path d="M18.5 16L26 16.5L30.5 26.5L20 29L18.5 16Z" fill="white"/>
<path d="M13.5 16L6 16.5L1.5 26.5L12 29L13.5 16Z" fill="white"/>
<path fill-rule="evenodd" clip-rule="evenodd" d="M13.0782 6C12.6544 6.51736 12.4 7.17897 12.4 7.89999V11.5C12.4 12.9514 13.4307 14.162 14.8 14.44V16.9H14C13.966 16.9 13.9321 16.9004 13.8984 16.9013L12.4211 30L10 29.3808V30.1H22V29.3808L19.5789 30L18.1016 16.9013C18.0679 16.9004 18.034 16.9 18 16.9H17.2V14.44C18.5693 14.162 19.6 12.9514 19.6 11.5V7.89999C19.6 7.17897 19.3456 6.51736 18.9218 6H13.0782Z" fill="white"/>
</svg>
