<svg width="32" height="32" viewBox="0 0 32 32" fill="none" xmlns="http://www.w3.org/2000/svg">
<path fill-rule="evenodd" clip-rule="evenodd" d="M11 8C11 6.34315 12.3431 5 14 5H18C19.6569 5 21 6.34315 21 8V12C21 13.6569 19.6569 15 18 15V17H20C22.2091 17 24 18.7909 24 21V30H8V21C8 18.7909 9.79086 17 12 17H14V15C12.3431 15 11 13.6569 11 12V8ZM19 9L19.866 12H19V13H13V12H12.134L13 9L13.866 12H18.134L19 9Z" fill="white"/>
<path d="M24 10L21.75 11.7321L21.75 8.26795L24 10Z" fill="white"/>
<path d="M8 10L10.25 11.7321L10.25 8.26795L8 10Z" fill="white"/>
</svg>
