<svg width="32" height="32" viewBox="0 0 32 32" fill="none" xmlns="http://www.w3.org/2000/svg">
<path fill-rule="evenodd" clip-rule="evenodd" d="M5.75 22.031C4.7835 23.7051 5.35707 25.8456 7.03109 26.8121L13.2788 30.4193L14.0413 27.3736L12.3162 27.9487L12 27L14.3292 26.2236L14.7942 24.366L15.7643 24.6088L15.2376 26.7128L15.3162 26.9487L15.166 26.9987L14.2129 30.8059C15.007 30.9317 15.8323 30.568 16.2583 29.8301L17.7583 27.232C18.3106 26.2754 17.9829 25.0522 17.0263 24.5L10.5311 20.75C8.85706 19.7835 6.7165 20.357 5.75 22.031ZM11.8122 25.531C12.5025 24.3353 12.0928 22.8063 10.8971 22.116C9.70138 21.4256 8.17241 21.8353 7.48205 23.031C6.79169 24.2268 7.20138 25.7558 8.39711 26.4461C9.59285 27.1365 11.1218 26.7268 11.8122 25.531Z" fill="white"/>
<path fill-rule="evenodd" clip-rule="evenodd" d="M14.8978 6.08701C13.2974 6.51584 12.3476 8.16085 12.7765 9.76124L13.7082 13.2386C14.085 14.6447 15.4006 15.5486 16.8 15.4564V17H15C13.2471 17 11.7575 18.1275 11.217 19.697C11.2489 19.7141 11.2806 19.7318 11.3122 19.75L18.5221 23.9126C19.4787 24.4649 19.8065 25.6881 19.2542 26.6447L17.317 30H25V21C25 18.7908 23.2091 17 21 17H19.2V14.7869C20.3904 14.14 21.029 12.7413 20.6629 11.3751L19.7311 7.89775C19.3023 6.29735 17.6573 5.3476 16.0569 5.77643L14.8978 6.08701ZM11.9413 30L11 29.4565V30H11.9413Z" fill="white"/>
<line x1="9.35355" y1="22.6464" x2="10.3536" y2="23.6464" stroke="white"/>
<line x1="8.35355" y1="23.6464" x2="9.35355" y2="24.6464" stroke="white"/>
</svg>
