<svg width="32" height="32" viewBox="0 0 32 32" fill="none" xmlns="http://www.w3.org/2000/svg">
<path fill-rule="evenodd" clip-rule="evenodd" d="M8.4 8C8.4 6.34314 9.74315 5 11.4 5H12.6C14.2569 5 15.6 6.34315 15.6 8V11.6C15.6 13.0514 14.5693 14.262 13.2 14.54V17H14C16.2091 17 18 18.7909 18 21V30.2H6V21C6 18.7909 7.79086 17 10 17H10.8V14.54C9.43066 14.262 8.4 13.0514 8.4 11.6V8Z" fill="white"/>
<mask id="path-2-inside-1_29_201" fill="white">
<path fill-rule="evenodd" clip-rule="evenodd" d="M16.4 8C16.4 6.34314 17.7431 5 19.4 5H20.6C22.2569 5 23.6 6.34315 23.6 8V11.6C23.6 13.0514 22.5693 14.262 21.2 14.54V17H22C24.2091 17 26 18.7909 26 21V30.2H14V21C14 18.7909 15.7909 17 18 17H18.8V14.54C17.4307 14.262 16.4 13.0514 16.4 11.6V8Z"/>
</mask>
<path d="M21.2 14.54L20.8021 12.58L19.2 12.9052V14.54H21.2ZM21.2 17H19.2V19H21.2V17ZM26 30.2V32.2H28V30.2H26ZM14 30.2H12V32.2H14V30.2ZM18.8 17V19H20.8V17H18.8ZM18.8 14.54H20.8V12.9052L19.1979 12.58L18.8 14.54ZM19.4 3C16.6386 3 14.4 5.23857 14.4 8H18.4C18.4 7.44772 18.8477 7 19.4 7V3ZM20.6 3H19.4V7H20.6V3ZM25.6 8C25.6 5.23858 23.3614 3 20.6 3V7C21.1523 7 21.6 7.44772 21.6 8H25.6ZM25.6 11.6V8H21.6V11.6H25.6ZM21.5979 16.5C23.8809 16.0366 25.6 14.0213 25.6 11.6H21.6C21.6 12.0815 21.2577 12.4875 20.8021 12.58L21.5979 16.5ZM19.2 14.54V17H23.2V14.54H19.2ZM22 15H21.2V19H22V15ZM28 21C28 17.6863 25.3137 15 22 15V19C23.1046 19 24 19.8954 24 21H28ZM28 30.2V21H24V30.2H28ZM14 32.2H26V28.2H14V32.2ZM12 21V30.2H16V21H12ZM18 15C14.6863 15 12 17.6863 12 21H16C16 19.8954 16.8954 19 18 19V15ZM18.8 15H18V19H18.8V15ZM20.8 17V14.54H16.8V17H20.8ZM14.4 11.6C14.4 14.0213 16.1191 16.0366 18.4021 16.5L19.1979 12.58C18.7423 12.4875 18.4 12.0815 18.4 11.6H14.4ZM14.4 8V11.6H18.4V8H14.4Z" fill="white" mask="url(#path-2-inside-1_29_201)"/>
</svg>
