<svg width="32" height="32" viewBox="0 0 32 32" fill="none" xmlns="http://www.w3.org/2000/svg">
<mask id="path-1-inside-1_38_197" fill="white">
<path d="M19 8C19 9.65685 17.6569 11 16 11C14.3431 11 13 9.65685 13 8C13 6.34315 14.3431 5 16 5C17.6569 5 19 6.34315 19 8ZM14.5 8C14.5 8.82843 15.1716 9.5 16 9.5C16.8284 9.5 17.5 8.82843 17.5 8C17.5 7.17157 16.8284 6.5 16 6.5C15.1716 6.5 14.5 7.17157 14.5 8Z"/>
</mask>
<path d="M19 8C19 9.65685 17.6569 11 16 11C14.3431 11 13 9.65685 13 8C13 6.34315 14.3431 5 16 5C17.6569 5 19 6.34315 19 8ZM14.5 8C14.5 8.82843 15.1716 9.5 16 9.5C16.8284 9.5 17.5 8.82843 17.5 8C17.5 7.17157 16.8284 6.5 16 6.5C15.1716 6.5 14.5 7.17157 14.5 8Z" fill="white" stroke="white" stroke-width="2" mask="url(#path-1-inside-1_38_197)"/>
<line x1="16" y1="10" x2="16" y2="15" stroke="white" stroke-width="2"/>
<line x1="14" y1="13" x2="18" y2="13" stroke="white" stroke-width="2"/>
<line y1="-1" x2="4.90306" y2="-1" transform="matrix(0.97898 0.203954 -0.287348 0.957826 23.2 7)" stroke="white" stroke-width="2"/>
<line y1="-1" x2="9.77569" y2="-1" transform="matrix(0.859338 0.511407 -0.650716 0.759322 14.8 2)" stroke="white" stroke-width="2"/>
<line y1="-1" x2="9.77569" y2="-1" transform="matrix(-0.859338 0.511407 0.650716 0.759322 17.2006 2)" stroke="white" stroke-width="2"/>
<line y1="-1" x2="4.90306" y2="-1" transform="matrix(-0.97898 0.203954 0.287348 0.957826 8.8 7)" stroke="white" stroke-width="2"/>
<circle cx="8.8" cy="15" r="3" fill="white"/>
<path d="M2 17.1833C2 17.1833 5.89521 19.0028 8.55 19.0028C11.2048 19.0028 15.1 17.1833 15.1 17.1833" stroke="white" stroke-width="2"/>
<line x1="8.82222" y1="18.6389" x2="8.82222" y2="23.0056" stroke="white" stroke-width="2"/>
<line x1="8.7507" y1="21.9063" x2="11.6618" y2="29.1841" stroke="white" stroke-width="2"/>
<line y1="-1" x2="7.83841" y2="-1" transform="matrix(-0.371391 0.928477 0.928477 0.371391 9.71111 22)" stroke="white" stroke-width="2"/>
<circle cx="23.6" cy="15" r="3" fill="white"/>
<path d="M16.8 17.1833C16.8 17.1833 20.6952 19.0028 23.35 19.0028C26.0048 19.0028 29.9 17.1833 29.9 17.1833" stroke="white" stroke-width="2"/>
<line x1="23.6222" y1="18.6389" x2="23.6222" y2="23.0056" stroke="white" stroke-width="2"/>
<line x1="23.5507" y1="21.9063" x2="26.4618" y2="29.1841" stroke="white" stroke-width="2"/>
<line y1="-1" x2="7.83841" y2="-1" transform="matrix(-0.371391 0.928477 0.928477 0.371391 24.5111 22)" stroke="white" stroke-width="2"/>
</svg>
