<svg width="32" height="32" viewBox="0 0 32 32" fill="none" xmlns="http://www.w3.org/2000/svg">
<path fill-rule="evenodd" clip-rule="evenodd" d="M5 10.5C5 5.80558 8.80558 2 13.5 2H17.5C22.1944 2 26 5.80558 26 10.5V28.732L23.5294 27L21.0588 28.732L18.5882 27L16.1176 28.732L13.6471 27L11.1765 28.732L8.70588 27L5.85309 29H5V10.5ZM19.8235 10C19.8235 8.89543 20.719 8 21.8235 8H22.7647C23.8693 8 24.7647 8.89543 24.7647 10V13C24.7647 14.1046 23.8693 15 22.7647 15H21.8235C20.719 15 19.8235 14.1046 19.8235 13V10ZM13.1765 8C12.0719 8 11.1765 8.89543 11.1765 10V13C11.1765 14.1046 12.0719 15 13.1765 15H14.1176C15.2222 15 16.1176 14.1046 16.1176 13V10C16.1176 8.89543 15.2222 8 14.1176 8H13.1765Z" fill="white"/>
<rect x="13.6471" y="10" width="2.47059" height="3" rx="1" fill="white"/>
<rect x="22.2941" y="10" width="2.47059" height="3" rx="1" fill="white"/>
</svg>
