<svg width="32" height="32" viewBox="0 0 32 32" fill="none" xmlns="http://www.w3.org/2000/svg">
<path fill-rule="evenodd" clip-rule="evenodd" d="M16.4 8C16.4 6.34314 17.7431 5 19.4 5H20.6C22.2569 5 23.6 6.34315 23.6 8V11.6C23.6 13.0514 22.5693 14.262 21.2 14.54V17H23C25.2091 17 27 18.7909 27 21V30H13V21C13 18.7909 14.7909 17 17 17H18.8V14.54C17.4307 14.262 16.4 13.0514 16.4 11.6V8Z" fill="white"/>
<mask id="path-2-inside-1_38_137" fill="white">
<path d="M11 13.3334C11 15.5425 9.20914 17.3334 7 17.3334C4.79086 17.3334 3 15.5425 3 13.3334C3 11.1242 4.79086 9.33337 7 9.33337C9.20914 9.33337 11 11.1242 11 13.3334ZM5 13.3334C5 14.4379 5.89543 15.3334 7 15.3334C8.10457 15.3334 9 14.4379 9 13.3334C9 12.2288 8.10457 11.3334 7 11.3334C5.89543 11.3334 5 12.2288 5 13.3334Z"/>
</mask>
<path d="M11 13.3334C11 15.5425 9.20914 17.3334 7 17.3334C4.79086 17.3334 3 15.5425 3 13.3334C3 11.1242 4.79086 9.33337 7 9.33337C9.20914 9.33337 11 11.1242 11 13.3334ZM5 13.3334C5 14.4379 5.89543 15.3334 7 15.3334C8.10457 15.3334 9 14.4379 9 13.3334C9 12.2288 8.10457 11.3334 7 11.3334C5.89543 11.3334 5 12.2288 5 13.3334Z" fill="white" stroke="white" stroke-width="2" mask="url(#path-2-inside-1_38_137)"/>
<line x1="7" y1="17" x2="7" y2="22" stroke="white" stroke-width="2"/>
<line x1="4.33333" y1="19.3334" x2="9.66666" y2="19.3334" stroke="white" stroke-width="2"/>
</svg>
