<svg width="32" height="32" viewBox="0 0 32 32" fill="none" xmlns="http://www.w3.org/2000/svg">
<path fill-rule="evenodd" clip-rule="evenodd" d="M8.4 7.90002C8.4 6.24317 9.74315 4.90002 11.4 4.90002H12.6C14.2569 4.90002 15.6 6.24317 15.6 7.90002V11.5C15.6 12.9514 14.5693 14.1621 13.2 14.44V17H16C18.2091 17 20 18.7909 20 21V30H4V21C4 18.7909 5.79086 17 8 17H10.8V14.44C9.43066 14.1621 8.4 12.9514 8.4 11.5V7.90002Z" fill="white"/>
<path fill-rule="evenodd" clip-rule="evenodd" d="M21.8424 16.5008L22.3647 16.1616L23.2565 19.4896L24.6204 19.7047L25.694 18.8365L24.8023 15.5084L25.4242 15.541L26.9393 16.7679L27.4439 18.651L26.7452 20.471L26.2229 20.8102L27.6353 26.0813L25.1977 26.7344L23.7854 21.4634L23.1634 21.4308L21.6483 20.2039L21.1438 18.3208L21.8424 16.5008Z" fill="white"/>
<circle cx="26.5" cy="27.5" r="2.5" fill="white"/>
<path fill-rule="evenodd" clip-rule="evenodd" d="M16 4H8V7V8H16H19V7H16V4Z" fill="white"/>
</svg>
