<svg width="32" height="32" viewBox="0 0 32 32" fill="none" xmlns="http://www.w3.org/2000/svg">
<g clip-path="url(#clip0_348_115)">
<path fill-rule="evenodd" clip-rule="evenodd" d="M27.7619 25.1587L29.1434 26.5062L29.8416 25.7903L28.6126 24.5916L29.5 24L25.9676 19.5449L25.9676 19.5448C25.2525 18.3064 23.6689 17.882 22.4304 18.5971C21.1919 19.3121 20.7676 20.8957 21.4826 22.1342L21.4826 22.1342L21.4826 22.1342L21.4826 27.5L24.6066 26.566L24.8933 27.4135L25.8406 27.0931L25.5653 26.2794L26.5 26L27.7619 25.1587Z" fill="white"/>
<line x1="23.1346" y1="20.501" x2="12.1346" y2="1.50104" stroke="white" stroke-width="2"/>
<path d="M15.5 27C15.5 27.7301 14.7145 28.5 13.5 28.5C12.2855 28.5 11.5 27.7301 11.5 27C11.5 26.2699 12.2855 25.5 13.5 25.5C14.7145 25.5 15.5 26.2699 15.5 27Z" fill="white" stroke="white"/>
<path d="M11.5 26C11.5 26.5838 11.103 27.1977 10.2783 27.6926C9.46353 28.1814 8.30567 28.5 7 28.5C5.69433 28.5 4.53647 28.1814 3.72171 27.6926C2.897 27.1977 2.5 26.5838 2.5 26C2.5 25.4162 2.897 24.8023 3.72171 24.3074C4.53647 23.8186 5.69433 23.5 7 23.5C8.30567 23.5 9.46353 23.8186 10.2783 24.3074C11.103 24.8023 11.5 25.4162 11.5 26Z" fill="white" stroke="white"/>
<path d="M2 28H19" stroke="white" stroke-width="2" stroke-linecap="round"/>
</g>
<defs>
<clipPath id="clip0_348_115">
<rect width="32" height="32" fill="white"/>
</clipPath>
</defs>
</svg>
