<svg width="32" height="32" viewBox="0 0 32 32" fill="none" xmlns="http://www.w3.org/2000/svg">
<g clip-path="url(#clip0_348_115)">
<path fill-rule="evenodd" clip-rule="evenodd" d="M27.7619 25.1587L29.1434 26.5062L29.8416 25.7903L28.6126 24.5916L29.5 24L25.9676 19.5449L25.9676 19.5448C25.2525 18.3064 23.6689 17.882 22.4304 18.5971C21.1919 19.3121 20.7676 20.8957 21.4826 22.1342L21.4826 22.1342L21.4826 22.1342L21.4826 27.5L24.6066 26.566L24.8933 27.4135L25.8406 27.0931L25.5653 26.2794L26.5 26L27.7619 25.1587Z" fill="white"/>
<line x1="23.1346" y1="20.501" x2="12.1346" y2="1.50104" stroke="white" stroke-width="2"/>
<path d="M15.5 27.5C15.5 27.7215 15.3814 27.9602 15.1142 28.1607C14.8468 28.3612 14.4546 28.5 14 28.5C13.5454 28.5 13.1532 28.3612 12.8858 28.1607C12.6186 27.9602 12.5 27.7215 12.5 27.5C12.5 27.2785 12.6186 27.0398 12.8858 26.8393C13.1532 26.6388 13.5454 26.5 14 26.5C14.4546 26.5 14.8468 26.6388 15.1142 26.8393C15.3814 27.0398 15.5 27.2785 15.5 27.5Z" fill="white" stroke="white"/>
<circle cx="8" cy="26" r="2.5" fill="white" stroke="white"/>
<path d="M2 28H19" stroke="white" stroke-width="2" stroke-linecap="round"/>
</g>
<defs>
<clipPath id="clip0_348_115">
<rect width="32" height="32" fill="white"/>
</clipPath>
</defs>
</svg>
