<svg width="32" height="32" viewBox="0 0 32 32" fill="none" xmlns="http://www.w3.org/2000/svg">
<g clip-path="url(#clip0_11_345)">
<path fill-rule="evenodd" clip-rule="evenodd" d="M8.63398 26.7583L10.366 27.7583L17.4915 16.8611L14.5085 15.1389L8.63398 26.7583ZM14.9604 14.2451L18.0396 16.0228L20.2321 12.6698L16.768 10.6698L14.9604 14.2451Z" fill="white"/>
<path fill-rule="evenodd" clip-rule="evenodd" d="M22.2985 3.45419L22.9234 0.999991L21.9543 0.75323L21.3988 2.93478L19.9507 2.09874L18.4826 7.231L18.4826 7.23103C17.7676 8.46951 18.1919 10.0531 19.4304 10.7682C20.6689 11.4832 22.2525 11.0589 22.9675 9.82041L22.9675 9.82041L26.6782 5.98281L25.0946 5.06855L25.8342 4.22702L25.083 3.56688L24.2114 4.55865L22.2985 3.45419Z" fill="white"/>
</g>
<defs>
<clipPath id="clip0_11_345">
<rect width="32" height="32" fill="white"/>
</clipPath>
</defs>
</svg>
