<svg width="32" height="32" viewBox="0 0 32 32" fill="none" xmlns="http://www.w3.org/2000/svg">
<path fill-rule="evenodd" clip-rule="evenodd" d="M3.52881 26.5288L4.85396 27.854L15.7944 17.8789L13.5039 15.5883L3.52881 26.5288ZM14.1784 14.8486L16.5342 17.2044L19.8714 14.1617L17.2211 11.5114L14.1784 14.8486Z" fill="white"/>
<path fill-rule="evenodd" clip-rule="evenodd" d="M25.1928 5.10565L26.6825 2.70702L25.7859 2.26408L24.47 4.38289L23.3966 3.30946L20.1245 8.29721L20.1244 8.29732C18.9839 9.43779 18.8275 11.1304 19.775 12.078C20.7226 13.0255 22.4152 12.8691 23.5557 11.7286L23.5557 11.7286L23.5557 11.7286L28.5436 8.45645L27.3713 7.28418L28.3824 6.56125L27.8604 5.70829L26.6563 6.56921L25.1928 5.10565Z" fill="white"/>
</svg>
