<svg width="32" height="32" viewBox="0 0 32 32" fill="none" xmlns="http://www.w3.org/2000/svg">
<mask id="path-1-outside-1_438_54" maskUnits="userSpaceOnUse" x="2.35651" y="1.90223" width="28.6865" height="28.6865" fill="black">
<rect fill="white" x="2.35651" y="1.90223" width="28.6865" height="28.6865"/>
<path fill-rule="evenodd" clip-rule="evenodd" d="M20.25 23.1447C24.1361 20.901 25.4676 15.9319 23.224 12.0457C20.9803 8.15961 16.0111 6.82812 12.125 9.07178C8.23889 11.3154 6.90741 16.2846 9.15106 20.1707C11.3947 24.0569 16.3639 25.3883 20.25 23.1447ZM17.8125 18.9228C19.367 18.0254 19.8996 16.0377 19.0021 14.4832C18.1046 12.9288 16.117 12.3962 14.5625 13.2937C13.0081 14.1911 12.4755 16.1788 13.3729 17.7332C14.2704 19.2877 16.2581 19.8203 17.8125 18.9228Z"/>
</mask>
<path fill-rule="evenodd" clip-rule="evenodd" d="M20.25 23.1447C24.1361 20.901 25.4676 15.9319 23.224 12.0457C20.9803 8.15961 16.0111 6.82812 12.125 9.07178C8.23889 11.3154 6.90741 16.2846 9.15106 20.1707C11.3947 24.0569 16.3639 25.3883 20.25 23.1447ZM17.8125 18.9228C19.367 18.0254 19.8996 16.0377 19.0021 14.4832C18.1046 12.9288 16.117 12.3962 14.5625 13.2937C13.0081 14.1911 12.4755 16.1788 13.3729 17.7332C14.2704 19.2877 16.2581 19.8203 17.8125 18.9228Z" fill="white"/>
<path d="M22.3579 12.5457C22.5161 12.8197 22.6538 13.0993 22.7717 13.3829L24.6185 12.6153C24.4675 12.252 24.2915 11.8948 24.09 11.5457L22.3579 12.5457ZM23.2536 15.1776C23.3351 15.7988 23.3333 16.4241 23.2521 17.0375L25.2348 17.3C25.3386 16.5153 25.3412 15.7142 25.2366 14.9173L23.2536 15.1776ZM22.7702 18.8357C22.5339 19.4075 22.2228 19.9501 21.8416 20.4472L23.4288 21.6641C23.9178 21.0263 24.3162 20.3313 24.6185 19.5998L22.7702 18.8357ZM20.5269 21.7605C20.283 21.9472 20.0239 22.1205 19.75 22.2787L20.75 24.0107C21.0991 23.8092 21.4301 23.5878 21.7425 23.3487L20.5269 21.7605ZM19.75 22.2787C19.4761 22.4368 19.1965 22.5745 18.9129 22.6924L19.6804 24.5392C20.0437 24.3883 20.401 24.2122 20.75 24.0107L19.75 22.2787ZM17.1182 23.1743C16.497 23.2559 15.8716 23.254 15.2583 23.1728L14.9958 25.1555C15.7804 25.2594 16.5816 25.2619 17.3784 25.1573L17.1182 23.1743ZM13.46 22.6909C12.8882 22.4546 12.3457 22.1435 11.8485 21.7623L10.6316 23.3495C11.2694 23.8385 11.9645 24.2369 12.696 24.5393L13.46 22.6909ZM10.5352 20.4476C10.3485 20.2037 10.1752 19.9447 10.0171 19.6707L8.28504 20.6707C8.48655 21.0198 8.70794 21.3508 8.94706 21.6632L10.5352 20.4476ZM10.0171 19.6707C9.85893 19.3968 9.72123 19.1172 9.60336 18.8336L7.75651 19.6012C7.90749 19.9644 8.08352 20.3217 8.28504 20.6707L10.0171 19.6707ZM9.12141 17.0389C9.03989 16.4177 9.04177 15.7923 9.12296 15.179L7.14026 14.9165C7.03639 15.7012 7.03384 16.5023 7.13842 17.2991L9.12141 17.0389ZM9.6048 13.3807C9.84117 12.8089 10.1522 12.2664 10.5334 11.7692L8.94622 10.5523C8.45722 11.1901 8.05887 11.8852 7.7565 12.6167L9.6048 13.3807ZM11.8481 10.4559C12.092 10.2693 12.3511 10.096 12.625 9.9378L11.625 8.20575C11.276 8.40727 10.9449 8.62866 10.6325 8.86777L11.8481 10.4559ZM12.625 9.9378C12.8989 9.77965 13.1786 9.64194 13.4622 9.52407L12.6946 7.67723C12.3313 7.82821 11.9741 8.00423 11.625 8.20575L12.625 9.9378ZM15.2569 9.04213C15.878 8.96061 16.5034 8.96248 17.1168 9.04368L17.3792 7.06098C16.5946 6.95711 15.7935 6.95455 14.9966 7.05913L15.2569 9.04213ZM18.915 9.52552C19.4868 9.76189 20.0293 10.0729 20.5265 10.4541L21.7434 8.86693C21.1056 8.37793 20.4105 7.97958 19.6791 7.67721L18.915 9.52552ZM21.8398 11.7689C22.0265 12.0127 22.1998 12.2718 22.3579 12.5457L24.09 11.5457C23.8885 11.1967 23.6671 10.8656 23.428 10.5532L21.8398 11.7689ZM18.1361 14.9832C18.2895 15.249 18.3819 15.5308 18.4191 15.8141L20.4021 15.5538C20.3313 15.0144 20.1553 14.4807 19.8681 13.9832L18.1361 14.9832ZM17.973 17.4788C17.7992 17.7055 17.5783 17.9033 17.3125 18.0568L18.3125 19.7888C18.81 19.5016 19.2292 19.1274 19.5602 18.6957L17.973 17.4788ZM17.3125 18.0568C17.0467 18.2103 16.765 18.3026 16.4817 18.3398L16.742 20.3228C17.2813 20.252 17.8151 20.0761 18.3125 19.7888L17.3125 18.0568ZM14.817 17.8937C14.5903 17.7199 14.3924 17.499 14.239 17.2332L12.5069 18.2332C12.7941 18.7307 13.1684 19.1499 13.6001 19.4809L14.817 17.8937ZM14.239 17.2332C14.0855 16.9674 13.9932 16.6857 13.956 16.4024L11.973 16.6627C12.0438 17.202 12.2197 17.7358 12.5069 18.2332L14.239 17.2332ZM14.402 14.7377C14.5759 14.511 14.7967 14.3131 15.0625 14.1597L14.0625 12.4276C13.5651 12.7148 13.1458 13.0891 12.8148 13.5208L14.402 14.7377ZM15.0625 14.1597C15.3283 14.0062 15.6101 13.9139 15.8933 13.8767L15.6331 11.8937C15.0937 11.9645 14.56 12.1404 14.0625 12.4276L15.0625 14.1597ZM17.5581 14.3227C17.7848 14.4966 17.9826 14.7174 18.1361 14.9832L19.8681 13.9832C19.5809 13.4858 19.2066 13.0665 18.7749 12.7356L17.5581 14.3227ZM21.4919 13.0457C21.6284 13.2821 21.7469 13.5229 21.8483 13.7667L25.5419 12.2315C25.3744 11.8284 25.1792 11.4323 24.956 11.0457L21.4919 13.0457ZM22.2621 15.3077C22.3321 15.841 22.3306 16.3785 22.2607 16.9063L26.2261 17.4312C26.3413 16.5609 26.3442 15.6719 26.2281 14.7872L22.2621 15.3077ZM21.8461 18.4537C21.6427 18.9457 21.3753 19.4119 21.048 19.8388L24.2224 22.2726C24.7653 21.5645 25.2073 20.7931 25.5427 19.9818L21.8461 18.4537ZM19.9191 20.9665C19.7095 21.1269 19.4864 21.2762 19.25 21.4126L21.25 24.8767C21.6366 24.6535 22.0037 24.4081 22.3503 24.1428L19.9191 20.9665ZM19.25 21.4126C19.0136 21.5491 18.7729 21.6677 18.5291 21.769L20.0642 25.4627C20.4673 25.2951 20.8634 25.0999 21.25 24.8767L19.25 21.4126ZM16.988 22.1828C16.4547 22.2528 15.9172 22.2513 15.3895 22.1814L14.8646 26.1468C15.7348 26.262 16.6238 26.2649 17.5085 26.1488L16.988 22.1828ZM13.842 21.7668C13.3501 21.5634 12.8838 21.296 12.457 20.9687L10.0232 24.1431C10.7313 24.686 11.5026 25.128 12.3139 25.4634L13.842 21.7668ZM11.3293 19.8398C11.1688 19.6302 11.0196 19.4071 10.8831 19.1707L7.41901 21.1707C7.64221 21.5573 7.88765 21.9244 8.15298 22.2711L11.3293 19.8398ZM10.8831 19.1707C10.7466 18.9344 10.6281 18.6936 10.5268 18.4498L6.83309 19.9849C7.00063 20.388 7.19581 20.7841 7.41901 21.1707L10.8831 19.1707ZM10.1129 16.9087C10.0429 16.3754 10.0445 15.8379 10.1143 15.3102L6.14891 14.7853C6.0337 15.6556 6.03081 16.5446 6.14692 17.4293L10.1129 16.9087ZM10.529 13.7627C10.7323 13.2708 10.9997 12.8045 11.327 12.3777L8.15262 9.9439C7.60971 10.652 7.16772 11.4234 6.83235 12.2346L10.529 13.7627ZM12.456 11.25C12.6656 11.0896 12.8886 10.9403 13.125 10.8038L11.125 7.33973C10.7384 7.56293 10.3713 7.80836 10.0247 8.0737L12.456 11.25ZM13.125 10.8038C13.3614 10.6674 13.6022 10.5488 13.8459 10.4475L12.3108 6.7538C11.9077 6.92134 11.5116 7.11653 11.125 7.33973L13.125 10.8038ZM15.387 10.0336C15.9203 9.96363 16.4578 9.96517 16.9856 10.035L17.5105 6.06962C16.6402 5.95442 15.7512 5.95153 14.8665 6.06764L15.387 10.0336ZM18.533 10.4497C19.025 10.653 19.4912 10.9204 19.9181 11.2477L22.3519 8.07333C21.6437 7.53043 20.8724 7.08843 20.0611 6.75306L18.533 10.4497ZM21.0457 12.3767C21.2062 12.5863 21.3555 12.8094 21.4919 13.0457L24.956 11.0457C24.7328 10.6591 24.4874 10.2921 24.2221 9.94541L21.0457 12.3767ZM17.2701 15.4832C17.3566 15.6332 17.4072 15.789 17.4276 15.9442L21.3936 15.4237C21.306 14.7563 21.0882 14.0965 20.7342 13.4832L17.2701 15.4832ZM17.1794 16.8703C17.0842 16.9946 16.9625 17.1042 16.8125 17.1908L18.8125 20.6549C19.4258 20.3008 19.9442 19.8383 20.3538 19.3041L17.1794 16.8703ZM16.8125 17.1908C16.6625 17.2774 16.5068 17.3279 16.3516 17.3483L16.8721 21.3143C17.5395 21.2267 18.1992 21.009 18.8125 20.6549L16.8125 17.1908ZM15.4254 17.1001C15.3012 17.0049 15.1916 16.8832 15.105 16.7332L11.6409 18.7332C11.995 19.3465 12.4575 19.8649 12.9917 20.2745L15.4254 17.1001ZM15.105 16.7332C15.0184 16.5833 14.9678 16.4275 14.9475 16.2723L10.9815 16.7928C11.0691 17.4602 11.2868 18.1199 11.6409 18.7332L15.105 16.7332ZM15.1956 15.3461C15.2909 15.2219 15.4125 15.1123 15.5625 15.0257L13.5625 11.5616C12.9492 11.9157 12.4308 12.3782 12.0212 12.9124L15.1956 15.3461ZM15.5625 15.0257C15.7125 14.9391 15.8682 14.8886 16.0235 14.8682L15.503 10.9022C14.8355 10.9898 14.1758 11.2075 13.5625 11.5616L15.5625 15.0257ZM16.9496 15.1163C17.0739 15.2116 17.1835 15.3333 17.2701 15.4832L20.7342 13.4832C20.3801 12.8699 19.9176 12.3515 19.3834 11.942L16.9496 15.1163Z" fill="white" mask="url(#path-1-outside-1_438_54)"/>
<line x1="9.01672" y1="3.93817" x2="23.0167" y2="28.1869" stroke="white" stroke-width="2"/>
</svg>
