<svg width="32" height="32" viewBox="0 0 32 32" fill="none" xmlns="http://www.w3.org/2000/svg">
<circle cx="25.75" cy="21.875" r="4.25" fill="white" stroke="white" stroke-width="2" stroke-dasharray="1 1"/>
<mask id="path-2-outside-1_438_47" maskUnits="userSpaceOnUse" x="2" y="3" width="23" height="23" fill="black">
<rect fill="white" x="2" y="3" width="23" height="23"/>
<path fill-rule="evenodd" clip-rule="evenodd" d="M13.125 22.25C17.6123 22.25 21.25 18.6123 21.25 14.125C21.25 9.63769 17.6123 6 13.125 6C8.63769 6 5 9.63769 5 14.125C5 18.6123 8.63769 22.25 13.125 22.25ZM13.125 17.375C14.9199 17.375 16.375 15.9199 16.375 14.125C16.375 12.3301 14.9199 10.875 13.125 10.875C11.3301 10.875 9.875 12.3301 9.875 14.125C9.875 15.9199 11.3301 17.375 13.125 17.375Z"/>
</mask>
<path fill-rule="evenodd" clip-rule="evenodd" d="M13.125 22.25C17.6123 22.25 21.25 18.6123 21.25 14.125C21.25 9.63769 17.6123 6 13.125 6C8.63769 6 5 9.63769 5 14.125C5 18.6123 8.63769 22.25 13.125 22.25ZM13.125 17.375C14.9199 17.375 16.375 15.9199 16.375 14.125C16.375 12.3301 14.9199 10.875 13.125 10.875C11.3301 10.875 9.875 12.3301 9.875 14.125C9.875 15.9199 11.3301 17.375 13.125 17.375Z" fill="white"/>
<path d="M22.75 14.125C22.75 13.7003 22.7224 13.2813 22.6687 12.8698L19.6939 13.2578C19.7309 13.541 19.75 13.8304 19.75 14.125H22.75ZM22.0191 10.4403C21.6942 9.65696 21.2693 8.92648 20.7607 8.26464L18.382 10.0926C18.7327 10.549 19.0249 11.0516 19.2479 11.5894L22.0191 10.4403ZM18.9854 6.48925C18.3235 5.98065 17.593 5.55576 16.8097 5.23094L15.6606 8.00212C16.1984 8.22513 16.701 8.51732 17.1574 8.86801L18.9854 6.48925ZM14.3802 4.58128C13.9687 4.5276 13.5497 4.5 13.125 4.5V7.5C13.4196 7.5 13.709 7.51914 13.9922 7.55607L14.3802 4.58128ZM13.125 4.5C12.7003 4.5 12.2813 4.5276 11.8698 4.58128L12.2578 7.55607C12.541 7.51914 12.8304 7.5 13.125 7.5V4.5ZM9.44027 5.23094C8.65696 5.55576 7.92648 5.98065 7.26464 6.48925L9.09262 8.86801C9.54897 8.51732 10.0516 8.22513 10.5894 8.00212L9.44027 5.23094ZM5.48925 8.26464C4.98065 8.92648 4.55576 9.65696 4.23094 10.4403L7.00212 11.5894C7.22513 11.0516 7.51732 10.549 7.86801 10.0926L5.48925 8.26464ZM3.58128 12.8698C3.5276 13.2813 3.5 13.7003 3.5 14.125H6.5C6.5 13.8304 6.51914 13.541 6.55607 13.2578L3.58128 12.8698ZM3.5 14.125C3.5 14.5497 3.5276 14.9687 3.58128 15.3802L6.55607 14.9922C6.51914 14.709 6.5 14.4196 6.5 14.125H3.5ZM4.23094 17.8097C4.55576 18.593 4.98065 19.3235 5.48925 19.9854L7.86801 18.1574C7.51732 17.701 7.22513 17.1984 7.00212 16.6606L4.23094 17.8097ZM7.26464 21.7607C7.92648 22.2693 8.65696 22.6942 9.44027 23.0191L10.5894 20.2479C10.0516 20.0249 9.54897 19.7327 9.09262 19.382L7.26464 21.7607ZM11.8698 23.6687C12.2813 23.7224 12.7003 23.75 13.125 23.75V20.75C12.8304 20.75 12.541 20.7309 12.2578 20.6939L11.8698 23.6687ZM13.125 23.75C13.5497 23.75 13.9687 23.7224 14.3802 23.6687L13.9922 20.6939C13.709 20.7309 13.4196 20.75 13.125 20.75V23.75ZM16.8097 23.0191C17.593 22.6942 18.3235 22.2693 18.9854 21.7607L17.1574 19.382C16.701 19.7327 16.1984 20.0249 15.6606 20.2479L16.8097 23.0191ZM20.7607 19.9854C21.2693 19.3235 21.6942 18.593 22.0191 17.8097L19.2479 16.6606C19.0249 17.1984 18.7327 17.701 18.382 18.1574L20.7607 19.9854ZM22.6687 15.3802C22.7224 14.9687 22.75 14.5497 22.75 14.125H19.75C19.75 14.4196 19.7309 14.709 19.6939 14.9922L22.6687 15.3802ZM17.875 14.125C17.875 13.4837 17.7471 12.8685 17.514 12.3064L14.7428 13.4555C14.8275 13.6598 14.875 13.885 14.875 14.125H17.875ZM14.9436 9.73602C14.3815 9.50291 13.7663 9.375 13.125 9.375V12.375C13.365 12.375 13.5902 12.4225 13.7945 12.5072L14.9436 9.73602ZM13.125 9.375C12.4837 9.375 11.8685 9.50291 11.3064 9.73602L12.4555 12.5072C12.6598 12.4225 12.885 12.375 13.125 12.375V9.375ZM8.73602 12.3064C8.50291 12.8685 8.375 13.4837 8.375 14.125H11.375C11.375 13.885 11.4225 13.6598 11.5072 13.4555L8.73602 12.3064ZM8.375 14.125C8.375 14.7663 8.50291 15.3815 8.73602 15.9436L11.5072 14.7945C11.4225 14.5902 11.375 14.365 11.375 14.125H8.375ZM11.3064 18.514C11.8685 18.7471 12.4837 18.875 13.125 18.875V15.875C12.885 15.875 12.6598 15.8275 12.4555 15.7428L11.3064 18.514ZM13.125 18.875C13.7663 18.875 14.3815 18.7471 14.9436 18.514L13.7945 15.7428C13.5902 15.8275 13.365 15.875 13.125 15.875V18.875ZM17.514 15.9436C17.7471 15.3815 17.875 14.7663 17.875 14.125H14.875C14.875 14.365 14.8275 14.5902 14.7428 14.7945L17.514 15.9436ZM24.25 14.125C24.25 13.6352 24.2182 13.1514 24.1561 12.6758L18.2065 13.4518C18.2351 13.6708 18.25 13.8954 18.25 14.125H24.25ZM23.4046 9.86569C23.0289 8.95962 22.5377 8.11523 21.9501 7.35065L17.1926 11.0066C17.4643 11.3602 17.6902 11.749 17.8623 12.164L23.4046 9.86569ZM19.8994 5.29987C19.1348 4.71232 18.2904 4.22108 17.3843 3.84535L15.086 9.38771C15.501 9.55981 15.8898 9.78566 16.2434 10.0574L19.8994 5.29987ZM14.5742 3.09388C14.0986 3.03183 13.6148 3 13.125 3V9C13.3546 9 13.5792 9.01491 13.7982 9.04347L14.5742 3.09388ZM13.125 3C12.6352 3 12.1514 3.03183 11.6758 3.09388L12.4518 9.04347C12.6708 9.01491 12.8954 9 13.125 9V3ZM8.86569 3.84535C7.95962 4.22108 7.11523 4.71232 6.35065 5.29987L10.0066 10.0574C10.3602 9.78566 10.749 9.55981 11.164 9.38771L8.86569 3.84535ZM4.29987 7.35065C3.71232 8.11523 3.22108 8.95962 2.84535 9.86569L8.38771 12.164C8.55981 11.749 8.78566 11.3602 9.05739 11.0066L4.29987 7.35065ZM2.09388 12.6758C2.03183 13.1514 2 13.6352 2 14.125H8C8 13.8954 8.01491 13.6708 8.04347 13.4518L2.09388 12.6758ZM2 14.125C2 14.6148 2.03183 15.0986 2.09388 15.5742L8.04347 14.7982C8.01491 14.5792 8 14.3546 8 14.125H2ZM2.84535 18.3843C3.22108 19.2904 3.71232 20.1348 4.29987 20.8994L9.05739 17.2434C8.78566 16.8898 8.55981 16.501 8.38771 16.086L2.84535 18.3843ZM6.35065 22.9501C7.11523 23.5377 7.95962 24.0289 8.86569 24.4046L11.164 18.8623C10.749 18.6902 10.3602 18.4643 10.0066 18.1926L6.35065 22.9501ZM11.6758 25.1561C12.1514 25.2182 12.6352 25.25 13.125 25.25V19.25C12.8954 19.25 12.6708 19.2351 12.4518 19.2065L11.6758 25.1561ZM13.125 25.25C13.6148 25.25 14.0986 25.2182 14.5742 25.1561L13.7982 19.2065C13.5792 19.2351 13.3546 19.25 13.125 19.25V25.25ZM17.3843 24.4046C18.2904 24.0289 19.1348 23.5377 19.8994 22.9501L16.2434 18.1926C15.8898 18.4643 15.501 18.6902 15.086 18.8623L17.3843 24.4046ZM21.9501 20.8994C22.5377 20.1348 23.0289 19.2904 23.4046 18.3843L17.8623 16.086C17.6902 16.501 17.4643 16.8898 17.1926 17.2434L21.9501 20.8994ZM24.1561 15.5742C24.2182 15.0986 24.25 14.6148 24.25 14.125H18.25C18.25 14.3546 18.2351 14.5792 18.2065 14.7982L24.1561 15.5742ZM19.375 14.125C19.375 13.2831 19.2069 12.4729 18.8996 11.7318L13.3572 14.0301C13.3677 14.0554 13.375 14.0856 13.375 14.125H19.375ZM15.5182 8.35043C14.7771 8.04312 13.9669 7.875 13.125 7.875V13.875C13.1644 13.875 13.1946 13.8823 13.2199 13.8928L15.5182 8.35043ZM13.125 7.875C12.2831 7.875 11.4729 8.04312 10.7318 8.35043L13.0301 13.8928C13.0554 13.8823 13.0856 13.875 13.125 13.875V7.875ZM7.35043 11.7318C7.04312 12.4729 6.875 13.2831 6.875 14.125H12.875C12.875 14.0856 12.8823 14.0554 12.8928 14.0301L7.35043 11.7318ZM6.875 14.125C6.875 14.9669 7.04312 15.7771 7.35043 16.5182L12.8928 14.2199C12.8823 14.1946 12.875 14.1644 12.875 14.125H6.875ZM10.7318 19.8996C11.4729 20.2069 12.2831 20.375 13.125 20.375V14.375C13.0856 14.375 13.0554 14.3677 13.0301 14.3572L10.7318 19.8996ZM13.125 20.375C13.9669 20.375 14.7771 20.2069 15.5182 19.8996L13.2199 14.3572C13.1946 14.3677 13.1644 14.375 13.125 14.375V20.375ZM18.8996 16.5182C19.2069 15.7771 19.375 14.9669 19.375 14.125H13.375C13.375 14.1644 13.3677 14.1946 13.3572 14.2199L18.8996 16.5182Z" fill="white" mask="url(#path-2-outside-1_438_47)"/>
</svg>
