<svg width="32" height="32" viewBox="0 0 32 32" fill="none" xmlns="http://www.w3.org/2000/svg">
<rect x="14" y="3" width="4" height="25" fill="white"/>
<mask id="path-2-inside-1_9_336" fill="white">
<path d="M4 14C4 8.47715 8.47715 4 14 4H18C23.5228 4 28 8.47715 28 14C28 19.5228 23.5228 24 18 24H14C8.47715 24 4 19.5228 4 14Z"/>
</mask>
<path d="M4 13C4 6.37258 9.37258 1 16 1C22.6274 1 28 6.37258 28 13V14C28 10.134 23.5228 7 18 7H14C8.47715 7 4 10.134 4 14V13ZM28 24H4H28ZM4 24V4V24ZM28 4V24V4Z" fill="white" mask="url(#path-2-inside-1_9_336)"/>
</svg>
