<svg width="32" height="32" viewBox="0 0 32 32" fill="none" xmlns="http://www.w3.org/2000/svg">
<g clip-path="url(#clip0_18_267)">
<line x1="15.4816" y1="23.7749" x2="24.1283" y2="15.1283" stroke="white"/>
<line x1="20.0317" y1="19.932" x2="24.355" y2="24.2553" stroke="white"/>
<mask id="path-3-inside-1_18_267" fill="white">
<path d="M15.8352 23.1677L23.5211 15.4818L27.8444 19.8051C29.9668 21.9275 29.9668 25.3686 27.8444 27.491V27.491C25.722 29.6134 22.2809 29.6134 20.1585 27.491L15.8352 23.1677Z"/>
</mask>
<path d="M15.8352 23.1677L23.5211 15.4818L15.8352 23.1677ZM29.2586 19.8051C31.7716 22.3181 31.7716 26.3923 29.2586 28.9053C26.7457 31.4182 22.6715 31.4182 20.1585 28.9053L20.8656 26.7839C22.207 28.1253 24.6983 27.8087 26.4302 26.0768C28.1621 24.345 28.4787 21.8536 27.1373 20.5123L29.2586 19.8051ZM29.2586 28.9053C26.7457 31.4182 22.6715 31.4182 20.1585 28.9053L15.1281 23.8748L16.5423 22.4606L20.8656 26.7839C22.207 28.1253 24.6983 27.8087 26.4302 26.0768L29.2586 28.9053ZM24.2282 14.7747L29.2586 19.8051C31.7716 22.3181 31.7716 26.3923 29.2586 28.9053L26.4302 26.0768C28.1621 24.345 28.4787 21.8536 27.1373 20.5123L22.814 16.1889L24.2282 14.7747Z" fill="white" mask="url(#path-3-inside-1_18_267)"/>
<rect x="2.38489" y="3.7608" width="2.44564" height="23.2336" transform="rotate(-45 2.38489 3.7608)" fill="white"/>
</g>
<defs>
<clipPath id="clip0_18_267">
<rect width="32" height="32" fill="white"/>
</clipPath>
</defs>
</svg>
