<svg width="32" height="32" viewBox="0 0 32 32" fill="none" xmlns="http://www.w3.org/2000/svg">
<line x1="14.0865" y1="22.908" x2="22.7468" y2="17.908" stroke="white"/>
<line x1="18.6186" y1="20.8688" x2="21.1186" y2="25.1989" stroke="white"/>
<mask id="path-3-inside-1_18_267" fill="white">
<path d="M14.5399 22.5821L22.2379 18.1376L24.7379 22.4678C25.9652 24.5935 25.2369 27.3117 23.1111 28.539C20.9854 29.7663 18.2672 29.038 17.0399 26.9122L14.5399 22.5821Z"/>
</mask>
<path d="M14.5399 22.5821L22.2379 18.1376L14.5399 22.5821ZM26.1039 22.8338C27.6074 25.4378 26.7152 28.7676 24.1111 30.271C21.5071 31.7745 18.1773 30.8823 16.6739 28.2782L17.9059 26.4122C18.581 27.5814 20.4637 27.7581 22.1111 26.8069C23.7586 25.8558 24.5469 24.1369 23.8719 22.9678L26.1039 22.8338ZM24.1111 30.271C21.5071 31.7745 18.1773 30.8823 16.6739 28.2782L13.6739 23.0821L15.4059 22.0821L17.9059 26.4122C18.581 27.5814 20.4637 27.7581 22.1111 26.8069L24.1111 30.271ZM23.1039 17.6376L26.1039 22.8338C27.6074 25.4378 26.7152 28.7676 24.1111 30.271L22.1111 26.8069C23.7586 25.8558 24.5469 24.1369 23.8719 22.9678L21.3719 18.6376L23.1039 17.6376Z" fill="white" mask="url(#path-3-inside-1_18_267)"/>
<rect x="8.02289" y="4.4054" width="2" height="19" transform="rotate(-30 8.02289 4.4054)" fill="white"/>
</svg>
