<svg width="32" height="32" viewBox="0 0 32 32" fill="none" xmlns="http://www.w3.org/2000/svg">
<path fill-rule="evenodd" clip-rule="evenodd" d="M1.50008 9.65634L1.94828 8.7767L5.80998 12.6384L7.85273 11.8527L8.63841 9.80997L4.7767 5.94827L5.65635 5.50007L8.70847 5.98348L10.8936 8.16856L11.377 11.2207L10.9288 12.1003L18.9188 20.0904L19.7985 19.6422L22.8506 20.1256L25.0357 22.3107L25.5191 25.3628L25.0709 26.2425L21.2092 22.3808L19.1664 23.1664L18.3808 25.2092L22.2425 29.0709L21.3628 29.5191L18.3107 29.0357L16.1256 26.8506L15.6422 23.7985L16.0904 22.9188L8.10033 14.9288L7.22069 15.377L4.16857 14.8935L1.98349 12.7085L1.50008 9.65634Z" fill="white"/>
<rect x="24.0416" y="6.36395" width="4" height="25" transform="rotate(45 24.0416 6.36395)" fill="white"/>
<path d="M22.6274 6.36395L31.1127 14.8492L27.5772 18.3848L18.0312 8.83882L12.7279 4.94973L22.6274 6.36395Z" fill="white"/>
<rect x="29.6985" y="12.0208" width="3" height="7" transform="rotate(45 29.6985 12.0208)" fill="white"/>
</svg>
