<svg width="32" height="32" viewBox="0 0 32 32" fill="none" xmlns="http://www.w3.org/2000/svg">
<g clip-path="url(#clip0_74_22)">
<line x1="16.6797" y1="16.1906" x2="9.11061" y2="29.3007" stroke="white" stroke-width="2"/>
<mask id="path-2-inside-1_74_22" fill="white">
<path fill-rule="evenodd" clip-rule="evenodd" d="M16.0336 7.8859C14.9225 8.80814 14.215 10.1996 14.215 11.7564C14.215 14.5332 16.466 16.7842 19.2427 16.7842C22.0195 16.7842 24.2705 14.5332 24.2705 11.7564C24.2705 10.2352 23.5949 8.8717 22.5273 7.94974L17.3573 1.70087C17.3573 1.70087 17.7406 4.04986 17.3573 5.4717C17.1394 6.27992 16.5704 7.17226 16.0336 7.8859Z"/>
</mask>
<path d="M16.0336 7.8859L16.6723 8.65536L16.7623 8.58061L16.8327 8.48708L16.0336 7.8859ZM22.5273 7.94974L21.7568 8.5872L21.8103 8.65178L21.8737 8.70657L22.5273 7.94974ZM17.3573 1.70087L18.1278 1.06341L15.7763 -1.77879L16.3704 1.86192L17.3573 1.70087ZM17.3573 5.4717L16.3918 5.21141L17.3573 5.4717ZM15.215 11.7564C15.215 10.5096 15.7803 9.39575 16.6723 8.65536L15.3949 7.11645C14.0647 8.22052 13.215 9.88967 13.215 11.7564L15.215 11.7564ZM19.2427 15.7842C17.0183 15.7842 15.215 13.9809 15.215 11.7564L13.215 11.7564C13.215 15.0855 15.9137 17.7842 19.2427 17.7842L19.2427 15.7842ZM23.2705 11.7564C23.2705 13.9809 21.4672 15.7842 19.2427 15.7842L19.2427 17.7842C22.5718 17.7842 25.2705 15.0855 25.2705 11.7564L23.2705 11.7564ZM21.8737 8.70657C22.7307 9.44667 23.2705 10.5379 23.2705 11.7564L25.2705 11.7564C25.2705 9.93238 24.4591 8.29674 23.1809 7.19291L21.8737 8.70657ZM16.5868 2.33833L21.7568 8.5872L23.2978 7.31228L18.1278 1.06341L16.5868 2.33833ZM18.3229 5.73198C18.5595 4.85397 18.5481 3.77289 18.4991 2.99059C18.4736 2.58346 18.4355 2.22481 18.4037 1.96753C18.3878 1.83855 18.3733 1.73415 18.3627 1.66085C18.3573 1.62418 18.353 1.59523 18.3498 1.5748C18.3482 1.56459 18.3469 1.5565 18.346 1.55064C18.3455 1.54771 18.3452 1.54533 18.3449 1.54353C18.3447 1.54262 18.3446 1.54186 18.3445 1.54125C18.3445 1.54094 18.3444 1.54067 18.3444 1.54043C18.3443 1.54031 18.3443 1.54016 18.3443 1.5401C18.3443 1.53996 18.3443 1.53983 17.3573 1.70087C16.3704 1.86192 16.3704 1.8618 16.3703 1.8617C16.3703 1.86168 16.3703 1.86158 16.3703 1.86153C16.3703 1.86144 16.3703 1.86138 16.3703 1.86136C16.3703 1.86131 16.3703 1.8614 16.3703 1.86164C16.3704 1.8621 16.3706 1.86312 16.3708 1.86467C16.3713 1.86779 16.3721 1.87306 16.3733 1.8804C16.3755 1.89508 16.379 1.91798 16.3834 1.94832C16.3922 2.00903 16.4048 2.09926 16.4188 2.2127C16.4469 2.44029 16.4806 2.75776 16.503 3.1156C16.5498 3.86326 16.5384 4.66759 16.3918 5.21141L18.3229 5.73198ZM16.8327 8.48708C17.3835 7.75491 18.0525 6.7349 18.3229 5.73198L16.3918 5.21141C16.2264 5.82494 15.7574 6.5896 15.2344 7.28472L16.8327 8.48708Z" fill="white" mask="url(#path-2-inside-1_74_22)"/>
<mask id="path-4-inside-2_74_22" fill="white">
<path fill-rule="evenodd" clip-rule="evenodd" d="M17.2166 9.68138C16.3044 10.1957 15.6193 11.0971 15.4178 12.2081C15.0583 14.1897 16.3733 16.0874 18.3549 16.4469C20.3365 16.8063 22.2342 15.4913 22.5937 13.5098C22.7906 12.4241 22.4849 11.3637 21.8424 10.5675L18.9619 5.43896C18.9619 5.43896 18.9314 7.16488 18.4738 8.12993C18.2137 8.67848 17.6921 9.2416 17.2166 9.68138Z"/>
</mask>
<path d="M17.2166 9.68138L18.1988 11.4236L18.4027 11.3086L18.5746 11.1497L17.2166 9.68138ZM21.8424 10.5675L20.0987 11.547L20.1808 11.6931L20.2861 11.8236L21.8424 10.5675ZM18.9619 5.43896L20.7057 4.45955L17.0928 -1.973L16.9622 5.40358L18.9619 5.43896ZM18.4738 8.12993L16.6666 7.27306L16.6666 7.27306L18.4738 8.12993ZM17.3857 12.5651C17.4765 12.0641 17.7826 11.6582 18.1988 11.4236L16.2344 7.93916C14.8261 8.73311 13.7621 10.1302 13.4499 11.8511L17.3857 12.5651ZM18.7119 14.479C17.8171 14.3167 17.2234 13.4598 17.3857 12.5651L13.4499 11.8511C12.8933 14.9195 14.9295 17.8582 17.9979 18.4148L18.7119 14.479ZM20.6258 13.1528C20.4635 14.0475 19.6066 14.6413 18.7119 14.479L17.9979 18.4148C21.0663 18.9714 24.005 16.9351 24.5616 13.8667L20.6258 13.1528ZM20.2861 11.8236C20.5791 12.1867 20.7146 12.663 20.6258 13.1528L24.5616 13.8667C24.8666 12.1853 24.3908 10.5407 23.3988 9.31149L20.2861 11.8236ZM17.2181 6.41838L20.0987 11.547L23.5862 9.58812L20.7057 4.45955L17.2181 6.41838ZM20.2809 8.9868C20.658 8.19153 20.8069 7.24239 20.8758 6.65581C20.914 6.33071 20.9351 6.0435 20.9468 5.83675C20.9527 5.73268 20.9563 5.64721 20.9585 5.58542C20.9596 5.55448 20.9603 5.52935 20.9608 5.51066C20.961 5.50131 20.9612 5.49356 20.9613 5.48748C20.9614 5.48445 20.9615 5.48183 20.9615 5.47963C20.9615 5.47854 20.9615 5.47755 20.9616 5.47667C20.9616 5.47623 20.9616 5.47581 20.9616 5.47543C20.9616 5.47523 20.9616 5.47496 20.9616 5.47487C20.9616 5.4746 20.9616 5.47435 18.9619 5.43896C16.9622 5.40358 16.9622 5.40333 16.9622 5.4031C16.9622 5.40303 16.9622 5.4028 16.9622 5.40266C16.9622 5.40237 16.9622 5.40212 16.9622 5.40189C16.9623 5.40143 16.9623 5.40106 16.9623 5.4008C16.9623 5.40027 16.9623 5.40014 16.9623 5.4004C16.9623 5.40092 16.9622 5.40298 16.9621 5.4065C16.9619 5.41357 16.9616 5.42646 16.9609 5.4446C16.9597 5.48097 16.9573 5.53787 16.9532 5.61068C16.9449 5.75769 16.9297 5.96228 16.9031 6.1893C16.8423 6.70693 16.7471 7.10328 16.6666 7.27306L20.2809 8.9868ZM18.5746 11.1497C19.0842 10.6784 19.848 9.89975 20.2809 8.9868L16.6666 7.27306C16.5793 7.45721 16.3001 7.80479 15.8587 8.21308L18.5746 11.1497Z" fill="white" mask="url(#path-4-inside-2_74_22)"/>
<mask id="path-6-inside-3_74_22" fill="white">
<path fill-rule="evenodd" clip-rule="evenodd" d="M17.9936 12.3481C17.4504 12.5093 16.9803 12.9021 16.7399 13.4637C16.3112 14.4655 16.7758 15.6252 17.7776 16.0539C18.7794 16.4826 19.9391 16.018 20.3678 15.0162C20.6026 14.4674 20.5694 13.8712 20.3266 13.3737L19.4261 10.321C19.4261 10.321 19.2018 11.2277 18.8439 11.6815C18.6406 11.9394 18.2975 12.1735 17.9936 12.3481Z"/>
</mask>
<path fill-rule="evenodd" clip-rule="evenodd" d="M17.9936 12.3481C17.4504 12.5093 16.9803 12.9021 16.7399 13.4637C16.3112 14.4655 16.7758 15.6252 17.7776 16.0539C18.7794 16.4826 19.9391 16.018 20.3678 15.0162C20.6026 14.4674 20.5694 13.8712 20.3266 13.3737L19.4261 10.321C19.4261 10.321 19.2018 11.2277 18.8439 11.6815C18.6406 11.9394 18.2975 12.1735 17.9936 12.3481Z" fill="white"/>
<path d="M17.9936 12.3481L18.5626 14.2655L18.787 14.1989L18.99 14.0823L17.9936 12.3481ZM20.3266 13.3737L18.4083 13.9396L18.4557 14.1004L18.5293 14.251L20.3266 13.3737ZM19.4261 10.321L21.3444 9.75518L19.2571 2.67889L17.4847 9.84057L19.4261 10.321ZM18.8439 11.6815L17.2734 10.4432L18.8439 11.6815ZM18.5786 14.2506C18.579 14.2499 18.5783 14.2515 18.5763 14.2542C18.5744 14.2568 18.5723 14.259 18.5703 14.2608C18.5666 14.264 18.5641 14.265 18.5626 14.2655L17.4247 10.4307C16.3356 10.7539 15.3855 11.5453 14.9012 12.6769L18.5786 14.2506ZM18.5645 14.2152C18.5638 14.2149 18.565 14.2154 18.5673 14.217C18.5695 14.2185 18.5717 14.2203 18.5735 14.2223C18.577 14.2259 18.5784 14.2286 18.5789 14.2299C18.5794 14.2312 18.5803 14.2341 18.5803 14.2392C18.5803 14.2419 18.58 14.2447 18.5795 14.2473C18.5789 14.2501 18.5783 14.2513 18.5786 14.2506L14.9012 12.6769C14.038 14.6942 14.9735 17.0293 16.9908 17.8926L18.5645 14.2152ZM18.5291 14.2294C18.5288 14.2301 18.5293 14.2288 18.5309 14.2265C18.5324 14.2243 18.5342 14.2222 18.5361 14.2203C18.5398 14.2168 18.5425 14.2155 18.5438 14.2149C18.5451 14.2144 18.548 14.2135 18.5531 14.2135C18.5558 14.2135 18.5586 14.2138 18.5612 14.2144C18.564 14.2149 18.5652 14.2155 18.5645 14.2152L16.9908 17.8926C19.0081 18.7559 21.3432 17.8204 22.2065 15.8031L18.5291 14.2294ZM18.5293 14.251C18.5286 14.2496 18.5276 14.2471 18.5274 14.2422C18.5273 14.2394 18.5275 14.2364 18.5281 14.2333C18.5287 14.2301 18.5294 14.2287 18.5291 14.2294L22.2065 15.8031C22.6796 14.6975 22.6108 13.494 22.1239 12.4965L18.5293 14.251ZM17.5078 10.8869L18.4083 13.9396L22.2449 12.8079L21.3444 9.75518L17.5078 10.8869ZM20.4145 12.9198C20.8077 12.4211 21.0411 11.8175 21.1535 11.5015C21.2205 11.3132 21.2718 11.1461 21.3068 11.0253C21.3244 10.9642 21.3384 10.9132 21.3485 10.8753C21.3536 10.8562 21.3577 10.8404 21.3609 10.828C21.3625 10.8218 21.3638 10.8164 21.3649 10.812C21.3655 10.8098 21.366 10.8078 21.3664 10.8061C21.3666 10.8052 21.3668 10.8044 21.367 10.8036C21.3671 10.8032 21.3672 10.8029 21.3673 10.8025C21.3674 10.8023 21.3674 10.8021 21.3674 10.802C21.3675 10.8017 21.3676 10.8015 19.4261 10.321C17.4847 9.84057 17.4848 9.84033 17.4848 9.84009C17.4848 9.84002 17.4849 9.83979 17.4849 9.83964C17.485 9.83934 17.4851 9.83906 17.4851 9.83879C17.4853 9.83824 17.4854 9.83775 17.4855 9.83731C17.4857 9.83643 17.4859 9.83575 17.486 9.83527C17.4863 9.8343 17.4863 9.83411 17.4862 9.83467C17.4859 9.83579 17.4848 9.83983 17.4831 9.84648C17.4795 9.85986 17.4731 9.88326 17.4642 9.91427C17.4459 9.97762 17.4188 10.0655 17.3849 10.1607C17.2957 10.4114 17.238 10.4881 17.2734 10.4432L20.4145 12.9198ZM18.99 14.0823C19.334 13.8846 19.9614 13.4944 20.4145 12.9198L17.2734 10.4432C17.2989 10.4109 17.3129 10.3989 17.3057 10.4056C17.2994 10.4115 17.2823 10.4266 17.2516 10.4497C17.188 10.4978 17.1009 10.5544 16.9973 10.6139L18.99 14.0823Z" fill="white" mask="url(#path-6-inside-3_74_22)"/>
</g>
<defs>
<clipPath id="clip0_74_22">
<rect width="32" height="32" fill="white"/>
</clipPath>
</defs>
</svg>
