<svg width="32" height="32" viewBox="0 0 32 32" fill="none" xmlns="http://www.w3.org/2000/svg">
<g clip-path="url(#clip0_74_22)">
<line x1="17.163" y1="16.1015" x2="6.4586" y2="26.8058" stroke="white" stroke-width="2"/>
<mask id="path-2-inside-1_74_22" fill="white">
<path fill-rule="evenodd" clip-rule="evenodd" d="M18.6882 7.91251C17.3763 8.51576 16.3327 9.67673 15.9298 11.1805C15.2111 13.8626 16.8028 16.6195 19.485 17.3382C22.1671 18.0569 24.924 16.4652 25.6427 13.783C26.0364 12.3136 25.7367 10.8217 24.9442 9.65488L21.5677 2.28085C21.5677 2.28085 21.3299 4.649 20.5917 5.92318C20.1721 6.64748 19.3915 7.36214 18.6882 7.91251Z"/>
</mask>
<path d="M18.6882 7.91251L19.106 8.82106L19.2123 8.77216L19.3045 8.70003L18.6882 7.91251ZM24.9442 9.65488L24.0349 10.0712L24.0698 10.1474L24.1169 10.2168L24.9442 9.65488ZM21.5677 2.28085L22.4769 1.86453L20.9411 -1.48945L20.5727 2.18096L21.5677 2.28085ZM20.5917 5.92318L19.7264 5.42187L20.5917 5.92318ZM16.8957 11.4393C17.2184 10.235 18.0528 9.30536 19.106 8.82106L18.2704 7.00396C16.6999 7.72616 15.447 9.1185 14.9639 10.9216L16.8957 11.4393ZM19.7438 16.3723C17.5951 15.7965 16.32 13.5879 16.8957 11.4393L14.9639 10.9216C14.1023 14.1372 16.0106 17.4425 19.2262 18.3041L19.7438 16.3723ZM24.6768 13.5242C24.101 15.6729 21.8925 16.948 19.7438 16.3723L19.2262 18.3041C22.4418 19.1657 25.747 17.2574 26.6086 14.0418L24.6768 13.5242ZM24.1169 10.2168C24.7532 11.1534 24.9921 12.3472 24.6768 13.5242L26.6086 14.0418C27.0807 12.28 26.7203 10.49 25.7714 9.09301L24.1169 10.2168ZM20.6584 2.69717L24.0349 10.0712L25.8534 9.23856L22.4769 1.86453L20.6584 2.69717ZM21.457 6.4245C21.9128 5.63766 22.1816 4.59045 22.3367 3.82213C22.4175 3.42228 22.4734 3.06598 22.5093 2.80924C22.5273 2.68053 22.5404 2.57595 22.5491 2.50239C22.5534 2.46559 22.5567 2.43649 22.5589 2.41594C22.5601 2.40567 22.5609 2.39752 22.5615 2.39162C22.5618 2.38867 22.5621 2.38628 22.5623 2.38446C22.5624 2.38355 22.5624 2.38278 22.5625 2.38216C22.5625 2.38185 22.5626 2.38158 22.5626 2.38134C22.5626 2.38122 22.5626 2.38107 22.5626 2.38101C22.5626 2.38087 22.5627 2.38073 21.5677 2.28085C20.5727 2.18096 20.5727 2.18085 20.5727 2.18074C20.5727 2.18072 20.5727 2.18062 20.5727 2.18058C20.5727 2.18048 20.5727 2.18042 20.5727 2.1804C20.5727 2.18035 20.5727 2.18045 20.5727 2.18068C20.5726 2.18115 20.5725 2.18217 20.5724 2.18374C20.572 2.18688 20.5715 2.19219 20.5707 2.19957C20.5691 2.21433 20.5665 2.23735 20.5629 2.2678C20.5557 2.32872 20.5444 2.41911 20.5286 2.53232C20.4969 2.75943 20.4473 3.0748 20.3763 3.42626C20.228 4.16056 20.0088 4.93452 19.7264 5.42187L21.457 6.4245ZM19.3045 8.70003C20.026 8.13537 20.9362 7.32327 21.457 6.4245L19.7264 5.42187C19.4079 5.97168 18.7569 6.5889 18.0719 7.12499L19.3045 8.70003Z" fill="white" mask="url(#path-2-inside-1_74_22)"/>
<mask id="path-4-inside-2_74_22" fill="white">
<path fill-rule="evenodd" clip-rule="evenodd" d="M19.3663 9.953C18.352 10.2137 17.457 10.9071 16.9748 11.928C16.1147 13.7491 16.8937 15.9225 18.7147 16.7826C20.5357 17.6427 22.7092 16.8636 23.5693 15.0426C24.0405 14.045 24.0197 12.9415 23.6051 12.0062L22.1501 6.30686C22.1501 6.30686 21.6739 7.96606 20.9821 8.7798C20.5889 9.24234 19.9394 9.65128 19.3663 9.953Z"/>
</mask>
<path d="M19.3663 9.953L19.8641 11.8901L20.0908 11.8318L20.298 11.7227L19.3663 9.953ZM23.6051 12.0062L21.6673 12.5009L21.7087 12.6634L21.7767 12.8167L23.6051 12.0062ZM22.1501 6.30686L24.088 5.81214L22.263 -1.33632L20.2277 5.75512L22.1501 6.30686ZM20.9821 8.7798L19.4584 7.4844L19.4584 7.4844L20.9821 8.7798ZM18.7832 12.7822C19.0006 12.3218 19.4013 12.009 19.8641 11.8901L18.8685 8.01595C17.3027 8.41835 15.9133 9.49239 15.1663 11.0739L18.7832 12.7822ZM19.5688 14.9741C18.7466 14.5858 18.3949 13.6044 18.7832 12.7822L15.1663 11.0739C13.8345 13.8937 15.0408 17.2592 17.8606 18.591L19.5688 14.9741ZM21.7608 14.1885C21.3725 15.0107 20.3911 15.3625 19.5688 14.9741L17.8606 18.591C20.6804 19.9228 24.0459 18.7165 25.3777 15.8967L21.7608 14.1885ZM21.7767 12.8167C21.9657 13.2432 21.9734 13.7384 21.7608 14.1885L25.3777 15.8967C26.1075 14.3515 26.0736 12.6398 25.4336 11.1958L21.7767 12.8167ZM20.2123 6.80158L21.6673 12.5009L25.543 11.5115L24.088 5.81214L20.2123 6.80158ZM22.5059 10.0752C23.076 9.40461 23.4655 8.52636 23.6838 7.97759C23.8049 7.67345 23.8996 7.4015 23.9644 7.20482C23.997 7.10582 24.0226 7.02419 24.0407 6.96507C24.0498 6.93547 24.057 6.91138 24.0623 6.89346C24.065 6.88449 24.0672 6.87705 24.0689 6.87122C24.0697 6.8683 24.0704 6.86578 24.071 6.86368C24.0713 6.86262 24.0716 6.86167 24.0719 6.86082C24.072 6.8604 24.0721 6.86 24.0722 6.85963C24.0723 6.85945 24.0723 6.85919 24.0724 6.85909C24.0724 6.85884 24.0725 6.8586 22.1501 6.30686C20.2277 5.75512 20.2278 5.75489 20.2279 5.75466C20.2279 5.75459 20.2279 5.75437 20.228 5.75424C20.2281 5.75397 20.2281 5.75372 20.2282 5.7535C20.2283 5.75305 20.2284 5.75271 20.2285 5.75245C20.2286 5.75195 20.2287 5.75182 20.2286 5.75207C20.2285 5.75257 20.2279 5.75454 20.2269 5.75792C20.2249 5.7647 20.2212 5.77706 20.2159 5.79442C20.2052 5.82921 20.1882 5.88356 20.1654 5.95283C20.1193 6.09268 20.0518 6.28638 19.9672 6.49877C19.7746 6.98303 19.5801 7.34124 19.4584 7.4844L22.5059 10.0752ZM20.298 11.7227C20.9121 11.3994 21.8515 10.845 22.5059 10.0752L19.4584 7.4844C19.3264 7.63968 18.9667 7.90315 18.4346 8.18327L20.298 11.7227Z" fill="white" mask="url(#path-4-inside-2_74_22)"/>
<mask id="path-6-inside-3_74_22" fill="white">
<path fill-rule="evenodd" clip-rule="evenodd" d="M19.4267 12.7299C18.8602 12.745 18.3045 13.0027 17.9269 13.4831C17.2535 14.3398 17.4022 15.5802 18.2589 16.2535C19.1156 16.9269 20.356 16.7783 21.0293 15.9216C21.3983 15.4523 21.5205 14.8678 21.4147 14.3244L21.335 11.1427C21.335 11.1427 20.8836 11.9604 20.4205 12.3061C20.1573 12.5026 19.7654 12.6399 19.4267 12.7299Z"/>
</mask>
<path fill-rule="evenodd" clip-rule="evenodd" d="M19.4267 12.7299C18.8602 12.745 18.3045 13.0027 17.9269 13.4831C17.2535 14.3398 17.4022 15.5802 18.2589 16.2535C19.1156 16.9269 20.356 16.7783 21.0293 15.9216C21.3983 15.4523 21.5205 14.8678 21.4147 14.3244L21.335 11.1427C21.335 11.1427 20.8836 11.9604 20.4205 12.3061C20.1573 12.5026 19.7654 12.6399 19.4267 12.7299Z" fill="white"/>
<path d="M19.4267 12.7299L19.4799 14.7292L19.7139 14.723L19.9402 14.6629L19.4267 12.7299ZM21.4147 14.3244L19.4153 14.3745L19.4195 14.5421L19.4515 14.7066L21.4147 14.3244ZM21.335 11.1427L23.3343 11.0926L23.1496 3.71719L19.5841 10.1761L21.335 11.1427ZM20.4205 12.3061L19.224 10.7035L20.4205 12.3061ZM19.4993 14.719C19.4998 14.7184 19.4988 14.7198 19.4962 14.7219C19.4937 14.7239 19.491 14.7255 19.4886 14.7267C19.4842 14.7289 19.4815 14.7292 19.4799 14.7292L19.3734 10.7306C18.2377 10.7609 17.1152 11.2794 16.3545 12.2471L19.4993 14.719ZM19.4948 14.6811C19.4942 14.6807 19.4953 14.6814 19.4971 14.6836C19.4988 14.6856 19.5004 14.688 19.5017 14.6903C19.5042 14.6947 19.5047 14.6977 19.5049 14.6991C19.5051 14.7005 19.5052 14.7035 19.5039 14.7084C19.5032 14.711 19.5022 14.7137 19.501 14.7161C19.4997 14.7186 19.4989 14.7196 19.4993 14.719L16.3545 12.2471C14.9985 13.9722 15.2978 16.47 17.0229 17.8259L19.4948 14.6811ZM19.4569 14.6857C19.4565 14.6863 19.4573 14.6852 19.4594 14.6834C19.4614 14.6816 19.4638 14.68 19.4661 14.6787C19.4706 14.6763 19.4735 14.6757 19.4749 14.6756C19.4763 14.6754 19.4793 14.6752 19.4842 14.6766C19.4868 14.6773 19.4895 14.6783 19.4919 14.6795C19.4944 14.6807 19.4954 14.6816 19.4948 14.6811L17.0229 17.8259C18.7481 19.1819 21.2458 18.8827 22.6018 17.1575L19.4569 14.6857ZM19.4515 14.7066C19.4512 14.7051 19.4509 14.7024 19.452 14.6976C19.4527 14.6949 19.4536 14.692 19.455 14.6893C19.4564 14.6863 19.4574 14.6851 19.4569 14.6857L22.6018 17.1575C23.3449 16.2121 23.5899 15.0318 23.3778 13.9422L19.4515 14.7066ZM19.3356 11.1928L19.4153 14.3745L23.414 14.2743L23.3343 11.0926L19.3356 11.1928ZM21.617 13.9087C22.1259 13.5288 22.5076 13.0062 22.698 12.73C22.8114 12.5655 22.9043 12.4174 22.9693 12.3097C23.0021 12.2553 23.0288 12.2096 23.0484 12.1756C23.0582 12.1585 23.0663 12.1442 23.0726 12.1331C23.0757 12.1275 23.0784 12.1227 23.0806 12.1187C23.0817 12.1167 23.0827 12.115 23.0836 12.1134C23.0841 12.1126 23.0845 12.1118 23.0848 12.1112C23.085 12.1108 23.0852 12.1105 23.0854 12.1102C23.0855 12.11 23.0856 12.1098 23.0857 12.1097C23.0858 12.1095 23.0859 12.1093 21.335 11.1427C19.5841 10.1761 19.5842 10.1759 19.5843 10.1757C19.5843 10.1756 19.5844 10.1754 19.5845 10.1753C19.5847 10.175 19.5848 10.1747 19.5849 10.1745C19.5852 10.174 19.5855 10.1736 19.5857 10.1732C19.5861 10.1724 19.5865 10.1718 19.5867 10.1713C19.5872 10.1705 19.5873 10.1703 19.587 10.1708C19.5864 10.1718 19.5844 10.1754 19.581 10.1814C19.574 10.1934 19.5618 10.2144 19.5452 10.242C19.5111 10.2984 19.4621 10.3763 19.4048 10.4595C19.2538 10.6786 19.1782 10.7377 19.224 10.7035L21.617 13.9087ZM19.9402 14.6629C20.3237 14.561 21.0307 14.3465 21.617 13.9087L19.224 10.7035C19.2569 10.6789 19.2736 10.671 19.2649 10.6756C19.2573 10.6796 19.2369 10.6897 19.2013 10.7042C19.1273 10.7341 19.0286 10.7663 18.9131 10.797L19.9402 14.6629Z" fill="white" mask="url(#path-6-inside-3_74_22)"/>
</g>
<defs>
<clipPath id="clip0_74_22">
<rect width="32" height="32" fill="white"/>
</clipPath>
</defs>
</svg>
