<svg width="32" height="32" viewBox="0 0 32 32" fill="none" xmlns="http://www.w3.org/2000/svg">
<path fill-rule="evenodd" clip-rule="evenodd" d="M6.43227 5.30604L7.09287 4.57237L9.8235 9.30197L12 9.07177L13.2876 7.30197L10.557 2.57237L11.5226 2.36711L14.3457 3.624L15.8907 6.30016L15.5677 9.3734L14.9071 10.1071L20.557 19.8929L21.5226 19.6876L24.3457 20.9445L25.8907 23.6207L25.5677 26.6939L24.9071 27.4276L22.1765 22.698L20 22.9282L18.7124 24.698L21.443 29.4276L20.4774 29.6328L17.6544 28.376L16.1093 25.6998L16.4323 22.6265L17.0929 21.8929L11.443 12.1071L10.4774 12.3123L7.65435 11.0554L6.10926 8.37928L6.43227 5.30604Z" fill="white"/>
</svg>
