<svg width="32" height="32" viewBox="0 0 32 32" fill="none" xmlns="http://www.w3.org/2000/svg">
<g clip-path="url(#clip0_9_347)">
<path fill-rule="evenodd" clip-rule="evenodd" d="M24.4743 1.96329L25.6074 2.60736L21.2308 6.98397L22.4111 9.58895L25.0161 10.7692L29.3926 6.39266L30.0367 7.52562L29.7521 11.2479L27.2756 13.7243L23.5533 14.0089L22.4203 13.3649L13.3649 22.4202L14.009 23.5533L13.7244 27.2756L11.248 29.752L7.52565 30.0366L6.39259 29.3926L10.7692 25.0159L9.58891 22.411L6.98393 21.2306L2.60734 25.6072L1.96332 24.4743L2.24793 20.752L4.72434 18.2756L8.44665 17.991L9.57961 18.635L18.635 9.57957L17.991 8.44662L18.2756 4.7243L20.752 2.24789L24.4743 1.96329Z" fill="white"/>
</g>
<defs>
<clipPath id="clip0_9_347">
<rect width="32" height="32" fill="white"/>
</clipPath>
</defs>
</svg>
