<svg width="16" height="32" viewBox="0 0 16 32" fill="none" xmlns="http://www.w3.org/2000/svg">
<path d="M0.6 23L6.22 9H9.62L15.2 23H10.92L8.68 16.88C8.53333 16.4667 8.40667 16.1133 8.3 15.82C8.19333 15.5267 8.1 15.2533 8.02 15C7.94 14.7333 7.86 14.4533 7.78 14.16C7.7 13.8533 7.62 13.4933 7.54 13.08H8.22C8.14 13.4933 8.06 13.8533 7.98 14.16C7.9 14.4533 7.81333 14.7333 7.72 15C7.64 15.2533 7.54 15.5267 7.42 15.82C7.31333 16.1133 7.18667 16.4667 7.04 16.88L4.8 23H0.6ZM3.4 20.92L4.66 17.98H11.16L12.3 20.92H3.4Z" fill="white"/>
</svg>
