<svg width="16" height="32" viewBox="0 0 16 32" fill="none" xmlns="http://www.w3.org/2000/svg">
<path d="M2.6 23V9H9.04C10.0533 9 10.9067 9.14 11.6 9.42C12.3067 9.7 12.84 10.0933 13.2 10.6C13.5733 11.1067 13.76 11.7 13.76 12.38C13.76 13.22 13.5667 13.9133 13.18 14.46C12.8067 15.0067 12.2533 15.3733 11.52 15.56L11.46 15.18C12.0733 15.3267 12.6067 15.5667 13.06 15.9C13.5133 16.22 13.8667 16.6133 14.12 17.08C14.3733 17.5467 14.5 18.08 14.5 18.68C14.5 19.4133 14.3667 20.0533 14.1 20.6C13.8333 21.1333 13.4533 21.58 12.96 21.94C12.48 22.3 11.92 22.5667 11.28 22.74C10.6533 22.9133 9.97333 23 9.24 23H2.6ZM6.6 19.6H9.12C9.37333 19.6 9.58667 19.56 9.76 19.48C9.93333 19.3867 10.0667 19.2533 10.16 19.08C10.2533 18.8933 10.3 18.6733 10.3 18.42C10.3 18.1933 10.2467 18.0067 10.14 17.86C10.0467 17.7 9.90667 17.58 9.72 17.5C9.53333 17.4067 9.3 17.36 9.02 17.36H6.6V19.6ZM6.6 14.48H8.3C8.60667 14.48 8.85333 14.44 9.04 14.36C9.24 14.28 9.38 14.1667 9.46 14.02C9.55333 13.86 9.6 13.6667 9.6 13.44C9.6 13.1333 9.49333 12.8867 9.28 12.7C9.08 12.5 8.74 12.4 8.26 12.4H6.6V14.48Z" fill="white"/>
</svg>
