<svg width="16" height="32" viewBox="0 0 16 32" fill="none" xmlns="http://www.w3.org/2000/svg">
<path d="M9.48 23.2C8.36 23.2 7.32667 23.02 6.38 22.66C5.44667 22.3 4.63333 21.8 3.94 21.16C3.26 20.5067 2.73333 19.7333 2.36 18.84C1.98667 17.9467 1.8 16.9667 1.8 15.9C1.8 14.8333 1.98667 13.8533 2.36 12.96C2.74667 12.0667 3.28667 11.3 3.98 10.66C4.67333 10.0067 5.49333 9.5 6.44 9.14C7.4 8.78 8.45333 8.6 9.6 8.6C10.2533 8.6 10.8933 8.68 11.52 8.84C12.16 8.98667 12.76 9.22 13.32 9.54C13.8933 9.84667 14.4133 10.24 14.88 10.72L12.3 13.74C12.1133 13.5133 11.8867 13.3067 11.62 13.12C11.3667 12.9333 11.0667 12.7867 10.72 12.68C10.3867 12.56 10 12.5 9.56 12.5C9.10667 12.5 8.67333 12.58 8.26 12.74C7.86 12.8867 7.50667 13.1067 7.2 13.4C6.90667 13.6933 6.67333 14.0533 6.5 14.48C6.32667 14.9067 6.24 15.4 6.24 15.96C6.24 16.4667 6.32667 16.9267 6.5 17.34C6.67333 17.7533 6.92 18.1067 7.24 18.4C7.56 18.6933 7.94667 18.92 8.4 19.08C8.85333 19.24 9.36 19.32 9.92 19.32C10.32 19.32 10.7 19.26 11.06 19.14C11.42 19.02 11.7467 18.8667 12.04 18.68C12.3333 18.48 12.5867 18.26 12.8 18.02L14.86 21.26C14.5133 21.6333 14.0533 21.9667 13.48 22.26C12.9067 22.5533 12.2733 22.7867 11.58 22.96C10.8867 23.12 10.1867 23.2 9.48 23.2Z" fill="white"/>
</svg>
