<svg width="16" height="32" viewBox="0 0 16 32" fill="none" xmlns="http://www.w3.org/2000/svg">
<path d="M1.6 23V9H7.76C8.81333 9 9.78 9.17333 10.66 9.52C11.54 9.86667 12.3067 10.3533 12.96 10.98C13.6133 11.5933 14.1133 12.3267 14.46 13.18C14.82 14.0333 15 14.9733 15 16C15 17.0133 14.82 17.9533 14.46 18.82C14.1133 19.6733 13.6133 20.4133 12.96 21.04C12.3067 21.6533 11.54 22.1333 10.66 22.48C9.78 22.8267 8.81333 23 7.76 23H1.6ZM5.92 20.34L5.18 19.32H7.66C8.1 19.32 8.5 19.24 8.86 19.08C9.22 18.9067 9.53333 18.6733 9.8 18.38C10.0667 18.0867 10.2733 17.74 10.42 17.34C10.5667 16.9267 10.64 16.48 10.64 16C10.64 15.52 10.5667 15.08 10.42 14.68C10.2733 14.2667 10.0667 13.9133 9.8 13.62C9.53333 13.3267 9.22 13.1 8.86 12.94C8.5 12.7667 8.1 12.68 7.66 12.68H5.12L5.92 11.7V20.34Z" fill="white"/>
</svg>
