<svg width="16" height="32" viewBox="0 0 16 32" fill="none" xmlns="http://www.w3.org/2000/svg">
<path d="M8.28 23.2C7.08 23.2 6.01333 23.02 5.08 22.66C4.16 22.3 3.38 21.7933 2.74 21.14C2.1 20.4867 1.61333 19.7133 1.28 18.82C0.96 17.9267 0.8 16.9533 0.8 15.9C0.8 14.8333 0.98 13.86 1.34 12.98C1.71333 12.0867 2.24667 11.3133 2.94 10.66C3.63333 10.0067 4.45333 9.5 5.4 9.14C6.36 8.78 7.42667 8.6 8.6 8.6C9.41333 8.6 10.1667 8.7 10.86 8.9C11.5667 9.1 12.2 9.37333 12.76 9.72C13.3333 10.0533 13.8267 10.4333 14.24 10.86L11.68 13.58C11.4133 13.3267 11.1267 13.1067 10.82 12.92C10.5133 12.72 10.1733 12.5667 9.8 12.46C9.42667 12.34 9.00667 12.28 8.54 12.28C8.06 12.28 7.62 12.3733 7.22 12.56C6.82 12.7333 6.47333 12.98 6.18 13.3C5.88667 13.62 5.65333 14.0067 5.48 14.46C5.32 14.9 5.24 15.38 5.24 15.9C5.24 16.42 5.32667 16.9067 5.5 17.36C5.67333 17.8 5.91333 18.18 6.22 18.5C6.52667 18.82 6.89333 19.0733 7.32 19.26C7.74667 19.4333 8.21333 19.52 8.72 19.52C9.06667 19.52 9.38 19.4667 9.66 19.36C9.95333 19.24 10.2 19.0867 10.4 18.9C10.6133 18.7 10.78 18.4667 10.9 18.2C11.02 17.92 11.08 17.62 11.08 17.3V16.72L11.64 17.68H8.08V14.64H14.96C14.9733 14.7867 14.9867 15.0267 15 15.36C15.0267 15.6933 15.04 16.0267 15.04 16.36C15.0533 16.68 15.06 16.9 15.06 17.02C15.06 17.9133 14.8933 18.74 14.56 19.5C14.2267 20.26 13.7533 20.9133 13.14 21.46C12.54 22.0067 11.8267 22.4333 11 22.74C10.1733 23.0467 9.26667 23.2 8.28 23.2Z" fill="white"/>
</svg>
