<svg width="16" height="32" viewBox="0 0 16 32" fill="none" xmlns="http://www.w3.org/2000/svg">
<path d="M6.3 23.2C5.74 23.2 5.22 23.14 4.74 23.02C4.26 22.9133 3.82667 22.76 3.44 22.56C3.05333 22.3467 2.70667 22.0867 2.4 21.78C2.10667 21.46 1.84667 21.1 1.62 20.7L4 18.24C4.12 18.4133 4.24 18.5733 4.36 18.72C4.49333 18.8667 4.62667 18.9933 4.76 19.1C4.89333 19.1933 5.03333 19.2733 5.18 19.34C5.34 19.3933 5.5 19.42 5.66 19.42C5.87333 19.42 6.06 19.3733 6.22 19.28C6.38 19.1733 6.5 19.0333 6.58 18.86C6.67333 18.6733 6.72 18.4533 6.72 18.2V12.68H4.14V9H13.04V12.68H10.88V18.74C10.88 19.46 10.76 20.0933 10.52 20.64C10.28 21.1867 9.95333 21.6533 9.54 22.04C9.12667 22.4267 8.64 22.72 8.08 22.92C7.53333 23.1067 6.94 23.2 6.3 23.2Z" fill="white"/>
</svg>
