<svg width="16" height="32" viewBox="0 0 16 32" fill="none" xmlns="http://www.w3.org/2000/svg">
<g clip-path="url(#clip0_386_462)">
<path d="M1.6 23V9H5.46L11.9 17.9L10.98 17.62C10.9133 17.0867 10.8533 16.62 10.8 16.22C10.76 15.82 10.72 15.4533 10.68 15.12C10.6533 14.7733 10.6267 14.4333 10.6 14.1C10.5867 13.7667 10.58 13.4 10.58 13C10.58 12.6 10.58 12.1333 10.58 11.6V9H14.74V23H10.84L3.74 13.2L5.36 13.68C5.42667 14.1733 5.48 14.6067 5.52 14.98C5.57333 15.34 5.61333 15.6733 5.64 15.98C5.66667 16.2867 5.68667 16.5933 5.7 16.9C5.72667 17.1933 5.74 17.5267 5.74 17.9C5.75333 18.26 5.76 18.6867 5.76 19.18V23H1.6Z" fill="white"/>
</g>
<defs>
<clipPath id="clip0_386_462">
<rect width="16" height="32" fill="white"/>
</clipPath>
</defs>
</svg>
