<svg width="16" height="32" viewBox="0 0 16 32" fill="none" xmlns="http://www.w3.org/2000/svg">
<g clip-path="url(#clip0_386_464)">
<path d="M8.36 23.2C7.25333 23.2 6.24 23.02 5.32 22.66C4.4 22.3 3.6 21.7933 2.92 21.14C2.24 20.4867 1.71333 19.7133 1.34 18.82C0.98 17.9267 0.8 16.9533 0.8 15.9C0.8 14.8333 0.98 13.86 1.34 12.98C1.71333 12.0867 2.24 11.3133 2.92 10.66C3.6 10.0067 4.4 9.5 5.32 9.14C6.24 8.78 7.24667 8.6 8.34 8.6C9.44667 8.6 10.4533 8.78 11.36 9.14C12.28 9.5 13.08 10.0067 13.76 10.66C14.44 11.3133 14.96 12.0867 15.32 12.98C15.6933 13.86 15.88 14.8267 15.88 15.88C15.88 16.9467 15.6933 17.9267 15.32 18.82C14.96 19.7133 14.44 20.4867 13.76 21.14C13.08 21.7933 12.28 22.3 11.36 22.66C10.4533 23.02 9.45333 23.2 8.36 23.2ZM8.34 19.2C8.79333 19.2 9.20667 19.12 9.58 18.96C9.96667 18.8 10.3 18.5733 10.58 18.28C10.8733 17.9733 11.0933 17.62 11.24 17.22C11.4 16.82 11.48 16.38 11.48 15.9C11.48 15.42 11.4 14.98 11.24 14.58C11.0933 14.18 10.8733 13.8333 10.58 13.54C10.3 13.2333 9.96667 13 9.58 12.84C9.20667 12.68 8.79333 12.6 8.34 12.6C7.88667 12.6 7.46667 12.68 7.08 12.84C6.70667 13 6.37333 13.2333 6.08 13.54C5.8 13.8333 5.58 14.18 5.42 14.58C5.27333 14.98 5.2 15.42 5.2 15.9C5.2 16.38 5.27333 16.82 5.42 17.22C5.58 17.62 5.8 17.9733 6.08 18.28C6.37333 18.5733 6.70667 18.8 7.08 18.96C7.46667 19.12 7.88667 19.2 8.34 19.2Z" fill="white"/>
</g>
<defs>
<clipPath id="clip0_386_464">
<rect width="16" height="32" fill="white"/>
</clipPath>
</defs>
</svg>
