<svg width="16" height="32" viewBox="0 0 16 32" fill="none" xmlns="http://www.w3.org/2000/svg">
<path d="M2.6 23V9H8.9C9.86 9 10.7133 9.20667 11.46 9.62C12.2067 10.0333 12.7933 10.6 13.22 11.32C13.6467 12.04 13.86 12.8667 13.86 13.8C13.86 14.7733 13.6467 15.64 13.22 16.4C12.7933 17.16 12.2067 17.76 11.46 18.2C10.7133 18.6267 9.86 18.84 8.9 18.84H6.92V23H2.6ZM6.84 15.16H8.1C8.35333 15.16 8.58 15.1133 8.78 15.02C8.98 14.9133 9.13333 14.7667 9.24 14.58C9.36 14.3933 9.42 14.16 9.42 13.88C9.42 13.6 9.36 13.3733 9.24 13.2C9.13333 13.0267 8.98 12.9 8.78 12.82C8.58 12.7267 8.35333 12.68 8.1 12.68H6.84V15.16Z" fill="white"/>
</svg>
