<svg width="16" height="32" viewBox="0 0 16 32" fill="none" xmlns="http://www.w3.org/2000/svg">
<path d="M2.6 23V9H9.16C10.1333 9 11 9.19333 11.76 9.58C12.52 9.96667 13.1133 10.4933 13.54 11.16C13.9667 11.8267 14.18 12.5933 14.18 13.46C14.18 14.4333 13.9667 15.2867 13.54 16.02C13.1133 16.7533 12.52 17.3267 11.76 17.74C11 18.14 10.1333 18.34 9.16 18.34H6.64V23H2.6ZM9.94 23L6.38 16.68L10.8 16.18L14.76 23H9.94ZM6.64 15.34H8.48C8.81333 15.34 9.08667 15.28 9.3 15.16C9.52667 15.0267 9.69333 14.8467 9.8 14.62C9.92 14.3933 9.98 14.12 9.98 13.8C9.98 13.5067 9.92 13.26 9.8 13.06C9.69333 12.8467 9.52 12.6867 9.28 12.58C9.05333 12.46 8.76 12.4 8.4 12.4H6.64V15.34Z" fill="white"/>
</svg>
