<svg width="16" height="32" viewBox="0 0 16 32" fill="none" xmlns="http://www.w3.org/2000/svg">
<path d="M7.5 23.2C6.44667 23.2 5.51333 23.0867 4.7 22.86C3.9 22.62 3.19333 22.2867 2.58 21.86C1.98 21.4333 1.44 20.9333 0.96 20.36L3.46 17.56C4.12667 18.4133 4.82 18.98 5.54 19.26C6.27333 19.5267 6.96 19.66 7.6 19.66C7.85333 19.66 8.08 19.64 8.28 19.6C8.48 19.5467 8.63333 19.4667 8.74 19.36C8.84667 19.2533 8.9 19.1067 8.9 18.92C8.9 18.7467 8.84 18.6 8.72 18.48C8.61333 18.36 8.46667 18.26 8.28 18.18C8.09333 18.0867 7.88667 18.0133 7.66 17.96C7.44667 17.8933 7.23333 17.84 7.02 17.8C6.82 17.76 6.64 17.72 6.48 17.68C5.68 17.4933 4.98 17.2667 4.38 17C3.78 16.7333 3.28 16.4133 2.88 16.04C2.48 15.6667 2.18 15.24 1.98 14.76C1.79333 14.28 1.7 13.74 1.7 13.14C1.7 12.46 1.85333 11.84 2.16 11.28C2.48 10.72 2.9 10.24 3.42 9.84C3.95333 9.44 4.55333 9.13333 5.22 8.92C5.9 8.70667 6.6 8.6 7.32 8.6C8.37333 8.6 9.25333 8.7 9.96 8.9C10.6667 9.08667 11.26 9.36 11.74 9.72C12.22 10.08 12.6333 10.5 12.98 10.98L10.46 13.4C10.1667 13.12 9.86 12.8933 9.54 12.72C9.22 12.5333 8.88667 12.4 8.54 12.32C8.20667 12.2267 7.87333 12.18 7.54 12.18C7.23333 12.18 6.97333 12.2067 6.76 12.26C6.54667 12.3 6.38 12.3733 6.26 12.48C6.14 12.5733 6.08 12.7067 6.08 12.88C6.08 13.0533 6.15333 13.2 6.3 13.32C6.46 13.4267 6.65333 13.52 6.88 13.6C7.12 13.68 7.35333 13.7467 7.58 13.8C7.82 13.84 8.02 13.8733 8.18 13.9C8.91333 14.0333 9.58667 14.22 10.2 14.46C10.8133 14.6867 11.3467 14.98 11.8 15.34C12.2667 15.6867 12.62 16.1267 12.86 16.66C13.1133 17.18 13.24 17.8 13.24 18.52C13.24 19.5467 12.98 20.4067 12.46 21.1C11.9533 21.7933 11.2667 22.32 10.4 22.68C9.53333 23.0267 8.56667 23.2 7.5 23.2Z" fill="white"/>
</svg>
