<svg width="16" height="32" viewBox="0 0 16 32" fill="none" xmlns="http://www.w3.org/2000/svg">
<path d="M7.84 23.12C6.62667 23.12 5.54667 22.8867 4.6 22.42C3.66667 21.94 2.93333 21.2867 2.4 20.46C1.86667 19.6333 1.6 18.6867 1.6 17.62V9H5.96V17.44C5.96 17.8267 6.04 18.1733 6.2 18.48C6.36 18.7733 6.58 19.0067 6.86 19.18C7.15333 19.3533 7.48 19.44 7.84 19.44C8.22667 19.44 8.56667 19.3533 8.86 19.18C9.15333 19.0067 9.38667 18.7733 9.56 18.48C9.73333 18.1733 9.82 17.8267 9.82 17.44V9H14.08V17.62C14.08 18.6867 13.8133 19.6333 13.28 20.46C12.7467 21.2867 12.0067 21.94 11.06 22.42C10.1267 22.8867 9.05333 23.12 7.84 23.12Z" fill="white"/>
</svg>
