<svg width="32" height="32" viewBox="0 0 32 32" fill="none" xmlns="http://www.w3.org/2000/svg">
<path d="M9.78 23L5.8 9H10.12L11.76 15.32C11.8667 15.7333 11.9533 16.1333 12.02 16.52C12.1 16.8933 12.16 17.24 12.2 17.56C12.24 17.88 12.2667 18.1733 12.28 18.44C12.3067 18.7067 12.32 18.9333 12.32 19.12H12C12 18.7867 12.0067 18.4333 12.02 18.06C12.0467 17.6733 12.1 17.26 12.18 16.82C12.26 16.3667 12.3933 15.8667 12.58 15.32L14.32 10.38H17.62L19.36 15.32C19.5467 15.8533 19.6933 16.3467 19.8 16.8C19.9067 17.24 19.98 17.6533 20.02 18.04C20.0733 18.4133 20.1 18.7733 20.1 19.12H19.8C19.8 18.96 19.8 18.78 19.8 18.58C19.8 18.38 19.8 18.16 19.8 17.92C19.8133 17.68 19.8333 17.4267 19.86 17.16C19.8867 16.88 19.9267 16.5867 19.98 16.28C20.0333 15.9733 20.1 15.6533 20.18 15.32L21.82 9H26L21.98 23H18.58L15.54 15.46H16.08L13.38 23H9.78Z" fill="white"/>
</svg>
