<svg width="32" height="32" viewBox="0 0 32 32" fill="none" xmlns="http://www.w3.org/2000/svg">
<g clip-path="url(#clip0_11_84)">
<path fill-rule="evenodd" clip-rule="evenodd" d="M24.4559 5.3934L22.7451 11.3468L19.5441 13.1335L12.435 20.2426L15.2635 23.0711L13.8493 24.4853L11.0208 21.6569L10.3137 20.9497L6.58899 24.6745C6.76717 25.3417 6.59453 26.0831 6.07108 26.6066C5.29003 27.3876 4.0237 27.3876 3.24265 26.6066C2.4616 25.8256 2.4616 24.5592 3.24265 23.7782C3.76611 23.2547 4.50754 23.0821 5.17477 23.2603L8.8995 19.5355L8.1924 18.8284L5.36397 16L6.77818 14.5858L9.60661 17.4142L16.7157 10.3051L18.5025 7.10414L24.4559 5.3934Z" fill="white"/>
<path fill-rule="evenodd" clip-rule="evenodd" d="M7.09188 5.24265L13.0453 6.95339L14.832 10.1544L21.9411 17.2635L24.7696 14.435L26.1838 15.8493L23.3553 18.6777L22.6482 19.3848L26.373 23.1095C27.0402 22.9313 27.7816 23.104 28.3051 23.6274C29.0861 24.4085 29.0861 25.6748 28.3051 26.4559C27.524 27.2369 26.2577 27.2369 25.4767 26.4559C24.9532 25.9324 24.7806 25.191 24.9587 24.5237L21.234 20.799L20.5269 21.5061L17.6985 24.3345L16.2843 22.9203L19.1127 20.0919L12.0036 12.9828L8.80263 11.196L7.09188 5.24265Z" fill="white"/>
</g>
<defs>
<clipPath id="clip0_11_84">
<rect width="32" height="32" fill="white"/>
</clipPath>
</defs>
</svg>
