<svg width="32" height="32" viewBox="0 0 32 32" fill="none" xmlns="http://www.w3.org/2000/svg">
<g clip-path="url(#clip0_36_282)">
<line x1="4.0763" y1="15.6187" x2="28.1858" y2="15.6187" stroke="white"/>
<path d="M30.6311 15.5053L25.5167 17.8675V13.143L30.6311 15.5053Z" fill="white"/>
<path d="M9.1018 14.7845L3.46877 14.705L5.5101 10.4443L9.1018 14.7845Z" fill="white"/>
<path d="M8.64944 16.4891L4.85351 20.6518L3.01909 16.298L8.64944 16.4891Z" fill="white"/>
<mask id="path-5-inside-1_36_282" fill="white">
<path d="M13 1H16.5C21.1944 1 25 4.80558 25 9.5V22.5C25 27.1944 21.1944 31 16.5 31H13V1Z"/>
</mask>
<path d="M13 0H17.5C22.7467 0 27 4.25329 27 9.5H23C23 5.35786 20.0899 2 16.5 2H13V0ZM27 22.5C27 27.7467 22.7467 32 17.5 32H13V30H16.5C20.0899 30 23 26.6421 23 22.5H27ZM13 31V1V31ZM17.5 0C22.7467 0 27 4.25329 27 9.5V22.5C27 27.7467 22.7467 32 17.5 32L16.5 30C20.0899 30 23 26.6421 23 22.5V9.5C23 5.35786 20.0899 2 16.5 2L17.5 0Z" fill="white" mask="url(#path-5-inside-1_36_282)"/>
<line x1="13.4206" y1="1.27038" x2="4.42059" y2="15.2704" stroke="white"/>
<line x1="4.42875" y1="15.7428" x2="13.4287" y2="30.7428" stroke="white"/>
</g>
<defs>
<clipPath id="clip0_36_282">
<rect width="32" height="32" fill="white"/>
</clipPath>
</defs>
</svg>
