<svg width="32" height="32" viewBox="0 0 32 32" fill="none" xmlns="http://www.w3.org/2000/svg">
<mask id="path-1-inside-1_74_76" fill="white">
<path fill-rule="evenodd" clip-rule="evenodd" d="M10 7.42334L3.49975 9.1044C2.43036 9.38096 1.78764 10.4721 2.0642 11.5415L5.81986 26.0637C6.09642 27.1331 7.18752 27.7758 8.25691 27.4992L10.2573 26.9819C10.0935 26.6919 10 26.3568 10 26V7.42334ZM20.8225 27.8236L23.723 28.5737C24.7924 28.8503 25.8835 28.2075 26.16 27.1382L29.9157 12.6159C30.1922 11.5465 29.5495 10.4554 28.4801 10.1789L22 8.50303V26C22 26.8114 21.5168 27.5099 20.8225 27.8236Z"/>
</mask>
<path d="M3.49975 9.1044L3.75012 10.0726L3.49975 9.1044ZM10 7.42334H11V6.13183L9.74964 6.45519L10 7.42334ZM2.0642 11.5415L3.03235 11.2911L3.03235 11.2911L2.0642 11.5415ZM5.81986 26.0637L6.78801 25.8133L5.81986 26.0637ZM8.25691 27.4992L8.50729 28.4674H8.50729L8.25691 27.4992ZM10.2573 26.9819L10.5076 27.9501L11.7682 27.624L11.128 26.4902L10.2573 26.9819ZM23.723 28.5737L23.9734 27.6056H23.9733L23.723 28.5737ZM20.8225 27.8236L20.4108 26.9122L17.8235 28.0809L20.5721 28.7917L20.8225 27.8236ZM26.16 27.1382L25.1919 26.8878L26.16 27.1382ZM29.9157 12.6159L28.9475 12.3656L28.9475 12.3656L29.9157 12.6159ZM28.4801 10.1789L28.7305 9.21074L28.4801 10.1789ZM22 8.50303L22.2504 7.53488L21 7.21152V8.50303H22ZM3.75012 10.0726L10.2504 8.39149L9.74964 6.45519L3.24937 8.13625L3.75012 10.0726ZM3.03235 11.2911C2.89407 10.7564 3.21543 10.2108 3.75012 10.0726L3.24937 8.13625C1.64529 8.55109 0.681217 10.1877 1.09605 11.7918L3.03235 11.2911ZM6.78801 25.8133L3.03235 11.2911L1.09605 11.7918L4.85171 26.3141L6.78801 25.8133ZM8.00653 26.5311C7.47184 26.6694 6.92629 26.348 6.78801 25.8133L4.85171 26.3141C5.26655 27.9181 6.90321 28.8822 8.50729 28.4674L8.00653 26.5311ZM10.0069 26.0138L8.00653 26.5311L8.50729 28.4674L10.5076 27.9501L10.0069 26.0138ZM11.128 26.4902C11.0467 26.3463 11 26.1801 11 26H9.00002C9.00002 26.5336 9.1402 27.0374 9.38648 27.4736L11.128 26.4902ZM11 26V7.42334H9.00002V26H11ZM23.9733 27.6056L21.0728 26.8554L20.5721 28.7917L23.4726 29.5419L23.9733 27.6056ZM25.1919 26.8878C25.0536 27.4225 24.508 27.7438 23.9734 27.6056L23.4726 29.5419C25.0767 29.9567 26.7133 28.9926 27.1282 27.3885L25.1919 26.8878ZM28.9475 12.3656L25.1919 26.8878L27.1282 27.3885L30.8838 12.8663L28.9475 12.3656ZM28.2298 11.147C28.7645 11.2853 29.0858 11.8309 28.9475 12.3656L30.8838 12.8663C31.2987 11.2622 30.3346 9.62557 28.7305 9.21074L28.2298 11.147ZM21.7496 9.47118L28.2298 11.147L28.7305 9.21074L22.2504 7.53488L21.7496 9.47118ZM21 8.50303V26H23V8.50303H21ZM21 26C21 26.4041 20.7602 26.7544 20.4108 26.9122L21.2341 28.7349C22.2734 28.2655 23 27.2186 23 26H21Z" fill="white" mask="url(#path-1-inside-1_74_76)"/>
<rect x="10.213" y="5" width="12" height="22" rx="1" stroke="white" stroke-width="2"/>
</svg>
