<svg width="32" height="32" viewBox="0 0 32 32" fill="none" xmlns="http://www.w3.org/2000/svg">
<path d="M26.9 24L25.92 24.1989L26.0826 25H26.9V24ZM17.1 24V25H17.9174L18.08 24.1989L17.1 24ZM14.9 24L13.92 24.1989L14.0826 25H14.9V24ZM5.10002 24V25H5.91742L6.08003 24.1989L5.10002 24ZM5 4C3.34315 4 2 5.34315 2 7H4C4 6.44772 4.44772 6 5 6V4ZM27 4H5V6H27V4ZM30 7C30 5.34315 28.6569 4 27 4V6C27.5523 6 28 6.44772 28 7H30ZM30 22V7H28V22H30ZM27 25C28.6569 25 30 23.6569 30 22H28C28 22.5523 27.5523 23 27 23V25ZM26.9 25H27V23H26.9V25ZM22 21C23.934 21 25.5494 22.3736 25.92 24.1989L27.88 23.8011C27.324 21.062 24.9039 19 22 19V21ZM18.08 24.1989C18.4506 22.3736 20.066 21 22 21V19C19.0961 19 16.676 21.062 16.12 23.8011L18.08 24.1989ZM14.9 25H17.1V23H14.9V25ZM10 21C11.934 21 13.5494 22.3736 13.92 24.1989L15.88 23.8011C15.324 21.062 12.9039 19 10 19V21ZM6.08003 24.1989C6.45056 22.3736 8.066 21 10 21V19C7.09609 19 4.67601 21.062 4.12001 23.8011L6.08003 24.1989ZM5 25H5.10002V23H5V25ZM2 22C2 23.6569 3.34315 25 5 25V23C4.44771 23 4 22.5523 4 22H2ZM2 7V22H4V7H2Z" fill="white"/>
<circle cx="10" cy="25" r="3" fill="white"/>
<circle cx="22" cy="25" r="3" fill="white"/>
<line x1="4" y1="12.5" x2="28" y2="12.5" stroke="white"/>
</svg>
