<svg width="32" height="32" viewBox="0 0 32 32" fill="none" xmlns="http://www.w3.org/2000/svg">
<path fill-rule="evenodd" clip-rule="evenodd" d="M14.2261 4H17.6718V5.84497C23.5161 6.68095 28.0087 11.7072 28.0087 17.7827C28.0087 24.4432 22.6094 29.8425 15.9489 29.8425C9.28842 29.8425 3.88905 24.4432 3.88905 17.7827C3.88905 11.7071 8.38171 6.68092 14.2261 5.84496V4ZM15.9489 26.3969C20.7064 26.3969 24.5631 22.5402 24.5631 17.7827C24.5631 13.0252 20.7064 9.16851 15.9489 9.16851C11.1914 9.16851 7.33471 13.0252 7.33471 17.7827C7.33471 22.5402 11.1914 26.3969 15.9489 26.3969Z" fill="white"/>
<path d="M21.3033 12.1968L18.1213 19.6214L10.6967 22.8034L13.8787 15.3787L21.3033 12.1968Z" fill="white"/>
</svg>
