<svg width="32" height="32" viewBox="0 0 32 32" fill="none" xmlns="http://www.w3.org/2000/svg">
<path fill-rule="evenodd" clip-rule="evenodd" d="M3 5C3 3.89543 3.89543 3 5 3H27C28.1046 3 29 3.89543 29 5V27C29 28.1046 28.1046 29 27 29H5C3.89543 29 3 28.1046 3 27V5ZM8 7C8 5.89543 8.89543 5 10 5H17C18.1046 5 19 5.89543 19 7V9C19 10.1046 18.1046 11 17 11H10C8.89543 11 8 10.1046 8 9V7ZM9 14C7.89543 14 7 14.8954 7 16V24C7 25.1046 7.89543 26 9 26H23C24.1046 26 25 25.1046 25 24V16C25 14.8954 24.1046 14 23 14H9Z" fill="white"/>
<line x1="10" y1="17.5" x2="22" y2="17.5" stroke="white"/>
<line x1="10" y1="20.5" x2="22" y2="20.5" stroke="white"/>
<line x1="10" y1="23.5" x2="22" y2="23.5" stroke="white"/>
<path d="M17 6H14V10H15.5C16.3284 10 17 9.32843 17 8.5V6Z" fill="white"/>
</svg>
