<svg width="32" height="32" viewBox="0 0 32 32" fill="none" xmlns="http://www.w3.org/2000/svg">
<circle cx="16" cy="14" r="10" stroke="white" stroke-width="2"/>
<line x1="5.78572" y1="14.2858" x2="25.4286" y2="14.2858" stroke="white"/>
<line x1="7.35715" y1="8.78577" x2="24.6429" y2="8.78577" stroke="white"/>
<line x1="7.35715" y1="19" x2="24.6429" y2="19" stroke="white"/>
<line x1="16.1071" y1="4.17859" x2="16.1071" y2="23.8214" stroke="white"/>
<path d="M19.1429 4.57141C19.1429 4.57141 21.8929 10.4098 21.8929 14.3928C21.8929 18.3759 19.1429 24.2143 19.1429 24.2143" stroke="white"/>
<path d="M13.25 4.57141C13.25 4.57141 10.5 10.4098 10.5 14.3928C10.5 18.3759 13.25 24.2143 13.25 24.2143" stroke="white"/>
<mask id="path-8-inside-1_46_257" fill="white">
<path d="M30 14C30 16.613 29.2687 19.1739 27.8888 21.393C26.509 23.612 24.5356 25.4005 22.192 26.5562C19.8485 27.7119 17.2282 28.1887 14.6278 27.9326C12.0273 27.6765 9.55041 26.6977 7.47734 25.1069C5.40427 23.5162 3.81776 21.3771 2.89732 18.9315C1.97687 16.4859 1.75923 13.8316 2.26901 11.2687C2.77879 8.7059 3.99564 6.33688 5.7819 4.42971C7.56816 2.52254 9.85252 1.15334 12.3765 0.477038L12.7389 1.82933C10.4673 2.43801 8.41135 3.67028 6.80371 5.38674C5.19608 7.10319 4.10091 9.23531 3.64211 11.5419C3.1833 13.8484 3.37918 16.2373 4.20759 18.4384C5.03599 20.6394 6.46384 22.5646 8.32961 23.9963C10.1954 25.4279 12.4246 26.3088 14.765 26.5393C17.1054 26.7698 19.4636 26.3407 21.5728 25.3006C23.6821 24.2604 25.4581 22.6508 26.6999 20.6537C27.9418 18.6565 28.6 16.3517 28.6 14H30Z"/>
</mask>
<path d="M30 14C30 16.613 29.2687 19.1739 27.8888 21.393C26.509 23.612 24.5356 25.4005 22.192 26.5562C19.8485 27.7119 17.2282 28.1887 14.6278 27.9326C12.0273 27.6765 9.55041 26.6977 7.47734 25.1069C5.40427 23.5162 3.81776 21.3771 2.89732 18.9315C1.97687 16.4859 1.75923 13.8316 2.26901 11.2687C2.77879 8.7059 3.99564 6.33688 5.7819 4.42971C7.56816 2.52254 9.85252 1.15334 12.3765 0.477038L12.7389 1.82933C10.4673 2.43801 8.41135 3.67028 6.80371 5.38674C5.19608 7.10319 4.10091 9.23531 3.64211 11.5419C3.1833 13.8484 3.37918 16.2373 4.20759 18.4384C5.03599 20.6394 6.46384 22.5646 8.32961 23.9963C10.1954 25.4279 12.4246 26.3088 14.765 26.5393C17.1054 26.7698 19.4636 26.3407 21.5728 25.3006C23.6821 24.2604 25.4581 22.6508 26.6999 20.6537C27.9418 18.6565 28.6 16.3517 28.6 14H30Z" stroke="white" stroke-width="4" mask="url(#path-8-inside-1_46_257)"/>
<line x1="25" y1="29" x2="7" y2="29" stroke="white" stroke-width="2"/>
</svg>
