<svg width="32" height="32" viewBox="0 0 32 32" fill="none" xmlns="http://www.w3.org/2000/svg">
<path d="M20.9102 11.1858L20.2967 10.3961L19.1225 11.3084L20.4102 12.0518L20.9102 11.1858ZM16.2141 8.47448L15.7141 9.3405L17.0018 10.084L17.2048 8.61096L16.2141 8.47448ZM12.5 6.33013L13 5.4641L12.134 4.9641L11.634 5.83013L12.5 6.33013ZM9.85565 10.9103L8.98963 10.4103L8.24617 11.698L9.71916 11.9009L9.85565 10.9103ZM7.14435 15.6064L7.93403 14.9929L7.02178 13.8187L6.27832 15.1064L7.14435 15.6064ZM5.5 18.4545L4.63397 17.9545L4.13397 18.8205L5 19.3205L5.5 18.4545ZM10.9462 21.5988L11.5597 22.3885L12.7339 21.4763L11.4462 20.7328L10.9462 21.5988ZM15.6423 24.3101L16.1423 23.4441L14.8546 22.7007L14.6516 24.1736L15.6423 24.3101ZM19.3564 26.4545L18.8564 27.3205L19.7224 27.8205L20.2224 26.9545L19.3564 26.4545ZM21.5008 22.7404L22.3668 23.2404L23.1102 21.9527L21.6372 21.7497L21.5008 22.7404ZM24.2121 18.0442L23.4224 18.6578L24.3346 19.8319L25.0781 18.5442L24.2121 18.0442ZM26.3564 14.3301L27.2224 14.8301L27.7224 13.9641L26.8564 13.4641L26.3564 14.3301ZM21.5238 11.9755C22.014 11.5946 22.4435 11.1074 22.7763 10.5311L21.0442 9.53109C20.8402 9.88454 20.5817 10.1747 20.2967 10.3961L21.5238 11.9755ZM22.7763 10.5311C23.9438 8.50883 23.5958 5.80808 21.5622 4.63397L20.5622 6.36603C21.3983 6.84878 21.8097 8.2053 21.0442 9.53109L22.7763 10.5311ZM21.5622 4.63397C19.5286 3.45987 17.0156 4.50883 15.8481 6.53109L17.5801 7.53109C18.3456 6.2053 19.726 5.88327 20.5622 6.36603L21.5622 4.63397ZM15.8481 6.53109C15.5153 7.1074 15.3082 7.723 15.2235 8.33799L17.2048 8.61096C17.254 8.2534 17.3761 7.88454 17.5801 7.53109L15.8481 6.53109ZM12 7.19615L15.7141 9.3405L16.7141 7.60845L13 5.4641L12 7.19615ZM10.7217 11.4103L13.366 6.83013L11.634 5.83013L8.98963 10.4103L10.7217 11.4103ZM11.799 10.5442C11.2227 10.2115 10.6071 10.0044 9.99214 9.91963L9.71916 11.9009C10.0767 11.9502 10.4456 12.0722 10.799 12.2763L11.799 10.5442ZM13.6962 16.2583C14.8703 14.2247 13.8213 11.7118 11.799 10.5442L10.799 12.2763C12.1248 13.0417 12.4469 14.4222 11.9641 15.2583L13.6962 16.2583ZM7.79904 17.4724C9.8213 18.64 12.522 18.2919 13.6962 16.2583L11.9641 15.2583C11.4813 16.0945 10.1248 16.5058 8.79904 15.7404L7.79904 17.4724ZM6.35467 16.2199C6.73555 16.7101 7.22273 17.1397 7.79904 17.4724L8.79904 15.7404C8.44558 15.5363 8.15547 15.2779 7.93403 14.9929L6.35467 16.2199ZM6.36603 18.9545L8.01037 16.1064L6.27832 15.1064L4.63397 17.9545L6.36603 18.9545ZM11.4462 20.7328L6 17.5885L5 19.3205L10.4462 22.4649L11.4462 20.7328ZM10.3327 20.8092C9.84242 21.19 9.41286 21.6772 9.08013 22.2535L10.8122 23.2535C11.0162 22.9001 11.2747 22.61 11.5597 22.3885L10.3327 20.8092ZM9.08013 22.2535C7.91257 24.2758 8.26062 26.9765 10.2942 28.1506L11.2942 26.4186C10.4581 25.9358 10.0467 24.5793 10.8122 23.2535L9.08013 22.2535ZM10.2942 28.1506C12.3278 29.3247 14.8408 28.2758 16.0083 26.2535L14.2763 25.2535C13.5108 26.5793 12.1304 26.9013 11.2942 26.4186L10.2942 28.1506ZM16.0083 26.2535C16.3411 25.6772 16.5482 25.0616 16.6329 24.4466L14.6516 24.1736C14.6024 24.5312 14.4803 24.9001 14.2763 25.2535L16.0083 26.2535ZM19.8564 25.5885L16.1423 23.4441L15.1423 25.1762L18.8564 27.3205L19.8564 25.5885ZM20.6347 22.2404L18.4904 25.9545L20.2224 26.9545L22.3668 23.2404L20.6347 22.2404ZM19.5574 23.1064C20.1337 23.4391 20.7493 23.6463 21.3643 23.731L21.6372 21.7497C21.2797 21.7005 20.9108 21.5784 20.5574 21.3744L19.5574 23.1064ZM17.6603 17.3923C16.4862 19.4259 17.5351 21.9389 19.5574 23.1064L20.5574 21.3744C19.2316 20.6089 18.9096 19.2285 19.3923 18.3923L17.6603 17.3923ZM23.5574 16.1782C21.5351 15.0106 18.8344 15.3587 17.6603 17.3923L19.3923 18.3923C19.8751 17.5562 21.2316 17.1448 22.5574 17.9103L23.5574 16.1782ZM25.0017 17.4307C24.6209 16.9405 24.1337 16.5109 23.5574 16.1782L22.5574 17.9103C22.9108 18.1143 23.2009 18.3727 23.4224 18.6578L25.0017 17.4307ZM25.4904 13.8301L23.346 17.5442L25.0781 18.5442L27.2224 14.8301L25.4904 13.8301ZM20.4102 12.0518L25.8564 15.1962L26.8564 13.4641L21.4102 10.3198L20.4102 12.0518Z" fill="white"/>
</svg>
