<svg width="32" height="32" viewBox="0 0 32 32" fill="none" xmlns="http://www.w3.org/2000/svg">
<mask id="path-1-inside-1_15_27" fill="white">
<path fill-rule="evenodd" clip-rule="evenodd" d="M19 19.7665C19 18.9517 19.508 18.238 20.201 17.8095C22.4809 16.3999 24 13.8774 24 11C24 6.58172 20.4183 3 16 3C11.5817 3 8 6.58172 8 11C8 13.8774 9.51907 16.3999 11.799 17.8095C12.492 18.238 13 18.9517 13 19.7665V22C13 23.1046 13.8954 24 15 24H17C18.1046 24 19 23.1046 19 22V19.7665Z"/>
</mask>
<path d="M11.799 17.8095L10.7473 19.5106L11.799 17.8095ZM22 11C22 13.1558 20.8644 15.048 19.1493 16.1084L21.2527 19.5106C24.0974 17.7519 26 14.599 26 11H22ZM16 5C19.3137 5 22 7.68629 22 11H26C26 5.47715 21.5228 1 16 1V5ZM10 11C10 7.68629 12.6863 5 16 5V1C10.4772 1 6 5.47715 6 11H10ZM12.8507 16.1084C11.1356 15.048 10 13.1558 10 11H6C6 14.599 7.90257 17.7519 10.7473 19.5106L12.8507 16.1084ZM15 22V19.7665H11V22H15ZM17 22H15V26H17V22ZM17 19.7665V22H21V19.7665H17ZM11 22C11 24.2091 12.7909 26 15 26V22H11ZM10.7473 19.5106C10.8636 19.5826 10.9377 19.6633 10.9747 19.7211C11.0079 19.7729 11 19.7858 11 19.7665H15C15 18.0836 13.9672 16.7986 12.8507 16.1084L10.7473 19.5106ZM17 26C19.2091 26 21 24.2091 21 22H17V22V26ZM19.1493 16.1084C18.0328 16.7986 17 18.0836 17 19.7665H21C21 19.7858 20.9921 19.7729 21.0253 19.7211C21.0623 19.6633 21.1364 19.5826 21.2527 19.5106L19.1493 16.1084Z" fill="white" mask="url(#path-1-inside-1_15_27)"/>
<line x1="11.2929" y1="11.2929" x2="13.2929" y2="9.29289" stroke="white" stroke-width="2"/>
<line x1="14.2929" y1="11.7071" x2="12.2929" y2="9.70711" stroke="white" stroke-width="2"/>
<line x1="14.2929" y1="11.2929" x2="16.2929" y2="9.29289" stroke="white" stroke-width="2"/>
<line x1="17.2929" y1="11.7071" x2="15.2929" y2="9.70711" stroke="white" stroke-width="2"/>
<line x1="17.2929" y1="11.2929" x2="19.2929" y2="9.29289" stroke="white" stroke-width="2"/>
<line x1="20.2929" y1="11.7071" x2="18.2929" y2="9.70711" stroke="white" stroke-width="2"/>
<mask id="path-9-inside-2_15_27" fill="white">
<path d="M13 22C13 20.3431 14.3431 19 16 19C17.6569 19 19 20.3431 19 22V25C19 26.6569 17.6569 28 16 28C14.3431 28 13 26.6569 13 25V22Z"/>
</mask>
<path d="M13 19H19H13ZM20 26C20 28.2091 18.2091 30 16 30C13.7909 30 12 28.2091 12 26L14 25C14 25.5523 14.8954 26 16 26C17.1046 26 18 25.5523 18 25L20 26ZM16 30C13.7909 30 12 28.2091 12 26V23C12 20.7909 13.7909 19 16 19C14.8954 19 14 20.3431 14 22V25C14 25.5523 14.8954 26 16 26V30ZM16 19C18.2091 19 20 20.7909 20 23V26C20 28.2091 18.2091 30 16 30V26C17.1046 26 18 25.5523 18 25V22C18 20.3431 17.1046 19 16 19Z" fill="white" mask="url(#path-9-inside-2_15_27)"/>
</svg>
