<svg width="32" height="32" viewBox="0 0 32 32" fill="none" xmlns="http://www.w3.org/2000/svg">
<path fill-rule="evenodd" clip-rule="evenodd" d="M8.95541 7.46022L11.7757 5.83191L12.8912 9.17408C13.1207 9.11802 13.3595 9.08854 13.6035 9.08854H17.6356C18.7977 9.08854 19.8553 9.75967 20.3501 10.8111L25.3711 21.4809C25.7971 22.386 25.7439 23.444 25.2292 24.3018L24.4841 25.5435C23.942 26.4471 22.9655 27 21.9117 27H11.1177C9.8264 27 8.67998 26.1737 8.27164 24.9487L7.63341 23.034C7.43426 22.4366 7.42818 21.7916 7.61602 21.1905L10.74 11.1937C10.8422 10.8668 10.9967 10.5671 11.1926 10.3027L11 8.99999L8.95541 7.46022ZM19.265 23.1735C19.3947 23.0807 19.4845 22.9649 19.5342 22.8259C19.5683 22.7008 19.5649 22.5617 19.5238 22.4084C19.5214 22.3994 19.5072 22.3645 19.4813 22.3038C19.462 22.2317 19.4381 22.1608 19.4098 22.0911L19.3591 21.9018C19.3512 21.8363 19.3517 21.8023 19.3607 21.7999C19.5314 21.7155 19.7065 21.6299 19.8862 21.5431C20.0634 21.4473 20.2227 21.3563 20.3638 21.2702C20.4978 21.157 20.6194 21.052 20.7287 20.955C20.8356 20.8491 20.9298 20.732 21.0114 20.6039C21.0955 20.4847 21.1681 20.359 21.2292 20.2267C21.2904 20.0943 21.3401 19.9554 21.3784 19.8098C21.4274 19.4875 21.4104 19.1539 21.3276 18.8089C21.208 18.2902 20.9673 17.8426 20.6055 17.466C20.2503 17.0781 19.7925 16.8481 19.2321 16.776C19.0619 16.7539 18.8623 16.7301 18.6332 16.7046C18.4017 16.67 18.184 16.651 17.9802 16.6476L17.4802 14.7815C17.6923 14.7439 17.9085 14.7392 18.1286 14.7672C18.3552 14.7837 18.5549 14.8075 18.7274 14.8386C18.8616 14.8703 19.0014 14.9053 19.1469 14.9436C19.29 14.9729 19.4313 14.9592 19.5707 14.9025C19.6921 14.8507 19.7822 14.7541 19.8409 14.6127C19.8997 14.4713 19.9166 14.3363 19.8918 14.2077C19.8381 13.9709 19.7275 13.7928 19.5602 13.6733C19.3996 13.5425 19.2031 13.4405 18.971 13.3674C18.6799 13.2908 18.3645 13.2497 18.0248 13.2441C17.6917 13.2271 17.3725 13.2256 17.0671 13.2398C17.0333 13.1136 16.9986 13.0021 16.963 12.9054C16.9298 12.8177 16.8991 12.7389 16.8707 12.6692L16.8309 12.5205C16.7243 12.3751 16.5994 12.2878 16.4563 12.2585C16.3132 12.2292 16.158 12.2273 15.9909 12.2527C15.8058 12.283 15.6766 12.3418 15.6034 12.4291C15.5301 12.5163 15.4599 12.6511 15.3928 12.8333C15.3473 12.9518 15.3438 13.0832 15.3825 13.2274L15.4876 13.6196C15.3121 13.6859 15.112 13.7685 14.8872 13.8674C14.6625 13.9663 14.4832 14.0723 14.3492 14.1855C14.2063 14.3011 14.0723 14.4143 13.9474 14.5251C13.8315 14.6334 13.734 14.7562 13.6548 14.8934C13.4645 15.1569 13.3515 15.4384 13.3158 15.7379C13.2979 15.8876 13.2927 16.0484 13.3001 16.2204C13.3052 16.3833 13.3318 16.5549 13.3801 16.7352C13.4357 16.9425 13.509 17.1258 13.5999 17.285C13.6885 17.4352 13.7996 17.5794 13.9332 17.7175C14.2005 17.9938 14.553 18.1554 14.9907 18.2023C15.0749 18.2281 15.1669 18.2469 15.2668 18.2588C15.3732 18.2593 15.491 18.2664 15.6203 18.28C15.7562 18.2823 15.9293 18.2794 16.1397 18.2713C16.3592 18.2608 16.5573 18.2609 16.734 18.2715L17.3645 20.6245C17.1205 20.6512 16.8502 20.6705 16.5538 20.6823C16.2641 20.6826 16.0046 20.67 15.7755 20.6444C15.6847 20.6301 15.5903 20.6023 15.4923 20.5609C15.3918 20.5105 15.2937 20.4691 15.1981 20.4368C15.1025 20.4044 15.006 20.3868 14.9086 20.3839C14.8088 20.372 14.7174 20.3917 14.6345 20.4429C14.5065 20.5062 14.414 20.5937 14.357 20.7056C14.3091 20.8151 14.2828 20.9333 14.2781 21.0602C14.2825 21.1846 14.3061 21.3087 14.3489 21.4325C14.3983 21.5449 14.4601 21.6491 14.5341 21.7452C14.6269 21.875 14.7418 21.9795 14.879 22.0586C15.0228 22.1264 15.1732 22.1827 15.3301 22.2277C15.4847 22.2635 15.6425 22.2937 15.8037 22.3182C15.9714 22.3312 16.1302 22.3466 16.2799 22.3645C16.5066 22.3811 16.7624 22.3801 17.0473 22.3618C17.3389 22.332 17.592 22.3028 17.8066 22.2743L17.8356 22.3825C17.8639 22.4522 17.8902 22.5321 17.9143 22.6223C17.9451 22.701 17.9713 22.7809 17.9931 22.8621C18.0238 22.9408 18.0461 22.9879 18.06 23.0036C18.1371 23.1472 18.2451 23.2438 18.3841 23.2936C18.5344 23.3499 18.6842 23.3677 18.8332 23.3471C18.9913 23.3241 19.1352 23.2662 19.265 23.1735ZM15.3432 16.5426C15.2649 16.4669 15.2116 16.3942 15.1833 16.3245C15.0561 16.0301 15.0702 15.7944 15.2257 15.6174C15.3878 15.4291 15.6152 15.286 15.9079 15.1883L16.3173 16.7163C16.1773 16.7346 16.045 16.7458 15.9206 16.7502C15.7937 16.7455 15.6825 16.727 15.5868 16.6947C15.5002 16.6599 15.419 16.6092 15.3432 16.5426ZM19.5428 18.6929C19.6415 18.7727 19.7156 18.8688 19.765 18.9812C19.8241 19.1296 19.839 19.2754 19.8097 19.4185C19.7894 19.5592 19.7418 19.688 19.6668 19.8047C19.5893 19.9124 19.4891 20.0069 19.3659 20.0882C19.2403 20.1605 19.1075 20.2058 18.9675 20.224C18.8919 19.906 18.8029 19.5917 18.7003 19.281C18.6043 18.9588 18.5141 18.64 18.4295 18.3245C18.554 18.3201 18.6832 18.3338 18.8173 18.3655C18.9581 18.3858 19.0889 18.4232 19.2098 18.4777C19.3397 18.5299 19.4507 18.6016 19.5428 18.6929Z" fill="white"/>
<rect x="3" y="3" width="26" height="26" rx="2" stroke="white" stroke-width="2"/>
</svg>
