<svg width="32" height="32" viewBox="0 0 32 32" fill="none" xmlns="http://www.w3.org/2000/svg">
<rect x="4" y="11" width="24" height="16" stroke="white" stroke-width="2"/>
<path d="M10 9.5L16.5 4.5L23 9.5" stroke="white"/>
<path fill-rule="evenodd" clip-rule="evenodd" d="M17.98 22.4611C17.7453 23.0954 17.7842 23.8256 18.1488 24.4571C18.7991 25.5835 20.2394 25.9694 21.3658 25.3191C22.4922 24.6688 22.8781 23.2285 22.2278 22.1021C21.8715 21.485 21.2781 21.0902 20.6291 20.9662L17.0685 19.6422C17.0685 19.6422 17.7741 20.5053 17.9516 21.1718C18.0525 21.5507 18.0307 22.0459 17.98 22.4611Z" fill="white"/>
<path fill-rule="evenodd" clip-rule="evenodd" d="M11.8503 20.7C11.7623 21.2157 11.4538 21.6898 10.9653 21.9718C10.0941 22.4748 8.98002 22.1763 8.47701 21.3051C7.97399 20.4338 8.2725 19.3198 9.14376 18.8167C9.62107 18.5412 10.1713 18.5062 10.6539 18.6741L13.5512 19.1643C13.5512 19.1643 12.7447 19.4695 12.368 19.8474C12.1539 20.0621 11.977 20.4023 11.8503 20.7Z" fill="white"/>
<path fill-rule="evenodd" clip-rule="evenodd" d="M13.9744 24.4261C14.1274 24.7088 14.158 25.0549 14.0288 25.3765C13.7984 25.95 13.1467 26.2281 12.5732 25.9977C11.9997 25.7672 11.7216 25.1155 11.952 24.542C12.0782 24.2278 12.3309 24.0023 12.6279 23.9004L14.2143 23.0389C14.2143 23.0389 13.9402 23.4922 13.9013 23.8177C13.8793 24.0027 13.9227 24.2342 13.9744 24.4261Z" fill="white"/>
<path fill-rule="evenodd" clip-rule="evenodd" d="M19.3687 15.9092C19.5933 16.1797 19.932 16.352 20.311 16.352C20.987 16.352 21.535 15.804 21.535 15.128C21.535 14.452 20.987 13.9041 20.311 13.9041C19.9406 13.9041 19.6087 14.0686 19.3842 14.3285L17.8631 15.587C17.8631 15.587 18.4349 15.4937 18.7811 15.587C18.9778 15.64 19.195 15.7785 19.3687 15.9092Z" fill="white"/>
<path fill-rule="evenodd" clip-rule="evenodd" d="M16.4227 14.0087C16.7727 14.0412 17.1341 13.9235 17.4021 13.6555C17.88 13.1775 17.88 12.4025 17.4021 11.9246C16.9241 11.4466 16.1491 11.4466 15.6711 11.9246C15.4092 12.1865 15.2908 12.5375 15.3159 12.8801L15.1302 14.8455C15.1302 14.8455 15.4686 14.3752 15.7793 14.1964C15.9559 14.0948 16.2075 14.0391 16.4227 14.0087Z" fill="white"/>
<path fill-rule="evenodd" clip-rule="evenodd" d="M12.3407 16.5278C11.9138 16.8301 11.3604 16.9473 10.8156 16.8013C9.84386 16.5409 9.26717 15.5421 9.52755 14.5703C9.78794 13.5986 10.7868 13.0219 11.7585 13.2823C12.2909 13.4249 12.7047 13.7892 12.9272 14.2492L14.6293 16.6445C14.6293 16.6445 13.8432 16.2901 13.3097 16.2909C13.0064 16.2914 12.6408 16.4068 12.3407 16.5278Z" fill="white"/>
<path d="M13.3691 16.7266C13.2206 16.1724 13.7359 15.6692 14.2864 15.8308L15.2561 16.1154C15.3591 16.1456 15.4663 16.1591 15.5736 16.1552L16.9961 16.1042C17.5489 16.0843 18.0128 16.517 18.0314 17.0697L18.0625 17.9888C18.0683 18.1593 18.1175 18.3254 18.2056 18.4714L19.2401 20.187C19.7345 21.0069 18.9051 21.9859 18.0151 21.633L17.8672 21.5743C17.4913 21.4252 17.0626 21.5173 16.7809 21.8075L15.7096 22.9116C15.2577 23.3772 14.4716 23.1837 14.2876 22.5615C14.2116 22.3045 14.0187 22.0986 13.7672 22.0061L12.4203 21.5104C11.9333 21.3313 11.6643 20.8094 11.8009 20.3088L11.8503 20.1277C11.8913 19.9773 11.8966 19.8193 11.8657 19.6665L11.7478 19.0828C11.663 18.6631 11.8547 18.236 12.2247 18.0206L13.0289 17.5522C13.3156 17.3853 13.455 17.047 13.3691 16.7266Z" fill="white"/>
</svg>
