<svg width="32" height="32" viewBox="0 0 32 32" fill="none" xmlns="http://www.w3.org/2000/svg">
<path d="M8 14C8 11.2386 10.2386 9 13 9H19C21.7614 9 24 11.2386 24 14V30H8V14Z" stroke="white" stroke-width="2"/>
<rect x="13" y="1" width="6" height="8" fill="white"/>
<rect x="12" y="3" width="8" height="3" fill="white"/>
<line x1="9.34571" y1="20.2722" x2="22.3457" y2="25.0616" stroke="white" stroke-width="2"/>
<line y1="-1" x2="13.8542" y2="-1" transform="matrix(-0.938343 0.345705 0.345705 0.938343 22 21.2105)" stroke="white" stroke-width="2"/>
<path fill-rule="evenodd" clip-rule="evenodd" d="M14.0632 12.3158C12.0226 12.3158 10.3684 13.97 10.3684 16.0105C10.3684 17.3709 11.4712 18.4737 12.8316 18.4737H13.6279C13.3029 18.8368 13.1053 19.3164 13.1053 19.8421C13.1053 20.22 13.4116 20.5263 13.7895 20.5263H17.8948C18.2726 20.5263 18.579 20.22 18.579 19.8421C18.579 19.3164 18.3813 18.8368 18.0563 18.4737H18.8526C20.213 18.4737 21.3158 17.3709 21.3158 16.0105C21.3158 13.97 19.6616 12.3158 17.6211 12.3158H14.0632ZM11.7369 15.7368C11.7369 14.9811 12.3495 14.3684 13.1053 14.3684C13.861 14.3684 14.4737 14.9811 14.4737 15.7368C14.4737 16.4926 13.861 17.1053 13.1053 17.1053C12.3495 17.1053 11.7369 16.4926 11.7369 15.7368ZM18.579 14.3684C17.8232 14.3684 17.2105 14.9811 17.2105 15.7368C17.2105 16.4926 17.8232 17.1053 18.579 17.1053C19.3347 17.1053 19.9474 16.4926 19.9474 15.7368C19.9474 14.9811 19.3347 14.3684 18.579 14.3684Z" fill="white"/>
</svg>
