<svg width="32" height="32" viewBox="0 0 32 32" fill="none" xmlns="http://www.w3.org/2000/svg">
<path fill-rule="evenodd" clip-rule="evenodd" d="M14 3H18V5.15704L29 6.85185V8.77778L18 8.77778V29H14V8.77778L4 8.77778V6.85185L14 5.31111V3ZM17.7321 7.81482L16 6.85185L14.268 7.81482V9.74074L16 10.7037L17.7321 9.74074V7.81482Z" fill="white"/>
<path d="M11 25C11 24.4477 11.4477 24 12 24H20C20.5523 24 21 24.4477 21 25V28H11V25Z" fill="white"/>
<path d="M7 27C7 26.4477 7.44772 26 8 26H24C24.5523 26 25 26.4477 25 27V29H7V27Z" fill="white"/>
<path d="M23.3176 16L26 10.1924L28.6824 16H23.3176Z" stroke="white"/>
<path d="M4.3176 16L7 10.1924L9.6824 16H4.3176Z" stroke="white"/>
<path d="M30 16C30 16.5253 29.8965 17.0454 29.6955 17.5307C29.4945 18.016 29.1999 18.457 28.8284 18.8284C28.457 19.1999 28.016 19.4945 27.5307 19.6955C27.0454 19.8965 26.5253 20 26 20C25.4747 20 24.9546 19.8965 24.4693 19.6955C23.984 19.4945 23.543 19.1999 23.1716 18.8284C22.8001 18.457 22.5055 18.016 22.3045 17.5307C22.1035 17.0454 22 16.5253 22 16L26 16H30Z" fill="white"/>
<path d="M11 16C11 16.5253 10.8965 17.0454 10.6955 17.5307C10.4945 18.016 10.1999 18.457 9.82843 18.8284C9.45699 19.1999 9.01604 19.4945 8.53073 19.6955C8.04543 19.8965 7.52529 20 7 20C6.47471 20 5.95457 19.8965 5.46927 19.6955C4.98396 19.4945 4.54301 19.1999 4.17157 18.8284C3.80014 18.457 3.5055 18.016 3.30448 17.5307C3.10346 17.0454 3 16.5253 3 16L7 16H11Z" fill="white"/>
</svg>
