<svg width="32" height="32" viewBox="0 0 32 32" fill="none" xmlns="http://www.w3.org/2000/svg">
<path d="M16.2419 28.5C16.5208 28.915 16.5209 28.9149 16.521 28.9149L16.5213 28.9147L16.5224 28.9139L16.5262 28.9114L16.5401 28.9019L16.593 28.8658C16.639 28.8342 16.7062 28.7878 16.792 28.7275C16.9637 28.6069 17.2102 28.4309 17.5117 28.2075C18.1145 27.761 18.939 27.1239 19.8268 26.3612C21.5872 24.8489 23.6537 22.7945 24.6892 20.7236C26.1557 17.7905 26.1374 13.6627 25.7871 10.3516C25.6103 8.68081 25.3453 7.18824 25.1247 6.11353C25.0143 5.57585 24.9148 5.14191 24.8427 4.84158C24.8067 4.69139 24.7775 4.57455 24.7571 4.49479C24.747 4.45491 24.739 4.42429 24.7336 4.4034L24.7273 4.37943L24.7256 4.37302L24.7251 4.37123L24.7249 4.37069C24.7249 4.37052 24.7248 4.37039 24.2419 4.5L24.7248 4.37039L24.6433 4.06654L24.3341 4.00856L16.3341 2.50856L16.2419 2.49129L16.1498 2.50856L8.1498 4.00856L7.84058 4.06654L7.75903 4.37039L8.24194 4.5C7.75903 4.37039 7.759 4.37052 7.75895 4.37069L7.75881 4.37123L7.75833 4.37302L7.75662 4.37943L7.75031 4.4034C7.74484 4.42429 7.7369 4.45491 7.72673 4.49479C7.7064 4.57455 7.67718 4.69139 7.64114 4.84158C7.56905 5.14191 7.46958 5.57585 7.3592 6.11353C7.13856 7.18824 6.8736 8.68081 6.69683 10.3516C6.34651 13.6627 6.32815 17.7905 7.79473 20.7236C8.83017 22.7945 10.8967 24.8489 12.6571 26.3612C13.5448 27.1239 14.3694 27.761 14.9722 28.2075C15.2737 28.4309 15.5202 28.6069 15.6918 28.7275C15.7777 28.7878 15.8448 28.8342 15.8909 28.8658L15.9437 28.9019L15.9577 28.9114L15.9615 28.9139L15.9625 28.9147L15.9629 28.9149C15.963 28.9149 15.9631 28.915 16.2419 28.5ZM16.2419 28.5L16.5208 28.915L16.2419 29.1024L15.9631 28.915L16.2419 28.5Z" stroke="white"/>
<mask id="path-2-inside-1_36_382" fill="white">
<path fill-rule="evenodd" clip-rule="evenodd" d="M16.2419 4.5L9.31699 5.85294C9.31699 5.85294 6.89813 15.2435 9.31699 20.2843C11.0274 23.8487 16.2419 27.5 16.2419 27.5C16.2419 27.5 21.4565 23.8487 23.1669 20.2843C25.5858 15.2435 23.1669 5.85294 23.1669 5.85294L16.2419 4.5ZM21.232 7.64101C20.6852 7.71888 20.3051 8.22526 20.3829 8.77202L20.806 11.742C20.8838 12.2888 21.3902 12.6689 21.937 12.5911C22.4837 12.5132 22.8639 12.0068 22.786 11.46L22.363 8.49001C22.2851 7.94324 21.7787 7.56313 21.232 7.64101Z"/>
</mask>
<path fill-rule="evenodd" clip-rule="evenodd" d="M16.2419 4.5L9.31699 5.85294C9.31699 5.85294 6.89813 15.2435 9.31699 20.2843C11.0274 23.8487 16.2419 27.5 16.2419 27.5C16.2419 27.5 21.4565 23.8487 23.1669 20.2843C25.5858 15.2435 23.1669 5.85294 23.1669 5.85294L16.2419 4.5ZM21.232 7.64101C20.6852 7.71888 20.3051 8.22526 20.3829 8.77202L20.806 11.742C20.8838 12.2888 21.3902 12.6689 21.937 12.5911C22.4837 12.5132 22.8639 12.0068 22.786 11.46L22.363 8.49001C22.2851 7.94324 21.7787 7.56313 21.232 7.64101Z" fill="white"/>
<path d="M9.31699 5.85294L9.12524 4.8715L8.50599 4.99248L8.3486 5.6035L9.31699 5.85294ZM16.2419 4.5L16.4337 3.51856L16.2419 3.48109L16.0502 3.51856L16.2419 4.5ZM9.31699 20.2843L8.41542 20.7169H8.41542L9.31699 20.2843ZM16.2419 27.5L15.6684 28.3192L16.2419 28.7208L16.8155 28.3192L16.2419 27.5ZM23.1669 20.2843L24.0685 20.7169L23.1669 20.2843ZM23.1669 5.85294L24.1353 5.6035L23.9779 4.99248L23.3586 4.8715L23.1669 5.85294ZM20.3829 8.77202L19.3929 8.91303V8.91303L20.3829 8.77202ZM21.232 7.64101L21.0909 6.651L21.232 7.64101ZM20.806 11.742L21.796 11.601V11.601L20.806 11.742ZM21.937 12.5911L22.078 13.5811L22.078 13.5811L21.937 12.5911ZM22.786 11.46L23.776 11.319V11.319L22.786 11.46ZM22.363 8.49001L21.373 8.63102V8.63102L22.363 8.49001ZM9.50874 6.83439L16.4337 5.48144L16.0502 3.51856L9.12524 4.8715L9.50874 6.83439ZM10.2186 19.8517C9.13865 17.6012 9.10423 14.2395 9.4048 11.2793C9.55206 9.82912 9.77331 8.52955 9.95798 7.59229C10.0502 7.12429 10.133 6.74823 10.1923 6.49076C10.2219 6.36207 10.2457 6.26311 10.2618 6.19725C10.2698 6.16432 10.276 6.13967 10.28 6.12371C10.282 6.11574 10.2835 6.10994 10.2844 6.10636C10.2848 6.10458 10.2851 6.10335 10.2853 6.10268C10.2854 6.10235 10.2854 6.10216 10.2855 6.10211C10.2855 6.10208 10.2854 6.10215 10.2854 6.10214C10.2854 6.10224 10.2854 6.10238 9.31699 5.85294C8.3486 5.6035 8.34855 5.60371 8.34848 5.60396C8.34845 5.60409 8.34838 5.60437 8.34831 5.60463C8.34818 5.60515 8.348 5.60582 8.3478 5.60663C8.34739 5.60824 8.34683 5.61042 8.34613 5.61317C8.34473 5.61866 8.34277 5.62641 8.34027 5.63635C8.33527 5.65624 8.32813 5.68494 8.31906 5.72202C8.30092 5.79617 8.27507 5.90389 8.2433 6.04181C8.17978 6.31758 8.09247 6.71454 7.9957 7.20567C7.80242 8.18666 7.57014 9.54978 7.41504 11.0773C7.1109 14.0726 7.07647 17.9266 8.41542 20.7169L10.2186 19.8517ZM16.2419 27.5C16.8155 26.6808 16.8156 26.6809 16.8157 26.681C16.8157 26.681 16.8158 26.681 16.8158 26.681C16.8158 26.681 16.8157 26.681 16.8156 26.6809C16.8152 26.6807 16.8146 26.6802 16.8137 26.6796C16.8119 26.6783 16.8088 26.6761 16.8045 26.6731C16.7959 26.667 16.7826 26.6575 16.7647 26.6447C16.7289 26.6191 16.675 26.5803 16.6051 26.5292C16.4654 26.4269 16.2619 26.2755 16.0115 26.0822C15.5101 25.6952 14.8243 25.143 14.0878 24.4837C12.5866 23.1398 10.9834 21.4455 10.2186 19.8517L8.41542 20.7169C9.361 22.6875 11.2203 24.601 12.7539 25.9739C13.5348 26.673 14.2596 27.2564 14.7894 27.6654C15.0546 27.8701 15.2719 28.0318 15.4239 28.1431C15.5 28.1988 15.5598 28.2419 15.6012 28.2715C15.622 28.2863 15.6381 28.2978 15.6494 28.3058C15.655 28.3098 15.6594 28.3129 15.6626 28.3151C15.6642 28.3162 15.6655 28.3171 15.6664 28.3178C15.6669 28.3181 15.6673 28.3184 15.6676 28.3186C15.6678 28.3188 15.668 28.3189 15.6681 28.3189C15.6682 28.3191 15.6684 28.3192 16.2419 27.5ZM22.2653 19.8517C21.5005 21.4455 19.8973 23.1398 18.396 24.4837C17.6596 25.143 16.9738 25.6952 16.4724 26.0822C16.222 26.2755 16.0185 26.4269 15.8787 26.5292C15.8089 26.5803 15.755 26.6191 15.7192 26.6447C15.7013 26.6575 15.688 26.667 15.6794 26.6731C15.6751 26.6761 15.672 26.6783 15.6702 26.6796C15.6693 26.6802 15.6686 26.6807 15.6683 26.6809C15.6682 26.681 15.6681 26.681 15.6681 26.681C15.6681 26.681 15.6682 26.681 15.6682 26.681C15.6683 26.6809 15.6684 26.6808 16.2419 27.5C16.8155 28.3192 16.8157 28.3191 16.8158 28.3189C16.8159 28.3189 16.8161 28.3188 16.8162 28.3186C16.8166 28.3184 16.817 28.3181 16.8175 28.3178C16.8184 28.3171 16.8197 28.3162 16.8213 28.3151C16.8245 28.3129 16.8289 28.3098 16.8345 28.3058C16.8458 28.2978 16.8619 28.2863 16.8826 28.2715C16.9241 28.2419 16.9839 28.1988 17.06 28.1431C17.212 28.0318 17.4293 27.8701 17.6945 27.6654C18.2243 27.2564 18.949 26.673 19.73 25.9739C21.2636 24.601 23.1229 22.6875 24.0685 20.7169L22.2653 19.8517ZM23.1669 5.85294C22.1985 6.10238 22.1985 6.10224 22.1984 6.10214C22.1984 6.10215 22.1984 6.10208 22.1984 6.10211C22.1984 6.10216 22.1985 6.10235 22.1986 6.10268C22.1988 6.10335 22.1991 6.10458 22.1995 6.10636C22.2004 6.10994 22.2019 6.11574 22.2039 6.12371C22.2079 6.13967 22.2141 6.16432 22.2221 6.19725C22.2382 6.26311 22.262 6.36207 22.2916 6.49076C22.3509 6.74823 22.4337 7.12429 22.5259 7.59229C22.7106 8.52955 22.9318 9.82912 23.0791 11.2793C23.3797 14.2395 23.3452 17.6012 22.2653 19.8517L24.0685 20.7169C25.4074 17.9266 25.373 14.0726 25.0689 11.0773C24.9137 9.54978 24.6815 8.18666 24.4882 7.20567C24.3914 6.71454 24.3041 6.31758 24.2406 6.04181C24.2088 5.90389 24.183 5.79617 24.1648 5.72202C24.1558 5.68494 24.1486 5.65624 24.1436 5.63635C24.1411 5.62641 24.1392 5.61866 24.1378 5.61317C24.1371 5.61042 24.1365 5.60824 24.1361 5.60663C24.1359 5.60582 24.1357 5.60515 24.1356 5.60463C24.1355 5.60437 24.1354 5.60409 24.1354 5.60396C24.1353 5.60371 24.1353 5.6035 23.1669 5.85294ZM16.0502 5.48144L22.9752 6.83439L23.3586 4.8715L16.4337 3.51856L16.0502 5.48144ZM21.373 8.63102V8.63102L21.0909 6.651C19.9974 6.80675 19.2372 7.81949 19.3929 8.91303L21.373 8.63102ZM21.796 11.601L21.373 8.63102L19.3929 8.91303L19.816 11.8831L21.796 11.601ZM21.796 11.601H21.796L19.816 11.8831C19.9717 12.9766 20.9845 13.7368 22.078 13.5811L21.796 11.601ZM21.796 11.601L21.796 11.601L22.078 13.5811C23.1715 13.4253 23.9317 12.4126 23.776 11.319L21.796 11.601ZM21.373 8.63102L21.796 11.601L23.776 11.319L23.353 8.349L21.373 8.63102ZM21.373 8.63102L21.373 8.63102L23.353 8.349C23.1972 7.25547 22.1845 6.49525 21.0909 6.651L21.373 8.63102Z" fill="white" mask="url(#path-2-inside-1_36_382)"/>
</svg>
