<svg width="32" height="32" viewBox="0 0 32 32" fill="none" xmlns="http://www.w3.org/2000/svg">
<path fill-rule="evenodd" clip-rule="evenodd" d="M20.2127 3.41919H11.6851V6.26173H14.5276V7.78375C13.3436 7.95311 12.2269 8.33092 11.2158 8.87883L10.02 7.683L6 11.703L7.19583 12.8988C6.43311 14.3063 6 15.9185 6 17.6319C6 23.1265 10.4543 27.5808 15.9489 27.5808C21.4435 27.5808 25.8978 23.1265 25.8978 17.6319C25.8978 16.0096 25.5095 14.478 24.8208 13.1249L26.2427 11.703L22.2227 7.683L20.9033 9.00243C19.8347 8.38761 18.6412 7.96556 17.3702 7.78375V6.26173H20.2127V3.41919ZM15.9489 24.7383C19.8736 24.7383 23.0553 21.5566 23.0553 17.6319C23.0553 13.7072 19.8736 10.5255 15.9489 10.5255C12.0242 10.5255 8.84254 13.7072 8.84254 17.6319C8.84254 21.5566 12.0242 24.7383 15.9489 24.7383Z" fill="white"/>
<line x1="16" y1="12" x2="16" y2="18" stroke="white" stroke-width="2"/>
</svg>
