<svg width="32" height="32" viewBox="0 0 32 32" fill="none" xmlns="http://www.w3.org/2000/svg">
<line x1="4.82156" y1="27.2971" x2="14.6496" y2="17.6433" stroke="white"/>
<path d="M17.3582 14.702L15.641 19.3671L12.6931 16.4192L17.3582 14.702Z" fill="white"/>
<path d="M7.47518 23.6855L3.91083 27.1507L2.52603 23.2185L7.47518 23.6855Z" fill="white"/>
<path d="M8.25651 25.0315L8.48538 29.9974L4.62418 28.4254L8.25651 25.0315Z" fill="white"/>
<path fill-rule="evenodd" clip-rule="evenodd" d="M28 16C28 22.6274 22.6274 28 16 28C13.5204 28 11.2165 27.248 9.30393 25.9595L7.86686 27.3966C10.1593 29.0355 12.967 30 16 30C23.732 30 30 23.732 30 16C30 8.26801 23.732 2 16 2C8.26801 2 2 8.26801 2 16C2 19.6169 3.37156 22.9134 5.62295 25.3979L7.03917 23.9816C5.14877 21.8608 4 19.0646 4 16C4 9.37258 9.37258 4 16 4C22.6274 4 28 9.37258 28 16ZM8.4562 22.5646C6.92639 20.8081 6 18.5122 6 16C6 10.4772 10.4772 6 16 6C21.5228 6 26 10.4772 26 16C26 21.5228 21.5228 26 16 26C14.0746 26 12.2763 25.4559 10.7505 24.513L12.2142 23.0493C13.3412 23.6558 14.6304 24 16 24C20.4183 24 24 20.4183 24 16C24 11.5817 20.4183 8 16 8C11.5817 8 8 11.5817 8 16C8 17.9599 8.70475 19.7551 9.87465 21.1462L8.4562 22.5646ZM13.7142 21.5492C14.4187 21.8397 15.1906 22 16 22C19.3137 22 22 19.3137 22 16C22 12.6863 19.3137 10 16 10C12.6863 10 10 12.6863 10 16C10 17.4074 10.4846 18.7016 11.2959 19.7249L12.7244 18.2964C12.268 17.6465 12 16.8545 12 16C12 13.7909 13.7909 12 16 12C18.2091 12 20 13.7909 20 16C20 18.2091 18.2091 20 16 20C15.7685 20 15.5416 19.9803 15.3209 19.9426L13.7142 21.5492Z" fill="white"/>
</svg>
