<svg width="32" height="32" viewBox="0 0 32 32" fill="none" xmlns="http://www.w3.org/2000/svg">
<rect x="22.0706" y="16" width="7" height="8" rx="2" transform="rotate(15 22.0706 16)" stroke="white" stroke-width="2"/>
<path d="M3 20H22C22 20 20.7999 24.0965 19 26C18.141 26.9085 16.5 28 16.5 28H9C9 28 7.01296 26.978 6 26C4.11537 24.1804 3 20 3 20Z" fill="white"/>
<rect x="3" y="17" width="19" height="3" fill="white"/>
<rect x="8" y="28" width="10" height="2" fill="white"/>
<path d="M12.4946 2C12.4946 2 10.2137 5.17085 10.4946 8C10.8056 11.1331 13.8537 12.8546 13.9946 16C14.105 18.4674 12.4946 22 12.4946 22" stroke="white" stroke-width="3"/>
<path d="M17.7204 6C17.7204 6 15.7816 8.21959 16.0204 10.2C16.2847 12.3932 18.8757 13.5983 18.9954 15.8C19.0893 17.5272 17.7204 20 17.7204 20" stroke="white" stroke-width="2"/>
<path d="M6.72038 5C6.72038 5 4.78163 7.21959 5.02037 9.2C5.28475 11.3932 7.87567 12.5983 7.99538 14.8C8.08929 16.5272 6.72038 19 6.72038 19" stroke="white" stroke-width="2"/>
</svg>
