<svg width="32" height="32" viewBox="0 0 32 32" fill="none" xmlns="http://www.w3.org/2000/svg">
<rect x="3" y="3" width="26" height="26" rx="2" stroke="white" stroke-width="2"/>
<mask id="path-2-inside-1_40_357" fill="white">
<path d="M10.636 10.636C12.037 9.23511 13.861 8.3356 15.8253 8.077C17.7895 7.8184 19.7842 8.21517 21.5 9.20577C23.2158 10.1964 24.5567 11.7255 25.3149 13.5558C26.0731 15.3862 26.2061 17.4157 25.6933 19.3294C25.1806 21.2431 24.0507 22.9341 22.4789 24.1402C20.9071 25.3463 18.9812 26 17 26C15.0188 26 13.0929 25.3463 11.5211 24.1402C9.94935 22.9341 8.81944 21.2431 8.30667 19.3294L10.0453 18.8635C10.4556 20.3945 11.3595 21.7473 12.6169 22.7121C13.8744 23.677 15.415 24.2 17 24.2C18.585 24.2 20.1256 23.677 21.3831 22.7121C22.6405 21.7473 23.5444 20.3945 23.9547 18.8635C24.3649 17.3325 24.2585 15.709 23.6519 14.2447C23.0454 12.7804 21.9726 11.5571 20.6 10.7646C19.2274 9.97213 17.6316 9.65472 16.0602 9.8616C14.4888 10.0685 13.0296 10.7881 11.9088 11.9088L10.636 10.636Z"/>
</mask>
<path d="M10.636 10.636C12.037 9.23511 13.861 8.3356 15.8253 8.077C17.7895 7.8184 19.7842 8.21517 21.5 9.20577C23.2158 10.1964 24.5567 11.7255 25.3149 13.5558C26.0731 15.3862 26.2061 17.4157 25.6933 19.3294C25.1806 21.2431 24.0507 22.9341 22.4789 24.1402C20.9071 25.3463 18.9812 26 17 26C15.0188 26 13.0929 25.3463 11.5211 24.1402C9.94935 22.9341 8.81944 21.2431 8.30667 19.3294L10.0453 18.8635C10.4556 20.3945 11.3595 21.7473 12.6169 22.7121C13.8744 23.677 15.415 24.2 17 24.2C18.585 24.2 20.1256 23.677 21.3831 22.7121C22.6405 21.7473 23.5444 20.3945 23.9547 18.8635C24.3649 17.3325 24.2585 15.709 23.6519 14.2447C23.0454 12.7804 21.9726 11.5571 20.6 10.7646C19.2274 9.97213 17.6316 9.65472 16.0602 9.8616C14.4888 10.0685 13.0296 10.7881 11.9088 11.9088L10.636 10.636Z" stroke="white" stroke-width="4" mask="url(#path-2-inside-1_40_357)"/>
<path d="M5.5 14.3301L9.83013 6.83012L14.1603 14.3301L5.5 14.3301Z" fill="white"/>
</svg>
