<svg width="32" height="32" viewBox="0 0 32 32" fill="none" xmlns="http://www.w3.org/2000/svg">
<rect x="3" y="3" width="26" height="26" rx="2" stroke="white" stroke-width="2"/>
<path d="M20 9.0718C18.7838 8.36965 17.4043 8 16 8C14.5957 8 13.2162 8.36965 12 9.0718C10.7838 9.77394 9.77394 10.7838 9.0718 12C8.36965 13.2162 8 14.5957 8 16C8 17.4043 8.36965 18.7838 9.0718 20C9.77394 21.2162 10.7838 22.2261 12 22.9282C13.2162 23.6304 14.5957 24 16 24C17.4043 24 18.7838 23.6303 20 22.9282L18.8 20.8497C17.9487 21.3412 16.983 21.6 16 21.6C15.017 21.6 14.0513 21.3412 13.2 20.8497C12.3487 20.3582 11.6418 19.6513 11.1503 18.8C10.6588 17.9487 10.4 16.983 10.4 16C10.4 15.017 10.6588 14.0513 11.1503 13.2C11.6418 12.3487 12.3487 11.6418 13.2 11.1503C14.0513 10.6588 15.017 10.4 16 10.4C16.983 10.4 17.9487 10.6588 18.8 11.1503L20 9.0718Z" fill="white"/>
<line x1="9" y1="15.5" x2="17" y2="15.5" stroke="white" stroke-width="3"/>
</svg>
