<svg width="32" height="32" viewBox="0 0 32 32" fill="none" xmlns="http://www.w3.org/2000/svg">
<rect x="3" y="3" width="26" height="26" rx="2" stroke="white" stroke-width="2"/>
<line y1="-1" x2="14" y2="-1" transform="matrix(1 -4.37114e-08 -4.37114e-08 -1 8 15)" stroke="white" stroke-width="2"/>
<path d="M5 16L12.5 20.3301L12.5 11.6699L5 16Z" fill="white"/>
<path d="M11 7.33975C12.5202 6.46206 14.2446 6 16 6C17.7554 6 19.4798 6.46206 21 7.33975C22.5202 8.21743 23.7826 9.47981 24.6603 11C25.5379 12.5202 26 14.2446 26 16C26 17.7554 25.5379 19.4798 24.6603 21C23.7826 22.5202 22.5202 23.7826 21 24.6603C19.4798 25.5379 17.7554 26 16 26C14.2446 26 12.5202 25.5379 11 24.6603L12 22.9282C13.2162 23.6304 14.5957 24 16 24C17.4043 24 18.7838 23.6304 20 22.9282C21.2162 22.2261 22.2261 21.2162 22.9282 20C23.6304 18.7838 24 17.4043 24 16C24 14.5957 23.6304 13.2162 22.9282 12C22.2261 10.7838 21.2162 9.77394 20 9.0718C18.7838 8.36965 17.4043 8 16 8C14.5957 8 13.2162 8.36965 12 9.0718L11 7.33975Z" fill="white"/>
</svg>
