<svg width="32" height="32" viewBox="0 0 32 32" fill="none" xmlns="http://www.w3.org/2000/svg">
<mask id="path-1-inside-1_18_228" fill="white">
<path d="M8 8H24V24H8V8Z"/>
</mask>
<path d="M22 8V24H26V8H22ZM10 24V8H6V24H10Z" fill="white" mask="url(#path-1-inside-1_18_228)"/>
<path d="M23 8C23 8.52174 22.5511 9.26329 21.2096 9.934C19.928 10.5748 18.0876 11 16 11C13.9124 11 12.072 10.5748 10.7904 9.934C9.44895 9.26329 9 8.52174 9 8C9 7.47826 9.44895 6.73671 10.7904 6.066C12.072 5.4252 13.9124 5 16 5C18.0876 5 19.928 5.4252 21.2096 6.066C22.5511 6.73671 23 7.47826 23 8Z" stroke="white" stroke-width="2"/>
<path fill-rule="evenodd" clip-rule="evenodd" d="M8 24C8 26.2091 11.5817 28 16 28C20.4183 28 24 26.2091 24 24H22C22 24.0021 21.9999 24.0052 21.9987 24.0109C21.9975 24.0168 21.9945 24.0291 21.9865 24.0486C21.9703 24.0881 21.9317 24.1621 21.8444 24.2653C21.662 24.4809 21.3196 24.761 20.7624 25.0396C19.6469 25.5973 17.966 26 16 26C14.034 26 12.3531 25.5973 11.2376 25.0396C10.6804 24.761 10.338 24.4809 10.1556 24.2653C10.0683 24.1621 10.0297 24.0881 10.0135 24.0486C10.0055 24.0291 10.0025 24.0168 10.0013 24.0109C10.0001 24.0052 10 24.0021 10 24H8Z" fill="white"/>
<line x1="18.5" y1="11" x2="18.5" y2="27" stroke="white" stroke-width="3"/>
</svg>
