<svg width="32" height="32" viewBox="0 0 32 32" fill="none" xmlns="http://www.w3.org/2000/svg">
<rect x="3" y="3" width="26" height="26" rx="2" stroke="white" stroke-width="2"/>
<rect width="3" height="3" transform="matrix(-7.28523e-08 -1 -1 2.62268e-08 15 22)" fill="white"/>
<rect width="5" height="3" transform="matrix(-4.37114e-08 -1 -1 4.37114e-08 25 23)" fill="white"/>
<rect width="3" height="3" transform="matrix(-7.28523e-08 -1 -1 2.62268e-08 11 22)" fill="white"/>
<rect width="7" height="5" transform="matrix(-4.37114e-08 -1 -1 4.37114e-08 21 24)" fill="white"/>
<line y1="-1" x2="8" y2="-1" transform="matrix(-1 4.37114e-08 4.37114e-08 1 17 12)" stroke="white" stroke-width="2"/>
<path d="M21 11L16.5 8.40192L16.5 13.5981L21 11Z" fill="white"/>
</svg>
