<svg width="32" height="32" viewBox="0 0 32 32" fill="none" xmlns="http://www.w3.org/2000/svg">
<g clip-path="url(#clip0_41_454)">
<rect x="3" y="3" width="26" height="26" rx="2" stroke="white" stroke-width="2"/>
<path d="M27.2763 12.7631L24.582 15.1483L27.9296 16.4682L24.3325 16.5635L26.0485 19.7264L23.2317 17.4873L22.5131 21.0131L21.7946 17.4873L18.9778 19.7264L20.6938 16.5635L17.0967 16.4682L20.4442 15.1483L17.75 12.7631L21.1628 13.9038L20.632 10.3448L22.5131 13.4123L24.3942 10.3448L23.8635 13.9038L27.2763 12.7631Z" fill="white"/>
<mask id="path-3-inside-1_41_454" fill="white">
<path d="M27 25C27 23.5555 26.7155 22.1251 26.1627 20.7905C25.6099 19.4559 24.7996 18.2433 23.7782 17.2218C22.7567 16.2004 21.5441 15.3901 20.2095 14.8373C18.8749 14.2845 17.4445 14 16 14C14.5555 14 13.1251 14.2845 11.7905 14.8373C10.4559 15.3901 9.24327 16.2004 8.22182 17.2218C7.20038 18.2433 6.39013 19.4559 5.83732 20.7905C5.28452 22.1251 5 23.5555 5 25H7.2C7.2 23.8444 7.42762 22.7001 7.86986 21.6324C8.3121 20.5647 8.9603 19.5946 9.77746 18.7775C10.5946 17.9603 11.5647 17.3121 12.6324 16.8699C13.7001 16.4276 14.8444 16.2 16 16.2C17.1556 16.2 18.2999 16.4276 19.3676 16.8699C20.4353 17.3121 21.4054 17.9603 22.2225 18.7775C23.0397 19.5946 23.6879 20.5647 24.1301 21.6324C24.5724 22.7001 24.8 23.8444 24.8 25H27Z"/>
</mask>
<path d="M27 25C27 23.5555 26.7155 22.1251 26.1627 20.7905C25.6099 19.4559 24.7996 18.2433 23.7782 17.2218C22.7567 16.2004 21.5441 15.3901 20.2095 14.8373C18.8749 14.2845 17.4445 14 16 14C14.5555 14 13.1251 14.2845 11.7905 14.8373C10.4559 15.3901 9.24327 16.2004 8.22182 17.2218C7.20038 18.2433 6.39013 19.4559 5.83732 20.7905C5.28452 22.1251 5 23.5555 5 25H7.2C7.2 23.8444 7.42762 22.7001 7.86986 21.6324C8.3121 20.5647 8.9603 19.5946 9.77746 18.7775C10.5946 17.9603 11.5647 17.3121 12.6324 16.8699C13.7001 16.4276 14.8444 16.2 16 16.2C17.1556 16.2 18.2999 16.4276 19.3676 16.8699C20.4353 17.3121 21.4054 17.9603 22.2225 18.7775C23.0397 19.5946 23.6879 20.5647 24.1301 21.6324C24.5724 22.7001 24.8 23.8444 24.8 25H27Z" stroke="white" stroke-width="4" mask="url(#path-3-inside-1_41_454)"/>
</g>
<defs>
<clipPath id="clip0_41_454">
<rect width="32" height="32" fill="white"/>
</clipPath>
</defs>
</svg>
