<svg width="32" height="32" viewBox="0 0 32 32" fill="none" xmlns="http://www.w3.org/2000/svg">
<rect x="3" y="3" width="26" height="26" rx="2" stroke="white" stroke-width="2"/>
<path fill-rule="evenodd" clip-rule="evenodd" d="M4.47931 13C4.21846 11.2359 4.76696 9.3752 6.1248 8.01735C7.95435 6.1878 10.6968 5.8276 12.8859 6.93673L12 7.00001L10.2857 13H10L8.7143 15.5714L7.00001 13H4.47931ZM4.71867 14C4.99627 14.8285 5.46498 15.6071 6.1248 16.2669L7.89257 18.0347L16.1421 26.2843L24.3917 18.0347L26.1595 16.2669C26.8193 15.6071 27.288 14.8285 27.5656 14L19 14V13.5528L17.9849 12.0302L17 14H15.7543L13.9615 20.2747L13.9505 20.2716L13.9975 20.9288L13 21L12.208 9.91205L10.9615 14.2747L10.5408 14.1545L8.89444 17.4472L8.00001 17L8.25001 16.5L8.16796 16.5547L6.46483 14H4.71867ZM27.805 13C28.0658 11.2359 27.5173 9.3752 26.1595 8.01735C23.8814 5.73929 20.188 5.73929 17.9099 8.01735L16.1421 9.78512L14.3744 8.01735C13.9585 7.60145 13.4954 7.26148 13.0024 6.99744L13.7449 17.3929L15 13L16.382 13L17.6056 10.5528L18.5 11L19.8334 13L27.805 13Z" fill="white"/>
</svg>
