<svg width="32" height="32" viewBox="0 0 32 32" fill="none" xmlns="http://www.w3.org/2000/svg">
<rect x="3" y="3" width="26" height="26" rx="8" stroke="white" stroke-width="2"/>
<path d="M13 25H19V23C19 21.3431 17.6569 20 16 20V20C14.3431 20 13 21.3431 13 23V25Z" stroke="white" stroke-width="2"/>
<path d="M26.5207 8.75431C26.5207 8.75431 23.7334 6.58582 21.8204 6.97728C20.4678 7.25408 19.3805 8.06962 18.6292 9.22798C17.7529 10.5789 17.9457 11.8621 18.5598 13.3505C19.1603 14.8058 19.9819 15.5951 21.5523 15.7053C23.0736 15.812 23.924 15.2974 24.6142 13.9375C25.1517 12.8784 25.4606 12.3655 24.7783 11.3933C24.1052 10.4343 22.7605 9.84345 21.8805 10.6168C21.2938 11.1324 21.4923 12.0657 21.4923 12.0657" stroke="white" stroke-width="2"/>
<path d="M5.2434 13.6879C5.2434 13.6879 7.91614 15.996 9.84663 15.7029C11.2117 15.4956 12.3392 14.7367 13.1488 13.6182C14.0929 12.3139 13.9661 11.0226 13.4288 9.50466C12.9035 8.02062 12.1233 7.19031 10.5606 7.00001C9.04672 6.81565 8.17116 7.28605 7.41235 8.60892C6.82138 9.63919 6.48668 10.1356 7.11842 11.1414C7.74157 12.1335 9.0543 12.7924 9.97271 12.065C10.585 11.5801 10.4345 10.6379 10.4345 10.6379" stroke="white" stroke-width="2"/>
</svg>
