<svg width="32" height="32" viewBox="0 0 32 32" fill="none" xmlns="http://www.w3.org/2000/svg">
<rect x="3" y="3" width="26" height="26" rx="2" stroke="white" stroke-width="2"/>
<line x1="6.34571" y1="19.0617" x2="25.3457" y2="26.0617" stroke="white" stroke-width="2"/>
<line y1="-1" x2="20.2485" y2="-1" transform="matrix(-0.938343 0.345705 0.345705 0.938343 25 20)" stroke="white" stroke-width="2"/>
<path fill-rule="evenodd" clip-rule="evenodd" d="M12.5 7C10.0147 7 8 9.01472 8 11.5V13C8 14.6569 9.34315 16 11 16H12.7639C12.2889 16.5308 12 17.2316 12 18C12 18.5523 12.4477 19 13 19H19C19.5523 19 20 18.5523 20 18C20 17.2316 19.7111 16.5308 19.2361 16H21C22.6569 16 24 14.6569 24 13V11.5C24 9.01472 21.9853 7 19.5 7H12.5ZM10 12C10 10.8954 10.8954 10 12 10C13.1046 10 14 10.8954 14 12C14 13.1046 13.1046 14 12 14C10.8954 14 10 13.1046 10 12ZM20 10C18.8954 10 18 10.8954 18 12C18 13.1046 18.8954 14 20 14C21.1046 14 22 13.1046 22 12C22 10.8954 21.1046 10 20 10Z" fill="white"/>
</svg>
