<svg width="32" height="32" viewBox="0 0 32 32" fill="none" xmlns="http://www.w3.org/2000/svg">
<rect x="3" y="3" width="26" height="26" rx="8" stroke="white" stroke-width="2"/>
<rect x="7" y="11" width="3" height="4" rx="1" fill="white"/>
<rect x="22" y="9" width="3" height="4" rx="1" fill="white"/>
<rect x="18" y="8" width="8" height="9" rx="4" stroke="white" stroke-width="2"/>
<rect x="7" y="8" width="8" height="9" rx="4" stroke="white" stroke-width="2"/>
<path d="M13 24H19V23C19 21.3431 17.6569 20 16 20V20C14.3431 20 13 21.3431 13 23V24Z" stroke="white" stroke-width="2"/>
<line x1="18" y1="23" x2="18" y2="27" stroke="white" stroke-width="2"/>
<line x1="18" y1="23" x2="18" y2="27" stroke="white" stroke-width="2"/>
<line x1="18" y1="23" x2="18" y2="27" stroke="white" stroke-width="2"/>
<line x1="18" y1="23" x2="18" y2="27" stroke="white" stroke-width="2"/>
<line x1="18" y1="23" x2="18" y2="27" stroke="white" stroke-width="2"/>
<line x1="18" y1="23" x2="18" y2="27" stroke="white" stroke-width="2"/>
</svg>
