<svg width="32" height="32" viewBox="0 0 32 32" fill="none" xmlns="http://www.w3.org/2000/svg">
<rect x="3" y="3" width="26" height="26" rx="8" stroke="white" stroke-width="2"/>
<rect x="7" y="11" width="3" height="3" rx="1" fill="white"/>
<rect x="23" y="11" width="3" height="3" rx="1" fill="white"/>
<line x1="5.7" y1="9.6" x2="9.7" y2="6.6" stroke="white"/>
<line y1="-0.5" x2="5" y2="-0.5" transform="matrix(-0.8 -0.6 -0.6 0.8 27 10)" stroke="white"/>
<line x1="12.0001" y1="21.0161" x2="19.0001" y2="21.0161" stroke="white" stroke-width="2"/>
<path d="M11 18.0096C11 18.0096 12.4972 19.704 12.5001 21.0161C12.5029 22.3168 11.0389 24.0092 11.0389 24.0092" stroke="white" stroke-width="2"/>
<path d="M20.5194 18.0096C20.5194 18.0096 19.0222 19.704 19.0193 21.0161C19.0165 22.3168 20.4805 24.0092 20.4805 24.0092" stroke="white" stroke-width="2"/>
</svg>
