<svg width="32" height="32" viewBox="0 0 32 32" fill="none" xmlns="http://www.w3.org/2000/svg">
<g clip-path="url(#clip0_20_11)">
<rect x="3" y="3" width="26" height="26" rx="8" stroke="white" stroke-width="2"/>
<mask id="path-2-outside-1_20_11" maskUnits="userSpaceOnUse" x="11.1716" y="14.8787" width="18.3848" height="18.3848" fill="black">
<rect fill="white" x="11.1716" y="14.8787" width="18.3848" height="18.3848"/>
<path fill-rule="evenodd" clip-rule="evenodd" d="M18.2199 21.5773C18.1272 21.3151 17.8395 21.1778 17.5773 21.2705C17.3151 21.3633 17.1778 21.651 17.2705 21.9131L17.7463 23.2584C17.4899 23.4382 17.3222 23.736 17.3222 24.073V25.8251C17.3222 26.0418 17.3916 26.2423 17.5093 26.4057L17.0878 27.1282L19.8336 30.6117L21.9971 28.8155C22.1278 28.789 22.2524 28.7251 22.3538 28.6237L24.3413 26.6362C24.6157 26.3618 24.6157 25.9169 24.3413 25.6425C24.0668 25.3681 23.6219 25.3681 23.3475 25.6425L23.6544 25.3356C23.9692 25.0208 23.9692 24.5105 23.6544 24.1957C23.3396 23.8809 22.8293 23.8809 22.5145 24.1957C22.8293 23.8809 22.8293 23.3706 22.5145 23.0558C22.1999 22.7412 21.6899 22.741 21.3751 23.0554L24.2244 20.2061C24.4342 19.9963 24.4342 19.656 24.2244 19.4462C24.0145 19.2363 23.6743 19.2363 23.4644 19.4462L19.6648 23.2458C19.5753 23.3353 19.5239 23.4486 19.5108 23.5653L19.2735 23.8026C19.1961 23.5281 19.0038 23.3018 18.7518 23.1789C18.7532 23.1195 18.744 23.0589 18.723 22.9996L18.2199 21.5773Z"/>
</mask>
<path fill-rule="evenodd" clip-rule="evenodd" d="M18.2199 21.5773C18.1272 21.3151 17.8395 21.1778 17.5773 21.2705C17.3151 21.3633 17.1778 21.651 17.2705 21.9131L17.7463 23.2584C17.4899 23.4382 17.3222 23.736 17.3222 24.073V25.8251C17.3222 26.0418 17.3916 26.2423 17.5093 26.4057L17.0878 27.1282L19.8336 30.6117L21.9971 28.8155C22.1278 28.789 22.2524 28.7251 22.3538 28.6237L24.3413 26.6362C24.6157 26.3618 24.6157 25.9169 24.3413 25.6425C24.0668 25.3681 23.6219 25.3681 23.3475 25.6425L23.6544 25.3356C23.9692 25.0208 23.9692 24.5105 23.6544 24.1957C23.3396 23.8809 22.8293 23.8809 22.5145 24.1957C22.8293 23.8809 22.8293 23.3706 22.5145 23.0558C22.1999 22.7412 21.6899 22.741 21.3751 23.0554L24.2244 20.2061C24.4342 19.9963 24.4342 19.656 24.2244 19.4462C24.0145 19.2363 23.6743 19.2363 23.4644 19.4462L19.6648 23.2458C19.5753 23.3353 19.5239 23.4486 19.5108 23.5653L19.2735 23.8026C19.1961 23.5281 19.0038 23.3018 18.7518 23.1789C18.7532 23.1195 18.744 23.0589 18.723 22.9996L18.2199 21.5773Z" fill="white"/>
<path d="M17.5773 21.2705L17.9108 22.2133L17.9108 22.2133L17.5773 21.2705ZM18.2199 21.5773L17.2771 21.9108L17.2771 21.9108L18.2199 21.5773ZM17.2705 21.9131L16.3277 22.2466L16.3277 22.2466L17.2705 21.9131ZM17.7463 23.2584L18.3204 24.0771L18.9424 23.641L18.6891 22.9249L17.7463 23.2584ZM17.3222 24.073H16.3222H17.3222ZM17.3222 25.8251L18.3222 25.8251L17.3222 25.8251ZM17.5093 26.4057L18.3731 26.9095L18.7004 26.3483L18.3206 25.8211L17.5093 26.4057ZM17.0878 27.1282L16.224 26.6243L15.881 27.2125L16.3025 27.7472L17.0878 27.1282ZM19.8336 30.6117L19.0482 31.2308L19.6832 32.0363L20.4723 31.3811L19.8336 30.6117ZM21.9971 28.8155L21.7985 27.8354L21.5519 27.8854L21.3583 28.0461L21.9971 28.8155ZM22.3538 28.6237L23.0609 29.3308L22.3538 28.6237ZM24.3413 26.6362L23.6342 25.9291L24.3413 26.6362ZM23.6544 25.3356L22.9473 24.6285L22.9473 24.6285L23.6544 25.3356ZM21.3751 23.0554L20.668 22.3483L22.0816 23.763L21.3751 23.0554ZM19.5108 23.5653L20.2179 24.2724L20.4654 24.025L20.5045 23.6771L19.5108 23.5653ZM19.2735 23.8026L18.311 24.074L18.7741 25.7163L19.9806 24.5097L19.2735 23.8026ZM18.7518 23.1789L17.7521 23.1562L17.7375 23.7967L18.3134 24.0776L18.7518 23.1789ZM18.723 22.9996L19.6658 22.6662L19.6658 22.6662L18.723 22.9996ZM17.9108 22.2133C17.6523 22.3047 17.3686 22.1693 17.2771 21.9108L19.1627 21.2439C18.8858 20.461 18.0267 20.0509 17.2438 20.3278L17.9108 22.2133ZM18.2133 21.5797C18.3047 21.8382 18.1693 22.1219 17.9108 22.2133L17.2438 20.3278C16.461 20.6047 16.0508 21.4638 16.3277 22.2466L18.2133 21.5797ZM18.6891 22.9249L18.2133 21.5797L16.3277 22.2466L16.8036 23.5918L18.6891 22.9249ZM18.3222 24.073C18.3222 24.072 18.3223 24.0724 18.322 24.0736C18.3217 24.0748 18.3213 24.0757 18.321 24.0764C18.3207 24.0769 18.3205 24.0771 18.3205 24.0771C18.3206 24.077 18.3206 24.077 18.3204 24.0771L17.1722 22.4396C16.6603 22.7986 16.3222 23.3963 16.3222 24.073L18.3222 24.073ZM18.3222 25.8251V24.073L16.3222 24.073L16.3222 25.8251L18.3222 25.8251ZM18.3206 25.8211C18.3207 25.8213 18.3213 25.8221 18.3217 25.8236C18.3223 25.8253 18.3222 25.8262 18.3222 25.8251L16.3222 25.8251C16.3222 26.2585 16.4617 26.6623 16.6979 26.9903L18.3206 25.8211ZM17.9516 27.632L18.3731 26.9095L16.6455 25.9018L16.224 26.6243L17.9516 27.632ZM20.6189 29.9927L17.8732 26.5092L16.3025 27.7472L19.0482 31.2308L20.6189 29.9927ZM21.3583 28.0461L19.1948 29.8423L20.4723 31.3811L22.6359 29.5849L21.3583 28.0461ZM21.6467 27.9166C21.6885 27.8747 21.7425 27.8468 21.7985 27.8354L22.1957 29.7956C22.5131 29.7312 22.8163 29.5754 23.0609 29.3308L21.6467 27.9166ZM23.6342 25.9291L21.6467 27.9166L23.0609 29.3308L25.0484 27.3433L23.6342 25.9291ZM23.6342 26.3496C23.518 26.2335 23.518 26.0452 23.6342 25.9291L25.0484 27.3433C25.7133 26.6784 25.7133 25.6003 25.0484 24.9354L23.6342 26.3496ZM24.0546 26.3496C23.9385 26.4657 23.7503 26.4657 23.6342 26.3496L25.0484 24.9354C24.3834 24.2704 23.3053 24.2704 22.6404 24.9354L24.0546 26.3496ZM22.9473 24.6285L22.6404 24.9354L24.0546 26.3496L24.3615 26.0427L22.9473 24.6285ZM22.9473 24.9028C22.8715 24.8271 22.8715 24.7042 22.9473 24.6285L24.3615 26.0427C25.0668 25.3374 25.0668 24.1939 24.3615 23.4886L22.9473 24.9028ZM23.2216 24.9028C23.1459 24.9786 23.0231 24.9786 22.9473 24.9028L24.3615 23.4886C23.6562 22.7833 22.5127 22.7833 21.8074 23.4886L23.2216 24.9028ZM21.8074 23.7629C21.7317 23.6872 21.7317 23.5644 21.8074 23.4886L23.2216 24.9028C23.9269 24.1975 23.9269 23.054 23.2216 22.3487L21.8074 23.7629ZM22.0816 23.763C22.0059 23.8387 21.8831 23.8386 21.8074 23.7629L23.2216 22.3487C22.5167 21.6437 21.3739 21.6434 20.6685 22.3477L22.0816 23.763ZM23.5172 19.499L20.668 22.3483L22.0822 23.7625L24.9315 20.9132L23.5172 19.499ZM23.5172 20.1533C23.3366 19.9726 23.3366 19.6797 23.5172 19.499L24.9315 20.9132C25.5318 20.3128 25.5318 19.3394 24.9315 18.7391L23.5172 20.1533ZM24.1715 20.1533C23.9909 20.334 23.6979 20.334 23.5172 20.1533L24.9315 18.7391C24.3311 18.1387 23.3577 18.1387 22.7573 18.7391L24.1715 20.1533ZM20.3719 23.9529L24.1715 20.1533L22.7573 18.7391L18.9577 22.5387L20.3719 23.9529ZM20.5045 23.6771C20.4933 23.7774 20.4483 23.8765 20.3719 23.9529L18.9577 22.5387C18.7023 22.7941 18.5546 23.1197 18.5171 23.4535L20.5045 23.6771ZM19.9806 24.5097L20.2179 24.2724L18.8037 22.8582L18.5664 23.0955L19.9806 24.5097ZM18.3134 24.0776C18.3128 24.0773 18.3125 24.0771 18.3124 24.0771C18.3124 24.077 18.3124 24.077 18.3124 24.0771C18.3124 24.0771 18.3124 24.0771 18.3124 24.0771C18.3124 24.0771 18.3124 24.077 18.3123 24.0769C18.3122 24.0768 18.3121 24.0766 18.312 24.0764C18.3117 24.0758 18.3113 24.075 18.311 24.074L20.236 23.5313C20.0802 22.9787 19.6947 22.5262 19.1902 22.2801L18.3134 24.0776ZM17.7802 23.3331C17.7602 23.2764 17.7507 23.2162 17.7521 23.1562L19.7516 23.2016C19.7556 23.0229 19.7278 22.8415 19.6658 22.6662L17.7802 23.3331ZM17.2771 21.9108L17.7802 23.3331L19.6658 22.6662L19.1627 21.2439L17.2771 21.9108Z" fill="white" mask="url(#path-2-outside-1_20_11)"/>
<rect x="10" y="13" width="3" height="3" rx="1" fill="white"/>
<rect x="8" y="13" width="4" height="2" rx="1" fill="white"/>
<rect x="22" y="13" width="3" height="3" rx="1" fill="white"/>
<rect x="20" y="13" width="4" height="2" rx="1" fill="white"/>
<line x1="13" y1="19" x2="21" y2="19" stroke="white" stroke-width="2"/>
<line x1="7" y1="11" x2="12" y2="11" stroke="white" stroke-width="2"/>
<line x1="19.8039" y1="9.01942" x2="24.8039" y2="8.01942" stroke="white" stroke-width="2"/>
</g>
<defs>
<clipPath id="clip0_20_11">
<rect width="32" height="32" fill="white"/>
</clipPath>
</defs>
</svg>
