<svg width="32" height="32" viewBox="0 0 32 32" fill="none" xmlns="http://www.w3.org/2000/svg">
<rect x="3" y="3" width="26" height="26" rx="8" stroke="white" stroke-width="2"/>
<path fill-rule="evenodd" clip-rule="evenodd" d="M5.75 9.25C4.7835 10.2165 4.7835 11.7835 5.75 12.75L6.5 13.5L10 17L14.25 12.75C15.2165 11.7835 15.2165 10.2165 14.25 9.25C13.2835 8.2835 11.7165 8.28351 10.75 9.25L10 10L9.25 9.25C8.2835 8.2835 6.7165 8.2835 5.75 9.25Z" fill="white"/>
<path fill-rule="evenodd" clip-rule="evenodd" d="M17.75 9.25C16.7835 10.2165 16.7835 11.7835 17.75 12.75L18.5 13.5L22 17L26.25 12.75C27.2165 11.7835 27.2165 10.2165 26.25 9.25C25.2835 8.2835 23.7165 8.28351 22.75 9.25L22 10L21.25 9.25C20.2835 8.2835 18.7165 8.2835 17.75 9.25Z" fill="white"/>
<path d="M12.5 19H19.5L18.5 21H13.5L12.5 19ZM19.5 21C19.5 22.933 17.933 24.5 16 24.5C14.067 24.5 12.5 22.933 12.5 21H13.5C13.5 22.3807 14.6193 23.5 16 23.5C17.3807 23.5 18.5 22.3807 18.5 21H19.5ZM16 24.5C14.067 24.5 12.5 22.933 12.5 21V19L13.5 21C13.5 22.3807 14.6193 23.5 16 23.5V24.5ZM19.5 19V21C19.5 22.933 17.933 24.5 16 24.5V23.5C17.3807 23.5 18.5 22.3807 18.5 21L19.5 19Z" fill="white"/>
</svg>
