<svg width="32" height="32" viewBox="0 0 32 32" fill="none" xmlns="http://www.w3.org/2000/svg">
<rect x="3" y="3" width="26" height="26" rx="8" stroke="white" stroke-width="2"/>
<path d="M12.5 19H19.5L18.5 21H13.5L12.5 19ZM19.5 21C19.5 22.933 17.933 24.5 16 24.5C14.067 24.5 12.5 22.933 12.5 21H13.5C13.5 22.3807 14.6193 23.5 16 23.5C17.3807 23.5 18.5 22.3807 18.5 21H19.5ZM16 24.5C14.067 24.5 12.5 22.933 12.5 21V19L13.5 21C13.5 22.3807 14.6193 23.5 16 23.5V24.5ZM19.5 19V21C19.5 22.933 17.933 24.5 16 24.5V23.5C17.3807 23.5 18.5 22.3807 18.5 21L19.5 19Z" fill="white"/>
<path d="M10.73 16.24C10.67 16.3267 10.5867 16.39 10.48 16.43C10.3733 16.47 10.2633 16.4833 10.15 16.47C10.0433 16.4567 9.94333 16.4167 9.85 16.35C9.76333 16.29 9.70667 16.2033 9.68 16.09C9.67333 16.0767 9.66667 16.04 9.66 15.98C9.66 15.92 9.65667 15.86 9.65 15.8C9.65 15.7333 9.64667 15.6733 9.64 15.62C9.64 15.5667 9.64 15.54 9.64 15.54C9.48667 15.52 9.30667 15.4933 9.1 15.46C8.9 15.42 8.72333 15.3733 8.57 15.32C8.47 15.28 8.36333 15.24 8.25 15.2C8.14333 15.1533 8.04 15.1033 7.94 15.05C7.84 14.99 7.74667 14.9233 7.66 14.85C7.58 14.77 7.52 14.6767 7.48 14.57C7.44667 14.49 7.42333 14.4067 7.41 14.32C7.40333 14.2267 7.41 14.1367 7.43 14.05C7.45667 13.9633 7.49667 13.8867 7.55 13.82C7.61 13.7533 7.69 13.71 7.79 13.69C7.85667 13.67 7.92333 13.6733 7.99 13.7C8.05667 13.72 8.12 13.75 8.18 13.79C8.24 13.83 8.3 13.8767 8.36 13.93C8.42 13.9767 8.48 14.0133 8.54 14.04C8.69333 14.1 8.87 14.1567 9.07 14.21C9.27667 14.2567 9.46667 14.2933 9.64 14.32V12.58C9.52 12.54 9.38333 12.5033 9.23 12.47C9.08333 12.4367 8.96333 12.4067 8.87 12.38C8.78333 12.3467 8.70333 12.32 8.63 12.3C8.56333 12.2733 8.50333 12.2433 8.45 12.21C8.15667 12.0967 7.94333 11.92 7.81 11.68C7.74333 11.56 7.69333 11.44 7.66 11.32C7.62667 11.1933 7.61 11.0533 7.61 10.9C7.61 10.7667 7.62333 10.6433 7.65 10.53C7.67667 10.41 7.71 10.3 7.75 10.2C7.83 10 7.96 9.82667 8.14 9.68C8.22 9.6 8.31 9.53333 8.41 9.48C8.51667 9.42667 8.63 9.37333 8.75 9.32C8.86333 9.26667 9.00667 9.22667 9.18 9.2C9.35333 9.17333 9.50667 9.15333 9.64 9.14C9.64 9.04667 9.64 8.95 9.64 8.85C9.64 8.74333 9.66667 8.65333 9.72 8.58C9.8 8.46667 9.87333 8.38667 9.94 8.34C10.0067 8.29333 10.1067 8.27667 10.24 8.29C10.36 8.30333 10.4667 8.33333 10.56 8.38C10.6533 8.42667 10.7233 8.51 10.77 8.63C10.77 8.64333 10.77 8.68 10.77 8.74C10.7767 8.79333 10.7833 8.85333 10.79 8.92C10.7967 8.99333 10.8 9.07667 10.8 9.17C11.0133 9.21667 11.2333 9.27667 11.46 9.35C11.6933 9.41667 11.9033 9.50333 12.09 9.61C12.2367 9.70333 12.3533 9.81 12.44 9.93C12.5333 10.0433 12.5767 10.1867 12.57 10.36C12.5633 10.4533 12.5267 10.5433 12.46 10.63C12.3933 10.7167 12.3133 10.7667 12.22 10.78C12.1133 10.7933 12.0133 10.7767 11.92 10.73C11.8267 10.6767 11.7367 10.6267 11.65 10.58C11.5367 10.5267 11.4033 10.4733 11.25 10.42C11.1033 10.36 10.9533 10.3233 10.8 10.31V11.69C10.94 11.73 11.0867 11.7833 11.24 11.85C11.3933 11.91 11.5267 11.9633 11.64 12.01C12.0133 12.1633 12.2867 12.4067 12.46 12.74C12.64 13.0667 12.7233 13.42 12.71 13.8C12.7033 14.0533 12.6533 14.2867 12.56 14.5C12.5067 14.5933 12.4467 14.68 12.38 14.76C12.3133 14.84 12.24 14.9133 12.16 14.98C12.08 15.0533 11.9933 15.1167 11.9 15.17C11.8067 15.2167 11.7033 15.2667 11.59 15.32C11.4767 15.3533 11.35 15.3867 11.21 15.42C11.07 15.4467 10.9333 15.4733 10.8 15.5C10.7933 15.5 10.7867 15.5233 10.78 15.57C10.78 15.61 10.78 15.6567 10.78 15.71C10.7867 15.7633 10.79 15.8167 10.79 15.87C10.7967 15.9167 10.8 15.9433 10.8 15.95C10.8 16.0633 10.7767 16.16 10.73 16.24ZM8.93 10.95C8.93667 11.0033 8.96 11.0633 9 11.13C9.04 11.19 9.08667 11.24 9.14 11.28C9.2 11.32 9.27333 11.3533 9.36 11.38C9.44667 11.4 9.54 11.4167 9.64 11.43V10.3C9.42 10.3133 9.23667 10.37 9.09 10.47C8.95 10.5633 8.89667 10.7233 8.93 10.95ZM11.6 13.63C11.5867 13.5433 11.5533 13.4633 11.5 13.39C11.4533 13.31 11.39 13.24 11.31 13.18C11.2367 13.12 11.1533 13.07 11.06 13.03C10.9733 12.9833 10.8867 12.95 10.8 12.93C10.8 13.1633 10.8033 13.4 10.81 13.64C10.8233 13.8733 10.8267 14.1067 10.82 14.34C10.92 14.3533 11.02 14.3467 11.12 14.32C11.22 14.2867 11.3067 14.24 11.38 14.18C11.4533 14.1133 11.51 14.0333 11.55 13.94C11.5967 13.8467 11.6133 13.7433 11.6 13.63Z" fill="white"/>
<path d="M22.73 16.24C22.67 16.3267 22.5867 16.39 22.48 16.43C22.3733 16.47 22.2633 16.4833 22.15 16.47C22.0433 16.4567 21.9433 16.4167 21.85 16.35C21.7633 16.29 21.7067 16.2033 21.68 16.09C21.6733 16.0767 21.6667 16.04 21.66 15.98C21.66 15.92 21.6567 15.86 21.65 15.8C21.65 15.7333 21.6467 15.6733 21.64 15.62C21.64 15.5667 21.64 15.54 21.64 15.54C21.4867 15.52 21.3067 15.4933 21.1 15.46C20.9 15.42 20.7233 15.3733 20.57 15.32C20.47 15.28 20.3633 15.24 20.25 15.2C20.1433 15.1533 20.04 15.1033 19.94 15.05C19.84 14.99 19.7467 14.9233 19.66 14.85C19.58 14.77 19.52 14.6767 19.48 14.57C19.4467 14.49 19.4233 14.4067 19.41 14.32C19.4033 14.2267 19.41 14.1367 19.43 14.05C19.4567 13.9633 19.4967 13.8867 19.55 13.82C19.61 13.7533 19.69 13.71 19.79 13.69C19.8567 13.67 19.9233 13.6733 19.99 13.7C20.0567 13.72 20.12 13.75 20.18 13.79C20.24 13.83 20.3 13.8767 20.36 13.93C20.42 13.9767 20.48 14.0133 20.54 14.04C20.6933 14.1 20.87 14.1567 21.07 14.21C21.2767 14.2567 21.4667 14.2933 21.64 14.32V12.58C21.52 12.54 21.3833 12.5033 21.23 12.47C21.0833 12.4367 20.9633 12.4067 20.87 12.38C20.7833 12.3467 20.7033 12.32 20.63 12.3C20.5633 12.2733 20.5033 12.2433 20.45 12.21C20.1567 12.0967 19.9433 11.92 19.81 11.68C19.7433 11.56 19.6933 11.44 19.66 11.32C19.6267 11.1933 19.61 11.0533 19.61 10.9C19.61 10.7667 19.6233 10.6433 19.65 10.53C19.6767 10.41 19.71 10.3 19.75 10.2C19.83 10 19.96 9.82667 20.14 9.68C20.22 9.6 20.31 9.53333 20.41 9.48C20.5167 9.42667 20.63 9.37333 20.75 9.32C20.8633 9.26667 21.0067 9.22667 21.18 9.2C21.3533 9.17333 21.5067 9.15333 21.64 9.14C21.64 9.04667 21.64 8.95 21.64 8.85C21.64 8.74333 21.6667 8.65333 21.72 8.58C21.8 8.46667 21.8733 8.38667 21.94 8.34C22.0067 8.29333 22.1067 8.27667 22.24 8.29C22.36 8.30333 22.4667 8.33333 22.56 8.38C22.6533 8.42667 22.7233 8.51 22.77 8.63C22.77 8.64333 22.77 8.68 22.77 8.74C22.7767 8.79333 22.7833 8.85333 22.79 8.92C22.7967 8.99333 22.8 9.07667 22.8 9.17C23.0133 9.21667 23.2333 9.27667 23.46 9.35C23.6933 9.41667 23.9033 9.50333 24.09 9.61C24.2367 9.70333 24.3533 9.81 24.44 9.93C24.5333 10.0433 24.5767 10.1867 24.57 10.36C24.5633 10.4533 24.5267 10.5433 24.46 10.63C24.3933 10.7167 24.3133 10.7667 24.22 10.78C24.1133 10.7933 24.0133 10.7767 23.92 10.73C23.8267 10.6767 23.7367 10.6267 23.65 10.58C23.5367 10.5267 23.4033 10.4733 23.25 10.42C23.1033 10.36 22.9533 10.3233 22.8 10.31V11.69C22.94 11.73 23.0867 11.7833 23.24 11.85C23.3933 11.91 23.5267 11.9633 23.64 12.01C24.0133 12.1633 24.2867 12.4067 24.46 12.74C24.64 13.0667 24.7233 13.42 24.71 13.8C24.7033 14.0533 24.6533 14.2867 24.56 14.5C24.5067 14.5933 24.4467 14.68 24.38 14.76C24.3133 14.84 24.24 14.9133 24.16 14.98C24.08 15.0533 23.9933 15.1167 23.9 15.17C23.8067 15.2167 23.7033 15.2667 23.59 15.32C23.4767 15.3533 23.35 15.3867 23.21 15.42C23.07 15.4467 22.9333 15.4733 22.8 15.5C22.7933 15.5 22.7867 15.5233 22.78 15.57C22.78 15.61 22.78 15.6567 22.78 15.71C22.7867 15.7633 22.79 15.8167 22.79 15.87C22.7967 15.9167 22.8 15.9433 22.8 15.95C22.8 16.0633 22.7767 16.16 22.73 16.24ZM20.93 10.95C20.9367 11.0033 20.96 11.0633 21 11.13C21.04 11.19 21.0867 11.24 21.14 11.28C21.2 11.32 21.2733 11.3533 21.36 11.38C21.4467 11.4 21.54 11.4167 21.64 11.43V10.3C21.42 10.3133 21.2367 10.37 21.09 10.47C20.95 10.5633 20.8967 10.7233 20.93 10.95ZM23.6 13.63C23.5867 13.5433 23.5533 13.4633 23.5 13.39C23.4533 13.31 23.39 13.24 23.31 13.18C23.2367 13.12 23.1533 13.07 23.06 13.03C22.9733 12.9833 22.8867 12.95 22.8 12.93C22.8 13.1633 22.8033 13.4 22.81 13.64C22.8233 13.8733 22.8267 14.1067 22.82 14.34C22.92 14.3533 23.02 14.3467 23.12 14.32C23.22 14.2867 23.3067 14.24 23.38 14.18C23.4533 14.1133 23.51 14.0333 23.55 13.94C23.5967 13.8467 23.6133 13.7433 23.6 13.63Z" fill="white"/>
</svg>
