<svg width="32" height="32" viewBox="0 0 32 32" fill="none" xmlns="http://www.w3.org/2000/svg">
<rect x="3" y="3" width="26" height="26" rx="2" stroke="white" stroke-width="2"/>
<path fill-rule="evenodd" clip-rule="evenodd" d="M6.1248 16.2669C3.84674 13.9889 3.84675 10.2954 6.1248 8.01735C8.40286 5.73929 12.0963 5.73929 14.3744 8.01735L16.1421 9.78512L17.9099 8.01735C20.188 5.73929 23.8814 5.73929 26.1595 8.01735C28.4376 10.2954 28.4376 13.9889 26.1595 16.2669L24.3917 18.0347L16.1421 26.2843L7.89257 18.0347L6.1248 16.2669ZM14 10H18V14L22 14V18H18V22H14V18H10V14H14V10Z" fill="white"/>
</svg>
