<svg width="32" height="32" viewBox="0 0 32 32" fill="none" xmlns="http://www.w3.org/2000/svg">
<rect x="3" y="3" width="26" height="26" rx="8" stroke="white" stroke-width="2"/>
<path d="M9 18C9 18 10.5 23 16.5 23C22.5 23 24 18 24 18" stroke="white" stroke-width="2"/>
<rect x="11.8284" y="20.5" width="1.18868" height="4" rx="0.594339" transform="rotate(45 11.8284 20.5)" fill="white"/>
<path d="M15 22.5C15 23.2466 14.7911 23.9783 14.3968 24.6123C14.0026 25.2463 13.4387 25.7573 12.7692 26.0875C12.0996 26.4177 11.3509 26.5539 10.6079 26.4807C9.86494 26.4076 9.15726 26.1279 8.56495 25.6734C7.97265 25.2189 7.51936 24.6077 7.25638 23.909C6.99339 23.2103 6.93121 22.4519 7.07686 21.7196C7.22251 20.9874 7.57018 20.3105 8.08054 19.7656C8.5909 19.2207 9.24358 18.8295 9.96472 18.6363L10.3788 20.1818C9.94615 20.2977 9.55454 20.5324 9.24833 20.8594C8.94211 21.1863 8.73351 21.5924 8.64612 22.0318C8.55872 22.4711 8.59603 22.9262 8.75383 23.3454C8.91162 23.7646 9.18359 24.1314 9.53897 24.404C9.89436 24.6767 10.319 24.8445 10.7648 24.8884C11.2106 24.9324 11.6597 24.8506 12.0615 24.6525C12.4632 24.4544 12.8015 24.1478 13.0381 23.7674C13.2746 23.387 13.4 22.948 13.4 22.5H15Z" fill="white"/>
<rect x="7" y="11" width="3" height="4" rx="1" fill="white"/>
<rect x="23" y="11" width="3" height="4" rx="1" fill="white"/>
</svg>
