<svg width="32" height="32" viewBox="0 0 32 32" fill="none" xmlns="http://www.w3.org/2000/svg">
<g clip-path="url(#clip0_29_465)">
<rect x="8" y="12" width="3" height="3" rx="1" fill="white"/>
<rect x="21" y="12" width="3" height="3" rx="1" fill="white"/>
<rect x="18.5" y="9.5" width="8" height="8" rx="4" stroke="white"/>
<line x1="26.416" y1="15.7226" x2="28.416" y2="18.7227" stroke="white"/>
<path d="M13 19H19V21C19 22.6569 17.6569 24 16 24C14.3431 24 13 22.6569 13 21V19Z" fill="white"/>
<path fill-rule="evenodd" clip-rule="evenodd" d="M2.99999 20L4.73204 19L5.94343 21.0982C6.18816 21.0339 6.44383 21 6.70556 21H7.59617C8.75826 21 9.81581 21.6711 10.3106 22.7226L12.8977 28.2201C13.2741 29.02 13.2271 29.9549 12.7722 30.7129C12.2931 31.5114 11.4302 32 10.499 32H5.16227C3.87098 32 2.71771 31.1532 2.30937 29.9281C2.11022 29.3307 2.10107 28.6765 2.28891 28.0754L3.84212 23.1052C3.94268 22.7834 4.09397 22.488 4.28554 22.2266L2.99999 20ZM7.48 30.43C7.58667 30.39 7.67 30.3267 7.73 30.24C7.77667 30.16 7.8 30.0633 7.8 29.95C7.8 29.9433 7.79667 29.9167 7.79 29.87C7.79 29.8167 7.78667 29.7633 7.78 29.71V29.57C7.78667 29.5233 7.79333 29.5 7.8 29.5C7.93333 29.4733 8.07 29.4467 8.21 29.42C8.35 29.3867 8.47667 29.3533 8.59 29.32C8.70333 29.2667 8.80667 29.2167 8.9 29.17C8.99333 29.1167 9.08 29.0533 9.16 28.98C9.24 28.9133 9.31333 28.84 9.38 28.76C9.44667 28.68 9.50667 28.5933 9.56 28.5C9.65333 28.2867 9.70333 28.0533 9.71 27.8C9.72333 27.42 9.64 27.0667 9.46 26.74C9.28667 26.4067 9.01333 26.1633 8.64 26.01C8.52667 25.9633 8.39333 25.91 8.24 25.85C8.08667 25.7833 7.94 25.73 7.8 25.69V24.31C7.95333 24.3233 8.10333 24.36 8.25 24.42C8.40333 24.4733 8.53667 24.5267 8.65 24.58C8.73667 24.6267 8.82667 24.6767 8.92 24.73C9.01333 24.7767 9.11333 24.7933 9.22 24.78C9.31333 24.7667 9.39333 24.7167 9.46 24.63C9.52667 24.5433 9.56333 24.4533 9.57 24.36C9.57667 24.1867 9.53333 24.0433 9.44 23.93C9.35333 23.81 9.23667 23.7033 9.09 23.61C8.90333 23.5033 8.69333 23.4167 8.46 23.35C8.23333 23.2767 8.01333 23.2167 7.8 23.17C7.8 23.0767 7.79667 22.9933 7.79 22.92C7.78333 22.8533 7.77667 22.7933 7.77 22.74V22.63C7.72333 22.51 7.65333 22.4267 7.56 22.38C7.46667 22.3333 7.36 22.3033 7.24 22.29C7.10667 22.2767 7.00667 22.2933 6.94 22.34C6.87333 22.3867 6.8 22.4667 6.72 22.58C6.66667 22.6533 6.64 22.7433 6.64 22.85V23.14C6.50667 23.1533 6.35333 23.1733 6.18 23.2C6.00667 23.2267 5.86333 23.2667 5.75 23.32C5.63 23.3733 5.51667 23.4267 5.41 23.48C5.31 23.5333 5.22 23.6 5.14 23.68C4.96 23.8267 4.83 24 4.75 24.2C4.71 24.3 4.67667 24.41 4.65 24.53C4.62333 24.6433 4.61 24.7667 4.61 24.9C4.61 25.0533 4.62667 25.1933 4.66 25.32C4.69333 25.44 4.74333 25.56 4.81 25.68C4.94333 25.92 5.15667 26.0967 5.45 26.21C5.50333 26.2433 5.56333 26.2733 5.63 26.3C5.70333 26.32 5.78333 26.3467 5.87 26.38C5.96333 26.4067 6.08333 26.4367 6.23 26.47C6.38333 26.5033 6.52 26.54 6.64 26.58V28.32C6.46667 28.2933 6.27667 28.2567 6.07 28.21C5.87 28.1567 5.69333 28.1 5.54 28.04C5.48 28.0133 5.42 27.9767 5.36 27.93C5.3 27.8767 5.24 27.83 5.18 27.79C5.12 27.75 5.05667 27.72 4.99 27.7C4.92333 27.6733 4.85667 27.67 4.79 27.69C4.69 27.71 4.61 27.7533 4.55 27.82C4.49667 27.8867 4.45667 27.9633 4.43 28.05C4.41 28.1367 4.40333 28.2267 4.41 28.32C4.42333 28.4067 4.44667 28.49 4.48 28.57C4.52 28.6767 4.58 28.77 4.66 28.85C4.74667 28.9233 4.84 28.99 4.94 29.05C5.04 29.1033 5.14333 29.1533 5.25 29.2C5.36333 29.24 5.47 29.28 5.57 29.32C5.72333 29.3733 5.9 29.42 6.1 29.46C6.30667 29.4933 6.48667 29.52 6.64 29.54V29.62C6.64667 29.6733 6.65 29.7333 6.65 29.8C6.65667 29.86 6.66 29.92 6.66 29.98C6.66667 30.04 6.67333 30.0767 6.68 30.09C6.70667 30.2033 6.76333 30.29 6.85 30.35C6.94333 30.4167 7.04333 30.4567 7.15 30.47C7.26333 30.4833 7.37333 30.47 7.48 30.43ZM6 25.13C5.96 25.0633 5.93667 25.0033 5.93 24.95C5.89667 24.7233 5.95 24.5633 6.09 24.47C6.23667 24.37 6.42 24.3133 6.64 24.3V25.43C6.54 25.4167 6.44667 25.4 6.36 25.38C6.27333 25.3533 6.2 25.32 6.14 25.28C6.08667 25.24 6.04 25.19 6 25.13ZM8.5 27.39C8.55333 27.4633 8.58667 27.5433 8.6 27.63C8.61333 27.7433 8.59667 27.8467 8.55 27.94C8.51 28.0333 8.45333 28.1133 8.38 28.18C8.30667 28.24 8.22 28.2867 8.12 28.32C8.02 28.3467 7.92 28.3533 7.82 28.34C7.82667 28.1067 7.82333 27.8733 7.81 27.64C7.80333 27.4 7.8 27.1633 7.8 26.93C7.88667 26.95 7.97333 26.9833 8.06 27.03C8.15333 27.07 8.23667 27.12 8.31 27.18C8.39 27.24 8.45333 27.31 8.5 27.39Z" fill="white"/>
<path fill-rule="evenodd" clip-rule="evenodd" d="M11 2C6.02944 2 2 6.02944 2 11V21C2 22.4876 2.36093 23.891 3 25.1272V19H4V11C4 7.13401 7.13401 4 11 4H21C24.866 4 28 7.13401 28 11V21C28 24.866 24.866 28 21 28H13V30H21C25.9706 30 30 25.9706 30 21V11C30 6.02944 25.9706 2 21 2H11Z" fill="white"/>
<path fill-rule="evenodd" clip-rule="evenodd" d="M2.33917 0.217867L0.21785 2.33919L2.53553 4.65686L1.82842 5.36397L2.53553 6.07108L6.07106 2.53554L5.36395 1.82844L4.65685 2.53554L2.33917 0.217867Z" fill="white"/>
</g>
<defs>
<clipPath id="clip0_29_465">
<rect width="32" height="32" fill="white"/>
</clipPath>
</defs>
</svg>
