<svg width="32" height="32" viewBox="0 0 32 32" fill="none" xmlns="http://www.w3.org/2000/svg">
<path d="M12 22C12 22 12.7 24 15.5 24C18.3 24 19 22 19 22" stroke="white" stroke-width="2"/>
<path d="M6 13C6 13 6.7 15 9.5 15C12.3 15 13 13 13 13" stroke="white" stroke-width="2"/>
<path d="M18 13C18 13 18.7 15 21.5 15C24.3 15 25 13 25 13" stroke="white" stroke-width="2"/>
<path d="M29 4.5C29 4.66766 28.8938 5.0002 28.2948 5.45542C27.7114 5.89872 26.8042 6.34079 25.5935 6.72995C23.1834 7.50464 19.7914 8 16 8C12.2086 8 8.81665 7.50464 6.40651 6.72995C5.1958 6.34079 4.28857 5.89872 3.70524 5.45542C3.10623 5.0002 3 4.66766 3 4.5C3 4.33234 3.10623 3.9998 3.70524 3.54458C4.28857 3.10128 5.1958 2.65921 6.40651 2.27005C8.81665 1.49536 12.2086 1 16 1C19.7914 1 23.1834 1.49536 25.5935 2.27005C26.8042 2.65921 27.7114 3.10128 28.2948 3.54458C28.8938 3.9998 29 4.33234 29 4.5Z" stroke="white" stroke-width="2"/>
<path fill-rule="evenodd" clip-rule="evenodd" d="M26.1317 4.04256C26.1325 4.04263 26.1276 4.04947 26.1144 4.06289C26.1242 4.04919 26.1308 4.04248 26.1317 4.04256ZM23.9253 3.94513C24.5581 4.1297 25.0533 4.321 25.4219 4.5C25.1577 4.62827 24.8286 4.76286 24.4304 4.89676C23.4167 4.32575 22.2464 4 21 4H11C9.75362 4 8.58331 4.32575 7.56959 4.89676C7.17138 4.76286 6.84225 4.62827 6.57811 4.5C6.94672 4.321 7.4419 4.1297 8.07472 3.94513C10.0182 3.37829 12.8208 3 16 3C19.1792 3 21.9818 3.37829 23.9253 3.94513ZM5.78051 6.33547C5.00574 5.96928 4.45587 5.55832 4.18706 5.11897C2.82426 6.69631 2 8.7519 2 11V21C2 25.9706 6.02944 30 11 30H21C25.9706 30 30 25.9706 30 21V11C30 8.7519 29.1757 6.69631 27.8129 5.11897C27.5441 5.55832 26.9943 5.96928 26.2195 6.33547C27.3268 7.57365 28 9.2082 28 11V21C28 24.866 24.866 28 21 28H11C7.13401 28 4 24.866 4 21V11C4 9.2082 4.67322 7.57364 5.78051 6.33547ZM5.86831 4.04256C5.86915 4.04248 5.87578 4.0492 5.88564 4.06291C5.8724 4.04949 5.86747 4.04263 5.86831 4.04256ZM5.86831 4.95744C5.86747 4.95737 5.8724 4.95051 5.88564 4.93709C5.87578 4.9508 5.86915 4.95752 5.86831 4.95744ZM26.1144 4.9371C26.1276 4.95051 26.1325 4.95737 26.1317 4.95744C26.1308 4.95752 26.1242 4.9508 26.1144 4.9371Z" fill="white"/>
</svg>
