<svg width="32" height="32" viewBox="0 0 32 32" fill="none" xmlns="http://www.w3.org/2000/svg">
<rect x="3" y="3" width="26" height="26" rx="8" stroke="white" stroke-width="2"/>
<path fill-rule="evenodd" clip-rule="evenodd" d="M13.6462 22.9821C13.9164 22.2916 13.7395 21.4767 13.1465 20.9642L10.5269 18.7004C10.4329 18.6191 10.3281 18.5585 10.218 18.5181C10.3068 17.5838 9.9572 16.622 9.19305 15.9616C7.93946 14.8782 6.04499 15.0162 4.96162 16.2698C3.87826 17.5234 4.01626 19.4179 5.26985 20.5013C6.034 21.1617 7.0363 21.3682 7.94785 21.1449C8.00381 21.248 8.079 21.3429 8.17301 21.4242L10.7926 23.688C11.3855 24.2004 12.2175 24.2574 12.8616 23.8901L8.20103 19.8624C8.09113 19.7674 8.02411 19.6413 8.00172 19.5084C7.46412 19.8328 6.75744 19.7923 6.2566 19.3595C5.6336 18.8211 5.56502 17.8796 6.10342 17.2566C6.64182 16.6336 7.58331 16.565 8.2063 17.1034C8.70714 17.5362 8.84967 18.2296 8.60657 18.8085C8.74126 18.8114 8.87578 18.8595 8.98567 18.9544L13.6462 22.9821Z" fill="white"/>
<rect x="12.9608" y="22.0945" width="1.2" height="4.08749" transform="rotate(130.834 12.9608 22.0945)" fill="white"/>
<rect x="8.41046" y="17.6539" width="1" height="1" rx="0.5" transform="rotate(130.834 8.41046 17.6539)" fill="white"/>
<path d="M12 24C12 24 12.9 21 16.5 21C20.1 21 21 24 21 24" stroke="white" stroke-width="2"/>
<rect x="7" y="11" width="3" height="4" rx="1" fill="white"/>
<rect x="23" y="11" width="3" height="4" rx="1" fill="white"/>
<line x1="5.7" y1="9.6" x2="9.7" y2="6.6" stroke="white"/>
<line y1="-0.5" x2="5" y2="-0.5" transform="matrix(-0.8 -0.6 -0.6 0.8 27 10)" stroke="white"/>
</svg>
