<svg width="32" height="32" viewBox="0 0 32 32" fill="none" xmlns="http://www.w3.org/2000/svg">
<rect x="3" y="3" width="26" height="26" rx="2" stroke="white" stroke-width="2"/>
<line x1="26" y1="20" x2="6" y2="20" stroke="white" stroke-width="2"/>
<line x1="26" y1="12" x2="6" y2="12" stroke="white" stroke-width="2"/>
<path d="M16 27L13.0901 21.96L18.9098 21.96L16 27Z" fill="white"/>
<path d="M16 5L13.0901 10.04L18.9098 10.04L16 5Z" fill="white"/>
<path d="M18.0003 19.4647C17.7011 19.6378 17.3774 19.7733 17.0357 19.8646L16.9065 19.3816C16.6179 19.4587 16.3142 19.5 16 19.5C15.6858 19.5 15.3821 19.4587 15.0935 19.3816L14.9643 19.8646C14.6226 19.7733 14.2989 19.6378 13.9997 19.4647L14.2501 19.0319C13.7188 18.7245 13.2755 18.2812 12.9681 17.7499L12.5353 18.0003C12.3622 17.7011 12.2267 17.3774 12.1354 17.0357L12.6184 16.9065C12.5413 16.6179 12.5 16.3142 12.5 16C12.5 15.6858 12.5413 15.3821 12.6184 15.0935L12.1354 14.9643C12.2267 14.6226 12.3622 14.2989 12.5353 13.9997L12.9681 14.2501C13.2755 13.7188 13.7188 13.2755 14.2501 12.9681L13.9997 12.5353C14.2989 12.3622 14.6226 12.2267 14.9643 12.1354L15.0935 12.6184C15.3821 12.5413 15.6858 12.5 16 12.5C16.3142 12.5 16.6179 12.5413 16.9065 12.6184L17.0357 12.1354C17.3774 12.2267 17.7011 12.3622 18.0003 12.5353L17.7499 12.9681C18.2812 13.2755 18.7245 13.7188 19.0319 14.2501L19.4647 13.9997C19.6378 14.2989 19.7733 14.6226 19.8646 14.9643L19.3816 15.0935C19.4587 15.3821 19.5 15.6858 19.5 16C19.5 16.3142 19.4587 16.6179 19.3816 16.9065L19.8646 17.0357C19.7733 17.3774 19.6378 17.7011 19.4647 18.0003L19.0319 17.7499C18.7245 18.2812 18.2812 18.7245 17.7499 19.0319L18.0003 19.4647Z" stroke="white" stroke-dasharray="2 1"/>
</svg>
