<svg width="32" height="32" viewBox="0 0 32 32" fill="none" xmlns="http://www.w3.org/2000/svg">
<path d="M13 25H21V23C21 21.3431 19.6569 20 18 20H16C14.3431 20 13 21.3431 13 23V25Z" stroke="white" stroke-width="2"/>
<rect x="7" y="12" width="3" height="4" rx="1" fill="white"/>
<rect x="23" y="12" width="3" height="4" rx="1" fill="white"/>
<mask id="path-4-inside-1_327_219" fill="white">
<path fill-rule="evenodd" clip-rule="evenodd" d="M25.7211 5.45246C25.2805 5.81814 25 6.3699 25 6.98718C25 8.08821 25.8926 8.98077 26.9936 8.98077C28.0946 8.98077 28.9872 8.08821 28.9872 6.98718C28.9872 6.38396 28.7193 5.84331 28.2959 5.47773L26.246 2.99999C26.246 2.99999 26.398 3.93141 26.246 4.49519C26.1596 4.81566 25.934 5.16948 25.7211 5.45246Z"/>
</mask>
<path fill-rule="evenodd" clip-rule="evenodd" d="M25.7211 5.45246C25.2805 5.81814 25 6.3699 25 6.98718C25 8.08821 25.8926 8.98077 26.9936 8.98077C28.0946 8.98077 28.9872 8.08821 28.9872 6.98718C28.9872 6.38396 28.7193 5.84331 28.2959 5.47773L26.246 2.99999C26.246 2.99999 26.398 3.93141 26.246 4.49519C26.1596 4.81566 25.934 5.16948 25.7211 5.45246Z" fill="white"/>
<path d="M25.7211 5.45246L26.3598 6.22191L26.4498 6.14716L26.5202 6.05363L25.7211 5.45246ZM28.2959 5.47773L27.5255 6.11519L27.5789 6.17979L27.6423 6.23458L28.2959 5.47773ZM26.246 2.99999L27.0165 2.36253L24.665 -0.479675L25.259 3.16104L26.246 2.99999ZM26.246 4.49519L25.2805 4.23491L26.246 4.49519ZM26 6.98718C26 6.67987 26.1383 6.40575 26.3598 6.22191L25.0824 4.683C24.4228 5.23052 24 6.05992 24 6.98718L26 6.98718ZM26.9936 7.98077C26.4448 7.98077 26 7.53593 26 6.98718L24 6.98718C24 8.6405 25.3403 9.98077 26.9936 9.98077L26.9936 7.98077ZM27.9872 6.98718C27.9872 7.53593 27.5423 7.98077 26.9936 7.98077L26.9936 9.98077C28.6469 9.98077 29.9872 8.6405 29.9872 6.98718L27.9872 6.98718ZM27.6423 6.23458C27.8551 6.41829 27.9872 6.68675 27.9872 6.98718L29.9872 6.98718C29.9872 6.08116 29.5835 5.26832 28.9495 4.72089L27.6423 6.23458ZM25.4755 3.63745L27.5255 6.11519L29.0664 4.84027L27.0165 2.36253L25.4755 3.63745ZM27.2115 4.75547C27.3326 4.30649 27.3211 3.79431 27.301 3.47366C27.29 3.29736 27.2735 3.14273 27.2598 3.03175C27.2529 2.97592 27.2466 2.93025 27.2418 2.89739C27.2394 2.88093 27.2374 2.86763 27.2359 2.85779C27.2351 2.85287 27.2345 2.84882 27.234 2.84566C27.2338 2.84409 27.2335 2.84274 27.2334 2.84162C27.2333 2.84106 27.2332 2.84055 27.2331 2.84011C27.2331 2.83989 27.233 2.83968 27.233 2.83949C27.233 2.83939 27.233 2.83925 27.233 2.83921C27.233 2.83908 27.2329 2.83895 26.246 2.99999C25.259 3.16104 25.259 3.16092 25.259 3.1608C25.259 3.16077 25.259 3.16066 25.259 3.16059C25.2589 3.16045 25.2589 3.16033 25.2589 3.16022C25.2589 3.16 25.2588 3.15984 25.2588 3.15973C25.2588 3.1595 25.2588 3.1595 25.2588 3.1597C25.2589 3.16011 25.2591 3.16135 25.2594 3.16339C25.26 3.16748 25.2611 3.17473 25.2626 3.18485C25.2655 3.20512 25.2699 3.23663 25.2749 3.27692C25.2849 3.3582 25.297 3.47166 25.3049 3.59868C25.3228 3.88468 25.3114 4.12011 25.2805 4.23491L27.2115 4.75547ZM26.5202 6.05363C26.747 5.75214 27.0726 5.27064 27.2115 4.75547L25.2805 4.23491C25.2465 4.36068 25.1209 4.58683 24.922 4.85128L26.5202 6.05363Z" fill="white" mask="url(#path-4-inside-1_327_219)"/>
<path fill-rule="evenodd" clip-rule="evenodd" d="M23.8097 4.58671C23.9959 4.34095 24.2098 4.11738 24.4468 3.92064C24.6635 3.63262 24.8868 3.30803 25.0768 2.97414C23.8529 2.35121 22.4674 2 21 2H11C6.02944 2 2 6.02944 2 11V21C2 25.9706 6.02944 30 11 30H21C25.9706 30 30 25.9706 30 21V11C30 10.5729 29.9703 10.1528 29.9127 9.74156C29.4024 10.2836 28.7424 10.6831 27.9989 10.8743C27.9996 10.9161 28 10.958 28 11V21C28 24.866 24.866 28 21 28H11C7.13401 28 4 24.866 4 21V11C4 7.13401 7.13401 4 11 4H21C21.9993 4 22.9497 4.2094 23.8097 4.58671Z" fill="white"/>
<line y1="-1.5" x2="5.83095" y2="-1.5" transform="matrix(0.857493 -0.514496 -0.514496 -0.857493 4 12)" stroke="white" stroke-width="3"/>
<line x1="28.2283" y1="13.2862" x2="23.2283" y2="10.2862" stroke="white" stroke-width="3"/>
</svg>
