<svg width="32" height="32" viewBox="0 0 32 32" fill="none" xmlns="http://www.w3.org/2000/svg">
<path d="M27 16C27 22.0751 22.0751 27 16 27C9.92487 27 5 22.0751 5 16C5 12.9898 6.20443 10.7853 8.12469 9.30714C10.0759 7.80519 12.8417 7 16 7C19.1583 7 21.9241 7.80519 23.8753 9.30714C25.7956 10.7853 27 12.9898 27 16Z" stroke="white" stroke-width="2"/>
<line x1="14.0385" y1="9.27472" x2="12.0385" y2="2.27472" stroke="white" stroke-width="2"/>
<path fill-rule="evenodd" clip-rule="evenodd" d="M21.065 7.48598C20.4133 8.27116 19.4299 8.77117 18.3297 8.77117C16.3674 8.77117 14.7766 7.18037 14.7766 5.21802C14.7766 3.25566 16.3674 1.66486 18.3297 1.66486C19.4048 1.66486 20.3684 2.14236 21.02 2.89684L25.436 6.55046C25.436 6.55046 23.776 6.27959 22.7712 6.55046C22.2 6.70444 21.5694 7.10656 21.065 7.48598Z" fill="white"/>
</svg>
