<svg width="32" height="32" viewBox="0 0 32 32" fill="none" xmlns="http://www.w3.org/2000/svg">
<g clip-path="url(#clip0_328_302)">
<rect x="9" y="24" width="4" height="7" fill="white"/>
<rect x="5.99011" y="6.68524" width="4" height="7" transform="rotate(-11.8054 5.99011 6.68524)" fill="white"/>
<path d="M4 1.26978L7.72647 1.26978L9.36778 4.33323L5.5563 5.54672L4 1.26978Z" fill="white"/>
<rect x="4.90089" y="5.11487" width="5.11895" height="2" rx="0.5" transform="rotate(-15.1689 4.90089 5.11487)" stroke="white"/>
<rect x="6.63623" y="13.7885" width="5.11895" height="2" rx="0.5" transform="rotate(-11.7089 6.63623 13.7885)" stroke="white"/>
<rect x="7.6756" y="22.276" width="6.00434" height="2" rx="0.5" transform="rotate(-4.11706 7.6756 22.276)" stroke="white"/>
<rect x="7.72644" y="15.3022" width="4" height="7" transform="rotate(-7.64969 7.72644 15.3022)" fill="white"/>
<rect width="4" height="6" transform="matrix(-1 0 0 1 21 25)" fill="white"/>
<rect width="4" height="7" transform="matrix(-0.978848 -0.204588 -0.204588 0.978848 24.3525 7.68524)" fill="white"/>
<path d="M26.7234 1.07391L23 1.07391L20.9749 5.33324L24.7863 6.54674L26.7234 1.07391Z" fill="white"/>
<rect x="-0.613412" y="0.351747" width="5.11895" height="2" rx="0.5" transform="matrix(-0.965159 -0.261665 -0.261665 0.965159 24.9417 5.61487)" stroke="white"/>
<rect x="-0.591066" y="0.388125" width="5.11895" height="2" rx="0.5" transform="matrix(-0.979191 -0.20294 -0.20294 0.979191 23.2064 14.2885)" stroke="white"/>
<rect x="-0.534607" y="0.462812" width="6.00434" height="2" rx="0.5" transform="matrix(-0.997419 -0.0717945 -0.0717945 0.997419 22.1671 22.776)" stroke="white"/>
<rect width="4" height="7" transform="matrix(-0.9911 -0.133116 -0.133116 0.9911 22.6161 16.3022)" fill="white"/>
<mask id="path-15-inside-1_328_302" fill="white">
<path fill-rule="evenodd" clip-rule="evenodd" d="M2.93387 11.8358C3.02657 12.6362 3.50466 13.4146 4.28908 13.8972C5.58114 14.692 7.21504 14.383 7.93849 13.207C8.66194 12.031 8.20099 10.4333 6.90893 9.6385C6.14275 9.16716 5.25637 9.08397 4.51091 9.33955L0.931796 9.74399C0.931796 9.74399 1.81831 10.1171 2.23151 10.5435C2.55791 10.8804 2.80429 11.4728 2.93387 11.8358Z"/>
</mask>
<path d="M2.93387 11.8358L4.92058 11.6057L4.89429 11.3787L4.81748 11.1635L2.93387 11.8358ZM4.51091 9.33955L4.73547 11.3269L4.95273 11.3024L5.15954 11.2315L4.51091 9.33955ZM0.931796 9.74399L0.70723 7.75663L-6.90277 8.61655L0.155964 11.5874L0.931796 9.74399ZM2.23151 10.5435L0.795168 11.9353L0.795169 11.9353L2.23151 10.5435ZM5.33702 12.1937C5.05972 12.0231 4.94073 11.7796 4.92058 11.6057L0.947148 12.0659C1.11242 13.4927 1.9496 14.8061 3.24114 15.6007L5.33702 12.1937ZM6.23502 12.1591C6.19647 12.2218 6.11759 12.2953 5.95538 12.326C5.78906 12.3575 5.56313 12.3328 5.33702 12.1937L3.24114 15.6007C5.31958 16.8793 8.24911 16.5191 9.64196 14.255L6.23502 12.1591ZM5.86099 11.342C6.0871 11.4811 6.21098 11.6716 6.2579 11.8342C6.30367 11.9929 6.27357 12.0964 6.23502 12.1591L9.64196 14.255C11.0348 11.9908 10.0353 9.21363 7.95687 7.93502L5.86099 11.342ZM5.15954 11.2315C5.32525 11.1746 5.59061 11.1756 5.86099 11.342L7.95687 7.93502C6.69489 7.15868 5.18748 6.99331 3.86227 7.44766L5.15954 11.2315ZM1.15636 11.7313L4.73547 11.3269L4.28634 7.3522L0.70723 7.75663L1.15636 11.7313ZM3.66786 9.15181C3.23292 8.70293 2.67388 8.38327 2.37207 8.22138C2.19425 8.126 2.03523 8.04897 1.91995 7.99538C1.86172 7.9683 1.81312 7.9465 1.77704 7.9306C1.75896 7.92264 1.74391 7.91611 1.73225 7.91109C1.72642 7.90858 1.72142 7.90645 1.71731 7.9047C1.71525 7.90382 1.71341 7.90304 1.7118 7.90236C1.71099 7.90201 1.71024 7.9017 1.70954 7.9014C1.70919 7.90126 1.70886 7.90112 1.70854 7.90098C1.70838 7.90091 1.70815 7.90082 1.70808 7.90078C1.70785 7.90069 1.70763 7.9006 0.931796 9.74399C0.155964 11.5874 0.155749 11.5873 0.155538 11.5872C0.155472 11.5872 0.155263 11.5871 0.155131 11.587C0.154866 11.5869 0.154613 11.5868 0.154374 11.5867C0.153894 11.5865 0.153465 11.5863 0.153085 11.5862C0.152326 11.5858 0.151764 11.5856 0.151396 11.5854C0.15066 11.5851 0.150692 11.5851 0.151452 11.5855C0.15298 11.5861 0.157384 11.588 0.164353 11.5911C0.178366 11.5973 0.202253 11.608 0.233589 11.6225C0.297447 11.6522 0.385875 11.6951 0.48134 11.7463C0.726084 11.8776 0.816904 11.9577 0.795168 11.9353L3.66786 9.15181ZM4.81748 11.1635C4.69127 10.8099 4.32803 9.83314 3.66786 9.15181L0.795169 11.9353C0.765232 11.9044 0.764543 11.897 0.787003 11.9313C0.807653 11.9629 0.836173 12.0118 0.870089 12.0792C0.939387 12.2168 1.00218 12.3734 1.05025 12.5081L4.81748 11.1635Z" fill="white" mask="url(#path-15-inside-1_328_302)"/>
<mask id="path-17-inside-2_328_302" fill="white">
<path fill-rule="evenodd" clip-rule="evenodd" d="M26.3183 20.7769C26.4136 21.577 26.129 22.4451 25.4778 23.0963C24.4051 24.169 22.7441 24.2471 21.7678 23.2708C20.7915 22.2944 20.8696 20.6334 21.9422 19.5608C22.5783 18.9247 23.4213 18.6383 24.2057 18.7142L27.7811 18.2781C27.7811 18.2781 27.0052 18.8465 26.702 19.3571C26.4626 19.7604 26.3602 20.3938 26.3183 20.7769Z"/>
</mask>
<path d="M26.3183 20.7769L24.3324 21.0135L24.3053 20.7866L24.3302 20.5595L26.3183 20.7769ZM24.2057 18.7142L24.4478 20.6995L24.2308 20.7259L24.0132 20.7049L24.2057 18.7142ZM27.7811 18.2781L27.5389 16.2928L35.141 15.3656L28.963 19.8915L27.7811 18.2781ZM26.702 19.3571L28.4218 20.378L28.4218 20.378L26.702 19.3571ZM24.0635 21.6821C24.2938 21.4519 24.3531 21.1874 24.3324 21.0135L28.3043 20.5403C28.4742 21.9666 27.9642 23.4383 26.892 24.5105L24.0635 21.6821ZM23.182 21.8565C23.234 21.9086 23.3278 21.9619 23.4927 21.9541C23.6618 21.9461 23.8758 21.8698 24.0635 21.6821L26.892 24.5105C25.1665 26.236 22.2332 26.5646 20.3536 24.685L23.182 21.8565ZM23.3564 20.975C23.1687 21.1627 23.0924 21.3768 23.0844 21.5458C23.0767 21.7107 23.13 21.8045 23.182 21.8565L20.3536 24.685C18.4739 22.8053 18.8025 19.8721 20.528 18.1466L23.3564 20.975ZM24.0132 20.7049C23.8388 20.688 23.5809 20.7505 23.3564 20.975L20.528 18.1466C21.5757 17.0989 23.0037 16.5886 24.3982 16.7235L24.0132 20.7049ZM28.0232 20.2634L24.4478 20.6995L23.9635 16.7289L27.5389 16.2928L28.0232 20.2634ZM24.9823 18.3362C25.3013 17.7987 25.771 17.3582 26.0271 17.1307C26.178 16.9967 26.3148 16.885 26.4145 16.8061C26.4649 16.7663 26.5071 16.7338 26.5385 16.71C26.5543 16.698 26.5674 16.6882 26.5776 16.6806C26.5827 16.6768 26.587 16.6736 26.5906 16.6709C26.5924 16.6696 26.5941 16.6684 26.5955 16.6674C26.5962 16.6669 26.5968 16.6664 26.5974 16.6659C26.5977 16.6657 26.598 16.6655 26.5983 16.6653C26.5985 16.6652 26.5987 16.665 26.5987 16.665C26.5989 16.6648 26.5991 16.6647 27.7811 18.2781C28.963 19.8915 28.9632 19.8913 28.9634 19.8912C28.9634 19.8912 28.9636 19.891 28.9637 19.8909C28.964 19.8908 28.9642 19.8906 28.9644 19.8904C28.9648 19.8901 28.9652 19.8899 28.9655 19.8896C28.9662 19.8891 28.9667 19.8888 28.967 19.8885C28.9676 19.8881 28.9676 19.8881 28.9669 19.8886C28.9656 19.8896 28.9618 19.8924 28.9557 19.897C28.9435 19.9063 28.9227 19.9222 28.8956 19.9436C28.8404 19.9873 28.7643 20.0495 28.6833 20.1215C28.4757 20.3059 28.4059 20.4049 28.4218 20.378L24.9823 18.3362ZM24.3302 20.5595C24.371 20.1863 24.498 19.1519 24.9823 18.3362L28.4218 20.378C28.4438 20.341 28.4428 20.3337 28.4289 20.3723C28.4161 20.4078 28.3997 20.462 28.3823 20.5354C28.3468 20.6853 28.322 20.8522 28.3065 20.9944L24.3302 20.5595Z" fill="white" mask="url(#path-17-inside-2_328_302)"/>
<mask id="path-19-inside-3_328_302" fill="white">
<path fill-rule="evenodd" clip-rule="evenodd" d="M3.7202 19.7769C3.62488 20.577 3.90953 21.4451 4.56075 22.0963C5.63342 23.169 7.29444 23.2471 8.27075 22.2708C9.24706 21.2944 9.16895 19.6334 8.09629 18.5608C7.46021 17.9247 6.61724 17.6383 5.83285 17.7142L2.25746 17.2781C2.25746 17.2781 3.03336 17.8465 3.33647 18.3571C3.57591 18.7604 3.67829 19.3938 3.7202 19.7769Z"/>
</mask>
<path d="M3.7202 19.7769L5.70616 20.0135L5.73319 19.7866L5.70835 19.5595L3.7202 19.7769ZM5.83285 17.7142L5.5907 19.6995L5.80772 19.7259L6.02534 19.7049L5.83285 17.7142ZM2.25746 17.2781L2.4996 15.2928L-5.10248 14.3656L1.07551 18.8915L2.25746 17.2781ZM3.33647 18.3571L1.61668 19.378L1.61668 19.378L3.33647 18.3571ZM5.97497 20.6821C5.74475 20.4519 5.68544 20.1874 5.70616 20.0135L1.73425 19.5403C1.56432 20.9666 2.07431 22.4383 3.14654 23.5105L5.97497 20.6821ZM6.85653 20.8565C6.80451 20.9086 6.71073 20.9619 6.54583 20.9541C6.37674 20.9461 6.16269 20.8698 5.97497 20.6821L3.14654 23.5105C4.87205 25.236 7.80528 25.5646 9.68496 23.685L6.85653 20.8565ZM6.68207 19.975C6.86979 20.1627 6.94614 20.3768 6.95409 20.5458C6.96184 20.7107 6.90856 20.8045 6.85653 20.8565L9.68496 23.685C11.5646 21.8053 11.236 18.8721 9.5105 17.1466L6.68207 19.975ZM6.02534 19.7049C6.1997 19.688 6.4576 19.7505 6.68207 19.975L9.5105 17.1466C8.46282 16.0989 7.03478 15.5886 5.64035 15.7235L6.02534 19.7049ZM2.01531 19.2634L5.5907 19.6995L6.07499 15.7289L2.4996 15.2928L2.01531 19.2634ZM5.05626 17.3362C4.7372 16.7987 4.26747 16.3582 4.0114 16.1307C3.86053 15.9967 3.72369 15.885 3.62397 15.8061C3.5736 15.7663 3.53138 15.7338 3.49996 15.71C3.48422 15.698 3.4711 15.6882 3.46092 15.6806C3.45583 15.6768 3.45146 15.6736 3.44787 15.6709C3.44607 15.6696 3.44446 15.6684 3.44304 15.6674C3.44234 15.6669 3.44168 15.6664 3.44107 15.6659C3.44077 15.6657 3.44048 15.6655 3.4402 15.6653C3.44006 15.6652 3.43986 15.665 3.43979 15.665C3.43959 15.6648 3.4394 15.6647 2.25746 17.2781C1.07551 18.8915 1.07532 18.8913 1.07514 18.8912C1.07508 18.8912 1.0749 18.891 1.07478 18.8909C1.07455 18.8908 1.07433 18.8906 1.07412 18.8904C1.0737 18.8901 1.07332 18.8899 1.07299 18.8896C1.07233 18.8891 1.07184 18.8888 1.07152 18.8885C1.07087 18.8881 1.0709 18.8881 1.07156 18.8886C1.0729 18.8896 1.07674 18.8924 1.08281 18.897C1.09501 18.9063 1.11577 18.9222 1.14288 18.9436C1.19812 18.9873 1.27419 19.0495 1.35519 19.1215C1.56285 19.3059 1.63263 19.4049 1.61668 19.378L5.05626 17.3362ZM5.70835 19.5595C5.66753 19.1863 5.54055 18.1519 5.05626 17.3362L1.61668 19.378C1.59472 19.341 1.59576 19.3337 1.60965 19.3723C1.62242 19.4078 1.63884 19.462 1.65621 19.5354C1.69172 19.6853 1.71651 19.8522 1.73206 19.9944L5.70835 19.5595Z" fill="white" mask="url(#path-19-inside-3_328_302)"/>
<mask id="path-21-inside-4_328_302" fill="white">
<path fill-rule="evenodd" clip-rule="evenodd" d="M14.983 9.40314C14.6838 10.1513 14.7341 11.0634 15.1946 11.861C15.9531 13.1748 17.5373 13.6801 18.733 12.9897C19.9287 12.2994 20.2832 10.6748 19.5247 9.36101C19.0749 8.58198 18.3348 8.08721 17.5575 7.95745L14.2168 6.61084C14.2168 6.61084 14.8192 7.3607 14.9798 7.93236C15.1067 8.38391 15.0417 9.02217 14.983 9.40314Z"/>
</mask>
<path d="M14.983 9.40314L16.84 10.1457L16.9249 9.93351L16.9596 9.70767L14.983 9.40314ZM17.5575 7.95745L16.8098 9.81242L17.0126 9.89416L17.2282 9.93016L17.5575 7.95745ZM14.2168 6.61084L14.9645 4.75587L7.86148 1.89266L12.6576 7.86334L14.2168 6.61084ZM14.9798 7.93236L13.0544 8.47339L13.0544 8.47339L14.9798 7.93236ZM16.9266 10.861C16.7638 10.5791 16.775 10.3082 16.84 10.1457L13.1259 8.66059C12.5926 9.99429 12.7044 11.5478 13.4625 12.861L16.9266 10.861ZM17.733 11.2577C17.6693 11.2945 17.5649 11.3217 17.4076 11.2715C17.2464 11.2201 17.0594 11.0909 16.9266 10.861L13.4625 12.861C14.6827 14.9743 17.4309 16.0509 19.733 14.7218L17.733 11.2577ZM17.7927 10.361C17.9254 10.5909 17.9437 10.8174 17.9077 10.9828C17.8725 11.1441 17.7967 11.2209 17.733 11.2577L19.733 14.7218C22.0351 13.3927 22.4769 10.4743 21.2568 8.36101L17.7927 10.361ZM17.2282 9.93016C17.401 9.959 17.6339 10.0861 17.7927 10.361L21.2568 8.36101C20.5159 7.07787 19.2686 6.21541 17.8868 5.98475L17.2282 9.93016ZM13.4691 8.4658L16.8098 9.81242L18.3052 6.10249L14.9645 4.75587L13.4691 8.4658ZM16.9052 7.39132C16.7361 6.78959 16.3964 6.2425 16.2079 5.95655C16.0969 5.78807 15.9937 5.64467 15.9177 5.5427C15.8794 5.49119 15.847 5.44889 15.8228 5.41774C15.8107 5.40214 15.8006 5.38924 15.7927 5.37928C15.7888 5.3743 15.7854 5.37004 15.7826 5.36655C15.7812 5.3648 15.78 5.36323 15.7789 5.36187C15.7783 5.36118 15.7778 5.36054 15.7774 5.35996C15.7771 5.35966 15.7769 5.35938 15.7767 5.35911C15.7766 5.35898 15.7764 5.35878 15.7764 5.35871C15.7762 5.35852 15.7761 5.35834 14.2168 6.61084C12.6576 7.86334 12.6574 7.86316 12.6573 7.86298C12.6572 7.86292 12.6571 7.86274 12.657 7.86263C12.6568 7.86241 12.6567 7.86219 12.6565 7.86199C12.6562 7.86158 12.6559 7.86122 12.6556 7.8609C12.6551 7.86026 12.6547 7.85978 12.6545 7.85947C12.654 7.85884 12.654 7.85887 12.6545 7.85951C12.6555 7.86082 12.6585 7.86459 12.6632 7.8706C12.6726 7.8827 12.6885 7.90345 12.7091 7.93117C12.7512 7.98766 12.8086 8.06746 12.8682 8.15791C13.021 8.38979 13.0628 8.50347 13.0544 8.47339L16.9052 7.39132ZM16.9596 9.70767C17.0168 9.33661 17.1619 8.30465 16.9052 7.39132L13.0544 8.47339C13.0427 8.43198 13.0456 8.42516 13.0491 8.46605C13.0522 8.50364 13.054 8.5602 13.0518 8.63559C13.0473 8.78964 13.0281 8.95726 13.0063 9.0986L16.9596 9.70767Z" fill="white" mask="url(#path-21-inside-4_328_302)"/>
</g>
<defs>
<clipPath id="clip0_328_302">
<rect width="32" height="32" fill="white"/>
</clipPath>
</defs>
</svg>
