<svg width="32" height="32" viewBox="0 0 32 32" fill="none" xmlns="http://www.w3.org/2000/svg">
<g clip-path="url(#clip0_338_3169)">
<path d="M25.7106 20.8377C25.8912 21.2566 25.9615 22.051 25.4625 23.6414C19.8113 25.145 13.9234 21.9458 12.1499 16.3117C10.352 10.6 13.4535 4.51763 19.0918 2.59759C20.3535 2.89565 20.5098 3.28869 20.5491 3.4554C20.5878 3.61933 20.5858 3.87556 20.4837 4.28024C20.3824 4.68157 20.2049 5.14702 19.9701 5.70386C19.8822 5.91242 19.7861 6.13223 19.6856 6.36248C18.7647 8.4705 17.4615 11.4538 18.4801 14.6897C19.5103 17.9625 21.9382 18.8804 23.6297 19.5199C23.8483 19.6025 24.0546 19.6805 24.244 19.7583C25.125 20.1203 25.5275 20.4129 25.7106 20.8377Z" stroke="white" stroke-width="2"/>
<line x1="25.5107" y1="23.4597" x2="27.2841" y2="27.767" stroke="white" stroke-width="2"/>
<line x1="27.4216" y1="26.0993" x2="23.9168" y2="29.1674" stroke="white" stroke-width="2"/>
<path d="M18.2326 13.6778L11.9016 15.3858C10.6936 9.95656 13.7573 4.41417 19.0918 2.59759C20.3535 2.89565 20.5098 3.28869 20.5491 3.4554C20.5878 3.61933 20.5858 3.87556 20.4837 4.28024C20.3824 4.68157 20.2049 5.14702 19.9701 5.70386C19.8821 5.91242 19.7861 6.13223 19.6856 6.36248C18.8616 8.24879 17.7314 10.8359 18.2326 13.6778Z" fill="white" stroke="white" stroke-width="2"/>
<path d="M13.2323 14.3257C13.2323 14.3257 8.73337 11.9878 6.24252 12.9645C2.81572 14.3082 3 22 3 22" stroke="white" stroke-width="3"/>
<path d="M28.7256 17.7563C28.7256 17.7563 27.7931 13.1822 25.5978 11.9191C22.5776 10.1814 17 14.6144 17 14.6144" stroke="white" stroke-width="3"/>
</g>
<defs>
<clipPath id="clip0_338_3169">
<rect width="32" height="32" fill="white"/>
</clipPath>
</defs>
</svg>
