<svg width="32" height="32" viewBox="0 0 32 32" fill="none" xmlns="http://www.w3.org/2000/svg">
<path d="M26 16.2459C26 21.5559 21.5521 25.9125 16 25.9125C10.4479 25.9125 6 21.5559 6 16.2459C6 13.6163 7.08201 11.691 8.81999 10.3937C10.5913 9.07156 13.1116 8.35699 16 8.35699C18.8884 8.35699 21.4087 9.07156 23.18 10.3937C24.918 11.691 26 13.6163 26 16.2459Z" stroke="white" stroke-width="2"/>
<path d="M15.0157 18.6522L16.2783 21.2104L18.9896 22.7946L16.6297 24.3919L15.9329 26.9551L13.2119 25.3841L10.0699 25.3841L10.7481 22.8159L9.50303 20.2526L12.6432 20.2364L15.0157 18.6522Z" fill="white"/>
<line x1="16.275" y1="8.93306" x2="18.0528" y2="3.67946" stroke="white" stroke-width="2"/>
</svg>
