<svg width="32" height="32" viewBox="0 0 32 32" fill="none" xmlns="http://www.w3.org/2000/svg">
<mask id="path-1-inside-1_74_66" fill="white">
<path fill-rule="evenodd" clip-rule="evenodd" d="M30.1904 24H1.80957C0.688804 22.8321 0 21.2465 0 19.5C0 15.9101 2.91015 13 6.5 13C6.71722 13 6.93196 13.0107 7.14371 13.0315C7.90288 7.89567 11.5792 4 16 4C20.4208 4 24.0971 7.89567 24.8563 13.0315C25.068 13.0107 25.2828 13 25.5 13C29.0899 13 32 15.9101 32 19.5C32 21.2465 31.3112 22.8321 30.1904 24Z"/>
</mask>
<path d="M1.80957 24L0.366544 25.3848L0.95692 26H1.80957V24ZM30.1904 24V26H31.0431L31.6335 25.3848L30.1904 24ZM7.14371 13.0315L6.94804 15.0219L8.84367 15.2082L9.12221 13.3239L7.14371 13.0315ZM24.8563 13.0315L22.8778 13.3239L23.1563 15.2082L25.052 15.0219L24.8563 13.0315ZM1.80957 26H30.1904V22H1.80957V26ZM3.2526 22.6152C2.47487 21.8048 2 20.7099 2 19.5H-2C-2 21.783 -1.09726 23.8594 0.366544 25.3848L3.2526 22.6152ZM2 19.5C2 17.0147 4.01472 15 6.5 15V11C1.80558 11 -2 14.8056 -2 19.5H2ZM6.5 15C6.65178 15 6.80121 15.0074 6.94804 15.0219L7.33938 11.0411C7.0627 11.0139 6.78267 11 6.5 11V15ZM9.12221 13.3239C9.78445 8.84387 12.8674 6 16 6V2C10.2911 2 6.02131 6.94747 5.16521 12.739L9.12221 13.3239ZM16 6C19.1326 6 22.2155 8.84387 22.8778 13.3239L26.8348 12.739C25.9787 6.94747 21.7089 2 16 2V6ZM25.052 15.0219C25.1988 15.0074 25.3482 15 25.5 15V11C25.2173 11 24.9373 11.0139 24.6606 11.0411L25.052 15.0219ZM25.5 15C27.9853 15 30 17.0147 30 19.5H34C34 14.8056 30.1944 11 25.5 11V15ZM30 19.5C30 20.7099 29.5251 21.8048 28.7474 22.6152L31.6335 25.3848C33.0973 23.8594 34 21.783 34 19.5H30Z" fill="white" mask="url(#path-1-inside-1_74_66)"/>
<line x1="8.10557" y1="23.4472" x2="5.10557" y2="17.4472" stroke="white" stroke-width="2"/>
<line x1="16.1056" y1="19.4472" x2="13.1056" y2="13.4472" stroke="white" stroke-width="2"/>
<line x1="14.0862" y1="22.5939" x2="18.0862" y2="13.5939" stroke="white" stroke-width="2"/>
<line x1="22.2191" y1="23.3753" x2="26.2191" y2="18.3753" stroke="white" stroke-width="2"/>
</svg>
