<svg width="32" height="32" viewBox="0 0 32 32" fill="none" xmlns="http://www.w3.org/2000/svg">
<g clip-path="url(#clip0_66_35)">
<path d="M5.45026 23.0304C5.557 23.7921 6.1001 24.4331 7.21742 24.8954C8.34404 25.3615 9.9076 25.5695 11.6553 25.4923C13.3904 25.4156 15.2336 25.0607 16.8835 24.4666C18.5437 23.8689 19.941 23.0534 20.8492 22.1008C24.4279 18.3468 26.3143 13.7993 26.3098 10.246C26.3076 8.47948 25.8413 7.02767 24.9724 6.00622C24.1507 5.04032 22.8825 4.35675 21.0233 4.21505C19.7312 4.78199 19.0133 5.29526 18.5765 5.76912C18.1333 6.24987 17.9165 6.75689 17.727 7.44393C17.6628 7.67679 17.6032 7.92718 17.5394 8.19535C17.209 9.58428 16.7652 11.45 14.9724 13.8271C13.1495 16.2441 10.6975 17.0359 8.85184 17.632C8.44818 17.7623 8.07354 17.8833 7.74082 18.0099C6.76656 18.3805 6.15268 18.7662 5.78435 19.3798C5.40949 20.0043 5.17428 21.0607 5.45026 23.0304Z" stroke="white" stroke-width="2"/>
<line x1="19.5959" y1="4.98408" x2="18.0787" y2="1.38887" stroke="white" stroke-width="2"/>
<line x1="19.5" y1="8.00006" x2="19.5" y2="7.00006" stroke="white"/>
<line x1="22.5" y1="10.0001" x2="22.5" y2="9.00006" stroke="white"/>
<line x1="23.5" y1="13.0001" x2="23.5" y2="12.0001" stroke="white"/>
<line x1="22" y1="15.5001" x2="23" y2="15.5001" stroke="white"/>
<line x1="17.5" y1="18.0001" x2="17.5" y2="17.0001" stroke="white"/>
<line x1="16.5" y1="22.0001" x2="16.5" y2="21.0001" stroke="white"/>
<line x1="10.5" y1="21.0001" x2="10.5" y2="20.0001" stroke="white"/>
<line x1="12.5" y1="18.0001" x2="12.5" y2="17.0001" stroke="white"/>
<line x1="17.5" y1="14.0001" x2="17.5" y2="13.0001" stroke="white"/>
</g>
<defs>
<clipPath id="clip0_66_35">
<rect width="32" height="32" fill="white"/>
</clipPath>
</defs>
</svg>
