<svg width="32" height="32" viewBox="0 0 32 32" fill="none" xmlns="http://www.w3.org/2000/svg">
<path d="M12.6269 15.1713L12.7733 15.0959L12.8877 14.9775C14.0282 13.798 14.9174 12.5298 15.6757 11.3763C15.8735 11.0752 16.0598 10.7867 16.2378 10.5107C16.7619 9.69863 17.2155 8.99576 17.688 8.40647C18.3139 7.6259 18.8398 7.22424 19.3706 7.09041C19.8747 6.96333 20.6003 7.02599 21.7489 7.68914C22.8567 8.32872 23.5498 9.12701 23.9571 10.0187C24.3695 10.9217 24.5158 11.9808 24.4266 13.1674C24.2464 15.5656 23.1174 18.3189 21.6281 20.8984C20.1962 23.3785 18.2509 25.1607 16.1427 25.9958C14.062 26.8201 11.7629 26.7498 9.4798 25.4316C7.18307 24.1056 6.48206 22.4457 6.8604 20.845C7.27157 19.1055 9.03188 17.024 12.6269 15.1713Z" stroke="white" stroke-width="2"/>
<path d="M22.8578 14.3391C22.8578 14.3391 22.1178 13.6337 21.7343 13.1076C21.3156 12.533 20.8457 11.5185 20.8457 11.5185L24.2945 11.1863C24.2945 11.1863 24.0269 12.2718 23.7255 12.9158C23.4495 13.5054 22.8578 14.3391 22.8578 14.3391Z" fill="white"/>
<path d="M19.1215 14.2885C19.1215 14.2885 18.791 13.321 18.694 12.6773C18.5879 11.9742 18.6398 10.8574 18.6398 10.8574L21.852 12.1557C21.852 12.1557 21.1133 12.9949 20.5486 13.4269C20.0315 13.8223 19.1215 14.2885 19.1215 14.2885Z" fill="white"/>
<path d="M15.747 11.2658C15.747 11.2658 15.9005 10.2551 16.1117 9.63925C16.3422 8.96666 16.9039 7.99997 16.9039 7.99997L19.1538 10.6348C19.1538 10.6348 18.111 11.0381 17.4106 11.1605C16.7694 11.2725 15.747 11.2658 15.747 11.2658Z" fill="white"/>
<ellipse cx="21.1221" cy="9" rx="3.5" ry="3" fill="white"/>
<line x1="20.6519" y1="6.75746" x2="21.6519" y2="2.75746" stroke="white" stroke-width="2"/>
</svg>
