<svg width="32" height="32" viewBox="0 0 32 32" fill="none" xmlns="http://www.w3.org/2000/svg">
<circle cx="16" cy="16" r="7" fill="white"/>
<path d="M20 6C20 7.17425 19.5034 9.0098 18.6581 10.5558C18.2403 11.32 17.7667 11.9579 17.2801 12.3925C16.7916 12.8288 16.3612 13 16 13C15.6388 13 15.2084 12.8288 14.7199 12.3925C14.2333 11.9579 13.7597 11.32 13.3419 10.5558C12.4966 9.0098 12 7.17425 12 6C12 3.79086 13.7909 2 16 2C18.2091 2 20 3.79086 20 6Z" stroke="white" stroke-width="2"/>
<path d="M9.33977 7.53591C10.3567 8.12304 11.6981 9.47084 12.6143 10.9759C13.0671 11.7199 13.3828 12.449 13.5159 13.0877C13.6495 13.7289 13.5825 14.1872 13.4019 14.5C13.2214 14.8128 12.8579 15.0999 12.2358 15.3049C11.6161 15.5089 10.8269 15.6001 9.95613 15.5799C8.19461 15.539 6.3567 15.0512 5.33977 14.4641C3.4266 13.3595 2.7711 10.9132 3.87567 9.00001C4.98024 7.08684 7.4266 6.43134 9.33977 7.53591Z" stroke="white" stroke-width="2"/>
<path d="M26.6603 14.4641C25.6434 15.0512 23.8054 15.539 22.0439 15.5799C21.1732 15.6001 20.3839 15.5089 19.7643 15.3048C19.1421 15.0999 18.7787 14.8128 18.5981 14.5C18.4175 14.1872 18.3506 13.7289 18.4842 13.0876C18.6172 12.449 18.9329 11.7198 19.3858 10.9759C20.302 9.47082 21.6434 8.12301 22.6603 7.53589C24.5735 6.43132 27.0198 7.08682 28.1244 8.99999C29.229 10.9132 28.5735 13.3595 26.6603 14.4641Z" stroke="white" stroke-width="2"/>
<path d="M20 26C20 24.8257 19.5034 22.9902 18.6581 21.4442C18.2403 20.68 17.7667 20.0421 17.2801 19.6075C16.7916 19.1712 16.3612 19 16 19C15.6388 19 15.2084 19.1712 14.7199 19.6075C14.2333 20.0421 13.7597 20.68 13.3419 21.4442C12.4966 22.9902 12 24.8257 12 26C12 28.2091 13.7909 30 16 30C18.2091 30 20 28.2091 20 26Z" stroke="white" stroke-width="2"/>
<path d="M26.6603 17.5359C25.6434 16.9488 23.8054 16.461 22.0439 16.4201C21.1732 16.3999 20.3839 16.4911 19.7643 16.6952C19.1421 16.9001 18.7787 17.1872 18.5981 17.5C18.4175 17.8128 18.3506 18.2711 18.4842 18.9124C18.6172 19.551 18.9329 20.2802 19.3858 21.0241C20.302 22.5292 21.6434 23.877 22.6603 24.4641C24.5735 25.5687 27.0198 24.9132 28.1244 23C29.229 21.0868 28.5735 18.6405 26.6603 17.5359Z" stroke="white" stroke-width="2"/>
<path d="M9.33977 24.4641C10.3567 23.877 11.6981 22.5292 12.6143 21.0241C13.0671 20.2801 13.3828 19.551 13.5159 18.9123C13.6495 18.2711 13.5825 17.8128 13.4019 17.5C13.2214 17.1872 12.8579 16.9001 12.2358 16.6951C11.6161 16.4911 10.8269 16.3999 9.95613 16.4201C8.19461 16.461 6.3567 16.9488 5.33977 17.5359C3.4266 18.6405 2.7711 21.0868 3.87567 23C4.98024 24.9132 7.4266 25.5687 9.33977 24.4641Z" stroke="white" stroke-width="2"/>
</svg>
