<svg width="32" height="32" viewBox="0 0 32 32" fill="none" xmlns="http://www.w3.org/2000/svg">
<g clip-path="url(#clip0_434_61)">
<path d="M21.5635 22.5067C21.734 22.7428 21.9257 23.2763 21.8316 24.5241C17.7491 26.5802 12.7221 25.1139 10.4076 21.1052C8.05249 17.0259 9.38169 11.8305 13.3628 9.37237C14.3038 9.39409 14.4175 9.64464 14.4339 9.6809C14.4344 9.6819 14.4348 9.68275 14.4351 9.68341C14.4753 9.76646 14.518 9.93357 14.5088 10.2555C14.4997 10.5739 14.4436 10.9597 14.3564 11.4382C14.324 11.6157 14.2869 11.8046 14.2479 12.0035C13.8913 13.8195 13.3704 16.4727 14.7783 18.9113C16.2127 21.3958 18.3816 21.7053 19.8263 21.9115C20.0111 21.9379 20.1841 21.9626 20.3421 21.9899C21.0958 22.1203 21.3933 22.2712 21.5635 22.5067Z" stroke="white" stroke-width="2"/>
<line x1="22.1793" y1="24.3848" x2="24.331" y2="27.4686" stroke="white" stroke-width="2"/>
<line x1="24.1447" y1="26.3547" x2="21.9199" y2="29.3861" stroke="white" stroke-width="2"/>
<path d="M14.2479 12.0036C13.9368 13.5881 13.5005 15.8101 14.3297 17.9707L9.97418 20.2501C8.24758 16.3252 9.65512 11.6617 13.3628 9.37237C14.3038 9.39409 14.4175 9.64464 14.4339 9.6809C14.4344 9.6819 14.4348 9.68275 14.4351 9.68341C14.4753 9.76646 14.518 9.93357 14.5088 10.2555C14.4997 10.5739 14.4436 10.9597 14.3564 11.4382C14.324 11.6157 14.2869 11.8046 14.2479 12.0036Z" fill="white" stroke="white" stroke-width="2"/>
<path d="M10.7459 19.447C10.7459 19.447 6.79117 18.3924 4.99928 19.5982C2.53408 21.2571 4.02612 27.2863 4.02612 27.2863" stroke="white" stroke-width="3"/>
<path d="M23.5561 19.4376C23.5561 19.4376 22.0204 15.9963 20.0692 15.3853C17.3849 14.5447 13.7657 19.0148 13.7657 19.0148" stroke="white" stroke-width="3"/>
<path d="M28.9754 10.3475C28.9754 13.6544 26.2946 16.3352 22.9877 16.3352C19.6808 16.3352 17 13.6544 17 10.3475C17 8.72138 17.6434 7.56109 18.6566 6.78118C19.7008 5.97743 21.2135 5.52441 22.9877 5.52441C24.7619 5.52441 26.2746 5.97743 27.3188 6.78118C28.332 7.56109 28.9754 8.72138 28.9754 10.3475Z" stroke="white" stroke-width="2"/>
<line x1="21.4439" y1="6.54602" x2="20.2793" y2="2.46987" stroke="white" stroke-width="2"/>
<path fill-rule="evenodd" clip-rule="evenodd" d="M25.937 5.3898C25.5575 5.84694 24.9849 6.13805 24.3443 6.13805C23.2016 6.13805 22.2753 5.21172 22.2753 4.06903C22.2753 2.92633 23.2016 2 24.3443 2C24.9703 2 25.5314 2.27802 25.9108 2.71731L28.4824 4.84493C28.4824 4.84493 27.5157 4.6872 26.9306 4.84493C26.598 4.93461 26.2307 5.16883 25.937 5.3898Z" fill="white"/>
</g>
<defs>
<clipPath id="clip0_434_61">
<rect width="32" height="32" fill="white"/>
</clipPath>
</defs>
</svg>
