<svg width="32" height="32" viewBox="0 0 32 32" fill="none" xmlns="http://www.w3.org/2000/svg">
<mask id="path-1-inside-1_67_50" fill="white">
<path fill-rule="evenodd" clip-rule="evenodd" d="M10.7644 10.1788C8.48516 11.8116 7.00002 14.4824 7.00002 17.5C7.00002 22.4706 11.0295 26.5 16 26.5C20.9706 26.5 25 22.4706 25 17.5C25 14.5525 23.5831 11.9359 21.3932 10.2942L13.4019 1C13.4019 1 13.9301 4.11468 13.4019 6C12.9847 7.48926 11.6331 9.19389 10.7644 10.1788Z"/>
</mask>
<path d="M10.7644 10.1788L11.9291 11.8046L12.1139 11.6722L12.2643 11.5018L10.7644 10.1788ZM21.3932 10.2942L19.8767 11.5981L20.0189 11.7636L20.1935 11.8945L21.3932 10.2942ZM13.4019 1L14.9184 -0.30391L10.227 -5.7603L11.4301 1.33438L13.4019 1ZM13.4019 6L11.4761 5.46047L13.4019 6ZM9.00002 17.5C9.00002 15.1545 10.1516 13.078 11.9291 11.8046L9.59964 8.55293C6.81868 10.5452 5.00002 13.8102 5.00002 17.5L9.00002 17.5ZM16 24.5C12.134 24.5 9.00002 21.366 9.00002 17.5L5.00002 17.5C5.00002 23.5751 9.92488 28.5 16 28.5L16 24.5ZM23 17.5C23 21.366 19.866 24.5 16 24.5L16 28.5C22.0751 28.5 27 23.5751 27 17.5L23 17.5ZM20.1935 11.8945C21.9013 13.1747 23 15.2088 23 17.5L27 17.5C27 13.8962 25.2648 10.697 22.5928 8.69397L20.1935 11.8945ZM11.8854 2.30391L19.8767 11.5981L22.9097 8.99032L14.9184 -0.30391L11.8854 2.30391ZM15.3278 6.53953C15.6887 5.2511 15.6642 3.71381 15.5958 2.6631C15.5594 2.10475 15.5051 1.61375 15.4599 1.26149C15.4372 1.08465 15.4166 0.940921 15.4012 0.839023C15.3935 0.78803 15.3871 0.747378 15.3824 0.718148C15.38 0.703529 15.3781 0.691754 15.3767 0.68296C15.3759 0.678561 15.3753 0.674905 15.3748 0.672011C15.3746 0.670564 15.3744 0.669307 15.3742 0.668241C15.3741 0.667709 15.374 0.667224 15.374 0.666787C15.3739 0.66657 15.3739 0.666278 15.3739 0.666169C15.3738 0.665891 15.3738 0.665624 13.4019 1C11.4301 1.33438 11.43 1.33414 11.43 1.3339C11.43 1.33384 11.4299 1.33362 11.4299 1.3335C11.4299 1.33325 11.4298 1.33305 11.4298 1.3329C11.4298 1.33259 11.4298 1.33246 11.4298 1.33252C11.4298 1.33263 11.4299 1.33348 11.4302 1.33503C11.4307 1.33813 11.4317 1.34408 11.4331 1.35273C11.4358 1.37005 11.4403 1.39815 11.446 1.43601C11.4574 1.51181 11.4739 1.62615 11.4925 1.77077C11.5298 2.06143 11.5745 2.46692 11.6042 2.92291C11.6679 3.90087 11.6433 4.86358 11.4761 5.46047L15.3278 6.53953ZM12.2643 11.5018C12.7317 10.9718 13.3455 10.2302 13.9078 9.40092C14.4539 8.59555 15.0339 7.58859 15.3278 6.53953L11.4761 5.46047C11.3527 5.90067 11.0483 6.49065 10.5971 7.15613C10.1621 7.79767 9.66577 8.40084 9.26449 8.85577L12.2643 11.5018Z" fill="white" mask="url(#path-1-inside-1_67_50)"/>
<path d="M16.4987 17.0356C16.4987 17.0356 16.7872 21.9031 16.4987 25C16.2771 27.3789 15.4987 31.0356 15.4987 31.0356" stroke="white"/>
<path d="M21.2134 17.3866C21.2134 17.3866 20.0209 18.6142 19.06 18.9699C18.322 19.2431 17 19.2685 17 19.2685" stroke="white"/>
<path d="M12.2334 19C12.2334 19 13.426 20.2276 14.3868 20.5833C15.1249 20.8565 16.4469 20.8819 16.4469 20.8819" stroke="white"/>
</svg>
