<svg width="32" height="32" viewBox="0 0 32 32" fill="none" xmlns="http://www.w3.org/2000/svg">
<g clip-path="url(#clip0_328_234)">
<path d="M9.24247 13.7799C9.4586 13.0732 10.3402 12.837 10.8807 13.341L12.7034 15.0403C12.9831 15.3011 13.0895 15.6985 12.9777 16.0642L12.2489 18.4472C12.0328 19.1539 11.1512 19.3901 10.6107 18.8862L8.78801 17.1868C8.50831 16.9261 8.40182 16.5286 8.51366 16.1629L9.24247 13.7799Z" fill="white"/>
<path d="M12.778 10.2444C12.9941 9.5377 13.8757 9.30148 14.4162 9.80543L16.2389 11.5048C16.5186 11.7656 16.6251 12.163 16.5132 12.5287L15.7844 14.9117C15.5683 15.6184 14.6867 15.8546 14.1462 15.3507L12.3235 13.6513C12.0438 13.3905 11.9373 12.9931 12.0492 12.6274L12.778 10.2444Z" fill="white"/>
<path d="M16.3135 6.70886C16.5296 6.00218 17.4112 5.76596 17.9517 6.26991L19.7744 7.96927C20.0541 8.23004 20.1606 8.62747 20.0488 8.99315L19.3199 11.3762C19.1038 12.0829 18.2223 12.3191 17.6817 11.8151L15.8591 10.1158C15.5794 9.85501 15.4729 9.45757 15.5847 9.0919L16.3135 6.70886Z" fill="white"/>
<path d="M20.483 4.24677C20.6991 3.54008 21.5807 3.30387 22.1212 3.80781L23.2103 4.82325C23.49 5.08401 23.5965 5.48145 23.4847 5.84713L23.0492 7.27108C22.8331 7.97776 21.9515 8.21398 21.411 7.71003L20.3219 6.6946C20.0422 6.43384 19.9357 6.0364 20.0475 5.67072L20.483 4.24677Z" fill="white"/>
<path d="M6.34085 18.3889C6.55697 17.6822 7.43854 17.446 7.97905 17.95L9.06818 18.9654C9.34787 19.2262 9.45436 19.6236 9.34252 19.9893L8.90703 21.4132C8.6909 22.1199 7.80934 22.3561 7.26883 21.8522L6.1797 20.8368C5.90001 20.576 5.79352 20.1785 5.90535 19.8129L6.34085 18.3889Z" fill="white"/>
<path d="M15.6743 21.1965C16.1782 21.737 15.942 22.6185 15.2353 22.8347L12.8523 23.5635C12.4866 23.6753 12.0892 23.5688 11.8284 23.2891L10.129 21.4664C9.6251 20.9259 9.86132 20.0444 10.568 19.8282L12.951 19.0994C13.3167 18.9876 13.7142 19.0941 13.9749 19.3738L15.6743 21.1965Z" fill="white"/>
<path d="M19.2098 17.6609C19.7137 18.2014 19.4775 19.083 18.7708 19.2991L16.3878 20.0279C16.0221 20.1398 15.6247 20.0333 15.3639 19.7536L13.6646 17.9309C13.1606 17.3904 13.3968 16.5088 14.1035 16.2927L16.4866 15.5639C16.8522 15.4521 17.2497 15.5586 17.5104 15.8382L19.2098 17.6609Z" fill="white"/>
<path d="M22.7453 14.1254C23.2493 14.6659 23.0131 15.5475 22.3064 15.7636L19.9233 16.4924C19.5577 16.6043 19.1602 16.4978 18.8995 16.2181L17.2001 14.3954C16.6961 13.8549 16.9324 12.9733 17.639 12.7572L20.0221 12.0284C20.3878 11.9165 20.7852 12.023 21.046 12.3027L22.7453 14.1254Z" fill="white"/>
<path d="M25.0997 9.96037C25.6037 10.5009 25.3674 11.3824 24.6608 11.5986L23.2948 12.0163C22.9291 12.1282 22.5317 12.0217 22.2709 11.742L21.2969 10.6972C20.7929 10.1567 21.0291 9.27514 21.7358 9.05901L23.1018 8.64126C23.4674 8.52943 23.8649 8.63592 24.1256 8.91561L25.0997 9.96037Z" fill="white"/>
<path d="M27.9281 7.13194C28.4321 7.67245 28.1959 8.55402 27.4892 8.77015L26.1232 9.1879C25.7576 9.29974 25.3601 9.19324 25.0994 8.91355L24.1253 7.86879C23.6213 7.32828 23.8576 6.44671 24.5642 6.23058L25.9302 5.81283C26.2959 5.70099 26.6933 5.80749 26.9541 6.08718L27.9281 7.13194Z" fill="white"/>
<line x1="9.76726" y1="23.0308" x2="4.81751" y2="29.3948" stroke="white" stroke-width="2"/>
<path d="M24.5556 19L28.5556 19.8218L11.1681 28.7058L10.0556 27.5L24.5556 19Z" fill="white"/>
<path d="M25.4064 20.25L26.5556 27.7141L27.7048 20.25H25.4064Z" stroke="white"/>
<path d="M3.85612 4.66392C3.99341 4.15156 4.3286 3.71473 4.78797 3.44951L5.63727 2.95917C5.81644 2.85573 5.97847 2.72511 6.11759 2.57198L7.2783 1.29437C7.67115 0.861952 8.34574 0.84579 8.75885 1.2589C8.91537 1.41541 9.0169 1.61847 9.0482 1.83759L9.452 4.66422C9.48376 4.8865 9.47785 5.11254 9.43454 5.33286L8.44064 10.3885C8.28505 11.1799 7.66933 11.8004 6.87916 11.9621L5.87746 12.1671C5.26072 12.2933 4.62056 12.1218 4.14955 11.7041L3.31304 10.9623C2.74624 10.4597 2.51206 9.68002 2.70813 8.94829L3.85612 4.66392Z" fill="white"/>
</g>
<defs>
<clipPath id="clip0_328_234">
<rect width="32" height="32" fill="white"/>
</clipPath>
</defs>
</svg>
