<svg width="32" height="32" viewBox="0 0 32 32" fill="none" xmlns="http://www.w3.org/2000/svg">
<path d="M27 16C27 22.0751 22.0751 27 16 27C9.92487 27 5 22.0751 5 16C5 12.9898 6.20443 10.7853 8.12469 9.30714C10.0759 7.80519 12.8417 7 16 7C19.1583 7 21.9241 7.80519 23.8753 9.30714C25.7956 10.7853 27 12.9898 27 16Z" stroke="white" stroke-width="2"/>
<path d="M14.803 2.85042L16.6226 5.33257L21.7476 4.87184L17.7472 6.86663L19.5669 9.34878L15.2749 8.09947L11.2745 10.0943L12.6223 7.32736L8.33027 6.07805L13.4552 5.61732L14.803 2.85042Z" fill="white"/>
</svg>
