<svg width="32" height="32" viewBox="0 0 32 32" fill="none" xmlns="http://www.w3.org/2000/svg">
<mask id="path-1-outside-1_41_519" maskUnits="userSpaceOnUse" x="5" y="1" width="23" height="28" fill="black">
<rect fill="white" x="5" y="1" width="23" height="28"/>
<path fill-rule="evenodd" clip-rule="evenodd" d="M16.3612 5L21.9904 14.75H19.1036L23.7224 22.75H18.8612V27H13.8612V22.75H9L13.6188 14.75H10.7321L16.3612 5Z"/>
</mask>
<path d="M21.9904 14.75V16.75H25.4545L23.7224 13.75L21.9904 14.75ZM16.3612 5L18.0933 4L16.3612 1L14.6292 4L16.3612 5ZM19.1036 14.75V12.75H15.6395L17.3716 15.75L19.1036 14.75ZM23.7224 22.75V24.75H27.1865L25.4545 21.75L23.7224 22.75ZM18.8612 22.75V20.75H16.8612V22.75H18.8612ZM18.8612 27V29H20.8612V27H18.8612ZM13.8612 27H11.8612V29H13.8612V27ZM13.8612 22.75H15.8612V20.75H13.8612V22.75ZM9 22.75L7.26795 21.75L5.5359 24.75H9V22.75ZM13.6188 14.75L15.3509 15.75L17.0829 12.75H13.6188V14.75ZM10.7321 14.75L9 13.75L7.26795 16.75H10.7321V14.75ZM23.7224 13.75L18.0933 4L14.6292 6L20.2583 15.75L23.7224 13.75ZM19.1036 16.75H21.9904V12.75H19.1036V16.75ZM17.3716 15.75L21.9904 23.75L25.4545 21.75L20.8357 13.75L17.3716 15.75ZM23.7224 20.75H18.8612V24.75H23.7224V20.75ZM20.8612 27V22.75H16.8612V27H20.8612ZM13.8612 29H18.8612V25H13.8612V29ZM11.8612 22.75V27H15.8612V22.75H11.8612ZM13.8612 20.75H9V24.75H13.8612V20.75ZM10.7321 23.75L15.3509 15.75L11.8868 13.75L7.26795 21.75L10.7321 23.75ZM10.7321 16.75H13.6188V12.75H10.7321V16.75ZM14.6292 4L9 13.75L12.4641 15.75L18.0933 6L14.6292 4Z" fill="white" mask="url(#path-1-outside-1_41_519)"/>
</svg>
