<svg width="32" height="32" viewBox="0 0 32 32" fill="none" xmlns="http://www.w3.org/2000/svg">
<g clip-path="url(#clip0_351_383)">
<path d="M11.2425 14.7799C11.4586 14.0732 12.3402 13.837 12.8807 14.341L14.7034 16.0403C14.9831 16.3011 15.0895 16.6985 14.9777 17.0642L14.2489 19.4472C14.0328 20.1539 13.1512 20.3901 12.6107 19.8862L10.788 18.1868C10.5083 17.9261 10.4018 17.5286 10.5137 17.1629L11.2425 14.7799Z" fill="white"/>
<path d="M14.778 11.2444C14.9941 10.5377 15.8757 10.3015 16.4162 10.8054L18.2389 12.5048C18.5186 12.7656 18.6251 13.163 18.5132 13.5287L17.7844 15.9117C17.5683 16.6184 16.6867 16.8546 16.1462 16.3507L14.3235 14.6513C14.0438 14.3905 13.9373 13.9931 14.0492 13.6274L14.778 11.2444Z" fill="white"/>
<path d="M18.3135 7.70886C18.5296 7.00218 19.4112 6.76596 19.9517 7.26991L21.7744 8.96927C22.0541 9.23004 22.1606 9.62747 22.0488 9.99315L21.3199 12.3762C21.1038 13.0829 20.2223 13.3191 19.6817 12.8151L17.8591 11.1158C17.5794 10.855 17.4729 10.4576 17.5847 10.0919L18.3135 7.70886Z" fill="white"/>
<path d="M22.483 5.24677C22.6991 4.54008 23.5807 4.30387 24.1212 4.80781L25.2103 5.82325C25.49 6.08401 25.5965 6.48145 25.4847 6.84713L25.0492 8.27108C24.8331 8.97776 23.9515 9.21398 23.411 8.71003L22.3219 7.6946C22.0422 7.43384 21.9357 7.0364 22.0475 6.67072L22.483 5.24677Z" fill="white"/>
<path d="M8.34085 19.3889C8.55697 18.6822 9.43854 18.446 9.97905 18.95L11.0682 19.9654C11.3479 20.2262 11.4544 20.6236 11.3425 20.9893L10.907 22.4132C10.6909 23.1199 9.80934 23.3561 9.26883 22.8522L8.1797 21.8368C7.90001 21.576 7.79352 21.1785 7.90535 20.8129L8.34085 19.3889Z" fill="white"/>
<path d="M17.6743 22.1965C18.1782 22.737 17.942 23.6185 17.2353 23.8347L14.8523 24.5635C14.4866 24.6753 14.0892 24.5688 13.8284 24.2891L12.129 22.4664C11.6251 21.9259 11.8613 21.0444 12.568 20.8282L14.951 20.0994C15.3167 19.9876 15.7142 20.0941 15.9749 20.3738L17.6743 22.1965Z" fill="white"/>
<path d="M21.2098 18.6609C21.7137 19.2014 21.4775 20.083 20.7708 20.2991L18.3878 21.0279C18.0221 21.1398 17.6247 21.0333 17.3639 20.7536L15.6646 18.9309C15.1606 18.3904 15.3968 17.5088 16.1035 17.2927L18.4866 16.5639C18.8522 16.4521 19.2497 16.5586 19.5104 16.8382L21.2098 18.6609Z" fill="white"/>
<path d="M24.7453 15.1254C25.2493 15.6659 25.0131 16.5475 24.3064 16.7636L21.9233 17.4924C21.5577 17.6043 21.1602 17.4978 20.8995 17.2181L19.2001 15.3954C18.6961 14.8549 18.9324 13.9733 19.639 13.7572L22.0221 13.0284C22.3878 12.9165 22.7852 13.023 23.046 13.3027L24.7453 15.1254Z" fill="white"/>
<path d="M27.0997 10.9604C27.6037 11.5009 27.3674 12.3824 26.6608 12.5986L25.2948 13.0163C24.9291 13.1282 24.5317 13.0217 24.2709 12.742L23.2969 11.6972C22.7929 11.1567 23.0291 10.2751 23.7358 10.059L25.1018 9.64126C25.4674 9.52943 25.8649 9.63592 26.1256 9.91561L27.0997 10.9604Z" fill="white"/>
<path d="M29.9281 8.13194C30.4321 8.67245 30.1959 9.55402 29.4892 9.77015L28.1232 10.1879C27.7576 10.2997 27.3601 10.1932 27.0994 9.91355L26.1253 8.86879C25.6213 8.32828 25.8576 7.44671 26.5642 7.23058L27.9302 6.81283C28.2959 6.70099 28.6933 6.80749 28.9541 7.08718L29.9281 8.13194Z" fill="white"/>
<line x1="11.7673" y1="24.0308" x2="6.81751" y2="30.3948" stroke="white" stroke-width="2"/>
<path d="M24.5556 19L28.5556 19.8218L11.1681 28.7058L10.0556 27.5L24.5556 19Z" fill="white"/>
<path d="M25.4064 20.25L26.5556 27.7141L27.7048 20.25H25.4064Z" stroke="white"/>
<path d="M16.7231 5.07783C16.8909 5.36845 16.9072 5.62851 16.787 5.95096C16.6475 6.32495 16.3144 6.7909 15.721 7.34794C14.5338 8.46231 12.6193 9.65842 10.3422 10.9731C8.06504 12.2878 6.07191 13.3478 4.51326 13.8187C3.73412 14.0541 3.16404 14.1096 2.77043 14.0434C2.43108 13.9863 2.214 13.8422 2.04621 13.5515C1.84808 13.2084 1.71907 12.6501 1.7593 11.8888C1.79885 11.1403 1.99933 10.2661 2.3765 9.35819C3.13212 7.53933 4.55455 5.68469 6.6053 4.50069C8.65605 3.31669 10.9734 3.01214 12.9264 3.26719C13.9013 3.39449 14.7586 3.658 15.4266 3.99797C16.106 4.34381 16.525 4.73465 16.7231 5.07783Z" stroke="white" stroke-width="2"/>
<path d="M8.95811 9.23559C9.36272 9.6115 9.99546 9.58824 10.3714 9.18363C10.7473 8.77901 10.724 8.14628 10.3194 7.77037L8.95811 9.23559ZM7.50912 6.83134L6.99986 7.69195L7.50912 6.83134ZM4.80422 5.71176C4.50617 6.66631 4.50611 6.66629 4.50605 6.66627C4.50604 6.66627 4.50599 6.66626 4.50597 6.66625C4.50594 6.66624 4.50592 6.66623 4.50594 6.66624C4.50596 6.66625 4.50609 6.66629 4.50632 6.66636C4.50678 6.6665 4.50765 6.66678 4.50892 6.66717C4.51145 6.66797 4.51557 6.66927 4.5212 6.67106C4.53247 6.67464 4.54978 6.68016 4.57255 6.68752C4.6181 6.70224 4.68534 6.72425 4.76953 6.75258C4.93824 6.80937 5.17326 6.89096 5.4371 6.98974C5.9805 7.19318 6.58768 7.44804 6.99986 7.69195L8.01839 5.97073C7.44668 5.63242 6.7014 5.3275 6.13832 5.1167C5.84893 5.00836 5.59219 4.91922 5.40747 4.85706C5.31494 4.82591 5.24004 4.80139 5.18763 4.78445C5.16141 4.77598 5.14079 4.76939 5.12637 4.76481C5.11915 4.76252 5.11349 4.76073 5.10945 4.75946C5.10743 4.75883 5.10581 4.75832 5.10461 4.75794C5.10401 4.75775 5.10351 4.7576 5.10312 4.75748C5.10293 4.75741 5.10276 4.75736 5.10261 4.75732C5.10254 4.75729 5.10245 4.75727 5.10242 4.75726C5.10234 4.75723 5.10226 4.75721 4.80422 5.71176ZM6.99986 7.69195C7.3811 7.91755 7.86194 8.29142 8.27312 8.63575C8.47277 8.80295 8.64567 8.95441 8.76839 9.06385C8.82963 9.11846 8.87806 9.16232 8.91072 9.19211C8.92704 9.20699 8.9394 9.21834 8.94743 9.22573C8.95144 9.22943 8.95437 9.23213 8.95616 9.23379C8.95706 9.23462 8.95768 9.23519 8.958 9.2355C8.95817 9.23565 8.95826 9.23573 8.95827 9.23575C8.95828 9.23576 8.95827 9.23575 8.95825 9.23572C8.95823 9.23571 8.9582 9.23568 8.95819 9.23567C8.95815 9.23563 8.95811 9.23559 9.63875 8.50298C10.3194 7.77037 10.3193 7.77032 10.3193 7.77026C10.3193 7.77024 10.3192 7.77018 10.3191 7.77013C10.319 7.77004 10.3189 7.76993 10.3188 7.7698C10.3185 7.76954 10.3182 7.76921 10.3177 7.76882C10.3169 7.76803 10.3157 7.76696 10.3143 7.76563C10.3114 7.76297 10.3074 7.75925 10.3022 7.75451C10.292 7.74504 10.2772 7.73152 10.2584 7.71437C10.2208 7.68008 10.1668 7.6312 10.0995 7.57116C9.96511 7.4513 9.7762 7.28581 9.55719 7.1024C9.13102 6.74552 8.54705 6.28357 8.01839 5.97073L6.99986 7.69195Z" fill="white"/>
<path d="M12.1172 7.21863C12.5218 7.59454 13.1545 7.57127 13.5304 7.16666C13.9063 6.76205 13.8831 6.12931 13.4785 5.7534L12.1172 7.21863ZM10.6682 4.81437L10.1589 5.67498L10.6682 4.81437ZM7.96327 3.69479C7.66523 4.64934 7.66516 4.64932 7.66511 4.64931C7.6651 4.6493 7.66505 4.64929 7.66503 4.64928C7.66499 4.64927 7.66498 4.64927 7.66499 4.64927C7.66502 4.64928 7.66515 4.64932 7.66538 4.64939C7.66584 4.64954 7.66671 4.64981 7.66797 4.65021C7.67051 4.651 7.67462 4.6523 7.68026 4.65409C7.69153 4.65767 7.70884 4.6632 7.7316 4.67055C7.77716 4.68528 7.84439 4.70728 7.92858 4.73562C8.0973 4.7924 8.33231 4.874 8.59616 4.97277C9.13956 5.17621 9.74674 5.43108 10.1589 5.67498L11.1774 3.95376C10.6057 3.61546 9.86046 3.31053 9.29738 3.09973C9.00798 2.99139 8.75125 2.90226 8.56653 2.84009C8.474 2.80895 8.3991 2.78442 8.34668 2.76748C8.32047 2.75901 8.29985 2.75242 8.28542 2.74784C8.27821 2.74556 8.27255 2.74377 8.26851 2.74249C8.26648 2.74186 8.26487 2.74135 8.26367 2.74097C8.26307 2.74079 8.26257 2.74063 8.26218 2.74051C8.26198 2.74045 8.26181 2.74039 8.26167 2.74035C8.2616 2.74033 8.26151 2.7403 8.26148 2.74029C8.26139 2.74026 8.26132 2.74024 7.96327 3.69479ZM10.1589 5.67498C10.5402 5.90059 11.021 6.27445 11.4322 6.61878C11.6318 6.78598 11.8047 6.93744 11.9275 7.04688C11.9887 7.10149 12.0371 7.14535 12.0698 7.17514C12.0861 7.19002 12.0985 7.20137 12.1065 7.20876C12.1105 7.21246 12.1134 7.21516 12.1152 7.21683C12.1161 7.21766 12.1167 7.21823 12.1171 7.21853C12.1172 7.21868 12.1173 7.21876 12.1173 7.21878C12.1173 7.21879 12.1173 7.21878 12.1173 7.21875C12.1173 7.21874 12.1173 7.21871 12.1172 7.2187C12.1172 7.21867 12.1172 7.21863 12.7978 6.48601C13.4785 5.7534 13.4784 5.75335 13.4783 5.7533C13.4783 5.75327 13.4783 5.75321 13.4782 5.75317C13.4781 5.75307 13.478 5.75296 13.4778 5.75283C13.4776 5.75257 13.4772 5.75225 13.4768 5.75185C13.4759 5.75106 13.4748 5.75 13.4733 5.74867C13.4705 5.74601 13.4664 5.74228 13.4613 5.73755C13.451 5.72808 13.4363 5.71455 13.4175 5.6974C13.3799 5.66311 13.3259 5.61423 13.2586 5.55419C13.1242 5.43433 12.9353 5.26884 12.7162 5.08543C12.2901 4.72855 11.7061 4.2666 11.1774 3.95376L10.1589 5.67498Z" fill="white"/>
<path d="M5.44408 11.3772C5.90711 11.6782 6.5265 11.5469 6.82755 11.0839C7.12859 10.6208 6.99727 10.0014 6.53424 9.7004L5.44408 11.3772ZM4.2258 9.44546L3.71654 10.3061L4.2258 9.44546ZM2.16171 8.64631C1.96481 9.62673 1.96465 9.6267 1.9645 9.62667C1.96445 9.62666 1.9643 9.62663 1.96421 9.62661C1.96402 9.62657 1.96385 9.62654 1.96369 9.62651C1.96339 9.62644 1.96314 9.62639 1.96296 9.62636C1.96259 9.62628 1.96248 9.62626 1.96262 9.62629C1.96289 9.62634 1.96415 9.62661 1.96637 9.62708C1.9708 9.62802 1.97904 9.62979 1.99081 9.63244C2.01436 9.63773 2.0519 9.64647 2.10119 9.65891C2.20004 9.68385 2.34456 9.72328 2.5173 9.7791C2.86816 9.89248 3.30955 10.0652 3.71654 10.3061L4.73507 8.58485C4.15817 8.24347 3.56752 8.01665 3.1323 7.876C2.912 7.80482 2.72497 7.75362 2.59055 7.7197C2.5232 7.7027 2.46865 7.68994 2.42929 7.6811C2.4096 7.67667 2.39367 7.67322 2.3818 7.6707C2.37586 7.66944 2.37094 7.66841 2.36706 7.66761C2.36513 7.66721 2.36345 7.66687 2.36204 7.66658C2.36133 7.66643 2.36069 7.66631 2.36012 7.66619C2.35984 7.66613 2.35957 7.66608 2.35932 7.66603C2.35919 7.666 2.35901 7.66597 2.35895 7.66595C2.35878 7.66592 2.35861 7.66588 2.16171 8.64631ZM3.71654 10.3061C4.16082 10.569 4.59326 10.8371 4.91575 11.0402C5.07667 11.1415 5.20946 11.2262 5.30174 11.2854C5.34786 11.315 5.38382 11.3382 5.40807 11.3539C5.4202 11.3617 5.42939 11.3676 5.43546 11.3716C5.43849 11.3735 5.44074 11.375 5.44219 11.3759C5.44291 11.3764 5.44343 11.3767 5.44375 11.3769C5.44391 11.377 5.44401 11.3771 5.44407 11.3772C5.4441 11.3772 5.44411 11.3772 5.44411 11.3772C5.44411 11.3772 5.44411 11.3772 5.44411 11.3772C5.4441 11.3772 5.44408 11.3772 5.98916 10.5388C6.53424 9.7004 6.53422 9.70038 6.5342 9.70037C6.53419 9.70036 6.53416 9.70034 6.53413 9.70032C6.53408 9.70029 6.53402 9.70025 6.53395 9.7002C6.53379 9.7001 6.53359 9.69997 6.53333 9.6998C6.53282 9.69947 6.53211 9.69901 6.53119 9.69841C6.52935 9.69722 6.5267 9.6955 6.52326 9.69327C6.51638 9.68881 6.50634 9.68231 6.49335 9.67392C6.46738 9.65714 6.42955 9.63276 6.38145 9.60191C6.28527 9.54023 6.14783 9.45256 5.98164 9.34789C5.64993 9.13896 5.20069 8.86038 4.73507 8.58485L3.71654 10.3061Z" fill="white"/>
</g>
<defs>
<clipPath id="clip0_351_383">
<rect width="32" height="32" fill="white"/>
</clipPath>
</defs>
</svg>
