<svg width="16" height="32" viewBox="0 0 16 32" fill="none" xmlns="http://www.w3.org/2000/svg">
<g clip-path="url(#clip0_113_43)">
<path d="M6.808 22.616C6.664 21.672 6.512 20.696 6.352 19.688C6.192 18.68 6.056 17.68 5.944 16.688C5.848 15.68 5.8 14.704 5.8 13.76V11.72H10.936V13.76C10.936 14.704 10.88 15.68 10.768 16.688C10.672 17.68 10.544 18.68 10.384 19.688C10.224 20.696 10.072 21.672 9.928 22.616H6.808ZM8.392 29.264C7.64 29.264 7.056 29.056 6.64 28.64C6.224 28.224 6.016 27.632 6.016 26.864C6.016 26.16 6.232 25.584 6.664 25.136C7.112 24.688 7.688 24.464 8.392 24.464C9.144 24.464 9.728 24.672 10.144 25.088C10.56 25.504 10.768 26.096 10.768 26.864C10.768 27.568 10.544 28.144 10.096 28.592C9.664 29.04 9.096 29.264 8.392 29.264Z" fill="white"/>
</g>
<defs>
<clipPath id="clip0_113_43">
<rect width="16" height="32" fill="white"/>
</clipPath>
</defs>
</svg>
