<svg width="16" height="32" viewBox="0 0 16 32" fill="none" xmlns="http://www.w3.org/2000/svg">
<g clip-path="url(#clip0_113_39)">
<path d="M6.728 22.736L5.84 19.76C6.192 19.68 6.544 19.584 6.896 19.472C7.264 19.36 7.616 19.232 7.952 19.088C8.288 18.944 8.584 18.776 8.84 18.584C9.112 18.392 9.32 18.168 9.464 17.912C9.624 17.656 9.704 17.376 9.704 17.072C9.704 16.864 9.656 16.696 9.56 16.568C9.48 16.44 9.36 16.344 9.2 16.28C9.04 16.2 8.848 16.16 8.624 16.16C8.176 16.16 7.712 16.32 7.232 16.64C6.768 16.96 6.304 17.56 5.84 18.44L2.6 15.32C3.352 14.168 4.24 13.28 5.264 12.656C6.304 12.032 7.392 11.72 8.528 11.72C9.616 11.72 10.6 11.944 11.48 12.392C12.36 12.824 13.056 13.424 13.568 14.192C14.08 14.944 14.336 15.792 14.336 16.736C14.336 17.376 14.2 18.016 13.928 18.656C13.672 19.28 13.304 19.864 12.824 20.408C12.36 20.952 11.808 21.424 11.168 21.824C10.528 22.224 9.824 22.528 9.056 22.736H8.96H6.728ZM5.84 26.864C5.84 26.16 6.056 25.584 6.488 25.136C6.936 24.688 7.512 24.464 8.216 24.464C8.968 24.464 9.552 24.672 9.968 25.088C10.384 25.504 10.592 26.096 10.592 26.864C10.592 27.568 10.368 28.144 9.92 28.592C9.488 29.04 8.92 29.264 8.216 29.264C7.464 29.264 6.88 29.056 6.464 28.64C6.048 28.224 5.84 27.632 5.84 26.864Z" fill="white"/>
</g>
<defs>
<clipPath id="clip0_113_39">
<rect width="16" height="32" fill="white"/>
</clipPath>
</defs>
</svg>
