<svg width="32" height="32" viewBox="0 0 32 32" fill="none" xmlns="http://www.w3.org/2000/svg">
<path fill-rule="evenodd" clip-rule="evenodd" d="M26.4558 5.24264L24.7451 11.196L21.5441 12.9828L14.435 20.0919L17.2634 22.9203L15.8492 24.3345L13.0208 21.5061L12.3137 20.799L8.58897 24.5237C8.76716 25.191 8.59452 25.9324 8.07106 26.4558C7.29001 27.2369 6.02368 27.2369 5.24263 26.4558C4.46158 25.6748 4.46158 24.4085 5.24263 23.6274C5.76609 23.104 6.50752 22.9313 7.17476 23.1095L10.8995 19.3848L10.1924 18.6777L7.36395 15.8492L8.77817 14.435L11.6066 17.2635L18.7157 10.1544L20.5025 6.95338L26.4558 5.24264Z" fill="white"/>
<rect x="3" y="3" width="26" height="26" rx="2" stroke="white" stroke-width="2"/>
</svg>
