<svg width="32" height="32" viewBox="0 0 32 32" fill="none" xmlns="http://www.w3.org/2000/svg">
<rect x="3" y="3" width="26" height="26" rx="2" stroke="white" stroke-width="2"/>
<path fill-rule="evenodd" clip-rule="evenodd" d="M16.1651 24.3844C17.284 23.9633 18.2991 23.327 19.1579 22.5201C20.2188 21.5231 19.767 19.8712 18.5062 19.1433C16.4724 17.969 16.8736 14.922 19.142 14.3142C20.5482 13.9374 21.4122 12.4587 20.6454 11.2211C20.0248 10.2194 19.2089 9.34201 18.2372 8.64567C16.5447 7.43284 14.484 6.84438 12.4062 6.98056C10.3285 7.11675 8.36227 7.96914 6.84255 9.39252C5.32282 10.8159 4.34365 12.7222 4.07187 14.7866C3.80009 16.8509 4.25252 18.9457 5.35206 20.7139C6.4516 22.4821 8.13023 23.8144 10.1019 24.4837C12.0736 25.153 14.2164 25.1179 16.1651 24.3844ZM8.83768 13.9694C9.63788 13.755 10.1128 12.9325 9.89834 12.1323C9.68393 11.3321 8.86142 10.8572 8.06122 11.0716C7.26102 11.286 6.78615 12.1085 7.00056 12.9087C7.21497 13.7089 8.03748 14.1838 8.83768 13.9694Z" fill="white"/>
<mask id="path-3-outside-1_102_112" maskUnits="userSpaceOnUse" x="16.8336" y="13.7434" width="12" height="9" fill="black">
<rect fill="white" x="16.8336" y="13.7434" width="12" height="9"/>
<path fill-rule="evenodd" clip-rule="evenodd" d="M23.2685 15.7906C22.857 15.9009 22.5393 16.1865 22.3743 16.5455C22.2238 16.7379 22.0283 16.9514 21.8302 17.0661C21.4816 17.2681 20.8336 17.3332 20.8336 17.3332L22.3863 18.0441C22.4344 18.1387 22.4748 18.2348 22.4988 18.3248C22.5577 18.5461 22.5449 18.8353 22.5154 19.0778C22.3782 19.4484 22.4009 19.8749 22.6139 20.2438C22.9938 20.9018 23.8351 21.1272 24.493 20.7474C25.1458 20.3705 25.3728 19.5394 25.0054 18.8838C25.2965 19.0305 25.6405 19.0749 25.9801 18.9839C26.7139 18.7872 27.1494 18.0329 26.9528 17.2991C26.7562 16.5652 26.0019 16.1298 25.268 16.3264C25.1183 16.3665 24.9809 16.4299 24.8589 16.5115C24.5751 15.9337 23.9139 15.6177 23.2685 15.7906Z"/>
</mask>
<path d="M22.3743 16.5455L23.1618 17.1619L23.234 17.0696L23.2829 16.9632L22.3743 16.5455ZM23.2685 15.7906L23.0097 14.8247L23.2685 15.7906ZM21.8302 17.0661L21.3289 16.2009L21.3289 16.2009L21.8302 17.0661ZM20.8336 17.3332L20.7337 16.3382L17.0633 16.7066L20.4173 18.2424L20.8336 17.3332ZM22.3863 18.0441L23.278 17.5915L23.12 17.2803L22.8027 17.1349L22.3863 18.0441ZM22.4988 18.3248L21.5324 18.5822V18.5822L22.4988 18.3248ZM22.5154 19.0778L23.4532 19.4249L23.4938 19.3151L23.508 19.1989L22.5154 19.0778ZM22.6139 20.2438L23.4799 19.7438L22.6139 20.2438ZM24.493 20.7474L24.993 21.6134H24.993L24.493 20.7474ZM25.0054 18.8838L25.4554 17.9908L22.5333 16.5182L24.1331 19.3727L25.0054 18.8838ZM25.9801 18.9839L25.7213 18.0179H25.7213L25.9801 18.9839ZM26.9528 17.2991L25.9869 17.5579L25.9869 17.5579L26.9528 17.2991ZM25.268 16.3264L25.5268 17.2923L25.268 16.3264ZM24.8589 16.5115L23.9613 16.9523L24.4651 17.9781L25.4149 17.3427L24.8589 16.5115ZM23.2829 16.9632C23.329 16.8629 23.4153 16.7866 23.5273 16.7566L23.0097 14.8247C22.2987 15.0152 21.7497 15.5101 21.4657 16.1279L23.2829 16.9632ZM22.3315 17.9314C22.704 17.7156 22.9969 17.3725 23.1618 17.1619L21.5868 15.9292C21.5287 16.0034 21.4701 16.0711 21.4156 16.1252C21.3572 16.1831 21.3271 16.2019 21.3289 16.2009L22.3315 17.9314ZM20.8336 17.3332C20.9335 18.3282 20.9336 18.3281 20.9338 18.3281C20.9338 18.3281 20.9339 18.3281 20.934 18.3281C20.9342 18.3281 20.9344 18.3281 20.9346 18.328C20.935 18.328 20.9355 18.328 20.936 18.3279C20.937 18.3278 20.9381 18.3277 20.9394 18.3276C20.942 18.3273 20.9453 18.3269 20.9492 18.3265C20.9569 18.3257 20.9671 18.3245 20.9794 18.3231C21.0042 18.3202 21.0379 18.3159 21.0788 18.3102C21.1598 18.2989 21.2721 18.2812 21.3991 18.2556C21.6217 18.2107 22.0074 18.1192 22.3315 17.9314L21.3289 16.2009C21.3293 16.2006 21.2995 16.2165 21.2275 16.2391C21.1609 16.26 21.0831 16.279 21.0032 16.2952C20.9246 16.311 20.8532 16.3223 20.8018 16.3295C20.7765 16.333 20.7569 16.3354 20.7448 16.3369C20.7388 16.3376 20.7347 16.338 20.7328 16.3383C20.7318 16.3384 20.7314 16.3384 20.7315 16.3384C20.7316 16.3384 20.7318 16.3384 20.7322 16.3383C20.7324 16.3383 20.7326 16.3383 20.7329 16.3383C20.733 16.3382 20.7331 16.3382 20.7333 16.3382C20.7333 16.3382 20.7335 16.3382 20.7335 16.3382C20.7336 16.3382 20.7337 16.3382 20.8336 17.3332ZM22.8027 17.1349L21.2499 16.4239L20.4173 18.2424L21.97 18.9534L22.8027 17.1349ZM21.4946 18.4968C21.5083 18.5238 21.5182 18.5456 21.5249 18.5621C21.5318 18.5791 21.5333 18.5855 21.5324 18.5822L23.4651 18.0675C23.4168 17.8861 23.3441 17.7217 23.278 17.5915L21.4946 18.4968ZM21.5324 18.5822C21.5319 18.5802 21.54 18.6148 21.5403 18.6971C21.5405 18.7738 21.5341 18.8632 21.5227 18.9568L23.508 19.1989C23.5404 18.9333 23.5759 18.4836 23.4651 18.0675L21.5324 18.5822ZM21.5775 18.7307C21.3416 19.3683 21.3799 20.1065 21.7479 20.7438L23.4799 19.7438C23.422 19.6434 23.4149 19.5284 23.4532 19.4249L21.5775 18.7307ZM21.7479 20.7438C22.4039 21.8801 23.8568 22.2694 24.993 21.6134L23.993 19.8813C23.8134 19.9851 23.5837 19.9235 23.4799 19.7438L21.7479 20.7438ZM24.993 21.6134C26.1204 20.9625 26.5124 19.5273 25.8778 18.3949L24.1331 19.3727C24.2333 19.5515 24.1712 19.7785 23.993 19.8813L24.993 21.6134ZM24.5554 19.7768C25.0573 20.0297 25.653 20.1068 26.2389 19.9498L25.7213 18.0179C25.6279 18.043 25.5357 18.0312 25.4554 17.9908L24.5554 19.7768ZM26.2389 19.9498C27.5062 19.6102 28.2583 18.3076 27.9187 17.0403L25.9869 17.5579C26.0406 17.7583 25.9216 17.9643 25.7213 18.0179L26.2389 19.9498ZM27.9187 17.0403C27.5791 15.773 26.2765 15.0209 25.0092 15.3605L25.5268 17.2923C25.7272 17.2386 25.9332 17.3575 25.9869 17.5579L27.9187 17.0403ZM25.0092 15.3605C24.7523 15.4293 24.5148 15.5386 24.3029 15.6803L25.4149 17.3427C25.4471 17.3211 25.4842 17.3037 25.5268 17.2923L25.0092 15.3605ZM23.5273 16.7566C23.7025 16.7096 23.884 16.795 23.9613 16.9523L25.7565 16.0707C25.2662 15.0723 24.1253 14.5258 23.0097 14.8247L23.5273 16.7566Z" fill="white" mask="url(#path-3-outside-1_102_112)"/>
</svg>
