<svg width="32" height="32" viewBox="0 0 32 32" fill="none" xmlns="http://www.w3.org/2000/svg">
<rect x="3" y="3" width="26" height="26" rx="2" stroke="white" stroke-width="2"/>
<circle cx="10" cy="9" r="2" fill="white"/>
<line x1="10" y1="12" x2="10" y2="18" stroke="white" stroke-width="2"/>
<line x1="9.92848" y1="16.6286" x2="13.9285" y2="26.6286" stroke="white" stroke-width="2"/>
<line x1="10.4472" y1="13.1056" x2="16.4472" y2="16.1056" stroke="white" stroke-width="2"/>
<line y1="-1" x2="6.7082" y2="-1" transform="matrix(0.894427 -0.447214 -0.447214 -0.894427 10 12)" stroke="white" stroke-width="2"/>
<line y1="-1" x2="10.7703" y2="-1" transform="matrix(-0.371391 0.928477 0.928477 0.371391 11 17)" stroke="white" stroke-width="2"/>
<line x1="19.5944" y1="11.7528" x2="21.5944" y2="9.75276" stroke="white"/>
<line y1="-0.5" x2="2.82843" y2="-0.5" transform="matrix(0.707107 0.707107 0.707107 -0.707107 19.9479 15.1063)" stroke="white"/>
<line x1="19.9479" y1="13.6063" x2="22.9479" y2="13.6063" stroke="white"/>
<line x1="15.9615" y1="5.72528" x2="17.9615" y2="12.7253" stroke="white" stroke-width="2"/>
<line x1="17.908" y1="14.2428" x2="16.0238" y2="21.2748" stroke="white" stroke-width="2"/>
</svg>
