<svg width="32" height="32" viewBox="0 0 32 32" fill="none" xmlns="http://www.w3.org/2000/svg">
<mask id="path-1-inside-1_313_77" fill="white">
<path fill-rule="evenodd" clip-rule="evenodd" d="M27 13.1538C27 10.6685 24.9853 8.65381 22.5 8.65381C20.0147 8.65381 18 10.6685 18 13.1538V18.399C18 19.2761 18.711 19.9872 19.5882 19.9872C20.4654 19.9872 21.1764 20.6983 21.1764 21.5754V22.6282C21.1764 24.0868 22.3589 25.2693 23.8175 25.2693H24.0882C25.6963 25.2693 27 23.9656 27 22.3575V19.9359L27 13.1538Z"/>
</mask>
<path d="M27 19.9359H29V19.9359L27 19.9359ZM20 18.399V13.1538H16V18.399H20ZM19.1764 21.5754V22.6282H23.1764V21.5754H19.1764ZM23.8175 27.2693H24.0882V23.2693H23.8175V27.2693ZM29 22.3575V19.9359H25V22.3575H29ZM25 13.1538L25 19.9359L29 19.9359L29 13.1538L25 13.1538ZM24.0882 27.2693C26.8009 27.2693 29 25.0702 29 22.3575H25C25 22.8611 24.5918 23.2693 24.0882 23.2693V27.2693ZM19.1764 22.6282C19.1764 25.1914 21.2543 27.2693 23.8175 27.2693V23.2693C23.4634 23.2693 23.1764 22.9823 23.1764 22.6282H19.1764ZM19.5882 21.9872C19.3608 21.9872 19.1764 21.8028 19.1764 21.5754H23.1764C23.1764 19.5937 21.5699 17.9872 19.5882 17.9872V21.9872ZM16 18.399C16 20.3807 17.6065 21.9872 19.5882 21.9872V17.9872C19.8156 17.9872 20 18.1715 20 18.399H16ZM22.5 10.6538C23.8807 10.6538 25 11.7731 25 13.1538L29 13.1538C29 9.56395 26.0898 6.65381 22.5 6.65381V10.6538ZM22.5 6.65381C18.9101 6.65381 16 9.56396 16 13.1538H20C20 11.7731 21.1193 10.6538 22.5 10.6538V6.65381Z" fill="white" mask="url(#path-1-inside-1_313_77)"/>
<mask id="path-3-inside-2_313_77" fill="white">
<path fill-rule="evenodd" clip-rule="evenodd" d="M4.99997 13.1538C4.99997 10.6685 7.01469 8.65381 9.49997 8.65381C11.9852 8.65381 14 10.6685 14 13.1538V18.399C14 19.2761 13.2889 19.9872 12.4117 19.9872C11.5346 19.9872 10.8235 20.6983 10.8235 21.5754V22.6282C10.8235 24.0868 9.64106 25.2693 8.18246 25.2693H7.91173C6.3036 25.2693 4.99996 23.9656 4.99996 22.3575V19.9359L4.99997 13.1538Z"/>
</mask>
<path d="M4.99996 19.9359H2.99996V19.9359L4.99996 19.9359ZM12 18.399V13.1538H16V18.399H12ZM12.8235 21.5754V22.6282H8.82349V21.5754H12.8235ZM8.18246 27.2693H7.91173V23.2693H8.18246V27.2693ZM2.99996 22.3575V19.9359H6.99996V22.3575H2.99996ZM6.99997 13.1538L6.99996 19.9359L2.99996 19.9359L2.99997 13.1538L6.99997 13.1538ZM7.91173 27.2693C5.19903 27.2693 2.99996 25.0702 2.99996 22.3575H6.99996C6.99996 22.8611 7.40817 23.2693 7.91173 23.2693V27.2693ZM12.8235 22.6282C12.8235 25.1914 10.7456 27.2693 8.18246 27.2693V23.2693C8.53649 23.2693 8.82349 22.9823 8.82349 22.6282H12.8235ZM12.4117 21.9872C12.6391 21.9872 12.8235 21.8028 12.8235 21.5754H8.82349C8.82349 19.5937 10.43 17.9872 12.4117 17.9872V21.9872ZM16 18.399C16 20.3807 14.3935 21.9872 12.4117 21.9872V17.9872C12.1843 17.9872 12 18.1715 12 18.399H16ZM9.49997 10.6538C8.11926 10.6538 6.99997 11.7731 6.99997 13.1538L2.99997 13.1538C2.99997 9.56396 5.91012 6.65381 9.49997 6.65381V10.6538ZM9.49997 6.65381C13.0898 6.65381 16 9.56396 16 13.1538H12C12 11.7731 10.8807 10.6538 9.49997 10.6538V6.65381Z" fill="white" mask="url(#path-3-inside-2_313_77)"/>
<line x1="16.3333" y1="6.6538" x2="16.3333" y2="9.98714" stroke="white" stroke-width="2" stroke-dasharray="2 1"/>
<line x1="13.4477" y1="12.1252" x2="15.8047" y2="9.76819" stroke="white" stroke-width="2" stroke-dasharray="2 1"/>
<line x1="15.7071" y1="9.29289" x2="19.2426" y2="12.8284" stroke="white" stroke-width="2" stroke-dasharray="2 1"/>
<rect x="3" y="3" width="26" height="26" rx="2" stroke="white" stroke-width="2"/>
</svg>
