<svg width="32" height="32" viewBox="0 0 32 32" fill="none" xmlns="http://www.w3.org/2000/svg">
<path d="M16.8793 9.77586H24.3262L25.958 11.8103H16.8793V9.77586Z" stroke="white"/>
<rect x="12.069" y="14.8276" width="2.55172" height="13.1724" stroke="white" stroke-width="2"/>
<rect x="5.5" y="9.77586" width="4.31035" height="2.03448" stroke="white"/>
<rect x="9.93104" y="27.8621" width="6.82759" height="0.758621" stroke="white" stroke-width="0.758621"/>
<mask id="path-5-inside-1_402_206" fill="white">
<path fill-rule="evenodd" clip-rule="evenodd" d="M12.3103 7C11.2058 7 10.3103 7.89543 10.3103 9V12.5862C10.3103 13.6908 11.2058 14.5862 12.3103 14.5862H14.3793C15.4839 14.5862 16.3793 13.6908 16.3793 12.5862V9C16.3793 7.89543 15.4839 7 14.3793 7H12.3103ZM15.6207 7.75862H11.069V11.5517H15.6207V7.75862Z"/>
</mask>
<path d="M11.069 7.75862V5.75862H9.06897V7.75862H11.069ZM15.6207 7.75862H17.6207V5.75862H15.6207V7.75862ZM11.069 11.5517H9.06897V13.5517H11.069V11.5517ZM15.6207 11.5517V13.5517H17.6207V11.5517H15.6207ZM12.3103 9L12.3103 9V5C10.1012 5 8.31035 6.79086 8.31035 9H12.3103ZM12.3103 12.5862V9H8.31035V12.5862H12.3103ZM12.3103 12.5862H12.3103H8.31035C8.31035 14.7953 10.1012 16.5862 12.3103 16.5862V12.5862ZM14.3793 12.5862H12.3103V16.5862H14.3793V12.5862ZM14.3793 12.5862V12.5862V16.5862C16.5885 16.5862 18.3793 14.7953 18.3793 12.5862H14.3793ZM14.3793 9V12.5862H18.3793V9H14.3793ZM14.3793 9L14.3793 9H18.3793C18.3793 6.79086 16.5885 5 14.3793 5V9ZM12.3103 9H14.3793V5H12.3103V9ZM11.069 9.75862H15.6207V5.75862H11.069V9.75862ZM13.069 11.5517V7.75862H9.06897V11.5517H13.069ZM15.6207 9.55172H11.069V13.5517H15.6207V9.55172ZM13.6207 7.75862V11.5517H17.6207V7.75862H13.6207Z" fill="white" mask="url(#path-5-inside-1_402_206)"/>
<line x1="7.72307" y1="9.81088" x2="8.48169" y2="11.3281" stroke="white"/>
<line y1="-0.5" x2="3.12787" y2="-0.5" transform="matrix(0.970142 -0.242536 0.707107 0.707107 11.8276 16.8621)" stroke="white"/>
<line y1="-0.5" x2="3.12787" y2="-0.5" transform="matrix(0.970142 -0.242536 0.707107 0.707107 11.8276 19.1379)" stroke="white"/>
<line y1="-0.5" x2="3.12787" y2="-0.5" transform="matrix(0.970142 -0.242536 0.707107 0.707107 11.8276 21.4138)" stroke="white"/>
<line y1="-0.5" x2="3.12787" y2="-0.5" transform="matrix(0.970142 -0.242536 0.707107 0.707107 11.8276 23.6897)" stroke="white"/>
<line y1="-0.5" x2="3.12787" y2="-0.5" transform="matrix(0.970142 -0.242536 0.707107 0.707107 11.8276 25.9655)" stroke="white"/>
<line x1="18.3438" y1="9.81088" x2="19.1024" y2="11.3281" stroke="white"/>
<line x1="20.6196" y1="9.81088" x2="21.3782" y2="11.3281" stroke="white"/>
<line x1="22.8955" y1="9.81088" x2="23.6541" y2="11.3281" stroke="white"/>
<line y1="-0.5" x2="1.69633" y2="-0.5" transform="matrix(-0.447214 0.894427 0.894427 0.447214 22.4483 10.0345)" stroke="white"/>
<line y1="-0.5" x2="1.69633" y2="-0.5" transform="matrix(-0.447214 0.894427 0.894427 0.447214 20.1724 10.0345)" stroke="white"/>
<line y1="-0.5" x2="1.69633" y2="-0.5" transform="matrix(-0.447214 0.894427 0.894427 0.447214 17.8966 10.0345)" stroke="white"/>
<line y1="-0.5" x2="1.69633" y2="-0.5" transform="matrix(-0.447214 0.894427 0.894427 0.447214 9.55173 10.0345)" stroke="white"/>
<line y1="-0.5" x2="1.69633" y2="-0.5" transform="matrix(-0.447214 0.894427 0.894427 0.447214 7.27586 10.0345)" stroke="white"/>
<line y1="-0.5" x2="3.12787" y2="-0.5" transform="matrix(0.970142 0.242536 0.707107 -0.707107 11.8276 16.8621)" stroke="white"/>
<line y1="-0.5" x2="3.12787" y2="-0.5" transform="matrix(0.970142 0.242536 0.707107 -0.707107 11.8276 19.1379)" stroke="white"/>
<line y1="-0.5" x2="3.12787" y2="-0.5" transform="matrix(0.970142 0.242536 0.707107 -0.707107 11.8276 21.4138)" stroke="white"/>
<line y1="-0.5" x2="3.12787" y2="-0.5" transform="matrix(0.970142 0.242536 0.707107 -0.707107 11.8276 23.6897)" stroke="white"/>
<line y1="-0.5" x2="3.12787" y2="-0.5" transform="matrix(0.970142 0.242536 0.707107 -0.707107 11.8276 25.9655)" stroke="white"/>
<line x1="24.2241" y1="12.3103" x2="24.2241" y2="19.8966" stroke="white"/>
<circle cx="24.1035" cy="21.0345" r="1.13793" fill="white"/>
<circle cx="0.37931" cy="0.37931" r="0.37931" transform="matrix(1 0 0 -1 23.7241 22.931)" fill="white"/>
<rect x="3" y="3" width="26" height="26" rx="2" stroke="white" stroke-width="2"/>
</svg>
