<svg width="32" height="32" viewBox="0 0 32 32" fill="none" xmlns="http://www.w3.org/2000/svg">
<rect x="3" y="3" width="26" height="26" rx="2" stroke="white" stroke-width="2"/>
<path fill-rule="evenodd" clip-rule="evenodd" d="M25 16C25 20.9706 20.9706 25 16 25C11.0294 25 7 20.9706 7 16C7 11.0294 11.0294 6.99999 16 6.99999C20.9706 6.99999 25 11.0294 25 16ZM13 14.5C13 15.3284 12.3284 16 11.5 16C10.6716 16 9.99999 15.3284 9.99999 14.5C9.99999 13.6716 10.6716 13 11.5 13C12.3284 13 13 13.6716 13 14.5ZM20.5 16C21.3284 16 22 15.3284 22 14.5C22 13.6716 21.3284 13 20.5 13C19.6716 13 19 13.6716 19 14.5C19 15.3284 19.6716 16 20.5 16ZM12.1363 20.9647C11.6028 20.8218 11.2777 20.2666 11.5237 19.7722C11.8608 19.095 12.3492 18.499 12.9562 18.0332C13.8294 17.3632 14.8993 17 16 17C17.1007 17 18.1706 17.3632 19.0438 18.0332C19.6508 18.499 20.1392 19.095 20.4762 19.7722C20.7223 20.2666 20.3972 20.8218 19.8637 20.9647C19.3302 21.1077 18.7938 20.7755 18.4842 20.3181C18.305 20.0534 18.0833 19.8172 17.8263 19.6199C17.3023 19.2179 16.6604 19 16 19C15.3396 19 14.6976 19.2179 14.1737 19.6199C13.9166 19.8172 13.695 20.0534 13.5158 20.3181C13.2062 20.7755 12.6698 21.1077 12.1363 20.9647ZM11 18C11 17.5355 10.7889 17.1204 10.4574 16.8452C10.2973 16.6323 10.1275 16.3661 10.0625 16.125C9.94814 15.7008 10.0625 15 10.0625 15L8.52007 16.8643C8.20157 17.1393 7.99999 17.5461 7.99999 18C7.99999 18.8284 8.67156 19.5 9.49999 19.5C10.3284 19.5 11 18.8284 11 18Z" fill="white"/>
</svg>
