<svg width="32" height="32" viewBox="0 0 32 32" fill="none" xmlns="http://www.w3.org/2000/svg">
<rect x="3" y="3" width="26" height="26" rx="2" stroke="white" stroke-width="2"/>
<circle cx="22" cy="21" r="3" fill="white" stroke="white" stroke-width="2" stroke-dasharray="1 1"/>
<mask id="path-3-outside-1_29_104" maskUnits="userSpaceOnUse" x="5" y="7" width="16" height="16" fill="black">
<rect fill="white" x="5" y="7" width="16" height="16"/>
<path fill-rule="evenodd" clip-rule="evenodd" d="M13 20C15.7614 20 18 17.7614 18 15C18 12.2386 15.7614 10 13 10C10.2386 10 8 12.2386 8 15C8 17.7614 10.2386 20 13 20ZM13 17C14.1046 17 15 16.1046 15 15C15 13.8954 14.1046 13 13 13C11.8954 13 11 13.8954 11 15C11 16.1046 11.8954 17 13 17Z"/>
</mask>
<path fill-rule="evenodd" clip-rule="evenodd" d="M13 20C15.7614 20 18 17.7614 18 15C18 12.2386 15.7614 10 13 10C10.2386 10 8 12.2386 8 15C8 17.7614 10.2386 20 13 20ZM13 17C14.1046 17 15 16.1046 15 15C15 13.8954 14.1046 13 13 13C11.8954 13 11 13.8954 11 15C11 16.1046 11.8954 17 13 17Z" fill="white"/>
<path d="M19.5 15C19.5 14.5678 19.4576 14.144 19.3763 13.7331L16.4333 14.3153C16.4769 14.5355 16.5 14.7643 16.5 15H19.5ZM18.4043 11.3874C17.9302 10.6793 17.3207 10.0698 16.6126 9.59572L14.9436 12.0886C15.3259 12.3446 15.6554 12.6741 15.9114 13.0564L18.4043 11.3874ZM14.2669 8.62369C13.856 8.54239 13.4322 8.5 13 8.5V11.5C13.2357 11.5 13.4645 11.5231 13.6847 11.5667L14.2669 8.62369ZM13 8.5C12.5678 8.5 12.144 8.54239 11.7331 8.62369L12.3153 11.5667C12.5355 11.5231 12.7643 11.5 13 11.5V8.5ZM9.38744 9.59572C8.67925 10.0698 8.06984 10.6793 7.59572 11.3874L10.0886 13.0564C10.3446 12.6741 10.6741 12.3446 11.0564 12.0886L9.38744 9.59572ZM6.62369 13.7331C6.54239 14.144 6.5 14.5678 6.5 15H9.5C9.5 14.7643 9.52308 14.5355 9.56665 14.3153L6.62369 13.7331ZM6.5 15C6.5 15.4322 6.54239 15.856 6.62369 16.2669L9.56665 15.6847C9.52308 15.4645 9.5 15.2357 9.5 15H6.5ZM7.59572 18.6126C8.06984 19.3207 8.67926 19.9302 9.38744 20.4043L11.0564 17.9114C10.6741 17.6554 10.3446 17.3259 10.0886 16.9436L7.59572 18.6126ZM11.7331 21.3763C12.144 21.4576 12.5678 21.5 13 21.5V18.5C12.7643 18.5 12.5355 18.4769 12.3153 18.4333L11.7331 21.3763ZM13 21.5C13.4322 21.5 13.856 21.4576 14.2669 21.3763L13.6847 18.4333C13.4645 18.4769 13.2357 18.5 13 18.5V21.5ZM16.6126 20.4043C17.3207 19.9302 17.9302 19.3207 18.4043 18.6126L15.9114 16.9436C15.6554 17.3259 15.3259 17.6554 14.9436 17.9114L16.6126 20.4043ZM19.3763 16.2669C19.4576 15.856 19.5 15.4322 19.5 15H16.5C16.5 15.2357 16.4769 15.4645 16.4333 15.6847L19.3763 16.2669ZM16.5 15C16.5 14.5282 16.4058 14.0746 16.2338 13.6598L13.4626 14.809C13.4862 14.8659 13.5 14.9294 13.5 15H16.5ZM14.3402 11.7662C13.9254 11.5942 13.4718 11.5 13 11.5V14.5C13.0706 14.5 13.1341 14.5138 13.191 14.5374L14.3402 11.7662ZM13 11.5C12.5282 11.5 12.0746 11.5942 11.6598 11.7662L12.809 14.5374C12.8659 14.5138 12.9294 14.5 13 14.5V11.5ZM9.76617 13.6598C9.59418 14.0746 9.5 14.5282 9.5 15H12.5C12.5 14.9294 12.5138 14.8659 12.5374 14.809L9.76617 13.6598ZM9.5 15C9.5 15.4718 9.59418 15.9254 9.76617 16.3402L12.5374 15.191C12.5138 15.1341 12.5 15.0706 12.5 15H9.5ZM11.6598 18.2338C12.0746 18.4058 12.5282 18.5 13 18.5V15.5C12.9294 15.5 12.8659 15.4862 12.809 15.4626L11.6598 18.2338ZM13 18.5C13.4718 18.5 13.9254 18.4058 14.3402 18.2338L13.191 15.4626C13.1341 15.4862 13.0706 15.5 13 15.5V18.5ZM16.2338 16.3402C16.4058 15.9254 16.5 15.4718 16.5 15H13.5C13.5 15.0706 13.4862 15.1341 13.4626 15.191L16.2338 16.3402ZM21 15C21 14.4696 20.948 13.9483 20.8478 13.442L14.9619 14.6064C14.9866 14.7313 15 14.8626 15 15H21ZM19.6507 10.553C19.0675 9.68185 18.3182 8.93247 17.447 8.34927L14.1091 13.3351C14.3285 13.482 14.518 13.6715 14.6649 13.8909L19.6507 10.553ZM14.558 7.15221C14.0517 7.05204 13.5304 7 13 7V13C13.1374 13 13.2687 13.0134 13.3936 13.0381L14.558 7.15221ZM13 7C12.4696 7 11.9483 7.05204 11.442 7.15221L12.6064 13.0381C12.7313 13.0134 12.8626 13 13 13V7ZM8.55296 8.34927C7.68185 8.93247 6.93247 9.68185 6.34927 10.553L11.3351 13.8909C11.482 13.6715 11.6715 13.482 11.8909 13.3351L8.55296 8.34927ZM5.15221 13.442C5.05204 13.9483 5 14.4696 5 15H11C11 14.8626 11.0134 14.7313 11.0381 14.6064L5.15221 13.442ZM5 15C5 15.5304 5.05204 16.0517 5.15221 16.558L11.0381 15.3936C11.0134 15.2687 11 15.1374 11 15H5ZM6.34927 19.447C6.93247 20.3182 7.68185 21.0675 8.55296 21.6507L11.8909 16.6649C11.6715 16.518 11.482 16.3285 11.3351 16.1091L6.34927 19.447ZM11.442 22.8478C11.9483 22.948 12.4696 23 13 23V17C12.8626 17 12.7313 16.9866 12.6064 16.9619L11.442 22.8478ZM13 23C13.5304 23 14.0517 22.948 14.558 22.8478L13.3936 16.9619C13.2687 16.9866 13.1374 17 13 17V23ZM17.447 21.6507C18.3182 21.0675 19.0675 20.3182 19.6507 19.447L14.6649 16.1091C14.518 16.3285 14.3285 16.518 14.1091 16.6649L17.447 21.6507ZM20.8478 16.558C20.948 16.0517 21 15.5304 21 15H15C15 15.1374 14.9866 15.2687 14.9619 15.3936L20.8478 16.558ZM18 15C18 14.3276 17.8656 13.679 17.6194 13.0853L12.0771 15.3836C12.0264 15.2615 12 15.1301 12 15H18ZM14.9147 10.3806C14.321 10.1344 13.6724 10 13 10V16C12.8699 16 12.7385 15.9736 12.6164 15.9229L14.9147 10.3806ZM13 10C12.3276 10 11.679 10.1344 11.0853 10.3806L13.3836 15.9229C13.2615 15.9736 13.1301 16 13 16V10ZM8.38058 13.0853C8.13439 13.679 8 14.3276 8 15H14C14 15.1301 13.9736 15.2615 13.9229 15.3836L8.38058 13.0853ZM8 15C8 15.6724 8.13439 16.321 8.38058 16.9147L13.9229 14.6164C13.9736 14.7385 14 14.8699 14 15H8ZM11.0853 19.6194C11.679 19.8656 12.3276 20 13 20V14C13.1301 14 13.2615 14.0264 13.3836 14.0771L11.0853 19.6194ZM13 20C13.6724 20 14.321 19.8656 14.9147 19.6194L12.6164 14.0771C12.7385 14.0264 12.8699 14 13 14V20ZM17.6194 16.9147C17.8656 16.321 18 15.6724 18 15H12C12 14.8699 12.0264 14.7385 12.0771 14.6164L17.6194 16.9147Z" fill="white" mask="url(#path-3-outside-1_29_104)"/>
</svg>
