<svg width="32" height="32" viewBox="0 0 32 32" fill="none" xmlns="http://www.w3.org/2000/svg">
<rect x="3" y="3" width="26" height="26" rx="2" stroke="white" stroke-width="2"/>
<path fill-rule="evenodd" clip-rule="evenodd" d="M20.2283 24.7428C21.5666 23.5691 22.5269 22.025 22.9876 20.3056L14.2942 17.9762L16.6236 9.28288C14.9042 8.82217 13.0868 8.88167 11.4013 9.45384C9.71571 10.026 8.23766 11.0852 7.15405 12.4974C6.07044 13.9096 5.42992 15.6114 5.3135 17.3876C5.19708 19.1638 5.60999 20.9347 6.5 22.4762C7.39002 24.0178 8.71717 25.2608 10.3136 26.0481C11.9101 26.8354 13.7042 27.1316 15.469 26.8992C17.2338 26.6669 18.89 25.9164 20.2283 24.7428ZM9.76314 17.1281C10.4806 16.7139 10.7264 15.7965 10.3122 15.0791C9.89797 14.3617 8.98058 14.1158 8.26314 14.5301C7.5457 14.9443 7.29989 15.8617 7.7141 16.5791C8.12832 17.2965 9.0457 17.5423 9.76314 17.1281Z" fill="white"/>
<path d="M19 11.0705L26.8568 9.48296L27.8921 13.3467L20.2941 15.9002L19 11.0705Z" fill="white"/>
<path d="M19 14.5L16.75 15.75L15.5 18" stroke="white" stroke-dasharray="2 2"/>
</svg>
