<svg width="32" height="32" viewBox="0 0 32 32" fill="none" xmlns="http://www.w3.org/2000/svg">
<rect x="3" y="3" width="26" height="26" rx="2" stroke="white" stroke-width="2"/>
<path fill-rule="evenodd" clip-rule="evenodd" d="M17.7558 24.8271C19.5016 24.4798 21.1053 23.6226 22.364 22.364L16 16L22.364 9.63604C21.1053 8.37736 19.5016 7.5202 17.7558 7.17293C16.01 6.82566 14.2004 7.00389 12.5558 7.68508C10.9113 8.36627 9.50571 9.51982 8.51677 10.9999C7.52784 12.4799 7 14.22 7 16C7 17.78 7.52784 19.5201 8.51677 21.0001C9.50571 22.4802 10.9113 23.6337 12.5558 24.3149C14.2004 24.9961 16.01 25.1743 17.7558 24.8271ZM12.5 13C13.3284 13 14 12.3284 14 11.5C14 10.6716 13.3284 10 12.5 10C11.6716 10 11 10.6716 11 11.5C11 12.3284 11.6716 13 12.5 13Z" fill="white"/>
<rect x="22" y="15" width="3" height="3" fill="white"/>
</svg>
