<svg width="32" height="32" viewBox="0 0 32 32" fill="none" xmlns="http://www.w3.org/2000/svg">
<path fill-rule="evenodd" clip-rule="evenodd" d="M23.7639 6.0854L22.234 11.4092L19.3715 13.007L13.0143 19.3643L15.5436 21.8936L14.2789 23.1583L11.7496 20.629L11.1173 19.9966L7.78644 23.3275C7.94578 23.9241 7.7914 24.5872 7.3233 25.0553C6.62485 25.7537 5.49243 25.7537 4.79398 25.0553C4.09553 24.3568 4.09553 23.2244 4.79398 22.526C5.26208 22.0578 5.92511 21.9035 6.52178 22.0628L9.85262 18.732L9.22029 18.0996L6.69097 15.5703L7.95563 14.3057L10.4849 16.835L16.8422 10.4777L18.4401 7.61523L23.7639 6.0854Z" fill="white"/>
<path fill-rule="evenodd" clip-rule="evenodd" d="M8.23616 5.95058L13.56 7.48041L15.1578 10.3429L21.5151 16.7002L24.0444 14.1709L25.309 15.4355L22.7797 17.9648L22.1474 18.5972L25.4782 21.928C26.0749 21.7687 26.7379 21.923 27.206 22.3911C27.9045 23.0896 27.9045 24.222 27.206 24.9205C26.5076 25.6189 25.3752 25.6189 24.6767 24.9205C24.2086 24.4523 24.0542 23.7893 24.2136 23.1926L20.8827 19.8618L20.2504 20.4942L17.7211 23.0235L16.4564 21.7588L18.9858 19.2295L12.6285 12.8722L9.76599 11.2744L8.23616 5.95058Z" fill="white"/>
<rect x="3" y="3" width="26" height="26" rx="2" stroke="white" stroke-width="2"/>
</svg>
