<svg width="32" height="32" viewBox="0 0 32 32" fill="none" xmlns="http://www.w3.org/2000/svg">
<path d="M24.9026 10.935L25.8597 19.2305C25.7765 19.2207 25.6906 19.2107 25.6026 19.2008C24.7359 19.1028 23.6201 19 22.7222 19C21.809 19 21.0978 19.1064 20.4504 19.2032L20.4355 19.2055C19.7867 19.3025 19.2017 19.3889 18.4445 19.3889C17.6872 19.3889 17.1022 19.3025 16.4535 19.2055L16.4386 19.2032C15.7911 19.1064 15.0799 19 14.1667 19C13.2688 19 12.153 19.1028 11.2864 19.2008C11.148 19.2164 11.0149 19.2321 10.8889 19.2473V10.3737C11.0763 10.3501 11.2864 10.3246 11.5111 10.2992C12.364 10.2028 13.3871 10.1111 14.1667 10.1111C14.9239 10.1111 15.5089 10.1975 16.1577 10.2946L16.1726 10.2968C16.82 10.3936 17.5313 10.5 18.4445 10.5C19.2757 10.5 19.9667 10.3553 20.5302 10.2372C20.6196 10.2185 20.7058 10.2004 20.7889 10.1837C21.3994 10.0609 21.9095 9.99074 22.5597 10.0978C23.0736 10.1825 23.7583 10.4325 24.3633 10.6924C24.5647 10.7789 24.7484 10.8625 24.9026 10.935Z" stroke="white" stroke-width="2"/>
<circle cx="8.33333" cy="6.77779" r="2.33333" fill="white"/>
<line x1="8.55554" y1="8.33335" x2="8.55554" y2="24.6667" stroke="white" stroke-width="2"/>
<path d="M6 25.8889C6 24.7843 6.89543 23.8889 8 23.8889H8.66667C9.77124 23.8889 10.6667 24.7843 10.6667 25.8889V27H6V25.8889Z" fill="white"/>
<rect x="11" y="10" width="3" height="3" fill="white"/>
<rect x="14" y="13" width="3" height="3" fill="white"/>
<rect x="17" y="16" width="3" height="3" fill="white"/>
<rect x="17" y="10" width="3" height="3" fill="white"/>
<rect x="20" y="13" width="3" height="3" fill="white"/>
<rect x="23" y="10" width="2" height="3" fill="white"/>
<rect x="23" y="16" width="3" height="3" fill="white"/>
<rect x="11" y="16" width="3" height="3" fill="white"/>
<rect x="3" y="3" width="26" height="26" rx="2" stroke="white" stroke-width="2"/>
</svg>
