<svg width="32" height="32" viewBox="0 0 32 32" fill="none" xmlns="http://www.w3.org/2000/svg">
<rect x="3" y="3" width="26" height="26" rx="2" stroke="white" stroke-width="2"/>
<mask id="path-2-outside-1_111_2" maskUnits="userSpaceOnUse" x="16" y="6" width="12" height="21" fill="black">
<rect fill="white" x="16" y="6" width="12" height="21"/>
<path fill-rule="evenodd" clip-rule="evenodd" d="M19.0664 8C18.4774 8 18 8.47743 18 9.06637V21.1327C18 22.164 18.836 23 19.8673 23C20.1609 23 20.4372 22.9327 20.6825 22.8135L23.8296 23.6567L24.7306 20.2941L21.5247 19.4351L20.1234 8.92544C20.0528 8.39566 19.6008 8 19.0664 8Z"/>
</mask>
<path d="M20.6825 22.8135L21.2001 20.8816L20.4793 20.6885L19.8082 21.0147L20.6825 22.8135ZM23.8296 23.6567L23.312 25.5886L25.2438 26.1062L25.7615 24.1744L23.8296 23.6567ZM24.7306 20.2941L26.6625 20.8117L27.1801 18.8799L25.2483 18.3622L24.7306 20.2941ZM21.5247 19.4351L19.5422 19.6994L19.7185 21.0217L21.007 21.3669L21.5247 19.4351ZM20.1234 8.92544L22.1058 8.66111V8.66111L20.1234 8.92544ZM20 9.06637C20 9.582 19.582 10 19.0664 10V6C17.3729 6 16 7.37286 16 9.06637H20ZM20 21.1327V9.06637H16V21.1327H20ZM19.8673 21C19.9406 21 20 21.0594 20 21.1327H16C16 23.2686 17.7314 25 19.8673 25V21ZM19.8082 21.0147C19.8181 21.0099 19.8289 21.006 19.84 21.0034C19.8514 21.0008 19.8609 21 19.8673 21V25C20.47 25 21.0446 24.8612 21.5568 24.6123L19.8082 21.0147ZM24.3472 21.7249L21.2001 20.8816L20.1649 24.7453L23.312 25.5886L24.3472 21.7249ZM22.7988 19.7765L21.8978 23.1391L25.7615 24.1744L26.6625 20.8117L22.7988 19.7765ZM21.007 21.3669L24.213 22.2259L25.2483 18.3622L22.0423 17.5032L21.007 21.3669ZM18.1409 9.18976L19.5422 19.6994L23.5071 19.1707L22.1058 8.66111L18.1409 9.18976ZM19.0664 10C18.5984 10 18.2028 9.6536 18.1409 9.18976L22.1058 8.66111C21.9027 7.13772 20.6032 6 19.0664 6V10Z" fill="white" mask="url(#path-2-outside-1_111_2)"/>
<mask id="path-4-outside-2_111_2" maskUnits="userSpaceOnUse" x="5.73065" y="6" width="12" height="21" fill="black">
<rect fill="white" x="5.73065" y="6" width="12" height="21"/>
<path fill-rule="evenodd" clip-rule="evenodd" d="M14.6643 8C15.2532 8 15.7307 8.47743 15.7307 9.06637V21.1327C15.7307 22.164 14.8947 23 13.8634 23C13.5697 23 13.2935 22.9327 13.0482 22.8135L9.90104 23.6567L9.00002 20.2941L12.206 19.4351L13.6073 8.92544C13.6779 8.39566 14.1298 8 14.6643 8Z"/>
</mask>
<path d="M13.0482 22.8135L12.5305 20.8816L13.2513 20.6885L13.9225 21.0147L13.0482 22.8135ZM9.90104 23.6567L10.4187 25.5886L8.48683 26.1062L7.96919 24.1744L9.90104 23.6567ZM9.00002 20.2941L7.06817 20.8117L6.55053 18.8799L8.48238 18.3622L9.00002 20.2941ZM12.206 19.4351L14.1884 19.6994L14.0121 21.0217L12.7236 21.3669L12.206 19.4351ZM13.6073 8.92544L11.6248 8.66111V8.66111L13.6073 8.92544ZM13.7307 9.06637C13.7307 9.582 14.1487 10 14.6643 10V6C16.3578 6 17.7307 7.37286 17.7307 9.06637H13.7307ZM13.7307 21.1327V9.06637H17.7307V21.1327H13.7307ZM13.8634 21C13.7901 21 13.7307 21.0594 13.7307 21.1327H17.7307C17.7307 23.2686 15.9992 25 13.8634 25V21ZM13.9225 21.0147C13.9125 21.0099 13.9017 21.006 13.8906 21.0034C13.8793 21.0008 13.8698 21 13.8634 21V25C13.2607 25 12.6861 24.8612 12.1739 24.6123L13.9225 21.0147ZM9.3834 21.7249L12.5305 20.8816L13.5658 24.7453L10.4187 25.5886L9.3834 21.7249ZM10.9319 19.7765L11.8329 23.1391L7.96919 24.1744L7.06817 20.8117L10.9319 19.7765ZM12.7236 21.3669L9.51766 22.2259L8.48238 18.3622L11.6883 17.5032L12.7236 21.3669ZM15.5897 9.18976L14.1884 19.6994L10.2235 19.1707L11.6248 8.66111L15.5897 9.18976ZM14.6643 10C15.1322 10 15.5279 9.6536 15.5897 9.18976L11.6248 8.66111C11.8279 7.13772 13.1274 6 14.6643 6V10Z" fill="white" mask="url(#path-4-outside-2_111_2)"/>
</svg>
