<svg width="32" height="32" viewBox="0 0 32 32" fill="none" xmlns="http://www.w3.org/2000/svg">
<rect x="3" y="3" width="26" height="26" rx="2" stroke="white" stroke-width="2"/>
<path fill-rule="evenodd" clip-rule="evenodd" d="M5 7C5 5.89543 5.89543 5 7 5H16C17.1046 5 18 5.89543 18 7V16C18 17.1046 17.1046 18 16 18H7C5.89543 18 5 17.1046 5 16V7ZM15.725 7.925C15.725 8.64297 15.143 9.225 14.425 9.225C13.707 9.225 13.125 8.64297 13.125 7.925C13.125 7.20703 13.707 6.625 14.425 6.625C15.143 6.625 15.725 7.20703 15.725 7.925ZM9.55 9.225C10.268 9.225 10.85 8.64297 10.85 7.925C10.85 7.20703 10.268 6.625 9.55 6.625C8.83203 6.625 8.25 7.20703 8.25 7.925C8.25 8.64297 8.83203 9.225 9.55 9.225ZM15.725 14.425C15.725 15.143 15.143 15.725 14.425 15.725C13.707 15.725 13.125 15.143 13.125 14.425C13.125 13.707 13.707 13.125 14.425 13.125C15.143 13.125 15.725 13.707 15.725 14.425ZM9.55 15.725C10.268 15.725 10.85 15.143 10.85 14.425C10.85 13.707 10.268 13.125 9.55 13.125C8.83203 13.125 8.25 13.707 8.25 14.425C8.25 15.143 8.83203 15.725 9.55 15.725ZM15.725 11.175C15.725 11.893 15.143 12.475 14.425 12.475C13.707 12.475 13.125 11.893 13.125 11.175C13.125 10.457 13.707 9.875 14.425 9.875C15.143 9.875 15.725 10.457 15.725 11.175ZM9.55 12.475C10.268 12.475 10.85 11.893 10.85 11.175C10.85 10.457 10.268 9.875 9.55 9.875C8.83203 9.875 8.25 10.457 8.25 11.175C8.25 11.893 8.83203 12.475 9.55 12.475Z" fill="white"/>
<path fill-rule="evenodd" clip-rule="evenodd" d="M17.5 12.7321C18.0523 11.7755 19.2755 11.4477 20.2321 12L28.0263 16.5C28.9829 17.0523 29.3106 18.2755 28.7583 19.2321L24.2583 27.0263C23.706 27.9829 22.4829 28.3106 21.5263 27.7583L13.7321 23.2583C12.7755 22.706 12.4477 21.4829 13 20.5263L17.5 12.7321ZM26.3256 18.8956C25.9666 19.5174 25.1716 19.7304 24.5498 19.3715C23.928 19.0125 23.715 18.2174 24.074 17.5956C24.4329 16.9738 25.228 16.7608 25.8498 17.1198C26.4716 17.4788 26.6846 18.2738 26.3256 18.8956ZM20.3279 16.934C20.9497 17.2929 21.7448 17.0799 22.1037 16.4581C22.4627 15.8363 22.2497 15.0413 21.6279 14.6823C21.0061 14.3233 20.2111 14.5363 19.8521 15.1581C19.4931 15.7799 19.7061 16.575 20.3279 16.934ZM23.0756 24.5248C22.7166 25.1466 21.9216 25.3596 21.2998 25.0006C20.678 24.6416 20.465 23.8466 20.824 23.2248C21.1829 22.603 21.978 22.39 22.5998 22.749C23.2216 23.1079 23.4346 23.903 23.0756 24.5248ZM17.0779 22.5631C17.6997 22.9221 18.4948 22.7091 18.8537 22.0873C19.2127 21.4655 18.9997 20.6704 18.3779 20.3115C17.7561 19.9525 16.9611 20.1655 16.6021 20.7873C16.2431 21.4091 16.4561 22.2041 17.0779 22.5631ZM24.7006 21.7102C24.3416 22.332 23.5466 22.545 22.9248 22.186C22.303 21.8271 22.09 21.032 22.449 20.4102C22.8079 19.7884 23.603 19.5754 24.2248 19.9344C24.8466 20.2934 25.0596 21.0884 24.7006 21.7102ZM18.7029 19.7485C19.3247 20.1075 20.1198 19.8945 20.4787 19.2727C20.8377 18.6509 20.6247 17.8559 20.0029 17.4969C19.3811 17.1379 18.5861 17.3509 18.2271 17.9727C17.8681 18.5945 18.0811 19.3896 18.7029 19.7485Z" fill="white"/>
</svg>
