<svg width="32" height="32" viewBox="0 0 32 32" fill="none" xmlns="http://www.w3.org/2000/svg">
<rect x="3" y="3" width="26" height="26" rx="2" stroke="white" stroke-width="2"/>
<circle cx="13" cy="9" r="2" fill="white"/>
<line x1="13" y1="12" x2="13" y2="18" stroke="white" stroke-width="2"/>
<line x1="12.9285" y1="16.6286" x2="16.9285" y2="26.6286" stroke="white" stroke-width="2"/>
<line y1="-1" x2="10.7703" y2="-1" transform="matrix(-0.371391 0.928477 0.928477 0.371391 14 17)" stroke="white" stroke-width="2"/>
<line x1="12.8321" y1="12.5547" x2="8.83205" y2="18.5547" stroke="white" stroke-width="2"/>
<line x1="13.4916" y1="13.1389" x2="17.8287" y2="10.5782" stroke="white" stroke-width="2"/>
<line x1="17.1186" y1="11.2044" x2="15.1186" y2="7.47235" stroke="white" stroke-width="2"/>
<path d="M21.0486 10.5274L21.0049 8.97515C21.1852 8.98207 21.3677 8.98126 21.5522 8.97272C21.7444 8.96625 21.931 8.94998 22.1119 8.92392C22.2928 8.89785 22.4575 8.85502 22.606 8.79542C22.7622 8.73789 22.8916 8.65662 22.9943 8.55162C23.1047 8.44869 23.1796 8.32381 23.2189 8.17699C23.2458 8.07653 23.2444 7.98918 23.2146 7.91494C23.1925 7.84277 23.147 7.78087 23.078 7.72926C23.0111 7.66992 22.9235 7.62575 22.8153 7.59676C22.599 7.53879 22.3542 7.55602 22.0809 7.64845C21.8154 7.74295 21.5137 7.97268 21.1757 8.33764L20.0147 6.41151C20.5269 5.95245 21.0707 5.6385 21.646 5.46965C22.2291 5.30286 22.7949 5.29298 23.3435 5.43999C23.869 5.58078 24.3153 5.81631 24.6823 6.14655C25.0514 6.46907 25.3099 6.84892 25.4578 7.28609C25.6077 7.71554 25.6216 8.15822 25.4995 8.61414C25.4167 8.92323 25.2681 9.21473 25.054 9.48863C24.8496 9.75687 24.5963 9.9913 24.294 10.1919C23.9995 10.3946 23.6719 10.5511 23.311 10.6615C22.9502 10.7718 22.5708 10.8276 22.173 10.8286L22.1266 10.8162L21.0486 10.5274ZM20.0856 12.4061C20.1767 12.0661 20.3555 11.8159 20.6221 11.6554C20.8965 11.497 21.2037 11.4634 21.5437 11.5545C21.9069 11.6518 22.162 11.8278 22.3091 12.0826C22.4561 12.3373 22.48 12.6502 22.3806 13.0211C22.2895 13.3611 22.1068 13.6103 21.8324 13.7687C21.5658 13.9291 21.2625 13.9638 20.9225 13.8727C20.5593 13.7754 20.3042 13.5994 20.1571 13.3446C20.01 13.0899 19.9862 12.777 20.0856 12.4061Z" fill="white"/>
</svg>
