<svg width="32" height="32" viewBox="0 0 32 32" fill="none" xmlns="http://www.w3.org/2000/svg">
<rect x="3" y="3" width="26" height="26" rx="2" stroke="white" stroke-width="2"/>
<mask id="path-2-outside-1_36_344" maskUnits="userSpaceOnUse" x="2.99369" y="10.0524" width="26.288" height="17.8028" fill="black">
<rect fill="white" x="2.99369" y="10.0524" width="26.288" height="17.8028"/>
<path fill-rule="evenodd" clip-rule="evenodd" d="M14.9093 18.1258L17.9677 17.3471C18.5321 17.2034 18.8731 16.6294 18.7294 16.065C18.5857 15.5007 18.0117 15.1596 17.4474 15.3033L12.2095 16.637C11.8114 16.5783 11.3913 16.6484 11.0157 16.8653L9.08389 17.9806C8.82598 18.1295 8.61748 18.3311 8.46415 18.564L7.0679 18.564C6.21996 18.564 5.53257 19.2514 5.53257 20.0993C5.53257 20.9473 6.21996 21.6347 7.0679 21.6347L9.92842 21.6347C10.1608 21.6347 10.3812 21.583 10.5786 21.4906L16.5168 23.1928C16.7763 23.5938 17.2735 23.801 17.7598 23.6707L20.0365 23.0606L24.6133 24.287C25.1468 24.4299 25.6951 24.1133 25.8381 23.5799C25.981 23.0464 25.6644 22.4981 25.131 22.3551L23.9002 22.0253L25.7587 21.5274C26.3624 21.3656 26.7206 20.7451 26.5589 20.1415C26.3971 19.5378 25.7766 19.1796 25.173 19.3413L19.5282 20.8539L19.1155 20.7433L19.122 20.7295L15.7166 19.817C15.6969 19.5948 15.6296 19.3734 15.5107 19.1675L14.9093 18.1258Z"/>
</mask>
<path d="M14.9093 18.1258L14.6626 17.1568L13.3832 17.4825L14.0433 18.6258L14.9093 18.1258ZM17.9677 17.3471L17.721 16.378L17.721 16.378L17.9677 17.3471ZM18.7294 16.065L19.6985 15.8183L19.6985 15.8183L18.7294 16.065ZM17.4474 15.3033L17.2006 14.3343L17.2006 14.3343L17.4474 15.3033ZM12.2095 16.637L12.0637 17.6263L12.262 17.6555L12.4563 17.606L12.2095 16.637ZM11.0157 16.8653L10.5157 15.9993L10.5157 15.9993L11.0157 16.8653ZM9.08389 17.9806L9.58389 18.8467L9.58389 18.8467L9.08389 17.9806ZM8.46415 18.564L8.46415 19.564L9.00299 19.564L9.29934 19.114L8.46415 18.564ZM7.0679 18.564L7.0679 17.564L7.0679 17.564L7.0679 18.564ZM5.53257 20.0993L6.53257 20.0993L6.53257 20.0993L5.53257 20.0993ZM7.0679 21.6347L7.0679 22.6347L7.0679 22.6347L7.0679 21.6347ZM9.92842 21.6347L9.92842 22.6347L9.92842 22.6347L9.92842 21.6347ZM10.5786 21.4906L10.8542 20.5293L10.494 20.4261L10.1546 20.5849L10.5786 21.4906ZM16.5168 23.1928L17.3564 22.6495L17.1527 22.3348L16.7923 22.2315L16.5168 23.1928ZM17.7598 23.6707L18.0186 24.6366L18.0186 24.6366L17.7598 23.6707ZM20.0365 23.0606L20.2953 22.0947L20.0365 22.0253L19.7777 22.0947L20.0365 23.0606ZM24.6133 24.287L24.8721 23.321L24.6133 24.287ZM25.131 22.3551L24.8721 23.321L25.131 22.3551ZM23.9002 22.0253L23.6414 21.0594L20.0365 22.0253L23.6414 22.9913L23.9002 22.0253ZM25.7587 21.5274L26.0175 22.4933L25.7587 21.5274ZM26.5589 20.1415L27.5248 19.8827L27.5248 19.8827L26.5589 20.1415ZM25.173 19.3413L25.4318 20.3073L25.4318 20.3073L25.173 19.3413ZM19.5282 20.8539L19.2693 21.8198L19.5282 21.8891L19.787 21.8198L19.5282 20.8539ZM19.1155 20.7433L18.2119 20.3149L17.6981 21.3988L18.8567 21.7092L19.1155 20.7433ZM19.122 20.7295L20.0256 21.1578L20.5394 20.074L19.3808 19.7636L19.122 20.7295ZM15.7166 19.817L14.7205 19.9053L14.7823 20.6019L15.4578 20.7829L15.7166 19.817ZM15.5107 19.1675L16.3768 18.6675L16.3768 18.6675L15.5107 19.1675ZM15.1561 19.0949L18.2145 18.3162L17.721 16.378L14.6626 17.1568L15.1561 19.0949ZM18.2145 18.3162C19.3141 18.0362 19.9785 16.9179 19.6985 15.8183L17.7603 16.3118C17.7678 16.341 17.7502 16.3706 17.721 16.378L18.2145 18.3162ZM19.6985 15.8183C19.4185 14.7187 18.3002 14.0543 17.2006 14.3343L17.6941 16.2724C17.7233 16.265 17.7529 16.2826 17.7603 16.3118L19.6985 15.8183ZM17.2006 14.3343L11.9628 15.6679L12.4563 17.606L17.6941 16.2724L17.2006 14.3343ZM12.3554 15.6477C11.7422 15.5572 11.0934 15.6657 10.5157 15.9993L11.5157 17.7313C11.6892 17.6312 11.8805 17.5993 12.0637 17.6263L12.3554 15.6477ZM10.5157 15.9993L8.58389 17.1146L9.58389 18.8467L11.5157 17.7313L10.5157 15.9993ZM8.58389 17.1146C8.18815 17.3431 7.86596 17.6541 7.62895 18.014L9.29934 19.114C9.36901 19.0082 9.46381 18.916 9.58389 18.8467L8.58389 17.1146ZM8.46415 17.564L7.0679 17.564L7.0679 19.564L8.46415 19.564L8.46415 17.564ZM7.0679 17.564C5.66767 17.564 4.53257 18.6991 4.53257 20.0993L6.53257 20.0993C6.53257 19.8037 6.77224 19.564 7.0679 19.564L7.0679 17.564ZM4.53257 20.0993C4.53257 21.4996 5.66767 22.6347 7.0679 22.6347L7.0679 20.6347C6.77224 20.6347 6.53257 20.395 6.53257 20.0993L4.53257 20.0993ZM7.0679 22.6347L9.92842 22.6347L9.92842 20.6347L7.0679 20.6347L7.0679 22.6347ZM9.92842 22.6347C10.3104 22.6347 10.6752 22.5495 11.0026 22.3963L10.1546 20.5849C10.0872 20.6165 10.0113 20.6347 9.92842 20.6347L9.92842 22.6347ZM10.3031 22.4519L16.2413 24.154L16.7923 22.2315L10.8542 20.5293L10.3031 22.4519ZM15.6772 23.736C16.1655 24.4906 17.1011 24.8824 18.0186 24.6366L17.501 22.7047C17.4459 22.7195 17.3871 22.697 17.3564 22.6495L15.6772 23.736ZM18.0186 24.6366L20.2953 24.0265L19.7777 22.0947L17.501 22.7047L18.0186 24.6366ZM19.7777 24.0265L24.3545 25.2529L24.8721 23.321L20.2953 22.0947L19.7777 24.0265ZM24.3545 25.2529C25.4214 25.5388 26.5181 24.9056 26.804 23.8387L24.8721 23.321L24.8721 23.321L24.3545 25.2529ZM26.804 23.8387C27.0899 22.7718 26.4567 21.6751 25.3898 21.3892L24.8721 23.321L26.804 23.8387ZM25.3898 21.3892L24.159 21.0594L23.6414 22.9913L24.8721 23.321L25.3898 21.3892ZM24.159 22.9913L26.0175 22.4933L25.4999 20.5614L23.6414 21.0594L24.159 22.9913ZM26.0175 22.4933C27.1547 22.1886 27.8295 21.0198 27.5248 19.8827L25.5929 20.4003C25.6117 20.4705 25.5701 20.5426 25.4999 20.5614L26.0175 22.4933ZM27.5248 19.8827C27.2201 18.7455 26.0513 18.0707 24.9142 18.3754L25.4318 20.3073C25.502 20.2884 25.5741 20.3301 25.5929 20.4003L27.5248 19.8827ZM24.9142 18.3754L19.2693 19.8879L19.787 21.8198L25.4318 20.3073L24.9142 18.3754ZM19.787 19.8879L19.3743 19.7773L18.8567 21.7092L19.2693 21.8198L19.787 19.8879ZM20.0191 21.1716L20.0256 21.1578L18.2184 20.3011L18.2119 20.3149L20.0191 21.1716ZM19.3808 19.7636L15.9754 18.8511L15.4578 20.7829L18.8632 21.6954L19.3808 19.7636ZM14.6447 19.6675C14.6893 19.7447 14.7134 19.8253 14.7205 19.9053L16.7127 19.7287C16.6804 19.3644 16.5699 19.002 16.3768 18.6675L14.6447 19.6675ZM14.0433 18.6258L14.6447 19.6675L16.3768 18.6675L15.7754 17.6258L14.0433 18.6258Z" fill="white" mask="url(#path-2-outside-1_36_344)"/>
<path d="M17 13L11.8038 10L22.1962 10L17 13Z" fill="white"/>
<rect x="16" y="7" width="2" height="3" fill="white"/>
</svg>
