<svg width="32" height="32" viewBox="0 0 32 32" fill="none" xmlns="http://www.w3.org/2000/svg">
<rect x="3" y="3" width="26" height="26" rx="2" stroke="white" stroke-width="2"/>
<mask id="path-2-outside-1_25_29" maskUnits="userSpaceOnUse" x="0.691938" y="2.26795" width="32.0167" height="29.4545" fill="black">
<rect fill="white" x="0.691938" y="2.26795" width="32.0167" height="29.4545"/>
<path fill-rule="evenodd" clip-rule="evenodd" d="M16.6053 14.0048L25.0448 18.8774C25.5231 19.1535 25.687 19.7651 25.4108 20.2434C25.1347 20.7217 24.5231 20.8856 24.0448 20.6095L17.7892 16.9978L17.3407 17.6957L25.2498 22.262C25.7281 22.5382 25.892 23.1498 25.6158 23.6281C25.3397 24.1064 24.7281 24.2702 24.2498 23.9941L16.2582 19.3801L15.5913 20.4178L22.0438 24.1431C22.5221 24.4193 22.686 25.0309 22.4099 25.5092C22.1337 25.9874 21.5221 26.1513 21.0438 25.8752L14.5089 22.1022L14.1852 22.6059L18.3231 24.9949C18.8014 25.2711 18.9652 25.8827 18.6891 26.361C18.413 26.8393 17.8014 27.0031 17.3231 26.727L7.47431 21.0408C7.3787 20.9856 7.29565 20.917 7.22616 20.8387L3.28893 18.8916L7.22106 11.4137L8.60237 11.5549C8.84237 11.1797 9.21773 10.8896 9.68178 10.7653L12.8313 9.92135C13.2503 9.80909 13.6742 9.85001 14.0436 10.0098L19.4481 10.0773C20.0305 10.0845 20.4967 10.5625 20.4894 11.1448C20.4821 11.7272 20.0042 12.1933 19.4218 12.1861L16.2661 12.1467L16.5774 13.3085C16.6404 13.5436 16.6469 13.7805 16.6053 14.0048Z"/>
</mask>
<path d="M16.6053 14.0048L15.6221 13.8224L15.4931 14.5174L16.1053 14.8709L16.6053 14.0048ZM24.0448 20.6095L23.5448 21.4755L24.0448 20.6095ZM17.7892 16.9978L18.2892 16.1317L17.4634 15.655L16.9479 16.4571L17.7892 16.9978ZM17.3407 17.6957L16.4994 17.1551L15.9324 18.0373L16.8407 18.5617L17.3407 17.6957ZM16.2582 19.3801L16.7582 18.5141L15.9324 18.0373L15.4169 18.8395L16.2582 19.3801ZM15.5913 20.4178L14.7501 19.8772L14.1831 20.7594L15.0913 21.2838L15.5913 20.4178ZM14.5089 22.1022L15.0089 21.2362L14.1831 20.7594L13.6676 21.5616L14.5089 22.1022ZM14.1852 22.6059L13.3439 22.0653L12.7769 22.9476L13.6852 23.4719L14.1852 22.6059ZM7.22616 20.8387L7.97402 20.1749L7.84443 20.0289L7.66946 19.9423L7.22616 20.8387ZM3.28893 18.8916L2.40384 18.4262L1.92673 19.3335L2.84563 19.7879L3.28893 18.8916ZM7.22106 11.4137L7.32275 10.4188L6.65048 10.3501L6.33596 10.9483L7.22106 11.4137ZM8.60237 11.5549L8.50067 12.5497L9.11299 12.6123L9.44471 12.0938L8.60237 11.5549ZM9.68178 10.7653L9.42296 9.79935L9.42296 9.79935L9.68178 10.7653ZM12.8313 9.92135L12.5725 8.95542L12.5725 8.95543L12.8313 9.92135ZM14.0436 10.0098L13.6467 10.9276L13.8307 11.0072L14.0312 11.0097L14.0436 10.0098ZM19.4481 10.0773L19.4606 9.07733L19.4606 9.07733L19.4481 10.0773ZM20.4894 11.1448L21.4893 11.1573L21.4893 11.1573L20.4894 11.1448ZM19.4218 12.1861L19.4343 11.1862L19.4218 12.1861ZM16.2661 12.1467L16.2786 11.1468L14.9585 11.1303L15.3002 12.4055L16.2661 12.1467ZM16.5774 13.3085L17.5433 13.0497L17.5433 13.0497L16.5774 13.3085ZM16.1053 14.8709L24.5448 19.7434L25.5448 18.0114L17.1053 13.1388L16.1053 14.8709ZM24.5448 19.7434L24.5448 19.7434L26.2769 20.7434C26.8291 19.7868 26.5014 18.5637 25.5448 18.0114L24.5448 19.7434ZM24.5448 19.7434L24.5448 19.7434L23.5448 21.4755C24.5014 22.0278 25.7246 21.7 26.2769 20.7434L24.5448 19.7434ZM24.5448 19.7434L18.2892 16.1317L17.2892 17.8638L23.5448 21.4755L24.5448 19.7434ZM16.9479 16.4571L16.4994 17.1551L18.1819 18.2363L18.6304 17.5384L16.9479 16.4571ZM16.8407 18.5617L24.7498 23.1281L25.7498 21.396L17.8407 16.8297L16.8407 18.5617ZM24.7498 23.1281L26.4819 24.1281C27.0341 23.1715 26.7064 21.9483 25.7498 21.396L24.7498 23.1281ZM24.7498 23.1281L24.7498 23.1281L23.7498 24.8601C24.7064 25.4124 25.9296 25.0846 26.4819 24.1281L24.7498 23.1281ZM24.7498 23.1281L16.7582 18.5141L15.7582 20.2461L23.7498 24.8601L24.7498 23.1281ZM15.4169 18.8395L14.7501 19.8772L16.4326 20.9584L17.0994 19.9208L15.4169 18.8395ZM15.0913 21.2838L21.5438 25.0092L22.5438 23.2771L16.0913 19.5518L15.0913 21.2838ZM21.5438 25.0092L21.5438 25.0092L23.2759 26.0092C23.8282 25.0526 23.5004 23.8294 22.5438 23.2771L21.5438 25.0092ZM21.5438 25.0092L21.5438 25.0092L20.5438 26.7412C21.5004 27.2935 22.7236 26.9657 23.2759 26.0092L21.5438 25.0092ZM21.5438 25.0092L15.0089 21.2362L14.0089 22.9682L20.5438 26.7412L21.5438 25.0092ZM13.6676 21.5616L13.3439 22.0653L15.0264 23.1465L15.3501 22.6428L13.6676 21.5616ZM13.6852 23.4719L17.8231 25.861L18.8231 24.1289L14.6852 21.7399L13.6852 23.4719ZM17.8231 25.861L19.5551 26.861C20.1074 25.9044 19.7797 24.6812 18.8231 24.1289L17.8231 25.861ZM17.8231 25.861L16.8231 27.593C17.7797 28.1453 19.0028 27.8176 19.5551 26.861L17.8231 25.861ZM17.8231 25.861L7.97431 20.1748L6.97431 21.9068L16.8231 27.593L17.8231 25.861ZM7.97431 20.1748L7.97402 20.1749L6.47831 21.5026C6.61813 21.6601 6.7846 21.7973 6.97431 21.9068L7.97431 20.1748ZM7.66946 19.9423L3.73223 17.9952L2.84563 19.7879L6.78286 21.7351L7.66946 19.9423ZM4.17403 19.357L8.10615 11.8791L6.33596 10.9483L2.40384 18.4262L4.17403 19.357ZM7.11936 12.4085L8.50067 12.5497L8.70406 10.5601L7.32275 10.4188L7.11936 12.4085ZM9.44471 12.0938C9.55555 11.9206 9.72679 11.7885 9.9406 11.7312L9.42296 9.79935C8.70867 9.99074 8.1292 10.4389 7.76002 11.0159L9.44471 12.0938ZM9.9406 11.7312L13.0902 10.8873L12.5725 8.95543L9.42296 9.79935L9.9406 11.7312ZM13.0902 10.8873C13.2837 10.8354 13.4768 10.8541 13.6467 10.9276L14.4406 9.09196C13.8717 8.8459 13.217 8.78275 12.5725 8.95542L13.0902 10.8873ZM14.0312 11.0097L19.4357 11.0772L19.4606 9.07733L14.0561 9.00987L14.0312 11.0097ZM19.4357 11.0772C19.4658 11.0776 19.4898 11.1023 19.4895 11.1323L21.4893 11.1573C21.5035 10.0227 20.5952 9.0915 19.4606 9.07733L19.4357 11.0772ZM19.4895 11.1323C19.4891 11.1624 19.4644 11.1865 19.4343 11.1862L19.4093 13.186C20.5439 13.2002 21.4752 12.2919 21.4893 11.1573L19.4895 11.1323ZM19.4343 11.1862L16.2786 11.1468L16.2536 13.1466L19.4093 13.186L19.4343 11.1862ZM15.3002 12.4055L15.6115 13.5673L17.5433 13.0497L17.232 11.8879L15.3002 12.4055ZM15.6115 13.5673C15.6351 13.6554 15.6371 13.7415 15.6221 13.8224L17.5885 14.1873C17.6568 13.8195 17.6457 13.4318 17.5433 13.0497L15.6115 13.5673Z" fill="white" mask="url(#path-2-outside-1_25_29)"/>
<path d="M14.2017 14.3979C14.2017 14.3979 13.0337 15.608 12.0857 16.063C10.6829 16.7363 8.12986 16.5394 8.12986 16.5394" stroke="white"/>
<line x1="12.1516" y1="15.7808" x2="12.3837" y2="19.3789" stroke="white"/>
<path d="M26.1651 10.25L25.7901 15.2296L22.0401 13.0646L26.1651 10.25Z" fill="white"/>
</svg>
