<svg width="32" height="32" viewBox="0 0 32 32" fill="none" xmlns="http://www.w3.org/2000/svg">
<rect x="3" y="3" width="26" height="26" rx="2" stroke="white" stroke-width="2"/>
<mask id="path-2-outside-1_111_13" maskUnits="userSpaceOnUse" x="7.18631" y="5.2657" width="19.2583" height="20.3564" fill="black">
<rect fill="white" x="7.18631" y="5.2657" width="19.2583" height="20.3564"/>
<path fill-rule="evenodd" clip-rule="evenodd" d="M17.9561 16.6889L20.7961 11.7698C20.9571 11.4911 20.8616 11.1346 20.5828 10.9736C20.304 10.8127 19.9475 10.9082 19.7866 11.187L17.6815 14.8332L17.2517 14.6116L19.9132 10.0016C20.0742 9.72286 19.9787 9.36639 19.6999 9.20543C19.4211 9.04448 19.0646 9.14 18.9037 9.41878L16.2144 14.0768L15.5753 13.7473L17.7467 9.98643C17.9077 9.70765 17.8121 9.35118 17.5334 9.19022C17.2546 9.02927 16.8981 9.12479 16.7372 9.40357L14.538 13.2126L14.2278 13.0526L15.6203 10.6408C15.7812 10.362 15.6857 10.0055 15.407 9.8446C15.1282 9.68364 14.7717 9.77916 14.6107 10.0579L11.2965 15.7984C11.2643 15.8541 11.2424 15.913 11.2301 15.9728L9.81017 18.103L13.9743 20.7318L14.6304 20.2579C14.8609 20.3773 15.1349 20.4144 15.4054 20.3419L17.2411 19.85C17.4853 19.7846 17.6874 19.6404 17.8273 19.4521L20.5357 17.843C20.8275 17.6696 20.9235 17.2925 20.7502 17.0006C20.5768 16.7088 20.1997 16.6128 19.9078 16.7862L18.3264 17.7257L18.145 17.0485C18.1082 16.9115 18.0425 16.79 17.9561 16.6889Z"/>
</mask>
<path d="M17.9561 16.6889L17.1958 17.3386L16.7366 16.8011L17.0901 16.1889L17.9561 16.6889ZM19.7866 11.187L18.9206 10.687L19.7866 11.187ZM17.6815 14.8332L18.5475 15.3332L18.0707 16.1589L17.2232 15.722L17.6815 14.8332ZM17.2517 14.6116L16.7934 15.5004L15.8613 15.0198L16.3856 14.1116L17.2517 14.6116ZM18.9037 9.41878L19.7697 9.91878L18.9037 9.41878ZM16.2144 14.0768L17.0804 14.5768L16.6036 15.4026L15.7561 14.9656L16.2144 14.0768ZM15.5753 13.7473L15.1171 14.6362L14.1849 14.1556L14.7093 13.2473L15.5753 13.7473ZM17.7467 9.98643L18.6127 10.4864L17.7467 9.98643ZM16.7372 9.40357L17.6032 9.90357L16.7372 9.40357ZM14.538 13.2126L15.4041 13.7126L14.9273 14.5383L14.0798 14.1014L14.538 13.2126ZM14.2278 13.0526L13.7696 13.9415L12.8374 13.4609L13.3618 12.5526L14.2278 13.0526ZM15.6203 10.6408L14.7543 10.1408L15.6203 10.6408ZM11.2301 15.9728L12.2097 16.1737L12.1705 16.365L12.0622 16.5274L11.2301 15.9728ZM9.81017 18.103L9.27636 18.9487L8.4095 18.4014L8.97807 17.5484L9.81017 18.103ZM13.9743 20.7318L14.5598 21.5424L14.0119 21.9381L13.4405 21.5774L13.9743 20.7318ZM14.6304 20.2579L14.0449 19.4472L14.5439 19.0869L15.0904 19.37L14.6304 20.2579ZM15.4054 20.3419L15.1466 19.376L15.1466 19.376L15.4054 20.3419ZM17.2411 19.85L17.5 20.8159L17.5 20.8159L17.2411 19.85ZM17.8273 19.4521L17.0246 18.8557L17.1442 18.6948L17.3165 18.5923L17.8273 19.4521ZM20.5357 17.843L21.0465 18.7027L21.0465 18.7027L20.5357 17.843ZM20.7502 17.0006L21.6099 16.4899L21.6099 16.4899L20.7502 17.0006ZM19.9078 16.7862L19.3971 15.9265L19.9078 16.7862ZM18.3264 17.7257L18.8372 18.5854L17.7022 19.2598L17.3605 17.9845L18.3264 17.7257ZM18.145 17.0485L17.179 17.3074L17.179 17.3074L18.145 17.0485ZM17.0901 16.1889L19.9301 11.2698L21.6622 12.2698L18.8221 17.1889L17.0901 16.1889ZM19.9301 11.2698C19.8149 11.4694 19.8833 11.7245 20.0828 11.8397L21.0828 10.1076C21.8399 10.5447 22.0992 11.5128 21.6622 12.2698L19.9301 11.2698ZM20.0828 11.8397C20.2823 11.9549 20.5374 11.8865 20.6526 11.687L18.9206 10.687C19.3576 9.92992 20.3257 9.67052 21.0828 10.1076L20.0828 11.8397ZM20.6526 11.687L18.5475 15.3332L16.8154 14.3332L18.9206 10.687L20.6526 11.687ZM17.2232 15.722L16.7934 15.5004L17.7099 13.7228L18.1397 13.9443L17.2232 15.722ZM16.3856 14.1116L19.0472 9.50164L20.7792 10.5016L18.1177 15.1116L16.3856 14.1116ZM19.0472 9.50164C18.932 9.70115 19.0004 9.95627 19.1999 10.0715L20.1999 8.33941C20.9569 8.77651 21.2163 9.74457 20.7792 10.5016L19.0472 9.50164ZM19.1999 10.0715C19.3994 10.1866 19.6545 10.1183 19.7697 9.91878L18.0376 8.91878C18.4747 8.16171 19.4428 7.90231 20.1999 8.33941L19.1999 10.0715ZM19.7697 9.91878L17.0804 14.5768L15.3483 13.5768L18.0376 8.91878L19.7697 9.91878ZM15.7561 14.9656L15.1171 14.6362L16.0336 12.8585L16.6726 13.188L15.7561 14.9656ZM14.7093 13.2473L16.8807 9.48643L18.6127 10.4864L16.4414 14.2473L14.7093 13.2473ZM16.8807 9.48643C16.7655 9.68594 16.8339 9.94106 17.0334 10.0562L18.0334 8.3242C18.7904 8.76129 19.0498 9.72936 18.6127 10.4864L16.8807 9.48643ZM17.0334 10.0562C17.2329 10.1714 17.488 10.1031 17.6032 9.90357L15.8711 8.90357C16.3082 8.1465 17.2763 7.8871 18.0334 8.3242L17.0334 10.0562ZM17.6032 9.90357L15.4041 13.7126L13.672 12.7126L15.8711 8.90357L17.6032 9.90357ZM14.0798 14.1014L13.7696 13.9415L14.6861 12.1638L14.9963 12.3237L14.0798 14.1014ZM13.3618 12.5526L14.7543 10.1408L16.4863 11.1408L15.0939 13.5526L13.3618 12.5526ZM14.7543 10.1408C14.6391 10.3403 14.7074 10.5954 14.907 10.7106L15.907 8.97857C16.664 9.41567 16.9234 10.3837 16.4863 11.1408L14.7543 10.1408ZM14.907 10.7106C15.1065 10.8258 15.3616 10.7575 15.4768 10.5579L13.7447 9.55794C14.1818 8.80087 15.1499 8.54148 15.907 8.97857L14.907 10.7106ZM15.4768 10.5579L12.1625 16.2984L10.4305 15.2984L13.7447 9.55794L15.4768 10.5579ZM12.1625 16.2984C12.1847 16.26 12.2007 16.2178 12.2097 16.1737L10.2505 15.7718C10.2841 15.6082 10.3439 15.4483 10.4305 15.2984L12.1625 16.2984ZM12.0622 16.5274L10.6423 18.6577L8.97807 17.5484L10.398 15.4181L12.0622 16.5274ZM10.344 17.2574L14.5081 19.8861L13.4405 21.5774L9.27636 18.9487L10.344 17.2574ZM13.3888 19.9211L14.0449 19.4472L15.2159 21.0686L14.5598 21.5424L13.3888 19.9211ZM15.0904 19.37C15.0996 19.3748 15.1089 19.3775 15.1175 19.3785C15.1256 19.3794 15.135 19.3791 15.1466 19.376L15.6642 21.3078C15.1435 21.4474 14.6137 21.3755 14.1704 21.1458L15.0904 19.37ZM15.1466 19.376L16.9823 18.8841L17.5 20.8159L15.6642 21.3078L15.1466 19.376ZM16.9823 18.8841C16.9929 18.8813 17.0006 18.8774 17.0066 18.8732C17.013 18.8688 17.0192 18.863 17.0246 18.8557L18.63 20.0484C18.3605 20.4112 17.9696 20.6901 17.5 20.8159L16.9823 18.8841ZM17.3165 18.5923L20.0249 16.9833L21.0465 18.7027L18.3381 20.3118L17.3165 18.5923ZM20.0249 16.9833C19.8419 17.092 19.7817 17.3284 19.8904 17.5114L21.6099 16.4899C22.0653 17.2565 21.8131 18.2472 21.0465 18.7027L20.0249 16.9833ZM19.8904 17.5114C19.9992 17.6944 20.2356 17.7546 20.4186 17.6459L19.3971 15.9265C20.1637 15.471 21.1544 15.7232 21.6099 16.4899L19.8904 17.5114ZM20.4186 17.6459L18.8372 18.5854L17.8156 16.866L19.3971 15.9265L20.4186 17.6459ZM17.3605 17.9845L17.179 17.3074L19.1109 16.7897L19.2923 17.4669L17.3605 17.9845ZM17.179 17.3074C17.1817 17.3173 17.1875 17.3288 17.1958 17.3386L18.7164 16.0393C18.8975 16.2513 19.0348 16.5057 19.1109 16.7897L17.179 17.3074Z" fill="white" mask="url(#path-2-outside-1_111_13)"/>
<path d="M16.9197 16.6862C16.9197 16.6862 15.9774 16.4158 15.3663 16.4624C14.462 16.5314 13.2307 17.3748 13.2307 17.3748" stroke="white"/>
<line y1="-0.5" x2="2.10154" y2="-0.5" transform="matrix(-0.443227 -0.89641 -0.89641 0.443227 15.2973 16.7591)" stroke="white"/>
<path d="M25.6593 18.5882C25.0895 20.7145 23.8341 22.5934 22.0876 23.9335C20.3412 25.2736 18.2013 26 16 26V25C17.9812 25 19.9071 24.3463 21.4789 23.1402C23.0507 21.9341 24.1806 20.2431 24.6933 18.3294L25.6593 18.5882Z" fill="white"/>
<path d="M6 16C6 13.7987 6.72637 11.6588 8.06647 9.91239C9.40656 8.16594 11.2855 6.91049 13.4118 6.34074L13.6706 7.30667C11.7569 7.81944 10.0659 8.94935 8.85982 10.5211C7.65374 12.0929 7 14.0188 7 16H6Z" fill="white"/>
<path d="M3 16C3 13.1383 3.94429 10.3565 5.68641 8.0861C7.42853 5.81573 9.87112 4.18364 12.6354 3.44296L12.9718 4.69867C10.484 5.36527 8.28567 6.83415 6.71777 8.87749C5.14986 10.9208 4.3 13.4244 4.3 16H3Z" fill="white"/>
<path d="M28.557 19.3646C27.8164 22.1289 26.1843 24.5715 23.9139 26.3136C21.6435 28.0557 18.8617 29 16 29V27.7C18.5756 27.7 21.0792 26.8501 23.1225 25.2822C25.1658 23.7143 26.6347 21.516 27.3013 19.0282L28.557 19.3646Z" fill="white"/>
</svg>
