<svg width="32" height="32" viewBox="0 0 32 32" fill="none" xmlns="http://www.w3.org/2000/svg">
<rect x="3" y="3" width="26" height="26" rx="2" stroke="white" stroke-width="2"/>
<path fill-rule="evenodd" clip-rule="evenodd" d="M17.8363 15.4223L14.5342 13.5159C14.5683 13.3326 14.5629 13.139 14.5115 12.947L14.2571 11.9978L16.8352 12.03C17.3109 12.036 17.7014 11.6551 17.7074 11.1794C17.7076 11.1601 17.7072 11.1409 17.7062 11.1218L19.856 11.095C20.3052 10.9468 20.8022 10.9233 21.2921 11.0546L23.8651 11.744C24.2634 11.8507 24.6142 12.0482 24.9006 12.3076L25.5149 12.2448L26.1872 12.1761L26.5017 12.7742L29.714 18.8832L30.1911 19.7906L29.2722 20.245L26.1951 21.7668C26.1079 21.8427 26.0125 21.9111 25.9097 21.9705L17.8638 26.6158C16.9948 27.1175 15.8835 26.8198 15.3818 25.9507C15.3298 25.8606 15.2863 25.7678 15.2512 25.6734L14.8242 25.9199C13.9552 26.4216 12.8439 26.1239 12.3422 25.2548C12.1932 24.9968 12.1147 24.7174 12.1008 24.439C11.249 24.8604 10.205 24.5527 9.7231 23.7181C9.25821 22.9129 9.47969 21.8998 10.206 21.3562C10.0852 21.2402 9.97852 21.1054 9.89056 20.9531C9.87296 20.9226 9.85634 20.8918 9.8407 20.8607L11.4395 21.7838L11.3152 21.8556L10.8881 22.1021C10.4974 22.3277 10.3635 22.8274 10.5891 23.2181C10.8147 23.6088 11.3143 23.7427 11.7051 23.5171L13.0734 22.7271L14.0799 23.3083L13.5073 23.6389C13.1165 23.8645 12.9826 24.3641 13.2082 24.7548C13.4338 25.1456 13.9335 25.2795 14.3242 25.0539L15.2082 24.5435L16.3026 23.9117L17.8363 23.0262L18.1603 23.2132C18.2216 23.2486 18.2856 23.2752 18.3508 23.2933L16.5469 24.3348C16.2497 24.5064 16.1011 24.8365 16.1462 25.1566C16.1604 25.2574 16.1938 25.3572 16.2478 25.4507C16.4734 25.8415 16.9731 25.9753 17.3638 25.7498L25.4097 21.1045C25.4878 21.0594 25.5556 21.0033 25.6124 20.9394L27.9323 19.7921L28.8289 19.3486L28.3634 18.4633L25.6166 13.2396L24.4881 13.355C24.292 13.0485 23.9854 12.8115 23.6063 12.7099L21.0333 12.0205C20.691 11.9288 20.3447 11.9622 20.0429 12.0927L15.6278 12.1479C15.152 12.1538 14.7712 12.5443 14.7771 13.02C14.7831 13.4957 15.1735 13.8766 15.6493 13.8706L17.1886 13.8514L18.2273 13.8385L17.973 14.7876C17.9682 14.8057 17.9637 14.8238 17.9597 14.8419C17.9209 15.016 17.9194 15.1905 17.9502 15.3565L17.8363 15.4223ZM16.2024 16.3656L15.5014 15.9609L15.135 16.5311L15.5254 16.7565L16.2024 16.3656ZM17.8363 19.9773L18.7027 20.4775L18.7785 20.5955L17.9115 21.0961L17.8363 21.1395L16.8297 20.5584L17.8363 19.9773ZM15.5254 18.6431L16.2024 19.034L15.1959 19.6151L14.5189 19.2242L15.5254 18.6431ZM12.7469 20.2473L12.885 20.1675L13.562 20.5584L13.0734 20.8405L12.5572 20.5424L12.7469 20.2473ZM14.7073 21.7838L15.7138 22.3649L16.2024 22.0828L15.1959 21.5017L14.7073 21.7838ZM19.3147 22.1726C19.3891 22.3394 19.4069 22.5293 19.3598 22.7107L19.9071 22.3947L19.9273 22.3831L19.6629 21.9716L19.3147 22.1726Z" fill="white"/>
<mask id="path-3-outside-1_150_29" maskUnits="userSpaceOnUse" x="0.660833" y="3.42737" width="27.5526" height="25.7224" fill="black">
<rect fill="white" x="0.660833" y="3.42737" width="27.5526" height="25.7224"/>
<path fill-rule="evenodd" clip-rule="evenodd" d="M14.5342 13.5159L21.4288 17.4965C21.8195 17.7221 21.9534 18.2217 21.7278 18.6124C21.5022 19.0032 21.0026 19.1371 20.6118 18.9115L15.5014 15.9609L15.135 16.5311L21.5963 20.2615C21.987 20.4871 22.1209 20.9867 21.8953 21.3775C21.6697 21.7682 21.17 21.9021 20.7793 21.6765L14.2506 17.9072L13.7059 18.7549L18.9771 21.7983C19.3679 22.0239 19.5018 22.5235 19.2762 22.9142C19.0506 23.305 18.5509 23.4388 18.1602 23.2133L12.8215 20.131L12.5571 20.5425L15.9375 22.4942C16.3283 22.7197 16.4622 23.2194 16.2366 23.6101C16.011 24.0009 15.5113 24.1347 15.1206 23.9091L7.07471 19.2638C6.9966 19.2188 6.92875 19.1627 6.87199 19.0988L3.65548 17.508L6.8678 11.399L7.99628 11.5144C8.19235 11.2079 8.49899 10.9709 8.87809 10.8693L11.4511 10.1799C11.7934 10.0882 12.1397 10.1216 12.4415 10.2521L16.8566 10.3072C17.3324 10.3132 17.7132 10.7037 17.7073 11.1794C17.7013 11.6551 17.3109 12.036 16.8351 12.03L14.2571 11.9978L14.5114 12.947C14.5628 13.1391 14.5682 13.3326 14.5342 13.5159Z"/>
</mask>
<path d="M14.5342 13.5159L13.5509 13.3334L13.422 14.0284L14.0342 14.3819L14.5342 13.5159ZM15.5014 15.9609L16.0014 15.0949L15.1756 14.6181L14.6601 15.4203L15.5014 15.9609ZM15.135 16.5311L14.2937 15.9905L13.7267 16.8727L14.635 17.3971L15.135 16.5311ZM14.2506 17.9072L14.7506 17.0411L13.9249 16.5644L13.4094 17.3665L14.2506 17.9072ZM13.7059 18.7549L12.8646 18.2143L12.2976 19.0965L13.2059 19.6209L13.7059 18.7549ZM12.8215 20.131L13.3215 19.2649L12.4958 18.7882L11.9803 19.5903L12.8215 20.131ZM12.5571 20.5425L11.7158 20.0018L11.1489 20.8841L12.0571 21.4085L12.5571 20.5425ZM6.87199 19.0988L7.61984 18.4349L7.49026 18.2889L7.31529 18.2024L6.87199 19.0988ZM3.65548 17.508L2.77038 17.0426L2.29327 17.95L3.21218 18.4044L3.65548 17.508ZM6.8678 11.399L6.96949 10.4042L6.29722 10.3355L5.9827 10.9336L6.8678 11.399ZM7.99628 11.5144L7.89458 12.5092L8.50689 12.5718L8.83861 12.0533L7.99628 11.5144ZM8.87809 10.8693L8.61927 9.9034L8.61927 9.9034L8.87809 10.8693ZM11.4511 10.1799L11.1923 9.21397L11.4511 10.1799ZM12.4415 10.2521L12.0445 11.17L12.2285 11.2495L12.429 11.2521L12.4415 10.2521ZM16.8566 10.3072L16.8442 11.3072L16.8442 11.3072L16.8566 10.3072ZM17.7073 11.1794L16.7074 11.1669L16.7074 11.1669L17.7073 11.1794ZM16.8351 12.03L16.8226 13.03L16.8226 13.03L16.8351 12.03ZM14.2571 11.9978L14.2695 10.9979L12.9494 10.9814L13.2911 12.2567L14.2571 11.9978ZM14.5114 12.947L13.5455 13.2058L13.5455 13.2058L14.5114 12.947ZM14.0342 14.3819L20.9288 18.3625L21.9288 16.6304L15.0342 12.6498L14.0342 14.3819ZM20.9288 18.3625C20.8412 18.312 20.8112 18.2 20.8618 18.1124L22.5938 19.1124C23.0956 18.2434 22.7978 17.1322 21.9288 16.6304L20.9288 18.3625ZM20.8618 18.1124C20.9123 18.0249 21.0243 17.9949 21.1118 18.0454L20.1118 19.7775C20.9809 20.2792 22.0921 19.9815 22.5938 19.1124L20.8618 18.1124ZM21.1118 18.0454L16.0014 15.0949L15.0014 16.8269L20.1118 19.7775L21.1118 18.0454ZM14.6601 15.4203L14.2937 15.9905L15.9762 17.0717L16.3426 16.5016L14.6601 15.4203ZM14.635 17.3971L21.0963 21.1275L22.0963 19.3955L15.635 15.6651L14.635 17.3971ZM21.0963 21.1275C21.0087 21.077 20.9787 20.965 21.0292 20.8775L22.7613 21.8775C23.263 21.0085 22.9653 19.8972 22.0963 19.3955L21.0963 21.1275ZM21.0292 20.8775C21.0798 20.7899 21.1918 20.7599 21.2793 20.8105L20.2793 22.5425C21.1483 23.0443 22.2596 22.7465 22.7613 21.8775L21.0292 20.8775ZM21.2793 20.8105L14.7506 17.0411L13.7506 18.7732L20.2793 22.5425L21.2793 20.8105ZM13.4094 17.3665L12.8646 18.2143L14.5471 19.2955L15.0919 18.4478L13.4094 17.3665ZM13.2059 19.6209L18.4771 22.6643L19.4771 20.9322L14.2059 17.8889L13.2059 19.6209ZM18.4771 22.6643C18.3896 22.6137 18.3596 22.5018 18.4101 22.4142L20.1422 23.4142C20.6439 22.5452 20.3462 21.434 19.4771 20.9322L18.4771 22.6643ZM18.4101 22.4142C18.4607 22.3267 18.5726 22.2967 18.6602 22.3472L17.6602 24.0793C18.5292 24.581 19.6405 24.2833 20.1422 23.4142L18.4101 22.4142ZM18.6602 22.3472L13.3215 19.2649L12.3215 20.997L17.6602 24.0793L18.6602 22.3472ZM11.9803 19.5903L11.7158 20.0018L13.3984 21.0831L13.6628 20.6716L11.9803 19.5903ZM12.0571 21.4085L15.4375 23.3602L16.4375 21.6281L13.0571 19.6764L12.0571 21.4085ZM15.4375 23.3602C15.35 23.3096 15.32 23.1977 15.3705 23.1101L17.1026 24.1101C17.6043 23.2411 17.3066 22.1299 16.4375 21.6281L15.4375 23.3602ZM15.3705 23.1101C15.4211 23.0226 15.533 22.9926 15.6206 23.0431L14.6206 24.7752C15.4896 25.2769 16.6009 24.9791 17.1026 24.1101L15.3705 23.1101ZM15.6206 23.0431L7.57471 18.3978L6.57471 20.1299L14.6206 24.7752L15.6206 23.0431ZM7.57471 18.3978C7.5907 18.4071 7.60627 18.4196 7.61984 18.4349L6.12414 19.7626C6.25124 19.9058 6.4025 20.0304 6.57471 20.1299L7.57471 18.3978ZM7.31529 18.2024L4.09878 16.6117L3.21218 18.4044L6.42869 19.9951L7.31529 18.2024ZM4.54057 17.9734L7.75289 11.8644L5.9827 10.9336L2.77038 17.0426L4.54057 17.9734ZM6.76611 12.3938L7.89458 12.5092L8.09797 10.5196L6.96949 10.4042L6.76611 12.3938ZM8.83861 12.0533C8.90552 11.9488 9.00805 11.8698 9.13691 11.8353L8.61927 9.9034C7.98993 10.072 7.47918 10.4671 7.15394 10.9754L8.83861 12.0533ZM9.13691 11.8353L11.7099 11.1458L11.1923 9.21397L8.61927 9.9034L9.13691 11.8353ZM11.7099 11.1458C11.8267 11.1145 11.9422 11.1257 12.0445 11.17L12.8384 9.33429C12.3371 9.11749 11.76 9.06185 11.1923 9.21397L11.7099 11.1458ZM12.429 11.2521L16.8442 11.3072L16.8691 9.30732L12.4539 9.25221L12.429 11.2521ZM16.8442 11.3072C16.7676 11.3062 16.7064 11.2434 16.7074 11.1669L18.7072 11.1919C18.72 10.1639 17.8971 9.32015 16.8691 9.30732L16.8442 11.3072ZM16.7074 11.1669C16.7083 11.0904 16.7711 11.0292 16.8476 11.0301L16.8226 13.03C17.8506 13.0428 18.6944 12.2198 18.7072 11.1919L16.7074 11.1669ZM16.8476 11.0301L14.2695 10.9979L14.2446 12.9978L16.8226 13.03L16.8476 11.0301ZM13.2911 12.2567L13.5455 13.2058L15.4773 12.6882L15.223 11.739L13.2911 12.2567ZM13.5455 13.2058C13.5575 13.2509 13.5583 13.2936 13.5509 13.3334L15.5174 13.6983C15.578 13.3716 15.5682 13.0272 15.4773 12.6882L13.5455 13.2058Z" fill="white" mask="url(#path-3-outside-1_150_29)"/>
</svg>
