<svg width="32" height="32" viewBox="0 0 32 32" fill="none" xmlns="http://www.w3.org/2000/svg">
<rect x="3" y="3" width="26" height="26" rx="2" stroke="white" stroke-width="2"/>
<mask id="path-2-outside-1_25_2" maskUnits="userSpaceOnUse" x="6.84799" y="3.03754" width="19" height="26" fill="black">
<rect fill="white" x="6.84799" y="3.03754" width="19" height="26"/>
<path fill-rule="evenodd" clip-rule="evenodd" d="M18.8902 17.615L18.8902 7.86984C18.8902 7.31756 18.4425 6.86984 17.8902 6.86984C17.3379 6.86984 16.8902 7.31756 16.8902 7.86984L16.8902 15.0932L16.0615 15.1327L16.0615 6C16.0615 5.44771 15.6138 5 15.0615 5C14.5093 5 14.0615 5.44771 14.0615 6L14.0615 15.2279L12.8295 15.2866L12.8295 7.83589C12.8295 7.28361 12.3818 6.83589 11.8295 6.83589C11.2772 6.83589 10.8295 7.28361 10.8295 7.83589L10.8295 15.3818L10.2314 15.4103L10.2314 10.6323C10.2314 10.08 9.78369 9.63226 9.23141 9.63226C8.67912 9.63226 8.23141 10.08 8.23141 10.6323L8.23141 22.0046C8.23141 22.115 8.2493 22.2213 8.28234 22.3206L8.00001 26.7039L16.4421 27.0375L17.0105 25.7707C17.4554 25.7504 17.8943 25.5704 18.234 25.2307L20.5397 22.925C20.8464 22.6183 21.0229 22.2307 21.0692 21.8309L23.713 17.1168C23.9979 16.6088 23.8171 15.9661 23.3091 15.6812C22.8012 15.3964 22.1585 15.5772 21.8736 16.0852L20.3298 18.8378L19.4793 17.9873C19.3072 17.8152 19.1053 17.6911 18.8902 17.615Z"/>
</mask>
<path d="M18.8902 17.615L18.5566 18.5577L17.8902 18.3219L17.8902 17.615L18.8902 17.615ZM16.8902 7.86984L17.8902 7.86984L16.8902 7.86984ZM16.8902 15.0932L17.8902 15.0932L17.8902 16.0467L16.9378 16.0921L16.8902 15.0932ZM16.0615 15.1327L16.1091 16.1316L15.0615 16.1814L15.0615 15.1327L16.0615 15.1327ZM14.0615 15.2279L15.0615 15.2279L15.0615 16.1814L14.1091 16.2268L14.0615 15.2279ZM12.8295 15.2866L12.877 16.2855L11.8295 16.3353L11.8295 15.2866L12.8295 15.2866ZM10.8295 15.3818L11.8295 15.3818L11.8295 16.3353L10.877 16.3807L10.8295 15.3818ZM10.2314 15.4103L10.279 16.4092L9.23141 16.4591L9.23141 15.4103L10.2314 15.4103ZM8.28234 22.3206L9.23119 22.0049L9.29282 22.1901L9.28027 22.3849L8.28234 22.3206ZM8.00001 26.7039L7.96052 27.7031L6.93619 27.6626L7.00208 26.6396L8.00001 26.7039ZM16.4421 27.0375L17.3545 27.4469L17.0779 28.0634L16.4026 28.0368L16.4421 27.0375ZM17.0105 25.7707L16.0981 25.3613L16.3501 24.7998L16.9649 24.7717L17.0105 25.7707ZM18.234 25.2307L18.9411 25.9378L18.9411 25.9378L18.234 25.2307ZM21.0692 21.8309L20.0759 21.7158L20.0989 21.5167L20.197 21.3418L21.0692 21.8309ZM23.713 17.1168L24.5852 17.6059L24.5852 17.6059L23.713 17.1168ZM23.3091 15.6812L23.7983 14.809L23.7983 14.809L23.3091 15.6812ZM21.8736 16.0852L22.7458 16.5743L21.8736 16.0852ZM20.3298 18.8378L21.202 19.3269L20.5563 20.4784L19.6227 19.5449L20.3298 18.8378ZM19.4793 17.9873L20.1864 17.2802L20.1864 17.2802L19.4793 17.9873ZM17.8902 17.615L17.8902 7.86984L19.8902 7.86984L19.8902 17.615L17.8902 17.615ZM17.8902 7.86984L17.8902 7.86984L17.8902 5.86984C18.9948 5.86984 19.8902 6.76528 19.8902 7.86984L17.8902 7.86984ZM17.8902 7.86984L15.8902 7.86984C15.8902 6.76528 16.7856 5.86984 17.8902 5.86984L17.8902 7.86984ZM17.8902 7.86984L17.8902 15.0932L15.8902 15.0932L15.8902 7.86984L17.8902 7.86984ZM16.9378 16.0921L16.1091 16.1316L16.014 14.1338L16.8426 14.0944L16.9378 16.0921ZM15.0615 15.1327L15.0615 6L17.0615 6L17.0615 15.1327L15.0615 15.1327ZM15.0615 6L15.0615 6L15.0615 4C16.1661 4 17.0615 4.89543 17.0615 6L15.0615 6ZM15.0615 6L13.0615 6C13.0615 4.89543 13.957 4 15.0615 4L15.0615 6ZM15.0615 6L15.0615 15.2279L13.0615 15.2279L13.0615 6L15.0615 6ZM14.1091 16.2268L12.877 16.2855L12.7819 14.2877L14.014 14.2291L14.1091 16.2268ZM11.8295 15.2866L11.8295 7.83589L13.8295 7.83589L13.8295 15.2866L11.8295 15.2866ZM11.8295 7.83589L11.8295 5.83589C12.9341 5.83589 13.8295 6.73132 13.8295 7.83589L11.8295 7.83589ZM11.8295 7.83589L9.82948 7.83589C9.82948 6.73132 10.7249 5.83589 11.8295 5.83589L11.8295 7.83589ZM11.8295 7.83589L11.8295 15.3818L9.82948 15.3818L9.82948 7.83589L11.8295 7.83589ZM10.877 16.3807L10.279 16.4092L10.1838 14.4114L10.7819 14.383L10.877 16.3807ZM9.23141 15.4103L9.23141 10.6323L11.2314 10.6323L11.2314 15.4103L9.23141 15.4103ZM9.23141 10.6323L9.23141 8.63226C10.336 8.63226 11.2314 9.52769 11.2314 10.6323L9.23141 10.6323ZM9.23141 10.6323L7.23141 10.6323C7.23141 9.52769 8.12683 8.63226 9.23141 8.63226L9.23141 10.6323ZM9.23141 10.6323L9.23141 22.0046L7.23141 22.0046L7.23141 10.6323L9.23141 10.6323ZM9.23141 22.0046L9.23119 22.0049L7.33349 22.6363C7.267 22.4365 7.23141 22.2237 7.23141 22.0046L9.23141 22.0046ZM9.28027 22.3849L8.99794 26.7682L7.00208 26.6396L7.28441 22.2563L9.28027 22.3849ZM8.0395 25.7047L16.4816 26.0383L16.4026 28.0368L7.96052 27.7031L8.0395 25.7047ZM15.5297 26.6282L16.0981 25.3613L17.9229 26.18L17.3545 27.4469L15.5297 26.6282ZM16.9649 24.7717C17.1704 24.7624 17.3704 24.6801 17.5269 24.5236L18.9411 25.9378C18.4182 26.4607 17.7404 26.7384 17.0561 26.7696L16.9649 24.7717ZM17.5269 24.5236L19.8325 22.2179L21.2468 23.6322L18.9411 25.9378L17.5269 24.5236ZM19.8325 22.2179C19.9742 22.0763 20.0546 21.8997 20.0759 21.7158L22.0626 21.9461C21.9912 22.5618 21.7185 23.1604 21.2468 23.6322L19.8325 22.2179ZM20.197 21.3418L22.8408 16.6276L24.5852 17.6059L21.9414 22.3201L20.197 21.3418ZM22.8408 16.6276C22.8556 16.6014 22.8462 16.5682 22.82 16.5534L23.7983 14.809C24.7879 15.3641 25.1403 16.6163 24.5852 17.6059L22.8408 16.6276ZM22.82 16.5534C22.7937 16.5387 22.7605 16.5481 22.7458 16.5743L21.0014 15.596C21.5564 14.6064 22.8086 14.254 23.7983 14.809L22.82 16.5534ZM22.7458 16.5743L21.202 19.3269L19.4576 18.3486L21.0014 15.596L22.7458 16.5743ZM19.6227 19.5449L18.7722 18.6944L20.1864 17.2802L21.0369 18.1307L19.6227 19.5449ZM18.7722 18.6944C18.7077 18.6299 18.6342 18.5851 18.5566 18.5577L19.2238 16.6722C19.5764 16.797 19.9067 17.0005 20.1864 17.2802L18.7722 18.6944Z" fill="white" mask="url(#path-2-outside-1_25_2)"/>
<path d="M17.348 18.5C17.348 18.5 15.716 18.9065 14.848 19.5C13.5635 20.3782 12.4575 22.6877 12.4575 22.6877" stroke="white"/>
<line y1="-0.5" x2="3.60555" y2="-0.5" transform="matrix(-0.83205 -0.5547 -0.5547 0.83205 15 20)" stroke="white"/>
</svg>
