<svg width="32" height="32" viewBox="0 0 32 32" fill="none" xmlns="http://www.w3.org/2000/svg">
<rect x="3" y="3" width="26" height="26" rx="2" stroke="white" stroke-width="2"/>
<mask id="path-2-outside-1_48_373" maskUnits="userSpaceOnUse" x="-0.44949" y="2.50644" width="26.288" height="17.8028" fill="black">
<rect fill="white" x="-0.44949" y="2.50644" width="26.288" height="17.8028"/>
<path fill-rule="evenodd" clip-rule="evenodd" d="M11.2167 11.5107L13.476 13.7143C13.8929 14.1209 13.9013 14.7885 13.4946 15.2054C13.088 15.6223 12.4204 15.6307 12.0035 15.224L8.13421 11.4502C7.76002 11.3019 7.43133 11.0311 7.21446 10.6555L6.09914 8.72372C5.95024 8.46581 5.87048 8.18696 5.85412 7.90862L4.64494 7.2105C3.9106 6.78653 3.659 5.84753 4.08297 5.11319C4.50694 4.37885 5.44593 4.12725 6.18027 4.55122L8.65756 5.98148C8.85884 6.09769 9.02385 6.25259 9.14862 6.43136L15.1423 7.92634C15.5676 7.70877 16.1017 7.77798 16.4577 8.13398L18.1244 9.80063L22.7012 11.027C23.2347 11.1699 23.5513 11.7183 23.4083 12.2517C23.2654 12.7852 22.717 13.1018 22.1836 12.9588L20.9528 12.6291L22.3133 13.9896C22.7552 14.4315 22.7552 15.1479 22.3133 15.5899C21.8714 16.0318 21.155 16.0318 20.713 15.5899L16.5808 11.4576L16.1681 11.347L16.1668 11.3622L12.7614 10.4497C12.6333 10.6323 12.4643 10.7904 12.2584 10.9093L11.2167 11.5107Z"/>
</mask>
<path d="M11.2167 11.5107L10.5185 12.2266L9.57341 11.3048L10.7167 10.6447L11.2167 11.5107ZM13.476 13.7143L12.7778 14.4301L12.7778 14.4301L13.476 13.7143ZM13.4946 15.2054L14.2105 15.9037L14.2105 15.9037L13.4946 15.2054ZM12.0035 15.224L11.3053 15.9399L11.3053 15.9399L12.0035 15.224ZM8.13421 11.4502L8.50252 10.5205L8.68891 10.5943L8.83244 10.7343L8.13421 11.4502ZM7.21446 10.6555L6.34843 11.1555L6.34843 11.1555L7.21446 10.6555ZM6.09914 8.72372L6.96517 8.22372L6.96517 8.22372L6.09914 8.72372ZM5.85412 7.90862L6.35412 7.0426L6.82078 7.31202L6.8524 7.84994L5.85412 7.90862ZM4.64494 7.2105L4.14494 8.07653L4.14494 8.07653L4.64494 7.2105ZM4.08297 5.11319L4.94899 5.61319L4.94899 5.61319L4.08297 5.11319ZM6.18027 4.55122L6.68027 3.6852L6.68027 3.6852L6.18027 4.55122ZM8.65756 5.98148L9.15756 5.11546L9.15756 5.11546L8.65756 5.98148ZM9.14862 6.43136L8.90661 7.40164L8.54305 7.31096L8.3286 7.00369L9.14862 6.43136ZM15.1423 7.92634L15.5978 8.8166L15.264 8.98734L14.9003 8.89662L15.1423 7.92634ZM16.4577 8.13398L17.1648 7.42687L17.1648 7.42687L16.4577 8.13398ZM18.1244 9.80063L17.8656 10.7666L17.6068 10.6972L17.4173 10.5077L18.1244 9.80063ZM20.9528 12.6291L20.2457 13.3362L17.6068 10.6972L21.2116 11.6631L20.9528 12.6291ZM22.3133 13.9896L23.0204 13.2825L22.3133 13.9896ZM22.3133 15.5899L23.0204 16.297L23.0204 16.297L22.3133 15.5899ZM20.713 15.5899L21.4202 14.8828L21.4202 14.8828L20.713 15.5899ZM16.5808 11.4576L16.8396 10.4916L17.0984 10.561L17.2879 10.7505L16.5808 11.4576ZM16.1681 11.347L15.1714 11.2661L15.2683 10.0706L16.4269 10.3811L16.1681 11.347ZM16.1668 11.3622L17.1636 11.443L17.0666 12.6386L15.908 12.3281L16.1668 11.3622ZM12.7614 10.4497L11.9429 9.87517L12.3447 9.30279L13.0202 9.48379L12.7614 10.4497ZM12.2584 10.9093L12.7584 11.7753L12.7584 11.7753L12.2584 10.9093ZM11.915 10.7948L14.1742 12.9984L12.7778 14.4301L10.5185 12.2266L11.915 10.7948ZM14.1742 12.9984C14.9865 13.7906 15.0028 15.0914 14.2105 15.9037L12.7788 14.5072C12.7998 14.4857 12.7993 14.4512 12.7778 14.4301L14.1742 12.9984ZM14.2105 15.9037C13.4183 16.7159 12.1175 16.7322 11.3053 15.9399L12.7017 14.5082C12.7232 14.5292 12.7577 14.5287 12.7788 14.5072L14.2105 15.9037ZM11.3053 15.9399L7.43598 12.1661L8.83244 10.7343L12.7017 14.5082L11.3053 15.9399ZM7.7659 12.3799C7.18964 12.1516 6.68201 11.7333 6.34843 11.1555L8.08048 10.1555C8.18065 10.329 8.3304 10.4523 8.50252 10.5205L7.7659 12.3799ZM6.34843 11.1555L5.23312 9.22372L6.96517 8.22372L8.08048 10.1555L6.34843 11.1555ZM5.23312 9.22372C5.00464 8.82798 4.88114 8.39751 4.85585 7.96731L6.8524 7.84994C6.85983 7.9764 6.89584 8.10364 6.96517 8.22372L5.23312 9.22372ZM5.35412 8.77465L4.14494 8.07653L5.14494 6.34448L6.35412 7.0426L5.35412 8.77465ZM4.14494 8.07653C2.93231 7.37641 2.51683 5.82583 3.21694 4.61319L4.94899 5.61319C4.80117 5.86924 4.88889 6.19665 5.14494 6.34448L4.14494 8.07653ZM3.21694 4.61319C3.91706 3.40056 5.46764 2.98508 6.68027 3.6852L5.68027 5.41725C5.42423 5.26942 5.09682 5.35715 4.94899 5.61319L3.21694 4.61319ZM6.68027 3.6852L9.15756 5.11546L8.15756 6.84751L5.68027 5.41725L6.68027 3.6852ZM9.15756 5.11546C9.48835 5.30644 9.76174 5.56259 9.96865 5.85903L8.3286 7.00369C8.28595 6.94259 8.22933 6.88894 8.15756 6.84751L9.15756 5.11546ZM9.39063 5.46109L15.3843 6.95607L14.9003 8.89662L8.90661 7.40164L9.39063 5.46109ZM14.6868 7.03608C15.487 6.62673 16.4932 6.7552 17.1648 7.42687L15.7506 8.84108C15.7103 8.80077 15.6481 8.79082 15.5978 8.8166L14.6868 7.03608ZM17.1648 7.42687L18.8315 9.09352L17.4173 10.5077L15.7506 8.84108L17.1648 7.42687ZM18.3832 8.8347L22.96 10.0611L22.4424 11.9929L17.8656 10.7666L18.3832 8.8347ZM22.96 10.0611C24.027 10.3469 24.6601 11.4436 24.3742 12.5105L22.4424 11.9929L22.4424 11.9929L22.96 10.0611ZM24.3742 12.5105C24.0884 13.5775 22.9917 14.2106 21.9247 13.9248L22.4424 11.9929L24.3742 12.5105ZM21.9247 13.9248L20.694 13.595L21.2116 11.6631L22.4424 11.9929L21.9247 13.9248ZM21.6599 11.922L23.0204 13.2825L21.6062 14.6967L20.2457 13.3362L21.6599 11.922ZM23.0204 13.2825C23.8529 14.1149 23.8529 15.4645 23.0204 16.297L21.6062 14.8828C21.6576 14.8314 21.6576 14.7481 21.6062 14.6967L23.0204 13.2825ZM23.0204 16.297C22.188 17.1294 20.8384 17.1294 20.0059 16.297L21.4202 14.8828C21.4715 14.9341 21.5548 14.9341 21.6062 14.8828L23.0204 16.297ZM20.0059 16.297L15.8736 12.1647L17.2879 10.7505L21.4202 14.8828L20.0059 16.297ZM16.3219 12.4235L15.9093 12.3129L16.4269 10.3811L16.8396 10.4916L16.3219 12.4235ZM17.1648 11.4278L17.1636 11.443L15.1701 11.2814L15.1714 11.2661L17.1648 11.4278ZM15.908 12.3281L12.5026 11.4156L13.0202 9.48379L16.4257 10.3963L15.908 12.3281ZM11.7584 10.0433C11.8356 9.9987 11.8967 9.94097 11.9429 9.87517L13.5799 11.0243C13.3698 11.3235 13.0929 11.5822 12.7584 11.7753L11.7584 10.0433ZM10.7167 10.6447L11.7584 10.0433L12.7584 11.7753L11.7167 12.3767L10.7167 10.6447Z" fill="white" mask="url(#path-2-outside-1_48_373)"/>
<mask id="path-4-outside-2_48_373" maskUnits="userSpaceOnUse" x="5.82715" y="12.4861" width="26.1986" height="17.4791" fill="black">
<rect fill="white" x="5.82715" y="12.4861" width="26.1986" height="17.4791"/>
<path fill-rule="evenodd" clip-rule="evenodd" d="M20.4024 21.0991L18.1081 18.932C17.6848 18.5321 17.6657 17.8647 18.0656 17.4413C18.4656 17.018 19.1329 16.999 19.5563 17.3989L23.4855 21.1103C23.862 21.2525 24.195 21.518 24.4179 21.8902L25.5639 23.8038C25.717 24.0593 25.8012 24.3369 25.822 24.6149L27.0422 25.2936C27.7832 25.7057 28.0498 26.6406 27.6377 27.3816C27.2255 28.1227 26.2907 28.3893 25.5496 27.9771L23.0498 26.5867C22.8466 26.4737 22.6792 26.3215 22.5516 26.1447L16.5347 24.7459C16.113 24.9702 15.5778 24.9096 15.2161 24.5593L13.523 22.9196L8.92715 21.7666C8.39146 21.6322 8.06614 21.089 8.20053 20.5534C8.33491 20.0177 8.87811 19.6924 9.41379 19.8267L10.6497 20.1368L9.26754 18.7982C8.81862 18.3634 8.80715 17.6471 9.24193 17.1981C9.6767 16.7492 10.3931 16.7377 10.842 17.1725L15.0399 21.2381L15.4543 21.3421L15.4553 21.3268L18.8749 22.1847C19.0001 22.0001 19.1666 21.8393 19.3705 21.7171L20.4024 21.0991Z"/>
</mask>
<path d="M20.4024 21.0991L21.0891 20.3722L22.0488 21.2787L20.9162 21.957L20.4024 21.0991ZM18.1081 18.932L18.7948 18.205L18.7948 18.205L18.1081 18.932ZM18.0656 17.4413L17.3387 16.7547L17.3387 16.7547L18.0656 17.4413ZM19.5563 17.3989L20.243 16.6719L20.243 16.6719L19.5563 17.3989ZM23.4855 21.1103L23.1321 22.0458L22.9446 21.9749L22.7988 21.8373L23.4855 21.1103ZM24.4179 21.8902L25.2758 21.3764L25.2758 21.3764L24.4179 21.8902ZM25.5639 23.8038L24.706 24.3176L24.706 24.3176L25.5639 23.8038ZM25.822 24.6149L25.3359 25.4888L24.865 25.2269L24.8248 24.6896L25.822 24.6149ZM27.0422 25.2936L27.5283 24.4197L27.5283 24.4197L27.0422 25.2936ZM27.6377 27.3816L26.7637 26.8956L26.7637 26.8956L27.6377 27.3816ZM25.5496 27.9771L25.0635 28.851L25.0635 28.851L25.5496 27.9771ZM23.0498 26.5867L22.5637 27.4606L22.5637 27.4606L23.0498 26.5867ZM22.5516 26.1447L22.778 25.1707L23.143 25.2555L23.3623 25.5593L22.5516 26.1447ZM16.5347 24.7459L16.0651 23.863L16.396 23.687L16.7612 23.7718L16.5347 24.7459ZM15.2161 24.5593L14.5204 25.2777L14.5204 25.2777L15.2161 24.5593ZM13.523 22.9196L13.7663 21.9496L14.0262 22.0148L14.2187 22.2012L13.523 22.9196ZM10.6497 20.1368L11.3454 19.4184L14.0262 22.0148L10.4063 21.1067L10.6497 20.1368ZM9.26754 18.7982L8.57184 19.5165L9.26754 18.7982ZM9.24193 17.1981L8.52359 16.5024L8.52359 16.5024L9.24193 17.1981ZM10.842 17.1725L10.1463 17.8908L10.1463 17.8908L10.842 17.1725ZM15.0399 21.2381L14.7966 22.2081L14.5367 22.1429L14.3442 21.9565L15.0399 21.2381ZM15.4543 21.3421L16.4522 21.407L16.3744 22.6039L15.211 22.312L15.4543 21.3421ZM15.4553 21.3268L14.4574 21.262L14.5352 20.065L15.6986 20.3569L15.4553 21.3268ZM18.8749 22.1847L19.7025 22.7461L19.3099 23.3248L18.6316 23.1546L18.8749 22.1847ZM19.3705 21.7171L18.8567 20.8592L18.8567 20.8592L19.3705 21.7171ZM19.7157 21.8261L17.4214 19.659L18.7948 18.205L21.0891 20.3722L19.7157 21.8261ZM17.4214 19.659C16.5966 18.8798 16.5595 17.5795 17.3387 16.7547L18.7926 18.128C18.7719 18.1499 18.7729 18.1844 18.7948 18.205L17.4214 19.659ZM17.3387 16.7547C18.1178 15.9298 19.4181 15.8927 20.243 16.6719L18.8696 18.1258C18.8478 18.1052 18.8133 18.1061 18.7926 18.128L17.3387 16.7547ZM20.243 16.6719L24.1722 20.3833L22.7988 21.8373L18.8696 18.1258L20.243 16.6719ZM23.8389 20.1748C24.4187 20.3939 24.933 20.804 25.2758 21.3764L23.5599 22.404C23.457 22.2321 23.3053 22.1112 23.1321 22.0458L23.8389 20.1748ZM25.2758 21.3764L26.4219 23.29L24.706 24.3176L23.5599 22.404L25.2758 21.3764ZM26.4219 23.29C26.6566 23.6821 26.787 24.1105 26.8192 24.5402L24.8248 24.6896C24.8153 24.5632 24.7773 24.4366 24.706 24.3176L26.4219 23.29ZM26.3081 23.741L27.5283 24.4197L26.5561 26.1675L25.3359 25.4888L26.3081 23.741ZM27.5283 24.4197C28.7519 25.1003 29.1922 26.644 28.5116 27.8677L26.7637 26.8956C26.9075 26.6372 26.8145 26.3112 26.5561 26.1675L27.5283 24.4197ZM28.5116 27.8677C27.831 29.0914 26.2872 29.5316 25.0635 28.851L26.0357 27.1032C26.2941 27.2469 26.62 27.1539 26.7637 26.8956L28.5116 27.8677ZM25.0635 28.851L22.5637 27.4606L23.5358 25.7128L26.0357 27.1032L25.0635 28.851ZM22.5637 27.4606C22.2299 27.2749 21.9524 27.0232 21.7408 26.7301L23.3623 25.5593C23.4059 25.6197 23.4634 25.6725 23.5358 25.7128L22.5637 27.4606ZM22.3251 27.1187L16.3083 25.7199L16.7612 23.7718L22.778 25.1707L22.3251 27.1187ZM17.0044 25.6287C16.2109 26.0508 15.2028 25.9385 14.5204 25.2777L15.9118 23.841C15.9528 23.8806 16.0151 23.8896 16.0651 23.863L17.0044 25.6287ZM14.5204 25.2777L12.8273 23.6379L14.2187 22.2012L15.9118 23.841L14.5204 25.2777ZM13.2797 23.8895L8.68383 22.7366L9.17047 20.7967L13.7663 21.9496L13.2797 23.8895ZM8.68383 22.7366C7.61245 22.4678 6.96181 21.3814 7.23058 20.31L9.17047 20.7967L9.17047 20.7967L8.68383 22.7366ZM7.23058 20.31C7.49935 19.2387 8.58575 18.588 9.65712 18.8568L9.17047 20.7967L7.23058 20.31ZM9.65712 18.8568L10.893 19.1668L10.4063 21.1067L9.17047 20.7967L9.65712 18.8568ZM9.95396 20.8551L8.57184 19.5165L9.96324 18.0799L11.3454 19.4184L9.95396 20.8551ZM8.57184 19.5165C7.72619 18.6975 7.70459 17.3481 8.52359 16.5024L9.96026 17.8938C9.9097 17.946 9.91104 18.0293 9.96324 18.0799L8.57184 19.5165ZM8.52359 16.5024C9.34259 15.6568 10.6921 15.6352 11.5377 16.4542L10.1463 17.8908C10.0941 17.8403 10.0108 17.8416 9.96026 17.8938L8.52359 16.5024ZM11.5377 16.4542L15.7356 20.5198L14.3442 21.9565L10.1463 17.8908L11.5377 16.4542ZM15.2832 20.2682L15.6976 20.3721L15.211 22.312L14.7966 22.2081L15.2832 20.2682ZM14.4564 21.2772L14.4574 21.262L16.4532 21.3917L16.4522 21.407L14.4564 21.2772ZM15.6986 20.3569L19.1182 21.2148L18.6316 23.1546L15.212 22.2968L15.6986 20.3569ZM19.8843 22.5751C19.8078 22.6208 19.7476 22.6795 19.7025 22.7461L18.0473 21.6233C18.2526 21.3207 18.5253 21.0577 18.8567 20.8592L19.8843 22.5751ZM20.9162 21.957L19.8843 22.5751L18.8567 20.8592L19.8886 20.2412L20.9162 21.957Z" fill="white" mask="url(#path-4-outside-2_48_373)"/>
</svg>
