<svg width="32" height="32" viewBox="0 0 32 32" fill="none" xmlns="http://www.w3.org/2000/svg">
<rect x="3" y="3" width="26" height="26" rx="2" stroke="white" stroke-width="2"/>
<line x1="6.92132" y1="25.0815" x2="14.7513" y2="17.3904" stroke="white"/>
<path d="M16.9805 15.1196L15.6124 18.8362L13.2638 16.4877L16.9805 15.1196Z" fill="white"/>
<path d="M9.10667 22.2768L6.26698 25.0375L5.16371 21.9047L9.10667 22.2768Z" fill="white"/>
<path d="M9.72913 23.349L9.91147 27.3053L6.83528 26.0529L9.72913 23.349Z" fill="white"/>
<path fill-rule="evenodd" clip-rule="evenodd" d="M25 16C25 20.9706 20.9706 25 16 25C14.1932 25 12.5107 24.4676 11.101 23.5511L10.3797 24.2723C11.9814 25.3627 13.9163 26 16 26C21.5228 26 26 21.5228 26 16C26 10.4772 21.5228 6 16 6C10.4772 6 6 10.4772 6 16C6 18.5762 6.97417 20.9249 8.57423 22.6977L9.28237 21.9896C7.86279 20.3986 7 18.3 7 16C7 11.0294 11.0294 7 16 7C20.9706 7 25 11.0294 25 16ZM9.88825 21.3837C8.66946 19.9843 7.9314 18.1552 7.9314 16.1537C7.9314 11.7537 11.4983 8.18678 15.8983 8.18678C20.2984 8.18678 23.8653 11.7537 23.8653 16.1537C23.8653 20.5537 20.2984 24.1207 15.8983 24.1207C14.3644 24.1207 12.9317 23.6871 11.7161 22.9359L13.1834 21.4687C13.9978 21.8855 14.9206 22.1207 15.8983 22.1207C19.1938 22.1207 21.8653 19.4492 21.8653 16.1537C21.8653 12.8583 19.1938 10.1868 15.8983 10.1868C12.6029 10.1868 9.93141 12.8583 9.93141 16.1537C9.93141 17.6028 10.448 18.9313 11.307 19.965L9.88825 21.3837ZM14.0773 20.5748C14.6385 20.8062 15.2535 20.9339 15.8983 20.9339C18.5384 20.9339 20.6785 18.7937 20.6785 16.1537C20.6785 13.5137 18.5384 11.3736 15.8983 11.3736C13.2583 11.3736 11.1182 13.5137 11.1182 16.1537C11.1182 17.275 11.5042 18.3061 12.1506 19.1213L13.5813 17.6907C13.2887 17.2504 13.1182 16.722 13.1182 16.1537C13.1182 14.6183 14.3629 13.3736 15.8983 13.3736C17.4338 13.3736 18.6785 14.6183 18.6785 16.1537C18.6785 17.6892 17.4338 18.9339 15.8983 18.9339C15.8396 18.9339 15.7814 18.9321 15.7236 18.9285L14.0773 20.5748Z" fill="white"/>
</svg>
