<svg width="32" height="32" viewBox="0 0 32 32" fill="none" xmlns="http://www.w3.org/2000/svg">
<path fill-rule="evenodd" clip-rule="evenodd" d="M11.9259 5H14.4444V6.35813L21.3704 7.42524V8.63786L14.4444 8.63786V21.3704H11.9259V8.63786L5.62963 8.63786V7.42524L11.9259 6.45514V5ZM14.2757 8.03155L13.1852 7.42524L12.0946 8.03155V9.24417L13.1852 9.85048L14.2757 9.24417V8.03155Z" fill="white"/>
<path d="M10.037 19.2222C10.037 18.6699 10.4847 18.2222 11.037 18.2222H15.3333C15.8856 18.2222 16.3333 18.6699 16.3333 19.2222V20.7407H10.037V19.2222Z" fill="white"/>
<path d="M7.51851 20.4815C7.51851 19.9292 7.96622 19.4815 8.51851 19.4815H17.8518C18.4041 19.4815 18.8518 19.9292 18.8518 20.4815V21.3704H7.51851V20.4815Z" fill="white"/>
<path d="M18.0821 13L19.4815 9.9702L20.8809 13H18.0821Z" stroke="white"/>
<path d="M6.11911 13L7.51852 9.9702L8.91792 13H6.11911Z" stroke="white"/>
<path d="M22 13.1852C22 13.5159 21.9349 13.8434 21.8083 14.149C21.6817 14.4545 21.4962 14.7322 21.2623 14.966C21.0285 15.1999 20.7508 15.3854 20.4453 15.512C20.1397 15.6386 19.8122 15.7037 19.4815 15.7037C19.1507 15.7037 18.8232 15.6386 18.5177 15.512C18.2121 15.3854 17.9345 15.1999 17.7006 14.966C17.4668 14.7322 17.2812 14.4545 17.1547 14.149C17.0281 13.8434 16.963 13.5159 16.963 13.1852L19.4815 13.1852H22Z" fill="white"/>
<path d="M10.037 13.1852C10.037 13.5159 9.97189 13.8434 9.84533 14.149C9.71876 14.4545 9.53325 14.7322 9.29938 14.966C9.06551 15.1999 8.78787 15.3854 8.48231 15.512C8.17675 15.6386 7.84926 15.7037 7.51852 15.7037C7.18778 15.7037 6.86028 15.6386 6.55472 15.512C6.24916 15.3854 5.97152 15.1999 5.73766 14.966C5.50379 14.7322 5.31828 14.4545 5.19171 14.149C5.06514 13.8434 5 13.5159 5 13.1852L7.51852 13.1852H10.037Z" fill="white"/>
<rect x="3" y="3" width="26" height="26" rx="2" stroke="white" stroke-width="2"/>
<path fill-rule="evenodd" clip-rule="evenodd" d="M14.4639 27.7142L15.6044 23.7453L17.7384 22.5541L22.4778 17.8148L20.5922 15.9291L21.535 14.9863L23.4206 16.8719L23.892 17.3433L26.3752 14.8602C26.2564 14.4154 26.3715 13.9211 26.7205 13.5721C27.2412 13.0514 28.0854 13.0514 28.6061 13.5721C29.1268 14.0928 29.1268 14.937 28.6061 15.4577C28.2571 15.8067 27.7628 15.9218 27.318 15.803L24.8348 18.2862L25.3062 18.7576L27.1919 20.6432L26.2491 21.586L24.3634 19.7004L19.624 24.4398L18.4329 26.5738L14.4639 27.7142Z" fill="white"/>
</svg>
