<svg width="32" height="32" viewBox="0 0 32 32" fill="none" xmlns="http://www.w3.org/2000/svg">
<rect x="3" y="3" width="26" height="26" rx="2" stroke="white" stroke-width="2"/>
<path d="M16.2419 25.0733C16.5208 25.4883 16.5209 25.4882 16.521 25.4882L16.5213 25.488L16.5221 25.4874L16.525 25.4855L16.5355 25.4784L16.5747 25.4516C16.6087 25.4282 16.6583 25.394 16.7214 25.3496C16.8478 25.2609 17.0289 25.1315 17.2504 24.9674C17.6931 24.6394 18.2987 24.1715 18.9509 23.6112C20.2401 22.5037 21.7691 20.9868 22.5391 19.447C23.6301 17.2649 23.6118 14.2121 23.3553 11.7884C23.2255 10.5612 23.0309 9.46534 22.869 8.67642C22.7879 8.28163 22.7149 7.96287 22.6619 7.74198C22.6353 7.63152 22.6138 7.54547 22.5988 7.48657L22.5814 7.4189L22.5766 7.40096L22.5753 7.39608L22.575 7.39467L22.5748 7.39423C22.5748 7.39408 22.5748 7.39396 22.0919 7.52357L22.5748 7.39396L22.4932 7.09011L22.184 7.03213L16.3341 5.93528L16.2419 5.918L16.1498 5.93528L10.2999 7.03213L9.99068 7.09011L9.90913 7.39396L10.392 7.52357C9.90913 7.39396 9.9091 7.39408 9.90906 7.39423L9.90894 7.39467L9.90857 7.39608L9.90727 7.40096L9.90254 7.4189L9.88508 7.48657C9.87007 7.54547 9.84855 7.63152 9.82204 7.74198C9.76902 7.96287 9.69596 8.28163 9.61491 8.67642C9.45295 9.46534 9.2584 10.5612 9.12856 11.7884C8.87212 14.2121 8.85376 17.2649 9.94483 19.447C10.7147 20.9868 12.2438 22.5037 13.533 23.6112C14.1852 24.1715 14.7908 24.6394 15.2334 24.9674C15.455 25.1315 15.6361 25.2609 15.7625 25.3496C15.8256 25.394 15.8751 25.4282 15.9092 25.4516L15.9484 25.4784L15.9589 25.4855L15.9618 25.4874L15.9626 25.488L15.9629 25.4882C15.963 25.4882 15.9631 25.4883 16.2419 25.0733ZM16.2419 25.0733L16.5208 25.4883L16.2419 25.6757L15.9631 25.4883L16.2419 25.0733Z" stroke="white"/>
<mask id="path-3-inside-1_36_399" fill="white">
<path fill-rule="evenodd" clip-rule="evenodd" d="M16.2419 7.52357L11.1781 8.51289C11.1781 8.51289 9.40938 15.3796 11.1781 19.0657C12.4288 21.6721 16.2419 24.3421 16.2419 24.3421C16.2419 24.3421 20.055 21.6721 21.3057 19.0657C23.0745 15.3796 21.3057 8.51289 21.3057 8.51289L16.2419 7.52357ZM19.8908 9.8204C19.491 9.87734 19.2131 10.2476 19.27 10.6474L19.5793 12.8192C19.6363 13.2191 20.0065 13.497 20.4064 13.4401C20.8062 13.3831 21.0841 13.0128 21.0272 12.613L20.7179 10.4412C20.6609 10.0414 20.2906 9.76345 19.8908 9.8204Z"/>
</mask>
<path fill-rule="evenodd" clip-rule="evenodd" d="M16.2419 7.52357L11.1781 8.51289C11.1781 8.51289 9.40938 15.3796 11.1781 19.0657C12.4288 21.6721 16.2419 24.3421 16.2419 24.3421C16.2419 24.3421 20.055 21.6721 21.3057 19.0657C23.0745 15.3796 21.3057 8.51289 21.3057 8.51289L16.2419 7.52357ZM19.8908 9.8204C19.491 9.87734 19.2131 10.2476 19.27 10.6474L19.5793 12.8192C19.6363 13.2191 20.0065 13.497 20.4064 13.4401C20.8062 13.3831 21.0841 13.0128 21.0272 12.613L20.7179 10.4412C20.6609 10.0414 20.2906 9.76345 19.8908 9.8204Z" fill="white"/>
<path d="M11.1781 8.51289L10.9864 7.53145L10.3671 7.65243L10.2098 8.26345L11.1781 8.51289ZM16.2419 7.52357L16.4337 6.54212L16.2419 6.50466L16.0502 6.54212L16.2419 7.52357ZM11.1781 19.0657L10.2766 19.4983L11.1781 19.0657ZM16.2419 24.3421L15.6684 25.1612L16.2419 25.5628L16.8155 25.1612L16.2419 24.3421ZM21.3057 19.0657L20.4042 18.633L21.3057 19.0657ZM21.3057 8.51289L22.2741 8.26345L22.1167 7.65243L21.4975 7.53145L21.3057 8.51289ZM19.27 10.6474L20.26 10.5064V10.5064L19.27 10.6474ZM19.8908 9.8204L20.0318 10.8104L19.8908 9.8204ZM19.5793 12.8192L18.5893 12.9602V12.9602L19.5793 12.8192ZM20.4064 13.4401L20.5474 14.4301H20.5474L20.4064 13.4401ZM21.0272 12.613L20.0372 12.754V12.754L21.0272 12.613ZM20.7179 10.4412L21.7079 10.3002V10.3002L20.7179 10.4412ZM11.3699 9.49434L16.4337 8.50501L16.0502 6.54212L10.9864 7.53145L11.3699 9.49434ZM12.0797 18.633C11.3249 17.0599 11.2904 14.6679 11.5097 12.508C11.6164 11.458 11.7767 10.5162 11.9106 9.83672C11.9774 9.49761 12.0373 9.22543 12.0801 9.03962C12.1015 8.94675 12.1186 8.87557 12.1301 8.82852C12.1358 8.805 12.1402 8.78752 12.143 8.77638C12.1444 8.77081 12.1454 8.76683 12.146 8.76448C12.1463 8.7633 12.1465 8.76253 12.1466 8.76217C12.1466 8.76199 12.1466 8.76192 12.1466 8.76194C12.1466 8.76196 12.1466 8.76205 12.1466 8.76206C12.1466 8.76218 12.1465 8.76233 11.1781 8.51289C10.2098 8.26345 10.2097 8.26365 10.2096 8.26388C10.2096 8.26399 10.2095 8.26425 10.2095 8.26447C10.2094 8.26491 10.2092 8.26546 10.2091 8.26612C10.2087 8.26742 10.2083 8.26915 10.2078 8.27129C10.2067 8.27556 10.2052 8.28149 10.2033 8.28902C10.1995 8.3041 10.1941 8.32562 10.1874 8.35329C10.1738 8.40863 10.1546 8.48858 10.1311 8.59067C10.0841 8.79478 10.0196 9.08786 9.94827 9.4501C9.80578 10.1733 9.63445 11.1786 9.51997 12.306C9.2971 14.501 9.26268 17.3854 10.2766 19.4983L12.0797 18.633ZM16.2419 24.3421C16.8155 23.5229 16.8156 23.523 16.8157 23.523C16.8157 23.523 16.8158 23.5231 16.8158 23.5231C16.8159 23.5232 16.8159 23.5231 16.8158 23.5231C16.8157 23.523 16.8153 23.5228 16.8147 23.5223C16.8135 23.5215 16.8115 23.5201 16.8085 23.518C16.8026 23.5138 16.7932 23.5071 16.7805 23.498C16.7551 23.4799 16.7165 23.4521 16.6663 23.4153C16.5657 23.3417 16.4187 23.2323 16.2377 23.0926C15.8748 22.8125 15.3786 22.4129 14.846 21.9362C13.7526 20.9574 12.6147 19.7479 12.0797 18.633L10.2766 19.4983C10.9923 20.9899 12.3863 22.4186 13.5121 23.4263C14.0891 23.9429 14.6243 24.3737 15.0155 24.6757C15.2115 24.827 15.3722 24.9466 15.485 25.0292C15.5415 25.0705 15.586 25.1026 15.6171 25.1248C15.6326 25.1359 15.6448 25.1446 15.6534 25.1507C15.6577 25.1537 15.6611 25.1561 15.6636 25.1579C15.6649 25.1588 15.6659 25.1595 15.6667 25.16C15.6671 25.1603 15.6674 25.1605 15.6677 25.1607C15.6678 25.1608 15.668 25.161 15.6681 25.161C15.6682 25.1611 15.6684 25.1612 16.2419 24.3421ZM20.4042 18.633C19.8692 19.7479 18.7313 20.9574 17.6378 21.9362C17.1053 22.4129 16.609 22.8125 16.2462 23.0926C16.0651 23.2323 15.9182 23.3417 15.8176 23.4153C15.7674 23.4521 15.7288 23.4799 15.7033 23.498C15.6906 23.5071 15.6812 23.5138 15.6754 23.518C15.6724 23.5201 15.6703 23.5215 15.6692 23.5223C15.6686 23.5228 15.6682 23.523 15.6681 23.5231C15.668 23.5231 15.668 23.5232 15.668 23.5231C15.6681 23.5231 15.6681 23.523 15.6682 23.523C15.6683 23.523 15.6684 23.5229 16.2419 24.3421C16.8155 25.1612 16.8156 25.1611 16.8158 25.161C16.8159 25.161 16.816 25.1608 16.8162 25.1607C16.8165 25.1605 16.8168 25.1603 16.8172 25.16C16.818 25.1595 16.819 25.1588 16.8203 25.1579C16.8228 25.1561 16.8262 25.1537 16.8305 25.1507C16.8391 25.1446 16.8512 25.1359 16.8668 25.1248C16.8978 25.1026 16.9424 25.0705 16.9988 25.0292C17.1117 24.9466 17.2724 24.827 17.4683 24.6757C17.8595 24.3737 18.3948 23.9429 18.9718 23.4263C20.0976 22.4186 21.4916 20.9899 22.2073 19.4983L20.4042 18.633ZM21.3057 8.51289C20.3373 8.76233 20.3373 8.76218 20.3373 8.76206C20.3373 8.76205 20.3372 8.76196 20.3372 8.76194C20.3372 8.76192 20.3372 8.76199 20.3373 8.76217C20.3374 8.76253 20.3376 8.7633 20.3379 8.76448C20.3385 8.76683 20.3395 8.77081 20.3409 8.77638C20.3437 8.78752 20.348 8.805 20.3538 8.82852C20.3653 8.87557 20.3824 8.94675 20.4038 9.03962C20.4466 9.22543 20.5065 9.49761 20.5733 9.83672C20.7072 10.5162 20.8675 11.458 20.9741 12.508C21.1934 14.6679 21.159 17.0599 20.4042 18.633L22.2073 19.4983C23.2212 17.3854 23.1868 14.501 22.9639 12.306C22.8494 11.1786 22.6781 10.1733 22.5356 9.4501C22.4642 9.08786 22.3998 8.79478 22.3528 8.59067C22.3292 8.48858 22.3101 8.40863 22.2965 8.35329C22.2897 8.32562 22.2844 8.3041 22.2806 8.28902C22.2787 8.28149 22.2772 8.27556 22.2761 8.27129C22.2756 8.26915 22.2751 8.26742 22.2748 8.26612C22.2746 8.26546 22.2745 8.26491 22.2744 8.26447C22.2743 8.26425 22.2743 8.26399 22.2742 8.26388C22.2742 8.26365 22.2741 8.26345 21.3057 8.51289ZM16.0502 8.50501L21.114 9.49434L21.4975 7.53145L16.4337 6.54212L16.0502 8.50501ZM20.26 10.5064C20.2809 10.6534 20.1788 10.7895 20.0318 10.8104L19.7498 8.83039C18.8032 8.96521 18.1452 9.84186 18.28 10.7884L20.26 10.5064ZM20.5693 12.6782L20.26 10.5064L18.28 10.7884L18.5893 12.9602L20.5693 12.6782ZM20.2654 12.45C20.4123 12.4291 20.5484 12.5313 20.5693 12.6782L18.5893 12.9602C18.7241 13.9068 19.6008 14.5649 20.5474 14.4301L20.2654 12.45ZM20.0372 12.754C20.0162 12.6071 20.1184 12.471 20.2654 12.45L20.5474 14.4301C21.494 14.2952 22.152 13.4186 22.0172 12.472L20.0372 12.754ZM19.7279 10.5822L20.0372 12.754L22.0172 12.472L21.7079 10.3002L19.7279 10.5822ZM20.0318 10.8104C19.8849 10.8313 19.7488 10.7292 19.7279 10.5822L21.7079 10.3002C21.573 9.35363 20.6964 8.69557 19.7498 8.83039L20.0318 10.8104Z" fill="white" mask="url(#path-3-inside-1_36_399)"/>
</svg>
