<svg width="32" height="32" viewBox="0 0 32 32" fill="none" xmlns="http://www.w3.org/2000/svg">
<path fill-rule="evenodd" clip-rule="evenodd" d="M7 16.3462C6.44772 16.3462 6 16.7939 6 17.3462V27.1154H26V17.3462C26 16.7939 25.5523 16.3462 25 16.3462H7ZM13.6923 19.4231H9.84615V22.5H13.6923V19.4231ZM15.2308 19.4231H19.0769V22.5H15.2308V19.4231ZM24.4615 19.4231H20.6154V22.5H24.4615V19.4231Z" fill="white"/>
<path d="M15.2308 10.9615H16.7692L17.5385 17.1154H14.4615L15.2308 10.9615Z" fill="white"/>
<path d="M22.1538 10.9615H23.6923L24.4615 17.1154H21.3846L22.1538 10.9615Z" fill="white"/>
<path d="M6.76923 9.04264C6.76923 9.04264 9.20835 10.7971 11.3846 10.5811C13.7947 10.3418 15.119 7.99713 17.5385 7.88879C19.4365 7.80381 22.1538 9.04264 22.1538 9.04264" stroke="white" stroke-width="3"/>
<rect x="3" y="3" width="26" height="26" rx="2" stroke="white" stroke-width="2"/>
</svg>
