<svg width="32" height="32" viewBox="0 0 32 32" fill="none" xmlns="http://www.w3.org/2000/svg">
<rect x="3" y="3" width="26" height="26" rx="2" stroke="white" stroke-width="2"/>
<path d="M16 10.3331C18.7906 10.3331 21.3618 11.4094 23.2725 12.5293C24.2014 13.0737 24.9571 13.6184 25.4844 14.031C24.9553 14.4814 24.1885 15.0828 23.2421 15.6837C21.3302 16.8977 18.77 18.0558 16 18.0558C13.23 18.0558 10.6698 16.8977 8.75786 15.6837C7.81155 15.0828 7.04469 14.4814 6.51557 14.031C7.04295 13.6184 7.79857 13.0737 8.72749 12.5293C10.6382 11.4094 13.2094 10.3331 16 10.3331Z" stroke="white" stroke-width="2"/>
<path fill-rule="evenodd" clip-rule="evenodd" d="M16 19C17.6569 19 19 17.6569 19 16C19 15.6925 18.9537 15.3959 18.8678 15.1166C18.6326 15.6375 18.1087 16 17.5 16C16.6716 16 16 15.3284 16 14.5C16 13.8913 16.3625 13.3674 16.8834 13.1322C16.6041 13.0463 16.3075 13 16 13C14.3431 13 13 14.3431 13 16C13 17.6569 14.3431 19 16 19Z" fill="white"/>
<line x1="6.83205" y1="7.4453" x2="8.83205" y2="10.4453" stroke="white" stroke-width="2"/>
<line y1="-1" x2="3.60555" y2="-1" transform="matrix(-0.5547 0.83205 0.83205 0.5547 26 8)" stroke="white" stroke-width="2"/>
<line x1="16" y1="5" x2="16" y2="9" stroke="white" stroke-width="2"/>
<rect x="25.5" y="20.5" width="6" height="19" transform="rotate(90 25.5 20.5)" stroke="white"/>
<line x1="22.82" y1="23.68" x2="22.82" y2="26.44" stroke="white"/>
<line x1="20.06" y1="23.68" x2="20.06" y2="26.44" stroke="white"/>
<line x1="17.3" y1="22.76" x2="17.3" y2="26.44" stroke="white"/>
<line x1="14.54" y1="23.68" x2="14.54" y2="26.44" stroke="white"/>
<line x1="11.78" y1="23.68" x2="11.78" y2="26.44" stroke="white"/>
<line x1="9.01999" y1="22.76" x2="9.01999" y2="26.44" stroke="white"/>
</svg>
