<svg width="32" height="32" viewBox="0 0 32 32" fill="none" xmlns="http://www.w3.org/2000/svg">
<rect x="3" y="3" width="26" height="26" rx="2" stroke="white" stroke-width="2"/>
<path fill-rule="evenodd" clip-rule="evenodd" d="M8.78858 13.3283C8.88425 13.3344 8.98073 13.3501 9.07689 13.3758L10.4443 13.7422C10.6631 13.8008 10.857 13.9058 11.0185 14.0438L18.8725 9.50923C19.3176 9.25225 19.8868 9.40476 20.1438 9.84987C20.4008 10.295 20.2483 10.8641 19.8031 11.1211L13.7614 14.6093C14.4287 14.2261 15.2805 14.4552 15.6654 15.1219C16.0509 15.7896 15.8222 16.6433 15.1545 17.0288C15.8222 16.6433 16.6759 16.8721 17.0614 17.5397C17.4469 18.2074 17.2181 19.0612 16.5504 19.4466L15.8995 19.8225C16.4815 19.4864 17.2258 19.6858 17.5619 20.2679C17.898 20.85 17.6985 21.5943 17.1165 21.9303L12.9007 24.3643C12.6858 24.4884 12.4486 24.5395 12.2181 24.5252L7.79366 26.5603L4.76189 19.502L5.79074 18.4822C5.66707 18.1562 5.64096 17.7897 5.7381 17.4272L6.52348 14.4961C6.76961 13.5775 7.71381 13.0324 8.63239 13.2785C8.68574 13.2928 8.73783 13.3095 8.78858 13.3283Z" fill="white"/>
<path d="M8.78858 13.3283L8.61438 13.797L8.6833 13.8226L8.75666 13.8273L8.78858 13.3283ZM9.07689 13.3758L8.94748 13.8588L8.94748 13.8588L9.07689 13.3758ZM10.4443 13.7422L10.3149 14.2252L10.3149 14.2252L10.4443 13.7422ZM11.0185 14.0438L10.6937 14.4239L10.9624 14.6535L11.2685 14.4768L11.0185 14.0438ZM18.8725 9.50923L18.6225 9.07622L18.8725 9.50923ZM13.7614 14.6093L13.5114 14.1763L14.0104 15.0429L13.7614 14.6093ZM16.5504 19.4466L16.3004 19.0136L16.3004 19.0136L16.5504 19.4466ZM12.2181 24.5252L12.2491 24.0261L12.1235 24.0184L12.0092 24.0709L12.2181 24.5252ZM7.79366 26.5603L7.33425 26.7576L7.53666 27.2289L8.0026 27.0145L7.79366 26.5603ZM4.76189 19.502L4.40991 19.1469L4.16812 19.3865L4.30248 19.6993L4.76189 19.502ZM5.79074 18.4822L6.14272 18.8373L6.37345 18.6086L6.25823 18.3049L5.79074 18.4822ZM5.7381 17.4272L6.22107 17.5566L5.7381 17.4272ZM6.52348 14.4961L7.00644 14.6255L7.00644 14.6255L6.52348 14.4961ZM8.63239 13.2785L8.50298 13.7615L8.50298 13.7615L8.63239 13.2785ZM8.75666 13.8273C8.81957 13.8313 8.88339 13.8416 8.94748 13.8588L9.2063 12.8929C9.07808 12.8585 8.94893 12.8376 8.82049 12.8293L8.75666 13.8273ZM8.94748 13.8588L10.3149 14.2252L10.5737 13.2592L9.2063 12.8929L8.94748 13.8588ZM10.3149 14.2252C10.4602 14.2641 10.5877 14.3333 10.6937 14.4239L11.3433 13.6636C11.1264 13.4783 10.866 13.3376 10.5737 13.2592L10.3149 14.2252ZM11.2685 14.4768L19.1225 9.94225L18.6225 9.07622L10.7685 13.6108L11.2685 14.4768ZM19.1225 9.94225C19.3285 9.82333 19.5919 9.8939 19.7108 10.0999L20.5768 9.59987C20.1817 8.91561 19.3068 8.68116 18.6225 9.07622L19.1225 9.94225ZM19.7108 10.0999C19.8297 10.3058 19.7591 10.5692 19.5531 10.6881L20.0531 11.5541C20.7374 11.1591 20.9719 10.2841 20.5768 9.59987L19.7108 10.0999ZM19.5531 10.6881L13.5114 14.1763L14.0114 15.0423L20.0531 11.5541L19.5531 10.6881ZM14.0104 15.0429C14.4386 14.797 14.9854 14.944 15.2324 15.3719L16.0985 14.8719C15.5757 13.9664 14.4187 13.6553 13.5124 14.1757L14.0104 15.0429ZM15.2324 15.3719C15.4798 15.8004 15.333 16.3484 14.9045 16.5958L15.4045 17.4618C16.3113 16.9383 16.622 15.7787 16.0985 14.8719L15.2324 15.3719ZM15.4045 17.4618C15.833 17.2144 16.381 17.3612 16.6284 17.7897L17.4944 17.2897C16.9708 16.3829 15.8113 16.0722 14.9045 16.5958L15.4045 17.4618ZM16.6284 17.7897C16.8758 18.2183 16.729 18.7662 16.3004 19.0136L16.8004 19.8796C17.7072 19.3561 18.0179 18.1966 17.4944 17.2897L16.6284 17.7897ZM16.3004 19.0136L15.6495 19.3895L16.1495 20.2555L16.8004 19.8796L16.3004 19.0136ZM16.1495 20.2555C16.4924 20.0575 16.9309 20.175 17.1289 20.5179L17.9949 20.0179C17.5208 19.1967 16.4707 18.9153 15.6495 19.3895L16.1495 20.2555ZM17.1289 20.5179C17.3269 20.8608 17.2094 21.2993 16.8665 21.4973L17.3665 22.3633C18.1877 21.8892 18.469 20.8391 17.9949 20.0179L17.1289 20.5179ZM16.8665 21.4973L12.6507 23.9312L13.1507 24.7973L17.3665 22.3633L16.8665 21.4973ZM12.6507 23.9312C12.5235 24.0047 12.3845 24.0345 12.2491 24.0261L12.1872 25.0242C12.5128 25.0444 12.8481 24.972 13.1507 24.7973L12.6507 23.9312ZM12.0092 24.0709L7.58472 26.106L8.0026 27.0145L12.4271 24.9794L12.0092 24.0709ZM8.25308 26.363L5.2213 19.3047L4.30248 19.6993L7.33425 26.7576L8.25308 26.363ZM5.11387 19.8571L6.14272 18.8373L5.43876 18.1271L4.40991 19.1469L5.11387 19.8571ZM6.25823 18.3049C6.17054 18.0737 6.15197 17.8144 6.22107 17.5566L5.25514 17.2977C5.12996 17.7649 5.16361 18.2387 5.32324 18.6596L6.25823 18.3049ZM6.22107 17.5566L7.00644 14.6255L6.04052 14.3667L5.25514 17.2977L6.22107 17.5566ZM7.00644 14.6255C7.18111 13.9737 7.85113 13.5868 8.50298 13.7615L8.7618 12.7956C7.57648 12.4779 6.35812 13.1814 6.04052 14.3667L7.00644 14.6255ZM8.50298 13.7615C8.54116 13.7717 8.57831 13.7836 8.61438 13.797L8.96277 12.8596C8.89735 12.8353 8.83032 12.8139 8.7618 12.7956L8.50298 13.7615Z" fill="white"/>
<rect x="26" y="6" width="3" height="3" rx="1.5" transform="rotate(90 26 6)" fill="white"/>
</svg>
