<svg width="32" height="32" viewBox="0 0 32 32" fill="none" xmlns="http://www.w3.org/2000/svg">
<path fill-rule="evenodd" clip-rule="evenodd" d="M8.65904 13.712C8.75518 13.7139 8.85255 13.7252 8.95004 13.7468L10.3364 14.0529C10.5582 14.1019 10.7572 14.1985 10.9251 14.3295L18.592 9.43639C19.0265 9.15908 19.6035 9.28652 19.8808 9.72103C20.1581 10.1555 20.0307 10.7326 19.5962 11.0099L11.7288 16.0309L11.7288 16.031L13.6957 14.7757C14.3474 14.3597 15.213 14.5509 15.6289 15.2026C16.0433 15.852 15.8552 16.7135 15.2093 17.1312C15.8602 16.7214 16.7208 16.9136 17.1352 17.5629C17.5511 18.2146 17.36 19.0802 16.7082 19.4961L14.7414 20.7514L14.7414 20.7514L16.0728 19.9017C16.641 19.5391 17.3956 19.7057 17.7582 20.2739C18.1208 20.8421 17.9542 21.5967 17.386 21.9593L13.2707 24.5857C13.0609 24.7197 12.8256 24.7814 12.594 24.7774L8.25181 27.0135L4.89978 20.0769L5.88515 19.0093C5.74673 18.6882 5.70424 18.3221 5.78542 17.9546L6.44169 14.983C6.64736 14.0517 7.56906 13.4634 8.50036 13.6691C8.55444 13.681 8.60736 13.6954 8.65904 13.712Z" fill="white"/>
<path d="M8.65904 13.712L8.50584 14.188L8.57583 14.2105L8.64934 14.2119L8.65904 13.712ZM8.95004 13.7468L8.84222 14.235L8.84222 14.235L8.95004 13.7468ZM10.3364 14.0529L10.2285 14.5412L10.2285 14.5412L10.3364 14.0529ZM10.9251 14.3295L10.6175 14.7237L10.8961 14.9411L11.1941 14.751L10.9251 14.3295ZM18.592 9.43639L18.323 9.01491L18.592 9.43639ZM19.5962 11.0099L19.8652 11.4314L19.5962 11.0099ZM11.7288 16.0309L11.4598 15.6094L11.0383 15.8784L11.3073 16.2999L11.7288 16.0309ZM11.7288 16.031L11.3073 16.2999L11.5763 16.7214L11.9978 16.4524L11.7288 16.031ZM15.2093 17.1312L14.9378 16.7114L15.4757 17.5543L15.2093 17.1312ZM14.7414 20.7514L14.4724 20.3299L14.051 20.5989L14.3199 21.0204L14.7414 20.7514ZM14.7414 20.7514L14.3199 21.0204L14.5889 21.4419L15.0104 21.1729L14.7414 20.7514ZM17.386 21.9593L17.655 22.3808L17.386 21.9593ZM13.2707 24.5857L13.0017 24.1643L13.2707 24.5857ZM12.594 24.7774L12.6027 24.2774L12.477 24.2753L12.3651 24.3329L12.594 24.7774ZM8.25181 27.0135L7.80161 27.231L8.02476 27.6928L8.48072 27.458L8.25181 27.0135ZM4.89978 20.0769L4.53237 19.7377L4.30146 19.9879L4.44959 20.2944L4.89978 20.0769ZM5.88515 19.0093L6.25257 19.3484L6.47291 19.1097L6.34431 18.8114L5.88515 19.0093ZM5.78542 17.9546L6.27365 18.0624L5.78542 17.9546ZM6.44169 14.983L6.92992 15.0908L6.44169 14.983ZM8.50036 13.6691L8.39253 14.1573L8.39253 14.1573L8.50036 13.6691ZM8.64934 14.2119C8.71264 14.2132 8.77714 14.2206 8.84222 14.235L9.05787 13.2585C8.92795 13.2299 8.79771 13.2146 8.66874 13.2121L8.64934 14.2119ZM8.84222 14.235L10.2285 14.5412L10.4442 13.5647L9.05787 13.2585L8.84222 14.235ZM10.2285 14.5412C10.376 14.5738 10.5071 14.6375 10.6175 14.7237L11.2327 13.9353C11.0073 13.7594 10.7403 13.6301 10.4442 13.5647L10.2285 14.5412ZM11.1941 14.751L18.861 9.85787L18.323 9.01491L10.6561 13.908L11.1941 14.751ZM18.861 9.85787C19.0627 9.72912 19.3306 9.78829 19.4594 9.99002L20.3023 9.45203C19.8764 8.78475 18.9903 8.58905 18.323 9.01491L18.861 9.85787ZM19.4594 9.99002C19.5881 10.1917 19.5289 10.4597 19.3272 10.5884L19.8652 11.4314C20.5325 11.0055 20.7282 10.1193 20.3023 9.45203L19.4594 9.99002ZM19.3272 10.5884L11.4598 15.6094L11.9978 16.4524L19.8652 11.4314L19.3272 10.5884ZM11.3073 16.2999L11.3073 16.2999L12.1503 15.762L12.1503 15.7619L11.3073 16.2999ZM11.9978 16.4524L13.9647 15.1972L13.4267 14.3542L11.4598 15.6095L11.9978 16.4524ZM13.9647 15.1972C14.3836 14.9298 14.9401 15.0527 15.2075 15.4716L16.0504 14.9337C15.4859 14.0491 14.3112 13.7897 13.4267 14.3542L13.9647 15.1972ZM15.2075 15.4716C15.4739 15.889 15.3529 16.4429 14.9378 16.7114L15.4809 17.551C16.3575 16.9841 16.6128 15.8149 16.0504 14.9337L15.2075 15.4716ZM15.4757 17.5543C15.8941 17.2909 16.4473 17.4145 16.7137 17.8319L17.5567 17.2939C16.9943 16.4127 15.8263 16.1519 14.9429 16.7081L15.4757 17.5543ZM16.7137 17.8319C16.9811 18.2508 16.8582 18.8073 16.4392 19.0747L16.9772 19.9176C17.8618 19.3531 18.1212 18.1784 17.5567 17.2939L16.7137 17.8319ZM16.4392 19.0747L14.4724 20.3299L15.0104 21.1729L16.9772 19.9176L16.4392 19.0747ZM14.3199 21.0204L14.3199 21.0204L15.1629 20.4824L15.1629 20.4824L14.3199 21.0204ZM15.0104 21.1729L16.3418 20.3232L15.8038 19.4802L14.4724 20.3299L15.0104 21.1729ZM16.3418 20.3232C16.6772 20.1091 17.1227 20.2075 17.3367 20.5429L18.1797 20.0049C17.6685 19.2039 16.6048 18.969 15.8038 19.4802L16.3418 20.3232ZM17.3367 20.5429C17.5508 20.8783 17.4524 21.3238 17.117 21.5379L17.655 22.3808C18.456 21.8696 18.6909 20.8059 18.1797 20.0049L17.3367 20.5429ZM17.117 21.5379L13.0017 24.1643L13.5397 25.0072L17.655 22.3808L17.117 21.5379ZM13.0017 24.1643C12.8772 24.2437 12.7391 24.2798 12.6027 24.2774L12.5853 25.2773C12.9121 25.283 13.2445 25.1956 13.5397 25.0072L13.0017 24.1643ZM12.3651 24.3329L8.02289 26.569L8.48072 27.458L12.8229 25.2219L12.3651 24.3329ZM8.702 26.7959L5.34997 19.8593L4.44959 20.2944L7.80161 27.231L8.702 26.7959ZM5.26719 20.416L6.25257 19.3484L5.51774 18.6702L4.53237 19.7377L5.26719 20.416ZM6.34431 18.8114C6.24603 18.5834 6.21585 18.3242 6.27365 18.0624L5.29718 17.8468C5.19264 18.3201 5.24743 18.793 5.426 19.2072L6.34431 18.8114ZM6.27365 18.0624L6.92992 15.0908L5.95345 14.8751L5.29718 17.8468L6.27365 18.0624ZM6.92992 15.0908C7.07604 14.4291 7.73088 14.0112 8.39253 14.1573L8.60818 13.1809C7.40724 12.9156 6.21867 13.6742 5.95345 14.8751L6.92992 15.0908ZM8.39253 14.1573C8.43128 14.1659 8.46906 14.1762 8.50584 14.188L8.81224 13.2361C8.74566 13.2147 8.67759 13.1962 8.60818 13.1809L8.39253 14.1573Z" fill="white"/>
<line x1="20.9177" y1="6.9214" x2="21.6567" y2="4.19123" stroke="white"/>
<line y1="-0.5" x2="2.82843" y2="-0.5" transform="matrix(0.965262 0.261283 0.261283 -0.965262 22.8937 9.65394)" stroke="white"/>
<line x1="22.147" y1="8.35299" x2="24.7489" y2="6.85962" stroke="white"/>
<rect x="3" y="3" width="26" height="26" rx="2" stroke="white" stroke-width="2"/>
</svg>
