<svg width="32" height="32" viewBox="0 0 32 32" fill="none" xmlns="http://www.w3.org/2000/svg">
<path d="M12.515 8.86195C15.1823 8.14724 17.924 9.73015 18.6387 12.3975L18.773 12.8987C19.4877 15.566 17.9048 18.3077 15.2375 19.0224L6.54761 21.3509L3.82512 11.1904L12.515 8.86195Z" stroke="white" stroke-width="2"/>
<rect x="23.8344" y="9.11384" width="4.17297" height="5.56396" transform="rotate(75 23.8344 9.11384)" fill="white"/>
<path d="M7.8053 11.3204C7.8053 11.3204 8.94743 13.0224 10.3208 13.2185C11.8418 13.4357 13.1177 11.9121 14.6184 12.228C15.7956 12.4758 17.2105 13.8406 17.2105 13.8406" stroke="white" stroke-width="2"/>
<rect x="22.3107" y="8.80206" width="5.56396" height="2.08648" transform="rotate(75 22.3107 8.80206)" fill="white"/>
<mask id="path-5-inside-1_150_361" fill="white">
<path fill-rule="evenodd" clip-rule="evenodd" d="M24.1778 16.1634C23.6329 16.6157 23.2859 17.2981 23.2859 18.0616C23.2859 19.4234 24.3899 20.5274 25.7517 20.5274C27.1135 20.5274 28.2175 19.4234 28.2175 18.0616C28.2175 17.3155 27.8861 16.6467 27.3624 16.1946L24.827 13.1301C24.827 13.1301 25.015 14.2821 24.827 14.9794C24.7202 15.3758 24.4411 15.8134 24.1778 16.1634Z"/>
</mask>
<path d="M24.1778 16.1634L24.8165 16.9329L24.9066 16.8581L24.9769 16.7646L24.1778 16.1634ZM27.3624 16.1946L26.5919 16.832L26.6454 16.8967L26.7089 16.9515L27.3624 16.1946ZM24.827 13.1301L25.5975 12.4926L23.246 9.65043L23.8401 13.2911L24.827 13.1301ZM24.827 14.9794L25.7926 15.2397L24.827 14.9794ZM24.2859 18.0616C24.2859 17.6081 24.4907 17.2033 24.8165 16.9329L23.5391 15.394C22.7752 16.0281 22.2859 16.9882 22.2859 18.0616L24.2859 18.0616ZM25.7517 19.5274C24.9422 19.5274 24.2859 18.8711 24.2859 18.0616L22.2859 18.0616C22.2859 19.9757 23.8376 21.5274 25.7517 21.5274L25.7517 19.5274ZM27.2175 18.0616C27.2175 18.8711 26.5612 19.5274 25.7517 19.5274L25.7517 21.5274C27.6658 21.5274 29.2175 19.9757 29.2175 18.0616L27.2175 18.0616ZM26.7089 16.9515C27.0219 17.2218 27.2175 17.6183 27.2175 18.0616L29.2175 18.0616C29.2175 17.0127 28.7502 16.0717 28.016 15.4377L26.7089 16.9515ZM24.0565 13.7676L26.5919 16.832L28.1329 15.5571L25.5975 12.4926L24.0565 13.7676ZM25.7926 15.2397C25.9316 14.724 25.9201 14.1233 25.8956 13.7308C25.8823 13.5185 25.8624 13.3322 25.8459 13.1984C25.8376 13.1312 25.83 13.0764 25.8243 13.0372C25.8215 13.0176 25.8191 13.0019 25.8173 12.9904C25.8165 12.9847 25.8157 12.98 25.8151 12.9764C25.8149 12.9746 25.8146 12.9731 25.8144 12.9719C25.8143 12.9713 25.8142 12.9707 25.8142 12.9703C25.8141 12.97 25.8141 12.9698 25.8141 12.9696C25.814 12.9695 25.814 12.9694 25.814 12.9693C25.814 12.9692 25.814 12.9691 24.827 13.1301C23.8401 13.2911 23.8401 13.291 23.84 13.2909C23.84 13.2909 23.84 13.2908 23.84 13.2907C23.84 13.2906 23.84 13.2905 23.8399 13.2904C23.8399 13.2902 23.8399 13.2901 23.8399 13.29C23.8399 13.2899 23.8399 13.29 23.84 13.2904C23.8401 13.2913 23.8404 13.2931 23.8408 13.296C23.8417 13.3017 23.8432 13.3114 23.8451 13.3247C23.849 13.3513 23.8546 13.3919 23.861 13.4436C23.8738 13.5476 23.8893 13.6928 23.8995 13.8558C23.9219 14.2136 23.9104 14.5376 23.8615 14.7191L25.7926 15.2397ZM24.9769 16.7646C25.2542 16.3961 25.6332 15.8308 25.7926 15.2397L23.8615 14.7191C23.8071 14.9208 23.6281 15.2308 23.3787 15.5622L24.9769 16.7646Z" fill="white" mask="url(#path-5-inside-1_150_361)"/>
<circle cx="0.739729" cy="0.739729" r="0.739729" transform="matrix(-0.965926 0.258819 0.258819 0.965926 25.2718 16.4271)" fill="white"/>
<mask id="path-8-inside-2_150_361" fill="white">
<path fill-rule="evenodd" clip-rule="evenodd" d="M23.7412 23.2662C23.1963 23.7185 22.8493 24.4009 22.8493 25.1644C22.8493 26.5262 23.9533 27.6302 25.3151 27.6302C26.6769 27.6302 27.7808 26.5262 27.7808 25.1644C27.7808 24.4183 27.4494 23.7495 26.9258 23.2974L24.3904 20.2329C24.3904 20.2329 24.5784 21.3849 24.3904 22.0822C24.2835 22.4786 24.0045 22.9162 23.7412 23.2662Z"/>
</mask>
<path d="M23.7412 23.2662L24.3799 24.0357L24.4699 23.9609L24.5403 23.8674L23.7412 23.2662ZM26.9258 23.2974L26.1553 23.9348L26.2087 23.9994L26.2722 24.0543L26.9258 23.2974ZM24.3904 20.2329L25.1609 19.5954L22.8094 16.7532L23.4034 20.3939L24.3904 20.2329ZM24.3904 22.0822L25.3559 22.3425L24.3904 22.0822ZM23.8493 25.1644C23.8493 24.7109 24.0541 24.3061 24.3799 24.0357L23.1025 22.4968C22.3385 23.1309 21.8493 24.091 21.8493 25.1644L23.8493 25.1644ZM25.3151 26.6302C24.5055 26.6302 23.8493 25.9739 23.8493 25.1644L21.8493 25.1644C21.8493 27.0785 23.401 28.6302 25.3151 28.6302L25.3151 26.6302ZM26.7808 25.1644C26.7808 25.9739 26.1246 26.6302 25.3151 26.6302L25.3151 28.6302C27.2291 28.6302 28.7808 27.0785 28.7808 25.1644L26.7808 25.1644ZM26.2722 24.0543C26.5852 24.3246 26.7808 24.7211 26.7808 25.1644L28.7808 25.1644C28.7808 24.1155 28.3136 23.1745 27.5793 22.5405L26.2722 24.0543ZM23.6199 20.8704L26.1553 23.9348L27.6963 22.6599L25.1609 19.5954L23.6199 20.8704ZM25.3559 22.3425C25.4949 21.8268 25.4835 21.226 25.4589 20.8336C25.4456 20.6213 25.4258 20.435 25.4093 20.3012C25.401 20.234 25.3934 20.1792 25.3877 20.14C25.3849 20.1204 25.3825 20.1047 25.3807 20.0932C25.3798 20.0875 25.3791 20.0828 25.3785 20.0792C25.3782 20.0774 25.378 20.0759 25.3778 20.0747C25.3777 20.0741 25.3776 20.0735 25.3775 20.0731C25.3775 20.0728 25.3774 20.0726 25.3774 20.0724C25.3774 20.0723 25.3774 20.0722 25.3774 20.0721C25.3773 20.072 25.3773 20.0719 24.3904 20.2329C23.4034 20.3939 23.4034 20.3938 23.4034 20.3937C23.4034 20.3937 23.4034 20.3936 23.4034 20.3935C23.4033 20.3934 23.4033 20.3933 23.4033 20.3932C23.4033 20.393 23.4032 20.3928 23.4032 20.3928C23.4032 20.3927 23.4032 20.3928 23.4033 20.3932C23.4034 20.3941 23.4037 20.3959 23.4042 20.3988C23.4051 20.4045 23.4065 20.4142 23.4085 20.4275C23.4123 20.4541 23.418 20.4947 23.4243 20.5464C23.4372 20.6504 23.4526 20.7956 23.4628 20.9586C23.4852 21.3164 23.4738 21.6404 23.4248 21.8219L25.3559 22.3425ZM24.5403 23.8674C24.8175 23.4989 25.1966 22.9336 25.3559 22.3425L23.4248 21.8219C23.3705 22.0236 23.1914 22.3336 22.9421 22.665L24.5403 23.8674Z" fill="white" mask="url(#path-8-inside-2_150_361)"/>
<circle cx="0.739729" cy="0.739729" r="0.739729" transform="matrix(-0.965926 0.258819 0.258819 0.965926 24.8351 23.5299)" fill="white"/>
<rect x="3" y="3" width="26" height="26" rx="2" stroke="white" stroke-width="2"/>
</svg>
