<svg width="32" height="32" viewBox="0 0 32 32" fill="none" xmlns="http://www.w3.org/2000/svg">
<rect x="23.3769" y="12" width="3" height="8" rx="1" stroke="white" stroke-width="2"/>
<rect x="13.3769" y="8" width="4" height="12" rx="1" stroke="white" stroke-width="2"/>
<rect x="18.3769" y="10" width="4" height="10" rx="1" stroke="white" stroke-width="2"/>
<rect x="8.37689" y="10" width="4" height="10" rx="1" stroke="white" stroke-width="2"/>
<mask id="path-5-inside-1_102_39" fill="white">
<path fill-rule="evenodd" clip-rule="evenodd" d="M7.3769 14.1264C7.28876 14.2472 7.21287 14.3799 7.15178 14.5234L5.16035 19.2008C4.76972 20.1183 5.11735 21.1649 5.93644 21.6781C5.95674 21.7003 5.97763 21.7221 5.99911 21.7436L9.21722 24.9617C9.61302 25.3575 10.1334 25.5527 10.6522 25.5474C11.0751 25.8023 11.5926 25.902 12.113 25.7877L19.927 24.0728C21.0059 23.836 21.6886 22.7694 21.4518 21.6905L21.3002 21H9.3769C8.27233 21 7.3769 20.1046 7.3769 19V14.1264Z"/>
</mask>
<path d="M7.3769 14.1264H9.3769V7.99157L5.76118 12.9476L7.3769 14.1264ZM7.15178 14.5234L5.31162 13.7399L5.31162 13.7399L7.15178 14.5234ZM5.16035 19.2008L7.00051 19.9843L5.16035 19.2008ZM5.93644 21.6781L7.41227 20.3283L7.22873 20.1276L6.99828 19.9832L5.93644 21.6781ZM5.99911 21.7436L7.41333 20.3294L7.41332 20.3294L5.99911 21.7436ZM9.21722 24.9617L10.6314 23.5475L9.21722 24.9617ZM10.6522 25.5474L11.6845 23.8344L11.1987 23.5416L10.6316 23.5475L10.6522 25.5474ZM12.113 25.7877L12.5417 27.7412L12.5417 27.7412L12.113 25.7877ZM19.927 24.0728L20.3558 26.0263L19.927 24.0728ZM21.4518 21.6905L19.4983 22.1193V22.1193L21.4518 21.6905ZM21.3002 21L23.2537 20.5713L22.9089 19H21.3002V21ZM5.76118 12.9476C5.58408 13.1904 5.43268 13.4556 5.31162 13.7399L8.99194 15.3068C8.99307 15.3042 8.99344 15.304 8.99262 15.3051L5.76118 12.9476ZM5.31162 13.7399L3.32019 18.4174L7.00051 19.9843L8.99194 15.3068L5.31162 13.7399ZM3.32019 18.4174C2.53818 20.2541 3.235 22.3457 4.87459 23.3729L6.99828 19.9832C6.99957 19.984 7.00088 19.9853 7.00136 19.9859C7.00141 19.986 7.00073 19.985 7.00021 19.9834C6.99975 19.982 7.00006 19.9821 6.99999 19.9839C6.99995 19.9849 6.99982 19.9858 6.99967 19.9864C6.99951 19.9871 6.99957 19.9865 7.00051 19.9843L3.32019 18.4174ZM4.4606 23.0278C4.50094 23.0719 4.54238 23.1153 4.58491 23.1578L7.41332 20.3294C7.41288 20.3289 7.41254 20.3286 7.41227 20.3283L4.4606 23.0278ZM4.5849 23.1578L7.80301 26.3759L10.6314 23.5475L7.41333 20.3294L4.5849 23.1578ZM7.80301 26.3759C8.59431 27.1672 9.63865 27.5579 10.6728 27.5473L10.6316 23.5475L10.6314 23.5475L7.80301 26.3759ZM9.61982 27.2603C10.4636 27.7688 11.5019 27.9695 12.5417 27.7412L11.6842 23.8342L11.6845 23.8344L9.61982 27.2603ZM12.5417 27.7412L20.3558 26.0263L19.4983 22.1193L11.6842 23.8342L12.5417 27.7412ZM20.3558 26.0263C22.5135 25.5527 23.8789 23.4196 23.4053 21.2618L19.4983 22.1193L19.4983 22.1193L20.3558 26.0263ZM23.4053 21.2618L23.2537 20.5713L19.3467 21.4287L19.4983 22.1193L23.4053 21.2618ZM21.3002 19H9.3769V23H21.3002V19ZM9.3769 19H9.3769H5.3769C5.3769 21.2091 7.16776 23 9.3769 23V19ZM9.3769 19V14.1264H5.3769V19H9.3769Z" fill="white" mask="url(#path-5-inside-1_102_39)"/>
<rect x="3" y="3" width="26" height="26" rx="2" stroke="white" stroke-width="2"/>
</svg>
