<svg width="32" height="32" viewBox="0 0 32 32" fill="none" xmlns="http://www.w3.org/2000/svg">
<rect x="3" y="3" width="26" height="26" rx="2" stroke="white" stroke-width="2"/>
<mask id="path-2-outside-1_25_48" maskUnits="userSpaceOnUse" x="0.55051" y="3.3696" width="30.0316" height="25.0819" fill="black">
<rect fill="white" x="0.55051" y="3.3696" width="30.0316" height="25.0819"/>
<path fill-rule="evenodd" clip-rule="evenodd" d="M13.3847 17.9579L22.7977 20.4801C23.3312 20.623 23.8795 20.3065 24.0225 19.773C24.1654 19.2395 23.8488 18.6912 23.3154 18.5482L16.3381 16.6787L16.5145 15.868L25.336 18.2318C25.8695 18.3747 26.4178 18.0581 26.5607 17.5246C26.7037 16.9912 26.3871 16.4428 25.8536 16.2999L16.9401 13.9115L17.2023 12.7063L24.3992 14.6347C24.9326 14.7776 25.481 14.461 25.6239 13.9276C25.7669 13.3941 25.4503 12.8458 24.9168 12.7028L17.628 10.7498L17.7553 10.1647L22.3705 11.4014C22.904 11.5443 23.4523 11.2277 23.5953 10.6943C23.7382 10.1608 23.4216 9.61245 22.8882 9.46951L11.9033 6.52612C11.7966 6.49754 11.6894 6.48733 11.5849 6.49355L7.42402 5.08635L4.91678 13.1545L5.99336 14.0313C5.89782 14.4663 5.95808 14.9369 6.19829 15.3529L7.82862 18.1768C8.0455 18.5524 8.3742 18.8232 8.74839 18.9715L12.6177 22.7453C13.0346 23.1519 13.7022 23.1436 14.1088 22.7267C14.5154 22.3098 14.5071 21.6422 14.0902 21.2355L11.8309 19.032L12.8726 18.4305C13.0833 18.3089 13.2555 18.1459 13.3847 17.9579Z"/>
</mask>
<path d="M13.3847 17.9579L12.5604 17.3917L12.9607 16.809L13.6435 16.9919L13.3847 17.9579ZM22.7977 20.4801L22.5389 21.446L22.7977 20.4801ZM23.3154 18.5482L23.5742 17.5823L23.3154 18.5482ZM16.3381 16.6787L16.0793 17.6446L15.1583 17.3978L15.361 16.4661L16.3381 16.6787ZM16.5145 15.868L15.5373 15.6555L15.7603 14.6307L16.7733 14.9021L16.5145 15.868ZM25.8536 16.2999L25.5948 17.2658L25.8536 16.2999ZM16.9401 13.9115L16.6813 14.8775L15.7603 14.6307L15.963 13.699L16.9401 13.9115ZM17.2023 12.7063L16.2252 12.4937L16.4481 11.4689L17.4612 11.7404L17.2023 12.7063ZM24.9168 12.7028L24.658 13.6687L24.9168 12.7028ZM17.628 10.7498L17.3692 11.7157L16.4481 11.4689L16.6508 10.5372L17.628 10.7498ZM17.7553 10.1647L16.7781 9.95213L17.0011 8.92735L18.0141 9.19878L17.7553 10.1647ZM22.8882 9.46951L23.147 8.50358L22.8882 9.46951ZM11.5849 6.49355L11.6443 7.49178L11.4494 7.50338L11.2645 7.44084L11.5849 6.49355ZM7.42402 5.08635L6.46907 4.78959L6.77329 3.81064L7.74439 4.13906L7.42402 5.08635ZM4.91678 13.1545L4.28525 13.9298L3.76128 13.503L3.96183 12.8577L4.91678 13.1545ZM5.99336 14.0313L6.62489 13.256L7.10212 13.6447L6.97007 14.2459L5.99336 14.0313ZM6.19829 15.3529L5.33227 15.8529L5.33226 15.8529L6.19829 15.3529ZM7.82862 18.1768L6.9626 18.6768L6.9626 18.6768L7.82862 18.1768ZM8.74839 18.9715L9.11669 18.0417L9.30309 18.1156L9.44662 18.2556L8.74839 18.9715ZM12.6177 22.7453L11.9194 23.4612L11.9194 23.4612L12.6177 22.7453ZM14.1088 22.7267L14.8247 23.4249L14.8247 23.4249L14.1088 22.7267ZM14.0902 21.2355L13.392 21.9514L14.0902 21.2355ZM11.8309 19.032L11.1327 19.7478L10.1876 18.826L11.3309 18.1659L11.8309 19.032ZM12.8726 18.4305L13.3726 19.2966L13.3726 19.2966L12.8726 18.4305ZM13.6435 16.9919L23.0566 19.5142L22.5389 21.446L13.1259 18.9238L13.6435 16.9919ZM23.0566 19.5142L23.0566 19.5142L24.9884 20.0318C24.7025 21.0987 23.6059 21.7319 22.5389 21.446L23.0566 19.5142ZM23.0566 19.5142L23.0566 19.5142L23.5742 17.5823C24.6411 17.8682 25.2743 18.9649 24.9884 20.0318L23.0566 19.5142ZM23.0566 19.5142L16.0793 17.6446L16.5969 15.7128L23.5742 17.5823L23.0566 19.5142ZM15.361 16.4661L15.5373 15.6555L17.4916 16.0806L17.3153 16.8913L15.361 16.4661ZM16.7733 14.9021L25.5948 17.2658L25.0772 19.1977L16.2557 16.834L16.7733 14.9021ZM25.5948 17.2658L27.5267 17.7835C27.2408 18.8504 26.1441 19.4836 25.0772 19.1977L25.5948 17.2658ZM25.5948 17.2658L25.5948 17.2658L26.1124 15.334C27.1794 15.6199 27.8125 16.7165 27.5267 17.7835L25.5948 17.2658ZM25.5948 17.2658L16.6813 14.8775L17.199 12.9456L26.1124 15.334L25.5948 17.2658ZM15.963 13.699L16.2252 12.4937L18.1795 12.9189L17.9173 14.1241L15.963 13.699ZM17.4612 11.7404L24.658 13.6687L24.1403 15.6006L16.9435 13.6722L17.4612 11.7404ZM24.658 13.6687L24.658 13.6687L26.5898 14.1864C26.304 15.2533 25.2073 15.8865 24.1403 15.6006L24.658 13.6687ZM24.658 13.6687L24.658 13.6687L25.1756 11.7369C26.2426 12.0228 26.8757 13.1194 26.5898 14.1864L24.658 13.6687ZM24.658 13.6687L17.3692 11.7157L17.8868 9.78385L25.1756 11.7369L24.658 13.6687ZM16.6508 10.5372L16.7781 9.95213L18.7324 10.3773L18.6051 10.9624L16.6508 10.5372ZM18.0141 9.19878L22.6293 10.4354L22.1117 12.3673L17.4965 11.1306L18.0141 9.19878ZM22.6293 10.4354L24.5612 10.9531C24.2753 12.02 23.1786 12.6532 22.1117 12.3673L22.6293 10.4354ZM22.6293 10.4354L23.147 8.50358C24.2139 8.78947 24.8471 9.88614 24.5612 10.9531L22.6293 10.4354ZM22.6293 10.4354L11.6445 7.49205L12.1621 5.56019L23.147 8.50358L22.6293 10.4354ZM11.6445 7.49205L11.6443 7.49178L11.5255 5.49531C11.7358 5.48281 11.9505 5.5035 12.1621 5.56019L11.6445 7.49205ZM11.2645 7.44084L7.10365 6.03364L7.74439 4.13906L11.9053 5.54626L11.2645 7.44084ZM8.37898 5.38311L5.87173 13.4512L3.96183 12.8577L6.46907 4.78959L8.37898 5.38311ZM5.54831 12.3791L6.62489 13.256L5.36182 14.8067L4.28525 13.9298L5.54831 12.3791ZM6.97007 14.2459C6.92595 14.4468 6.95364 14.6612 7.06432 14.8529L5.33226 15.8529C4.96252 15.2125 4.86968 14.4859 5.01664 13.8168L6.97007 14.2459ZM7.06432 14.8529L8.69465 17.6768L6.9626 18.6768L5.33227 15.8529L7.06432 14.8529ZM8.69465 17.6768C8.79482 17.8502 8.94457 17.9736 9.11669 18.0417L8.38009 19.9012C7.80382 19.6729 7.29618 19.2545 6.9626 18.6768L8.69465 17.6768ZM9.44662 18.2556L13.3159 22.0294L11.9194 23.4612L8.05016 19.6873L9.44662 18.2556ZM13.3159 22.0294C13.3374 22.0504 13.3719 22.05 13.3929 22.0285L14.8247 23.4249C14.0324 24.2372 12.7317 24.2534 11.9194 23.4612L13.3159 22.0294ZM13.3929 22.0285C13.4139 22.0069 13.4135 21.9724 13.392 21.9514L14.7884 20.5197C15.6007 21.3119 15.6169 22.6126 14.8247 23.4249L13.3929 22.0285ZM13.392 21.9514L11.1327 19.7478L12.5291 18.3161L14.7884 20.5197L13.392 21.9514ZM11.3309 18.1659L12.3726 17.5645L13.3726 19.2966L12.3309 19.898L11.3309 18.1659ZM12.3726 17.5645C12.4515 17.5189 12.5138 17.4595 12.5604 17.3917L14.2089 18.5241C13.9971 18.8324 13.7151 19.0988 13.3726 19.2966L12.3726 17.5645Z" fill="white" mask="url(#path-2-outside-1_25_48)"/>
<path d="M18.6651 27.8481L16.5 23.3481L20.8301 23.3481L18.6651 27.8481Z" fill="white"/>
</svg>
