<svg width="32" height="32" viewBox="0 0 32 32" fill="none" xmlns="http://www.w3.org/2000/svg">
<rect x="3" y="3" width="26" height="26" rx="2" stroke="white" stroke-width="2"/>
<circle cx="15.1267" cy="9.32115" r="2" transform="rotate(-30 15.1267 9.32115)" fill="white"/>
<line x1="13.9753" y1="12.0095" x2="11.6272" y2="18.9066" stroke="white" stroke-width="2"/>
<line x1="21.3355" y1="13.34" x2="6.33553" y2="26.34" stroke="white" stroke-width="2"/>
<line x1="11.2806" y1="17.7843" x2="15.2806" y2="20.7843" stroke="white" stroke-width="2"/>
<line x1="13.6755" y1="12.4836" x2="14.1028" y2="16.7046" stroke="white" stroke-width="2"/>
<line x1="13.7402" y1="16.0306" x2="16.8391" y2="18.5598" stroke="white" stroke-width="2"/>
<line x1="14.575" y1="20.0315" x2="11.575" y2="26.0315" stroke="white" stroke-width="2"/>
<path d="M23.6569 12.1213L25.3765 14.9873C25.6126 15.3808 25.5505 15.8845 25.2261 16.2089L24.364 17.0711C23.9734 17.4616 23.3403 17.4616 22.9497 17.0711L20.8284 14.9497L23.6569 12.1213Z" fill="white"/>
<rect x="21.5355" y="10" width="1" height="1" transform="rotate(45 21.5355 10)" fill="white"/>
<path fill-rule="evenodd" clip-rule="evenodd" d="M22.9497 11.4142C22.1687 10.6332 20.9024 10.6332 20.1213 11.4142L18 13.5355L20.8284 16.364L23.6569 13.5355C24.0474 13.145 24.0474 12.5118 23.6569 12.1213L22.9497 11.4142ZM21.8891 13.182C22.0843 13.3772 22.4009 13.3772 22.5962 13.182C22.7915 12.9867 22.7915 12.6701 22.5962 12.4749C22.4009 12.2796 22.0843 12.2796 21.8891 12.4749C21.6938 12.6701 21.6938 12.9867 21.8891 13.182Z" fill="white"/>
</svg>
