<svg width="32" height="32" viewBox="0 0 32 32" fill="none" xmlns="http://www.w3.org/2000/svg">
<rect x="3" y="3" width="26" height="26" rx="2" stroke="white" stroke-width="2"/>
<circle cx="10" cy="9" r="2" fill="white"/>
<line x1="10" y1="12" x2="10" y2="18" stroke="white" stroke-width="2"/>
<line x1="9.92848" y1="16.6286" x2="13.9285" y2="26.6286" stroke="white" stroke-width="2"/>
<line x1="10" y1="13" x2="16" y2="13" stroke="white" stroke-width="2"/>
<line y1="-1" x2="10.7703" y2="-1" transform="matrix(-0.371391 0.928477 0.928477 0.371391 11 17)" stroke="white" stroke-width="2"/>
<line y1="-1" x2="20" y2="-1" transform="matrix(-4.37114e-08 1 1 4.37114e-08 18 6)" stroke="white" stroke-width="2"/>
<mask id="path-8-inside-1_51_541" fill="white">
<path d="M20.7139 10.5784C21.5675 10.5784 22.4128 10.7466 23.2014 11.0732C23.99 11.3999 24.7065 11.8787 25.3101 12.4822C25.9137 13.0858 26.3925 13.8024 26.7191 14.591C27.0458 15.3796 27.2139 16.2248 27.2139 17.0784C27.2139 17.932 27.0458 18.7773 26.7191 19.5659C26.3925 20.3545 25.9137 21.0711 25.3101 21.6746C24.7065 22.2782 23.99 22.757 23.2014 23.0837C22.4128 23.4103 21.5675 23.5784 20.7139 23.5784V22.2784C21.3968 22.2784 22.073 22.1439 22.7039 21.8826C23.3348 21.6213 23.908 21.2383 24.3909 20.7554C24.8737 20.2725 25.2568 19.6993 25.5181 19.0684C25.7794 18.4375 25.9139 17.7613 25.9139 17.0784C25.9139 16.3956 25.7794 15.7194 25.5181 15.0885C25.2568 14.4576 24.8737 13.8843 24.3909 13.4015C23.908 12.9186 23.3348 12.5356 22.7039 12.2743C22.073 12.0129 21.3968 11.8784 20.7139 11.8784L20.7139 10.5784Z"/>
</mask>
<path d="M20.7139 10.5784C21.5675 10.5784 22.4128 10.7466 23.2014 11.0732C23.99 11.3999 24.7065 11.8787 25.3101 12.4822C25.9137 13.0858 26.3925 13.8024 26.7191 14.591C27.0458 15.3796 27.2139 16.2248 27.2139 17.0784C27.2139 17.932 27.0458 18.7773 26.7191 19.5659C26.3925 20.3545 25.9137 21.0711 25.3101 21.6746C24.7065 22.2782 23.99 22.757 23.2014 23.0837C22.4128 23.4103 21.5675 23.5784 20.7139 23.5784V22.2784C21.3968 22.2784 22.073 22.1439 22.7039 21.8826C23.3348 21.6213 23.908 21.2383 24.3909 20.7554C24.8737 20.2725 25.2568 19.6993 25.5181 19.0684C25.7794 18.4375 25.9139 17.7613 25.9139 17.0784C25.9139 16.3956 25.7794 15.7194 25.5181 15.0885C25.2568 14.4576 24.8737 13.8843 24.3909 13.4015C23.908 12.9186 23.3348 12.5356 22.7039 12.2743C22.073 12.0129 21.3968 11.8784 20.7139 11.8784L20.7139 10.5784Z" stroke="white" stroke-width="4" mask="url(#path-8-inside-1_51_541)"/>
<path d="M18.5419 11.4427L22.4597 9.18078V13.7047L18.5419 11.4427Z" fill="white"/>
</svg>
