<svg width="32" height="32" viewBox="0 0 32 32" fill="none" xmlns="http://www.w3.org/2000/svg">
<rect x="3" y="3" width="26" height="26" rx="2" stroke="white" stroke-width="2"/>
<circle cx="2" cy="2" r="2" transform="matrix(-4.37114e-08 1 1 4.37114e-08 9 14)" fill="white"/>
<line y1="-1" x2="6" y2="-1" transform="matrix(1 8.74228e-08 8.74228e-08 -1 13 17)" stroke="white" stroke-width="2"/>
<line x1="20.7809" y1="14.3753" x2="24.7809" y2="19.3753" stroke="white" stroke-width="2"/>
<line x1="18.2929" y1="18.2929" x2="22.2929" y2="14.2929" stroke="white" stroke-width="2"/>
<rect width="20" height="5" rx="1" transform="matrix(-1 0 0 1 26 20)" fill="white"/>
<rect width="5" height="5" rx="1" transform="matrix(-1 0 0 1 11 18)" fill="white"/>
<rect width="3" height="3" transform="matrix(-1 0 0 1 10 24)" fill="white"/>
<rect width="3" height="3" transform="matrix(-1 0 0 1 25 24)" fill="white"/>
<line x1="17.9059" y1="3.51704" x2="21.7696" y2="4.55231" stroke="white"/>
<line x1="17.1294" y1="6.41481" x2="20.9931" y2="7.45009" stroke="white"/>
<line x1="17.7159" y1="6.72358" x2="21.3902" y2="4.60226" stroke="white"/>
<line x1="11.9059" y1="4.51704" x2="15.7696" y2="5.55231" stroke="white"/>
<line x1="11.1294" y1="7.41481" x2="14.9931" y2="8.45009" stroke="white"/>
<line x1="11.7159" y1="7.72358" x2="15.3902" y2="5.60226" stroke="white"/>
<line x1="11.6468" y1="9.51704" x2="14.2214" y2="10.2069" stroke="white"/>
<line x1="11.1294" y1="11.448" x2="13.704" y2="12.1378" stroke="white"/>
<line x1="11.3936" y1="11.6704" x2="13.842" y2="10.2568" stroke="white"/>
</svg>
