<svg width="32" height="32" viewBox="0 0 32 32" fill="none" xmlns="http://www.w3.org/2000/svg">
<rect x="3" y="3" width="26" height="26" rx="2" stroke="white" stroke-width="2"/>
<path fill-rule="evenodd" clip-rule="evenodd" d="M16 25C20.9706 25 25 20.9706 25 16C25 11.0294 20.9706 6.99999 16 6.99999C11.0294 6.99999 7 11.0294 7 16C7 20.9706 11.0294 25 16 25ZM11.5 16C12.3284 16 13 15.3284 13 14.5C13 13.6716 12.3284 13 11.5 13C10.6716 13 9.99999 13.6716 9.99999 14.5C9.99999 15.3284 10.6716 16 11.5 16ZM15 17.5C15 17.2239 14.7761 17 14.5 17C14.2238 17 14 17.2239 14 17.5C14 17.7761 14.2238 18 14.5 18C14.7761 18 15 17.7761 15 17.5ZM17.5 17C17.7761 17 18 17.2239 18 17.5C18 17.7761 17.7761 18 17.5 18C17.2238 18 17 17.7761 17 17.5C17 17.2239 17.2238 17 17.5 17ZM22 14.5C22 15.3284 21.3284 16 20.5 16C19.6716 16 19 15.3284 19 14.5C19 13.6716 19.6716 13 20.5 13C21.3284 13 22 13.6716 22 14.5ZM15 21C15 20.5355 14.7889 20.1204 14.4574 19.8452C14.2973 19.6323 14.1275 19.3661 14.0625 19.125C13.9481 18.7008 14.0625 18 14.0625 18L12.5201 19.8643C12.2016 20.1393 12 20.5461 12 21C12 21.8284 12.6716 22.5 13.5 22.5C14.3284 22.5 15 21.8284 15 21Z" fill="white"/>
</svg>
