<svg width="32" height="32" viewBox="0 0 32 32" fill="none" xmlns="http://www.w3.org/2000/svg">
<rect x="3" y="3" width="26" height="26" rx="2" stroke="white" stroke-width="2"/>
<path fill-rule="evenodd" clip-rule="evenodd" d="M15.7558 24.8271C17.5016 24.4798 19.1053 23.6226 20.364 22.364L14 16L20.364 9.63603C19.1053 8.37736 17.5016 7.5202 15.7558 7.17293C14.01 6.82566 12.2004 7.00389 10.5558 7.68508C8.91131 8.36627 7.50571 9.51982 6.51677 10.9999C5.52784 12.4799 5 14.22 5 16C5 17.78 5.52784 19.5201 6.51677 21.0001C7.50571 22.4802 8.91131 23.6337 10.5558 24.3149C12.2004 24.9961 14.01 25.1743 15.7558 24.8271ZM10.5 13C11.3284 13 12 12.3284 12 11.5C12 10.6716 11.3284 10 10.5 10C9.67157 10 9 10.6716 9 11.5C9 12.3284 9.67157 13 10.5 13Z" fill="white"/>
<mask id="path-3-inside-1_102_148" fill="white">
<path fill-rule="evenodd" clip-rule="evenodd" d="M21.244 20.0436C21.1911 20.6137 21.3829 21.2022 21.8193 21.6387C22.5979 22.4173 23.8602 22.4173 24.6387 21.6387C25.4173 20.8602 25.4173 19.5979 24.6387 18.8194C24.2122 18.3928 23.6404 18.2 23.0826 18.2408L19.881 17.9383C19.881 17.9383 20.6471 18.4895 20.9383 18.9956C21.1038 19.2833 21.1945 19.693 21.244 20.0436Z"/>
</mask>
<path fill-rule="evenodd" clip-rule="evenodd" d="M21.244 20.0436C21.1911 20.6137 21.3829 21.2022 21.8193 21.6387C22.5979 22.4173 23.8602 22.4173 24.6387 21.6387C25.4173 20.8602 25.4173 19.5979 24.6387 18.8194C24.2122 18.3928 23.6404 18.2 23.0826 18.2408L19.881 17.9383C19.881 17.9383 20.6471 18.4895 20.9383 18.9956C21.1038 19.2833 21.1945 19.693 21.244 20.0436Z" fill="white"/>
<path d="M21.244 20.0436L22.2397 20.1361L22.2506 20.0196L22.2342 19.9037L21.244 20.0436ZM23.0826 18.2408L22.9885 19.2364L23.072 19.2443L23.1556 19.2381L23.0826 18.2408ZM19.881 17.9383L19.9751 16.9428L16.3026 16.5958L19.297 18.7501L19.881 17.9383ZM20.9383 18.9956L20.0715 19.4943L20.9383 18.9956ZM22.5265 20.9316C22.3092 20.7143 22.2131 20.4227 22.2397 20.1361L20.2483 19.9512C20.169 20.8047 20.4566 21.6902 21.1122 22.3458L22.5265 20.9316ZM23.9316 20.9316C23.5436 21.3196 22.9145 21.3196 22.5265 20.9316L21.1122 22.3458C22.2813 23.5149 24.1768 23.5149 25.3458 22.3458L23.9316 20.9316ZM23.9316 19.5265C24.3196 19.9145 24.3196 20.5436 23.9316 20.9316L25.3458 22.3458C26.5149 21.1768 26.5149 19.2813 25.3458 18.1123L23.9316 19.5265ZM23.1556 19.2381C23.4359 19.2176 23.7192 19.314 23.9316 19.5265L25.3458 18.1123C24.7052 17.4716 23.8449 17.1823 23.0096 17.2435L23.1556 19.2381ZM19.787 18.9339L22.9885 19.2364L23.1767 17.2452L19.9751 16.9428L19.787 18.9339ZM21.8051 18.4969C21.5732 18.0938 21.2029 17.7398 20.962 17.5272C20.8295 17.4104 20.7085 17.3127 20.6204 17.2439C20.576 17.2093 20.5393 17.1815 20.5126 17.1616C20.4993 17.1516 20.4885 17.1437 20.4805 17.1378C20.4764 17.1348 20.4731 17.1324 20.4705 17.1306C20.4693 17.1296 20.4681 17.1288 20.4672 17.1281C20.4668 17.1278 20.4663 17.1275 20.466 17.1273C20.4658 17.1271 20.4656 17.127 20.4655 17.1269C20.4654 17.1268 20.4653 17.1267 20.4652 17.1267C20.4651 17.1266 20.465 17.1266 19.881 17.9383C19.297 18.7501 19.2969 18.75 19.2968 18.7499C19.2968 18.7499 19.2967 18.7498 19.2967 18.7498C19.2965 18.7497 19.2964 18.7497 19.2964 18.7496C19.2962 18.7495 19.296 18.7494 19.2959 18.7493C19.2958 18.7492 19.2958 18.7492 19.2959 18.7493C19.2963 18.7495 19.2973 18.7503 19.2989 18.7515C19.3023 18.7539 19.3082 18.7583 19.3164 18.7644C19.3328 18.7766 19.3582 18.7958 19.3902 18.8208C19.4548 18.8712 19.5435 18.9429 19.6389 19.0271C19.8538 19.2166 20.0122 19.3912 20.0715 19.4943L21.8051 18.4969ZM22.2342 19.9037C22.1814 19.5301 22.0712 18.9594 21.8051 18.4969L20.0715 19.4943C20.1365 19.6072 20.2076 19.8559 20.2539 20.1836L22.2342 19.9037Z" fill="white" mask="url(#path-3-inside-1_102_148)"/>
<mask id="path-5-inside-2_102_148" fill="white">
<path fill-rule="evenodd" clip-rule="evenodd" d="M21.6752 16.6141C21.9144 17.1343 22.3748 17.5481 22.971 17.7079C24.0345 17.9928 25.1277 17.3617 25.4127 16.2982C25.6976 15.2347 25.0665 14.1415 24.003 13.8565C23.4203 13.7004 22.8287 13.8193 22.3661 14.1335L19.4422 15.4724C19.4422 15.4724 20.3812 15.5666 20.8864 15.8594C21.1736 16.0257 21.457 16.3353 21.6752 16.6141Z"/>
</mask>
<path fill-rule="evenodd" clip-rule="evenodd" d="M21.6752 16.6141C21.9144 17.1343 22.3748 17.5481 22.971 17.7079C24.0345 17.9928 25.1277 17.3617 25.4127 16.2982C25.6976 15.2347 25.0665 14.1415 24.003 13.8565C23.4203 13.7004 22.8287 13.8193 22.3661 14.1335L19.4422 15.4724C19.4422 15.4724 20.3812 15.5666 20.8864 15.8594C21.1736 16.0257 21.457 16.3353 21.6752 16.6141Z" fill="white"/>
<path d="M21.6752 16.6141L22.5838 16.1963L22.5349 16.09L22.4627 15.9978L21.6752 16.6141ZM22.3661 14.1335L22.7824 15.0428L22.8586 15.0079L22.928 14.9608L22.3661 14.1335ZM19.4422 15.4724L19.0259 14.5632L15.6719 16.0989L19.3423 16.4674L19.4422 15.4724ZM20.8864 15.8594L20.3851 16.7246L20.8864 15.8594ZM23.2298 16.7419C22.933 16.6624 22.704 16.4578 22.5838 16.1963L20.7667 17.0319C21.1248 17.8108 21.8165 18.4338 22.7122 18.6738L23.2298 16.7419ZM24.4467 16.0394C24.3047 16.5694 23.7599 16.884 23.2298 16.7419L22.7122 18.6738C24.3092 19.1017 25.9507 18.154 26.3786 16.557L24.4467 16.0394ZM23.7442 14.8225C24.2742 14.9645 24.5888 15.5093 24.4467 16.0394L26.3786 16.557C26.8065 14.96 25.8588 13.3185 24.2618 12.8906L23.7442 14.8225ZM22.928 14.9608C23.1605 14.8028 23.454 14.7447 23.7442 14.8225L24.2618 12.8906C23.3867 12.6561 22.497 12.8357 21.8042 13.3063L22.928 14.9608ZM19.8585 16.3816L22.7824 15.0428L21.9497 13.2243L19.0259 14.5632L19.8585 16.3816ZM21.3877 14.9941C20.9854 14.761 20.4877 14.6395 20.1728 14.5759C19.9996 14.5409 19.846 14.5168 19.7353 14.5013C19.6795 14.4935 19.6338 14.4878 19.6008 14.4839C19.5843 14.4819 19.5709 14.4804 19.561 14.4794C19.5561 14.4788 19.552 14.4784 19.5488 14.4781C19.5472 14.4779 19.5459 14.4778 19.5448 14.4776C19.5442 14.4776 19.5437 14.4775 19.5432 14.4775C19.543 14.4775 19.5428 14.4774 19.5426 14.4774C19.5425 14.4774 19.5424 14.4774 19.5423 14.4774C19.5422 14.4774 19.5421 14.4774 19.4422 15.4724C19.3423 16.4674 19.3422 16.4674 19.3421 16.4673C19.342 16.4673 19.3419 16.4673 19.3418 16.4673C19.3417 16.4673 19.3416 16.4673 19.3415 16.4673C19.3413 16.4673 19.3411 16.4672 19.341 16.4672C19.3408 16.4672 19.3407 16.4672 19.341 16.4672C19.3414 16.4673 19.3426 16.4674 19.3447 16.4676C19.3488 16.4681 19.3561 16.4689 19.3662 16.4701C19.3866 16.4725 19.4181 16.4764 19.4583 16.482C19.5395 16.4934 19.6522 16.5111 19.7769 16.5363C20.0578 16.593 20.2822 16.665 20.3851 16.7246L21.3877 14.9941ZM22.4627 15.9978C22.2302 15.7007 21.8494 15.2616 21.3877 14.9941L20.3851 16.7246C20.4978 16.7899 20.6838 16.9698 20.8877 17.2304L22.4627 15.9978Z" fill="white" mask="url(#path-5-inside-2_102_148)"/>
</svg>
