<svg width="32" height="32" viewBox="0 0 32 32" fill="none" xmlns="http://www.w3.org/2000/svg">
<rect x="3" y="3" width="26" height="26" rx="2" stroke="white" stroke-width="2"/>
<path d="M9.15333 11.5206C9.41465 10.4912 9.99636 9.5844 10.8049 8.94612C11.6135 8.30783 12.6019 7.97511 13.6112 8.00145C14.6206 8.0278 15.5922 8.41168 16.3699 9.09137C17.1476 9.77107 17.6861 10.7071 17.8989 11.7489L16.1394 12.1493C16.0117 11.5242 15.6886 10.9626 15.2219 10.5548C14.7553 10.147 14.1724 9.91668 13.5667 9.90087C12.9611 9.88506 12.3681 10.0847 11.8829 10.4677C11.3978 10.8506 11.0488 11.3947 10.892 12.0124L9.15333 11.5206Z" fill="white"/>
<line y1="-1" x2="7.86561" y2="-1" transform="matrix(-0.915377 0.402597 -0.244936 -0.969539 17.2 11.1667)" stroke="white" stroke-width="2"/>
<line y1="-1" x2="7.86561" y2="-1" transform="matrix(-0.915377 0.402597 -0.244936 -0.969539 17.2 11.1667)" stroke="white" stroke-width="2"/>
<line y1="-1" x2="7.86561" y2="-1" transform="matrix(-0.915377 0.402597 -0.244936 -0.969539 17.2 16.4444)" stroke="white" stroke-width="2"/>
<line y1="-1" x2="7.86561" y2="-1" transform="matrix(-0.915377 0.402597 -0.244936 -0.969539 17.2 21.7222)" stroke="white" stroke-width="2"/>
<line y1="-1" x2="8.06934" y2="-1" transform="matrix(-0.991407 -0.130811 0.0755727 -0.99714 18 15.3889)" stroke="white" stroke-width="2"/>
<line y1="-1" x2="8.06934" y2="-1" transform="matrix(-0.991407 -0.130811 0.0755727 -0.99714 18 20.6667)" stroke="white" stroke-width="2"/>
<line y1="-1" x2="8.06934" y2="-1" transform="matrix(-0.991407 -0.130811 0.0755727 -0.99714 18 25.9444)" stroke="white" stroke-width="2"/>
<line x1="18" y1="28" x2="10" y2="28" stroke="white" stroke-width="2"/>
<line x1="24" y1="9" x2="24" y2="15" stroke="white" stroke-width="2"/>
<path d="M24 5L26.5981 9.5L21.4019 9.5L24 5Z" fill="white"/>
<line x1="24" y1="23" x2="24" y2="17" stroke="white" stroke-width="2"/>
<path d="M24 27L21.4019 22.5L26.5981 22.5L24 27Z" fill="white"/>
</svg>
