<svg width="32" height="32" viewBox="0 0 32 32" fill="none" xmlns="http://www.w3.org/2000/svg">
<rect x="3" y="3" width="26" height="26" rx="2" stroke="white" stroke-width="2"/>
<path fill-rule="evenodd" clip-rule="evenodd" d="M17.1747 24.923C18.1385 24.7961 19.0685 24.5149 19.9314 24.0959C21.4218 23.3722 21.4142 21.4142 20.2427 20.2426L19.6742 19.6742C18.0412 18.0412 18.7884 15.2529 21.0191 14.6551L21.7956 14.4471C23.396 14.0183 24.3815 12.3264 23.4526 10.9544C22.9149 10.1601 22.2501 9.45159 21.4789 8.85982C19.9071 7.65374 17.9812 7 16 7C14.0188 7 12.093 7.65374 10.5212 8.85982C8.94936 10.0659 7.81945 11.7569 7.30668 13.6706C6.7939 15.5843 6.92692 17.6138 7.68509 19.4442C8.44327 21.2745 9.78423 22.8036 11.5 23.7942C13.2158 24.7848 15.2105 25.1816 17.1747 24.923ZM12.5 13C13.3284 13 14 12.3284 14 11.5C14 10.6716 13.3284 10 12.5 10C11.6716 10 11 10.6716 11 11.5C11 12.3284 11.6716 13 12.5 13Z" fill="white"/>
<path fill-rule="evenodd" clip-rule="evenodd" d="M23 21C24.6569 21 26 19.6569 26 18C26 16.3431 24.6569 15 23 15C21.3431 15 20 16.3431 20 18C20 19.6569 21.3431 21 23 21ZM24 18C24.5523 18 25 17.5523 25 17C25 16.4477 24.5523 16 24 16C23.4477 16 23 16.4477 23 17C23 17.5523 23.4477 18 24 18Z" fill="white"/>
<line x1="23.4808" y1="18.8626" x2="25.4808" y2="25.8626" stroke="white"/>
</svg>
