<svg width="32" height="32" viewBox="0 0 32 32" fill="none" xmlns="http://www.w3.org/2000/svg">
<rect x="3" y="3" width="26" height="26" rx="2" stroke="white" stroke-width="2"/>
<path fill-rule="evenodd" clip-rule="evenodd" d="M16.8822 24.9567C18.0719 24.8395 19.2171 24.4875 20.2555 23.9304C21.5383 23.242 21.5294 21.5294 20.5 20.5C18.8394 18.8394 20.0155 16 22.364 16C23.8198 16 25.0371 14.7953 24.6167 13.4014C24.2765 12.2733 23.7155 11.2146 22.9571 10.2905C21.6362 8.6809 19.798 7.57915 17.7558 7.17293C15.7136 6.76672 13.5938 7.08117 11.7574 8.06271C9.9211 9.04425 8.48192 10.6322 7.68509 12.5559C6.88827 14.4796 6.78312 16.62 7.38755 18.6126C7.99198 20.6051 9.26859 22.3264 10.9999 23.4832C12.7312 24.64 14.81 25.1608 16.8822 24.9567ZM12.5 13C13.3284 13 14 12.3284 14 11.5C14 10.6716 13.3284 10 12.5 10C11.6716 10 11 10.6716 11 11.5C11 12.3284 11.6716 13 12.5 13Z" fill="white"/>
<rect x="21.8698" y="15.8892" width="7" height="4.23778" rx="2.11889" transform="rotate(26.1816 21.8698 15.8892)" fill="white"/>
</svg>
