<svg width="32" height="32" viewBox="0 0 32 32" fill="none" xmlns="http://www.w3.org/2000/svg">
<rect x="3" y="3" width="26" height="26" rx="2" stroke="white" stroke-width="2"/>
<mask id="path-2-outside-1_36_322" maskUnits="userSpaceOnUse" x="2.73758" y="4.99801" width="26.288" height="17.8028" fill="black">
<rect fill="white" x="2.73758" y="4.99801" width="26.288" height="17.8028"/>
<path fill-rule="evenodd" clip-rule="evenodd" d="M14.4038 14.0023L16.6631 16.2058C17.08 16.6125 17.0883 17.2801 16.6817 17.697C16.2751 18.1139 15.6075 18.1223 15.1906 17.7156L11.3213 13.9418C10.9471 13.7935 10.6184 13.5227 10.4015 13.1471L9.28622 11.2153C9.13731 10.9574 9.05756 10.6785 9.0412 10.4002L7.83201 9.70207C7.09767 9.2781 6.84607 8.33911 7.27004 7.60477C7.69401 6.87043 8.63301 6.61882 9.36735 7.04279L11.8446 8.47306C12.0459 8.58926 12.2109 8.74416 12.3357 8.92294L18.3294 10.4179C18.7546 10.2003 19.2888 10.2696 19.6448 10.6255L21.3115 12.2922L25.8883 13.5186C26.4217 13.6615 26.7383 14.2098 26.5954 14.7433C26.4524 15.2768 25.9041 15.5933 25.3706 15.4504L24.1399 15.1206L25.5004 16.4811C25.9423 16.923 25.9423 17.6395 25.5004 18.0814C25.0585 18.5233 24.342 18.5233 23.9001 18.0814L19.7678 13.9491L19.3552 13.8386L19.3539 13.8538L15.9485 12.9413C15.8203 13.1238 15.6513 13.282 15.4455 13.4009L14.4038 14.0023Z"/>
</mask>
<path d="M14.4038 14.0023L13.7056 14.7181L12.7605 13.7963L13.9038 13.1362L14.4038 14.0023ZM16.6631 16.2058L15.9649 16.9217L16.6631 16.2058ZM16.6817 17.697L15.9658 16.9988L15.9658 16.9988L16.6817 17.697ZM15.1906 17.7156L15.8888 16.9997L15.8888 16.9997L15.1906 17.7156ZM11.3213 13.9418L11.6896 13.0121L11.876 13.0859L12.0195 13.2259L11.3213 13.9418ZM10.4015 13.1471L9.5355 13.6471L9.5355 13.6471L10.4015 13.1471ZM9.28622 11.2153L10.1522 10.7153L10.1522 10.7153L9.28622 11.2153ZM9.0412 10.4002L9.5412 9.53417L10.0079 9.80359L10.0395 10.3415L9.0412 10.4002ZM7.83201 9.70207L7.33201 10.5681L7.33201 10.5681L7.83201 9.70207ZM7.27004 7.60477L8.13607 8.10477L8.13607 8.10477L7.27004 7.60477ZM9.36735 7.04279L9.86735 6.17677L9.86735 6.17677L9.36735 7.04279ZM11.8446 8.47306L12.3446 7.60703L12.3446 7.60703L11.8446 8.47306ZM12.3357 8.92294L12.0937 9.89321L11.7301 9.80253L11.5157 9.49527L12.3357 8.92294ZM18.3294 10.4179L18.7848 11.3082L18.4511 11.4789L18.0874 11.3882L18.3294 10.4179ZM19.6448 10.6255L20.3519 9.91844L19.6448 10.6255ZM21.3115 12.2922L21.0526 13.2581L20.7938 13.1888L20.6044 12.9993L21.3115 12.2922ZM25.8883 13.5186L26.1471 12.5526L25.8883 13.5186ZM25.3706 15.4504L25.6295 14.4845L25.3706 15.4504ZM24.1399 15.1206L23.4328 15.8277L20.7938 13.1888L24.3987 14.1547L24.1399 15.1206ZM25.5004 16.4811L26.2075 15.774L25.5004 16.4811ZM25.5004 18.0814L26.2075 18.7885L26.2075 18.7885L25.5004 18.0814ZM23.9001 18.0814L24.6072 17.3743L24.6072 17.3743L23.9001 18.0814ZM19.7678 13.9491L20.0266 12.9832L20.2855 13.0526L20.4749 13.242L19.7678 13.9491ZM19.3552 13.8386L18.3584 13.7577L18.4554 12.5622L19.614 12.8726L19.3552 13.8386ZM19.3539 13.8538L20.3506 13.9346L20.2537 15.1301L19.0951 14.8197L19.3539 13.8538ZM15.9485 12.9413L15.13 12.3667L15.5318 11.7944L16.2073 11.9754L15.9485 12.9413ZM15.4455 13.4009L15.9455 14.2669L15.9455 14.2669L15.4455 13.4009ZM15.102 13.2864L17.3613 15.49L15.9649 16.9217L13.7056 14.7181L15.102 13.2864ZM17.3613 15.49C18.1736 16.2822 18.1898 17.5829 17.3976 18.3952L15.9658 16.9988C15.9868 16.9772 15.9864 16.9427 15.9649 16.9217L17.3613 15.49ZM17.3976 18.3952C16.6053 19.2075 15.3046 19.2237 14.4923 18.4315L15.8888 16.9997C15.9103 17.0208 15.9448 17.0203 15.9658 16.9988L17.3976 18.3952ZM14.4923 18.4315L10.6231 14.6576L12.0195 13.2259L15.8888 16.9997L14.4923 18.4315ZM10.953 14.8715C10.3767 14.6432 9.86908 14.2248 9.5355 13.6471L11.2676 12.6471C11.3677 12.8206 11.5175 12.9439 11.6896 13.0121L10.953 14.8715ZM9.5355 13.6471L8.42019 11.7153L10.1522 10.7153L11.2676 12.6471L9.5355 13.6471ZM8.42019 11.7153C8.19171 11.3196 8.06821 10.8891 8.04292 10.4589L10.0395 10.3415C10.0469 10.468 10.0829 10.5952 10.1522 10.7153L8.42019 11.7153ZM8.5412 11.2662L7.33201 10.5681L8.33201 8.83605L9.5412 9.53417L8.5412 11.2662ZM7.33201 10.5681C6.11938 9.86799 5.7039 8.3174 6.40402 7.10477L8.13607 8.10477C7.98824 8.36081 8.07597 8.68822 8.33201 8.83605L7.33201 10.5681ZM6.40402 7.10477C7.10413 5.89214 8.65471 5.47666 9.86735 6.17677L8.86735 7.90882C8.6113 7.76099 8.2839 7.84872 8.13607 8.10477L6.40402 7.10477ZM9.86735 6.17677L12.3446 7.60703L11.3446 9.33908L8.86735 7.90882L9.86735 6.17677ZM12.3446 7.60703C12.6754 7.79801 12.9488 8.05416 13.1557 8.35061L11.5157 9.49527C11.473 9.43416 11.4164 9.38052 11.3446 9.33908L12.3446 7.60703ZM12.5777 7.95266L18.5714 9.44764L18.0874 11.3882L12.0937 9.89321L12.5777 7.95266ZM17.8739 9.52766C18.6741 9.1183 19.6802 9.24677 20.3519 9.91844L18.9377 11.3327C18.8974 11.2923 18.8352 11.2824 18.7848 11.3082L17.8739 9.52766ZM20.3519 9.91844L22.0186 11.5851L20.6044 12.9993L18.9377 11.3327L20.3519 9.91844ZM21.5703 11.3263L26.1471 12.5526L25.6295 14.4845L21.0526 13.2581L21.5703 11.3263ZM26.1471 12.5526C27.214 12.8385 27.8472 13.9352 27.5613 15.0021L25.6295 14.4845L25.6295 14.4845L26.1471 12.5526ZM27.5613 15.0021C27.2754 16.0691 26.1787 16.7022 25.1118 16.4163L25.6295 14.4845L27.5613 15.0021ZM25.1118 16.4163L23.8811 16.0866L24.3987 14.1547L25.6295 14.4845L25.1118 16.4163ZM24.847 14.4135L26.2075 15.774L24.7933 17.1882L23.4328 15.8277L24.847 14.4135ZM26.2075 15.774C27.0399 16.6065 27.0399 17.9561 26.2075 18.7885L24.7933 17.3743C24.8447 17.3229 24.8447 17.2396 24.7933 17.1882L26.2075 15.774ZM26.2075 18.7885C25.3751 19.621 24.0254 19.621 23.193 18.7885L24.6072 17.3743C24.6586 17.4257 24.7419 17.4257 24.7933 17.3743L26.2075 18.7885ZM23.193 18.7885L19.0607 14.6562L20.4749 13.242L24.6072 17.3743L23.193 18.7885ZM19.509 14.9151L19.0963 14.8045L19.614 12.8726L20.0266 12.9832L19.509 14.9151ZM20.3519 13.9194L20.3506 13.9346L18.3572 13.7729L18.3584 13.7577L20.3519 13.9194ZM19.0951 14.8197L15.6897 13.9072L16.2073 11.9754L19.6127 12.8879L19.0951 14.8197ZM14.9455 12.5348C15.0227 12.4903 15.0838 12.4325 15.13 12.3667L16.767 13.5158C16.5569 13.8151 16.28 14.0737 15.9455 14.2669L14.9455 12.5348ZM13.9038 13.1362L14.9455 12.5348L15.9455 14.2669L14.9038 14.8683L13.9038 13.1362Z" fill="white" mask="url(#path-2-outside-1_36_322)"/>
<path d="M17 20L11.8038 23L22.1962 23L17 20Z" fill="white"/>
<rect x="16" y="23" width="2" height="3" fill="white"/>
</svg>
