<svg width="32" height="32" viewBox="0 0 32 32" fill="none" xmlns="http://www.w3.org/2000/svg">
<rect x="3" y="3" width="26" height="26" rx="2" stroke="white" stroke-width="2"/>
<mask id="path-2-outside-1_25_140" maskUnits="userSpaceOnUse" x="6" y="3.03754" width="19" height="26" fill="black">
<rect fill="white" x="6" y="3.03754" width="19" height="26"/>
<path fill-rule="evenodd" clip-rule="evenodd" d="M12.9578 17.615L12.9578 7.86984C12.9578 7.31756 13.4055 6.86985 13.9578 6.86985C14.5101 6.86985 14.9578 7.31756 14.9578 7.86985L14.9578 15.0932L15.7865 15.1327L15.7865 6C15.7865 5.44771 16.2342 5 16.7865 5C17.3387 5 17.7865 5.44771 17.7865 6L17.7865 15.2279L19.0185 15.2866L19.0185 7.83589C19.0185 7.28361 19.4662 6.83589 20.0185 6.83589C20.5708 6.83589 21.0185 7.28361 21.0185 7.83589L21.0185 15.3818L21.6166 15.4103L21.6166 10.6323C21.6166 10.08 22.0643 9.63226 22.6166 9.63226C23.1689 9.63226 23.6166 10.08 23.6166 10.6323L23.6166 22.0046C23.6166 22.115 23.5987 22.2213 23.5656 22.3206L23.848 26.7039L15.4059 27.0375L14.8375 25.7707C14.3926 25.7504 13.9537 25.5704 13.614 25.2307L11.3083 22.925C11.0016 22.6183 10.8251 22.2307 10.7788 21.8309L8.13495 17.1168C7.85008 16.6088 8.03092 15.9661 8.53887 15.6812C9.04682 15.3964 9.68953 15.5772 9.97441 16.0852L11.5182 18.8378L12.3687 17.9873C12.5408 17.8152 12.7427 17.6911 12.9578 17.615Z"/>
</mask>
<path d="M12.9578 17.615L13.2914 18.5577L13.9578 18.3219L13.9578 17.615L12.9578 17.615ZM14.9578 7.86985L15.9578 7.86985L14.9578 7.86985ZM14.9578 15.0932L13.9578 15.0932L13.9578 16.0467L14.9102 16.0921L14.9578 15.0932ZM15.7865 15.1327L15.7389 16.1316L16.7865 16.1814L16.7865 15.1327L15.7865 15.1327ZM17.7865 15.2279L16.7865 15.2279L16.7865 16.1814L17.7389 16.2268L17.7865 15.2279ZM19.0185 15.2866L18.9709 16.2855L20.0185 16.3353L20.0185 15.2866L19.0185 15.2866ZM21.0185 15.3818L20.0185 15.3818L20.0185 16.3353L20.9709 16.3807L21.0185 15.3818ZM21.6166 15.4103L21.569 16.4092L22.6166 16.4591L22.6166 15.4103L21.6166 15.4103ZM23.5656 22.3206L22.6168 22.0049L22.5552 22.1901L22.5677 22.3849L23.5656 22.3206ZM23.848 26.7039L23.8875 27.7031L24.9118 27.6626L24.8459 26.6396L23.848 26.7039ZM15.4059 27.0375L14.4935 27.4469L14.7701 28.0634L15.4454 28.0368L15.4059 27.0375ZM14.8375 25.7707L15.7499 25.3613L15.4979 24.7998L14.8831 24.7717L14.8375 25.7707ZM13.614 25.2307L12.9069 25.9378L12.9069 25.9378L13.614 25.2307ZM11.3083 22.925L10.6012 23.6322L10.6012 23.6322L11.3083 22.925ZM10.7788 21.8309L11.7721 21.7158L11.749 21.5167L11.651 21.3418L10.7788 21.8309ZM8.13495 17.1168L7.26275 17.6059L7.26275 17.6059L8.13495 17.1168ZM8.53887 15.6812L8.04972 14.809L8.04972 14.809L8.53887 15.6812ZM9.97441 16.0852L9.10221 16.5743L9.97441 16.0852ZM11.5182 18.8378L10.646 19.3269L11.2917 20.4784L12.2253 19.5449L11.5182 18.8378ZM12.3687 17.9873L11.6616 17.2802L11.6616 17.2802L12.3687 17.9873ZM13.9578 17.615L13.9578 7.86984L11.9578 7.86984L11.9578 17.615L13.9578 17.615ZM13.9578 7.86984L13.9578 7.86985L13.9578 5.86985C12.8532 5.86985 11.9578 6.76527 11.9578 7.86984L13.9578 7.86984ZM13.9578 7.86985L13.9578 7.86985L15.9578 7.86985C15.9578 6.76527 15.0623 5.86985 13.9578 5.86985L13.9578 7.86985ZM13.9578 7.86985L13.9578 15.0932L15.9578 15.0932L15.9578 7.86985L13.9578 7.86985ZM14.9102 16.0921L15.7389 16.1316L15.834 14.1338L15.0053 14.0944L14.9102 16.0921ZM16.7865 15.1327L16.7865 6L14.7865 6L14.7865 15.1327L16.7865 15.1327ZM16.7865 6L16.7865 4C15.6819 4 14.7865 4.89543 14.7865 6L16.7865 6ZM16.7865 6L16.7865 6L18.7865 6C18.7865 4.89543 17.891 4 16.7865 4L16.7865 6ZM16.7865 6L16.7865 15.2279L18.7865 15.2279L18.7865 6L16.7865 6ZM17.7389 16.2268L18.9709 16.2855L19.0661 14.2877L17.834 14.2291L17.7389 16.2268ZM20.0185 15.2866L20.0185 7.83589L18.0185 7.83589L18.0185 15.2866L20.0185 15.2866ZM20.0185 7.83589L20.0185 7.83589L20.0185 5.83589C18.9139 5.83589 18.0185 6.73133 18.0185 7.83589L20.0185 7.83589ZM20.0185 7.83589L20.0185 7.83589L22.0185 7.83589C22.0185 6.73132 21.1231 5.83589 20.0185 5.83589L20.0185 7.83589ZM20.0185 7.83589L20.0185 15.3818L22.0185 15.3818L22.0185 7.83589L20.0185 7.83589ZM20.9709 16.3807L21.569 16.4092L21.6642 14.4114L21.0661 14.383L20.9709 16.3807ZM22.6166 15.4103L22.6166 10.6323L20.6166 10.6323L20.6166 15.4103L22.6166 15.4103ZM22.6166 10.6323L22.6166 8.63226C21.512 8.63226 20.6166 9.52769 20.6166 10.6323L22.6166 10.6323ZM22.6166 10.6323L24.6166 10.6323C24.6166 9.52769 23.7212 8.63226 22.6166 8.63226L22.6166 10.6323ZM22.6166 10.6323L22.6166 22.0046L24.6166 22.0046L24.6166 10.6323L22.6166 10.6323ZM22.6166 22.0046L22.6168 22.0049L24.5145 22.6363C24.581 22.4365 24.6166 22.2237 24.6166 22.0046L22.6166 22.0046ZM22.5677 22.3849L22.85 26.7682L24.8459 26.6396L24.5636 22.2563L22.5677 22.3849ZM23.8085 25.7047L15.3664 26.0383L15.4454 28.0368L23.8875 27.7031L23.8085 25.7047ZM16.3182 26.6282L15.7499 25.3613L13.9251 26.18L14.4935 27.4469L16.3182 26.6282ZM14.8831 24.7717C14.6776 24.7624 14.4776 24.6801 14.3211 24.5236L12.9069 25.9378C13.4298 26.4607 14.1076 26.7384 14.7919 26.7696L14.8831 24.7717ZM14.3211 24.5236L12.0154 22.2179L10.6012 23.6322L12.9069 25.9378L14.3211 24.5236ZM12.0154 22.2179C11.8738 22.0763 11.7934 21.8997 11.7721 21.7158L9.78542 21.9461C9.85679 22.5618 10.1295 23.1604 10.6012 23.6322L12.0154 22.2179ZM11.651 21.3418L9.00715 16.6276L7.26275 17.6059L9.90658 22.3201L11.651 21.3418ZM9.00715 16.6276C8.99243 16.6014 9.00178 16.5682 9.02803 16.5534L8.04972 14.809C7.06007 15.3641 6.70773 16.6163 7.26275 17.6059L9.00715 16.6276ZM9.02802 16.5534C9.05427 16.5387 9.08749 16.5481 9.10221 16.5743L10.8466 15.596C10.2916 14.6064 9.03938 14.254 8.04972 14.809L9.02802 16.5534ZM9.10221 16.5743L10.646 19.3269L12.3904 18.3486L10.8466 15.596L9.10221 16.5743ZM12.2253 19.5449L13.0758 18.6944L11.6616 17.2802L10.811 18.1307L12.2253 19.5449ZM13.0758 18.6944C13.1403 18.6299 13.2138 18.5851 13.2914 18.5577L12.6242 16.6722C12.2716 16.797 11.9413 17.0005 11.6616 17.2802L13.0758 18.6944Z" fill="white" mask="url(#path-2-outside-1_25_140)"/>
</svg>
