<svg width="32" height="32" viewBox="0 0 32 32" fill="none" xmlns="http://www.w3.org/2000/svg">
<path fill-rule="evenodd" clip-rule="evenodd" d="M11.9259 5H14.4444V6.35813L21.3704 7.42524V8.63786L14.4444 8.63786V21.3704H11.9259V8.63786L5.62963 8.63786V7.42524L11.9259 6.45514V5ZM14.2757 8.03155L13.1852 7.42524L12.0946 8.03155V9.24417L13.1852 9.85048L14.2757 9.24417V8.03155Z" fill="white"/>
<path d="M10.037 19.2222C10.037 18.6699 10.4847 18.2222 11.037 18.2222H15.3333C15.8856 18.2222 16.3333 18.6699 16.3333 19.2222V20.7407H10.037V19.2222Z" fill="white"/>
<path d="M7.51851 20.4815C7.51851 19.9292 7.96622 19.4815 8.51851 19.4815H17.8518C18.4041 19.4815 18.8518 19.9292 18.8518 20.4815V21.3704H7.51851V20.4815Z" fill="white"/>
<path d="M18.0821 13L19.4815 9.9702L20.8809 13H18.0821Z" stroke="white"/>
<path d="M6.11911 13L7.51852 9.9702L8.91792 13H6.11911Z" stroke="white"/>
<path d="M22 13.1852C22 13.5159 21.9349 13.8434 21.8083 14.149C21.6817 14.4545 21.4962 14.7322 21.2623 14.966C21.0285 15.1999 20.7508 15.3854 20.4453 15.512C20.1397 15.6386 19.8122 15.7037 19.4815 15.7037C19.1507 15.7037 18.8232 15.6386 18.5177 15.512C18.2121 15.3854 17.9345 15.1999 17.7006 14.966C17.4668 14.7322 17.2812 14.4545 17.1547 14.149C17.0281 13.8434 16.963 13.5159 16.963 13.1852L19.4815 13.1852H22Z" fill="white"/>
<path d="M10.037 13.1852C10.037 13.5159 9.97189 13.8434 9.84533 14.149C9.71876 14.4545 9.53325 14.7322 9.29938 14.966C9.06551 15.1999 8.78787 15.3854 8.48231 15.512C8.17675 15.6386 7.84926 15.7037 7.51852 15.7037C7.18778 15.7037 6.86028 15.6386 6.55472 15.512C6.24916 15.3854 5.97152 15.1999 5.73766 14.966C5.50379 14.7322 5.31828 14.4545 5.19171 14.149C5.06514 13.8434 5 13.5159 5 13.1852L7.51852 13.1852H10.037Z" fill="white"/>
<rect x="3" y="3" width="26" height="26" rx="2" stroke="white" stroke-width="2"/>
<path fill-rule="evenodd" clip-rule="evenodd" d="M21.5 26C23.9853 26 26 23.9853 26 21.5C26 19.0147 23.9853 17 21.5 17C19.0147 17 17 19.0147 17 21.5C17 23.9853 19.0147 26 21.5 26ZM22.38 25.73C22.4867 25.69 22.57 25.6267 22.63 25.54C22.6767 25.46 22.7 25.3633 22.7 25.25C22.7 25.2433 22.6967 25.2167 22.69 25.17C22.69 25.1167 22.6867 25.0633 22.68 25.01V24.87C22.6867 24.8233 22.6933 24.8 22.7 24.8C22.8333 24.7733 22.97 24.7467 23.11 24.72C23.25 24.6867 23.3767 24.6533 23.49 24.62C23.6033 24.5667 23.7067 24.5167 23.8 24.47C23.8933 24.4167 23.98 24.3533 24.06 24.28C24.14 24.2133 24.2133 24.14 24.28 24.06C24.3467 23.98 24.4067 23.8933 24.46 23.8C24.5533 23.5867 24.6033 23.3533 24.61 23.1C24.6233 22.72 24.54 22.3667 24.36 22.04C24.1867 21.7067 23.9133 21.4633 23.54 21.31C23.4267 21.2633 23.2933 21.21 23.14 21.15C22.9867 21.0833 22.84 21.03 22.7 20.99V19.61C22.8533 19.6233 23.0033 19.66 23.15 19.72C23.3033 19.7733 23.4367 19.8267 23.55 19.88C23.6367 19.9267 23.7267 19.9767 23.82 20.03C23.9133 20.0767 24.0133 20.0933 24.12 20.08C24.2133 20.0667 24.2933 20.0167 24.36 19.93C24.4267 19.8433 24.4633 19.7533 24.47 19.66C24.4767 19.4867 24.4333 19.3433 24.34 19.23C24.2533 19.11 24.1367 19.0033 23.99 18.91C23.8033 18.8033 23.5933 18.7167 23.36 18.65C23.1333 18.5767 22.9133 18.5167 22.7 18.47C22.7 18.3767 22.6967 18.2933 22.69 18.22C22.6833 18.1533 22.6767 18.0933 22.67 18.04V17.93C22.6233 17.81 22.5533 17.7267 22.46 17.68C22.3667 17.6333 22.26 17.6033 22.14 17.59C22.0067 17.5767 21.9067 17.5933 21.84 17.64C21.7733 17.6867 21.7 17.7667 21.62 17.88C21.5667 17.9533 21.54 18.0433 21.54 18.15V18.44C21.4067 18.4533 21.2533 18.4733 21.08 18.5C20.9067 18.5267 20.7633 18.5667 20.65 18.62C20.53 18.6733 20.4167 18.7267 20.31 18.78C20.21 18.8333 20.12 18.9 20.04 18.98C19.86 19.1267 19.73 19.3 19.65 19.5C19.61 19.6 19.5767 19.71 19.55 19.83C19.5233 19.9433 19.51 20.0667 19.51 20.2C19.51 20.3533 19.5267 20.4933 19.56 20.62C19.5933 20.74 19.6433 20.86 19.71 20.98C19.8433 21.22 20.0567 21.3967 20.35 21.51C20.4033 21.5433 20.4633 21.5733 20.53 21.6C20.6033 21.62 20.6833 21.6467 20.77 21.68C20.8633 21.7067 20.9833 21.7367 21.13 21.77C21.2833 21.8033 21.42 21.84 21.54 21.88V23.62C21.3667 23.5933 21.1767 23.5567 20.97 23.51C20.77 23.4567 20.5933 23.4 20.44 23.34C20.38 23.3133 20.32 23.2767 20.26 23.23C20.2 23.1767 20.14 23.13 20.08 23.09C20.02 23.05 19.9567 23.02 19.89 23C19.8233 22.9733 19.7567 22.97 19.69 22.99C19.59 23.01 19.51 23.0533 19.45 23.12C19.3967 23.1867 19.3567 23.2633 19.33 23.35C19.31 23.4367 19.3033 23.5267 19.31 23.62C19.3233 23.7067 19.3467 23.79 19.38 23.87C19.42 23.9767 19.48 24.07 19.56 24.15C19.6467 24.2233 19.74 24.29 19.84 24.35C19.94 24.4033 20.0433 24.4533 20.15 24.5C20.2633 24.54 20.37 24.58 20.47 24.62C20.6233 24.6733 20.8 24.72 21 24.76C21.2067 24.7933 21.3867 24.82 21.54 24.84V24.92C21.5467 24.9733 21.55 25.0333 21.55 25.1C21.5567 25.16 21.56 25.22 21.56 25.28C21.5667 25.34 21.5733 25.3767 21.58 25.39C21.6067 25.5033 21.6633 25.59 21.75 25.65C21.8433 25.7167 21.9433 25.7567 22.05 25.77C22.1633 25.7833 22.2733 25.77 22.38 25.73ZM20.9 20.43C20.86 20.3633 20.8367 20.3033 20.83 20.25C20.7967 20.0233 20.85 19.8633 20.99 19.77C21.1367 19.67 21.32 19.6133 21.54 19.6V20.73C21.44 20.7167 21.3467 20.7 21.26 20.68C21.1733 20.6533 21.1 20.62 21.04 20.58C20.9867 20.54 20.94 20.49 20.9 20.43ZM23.4 22.69C23.4533 22.7633 23.4867 22.8433 23.5 22.93C23.5133 23.0433 23.4967 23.1467 23.45 23.24C23.41 23.3333 23.3533 23.4133 23.28 23.48C23.2067 23.54 23.12 23.5867 23.02 23.62C22.92 23.6467 22.82 23.6533 22.72 23.64C22.7267 23.4067 22.7233 23.1733 22.71 22.94C22.7033 22.7 22.7 22.4633 22.7 22.23C22.7867 22.25 22.8733 22.2833 22.96 22.33C23.0533 22.37 23.1367 22.42 23.21 22.48C23.29 22.54 23.3533 22.61 23.4 22.69Z" fill="white"/>
<circle cx="21.5" cy="21.5" r="6" stroke="white"/>
</svg>
