<svg width="32" height="32" viewBox="0 0 32 32" fill="none" xmlns="http://www.w3.org/2000/svg">
<path fill-rule="evenodd" clip-rule="evenodd" d="M14.3704 5H17.7778V6.83748L27.1482 8.28121V9.92181L17.7778 9.92181V27.1481H14.3704V9.92181L5.85187 9.92181V8.28121L14.3704 6.96872V5ZM17.5495 9.10151L16.0741 8.28121L14.5986 9.10151V10.7421L16.0741 11.5624L17.5495 10.7421V9.10151Z" fill="white"/>
<path d="M11.8148 23.8889C11.8148 23.3366 12.2625 22.8889 12.8148 22.8889H19.3333C19.8856 22.8889 20.3333 23.3366 20.3333 23.8889V26.2963H11.8148V23.8889Z" fill="white"/>
<path d="M8.40741 25.5926C8.40741 25.0403 8.85512 24.5926 9.40741 24.5926H22.7407C23.293 24.5926 23.7407 25.0403 23.7407 25.5926V27.1481H8.40741V25.5926Z" fill="white"/>
<path d="M22.4234 16L24.5926 11.3035L26.7618 16H22.4234Z" stroke="white"/>
<path d="M6.2382 16L8.40741 11.3035L10.5766 16H6.2382Z" stroke="white"/>
<path d="M28 16.0741C28 16.5215 27.9119 16.9646 27.7406 17.378C27.5694 17.7914 27.3184 18.1671 27.002 18.4835C26.6856 18.7999 26.31 19.0509 25.8965 19.2221C25.4831 19.3933 25.0401 19.4815 24.5926 19.4815C24.1451 19.4815 23.702 19.3933 23.2886 19.2221C22.8752 19.0509 22.4996 18.7999 22.1832 18.4835C21.8668 18.1671 21.6158 17.7914 21.4446 17.378C21.2733 16.9646 21.1852 16.5215 21.1852 16.0741L24.5926 16.0741H28Z" fill="white"/>
<path d="M11.8148 16.0741C11.8148 16.5215 11.7267 16.9646 11.5554 17.378C11.3842 17.7914 11.1332 18.1671 10.8168 18.4835C10.5004 18.7999 10.1248 19.0509 9.71137 19.2221C9.29796 19.3933 8.85487 19.4815 8.40741 19.4815C7.95994 19.4815 7.51685 19.3933 7.10345 19.2221C6.69004 19.0509 6.31441 18.7999 5.99801 18.4835C5.6816 18.1671 5.43061 17.7914 5.25937 17.378C5.08814 16.9646 5 16.5215 5 16.0741L8.40741 16.0741H11.8148Z" fill="white"/>
<rect x="3" y="3" width="26" height="26" rx="2" stroke="white" stroke-width="2"/>
</svg>
