<svg width="32" height="32" viewBox="0 0 32 32" fill="none" xmlns="http://www.w3.org/2000/svg">
<rect x="3" y="3" width="26" height="26" rx="2" stroke="white" stroke-width="2"/>
<circle cx="2" cy="2" r="2" transform="matrix(-0.866025 -0.5 -0.5 0.866025 13.7363 7)" fill="white"/>
<line y1="-1" x2="16.9706" y2="-1" transform="matrix(0.258819 0.965926 0.965926 -0.258819 13.1022 10.0981)" stroke="white" stroke-width="2"/>
<line y1="-1" x2="6.15101" y2="-1" transform="matrix(-0.425299 0.905053 0.905053 0.425299 14.4503 15.9952)" stroke="white" stroke-width="2"/>
<line y1="-1" x2="4.24264" y2="-1" transform="matrix(-0.100714 0.994915 0.994915 0.100714 13.4503 10.9952)" stroke="white" stroke-width="2"/>
<line y1="-1" x2="4.24264" y2="-1" transform="matrix(0.866025 0.5 0.5 -0.866025 12.7408 9.99519)" stroke="white" stroke-width="2"/>
<line y1="-1" x2="4" y2="-1" transform="matrix(-0.774727 0.632296 0.632296 0.774727 13.0231 15.2163)" stroke="white" stroke-width="2"/>
<line y1="-1" x2="4" y2="-1" transform="matrix(0.258819 0.965926 0.965926 -0.258819 16.415 12.1165)" stroke="white" stroke-width="2"/>
<line y1="-1" x2="7.09708" y2="-1" transform="matrix(-0.164839 0.98632 0.98632 0.164839 12.4503 19.9952)" stroke="white" stroke-width="2"/>
<mask id="path-10-inside-1_51_527" fill="white">
<path d="M19.7139 10.5784C20.5675 10.5784 21.4128 10.7466 22.2014 11.0732C22.99 11.3999 23.7065 11.8787 24.3101 12.4822C24.9137 13.0858 25.3925 13.8024 25.7191 14.591C26.0458 15.3796 26.2139 16.2248 26.2139 17.0784C26.2139 17.932 26.0458 18.7773 25.7191 19.5659C25.3925 20.3545 24.9137 21.0711 24.3101 21.6746C23.7065 22.2782 22.99 22.757 22.2014 23.0837C21.4128 23.4103 20.5675 23.5784 19.7139 23.5784V22.2784C20.3968 22.2784 21.073 22.1439 21.7039 21.8826C22.3348 21.6213 22.908 21.2383 23.3909 20.7554C23.8737 20.2725 24.2568 19.6993 24.5181 19.0684C24.7794 18.4375 24.9139 17.7613 24.9139 17.0784C24.9139 16.3956 24.7794 15.7194 24.5181 15.0885C24.2568 14.4576 23.8737 13.8843 23.3909 13.4015C22.908 12.9186 22.3348 12.5356 21.7039 12.2743C21.073 12.0129 20.3968 11.8784 19.7139 11.8784L19.7139 10.5784Z"/>
</mask>
<path d="M19.7139 10.5784C20.5675 10.5784 21.4128 10.7466 22.2014 11.0732C22.99 11.3999 23.7065 11.8787 24.3101 12.4822C24.9137 13.0858 25.3925 13.8024 25.7191 14.591C26.0458 15.3796 26.2139 16.2248 26.2139 17.0784C26.2139 17.932 26.0458 18.7773 25.7191 19.5659C25.3925 20.3545 24.9137 21.0711 24.3101 21.6746C23.7065 22.2782 22.99 22.757 22.2014 23.0837C21.4128 23.4103 20.5675 23.5784 19.7139 23.5784V22.2784C20.3968 22.2784 21.073 22.1439 21.7039 21.8826C22.3348 21.6213 22.908 21.2383 23.3909 20.7554C23.8737 20.2725 24.2568 19.6993 24.5181 19.0684C24.7794 18.4375 24.9139 17.7613 24.9139 17.0784C24.9139 16.3956 24.7794 15.7194 24.5181 15.0885C24.2568 14.4576 23.8737 13.8843 23.3909 13.4015C22.908 12.9186 22.3348 12.5356 21.7039 12.2743C21.073 12.0129 20.3968 11.8784 19.7139 11.8784L19.7139 10.5784Z" stroke="white" stroke-width="4" mask="url(#path-10-inside-1_51_527)"/>
<path d="M17.5419 11.4427L21.4597 9.18078V13.7047L17.5419 11.4427Z" fill="white"/>
</svg>
