<svg width="32" height="32" viewBox="0 0 32 32" fill="none" xmlns="http://www.w3.org/2000/svg">
<path fill-rule="evenodd" clip-rule="evenodd" d="M4.21723 10.8355L4.58092 10.1217L7.71448 13.2553L9.37204 12.6178L10.0096 10.9602L6.87603 7.82666L7.58978 7.46298L10.0664 7.85524L11.8394 9.62829L12.2317 12.1049L11.868 12.8187L18.3515 19.3021L19.0653 18.9384L21.5419 19.3307L23.3149 21.1038L23.7072 23.5804L23.3435 24.2942L20.2099 21.1606L18.5524 21.7981L17.9148 23.4557L21.0484 26.5893L20.3346 26.9529L17.858 26.5607L16.085 24.7876L15.6927 22.311L16.0564 21.5973L9.57291 15.1138L8.85915 15.4775L6.38254 15.0852L4.60948 13.3121L4.21723 10.8355Z" fill="white"/>
<rect x="22.5083" y="8.16396" width="3.24575" height="20.286" transform="rotate(45 22.5083 8.16396)" fill="white"/>
<path d="M21.3608 8.16396L28.246 15.0492L25.3772 17.9181L17.6312 10.1722L13.3279 7.01641L21.3608 8.16396Z" fill="white"/>
<rect x="27.0985" y="12.7541" width="2.43431" height="5.68007" transform="rotate(45 27.0985 12.7541)" fill="white"/>
<rect x="3" y="3" width="26" height="26" rx="2" stroke="white" stroke-width="2"/>
</svg>
