<svg width="32" height="32" viewBox="0 0 32 32" fill="none" xmlns="http://www.w3.org/2000/svg">
<rect x="3" y="3" width="26" height="26" rx="2" stroke="white" stroke-width="2"/>
<path fill-rule="evenodd" clip-rule="evenodd" d="M11.7278 22.2112C13.2078 23.2001 14.9479 23.7279 16.7279 23.7279L16.7279 14.7279L25.7279 14.7279C25.7279 12.9479 25.2001 11.2078 24.2111 9.72779C23.2222 8.24775 21.8166 7.0942 20.1721 6.41301C18.5275 5.73182 16.7179 5.55359 14.9721 5.90086C13.2263 6.24812 11.6226 7.10529 10.364 8.36396C9.10528 9.62264 8.24812 11.2263 7.90085 12.9721C7.55358 14.7179 7.73181 16.5275 8.413 18.1721C9.09419 19.8166 10.2477 21.2222 11.7278 22.2112ZM16.3744 10.1317C16.9601 10.7175 17.9099 10.7175 18.4957 10.1317C19.0815 9.54594 19.0815 8.5962 18.4957 8.01041C17.9099 7.42462 16.9601 7.42462 16.3744 8.01041C15.7886 8.5962 15.7886 9.54594 16.3744 10.1317Z" fill="white"/>
<circle cx="19" cy="17" r="1" fill="white"/>
<circle cx="21" cy="20" r="1" fill="white"/>
<circle cx="22" cy="24" r="1" fill="white"/>
<circle cx="23" cy="28" r="1" fill="white"/>
</svg>
