<svg width="32" height="32" viewBox="0 0 32 32" fill="none" xmlns="http://www.w3.org/2000/svg">
<rect x="3" y="3" width="26" height="26" rx="2" stroke="white" stroke-width="2"/>
<circle cx="2" cy="2" r="2" transform="matrix(-1 0 0 1 12 9)" fill="white"/>
<line y1="-1" x2="6" y2="-1" transform="matrix(-4.37114e-08 1 1 4.37114e-08 11 14)" stroke="white" stroke-width="2"/>
<line y1="-1" x2="7.28011" y2="-1" transform="matrix(-0.274721 0.961524 0.961524 0.274721 16 20)" stroke="white" stroke-width="2"/>
<line y1="-1" x2="5.38512" y2="-1" transform="matrix(0.928476 0.371394 0.371394 -0.928476 10 18)" stroke="white" stroke-width="2"/>
<rect width="7" height="6" rx="1" transform="matrix(-1 0 0 1 12 21)" fill="white"/>
<path fill-rule="evenodd" clip-rule="evenodd" d="M22.4706 5H18.5882V6.29412H19.8824V6.98705C19.3433 7.06415 18.8349 7.23615 18.3746 7.4856L17.8302 6.94118L16 8.77134L16.5444 9.31576C16.1972 9.95656 16 10.6905 16 11.4706C16 13.9721 18.0279 16 20.5294 16C23.0309 16 25.0588 13.9721 25.0588 11.4706C25.0588 10.732 24.882 10.0347 24.5685 9.41869L25.2158 8.77134L23.3857 6.94118L22.785 7.54186C22.2985 7.26196 21.7551 7.06982 21.1765 6.98705V6.29412H22.4706V5ZM20.5294 14.7059C22.3162 14.7059 23.7647 13.2574 23.7647 11.4706C23.7647 9.68378 22.3162 8.23529 20.5294 8.23529C18.7426 8.23529 17.2941 9.68378 17.2941 11.4706C17.2941 13.2574 18.7426 14.7059 20.5294 14.7059Z" fill="white"/>
<line x1="21.0294" y1="8.88235" x2="21.0294" y2="11.4706" stroke="white"/>
</svg>
