<svg width="32" height="32" viewBox="0 0 32 32" fill="none" xmlns="http://www.w3.org/2000/svg">
<rect x="3" y="3" width="26" height="26" rx="2" stroke="white" stroke-width="2"/>
<path fill-rule="evenodd" clip-rule="evenodd" d="M21 26H11V18H21V26ZM14 19C13.4477 19 13 19.4477 13 20V22C13 22.5523 13.4477 23 14 23H18C18.5523 23 19 22.5523 19 22V20C19 19.4477 18.5523 19 18 19H14Z" fill="white"/>
<rect width="4" height="3" transform="matrix(1 0 0 -1 14 18)" fill="white"/>
<path d="M13.2982 15H18.7018C18.7018 15 22.0272 12.7086 22.7546 10.5C23.3068 8.82308 22.7546 6 22.7546 6H9.24545C9.24545 6 8.69319 8.82308 9.24545 10.5C9.97281 12.7086 13.2982 15 13.2982 15Z" fill="white"/>
<path d="M22 9.62438C22 9.62438 24.1657 7.46782 25.5 8.12438C27.0768 8.90027 26.6975 11.3382 25.5 12.6244C24.6585 13.5282 22.5 13.6244 22.5 13.6244L23 15.6244" stroke="white" stroke-width="2"/>
<path d="M10.5452 9.62438C10.5452 9.62438 8.37947 7.46782 7.04518 8.12438C5.46838 8.90027 5.84768 11.3382 7.04518 12.6244C7.8867 13.5282 10.0452 13.6244 10.0452 13.6244L9.54518 15.6244" stroke="white" stroke-width="2"/>
</svg>
