<svg width="32" height="32" viewBox="0 0 32 32" fill="none" xmlns="http://www.w3.org/2000/svg">
<g clip-path="url(#clip0_29_379)">
<circle cx="16" cy="16" r="10.5" transform="rotate(-30 16 16)" stroke="white" stroke-width="3"/>
<path d="M5.8577 22.433C5.4309 21.6938 5.15389 20.8777 5.04247 20.0314C4.93105 19.1852 4.98742 18.3252 5.20834 17.5007C5.42927 16.6762 5.81043 15.9033 6.33007 15.2261C6.8497 14.5489 7.49763 13.9807 8.23686 13.5539C8.97609 13.1271 9.79215 12.8501 10.6384 12.7386C11.4847 12.6272 12.3447 12.6836 13.1692 12.9045C13.9937 13.1254 14.7666 13.5066 15.4438 14.0262C16.121 14.5459 16.6892 15.1938 17.116 15.933L15.4273 16.908C15.1285 16.3906 14.7308 15.937 14.2567 15.5733C13.7827 15.2095 13.2416 14.9427 12.6645 14.7881C12.0873 14.6334 11.4854 14.594 10.893 14.672C10.3006 14.7499 9.72933 14.9439 9.21186 15.2426C8.6944 15.5414 8.24085 15.9391 7.8771 16.4132C7.51336 16.8872 7.24655 17.4282 7.0919 18.0054C6.93725 18.5826 6.8978 19.1845 6.97579 19.7769C7.05378 20.3693 7.24769 20.9406 7.54645 21.458L5.8577 22.433Z" fill="white"/>
<path d="M26.6423 10.433C27.5043 11.926 27.7378 13.7002 27.2917 15.3654C26.8455 17.0305 25.7561 18.4502 24.2631 19.3122C22.7702 20.1741 20.996 20.4077 19.3308 19.9615C17.6657 19.5154 16.2459 18.426 15.384 16.933L17.0727 15.958C17.6761 17.0031 18.6699 17.7657 19.8355 18.078C21.0011 18.3903 22.2431 18.2268 23.2881 17.6234C24.3332 17.0201 25.0958 16.0263 25.4081 14.8607C25.7204 13.695 25.5569 12.4531 24.9536 11.408L26.6423 10.433Z" fill="white"/>
</g>
<defs>
<clipPath id="clip0_29_379">
<rect width="32" height="32" fill="white"/>
</clipPath>
</defs>
</svg>
