<svg width="32" height="32" viewBox="0 0 32 32" fill="none" xmlns="http://www.w3.org/2000/svg">
<mask id="path-1-outside-1_29_190" maskUnits="userSpaceOnUse" x="0" y="2" width="31" height="29" fill="black">
<rect fill="white" y="2" width="31" height="29"/>
<path fill-rule="evenodd" clip-rule="evenodd" d="M24.6667 9.77778C26.2622 9.77778 27.5556 8.48438 27.5556 6.88889C27.5556 5.2934 26.2622 4 24.6667 4C23.0712 4 21.7778 5.2934 21.7778 6.88889C21.7778 8.48438 23.0712 9.77778 24.6667 9.77778ZM20.3333 8.33333L19.5909 9.07577L15.8031 6.88892L15.8031 6.88889L10.2222 8.38429L10.9987 11.2821L15.3793 10.1083L17.3947 11.2719L3 25.6667L5.12132 27.788L15.7992 17.1101L18.4074 20.3704L13.1111 25.6667L15.2324 27.788L20.293 22.7274L20.3333 22.7778L22.6759 20.9037L22.4274 20.593L22.4547 20.5658L22.2094 20.3205L17.9336 14.9757L20.288 12.6213L23.2222 15.5556H29V12.5556H24.4649L22.4093 10.5L22.4547 10.4547L20.3333 8.33333Z"/>
</mask>
<path d="M19.5909 9.07577L19.0909 9.9418L19.7554 10.3255L20.298 9.78288L19.5909 9.07577ZM20.3333 8.33333L21.0404 7.62623L20.3333 6.91912L19.6262 7.62623L20.3333 8.33333ZM15.8031 6.88892L14.8429 7.16824L14.9552 7.55404L15.3031 7.75494L15.8031 6.88892ZM15.8031 6.88889L16.7633 6.60956L16.4899 5.6696L15.5443 5.92296L15.8031 6.88889ZM10.2222 8.38429L9.96341 7.41836L8.99749 7.67718L9.2563 8.64311L10.2222 8.38429ZM10.9987 11.2821L10.0328 11.5409L10.2916 12.5068L11.2575 12.248L10.9987 11.2821ZM15.3793 10.1083L15.8793 9.24227L15.5205 9.03516L15.1204 9.14237L15.3793 10.1083ZM17.3947 11.2719L18.1018 11.979L19.0234 11.0575L17.8947 10.4059L17.3947 11.2719ZM3 25.6667L2.29289 24.9596L1.58579 25.6667L2.29289 26.3738L3 25.6667ZM5.12132 27.788L4.41421 28.4951L5.12132 29.2022L5.82843 28.4951L5.12132 27.788ZM15.7992 17.1101L16.5801 16.4854L15.8821 15.613L15.0921 16.403L15.7992 17.1101ZM18.4074 20.3704L19.1145 21.0775L19.7474 20.4446L19.1883 19.7457L18.4074 20.3704ZM13.1111 25.6667L12.404 24.9596L11.6969 25.6667L12.404 26.3738L13.1111 25.6667ZM15.2324 27.788L14.5253 28.4951L15.2324 29.2022L15.9395 28.4951L15.2324 27.788ZM20.293 22.7274L21.0739 22.1027L20.376 21.2302L19.5859 22.0203L20.293 22.7274ZM20.3333 22.7778L19.5525 23.4025L20.1771 24.1834L20.958 23.5586L20.3333 22.7778ZM22.6759 20.9037L23.3006 21.6846L24.0815 21.0599L23.4568 20.279L22.6759 20.9037ZM22.4274 20.593L21.7203 19.8859L21.0874 20.5188L21.6465 21.2177L22.4274 20.593ZM22.4547 20.5658L23.1618 21.2729L23.8689 20.5658L23.1618 19.8587L22.4547 20.5658ZM22.2094 20.3205L21.4285 20.9452L21.4631 20.9884L21.5023 21.0276L22.2094 20.3205ZM17.9336 14.9757L17.2265 14.2686L16.5936 14.9015L17.1527 15.6004L17.9336 14.9757ZM20.288 12.6213L20.9951 11.9142L20.288 11.2071L19.5809 11.9142L20.288 12.6213ZM23.2222 15.5556L22.5151 16.2627L22.808 16.5556H23.2222V15.5556ZM29 15.5556V16.5556H30V15.5556H29ZM29 12.5556H30V11.5556H29V12.5556ZM24.4649 12.5556L23.7578 13.2627L24.0506 13.5556H24.4649V12.5556ZM22.4093 10.5L21.7022 9.79289L20.9951 10.5L21.7022 11.2071L22.4093 10.5ZM22.4547 10.4547L23.1618 11.1618L23.8689 10.4547L23.1618 9.74755L22.4547 10.4547ZM28.5556 6.88889C28.5556 6.18209 28.3661 5.5165 28.0345 4.94341L26.3034 5.94502C26.4636 6.22187 26.5556 6.54312 26.5556 6.88889H28.5556ZM26.6122 3.52106C26.0391 3.18947 25.3735 3 24.6667 3V5C25.0124 5 25.3337 5.09199 25.6105 5.25218L26.6122 3.52106ZM24.6667 3C23.9599 3 23.2943 3.18947 22.7212 3.52106L23.7228 5.25217C23.9996 5.09199 24.3209 5 24.6667 5V3ZM21.2988 4.94341C20.9672 5.5165 20.7778 6.18209 20.7778 6.88889H22.7778C22.7778 6.54312 22.8698 6.22187 23.03 5.94502L21.2988 4.94341ZM20.7778 6.88889C20.7778 7.59569 20.9672 8.26128 21.2988 8.83437L23.03 7.83276C22.8698 7.55591 22.7778 7.23466 22.7778 6.88889H20.7778ZM22.7212 10.2567C23.2943 10.5883 23.9599 10.7778 24.6667 10.7778V8.77778C24.3209 8.77778 23.9996 8.68578 23.7228 8.5256L22.7212 10.2567ZM24.6667 10.7778C25.3735 10.7778 26.0391 10.5883 26.6121 10.2567L25.6105 8.5256C25.3337 8.68578 25.0124 8.77778 24.6667 8.77778V10.7778ZM28.0345 8.83437C28.3661 8.26128 28.5556 7.59569 28.5556 6.88889H26.5556C26.5556 7.23466 26.4636 7.55591 26.3034 7.83276L28.0345 8.83437ZM20.0909 8.20975L18.8283 7.4808L17.8283 9.21285L19.0909 9.9418L20.0909 8.20975ZM17.5657 6.75184L16.3031 6.02289L15.3031 7.75494L16.5657 8.48389L17.5657 6.75184ZM16.7633 6.60959L16.7633 6.60958L14.8429 7.16824L14.8429 7.16824L16.7633 6.60959ZM16.7633 6.60957L16.7633 6.60956L14.8429 7.16822L14.8429 7.16823L16.7633 6.60957ZM15.5443 5.92296L13.684 6.42143L14.2017 8.35328L16.062 7.85481L15.5443 5.92296ZM11.8237 6.9199L9.96341 7.41836L10.481 9.35021L12.3414 8.85175L11.8237 6.9199ZM9.2563 8.64311L9.51512 9.60903L11.447 9.09139L11.1882 8.12547L9.2563 8.64311ZM9.77394 10.575L10.0328 11.5409L11.9646 11.0232L11.7058 10.0573L9.77394 10.575ZM11.2575 12.248L12.7177 11.8567L12.2001 9.92488L10.7399 10.3161L11.2575 12.248ZM14.1779 11.4655L15.6381 11.0742L15.1204 9.14237L13.6603 9.53362L14.1779 11.4655ZM14.8793 10.9743L15.5511 11.3622L16.5511 9.63015L15.8793 9.24227L14.8793 10.9743ZM16.2229 11.7501L16.8947 12.138L17.8947 10.4059L17.2229 10.018L16.2229 11.7501ZM16.6876 10.5648L15.0882 12.1642L16.5024 13.5784L18.1018 11.979L16.6876 10.5648ZM13.4888 13.7637L10.29 16.9625L11.7042 18.3767L14.903 15.1779L13.4888 13.7637ZM8.69056 18.5619L5.49172 21.7607L6.90594 23.1749L10.1048 19.9761L8.69056 18.5619ZM3.89231 23.3601L2.29289 24.9596L3.70711 26.3738L5.30652 24.7744L3.89231 23.3601ZM2.29289 26.3738L3 27.0809L4.41421 25.6667L3.70711 24.9596L2.29289 26.3738ZM3.70711 27.788L4.41421 28.4951L5.82843 27.0809L5.12132 26.3738L3.70711 27.788ZM5.82843 28.4951L7.01486 27.3087L5.60064 25.8945L4.41421 27.0809L5.82843 28.4951ZM8.20129 26.1222L10.5742 23.7494L9.15994 22.3352L6.78708 24.708L8.20129 26.1222ZM11.7606 22.5629L14.1334 20.1901L12.7192 18.7759L10.3464 21.1487L11.7606 22.5629ZM15.3199 19.0036L16.5063 17.8172L15.0921 16.403L13.9057 17.5894L15.3199 19.0036ZM15.0183 17.7348L15.8877 18.8216L17.4495 17.5722L16.5801 16.4854L15.0183 17.7348ZM16.7571 19.9083L17.6265 20.9951L19.1883 19.7457L18.3189 18.6589L16.7571 19.9083ZM17.7003 19.6633L15.9349 21.4287L17.3491 22.8429L19.1145 21.0775L17.7003 19.6633ZM14.1694 23.1941L12.404 24.9596L13.8182 26.3738L15.5837 24.6083L14.1694 23.1941ZM12.404 26.3738L13.1111 27.0809L14.5253 25.6667L13.8182 24.9596L12.404 26.3738ZM13.8182 27.788L14.5253 28.4951L15.9395 27.0809L15.2324 26.3738L13.8182 27.788ZM15.9395 28.4951L17.6264 26.8082L16.2122 25.394L14.5253 27.0809L15.9395 28.4951ZM19.3133 25.1214L21.0001 23.4345L19.5859 22.0203L17.8991 23.7071L19.3133 25.1214ZM19.5121 23.3521L19.5256 23.3689L21.0873 22.1195L21.0739 22.1027L19.5121 23.3521ZM19.539 23.3857L19.5525 23.4025L21.1142 22.1531L21.1008 22.1363L19.539 23.3857ZM20.958 23.5586L21.7389 22.934L20.4895 21.3722L19.7086 21.9969L20.958 23.5586ZM22.5198 22.3093L23.3006 21.6846L22.0512 20.1228L21.2704 20.7475L22.5198 22.3093ZM23.4568 20.279L23.374 20.1754L21.8122 21.4248L21.8951 21.5284L23.4568 20.279ZM23.2911 20.0719L23.2083 19.9683L21.6465 21.2177L21.7294 21.3213L23.2911 20.0719ZM23.1345 21.3001L23.1436 21.291L21.7294 19.8768L21.7203 19.8859L23.1345 21.3001ZM23.1527 21.282L23.1618 21.2729L21.7475 19.8587L21.7385 19.8677L23.1527 21.282ZM23.1618 19.8587L23.08 19.7769L21.6658 21.1911L21.7475 21.2729L23.1618 19.8587ZM22.9982 19.6951L22.9165 19.6134L21.5023 21.0276L21.584 21.1093L22.9982 19.6951ZM22.9902 19.6958L21.565 17.9142L20.0032 19.1636L21.4285 20.9452L22.9902 19.6958ZM20.1397 16.1326L18.7144 14.351L17.1527 15.6004L18.578 17.382L20.1397 16.1326ZM18.6407 15.6828L19.4255 14.898L18.0113 13.4838L17.2265 14.2686L18.6407 15.6828ZM20.2103 14.1132L20.9951 13.3284L19.5809 11.9142L18.7961 12.699L20.2103 14.1132ZM19.5809 13.3284L20.559 14.3065L21.9732 12.8923L20.9951 11.9142L19.5809 13.3284ZM21.537 15.2846L22.5151 16.2627L23.9293 14.8484L22.9513 13.8704L21.537 15.2846ZM23.2222 16.5556H25.1481V14.5556H23.2222V16.5556ZM27.0741 16.5556H29V14.5556H27.0741V16.5556ZM30 15.5556V14.5556H28V15.5556H30ZM30 13.5556V12.5556H28V13.5556H30ZM29 11.5556H27.4883V13.5556H29V11.5556ZM25.9766 11.5556H24.4649V13.5556H25.9766V11.5556ZM25.172 11.8484L24.4868 11.1633L23.0726 12.5775L23.7578 13.2627L25.172 11.8484ZM23.8016 10.4781L23.1164 9.79289L21.7022 11.2071L22.3874 11.8923L23.8016 10.4781ZM23.1164 11.2071L23.1315 11.192L21.7173 9.77777L21.7022 9.79289L23.1164 11.2071ZM23.1466 11.1769L23.1618 11.1618L21.7476 9.74754L21.7324 9.76266L23.1466 11.1769ZM23.1618 9.74755L22.4547 9.04044L21.0404 10.4547L21.7475 11.1618L23.1618 9.74755ZM21.7475 8.33333L21.0404 7.62623L19.6262 9.04044L20.3333 9.74755L21.7475 8.33333ZM19.6262 7.62623L19.3787 7.87371L20.793 9.28792L21.0404 9.04044L19.6262 7.62623ZM19.1313 8.12119L18.8838 8.36867L20.298 9.78288L20.5455 9.5354L19.1313 8.12119ZM19.5909 9.07577L18.5909 10.8078L19.9199 11.5752L21.0051 10.49L19.5909 9.07577ZM20.3333 8.33333L21.7475 6.91912L20.3333 5.50491L18.9191 6.91912L20.3333 8.33333ZM15.8031 6.88892L13.8828 7.44757L14.1072 8.21917L14.8031 8.62097L15.8031 6.88892ZM15.8031 6.88889L17.7235 6.33023L17.1766 4.45031L15.2855 4.95704L15.8031 6.88889ZM10.2222 8.38429L9.70459 6.45244L7.77274 6.97007L8.29038 8.90193L10.2222 8.38429ZM10.9987 11.2821L9.06684 11.7997L9.58447 13.7316L11.5163 13.2139L10.9987 11.2821ZM15.3793 10.1083L16.3793 8.37624L15.6618 7.96203L14.8616 8.17644L15.3793 10.1083ZM17.3947 11.2719L18.809 12.6861L20.652 10.8431L18.3947 9.53988L17.3947 11.2719ZM3 25.6667L1.58579 24.2525L0.171573 25.6667L1.58579 27.0809L3 25.6667ZM5.12132 27.788L3.70711 29.2022L5.12132 30.6164L6.53553 29.2022L5.12132 27.788ZM15.7992 17.1101L17.3609 15.8607L15.965 14.1158L14.385 15.6959L15.7992 17.1101ZM18.4074 20.3704L19.8216 21.7846L21.0874 20.5188L19.9691 19.121L18.4074 20.3704ZM13.1111 25.6667L11.6969 24.2525L10.2827 25.6667L11.6969 27.0809L13.1111 25.6667ZM15.2324 27.788L13.8182 29.2022L15.2324 30.6164L16.6466 29.2022L15.2324 27.788ZM20.293 22.7274L21.8548 21.478L20.4589 19.7331L18.8788 21.3132L20.293 22.7274ZM20.3333 22.7778L18.7716 24.0271L20.021 25.5889L21.5827 24.3395L20.3333 22.7778ZM22.6759 20.9037L23.9253 22.4654L25.4871 21.216L24.2377 19.6543L22.6759 20.9037ZM22.4274 20.593L21.0132 19.1788L19.7474 20.4446L20.8657 21.8424L22.4274 20.593ZM22.4547 20.5658L23.8689 21.98L25.2831 20.5658L23.8689 19.1516L22.4547 20.5658ZM22.2094 20.3205L20.6476 21.5699L20.7168 21.6564L20.7952 21.7347L22.2094 20.3205ZM17.9336 14.9757L16.5194 13.5615L15.2536 14.8273L16.3718 16.2251L17.9336 14.9757ZM20.288 12.6213L21.7022 11.2071L20.288 9.79289L18.8738 11.2071L20.288 12.6213ZM23.2222 15.5556L21.808 16.9698L22.3938 17.5556H23.2222V15.5556ZM29 15.5556V17.5556H31V15.5556H29ZM29 12.5556H31V10.5556H29V12.5556ZM24.4649 12.5556L23.0506 13.9698L23.6364 14.5556H24.4649V12.5556ZM22.4093 10.5L20.9951 9.08578L19.5809 10.5L20.9951 11.9142L22.4093 10.5ZM22.4547 10.4547L23.8689 11.8689L25.2831 10.4547L23.8689 9.04044L22.4547 10.4547ZM29.5556 6.88889C29.5556 6.00157 29.3174 5.16382 28.9001 4.4426L25.4378 6.44583C25.5123 6.57455 25.5556 6.72363 25.5556 6.88889H29.5556ZM27.113 2.6555C26.3917 2.23821 25.554 2 24.6667 2V6C24.8319 6 24.981 6.04326 25.1097 6.11773L27.113 2.6555ZM24.6667 2C23.7793 2 22.9416 2.23821 22.2204 2.6555L24.2236 6.11773C24.3523 6.04326 24.5014 6 24.6667 6V2ZM20.4333 4.4426C20.016 5.16382 19.7778 6.00157 19.7778 6.88889H23.7778C23.7778 6.72363 23.821 6.57455 23.8955 6.44583L20.4333 4.4426ZM19.7778 6.88889C19.7778 7.77621 20.016 8.61396 20.4333 9.33518L23.8955 7.33195C23.821 7.20323 23.7778 7.05415 23.7778 6.88889H19.7778ZM22.2204 11.1223C22.9416 11.5396 23.7793 11.7778 24.6667 11.7778V7.77778C24.5014 7.77778 24.3523 7.73452 24.2236 7.66004L22.2204 11.1223ZM24.6667 11.7778C25.554 11.7778 26.3917 11.5396 27.113 11.1223L25.1097 7.66004C24.981 7.73452 24.8319 7.77778 24.6667 7.77778V11.7778ZM28.9001 9.33518C29.3174 8.61396 29.5556 7.77621 29.5556 6.88889H25.5556C25.5556 7.05415 25.5123 7.20323 25.4378 7.33195L28.9001 9.33518ZM20.5909 7.34372L19.3283 6.61477L17.3283 10.0789L18.5909 10.8078L20.5909 7.34372ZM18.0657 5.88582L16.8031 5.15686L14.8031 8.62097L16.0657 9.34992L18.0657 5.88582ZM17.7235 6.33026L17.7235 6.33025L13.8827 7.44757L13.8828 7.44757L17.7235 6.33026ZM17.7235 6.33024L17.7235 6.33023L13.8827 7.44755L13.8827 7.44756L17.7235 6.33024ZM15.2855 4.95704L13.4252 5.4555L14.4605 9.31921L16.3208 8.82074L15.2855 4.95704ZM11.5649 5.95397L9.70459 6.45244L10.7399 10.3161L12.6002 9.81767L11.5649 5.95397ZM8.29038 8.90193L8.5492 9.86785L12.4129 8.83258L12.1541 7.86665L8.29038 8.90193ZM8.80802 10.8338L9.06684 11.7997L12.9305 10.7644L12.6717 9.7985L8.80802 10.8338ZM11.5163 13.2139L12.9765 12.8227L11.9412 8.95896L10.481 9.35021L11.5163 13.2139ZM14.4367 12.4314L15.8969 12.0401L14.8616 8.17644L13.4014 8.5677L14.4367 12.4314ZM14.3793 11.8403L15.0511 12.2282L17.0511 8.76412L16.3793 8.37624L14.3793 11.8403ZM15.7229 12.6161L16.3947 13.004L18.3947 9.53988L17.7229 9.152L15.7229 12.6161ZM15.9805 9.85771L14.3811 11.4571L17.2095 14.2856L18.809 12.6861L15.9805 9.85771ZM12.7817 13.0565L9.58286 16.2554L12.4113 19.0838L15.6101 15.885L12.7817 13.0565ZM7.98345 17.8548L4.78462 21.0536L7.61304 23.882L10.8119 20.6832L7.98345 17.8548ZM3.1852 22.653L1.58579 24.2525L4.41421 27.0809L6.01363 25.4815L3.1852 22.653ZM1.58579 27.0809L2.29289 27.788L5.12132 24.9596L4.41421 24.2525L1.58579 27.0809ZM3 28.4951L3.70711 29.2022L6.53553 26.3738L5.82843 25.6667L3 28.4951ZM6.53553 29.2022L7.72196 28.0158L4.89354 25.1873L3.70711 26.3738L6.53553 29.2022ZM8.9084 26.8293L11.2813 24.4565L8.45283 21.6281L6.07997 24.0009L8.9084 26.8293ZM12.4677 23.27L14.8406 20.8972L12.0121 18.0688L9.63926 20.4416L12.4677 23.27ZM16.027 19.7108L17.2134 18.5243L14.385 15.6959L13.1986 16.8823L16.027 19.7108ZM14.2375 18.3595L15.1069 19.4463L18.2303 16.9475L17.3609 15.8607L14.2375 18.3595ZM15.9763 20.533L16.8457 21.6198L19.9691 19.121L19.0997 18.0342L15.9763 20.533ZM16.9932 18.9562L15.2278 20.7216L18.0562 23.55L19.8216 21.7846L16.9932 18.9562ZM13.4623 22.487L11.6969 24.2525L14.5253 27.0809L16.2908 25.3154L13.4623 22.487ZM11.6969 27.0809L12.404 27.788L15.2324 24.9596L14.5253 24.2525L11.6969 27.0809ZM13.1111 28.4951L13.8182 29.2022L16.6466 26.3738L15.9395 25.6667L13.1111 28.4951ZM16.6466 29.2022L18.3335 27.5153L15.5051 24.6869L13.8182 26.3738L16.6466 29.2022ZM20.0204 25.8285L21.7072 24.1416L18.8788 21.3132L17.1919 23L20.0204 25.8285ZM18.7313 23.9768L18.7447 23.9936L21.8682 21.4948L21.8548 21.478L18.7313 23.9768ZM18.7581 24.0104L18.7716 24.0271L21.8951 21.5284L21.8817 21.5116L18.7581 24.0104ZM21.5827 24.3395L22.3636 23.7148L19.8648 20.5913L19.0839 21.216L21.5827 24.3395ZM23.1445 23.0901L23.9253 22.4654L21.4265 19.342L20.6457 19.9667L23.1445 23.0901ZM24.2377 19.6543L24.1548 19.5507L21.0314 22.0495L21.1142 22.1531L24.2377 19.6543ZM24.072 19.4472L23.9891 19.3436L20.8657 21.8424L20.9485 21.946L24.072 19.4472ZM23.8416 22.0072L23.8507 21.9981L21.0223 19.1697L21.0132 19.1788L23.8416 22.0072ZM23.8598 21.9891L23.8689 21.98L21.0404 19.1516L21.0314 19.1606L23.8598 21.9891ZM23.8689 19.1516L23.7871 19.0698L20.9587 21.8982L21.0404 21.98L23.8689 19.1516ZM23.7053 18.988L23.6236 18.9063L20.7952 21.7347L20.8769 21.8165L23.7053 18.988ZM23.7711 19.0711L22.3458 17.2895L19.2224 19.7883L20.6476 21.5699L23.7711 19.0711ZM20.9206 15.5079L19.4953 13.7263L16.3718 16.2251L17.7971 18.0067L20.9206 15.5079ZM19.3478 16.3899L20.1326 15.6051L17.3042 12.7767L16.5194 13.5615L19.3478 16.3899ZM20.9174 14.8203L21.7022 14.0355L18.8738 11.2071L18.089 11.9919L20.9174 14.8203ZM18.8738 14.0355L19.8519 15.0136L22.6803 12.1852L21.7022 11.2071L18.8738 14.0355ZM20.8299 15.9917L21.808 16.9698L24.6364 14.1413L23.6584 13.1633L20.8299 15.9917ZM23.2222 17.5556H25.1481V13.5556H23.2222V17.5556ZM27.0741 17.5556H29V13.5556H27.0741V17.5556ZM31 15.5556V14.5556H27V15.5556H31ZM31 13.5556V12.5556H27V13.5556H31ZM29 10.5556H27.4883V14.5556H29V10.5556ZM25.9766 10.5556H24.4649V14.5556H25.9766V10.5556ZM25.8791 11.1413L25.1939 10.4562L22.3655 13.2846L23.0506 13.9698L25.8791 11.1413ZM24.5087 9.77097L23.8235 9.08579L20.9951 11.9142L21.6803 12.5994L24.5087 9.77097ZM23.8235 11.9142L23.8386 11.8991L21.0102 9.07066L20.9951 9.08578L23.8235 11.9142ZM23.8537 11.884L23.8689 11.8689L21.0404 9.04043L21.0253 9.05555L23.8537 11.884ZM23.8689 9.04044L23.1618 8.33333L20.3333 11.1618L21.0404 11.8689L23.8689 9.04044ZM22.4547 7.62623L21.7475 6.91912L18.9191 9.74755L19.6262 10.4547L22.4547 7.62623ZM18.9191 6.91912L18.6716 7.1666L21.5001 9.99503L21.7475 9.74755L18.9191 6.91912ZM18.4242 7.41408L18.1767 7.66156L21.0051 10.49L21.2526 10.2425L18.4242 7.41408Z" fill="white" mask="url(#path-1-outside-1_29_190)"/>
</svg>
