<svg width="32" height="32" viewBox="0 0 32 32" fill="none" xmlns="http://www.w3.org/2000/svg">
<g clip-path="url(#clip0_399_2)">
<path d="M15.134 5.5C15.5189 4.83333 16.4811 4.83333 16.866 5.5L27.2583 23.5C27.6432 24.1667 27.1621 25 26.3923 25H5.60769C4.83789 25 4.35677 24.1667 4.74167 23.5L15.134 5.5Z" stroke="white" stroke-width="2"/>
<path d="M15.731 17.7349C15.647 17.1842 15.5584 16.6149 15.465 16.0269C15.3717 15.4389 15.2924 14.8555 15.227 14.2769C15.171 13.6889 15.143 13.1195 15.143 12.5689V11.3789H18.139V12.5689C18.139 13.1195 18.1064 13.6889 18.041 14.2769C17.985 14.8555 17.9104 15.4389 17.817 16.0269C17.7237 16.6149 17.635 17.1842 17.551 17.7349H15.731ZM16.655 21.6129C16.2164 21.6129 15.8757 21.4915 15.633 21.2489C15.3904 21.0062 15.269 20.6609 15.269 20.2129C15.269 19.8022 15.395 19.4662 15.647 19.2049C15.9084 18.9435 16.2444 18.8129 16.655 18.8129C17.0937 18.8129 17.4344 18.9342 17.677 19.1769C17.9197 19.4195 18.041 19.7649 18.041 20.2129C18.041 20.6235 17.9104 20.9595 17.649 21.2209C17.397 21.4822 17.0657 21.6129 16.655 21.6129Z" fill="white"/>
</g>
<defs>
<clipPath id="clip0_399_2">
<rect width="32" height="32" fill="white"/>
</clipPath>
</defs>
</svg>
