<svg width="32" height="32" viewBox="0 0 32 32" fill="none" xmlns="http://www.w3.org/2000/svg">
<g clip-path="url(#clip0_399_43)">
<path fill-rule="evenodd" clip-rule="evenodd" d="M2.50622 10.3213C1.2588 11.0415 0.69929 12.5466 1.17336 13.9067L3.01788 19.1988C3.11644 19.4815 3.25676 19.7479 3.4342 19.9891L6.02663 23.5131C6.83871 24.617 8.35095 24.9338 9.53776 24.2486C10.5603 23.6582 11.0782 22.47 10.8146 21.3191L10.54 20.1196C10.246 18.8358 10.8237 17.5104 11.9643 16.8519L13.1586 16.1624L14.3528 15.4729C15.4934 14.8144 16.9301 14.9768 17.8949 15.8733L18.7963 16.7109C19.6613 17.5146 20.9492 17.6601 21.9717 17.0698C23.1586 16.3846 23.6404 14.9166 23.0904 13.6614L21.3906 9.78177C21.234 9.42438 21.0092 9.10097 20.7288 8.82965L16.5105 4.74831C15.5479 3.81694 14.0845 3.63655 12.9245 4.30627L2.50622 10.3213ZM6.17263 16.0449C7.50989 15.2728 7.96807 13.5629 7.196 12.2256C6.42393 10.8884 4.71399 10.4302 3.37673 11.2023C2.03947 11.9743 1.58129 13.6843 2.35336 15.0215C3.12543 16.3588 4.83537 16.817 6.17263 16.0449ZM16.8813 6.63383C17.6533 7.97109 17.1952 9.68104 15.8579 10.4531C14.5207 11.2252 12.8107 10.767 12.0386 9.42974C11.2666 8.09248 11.7248 6.38253 13.062 5.61046C14.3993 4.8384 16.1092 5.29658 16.8813 6.63383ZM14.6884 14.818C15.6435 14.2665 15.9708 13.0451 15.4193 12.0899C14.8679 11.1348 13.6465 10.8075 12.6913 11.359C11.7361 11.9104 11.4088 13.1318 11.9603 14.087C12.5118 15.0422 13.7332 15.3695 14.6884 14.818ZM11.2685 14.4864C11.82 15.4416 11.4927 16.663 10.5375 17.2145C9.58234 17.766 8.36095 17.4387 7.80947 16.4835C7.25799 15.5283 7.58526 14.3069 8.54045 13.7554C9.49563 13.204 10.717 13.5312 11.2685 14.4864ZM9.0182 9.78997C9.59131 9.45909 9.78767 8.72625 9.45679 8.15314C9.1259 7.58003 8.39307 7.38367 7.81996 7.71456C7.24684 8.04544 7.05048 8.77828 7.38137 9.35139C7.71225 9.9245 8.44509 10.1209 9.0182 9.78997Z" fill="white"/>
<circle cx="9.53899" cy="15.485" r="1.19824" transform="rotate(-30 9.53899 15.485)" fill="white"/>
<circle cx="13.6898" cy="13.0885" r="1.19824" transform="rotate(-30 13.6898 13.0885)" fill="white"/>
<circle cx="4.77468" cy="13.6236" r="1.99707" transform="rotate(-30 4.77468 13.6236)" fill="white"/>
<rect x="13.1155" y="6.50198" width="1.59766" height="1.59766" transform="rotate(-30 13.1155 6.50198)" fill="white"/>
<rect x="15.298" y="7.08676" width="1.59766" height="1.59766" transform="rotate(-30 15.298 7.08676)" fill="white"/>
<rect x="14.7132" y="9.2692" width="1.59766" height="1.59766" transform="rotate(-30 14.7132 9.2692)" fill="white"/>
<rect x="12.5308" y="8.68442" width="1.59766" height="1.59766" transform="rotate(-30 12.5308 8.68442)" fill="white"/>
<path d="M5.85308 9C5.85308 9 7.14558 7.73166 6.98642 6.6C6.81017 5.34676 5.08289 4.65814 5.00308 3.4C4.94047 2.41303 5.85308 1 5.85308 1" stroke="white"/>
<path fill-rule="evenodd" clip-rule="evenodd" d="M14.7321 18.9641C13.7755 19.5164 13.4477 20.7396 14 21.6962L18.9641 30.2942C19.5164 31.2508 20.7396 31.5786 21.6961 31.0263L30.2942 26.0622C31.2508 25.5099 31.5785 24.2867 31.0263 23.3301L26.0622 14.7321C25.5099 13.7755 24.2867 13.4477 23.3301 14L14.7321 18.9641ZM18.453 22.4449C19.1191 22.0602 19.3474 21.2084 18.9628 20.5422C18.5782 19.8761 17.7263 19.6478 17.0602 20.0324C16.394 20.417 16.1657 21.2689 16.5503 21.935C16.935 22.6012 17.7868 22.8295 18.453 22.4449ZM22.4448 26.5733C22.8294 27.2394 22.6012 28.0913 21.935 28.4759C21.2688 28.8605 20.417 28.6323 20.0324 27.9661C19.6478 27.2999 19.876 26.4481 20.5422 26.0635C21.2084 25.6789 22.0602 25.9071 22.4448 26.5733ZM24.4841 18.9628C25.1502 18.5782 25.3785 17.7264 24.9939 17.0602C24.6092 16.394 23.7574 16.1658 23.0912 16.5504C22.4251 16.935 22.1968 17.7868 22.5814 18.453C22.966 19.1192 23.8179 19.3474 24.4841 18.9628ZM28.4759 23.0912C28.8605 23.7574 28.6323 24.6092 27.9661 24.9939C27.2999 25.3785 26.4481 25.1502 26.0635 24.484C25.6789 23.8179 25.9071 22.966 26.5733 22.5814C27.2395 22.1968 28.0913 22.4251 28.4759 23.0912ZM23.2095 23.7194C23.8757 23.3348 24.104 22.4829 23.7193 21.8168C23.3347 21.1506 22.4829 20.9223 21.8167 21.3069C21.1505 21.6916 20.9223 22.5434 21.3069 23.2096C21.6915 23.8757 22.5434 24.104 23.2095 23.7194Z" fill="white"/>
</g>
<defs>
<clipPath id="clip0_399_43">
<rect width="32" height="32" fill="white"/>
</clipPath>
</defs>
</svg>
