<svg width="32" height="32" viewBox="0 0 32 32" fill="none" xmlns="http://www.w3.org/2000/svg">
<rect x="3" y="3" width="26" height="26" rx="2" stroke="white" stroke-width="2"/>
<path d="M12.5061 13.07C11.9261 13.07 11.3994 12.9633 10.9261 12.75C10.4594 12.5367 10.0694 12.2267 9.75609 11.82L10.9061 10.57C11.1461 10.8367 11.3828 11.02 11.6161 11.12C11.8494 11.22 12.1128 11.27 12.4061 11.27C12.5794 11.27 12.7294 11.2367 12.8561 11.17C12.9894 11.1033 13.0894 11.0133 13.1561 10.9C13.2294 10.78 13.2661 10.6467 13.2661 10.5C13.2661 10.3467 13.2261 10.2133 13.1461 10.1C13.0728 9.98 12.9694 9.88667 12.8361 9.82C12.7028 9.74667 12.5461 9.71 12.3661 9.71C12.1928 9.71 12.0328 9.72667 11.8861 9.76C11.7461 9.79333 11.6028 9.84333 11.4561 9.91C11.3161 9.97667 11.1628 10.0667 10.9961 10.18L10.1561 9.08L10.6061 5.9H14.8061V7.65H11.5061L12.1161 6.81L11.7861 9.03L10.9361 8.89C11.1028 8.75 11.2861 8.62667 11.4861 8.52C11.6928 8.41333 11.9061 8.33 12.1261 8.27C12.3528 8.20333 12.5828 8.17 12.8161 8.17C13.2761 8.17 13.6861 8.27333 14.0461 8.48C14.4061 8.68667 14.6894 8.97667 14.8961 9.35C15.1094 9.71667 15.2161 10.14 15.2161 10.62C15.2161 11.08 15.0961 11.4967 14.8561 11.87C14.6161 12.2367 14.2928 12.53 13.8861 12.75C13.4794 12.9633 13.0194 13.07 12.5061 13.07ZM19.288 13.1C18.588 13.1 17.9946 12.96 17.508 12.68C17.0213 12.4 16.6513 11.9933 16.398 11.46C16.1446 10.92 16.018 10.2667 16.018 9.5C16.018 8.73333 16.1446 8.08333 16.398 7.55C16.6513 7.01 17.0213 6.6 17.508 6.32C17.9946 6.04 18.588 5.9 19.288 5.9C19.988 5.9 20.5813 6.04 21.068 6.32C21.5613 6.6 21.9346 7.01 22.188 7.55C22.4413 8.08333 22.568 8.73333 22.568 9.5C22.568 10.2667 22.4413 10.92 22.188 11.46C21.9346 11.9933 21.5613 12.4 21.068 12.68C20.5813 12.96 19.988 13.1 19.288 13.1ZM19.288 11.32C19.6813 11.32 19.9846 11.1633 20.198 10.85C20.4113 10.5367 20.518 10.0867 20.518 9.5C20.518 8.88 20.4113 8.40667 20.198 8.08C19.9846 7.74667 19.6813 7.58 19.288 7.58C18.8946 7.58 18.5913 7.74667 18.378 8.08C18.1646 8.40667 18.058 8.88 18.058 9.5C18.058 10.0867 18.1646 10.5367 18.378 10.85C18.5913 11.1633 18.8946 11.32 19.288 11.32ZM8.07 25.51V19.83L8.44 21.11L6.85 21.79L6.56 19.85L8.64 18.9H10.16V25.51H8.07ZM6.66 26V24.16H11.6V26H6.66ZM15.6942 26.1C14.9942 26.1 14.4009 25.96 13.9142 25.68C13.4276 25.4 13.0576 24.9933 12.8042 24.46C12.5509 23.92 12.4242 23.2667 12.4242 22.5C12.4242 21.7333 12.5509 21.0833 12.8042 20.55C13.0576 20.01 13.4276 19.6 13.9142 19.32C14.4009 19.04 14.9942 18.9 15.6942 18.9C16.3942 18.9 16.9876 19.04 17.4742 19.32C17.9676 19.6 18.3409 20.01 18.5942 20.55C18.8476 21.0833 18.9742 21.7333 18.9742 22.5C18.9742 23.2667 18.8476 23.92 18.5942 24.46C18.3409 24.9933 17.9676 25.4 17.4742 25.68C16.9876 25.96 16.3942 26.1 15.6942 26.1ZM15.6942 24.32C16.0876 24.32 16.3909 24.1633 16.6042 23.85C16.8176 23.5367 16.9242 23.0867 16.9242 22.5C16.9242 21.88 16.8176 21.4067 16.6042 21.08C16.3909 20.7467 16.0876 20.58 15.6942 20.58C15.3009 20.58 14.9976 20.7467 14.7842 21.08C14.5709 21.4067 14.4642 21.88 14.4642 22.5C14.4642 23.0867 14.5709 23.5367 14.7842 23.85C14.9976 24.1633 15.3009 24.32 15.6942 24.32ZM22.9403 26.1C22.2403 26.1 21.647 25.96 21.1603 25.68C20.6736 25.4 20.3036 24.9933 20.0503 24.46C19.797 23.92 19.6703 23.2667 19.6703 22.5C19.6703 21.7333 19.797 21.0833 20.0503 20.55C20.3036 20.01 20.6736 19.6 21.1603 19.32C21.647 19.04 22.2403 18.9 22.9403 18.9C23.6403 18.9 24.2336 19.04 24.7203 19.32C25.2136 19.6 25.587 20.01 25.8403 20.55C26.0936 21.0833 26.2203 21.7333 26.2203 22.5C26.2203 23.2667 26.0936 23.92 25.8403 24.46C25.587 24.9933 25.2136 25.4 24.7203 25.68C24.2336 25.96 23.6403 26.1 22.9403 26.1ZM22.9403 24.32C23.3336 24.32 23.637 24.1633 23.8503 23.85C24.0636 23.5367 24.1703 23.0867 24.1703 22.5C24.1703 21.88 24.0636 21.4067 23.8503 21.08C23.637 20.7467 23.3336 20.58 22.9403 20.58C22.547 20.58 22.2436 20.7467 22.0303 21.08C21.817 21.4067 21.7103 21.88 21.7103 22.5C21.7103 23.0867 21.817 23.5367 22.0303 23.85C22.2436 24.1633 22.547 24.32 22.9403 24.32Z" fill="white"/>
<line x1="7" y1="16" x2="25" y2="16" stroke="white" stroke-width="2"/>
</svg>
