<svg width="32" height="32" viewBox="0 0 32 32" fill="none" xmlns="http://www.w3.org/2000/svg">
<g clip-path="url(#clip0_383_67)">
<path fill-rule="evenodd" clip-rule="evenodd" d="M10.9259 3H13.4445V4.35813L20.3704 5.42524V6.63786L13.4445 6.63786V19.3704H10.9259V6.63786L4.62964 6.63786V5.42524L10.9259 4.45514V3ZM13.2757 6.03155L12.1852 5.42524L11.0946 6.03155V7.24417L12.1852 7.85048L13.2757 7.24417V6.03155Z" fill="white"/>
<path d="M9.03702 17.2222C9.03702 16.6699 9.48473 16.2222 10.037 16.2222H14.3333C14.8856 16.2222 15.3333 16.6699 15.3333 17.2222V18.7407H9.03702V17.2222Z" fill="white"/>
<path d="M6.51852 18.4815C6.51852 17.9292 6.96624 17.4815 7.51852 17.4815H16.8519C17.4041 17.4815 17.8519 17.9292 17.8519 18.4815V19.3704H6.51852V18.4815Z" fill="white"/>
<path d="M17.0821 11L18.4815 7.9702L19.8809 11H17.0821Z" stroke="white"/>
<path d="M5.11911 11L6.51852 7.9702L7.91792 11H5.11911Z" stroke="white"/>
<path d="M21 11.1852C21 11.5159 20.9348 11.8434 20.8083 12.149C20.6817 12.4545 20.4962 12.7322 20.2623 12.966C20.0285 13.1999 19.7508 13.3854 19.4453 13.512C19.1397 13.6386 18.8122 13.7037 18.4815 13.7037C18.1507 13.7037 17.8232 13.6386 17.5177 13.512C17.2121 13.3854 16.9345 13.1999 16.7006 12.966C16.4667 12.7322 16.2812 12.4545 16.1547 12.149C16.0281 11.8434 15.963 11.5159 15.963 11.1852L18.4815 11.1852H21Z" fill="white"/>
<path d="M9.03704 11.1852C9.03704 11.5159 8.97189 11.8434 8.84533 12.149C8.71876 12.4545 8.53325 12.7322 8.29938 12.966C8.06551 13.1999 7.78787 13.3854 7.48231 13.512C7.17675 13.6386 6.84926 13.7037 6.51852 13.7037C6.18778 13.7037 5.86028 13.6386 5.55472 13.512C5.24916 13.3854 4.97152 13.1999 4.73766 12.966C4.50379 12.7322 4.31828 12.4545 4.19171 12.149C4.06514 11.8434 4 11.5159 4 11.1852L6.51852 11.1852H9.03704Z" fill="white"/>
<path fill-rule="evenodd" clip-rule="evenodd" d="M5.62795 29.5518L8.64844 24.5312L12.0105 23.6824L20.2461 18.9276L18.3543 15.6509L19.9927 14.705L22.3574 18.8008L26.6723 16.3096C26.6728 15.6563 27.0121 15.0212 27.6185 14.6711C28.5233 14.1487 29.6803 14.4587 30.2027 15.3635C30.7251 16.2683 30.4151 17.4253 29.5103 17.9477C28.9039 18.2978 28.1842 18.274 27.6182 17.9479L23.3032 20.4391L25.668 24.535L24.0296 25.4808L22.1379 22.2042L13.9022 26.9591L11.4861 29.4462L5.62795 29.5518Z" fill="white"/>
</g>
<defs>
<clipPath id="clip0_383_67">
<rect width="32" height="32" fill="white"/>
</clipPath>
</defs>
</svg>
