<svg width="32" height="32" viewBox="0 0 32 32" fill="none" xmlns="http://www.w3.org/2000/svg">
<mask id="path-1-inside-1_438_22" fill="white">
<path fill-rule="evenodd" clip-rule="evenodd" d="M19 22.7665C19 21.9517 19.508 21.238 20.201 20.8095C22.4809 19.3999 24 16.8774 24 14C24 9.58172 20.4183 6 16 6C11.5817 6 8 9.58172 8 14C8 16.8774 9.51907 19.3999 11.799 20.8095C12.492 21.238 13 21.9517 13 22.7665V25C13 26.1046 13.8954 27 15 27H17C18.1046 27 19 26.1046 19 25V22.7665Z"/>
</mask>
<path d="M11.799 20.8095L10.7473 22.5106L11.799 20.8095ZM22 14C22 16.1558 20.8644 18.048 19.1493 19.1084L21.2527 22.5106C24.0974 20.7519 26 17.599 26 14H22ZM16 8C19.3137 8 22 10.6863 22 14H26C26 8.47715 21.5228 4 16 4V8ZM10 14C10 10.6863 12.6863 8 16 8V4C10.4772 4 6 8.47715 6 14H10ZM12.8507 19.1084C11.1356 18.048 10 16.1558 10 14H6C6 17.599 7.90257 20.7519 10.7473 22.5106L12.8507 19.1084ZM15 25V22.7665H11V25H15ZM17 25H15V29H17V25ZM17 22.7665V25H21V22.7665H17ZM11 25C11 27.2091 12.7909 29 15 29V25L15 25H11ZM10.7473 22.5106C10.8636 22.5825 10.9377 22.6633 10.9747 22.7211C11.0079 22.7729 11 22.7858 11 22.7665H15C15 21.0836 13.9672 19.7986 12.8507 19.1084L10.7473 22.5106ZM17 29C19.2091 29 21 27.2091 21 25H17L17 25V29ZM19.1493 19.1084C18.0328 19.7986 17 21.0836 17 22.7665H21C21 22.7858 20.9921 22.7729 21.0253 22.7211C21.0623 22.6633 21.1364 22.5825 21.2527 22.5106L19.1493 19.1084Z" fill="white" mask="url(#path-1-inside-1_438_22)"/>
<line x1="11.2929" y1="14.2929" x2="13.2929" y2="12.2929" stroke="white" stroke-width="2"/>
<line x1="14.2929" y1="14.7071" x2="12.2929" y2="12.7071" stroke="white" stroke-width="2"/>
<line x1="14.2929" y1="14.2929" x2="16.2929" y2="12.2929" stroke="white" stroke-width="2"/>
<line x1="17.2929" y1="14.7071" x2="15.2929" y2="12.7071" stroke="white" stroke-width="2"/>
<line x1="17.2929" y1="14.2929" x2="19.2929" y2="12.2929" stroke="white" stroke-width="2"/>
<line x1="20.2929" y1="14.7071" x2="18.2929" y2="12.7071" stroke="white" stroke-width="2"/>
<mask id="path-9-inside-2_438_22" fill="white">
<path d="M13 25C13 23.3431 14.3431 22 16 22V22C17.6569 22 19 23.3431 19 25V28C19 29.6569 17.6569 31 16 31V31C14.3431 31 13 29.6569 13 28V25Z"/>
</mask>
<path d="M13 22H19H13ZM20 29C20 31.2091 18.2091 33 16 33C13.7909 33 12 31.2091 12 29L14 28C14 28.5523 14.8954 29 16 29C17.1046 29 18 28.5523 18 28L20 29ZM16 33C13.7909 33 12 31.2091 12 29V26C12 23.7909 13.7909 22 16 22C14.8954 22 14 23.3431 14 25V28C14 28.5523 14.8954 29 16 29V33ZM16 22C18.2091 22 20 23.7909 20 26V29C20 31.2091 18.2091 33 16 33V29C17.1046 29 18 28.5523 18 28V25C18 23.3431 17.1046 22 16 22Z" fill="white" mask="url(#path-9-inside-2_438_22)"/>
<line x1="6" y1="14.5" x2="2" y2="14.5" stroke="white"/>
<line x1="7.7" y1="9.4" x2="3.7" y2="6.4" stroke="white"/>
<line x1="10.584" y1="5.27735" x2="8.58397" y2="2.27735" stroke="white"/>
<line y1="-0.5" x2="4" y2="-0.5" transform="matrix(1 0 0 -1 27 14)" stroke="white"/>
<line y1="-0.5" x2="5" y2="-0.5" transform="matrix(0.8 -0.6 -0.6 -0.8 25 9)" stroke="white"/>
<line y1="-0.5" x2="3.60555" y2="-0.5" transform="matrix(0.5547 -0.83205 -0.83205 -0.5547 22 5)" stroke="white"/>
<line x1="16.5" y1="4" x2="16.5" y2="1" stroke="white"/>
</svg>
