<svg width="32" height="32" viewBox="0 0 32 32" fill="none" xmlns="http://www.w3.org/2000/svg">
<path fill-rule="evenodd" clip-rule="evenodd" d="M17.7796 13.8395C18.7233 13.6783 19.5908 13.1139 20.1068 12.2201C21.0273 10.6258 20.4811 8.58714 18.8868 7.66667C17.2924 6.74619 15.2538 7.29244 14.3333 8.88675C13.829 9.76021 13.765 10.767 14.0723 11.6503L14.9693 16.9519C14.9693 16.9519 15.5279 15.4762 16.2193 14.7869C16.6123 14.395 17.2348 14.0713 17.7796 13.8395Z" fill="white"/>
<path fill-rule="evenodd" clip-rule="evenodd" d="M11.6048 15.6079C10.9295 16.2864 9.96839 16.6704 8.94048 16.5774C7.10703 16.4114 5.75526 14.7906 5.92123 12.9571C6.0872 11.1237 7.70805 9.7719 9.5415 9.93787C10.546 10.0288 11.4059 10.5564 11.9508 11.3164L15.7678 15.1036C15.7678 15.1036 14.2397 14.7101 13.278 14.8782C12.7313 14.9737 12.1081 15.2961 11.6048 15.6079Z" fill="white"/>
<path fill-rule="evenodd" clip-rule="evenodd" d="M18.154 17.7796C18.3153 18.7233 18.8797 19.5908 19.7735 20.1068C21.3678 21.0273 23.4064 20.4811 24.3269 18.8868C25.2474 17.2924 24.7011 15.2538 23.1068 14.3333C22.2334 13.829 21.2265 13.765 20.3433 14.0723L15.0417 14.9693C15.0417 14.9693 16.5174 15.5279 17.2067 16.2193C17.5986 16.6123 17.9223 17.2348 18.154 17.7796Z" fill="white"/>
<path fill-rule="evenodd" clip-rule="evenodd" d="M15.3807 18.0475C15.934 18.8287 16.1483 19.8413 15.8812 20.8382C15.4047 22.6164 13.5769 23.6717 11.7987 23.1952C10.0205 22.7188 8.96518 20.891 9.44165 19.1128C9.70269 18.1385 10.3693 17.3813 11.2112 16.9741L15.5943 13.8595C15.5943 13.8595 14.9457 15.298 14.9472 16.2743C14.9481 16.8293 15.1593 17.4984 15.3807 18.0475Z" fill="white"/>
<rect x="3" y="3" width="26" height="26" rx="2" stroke="white" stroke-width="2"/>
<path d="M15.495 14.9293C15.495 14.9293 17.0846 18.8493 17.495 21.5C17.9388 24.3672 17.495 28.9293 17.495 28.9293" stroke="white"/>
</svg>
