<svg width="32" height="32" viewBox="0 0 32 32" fill="none" xmlns="http://www.w3.org/2000/svg">
<g clip-path="url(#clip0_406_131)">
<path d="M30.3029 12.3071L28.6238 15.7754L31.2925 18.5551L27.475 18.03L25.6561 21.427L24.9759 17.6342L21.183 16.9539L24.58 15.135L24.0549 11.3176L26.8346 13.9862L30.3029 12.3071Z" fill="white"/>
<line x1="23.4" y1="19.1022" x2="14.268" y2="28.2342" stroke="white" stroke-width="2"/>
<rect x="3" y="22.3333" width="16.6667" height="1.66667" fill="white"/>
<mask id="path-4-inside-1_406_131" fill="white">
<path fill-rule="evenodd" clip-rule="evenodd" d="M16.3341 19C18.3578 17.4796 19.6667 15.0593 19.6667 12.3333C19.6667 7.73096 15.9357 4 11.3333 4C6.73096 4 3 7.73096 3 12.3333C3 15.0593 4.30891 17.4796 6.33252 19H16.3341Z"/>
</mask>
<path d="M16.3341 19V21H17.0017L17.5355 20.599L16.3341 19ZM6.33252 19L5.13117 20.599L5.66492 21H6.33252V19ZM17.6667 12.3333C17.6667 14.4038 16.6753 16.2421 15.1328 17.401L17.5355 20.599C20.0403 18.7171 21.6667 15.7149 21.6667 12.3333H17.6667ZM11.3333 6C14.8311 6 17.6667 8.83553 17.6667 12.3333H21.6667C21.6667 6.62639 17.0403 2 11.3333 2V6ZM5 12.3333C5 8.83553 7.83553 6 11.3333 6V2C5.62639 2 1 6.62639 1 12.3333H5ZM7.53387 17.401C5.99141 16.2421 5 14.4038 5 12.3333H1C1 15.7149 2.6264 18.7171 5.13117 20.599L7.53387 17.401ZM6.33252 21H16.3341V17H6.33252V21Z" fill="white" mask="url(#path-4-inside-1_406_131)"/>
<path d="M6.33333 19.8333H16.3333L19.6667 21.5H3L6.33333 19.8333Z" fill="white"/>
<path d="M13.8333 6.5L14.6415 7.8876L16.211 8.22746L15.141 9.4249L15.3028 11.0225L13.8333 10.375L12.3638 11.0225L12.5256 9.4249L11.4557 8.22746L13.0251 7.8876L13.8333 6.5Z" fill="white"/>
</g>
<defs>
<clipPath id="clip0_406_131">
<rect width="32" height="32" fill="white"/>
</clipPath>
</defs>
</svg>
