<svg width="32" height="32" viewBox="0 0 32 32" fill="none" xmlns="http://www.w3.org/2000/svg">
<mask id="path-1-inside-1_338_3103" fill="white">
<path d="M16.4772 16.4772C16.4772 17.8554 15.3599 18.9726 13.9817 18.9726C12.6036 18.9726 11.4863 17.8554 11.4863 16.4772C11.4863 15.099 12.6036 13.9817 13.9817 13.9817C15.3599 13.9817 16.4772 15.099 16.4772 16.4772Z"/>
</mask>
<path d="M17.4772 17.4772C17.4772 19.4076 15.9122 20.9726 13.9817 20.9726C12.0513 20.9726 10.4863 19.4076 10.4863 17.4772L12.4863 16.4772C12.4863 16.7508 13.1558 16.9726 13.9817 16.9726C14.8076 16.9726 15.4772 16.7508 15.4772 16.4772L17.4772 17.4772ZM11.4863 13.9817L16.4772 13.9817L11.4863 13.9817ZM13.9817 13.9817C15.9122 13.9817 17.4772 15.5467 17.4772 17.4772C17.4772 19.4076 15.9122 20.9726 13.9817 20.9726L13.9817 16.9726C14.8076 16.9726 15.4772 16.7508 15.4772 16.4772C15.4772 15.099 14.8076 13.9817 13.9817 13.9817ZM13.9817 20.9726C12.0513 20.9726 10.4863 19.4076 10.4863 17.4772C10.4863 15.5467 12.0513 13.9817 13.9817 13.9817C13.1558 13.9817 12.4863 15.099 12.4863 16.4772C12.4863 16.7508 13.1558 16.9726 13.9817 16.9726L13.9817 20.9726Z" fill="white" mask="url(#path-1-inside-1_338_3103)"/>
<mask id="path-3-inside-2_338_3103" fill="white">
<path d="M11.0495 11.0077C9.91255 9.87074 9.91255 8.02739 11.0495 6.89044C12.1865 5.75349 14.0298 5.75349 15.1668 6.89044C16.3037 8.02739 16.3037 9.87074 15.1668 11.0077C14.0298 12.1446 12.1865 12.1446 11.0495 11.0077Z"/>
</mask>
<path d="M9.63529 11.0077C8.10782 9.48022 8.10782 7.0037 9.63529 5.47623L9.63529 5.47623C11.1628 3.94875 13.6393 3.94875 15.1668 5.47623L14.4596 7.59755C14.1038 7.24165 13.2101 7.55823 12.4637 8.30465L12.4637 8.30465C11.7173 9.05108 11.4007 9.94469 11.7566 10.3006L9.63529 11.0077ZM17.2254 8.94907L13.1081 13.0663L17.2254 8.94907ZM15.1668 11.0077C13.6393 12.5352 11.1628 12.5352 9.63529 11.0077C8.10782 9.48022 8.10782 7.0037 9.63529 5.47623L12.4637 8.30465C11.7173 9.05108 11.4007 9.94469 11.7566 10.3006C12.8936 11.4375 14.4203 11.7541 15.1668 11.0077ZM9.63529 5.47623C11.1628 3.94875 13.6393 3.94875 15.1668 5.47623C16.6942 7.0037 16.6942 9.48022 15.1668 11.0077C15.9132 10.2613 15.5966 8.73449 14.4596 7.59755C14.1038 7.24165 13.2101 7.55823 12.4637 8.30465L9.63529 5.47623Z" fill="white" mask="url(#path-3-inside-2_338_3103)"/>
<mask id="path-5-inside-3_338_3103" fill="white">
<path d="M23.0899 8.53314C24.6978 8.53314 26.0012 9.83659 26.0012 11.4445C26.0012 13.0524 24.6978 14.3558 23.0899 14.3558C21.482 14.3558 20.1785 13.0524 20.1785 11.4445C20.1785 9.83659 21.482 8.53314 23.0899 8.53314Z"/>
</mask>
<path d="M24.0899 7.53314C26.2501 7.53314 28.0012 9.28431 28.0012 11.4445L28.0012 11.4445C28.0012 13.6047 26.2501 15.3558 24.0899 15.3558L23.0899 13.3558C23.5932 13.3558 24.0012 12.5001 24.0012 11.4445L24.0012 11.4445C24.0012 10.3889 23.5932 9.53314 23.0899 9.53314L24.0899 7.53314ZM20.1785 14.3558L20.1785 8.53314L20.1785 14.3558ZM20.1785 11.4445C20.1785 9.28431 21.9297 7.53314 24.0899 7.53314C26.2501 7.53314 28.0012 9.28431 28.0012 11.4445L24.0012 11.4445C24.0012 10.3889 23.5932 9.53314 23.0899 9.53314C21.482 9.53314 20.1785 10.3889 20.1785 11.4445ZM28.0012 11.4445C28.0012 13.6047 26.2501 15.3558 24.0899 15.3558C21.9297 15.3558 20.1785 13.6047 20.1785 11.4445C20.1785 12.5001 21.482 13.3558 23.0899 13.3558C23.5932 13.3558 24.0012 12.5001 24.0012 11.4445L28.0012 11.4445Z" fill="white" mask="url(#path-5-inside-3_338_3103)"/>
<mask id="path-7-inside-4_338_3103" fill="white">
<path d="M11.789 17.6117C10.8145 18.5863 9.23446 18.5863 8.25994 17.6117C7.28541 16.6372 7.28541 15.0572 8.25994 14.0827C9.23446 13.1081 10.8145 13.1081 11.789 14.0827C12.7635 15.0572 12.7635 16.6372 11.789 17.6117Z"/>
</mask>
<path d="M11.789 19.026C10.424 20.391 8.21078 20.391 6.84572 19.026C5.48067 17.6609 5.48067 15.4477 6.84572 14.0827L8.96704 14.7898C8.77357 14.9833 9.09015 15.6135 9.67415 16.1975C10.2582 16.7815 10.8884 17.0981 11.0819 16.9046L11.789 19.026ZM10.0245 12.3181L13.5536 15.8472L10.0245 12.3181ZM11.789 14.0827C13.1541 15.4477 13.1541 17.6609 11.789 19.026C10.424 20.391 8.21078 20.391 6.84572 19.026L9.67415 16.1975C10.2582 16.7815 10.8884 17.0981 11.0819 16.9046C12.0564 15.9301 12.373 14.6667 11.789 14.0827ZM6.84572 19.026C5.48067 17.6609 5.48067 15.4477 6.84572 14.0827C8.21078 12.7176 10.424 12.7176 11.789 14.0827C11.205 13.4987 9.94157 13.8152 8.96704 14.7898C8.77357 14.9833 9.09015 15.6135 9.67415 16.1975L6.84572 19.026Z" fill="white" mask="url(#path-7-inside-4_338_3103)"/>
<mask id="path-9-inside-5_338_3103" fill="white">
<path d="M6.78567 14.4363C5.24718 13.587 4.68846 11.6514 5.53771 10.1129C6.38696 8.57444 8.3226 8.01572 9.86108 8.86497C11.3996 9.71422 11.9583 11.6499 11.109 13.1883C10.2598 14.7268 8.32415 15.2856 6.78567 14.4363Z"/>
</mask>
<path d="M5.42692 14.8285C3.40493 13.7123 2.67061 11.1684 3.78676 9.14639L3.78676 9.14639C4.90292 7.1244 7.44689 6.39007 9.46888 7.50623L9.37782 9.74044C8.80636 9.42499 7.87101 10.0245 7.28865 11.0795C6.7063 12.1344 6.69747 13.2454 7.26893 13.5608L5.42692 14.8285ZM12.6467 10.4027L9.57133 15.974L12.6467 10.4027ZM11.109 13.1883C9.99288 15.2103 7.44891 15.9447 5.42692 14.8285L5.42692 14.8285C3.40493 13.7123 2.67061 11.1684 3.78676 9.14639L7.28865 11.0795C6.7063 12.1344 6.69747 13.2454 7.26893 13.5608C8.80741 14.4101 10.5267 14.2433 11.109 13.1883L11.109 13.1883ZM3.78676 9.14639C4.90292 7.1244 7.44689 6.39007 9.46888 7.50623L9.46888 7.50623C11.4909 8.62238 12.2252 11.1664 11.109 13.1883L11.109 13.1883C11.6914 12.1334 10.9163 10.5897 9.37782 9.74044C8.80636 9.42499 7.87101 10.0245 7.28865 11.0795L3.78676 9.14639Z" fill="white" mask="url(#path-9-inside-5_338_3103)"/>
<mask id="path-11-inside-6_338_3103" fill="white">
<path d="M15.5727 6.75561C16.4513 5.23373 18.3974 4.71229 19.9192 5.59095C21.4411 6.46961 21.9626 8.41562 21.0839 9.9375C20.2052 11.4594 18.2592 11.9808 16.7373 11.1022C15.2155 10.2235 14.694 8.27748 15.5727 6.75561Z"/>
</mask>
<path d="M15.2067 5.38958C16.3615 3.38941 18.9191 2.7041 20.9192 3.8589L20.9192 3.8589C22.9194 5.0137 23.6047 7.57131 22.4499 9.57148L20.2179 9.4375C20.5442 8.87221 19.9628 7.92551 18.9192 7.323C17.8757 6.72049 16.7651 6.69031 16.4387 7.25561L15.2067 5.38958ZM19.4929 12.6931L13.9817 9.51121L19.4929 12.6931ZM16.7373 11.1022C14.7372 9.94736 14.0519 7.38975 15.2067 5.38958L15.2067 5.38958C16.3615 3.38941 18.9191 2.7041 20.9192 3.8589L18.9192 7.323C17.8757 6.72049 16.7651 6.69031 16.4387 7.25561C15.5601 8.77748 15.6938 10.4996 16.7373 11.1022L16.7373 11.1022ZM20.9192 3.8589C22.9194 5.0137 23.6047 7.57131 22.4499 9.57148L22.4499 9.57148C21.2951 11.5716 18.7375 12.257 16.7373 11.1022L16.7373 11.1022C17.7809 11.7047 19.3392 10.9594 20.2179 9.4375C20.5442 8.87221 19.9628 7.92551 18.9192 7.323L20.9192 3.8589Z" fill="white" mask="url(#path-11-inside-6_338_3103)"/>
<mask id="path-13-inside-7_338_3103" fill="white">
<path d="M23.8181 13.1499C25.5754 13.1499 27 14.5745 27 16.3318C27 18.0891 25.5754 19.5137 23.8181 19.5137C22.0608 19.5137 20.6362 18.0891 20.6362 16.3318C20.6362 14.5745 22.0608 13.1499 23.8181 13.1499Z"/>
</mask>
<path d="M24.8181 12.1499C27.1277 12.1499 29 14.0222 29 16.3318L29 16.3318C29 18.6414 27.1277 20.5137 24.8181 20.5137L23.8181 18.5137C24.4708 18.5137 25 17.5369 25 16.3318C25 15.1268 24.4708 14.1499 23.8181 14.1499L24.8181 12.1499ZM20.6362 19.5137L20.6362 13.1499L20.6362 19.5137ZM20.6362 16.3318C20.6362 14.0222 22.5085 12.1499 24.8181 12.1499L24.8181 12.1499C27.1277 12.1499 29 14.0222 29 16.3318L25 16.3318C25 15.1268 24.4708 14.1499 23.8181 14.1499C22.0608 14.1499 20.6362 15.1268 20.6362 16.3318L20.6362 16.3318ZM29 16.3318C29 18.6414 27.1277 20.5137 24.8181 20.5137L24.8181 20.5137C22.5085 20.5137 20.6362 18.6414 20.6362 16.3318L20.6362 16.3318C20.6362 17.5369 22.0608 18.5137 23.8181 18.5137C24.4708 18.5137 25 17.5369 25 16.3318L29 16.3318Z" fill="white" mask="url(#path-13-inside-7_338_3103)"/>
<mask id="path-15-inside-8_338_3103" fill="white">
<path d="M22.7408 18.2409C23.9834 19.4835 23.9834 21.4982 22.7408 22.7408C21.4982 23.9834 19.4835 23.9834 18.2409 22.7408C16.9983 21.4982 16.9983 19.4835 18.2409 18.2409C19.4835 16.9983 21.4982 16.9983 22.7408 18.2409Z"/>
</mask>
<path d="M24.155 18.2409C25.7881 19.8741 25.7881 22.5219 24.155 24.155L24.155 24.155C22.5219 25.7882 19.874 25.7882 18.2409 24.155L18.948 22.0337C19.4096 22.4953 20.4745 22.1787 21.3266 21.3266C22.1787 20.4745 22.4952 19.4096 22.0337 18.948L24.155 18.2409ZM15.991 20.4909L20.4908 15.991L15.991 20.4909ZM18.2409 18.2409C19.874 16.6078 22.5219 16.6078 24.155 18.2409L24.155 18.2409C25.7881 19.8741 25.7881 22.5219 24.155 24.155L21.3266 21.3266C22.1787 20.4745 22.4952 19.4096 22.0337 18.948C20.7911 17.7054 19.093 17.3888 18.2409 18.2409L18.2409 18.2409ZM24.155 24.155C22.5219 25.7882 19.874 25.7882 18.2409 24.155L18.2409 24.155C16.6078 22.5219 16.6078 19.8741 18.2409 18.2409L18.2409 18.2409C17.3888 19.093 17.7054 20.7911 18.948 22.0337C19.4096 22.4953 20.4745 22.1787 21.3266 21.3266L24.155 24.155Z" fill="white" mask="url(#path-15-inside-8_338_3103)"/>
<mask id="path-17-inside-9_338_3103" fill="white">
<path d="M14.8135 18.1408H18.0144V26.1803H14.8135V18.1408Z"/>
</mask>
<path d="M18.0144 26.1803V28.1803H19.0144V26.1803H18.0144ZM14.8135 26.1803H13.8135V28.1803H14.8135V26.1803ZM17.0144 18.1408V26.1803H19.0144V18.1408H17.0144ZM18.0144 24.1803H14.8135V28.1803H18.0144V24.1803ZM15.8135 26.1803V18.1408H13.8135V26.1803H15.8135Z" fill="white" mask="url(#path-17-inside-9_338_3103)"/>
<rect x="3" y="3" width="26" height="26" rx="2" stroke="white" stroke-width="2"/>
</svg>
