<svg width="32" height="32" viewBox="0 0 32 32" fill="none" xmlns="http://www.w3.org/2000/svg">
<path d="M23.353 21.9412C23.6233 21.9412 23.891 21.9944 24.1408 22.0979C24.3906 22.2013 24.6176 22.353 24.8088 22.5442C24.9999 22.7354 25.1516 22.9623 25.2551 23.2121C25.3585 23.4619 25.4118 23.7296 25.4118 24C25.4118 24.2704 25.3585 24.5381 25.2551 24.7879C25.1516 25.0377 24.9999 25.2646 24.8088 25.4558C24.6176 25.647 24.3906 25.7986 24.1408 25.9021C23.891 26.0056 23.6233 26.0588 23.353 26.0588L23.353 24.8235C23.4611 24.8235 23.5682 24.8022 23.6681 24.7608C23.768 24.7194 23.8588 24.6588 23.9353 24.5823C24.0117 24.5058 24.0724 24.4151 24.1138 24.3151C24.1552 24.2152 24.1765 24.1081 24.1765 24C24.1765 23.8918 24.1552 23.7848 24.1138 23.6848C24.0724 23.5849 24.0117 23.4941 23.9353 23.4177C23.8588 23.3412 23.768 23.2805 23.6681 23.2391C23.5682 23.1978 23.4611 23.1765 23.353 23.1765L23.353 21.9412Z" fill="white"/>
<path d="M24.5253 19.6249C25.4884 19.883 26.3394 20.4516 26.9464 21.2427C27.5534 22.0337 27.8824 23.0029 27.8824 24C27.8824 24.9971 27.5534 25.9663 26.9464 26.7573C26.3394 27.5484 25.4884 28.117 24.5253 28.3751L24.1736 27.0625C24.8477 26.8819 25.4435 26.4838 25.8684 25.9301C26.2932 25.3764 26.5235 24.6979 26.5235 24C26.5235 23.302 26.2932 22.6236 25.8684 22.0699C25.4435 21.5161 24.8477 21.1181 24.1736 20.9374L24.5253 19.6249Z" fill="white"/>
<path d="M25.1647 17.2385C26.6531 17.6373 27.9684 18.5162 28.9064 19.7387C29.8445 20.9612 30.353 22.4591 30.353 24C30.353 25.5409 29.8445 27.0388 28.9064 28.2613C27.9684 29.4838 26.6531 30.3627 25.1647 30.7615L24.8024 29.4092C25.9931 29.0901 27.0453 28.3871 27.7957 27.4091C28.5462 26.4311 28.953 25.2328 28.953 24C28.953 22.7672 28.5462 21.5689 27.7957 20.5909C27.0453 19.6129 25.9931 18.9099 24.8024 18.5908L25.1647 17.2385Z" fill="white"/>
<path d="M13 22.1176C13 21.5654 13.4477 21.1176 14 21.1176H17.1176V26.0588H14C13.4477 26.0588 13 25.6111 13 25.0588V22.1176Z" fill="white"/>
<path fill-rule="evenodd" clip-rule="evenodd" d="M22.0589 17L17.1177 21.1176V26.0588L22.0589 31V17ZM20.4118 20.2941C19.957 20.2941 19.5883 20.6628 19.5883 21.1176V21.9412C19.5883 22.396 19.957 22.7647 20.4118 22.7647C20.8666 22.7647 21.2353 22.396 21.2353 21.9412V21.1176C21.2353 20.6628 20.8666 20.2941 20.4118 20.2941Z" fill="white"/>
<path d="M3 9.50543C3 9.50543 6.17085 11.7863 9 11.5054C12.1331 11.1944 13.8546 8.14627 17 8.00543C19.4674 7.89495 23 9.50543 23 9.50543" stroke="white" stroke-width="3"/>
<path d="M7 4.27962C7 4.27962 9.21959 6.21837 11.2 5.97963C13.3932 5.71525 14.5983 3.12433 16.8 3.00462C18.5272 2.91071 21 4.27962 21 4.27962" stroke="white" stroke-width="2"/>
<path d="M6 15.2796C6 15.2796 8.21959 17.2184 10.2 16.9796C12.3932 16.7153 13.5983 14.1243 15.8 14.0046C17.5272 13.9107 20 15.2796 20 15.2796" stroke="white" stroke-width="2"/>
</svg>
