<svg width="32" height="32" viewBox="0 0 32 32" fill="none" xmlns="http://www.w3.org/2000/svg">
<path d="M8.484 13.412V6.596L8.928 8.132L7.02 8.948L6.672 6.62L9.168 5.48H10.992V13.412H8.484ZM6.792 14V11.792H12.72V14H6.792Z" fill="white"/>
<path d="M10.768 26.12C10.024 26.12 9.368 25.976 8.8 25.688C8.24 25.392 7.74 24.872 7.3 24.128L9.112 22.964C9.264 23.228 9.432 23.436 9.616 23.588C9.8 23.74 9.992 23.852 10.192 23.924C10.392 23.988 10.6 24.02 10.816 24.02C11 24.02 11.168 23.984 11.32 23.912C11.472 23.84 11.592 23.74 11.68 23.612C11.776 23.476 11.824 23.316 11.824 23.132C11.824 22.932 11.776 22.768 11.68 22.64C11.592 22.504 11.464 22.404 11.296 22.34C11.128 22.268 10.924 22.232 10.684 22.232C10.58 22.232 10.464 22.244 10.336 22.268C10.208 22.292 10.076 22.328 9.94 22.376C9.804 22.424 9.668 22.484 9.532 22.556L9.016 21.2L10.648 19.448L11.428 19.7L7.984 19.58V17.48H13.408L13.876 18.416L11.068 21.332L10.468 20.576C10.532 20.544 10.636 20.516 10.78 20.492C10.932 20.46 11.092 20.444 11.26 20.444C11.644 20.444 12.008 20.516 12.352 20.66C12.704 20.796 13.016 20.988 13.288 21.236C13.56 21.476 13.772 21.76 13.924 22.088C14.084 22.416 14.164 22.772 14.164 23.156C14.164 23.724 14.012 24.232 13.708 24.68C13.412 25.12 13.004 25.472 12.484 25.736C11.972 25.992 11.4 26.12 10.768 26.12Z" fill="white"/>
<path d="M19.408 26L19 25.016L21.364 22.496C21.508 22.344 21.664 22.172 21.832 21.98C22 21.78 22.164 21.576 22.324 21.368C22.484 21.16 22.612 20.96 22.708 20.768C22.812 20.576 22.864 20.408 22.864 20.264C22.864 20.184 22.84 20.108 22.792 20.036C22.744 19.956 22.668 19.892 22.564 19.844C22.468 19.788 22.336 19.76 22.168 19.76C22.016 19.76 21.876 19.792 21.748 19.856C21.628 19.92 21.504 20.028 21.376 20.18C21.256 20.324 21.124 20.52 20.98 20.768L19.096 19.808C19.28 19.344 19.54 18.928 19.876 18.56C20.212 18.184 20.596 17.888 21.028 17.672C21.468 17.456 21.928 17.352 22.408 17.36C22.92 17.368 23.388 17.48 23.812 17.696C24.236 17.904 24.576 18.196 24.832 18.572C25.088 18.948 25.216 19.388 25.216 19.892C25.216 20.052 25.196 20.22 25.156 20.396C25.124 20.572 25.068 20.756 24.988 20.948C24.916 21.14 24.816 21.348 24.688 21.572C24.56 21.788 24.404 22.02 24.22 22.268C24.036 22.508 23.82 22.764 23.572 23.036L21.664 25.112L21.424 23.792H25.672V26H19.408Z" fill="white"/>
<path d="M21.164 14V7.184H22.844L19.604 11.156L19.136 10.64H24.956V12.68H18.152L17.12 10.736L21.536 5.48H23.672V14H21.164Z" fill="white"/>
<rect x="3" y="3" width="26" height="26" rx="2" stroke="white" stroke-width="2"/>
</svg>
