<svg width="32" height="32" viewBox="0 0 32 32" fill="none" xmlns="http://www.w3.org/2000/svg">
<rect x="3" y="3" width="26" height="26" rx="2" stroke="white" stroke-width="2"/>
<path d="M22.302 12.4025L21.9137 11.4809L20.5435 12.0582L21.5949 13.1096L22.302 12.4025ZM18.4676 8.5681L17.7605 9.27521L18.8119 10.3266L19.3892 8.95634L18.4676 8.5681ZM15.435 5.53553L16.1421 4.82843L15.435 4.12132L14.7279 4.82843L15.435 5.53553ZM11.6954 9.27521L10.9883 8.5681L9.93685 9.6195L11.3071 10.1968L11.6954 9.27521ZM7.861 13.1096L8.78256 12.7213L8.20529 11.3511L7.15389 12.4025L7.861 13.1096ZM5.53554 15.435L4.82843 14.7279L4.12132 15.435L4.82843 16.1421L5.53554 15.435ZM9.98232 19.8818L10.3706 20.8034L11.7408 20.2261L10.6894 19.1747L9.98232 19.8818ZM13.8167 23.7162L14.5238 23.0091L13.4724 21.9577L12.8951 23.3279L13.8167 23.7162ZM16.8492 26.7487L16.1421 27.4558L16.8492 28.163L17.5564 27.4558L16.8492 26.7487ZM19.8818 23.7162L20.5889 24.4233L21.6403 23.3719L20.27 22.7946L19.8818 23.7162ZM23.7162 19.8818L22.7946 20.27L23.3719 21.6403L24.4233 20.5889L23.7162 19.8818ZM26.7487 16.8492L27.4558 17.5563L28.163 16.8492L27.4558 16.1421L26.7487 16.8492ZM22.6902 13.324C23.2623 13.083 23.8033 12.7236 24.2739 12.253L22.8597 10.8388C22.5711 11.1274 22.2464 11.3408 21.9137 11.4809L22.6902 13.324ZM24.2739 12.253C25.925 10.6019 26.2879 7.90307 24.6274 6.24264L23.2132 7.65685C23.8959 8.33957 23.9422 9.75633 22.8597 10.8388L24.2739 12.253ZM24.6274 6.24264C22.967 4.58221 20.2682 4.94502 18.617 6.59619L20.0312 8.01041C21.1137 6.92791 22.5305 6.97414 23.2132 7.65685L24.6274 6.24264ZM18.617 6.59619C18.1465 7.06675 17.7871 7.60776 17.546 8.17987L19.3892 8.95634C19.5293 8.62371 19.7426 8.299 20.0312 8.01041L18.617 6.59619ZM14.7279 6.24264L17.7605 9.27521L19.1747 7.861L16.1421 4.82843L14.7279 6.24264ZM12.4025 9.98232L16.1421 6.24264L14.7279 4.82843L10.9883 8.5681L12.4025 9.98232ZM13.6673 9.42462C13.1967 8.95407 12.6557 8.59466 12.0836 8.35365L11.3071 10.1968C11.6398 10.3369 11.9645 10.5502 12.2531 10.8388L13.6673 9.42462ZM14.0208 15.435C15.6812 13.7746 15.3184 11.0758 13.6673 9.42462L12.2531 10.8388C13.3356 11.9213 13.2893 13.3381 12.6066 14.0208L14.0208 15.435ZM8.01041 15.0815C9.66158 16.7326 12.3604 17.0955 14.0208 15.435L12.6066 14.0208C11.9239 14.7035 10.5071 14.7498 9.42462 13.6673L8.01041 15.0815ZM6.93944 13.4978C7.18045 14.0699 7.53986 14.6109 8.01041 15.0815L9.42462 13.6673C9.13603 13.3787 8.92269 13.054 8.78256 12.7213L6.93944 13.4978ZM6.24264 16.1421L8.56811 13.8167L7.15389 12.4025L4.82843 14.7279L6.24264 16.1421ZM10.6894 19.1747L6.24264 14.7279L4.82843 16.1421L9.27521 20.5889L10.6894 19.1747ZM9.59409 18.9602C9.02198 19.2013 8.48096 19.5607 8.01041 20.0312L9.42462 21.4454C9.71322 21.1568 10.0379 20.9435 10.3706 20.8034L9.59409 18.9602ZM8.01041 20.0312C6.35924 21.6824 5.99643 24.3812 7.65686 26.0416L9.07107 24.6274C8.38836 23.9447 8.34212 22.5279 9.42462 21.4454L8.01041 20.0312ZM7.65686 26.0416C9.31729 27.7021 12.0161 27.3392 13.6673 25.6881L12.2531 24.2739C11.1706 25.3564 9.75379 25.3101 9.07107 24.6274L7.65686 26.0416ZM13.6673 25.6881C14.1378 25.2175 14.4972 24.6765 14.7382 24.1044L12.8951 23.3279C12.755 23.6606 12.5416 23.9853 12.2531 24.2739L13.6673 25.6881ZM17.5564 26.0416L14.5238 23.0091L13.1096 24.4233L16.1421 27.4558L17.5564 26.0416ZM19.1747 23.0091L16.1421 26.0416L17.5564 27.4558L20.5889 24.4233L19.1747 23.0091ZM17.9099 23.5668C18.3805 24.0373 18.9215 24.3967 19.4936 24.6377L20.27 22.7946C19.9374 22.6545 19.6127 22.4411 19.3241 22.1525L17.9099 23.5668ZM17.5564 17.5563C15.8959 19.2168 16.2587 21.9156 17.9099 23.5668L19.3241 22.1525C18.2416 21.07 18.2879 19.6533 18.9706 18.9706L17.5564 17.5563ZM23.5668 17.9099C21.9156 16.2587 19.2168 15.8959 17.5564 17.5563L18.9706 18.9706C19.6533 18.2878 21.07 18.2416 22.1525 19.3241L23.5668 17.9099ZM24.6377 19.4936C24.3967 18.9215 24.0373 18.3805 23.5668 17.9099L22.1525 19.3241C22.4411 19.6127 22.6545 19.9374 22.7946 20.27L24.6377 19.4936ZM26.0416 16.1421L23.0091 19.1747L24.4233 20.5889L27.4558 17.5563L26.0416 16.1421ZM21.5949 13.1096L26.0416 17.5563L27.4558 16.1421L23.0091 11.6954L21.5949 13.1096Z" fill="white"/>
</svg>
