<svg width="32" height="32" viewBox="0 0 32 32" fill="none" xmlns="http://www.w3.org/2000/svg">
<rect x="3" y="3" width="26" height="26" rx="2" stroke="white" stroke-width="2"/>
<path fill-rule="evenodd" clip-rule="evenodd" d="M5.54209 14.1736C4.13813 15.5776 4.13813 17.8539 5.54209 19.2578L6.63155 20.3473L11.7157 25.4315L16.7999 20.3473L17.8894 19.2578C19.2933 17.8539 19.2933 15.5776 17.8894 14.1736C16.4854 12.7697 14.2092 12.7697 12.8052 14.1736L11.7157 15.2631L10.6263 14.1736C9.22231 12.7697 6.94604 12.7697 5.54209 14.1736Z" fill="white"/>
<mask id="path-3-inside-1_48_425" fill="white">
<path fill-rule="evenodd" clip-rule="evenodd" d="M18.8685 7.13155C17.9936 8.00647 17.9936 9.42499 18.8685 10.2999L19.5474 10.9788L19.5474 10.9788L22.7157 14.1472L22.7157 14.1472L22.7158 14.1472L25.8841 10.9788L25.8841 10.9788L26.563 10.2999C27.4379 9.42499 27.4379 8.00647 26.563 7.13155C25.6881 6.25664 24.2696 6.25664 23.3947 7.13155L22.7157 7.81047L22.0368 7.13155C21.1619 6.25664 19.7434 6.25664 18.8685 7.13155Z"/>
</mask>
<path fill-rule="evenodd" clip-rule="evenodd" d="M18.8685 7.13155C17.9936 8.00647 17.9936 9.42499 18.8685 10.2999L19.5474 10.9788L19.5474 10.9788L22.7157 14.1472L22.7157 14.1472L22.7158 14.1472L25.8841 10.9788L25.8841 10.9788L26.563 10.2999C27.4379 9.42499 27.4379 8.00647 26.563 7.13155C25.6881 6.25664 24.2696 6.25664 23.3947 7.13155L22.7157 7.81047L22.0368 7.13155C21.1619 6.25664 19.7434 6.25664 18.8685 7.13155Z" fill="white"/>
<path d="M19.5474 10.9788L20.2545 11.6859L20.9616 10.9788L20.2545 10.2717L19.5474 10.9788ZM19.5474 10.9788L18.8403 10.2717L18.1332 10.9788L18.8403 11.6859L19.5474 10.9788ZM22.7157 14.1472L22.0086 14.8543L22.7157 15.5614L23.4228 14.8543L22.7157 14.1472ZM22.7157 14.1472L23.4229 13.4401L22.7157 12.733L22.0086 13.4401L22.7157 14.1472ZM22.7158 14.1472L22.0087 14.8543L22.7158 15.5614L23.4229 14.8543L22.7158 14.1472ZM25.8841 10.9788L26.5912 11.6859L27.2983 10.9788L26.5912 10.2717L25.8841 10.9788ZM25.8841 10.9788L25.177 10.2717L24.4699 10.9788L25.177 11.6859L25.8841 10.9788ZM26.563 7.13155L27.2701 6.42445L27.2701 6.42445L26.563 7.13155ZM23.3947 7.13155L22.6876 6.42445L23.3947 7.13155ZM22.7157 7.81047L22.0086 8.51758L22.7157 9.22469L23.4229 8.51758L22.7157 7.81047ZM22.0368 7.13155L22.7439 6.42445L22.0368 7.13155ZM19.5756 9.5928C19.0912 9.10841 19.0912 8.32305 19.5756 7.83866L18.1614 6.42445C16.8959 7.68989 16.8959 9.74157 18.1614 11.007L19.5756 9.5928ZM20.2545 10.2717L19.5756 9.5928L18.1614 11.007L18.8403 11.6859L20.2545 10.2717ZM20.2545 11.6859L20.2545 11.6859L18.8403 10.2717L18.8403 10.2717L20.2545 11.6859ZM23.4228 13.4401L20.2545 10.2717L18.8403 11.6859L22.0086 14.8543L23.4228 13.4401ZM22.0086 13.4401L22.0086 13.4401L23.4228 14.8543L23.4229 14.8543L22.0086 13.4401ZM23.4229 13.4401L23.4229 13.4401L22.0086 14.8543L22.0087 14.8543L23.4229 13.4401ZM25.177 10.2717L22.0087 13.4401L23.4229 14.8543L26.5912 11.6859L25.177 10.2717ZM25.177 11.6859L25.177 11.6859L26.5912 10.2717L26.5912 10.2717L25.177 11.6859ZM25.8559 9.5928L25.177 10.2717L26.5912 11.6859L27.2701 11.007L25.8559 9.5928ZM25.8559 7.83866C26.3403 8.32305 26.3403 9.10841 25.8559 9.5928L27.2701 11.007C28.5356 9.74157 28.5356 7.68989 27.2701 6.42445L25.8559 7.83866ZM24.1018 7.83866C24.5862 7.35427 25.3715 7.35427 25.8559 7.83866L27.2701 6.42445C26.0047 5.15901 23.953 5.159 22.6876 6.42445L24.1018 7.83866ZM23.4229 8.51758L24.1018 7.83866L22.6876 6.42445L22.0086 7.10337L23.4229 8.51758ZM21.3297 7.83866L22.0086 8.51758L23.4229 7.10337L22.7439 6.42445L21.3297 7.83866ZM19.5756 7.83866C20.06 7.35427 20.8453 7.35427 21.3297 7.83866L22.7439 6.42445C21.4785 5.15901 19.4268 5.15901 18.1614 6.42445L19.5756 7.83866Z" fill="white" mask="url(#path-3-inside-1_48_425)"/>
<path d="M23.4051 13.2265C23.7127 13.0933 24.0762 13.1835 24.253 13.4683C24.8181 14.379 25.071 15.3844 24.9829 16.3924C24.8794 17.5766 24.31 18.7111 23.3468 19.6526C22.3836 20.594 21.0698 21.3001 19.5715 21.6816C18.2985 22.0057 16.941 22.083 15.6241 21.9106C15.2559 21.8624 15.0415 21.482 15.1664 21.1324C15.2681 20.8476 15.5632 20.683 15.8628 20.7236C16.9277 20.8678 18.0271 20.8075 19.0572 20.5453C20.2558 20.2401 21.3069 19.6752 22.0775 18.9221C22.848 18.1689 23.3035 17.2613 23.3863 16.3139C23.4433 15.6613 23.3217 15.0101 23.0336 14.3993C22.8302 13.9679 22.9674 13.4161 23.4051 13.2265Z" fill="white"/>
<path d="M8.93382 16.42C8.55414 16.4963 8.1684 16.2834 8.09129 15.9039C7.8988 14.9565 8.01109 13.9849 8.42456 13.0714C8.93315 11.9477 9.87462 10.9623 11.1299 10.2399C12.3852 9.51747 13.8979 9.09046 15.4768 9.01285C16.77 8.94927 18.06 9.12245 19.2374 9.51324C19.6306 9.64374 19.7547 10.1225 19.502 10.4507C19.3244 10.6814 19.0137 10.7594 18.7393 10.6619C17.7577 10.3132 16.671 10.1567 15.5814 10.2103C14.3183 10.2724 13.1081 10.614 12.1039 11.1919C11.0997 11.7698 10.3465 12.5581 9.93965 13.4571C9.6608 14.0732 9.55318 14.7223 9.61853 15.365C9.66663 15.8381 9.40005 16.3263 8.93382 16.42Z" fill="white"/>
</svg>
