<svg width="32" height="32" viewBox="0 0 32 32" fill="none" xmlns="http://www.w3.org/2000/svg">
<mask id="path-1-inside-1_334_2165" fill="white">
<path d="M26 17C26 19.0894 25.3455 21.1264 24.1285 22.8248C22.9114 24.5232 21.1929 25.7977 19.2144 26.4693C17.2358 27.1409 15.0966 27.1759 13.0972 26.5694C11.0977 25.9629 9.33843 24.7453 8.06647 23.0876C6.7945 21.43 6.07372 19.4155 6.00535 17.3272C5.93699 15.2389 6.52448 13.1816 7.6853 11.4443C8.84613 9.707 10.522 8.37694 12.4775 7.64094C14.433 6.90494 16.57 6.79996 18.5882 7.34074L16 17H26Z"/>
</mask>
<path d="M26 17C26 19.0894 25.3455 21.1264 24.1285 22.8248C22.9114 24.5232 21.1929 25.7977 19.2144 26.4693C17.2358 27.1409 15.0966 27.1759 13.0972 26.5694C11.0977 25.9629 9.33843 24.7453 8.06647 23.0876C6.7945 21.43 6.07372 19.4155 6.00535 17.3272C5.93699 15.2389 6.52448 13.1816 7.6853 11.4443C8.84613 9.707 10.522 8.37694 12.4775 7.64094C14.433 6.90494 16.57 6.79996 18.5882 7.34074L16 17H26Z" stroke="white" stroke-width="4" mask="url(#path-1-inside-1_334_2165)"/>
<mask id="path-2-inside-2_334_2165" fill="white">
<path d="M26 15C26 12.7987 25.2736 10.6588 23.9335 8.91239C22.5934 7.16594 20.7145 5.91049 18.5882 5.34074L16 15H26Z"/>
</mask>
<path d="M26 15C26 12.7987 25.2736 10.6588 23.9335 8.91239C22.5934 7.16594 20.7145 5.91049 18.5882 5.34074L16 15H26Z" fill="white" stroke="white" stroke-width="4" mask="url(#path-2-inside-2_334_2165)"/>
<rect x="3" y="3" width="26" height="26" rx="2" stroke="white" stroke-width="2"/>
</svg>
