<svg width="32" height="32" viewBox="0 0 32 32" fill="none" xmlns="http://www.w3.org/2000/svg">
<rect x="3" y="3" width="26" height="26" rx="2" stroke="white" stroke-width="2"/>
<path d="M8.07 12.51V6.83L8.44 8.11L6.85 8.79L6.56 6.85L8.64 5.9H10.16V12.51H8.07ZM6.66 13V11.16H11.6V13H6.66ZM15.6942 13.1C14.9942 13.1 14.4009 12.96 13.9142 12.68C13.4276 12.4 13.0576 11.9933 12.8042 11.46C12.5509 10.92 12.4242 10.2667 12.4242 9.5C12.4242 8.73333 12.5509 8.08333 12.8042 7.55C13.0576 7.01 13.4276 6.6 13.9142 6.32C14.4009 6.04 14.9942 5.9 15.6942 5.9C16.3942 5.9 16.9876 6.04 17.4742 6.32C17.9676 6.6 18.3409 7.01 18.5942 7.55C18.8476 8.08333 18.9742 8.73333 18.9742 9.5C18.9742 10.2667 18.8476 10.92 18.5942 11.46C18.3409 11.9933 17.9676 12.4 17.4742 12.68C16.9876 12.96 16.3942 13.1 15.6942 13.1ZM15.6942 11.32C16.0876 11.32 16.3909 11.1633 16.6042 10.85C16.8176 10.5367 16.9242 10.0867 16.9242 9.5C16.9242 8.88 16.8176 8.40667 16.6042 8.08C16.3909 7.74667 16.0876 7.58 15.6942 7.58C15.3009 7.58 14.9976 7.74667 14.7842 8.08C14.5709 8.40667 14.4642 8.88 14.4642 9.5C14.4642 10.0867 14.5709 10.5367 14.7842 10.85C14.9976 11.1633 15.3009 11.32 15.6942 11.32ZM22.9403 13.1C22.2403 13.1 21.647 12.96 21.1603 12.68C20.6736 12.4 20.3036 11.9933 20.0503 11.46C19.797 10.92 19.6703 10.2667 19.6703 9.5C19.6703 8.73333 19.797 8.08333 20.0503 7.55C20.3036 7.01 20.6736 6.6 21.1603 6.32C21.647 6.04 22.2403 5.9 22.9403 5.9C23.6403 5.9 24.2336 6.04 24.7203 6.32C25.2136 6.6 25.587 7.01 25.8403 7.55C26.0936 8.08333 26.2203 8.73333 26.2203 9.5C26.2203 10.2667 26.0936 10.92 25.8403 11.46C25.587 11.9933 25.2136 12.4 24.7203 12.68C24.2336 12.96 23.6403 13.1 22.9403 13.1ZM22.9403 11.32C23.3336 11.32 23.637 11.1633 23.8503 10.85C24.0636 10.5367 24.1703 10.0867 24.1703 9.5C24.1703 8.88 24.0636 8.40667 23.8503 8.08C23.637 7.74667 23.3336 7.58 22.9403 7.58C22.547 7.58 22.2436 7.74667 22.0303 8.08C21.817 8.40667 21.7103 8.88 21.7103 9.5C21.7103 10.0867 21.817 10.5367 22.0303 10.85C22.2436 11.1633 22.547 11.32 22.9403 11.32ZM8.07 25.51V19.83L8.44 21.11L6.85 21.79L6.56 19.85L8.64 18.9H10.16V25.51H8.07ZM6.66 26V24.16H11.6V26H6.66ZM15.6942 26.1C14.9942 26.1 14.4009 25.96 13.9142 25.68C13.4276 25.4 13.0576 24.9933 12.8042 24.46C12.5509 23.92 12.4242 23.2667 12.4242 22.5C12.4242 21.7333 12.5509 21.0833 12.8042 20.55C13.0576 20.01 13.4276 19.6 13.9142 19.32C14.4009 19.04 14.9942 18.9 15.6942 18.9C16.3942 18.9 16.9876 19.04 17.4742 19.32C17.9676 19.6 18.3409 20.01 18.5942 20.55C18.8476 21.0833 18.9742 21.7333 18.9742 22.5C18.9742 23.2667 18.8476 23.92 18.5942 24.46C18.3409 24.9933 17.9676 25.4 17.4742 25.68C16.9876 25.96 16.3942 26.1 15.6942 26.1ZM15.6942 24.32C16.0876 24.32 16.3909 24.1633 16.6042 23.85C16.8176 23.5367 16.9242 23.0867 16.9242 22.5C16.9242 21.88 16.8176 21.4067 16.6042 21.08C16.3909 20.7467 16.0876 20.58 15.6942 20.58C15.3009 20.58 14.9976 20.7467 14.7842 21.08C14.5709 21.4067 14.4642 21.88 14.4642 22.5C14.4642 23.0867 14.5709 23.5367 14.7842 23.85C14.9976 24.1633 15.3009 24.32 15.6942 24.32ZM22.9403 26.1C22.2403 26.1 21.647 25.96 21.1603 25.68C20.6736 25.4 20.3036 24.9933 20.0503 24.46C19.797 23.92 19.6703 23.2667 19.6703 22.5C19.6703 21.7333 19.797 21.0833 20.0503 20.55C20.3036 20.01 20.6736 19.6 21.1603 19.32C21.647 19.04 22.2403 18.9 22.9403 18.9C23.6403 18.9 24.2336 19.04 24.7203 19.32C25.2136 19.6 25.587 20.01 25.8403 20.55C26.0936 21.0833 26.2203 21.7333 26.2203 22.5C26.2203 23.2667 26.0936 23.92 25.8403 24.46C25.587 24.9933 25.2136 25.4 24.7203 25.68C24.2336 25.96 23.6403 26.1 22.9403 26.1ZM22.9403 24.32C23.3336 24.32 23.637 24.1633 23.8503 23.85C24.0636 23.5367 24.1703 23.0867 24.1703 22.5C24.1703 21.88 24.0636 21.4067 23.8503 21.08C23.637 20.7467 23.3336 20.58 22.9403 20.58C22.547 20.58 22.2436 20.7467 22.0303 21.08C21.817 21.4067 21.7103 21.88 21.7103 22.5C21.7103 23.0867 21.817 23.5367 22.0303 23.85C22.2436 24.1633 22.547 24.32 22.9403 24.32Z" fill="white"/>
<line x1="7" y1="16" x2="25" y2="16" stroke="white" stroke-width="2"/>
</svg>
