<svg width="32" height="32" viewBox="0 0 32 32" fill="none" xmlns="http://www.w3.org/2000/svg">
<line x1="28" y1="15.5" x2="4" y2="15.5" stroke="white"/>
<rect x="3" y="3" width="26" height="26" rx="2" stroke="white" stroke-width="2"/>
<path d="M4 16C4 16 6 9 8 9C10 9 12 16 12 16" stroke="white"/>
<path d="M20 16C20 16 22 9 24 9C26 9 28 16 28 16" stroke="white"/>
<path d="M12 16C12 16 14 23 16 23C18 23 20 16 20 16" stroke="white"/>
<path d="M7 16C7 16 5 9 3 9" stroke="white" stroke-dasharray="2 2"/>
<path d="M15 16C15 16 17 9 19 9C21 9 23 16 23 16" stroke="white" stroke-dasharray="2 2"/>
<path d="M7 16C7 16 9 23 11 23C13 23 15 16 15 16" stroke="white" stroke-dasharray="2 2"/>
<path d="M23 16C23 16 25 23 27 23" stroke="white" stroke-dasharray="2 2"/>
</svg>
