<svg width="32" height="32" viewBox="0 0 32 32" fill="none" xmlns="http://www.w3.org/2000/svg">
<rect x="3" y="3" width="26" height="26" rx="2" stroke="white" stroke-width="2"/>
<circle cx="16" cy="10" r="2" fill="white"/>
<path d="M7 11C7 11 12.3522 13.5 16 13.5C19.6478 13.5 25 11 25 11" stroke="white" stroke-width="2"/>
<line x1="16" y1="13" x2="16" y2="19" stroke="white" stroke-width="2"/>
<line x1="15.9285" y1="17.6286" x2="19.9285" y2="27.6286" stroke="white" stroke-width="2"/>
<line y1="-1" x2="10.7703" y2="-1" transform="matrix(-0.371391 0.928477 0.928477 0.371391 17 18)" stroke="white" stroke-width="2"/>
<line x1="9" y1="6.5" x2="23" y2="6.5" stroke="white" stroke-dasharray="2 2"/>
<path d="M6 6.5L9.75 4.33494L9.75 8.66506L6 6.5Z" fill="white"/>
<path d="M26 6.5L22.25 4.33494L22.25 8.66506L26 6.5Z" fill="white"/>
</svg>
