<svg width="32" height="32" viewBox="0 0 32 32" fill="none" xmlns="http://www.w3.org/2000/svg">
<rect x="3" y="3" width="26" height="26" rx="2" stroke="white" stroke-width="2"/>
<mask id="path-2-inside-1_51_485" fill="white">
<path fill-rule="evenodd" clip-rule="evenodd" d="M12.9894 13.7659C11.774 14.7748 11 16.297 11 18C11 21.0375 13.4625 23.5 16.5 23.5C19.5376 23.5 22 21.0375 22 18C22 16.3358 21.2609 14.8443 20.093 13.8357L14.4375 7C14.4375 7 14.8568 9.56961 14.4375 11.125C14.1992 12.0091 13.5767 12.9853 12.9894 13.7659Z"/>
</mask>
<path d="M12.9894 13.7659L13.6281 14.5354L13.7182 14.4606L13.7885 14.3671L12.9894 13.7659ZM20.093 13.8357L19.3225 14.4732L19.376 14.5378L19.4394 14.5926L20.093 13.8357ZM14.4375 7L15.208 6.36254L12.8565 3.52033L13.4506 7.16104L14.4375 7ZM14.4375 11.125L13.472 10.8647L13.472 10.8647L14.4375 11.125ZM12 18C12 16.607 12.6318 15.3624 13.6281 14.5354L12.3507 12.9965C10.9162 14.1872 10 15.987 10 18L12 18ZM16.5 22.5C14.0147 22.5 12 20.4853 12 18L10 18C10 21.5898 12.9102 24.5 16.5 24.5L16.5 22.5ZM21 18C21 20.4853 18.9853 22.5 16.5 22.5L16.5 24.5C20.0899 24.5 23 21.5898 23 18L21 18ZM19.4394 14.5926C20.3967 15.4192 21 16.6386 21 18L23 18C23 16.033 22.1251 14.2693 20.7466 13.0789L19.4394 14.5926ZM13.667 7.63746L19.3225 14.4732L20.8635 13.1983L15.208 6.36254L13.667 7.63746ZM15.403 11.3853C15.6577 10.4405 15.6463 9.27086 15.5928 8.41672C15.565 7.97367 15.5235 7.58327 15.4889 7.30322C15.4716 7.16285 15.4559 7.04931 15.4443 6.96972C15.4385 6.9299 15.4338 6.89851 15.4304 6.87644C15.4287 6.8654 15.4273 6.85668 15.4263 6.8504C15.4258 6.84726 15.4254 6.84473 15.4251 6.84281C15.4249 6.84186 15.4248 6.84106 15.4247 6.84041C15.4246 6.84009 15.4246 6.83981 15.4245 6.83956C15.4245 6.83944 15.4245 6.83929 15.4245 6.83923C15.4245 6.83909 15.4244 6.83895 14.4375 7C13.4506 7.16104 13.4505 7.16093 13.4505 7.16083C13.4505 7.16081 13.4505 7.16071 13.4505 7.16067C13.4505 7.16058 13.4505 7.16053 13.4505 7.16052C13.4505 7.1605 13.4505 7.16064 13.4505 7.16092C13.4506 7.16149 13.4508 7.16267 13.4511 7.16444C13.4517 7.16797 13.4526 7.17388 13.4538 7.18204C13.4564 7.19836 13.4602 7.2237 13.4651 7.25718C13.4748 7.32419 13.4886 7.42355 13.504 7.54839C13.5349 7.79875 13.572 8.14796 13.5967 8.54174C13.648 9.36124 13.6366 10.2541 13.472 10.8647L15.403 11.3853ZM13.7885 14.3671C14.3898 13.5679 15.1122 12.4641 15.403 11.3853L13.472 10.8647C13.2861 11.5541 12.7637 12.4026 12.1903 13.1648L13.7885 14.3671Z" fill="white" mask="url(#path-2-inside-1_51_485)"/>
<path d="M27 16C27 22.0751 22.0751 27 16 27C9.92487 27 5 22.0751 5 16C5 9.92487 9.92487 5 16 5C22.0751 5 27 9.92487 27 16ZM6.1 16C6.1 21.4676 10.5324 25.9 16 25.9C21.4676 25.9 25.9 21.4676 25.9 16C25.9 10.5324 21.4676 6.1 16 6.1C10.5324 6.1 6.1 10.5324 6.1 16Z" fill="white"/>
<line x1="23.2634" y1="8.70711" x2="8.26344" y2="23.7071" stroke="white" stroke-width="2"/>
</svg>
