<svg width="32" height="32" viewBox="0 0 32 32" fill="none" xmlns="http://www.w3.org/2000/svg">
<rect x="3" y="3" width="26" height="26" rx="2" stroke="white" stroke-width="2"/>
<path fill-rule="evenodd" clip-rule="evenodd" d="M24.9674 6.31093L24.6139 8.7858L23.9068 11.6142C23.9068 11.6142 21.9571 14.4083 20.3712 15.8569C18.7788 17.3114 15.775 19.0389 15.775 19.0389L12.2395 15.5033C12.2395 15.5033 13.9717 12.4949 15.4215 10.9071C16.8662 9.32477 19.6449 7.385 19.664 7.37166L19.6641 7.37159L22.4925 6.66448C23.5971 6.38834 24.9674 6.31093 24.9674 6.31093ZM20.0101 11.2531C20.5958 11.8388 21.5456 11.8388 22.1314 11.2531C22.7172 10.6673 22.7172 9.71752 22.1314 9.13173C21.5456 8.54594 20.5958 8.54594 20.0101 9.13173C19.4243 9.71752 19.4243 10.6673 20.0101 11.2531Z" fill="white"/>
<path d="M18.5352 18.9955L18.5352 22.4596L15.5352 20.7276L18.5352 18.9955Z" fill="white"/>
<path d="M12.1962 12.6565L8.73205 12.6565L10.4641 15.6565L12.1962 12.6565Z" fill="white"/>
<path fill-rule="evenodd" clip-rule="evenodd" d="M11.4154 16.8005L11.0242 17.5092L9.69177 16.1768L7.34452 20.4293L10.3185 18.7877L7.89449 23.1791L12.2859 20.7551L10.6444 23.7291L14.8968 21.3818L13.5644 20.0495L14.2731 19.6582L11.4154 16.8005Z" fill="white"/>
</svg>
