<svg width="32" height="32" viewBox="0 0 32 32" fill="none" xmlns="http://www.w3.org/2000/svg">
<mask id="path-1-inside-1_328_274" fill="white">
<path d="M23 11.75C23 15.8922 19.6421 19.25 15.5 19.25C11.3579 19.25 8 15.8922 8 11.75C8 7.60788 11.3579 4.25002 15.5 4.25002C19.6421 4.25002 23 7.60788 23 11.75ZM11.75 11.75C11.75 13.8211 13.4289 15.5 15.5 15.5C17.5711 15.5 19.25 13.8211 19.25 11.75C19.25 9.67895 17.5711 8.00002 15.5 8.00002C13.4289 8.00002 11.75 9.67895 11.75 11.75Z"/>
</mask>
<path d="M23 11.75C23 15.8922 19.6421 19.25 15.5 19.25C11.3579 19.25 8 15.8922 8 11.75C8 7.60788 11.3579 4.25002 15.5 4.25002C19.6421 4.25002 23 7.60788 23 11.75ZM11.75 11.75C11.75 13.8211 13.4289 15.5 15.5 15.5C17.5711 15.5 19.25 13.8211 19.25 11.75C19.25 9.67895 17.5711 8.00002 15.5 8.00002C13.4289 8.00002 11.75 9.67895 11.75 11.75Z" fill="white" stroke="white" stroke-width="2" mask="url(#path-1-inside-1_328_274)"/>
<line x1="15.625" y1="18.625" x2="15.625" y2="28" stroke="white" stroke-width="4"/>
<line x1="10.4999" y1="22.875" x2="20.4999" y2="22.875" stroke="white" stroke-width="4"/>
<rect x="3" y="3" width="26" height="26" rx="2" stroke="white" stroke-width="2"/>
</svg>
