<svg width="32" height="32" viewBox="0 0 32 32" fill="none" xmlns="http://www.w3.org/2000/svg">
<rect x="3" y="3" width="26" height="26" rx="2" stroke="white" stroke-width="2"/>
<path fill-rule="evenodd" clip-rule="evenodd" d="M23.0734 16.0455L18.5939 18.2668L19.3748 19.8416C18.6529 21.1006 18.5523 22.6849 19.2454 24.0827C20.3495 26.3093 23.0496 27.2193 25.2761 26.1152C27.5027 25.0111 28.4127 22.3111 27.3086 20.0845C26.6154 18.6867 25.2933 17.8078 23.8543 17.6203L23.0734 16.0455ZM24.2766 24.0994C23.1633 24.6514 21.8133 24.1965 21.2612 23.0832C20.7092 21.9699 21.1642 20.6199 22.2774 20.0678C23.3907 19.5158 24.7407 19.9708 25.2928 21.084C25.8448 22.1973 25.3899 23.5473 24.2766 24.0994Z" fill="white"/>
<rect x="18.8271" y="15.3606" width="2" height="3" rx="0.5" transform="rotate(-26.3754 18.8271 15.3606)" stroke="white"/>
<mask id="path-4-inside-1_66_2" fill="white">
<path d="M16.8243 12.4471C16.5789 11.9523 16.7811 11.3523 17.2759 11.107L18.1718 10.6627C18.6666 10.4174 19.2666 10.6196 19.512 11.1144L19.9562 12.0103C20.2016 12.5051 19.9994 13.1051 19.5046 13.3504L18.6087 13.7947C18.1139 14.04 17.5139 13.8378 17.2685 13.343L16.8243 12.4471Z"/>
</mask>
<path d="M16.38 11.5512L19.0677 10.2185L16.38 11.5512ZM20.8521 11.566C21.3428 12.5556 20.9384 13.7556 19.9488 14.2463L19.0529 14.6906C18.0633 15.1813 16.8633 14.7769 16.3726 13.7873L18.1644 12.8988L19.0603 12.4545L20.8521 11.566ZM19.0529 14.6906C18.0633 15.1813 16.8633 14.7769 16.3726 13.7873C15.8819 12.7977 16.2863 11.5977 17.2759 11.107C17.2759 11.107 17.4748 11.5081 17.7202 12.0029L18.1644 12.8988L19.0529 14.6906ZM18.1718 10.6627C19.1614 10.172 20.3614 10.5764 20.8521 11.566C21.3428 12.5556 20.9384 13.7556 19.9488 14.2463L19.0603 12.4545L18.6161 11.5586C18.3707 11.0638 18.1718 10.6627 18.1718 10.6627Z" fill="white" mask="url(#path-4-inside-1_66_2)"/>
<line x1="19.0567" y1="13.5725" x2="19.9452" y2="15.3643" stroke="white"/>
<path fill-rule="evenodd" clip-rule="evenodd" d="M8.92662 15.0455L13.4061 17.2668L12.6252 18.8416C13.3471 20.1006 13.4477 21.6849 12.7546 23.0827C11.6505 25.3093 8.95044 26.2193 6.72387 25.1152C4.4973 24.0111 3.58735 21.3111 4.69144 19.0845C5.38456 17.6867 6.70665 16.8078 8.14573 16.6203L8.92662 15.0455ZM7.72343 23.0994C8.83672 23.6514 10.1867 23.1965 10.7388 22.0832C11.2908 20.9699 10.8358 19.6199 9.72256 19.0678C8.60928 18.5158 7.25926 18.9708 6.70722 20.084C6.15517 21.1973 6.61015 22.5473 7.72343 23.0994Z" fill="white"/>
<rect x="-0.670077" y="0.225826" width="2" height="3" rx="0.5" transform="matrix(-0.895903 -0.44425 -0.44425 0.895903 12.6729 13.8606)" stroke="white"/>
<mask id="path-9-inside-2_66_2" fill="white">
<path d="M15.1757 11.4471C15.4211 10.9523 15.2189 10.3523 14.7241 10.107L13.8282 9.66271C13.3334 9.41736 12.7334 9.61957 12.488 10.1144L12.0438 11.0103C11.7984 11.5051 12.0006 12.1051 12.4954 12.3504L13.3913 12.7947C13.8861 13.04 14.4861 12.8378 14.7315 12.343L15.1757 11.4471Z"/>
</mask>
<path d="M15.62 10.5512L12.9323 9.21846L15.62 10.5512ZM11.1479 10.566C10.6572 11.5556 11.0616 12.7556 12.0512 13.2463L12.9471 13.6906C13.9367 14.1813 15.1367 13.7769 15.6274 12.7873L13.8356 11.8988L12.9397 11.4545L11.1479 10.566ZM12.9471 13.6906C13.9367 14.1813 15.1367 13.7769 15.6274 12.7873C16.1181 11.7977 15.7137 10.5977 14.7241 10.107C14.7241 10.107 14.5252 10.5081 14.2798 11.0029L13.8356 11.8988L12.9471 13.6906ZM13.8282 9.66271C12.8386 9.172 11.6386 9.57643 11.1479 10.566C10.6572 11.5556 11.0616 12.7556 12.0512 13.2463L12.9397 11.4545L13.3839 10.5586C13.6293 10.0638 13.8282 9.66271 13.8282 9.66271Z" fill="white" mask="url(#path-9-inside-2_66_2)"/>
<line y1="-0.5" x2="2" y2="-0.5" transform="matrix(-0.44425 0.895903 0.895903 0.44425 13.3913 12.7947)" stroke="white"/>
<line x1="13.6464" y1="8.35355" x2="11.6464" y2="6.35355" stroke="white"/>
<line y1="-0.5" x2="2.82843" y2="-0.5" transform="matrix(0.707107 -0.707107 -0.707107 -0.707107 17 8)" stroke="white"/>
<line x1="15.5" y1="8" x2="15.5" y2="5" stroke="white"/>
</svg>
