<svg width="32" height="32" viewBox="0 0 32 32" fill="none" xmlns="http://www.w3.org/2000/svg">
<rect x="3" y="3" width="26" height="26" rx="2" stroke="white" stroke-width="2"/>
<path fill-rule="evenodd" clip-rule="evenodd" d="M6 7H18V15.4747C16.5835 15.955 15.4301 16.7986 14.732 18H7V19H14.2863C14.1 19.573 14 20.207 14 20.9015C14 23.7081 15.6326 26.1334 18 27.2795V28H6V7ZM8 17L8 13H7L7 17H8ZM8 20L8 24H7L7 20H8Z" fill="white"/>
<path d="M26.302 21.0653C26.302 23.9102 23.9958 26.2163 21.151 26.2163C18.3062 26.2163 16 23.9102 16 21.0653C16 19.6702 16.5497 18.6843 17.4115 18.0209C18.3043 17.3337 19.6078 16.9395 21.151 16.9395C22.6942 16.9395 23.9977 17.3337 24.8905 18.0209C25.7523 18.6843 26.302 19.6702 26.302 21.0653Z" stroke="white" stroke-width="2"/>
<path d="M20.5374 14.3251L21.4701 15.5974L24.0971 15.3612L22.0466 16.3837L22.9793 17.656L20.7793 17.0156L18.7287 18.0381L19.4196 16.6199L17.2196 15.9795L19.8465 15.7433L20.5374 14.3251Z" fill="white"/>
</svg>
