<svg width="32" height="32" viewBox="0 0 32 32" fill="none" xmlns="http://www.w3.org/2000/svg">
<rect x="3" y="3" width="26" height="26" rx="2" stroke="white" stroke-width="2"/>
<path d="M16.4946 6C16.4946 6 14.2137 9.17085 14.4946 12C14.8056 15.1331 17.8537 16.8546 17.9946 20C18.105 22.4674 16.4946 26 16.4946 26" stroke="white" stroke-width="3"/>
<path d="M21.7204 10C21.7204 10 19.7816 12.2196 20.0204 14.2C20.2847 16.3932 22.8757 17.5983 22.9954 19.8C23.0893 21.5272 21.7204 24 21.7204 24" stroke="white" stroke-width="2"/>
<path d="M10.7204 9C10.7204 9 8.78163 11.2196 9.02037 13.2C9.28475 15.3932 11.8757 16.5983 11.9954 18.8C12.0893 20.5272 10.7204 23 10.7204 23" stroke="white" stroke-width="2"/>
</svg>
