<svg width="32" height="32" viewBox="0 0 32 32" fill="none" xmlns="http://www.w3.org/2000/svg">
<rect x="3" y="3" width="26" height="26" rx="2" stroke="white" stroke-width="2"/>
<path fill-rule="evenodd" clip-rule="evenodd" d="M17 7C17 5.89543 17.8954 5 19 5H21C22.1046 5 23 5.89543 23 7V17.9996C24.2144 18.9118 25 20.3642 25 22C25 24.7614 22.7614 27 20 27C17.2386 27 15 24.7614 15 22C15 20.3642 15.7856 18.9118 17 17.9996V7ZM17.5152 22C17.5152 23.3723 18.6277 24.4848 20 24.4848C21.3723 24.4848 22.4848 23.3723 22.4848 22C22.4848 20.8967 21.7658 19.9614 20.7709 19.637C20.914 19.4641 21 19.2421 21 19V8C21 7.44772 20.5523 7 20 7C19.4477 7 19 7.44772 19 8V19C19 19.2421 19.086 19.464 19.2291 19.637C18.2342 19.9614 17.5152 20.8967 17.5152 22Z" fill="white"/>
<rect x="20" y="8" width="2" height="1" fill="white"/>
<rect x="20" y="11" width="2" height="1" fill="white"/>
<rect x="20" y="14" width="2" height="1" fill="white"/>
<rect x="20" y="17" width="2" height="1" fill="white"/>
<rect x="21" y="20" width="2" height="2" rx="1" fill="white"/>
<path d="M9 6L11.5981 11.25H6.40192L9 6Z" fill="white"/>
<mask id="path-9-inside-1_4_233" fill="white">
<path fill-rule="evenodd" clip-rule="evenodd" d="M6.70915 18.6623C5.73365 19.472 5.11243 20.6938 5.11243 22.0606C5.11243 24.4986 7.08881 26.475 9.5268 26.475C11.9648 26.475 13.9412 24.4986 13.9412 22.0606C13.9412 20.725 13.348 19.5279 12.4107 18.7184L7.87141 13.2319C7.87141 13.2319 8.20794 15.2943 7.87141 16.5427C7.68011 17.2523 7.18053 18.0358 6.70915 18.6623Z"/>
</mask>
<path d="M6.70915 18.6623L7.34784 19.4318L7.4379 19.357L7.50826 19.2635L6.70915 18.6623ZM12.4107 18.7184L11.6402 19.3559L11.6936 19.4205L11.7571 19.4752L12.4107 18.7184ZM7.87141 13.2319L8.64189 12.5944L6.29039 9.75223L6.88446 13.3929L7.87141 13.2319ZM7.87141 16.5427L8.83694 16.803L8.83694 16.803L7.87141 16.5427ZM6.11243 22.0606C6.11243 21.0038 6.59142 20.0597 7.34784 19.4318L6.07045 17.8929C4.87588 18.8844 4.11243 20.3838 4.11243 22.0606L6.11243 22.0606ZM9.5268 25.475C7.64109 25.475 6.11243 23.9463 6.11243 22.0606L4.11243 22.0606C4.11243 25.0509 6.53652 27.475 9.5268 27.475L9.5268 25.475ZM12.9412 22.0606C12.9412 23.9463 11.4125 25.475 9.5268 25.475L9.5268 27.475C12.5171 27.475 14.9412 25.0509 14.9412 22.0606L12.9412 22.0606ZM11.7571 19.4752C12.4838 20.1029 12.9412 21.0278 12.9412 22.0606L14.9412 22.0606C14.9412 20.4222 14.2122 18.9529 13.0643 17.9616L11.7571 19.4752ZM7.10093 13.8694L11.6402 19.3559L13.1812 18.081L8.64189 12.5944L7.10093 13.8694ZM8.83694 16.803C9.05025 16.0117 9.0388 15.0456 8.99565 14.3566C8.97308 13.9962 8.93932 13.6788 8.91119 13.4511C8.89709 13.3369 8.88429 13.2443 8.87483 13.1792C8.8701 13.1466 8.86619 13.1208 8.86336 13.1026C8.86195 13.0934 8.8608 13.0861 8.85996 13.0808C8.85954 13.0782 8.85919 13.076 8.85892 13.0743C8.85879 13.0735 8.85867 13.0728 8.85858 13.0722C8.85853 13.0719 8.85849 13.0717 8.85845 13.0714C8.85843 13.0713 8.85841 13.0712 8.8584 13.0711C8.85838 13.071 8.85836 13.0709 7.87141 13.2319C6.88446 13.3929 6.88444 13.3928 6.88443 13.3927C6.88442 13.3927 6.88441 13.3926 6.8844 13.3925C6.88438 13.3924 6.88437 13.3924 6.88436 13.3923C6.88435 13.3922 6.88436 13.3923 6.88438 13.3925C6.88443 13.3928 6.88456 13.3936 6.88477 13.3949C6.88518 13.3974 6.88588 13.4019 6.88685 13.4082C6.88879 13.4207 6.89178 13.4404 6.8956 13.4667C6.90323 13.5192 6.91409 13.5976 6.92628 13.6962C6.95073 13.8942 6.98007 14.1705 6.99956 14.4817C7.04055 15.136 7.0291 15.8253 6.90588 16.2824L8.83694 16.803ZM7.50826 19.2635C7.99358 18.6184 8.59316 17.7073 8.83694 16.803L6.90588 16.2824C6.76707 16.7973 6.36748 17.4531 5.91003 18.0612L7.50826 19.2635Z" fill="white" mask="url(#path-9-inside-1_4_233)"/>
<mask id="path-11-inside-2_4_233" fill="white">
<path fill-rule="evenodd" clip-rule="evenodd" d="M7.74788 20.2388C6.94692 20.6904 6.34544 21.4818 6.16851 22.4572C5.85291 24.197 7.00748 25.8633 8.74729 26.1789C10.4871 26.4945 12.1533 25.3399 12.4689 23.6001C12.6418 22.6469 12.3735 21.7158 11.8093 21.0168L9.28024 16.5139C9.28024 16.5139 9.25343 18.0293 8.85167 18.8766C8.6233 19.3582 8.16538 19.8527 7.74788 20.2388Z"/>
</mask>
<path d="M7.74788 20.2388L8.23899 21.1099L8.34094 21.0524L8.42687 20.9729L7.74788 20.2388ZM11.8093 21.0168L10.9374 21.5065L10.9785 21.5796L11.0311 21.6448L11.8093 21.0168ZM9.28024 16.5139L10.1521 16.0242L8.34567 12.808L8.2804 16.4963L9.28024 16.5139ZM8.85167 18.8766L9.75524 19.305L8.85167 18.8766ZM7.15245 22.6357C7.27406 21.9653 7.68603 21.4216 8.23899 21.1099L7.25678 19.3677C6.2078 19.9591 5.41682 20.9983 5.18456 22.2788L7.15245 22.6357ZM8.92577 25.1949C7.72938 24.9779 6.93543 23.8321 7.15245 22.6357L5.18456 22.2788C4.7704 24.562 6.28558 26.7487 8.56881 27.1628L8.92577 25.1949ZM11.485 23.4216C11.268 24.618 10.1222 25.412 8.92577 25.1949L8.56881 27.1628C10.852 27.577 13.0387 26.0618 13.4529 23.7786L11.485 23.4216ZM11.0311 21.6448C11.4205 22.1273 11.6039 22.7664 11.485 23.4216L13.4529 23.7786C13.6798 22.5275 13.3264 21.3043 12.5875 20.3888L11.0311 21.6448ZM8.40836 17.0037L10.9374 21.5065L12.6812 20.5271L10.1521 16.0242L8.40836 17.0037ZM9.75524 19.305C10.0303 18.725 10.1508 17.9962 10.2098 17.4942C10.2411 17.2273 10.2585 16.9907 10.2682 16.8205C10.273 16.735 10.2759 16.6654 10.2777 16.6159C10.2786 16.5912 10.2791 16.5714 10.2795 16.5572C10.2797 16.5501 10.2798 16.5444 10.2799 16.5401C10.28 16.5379 10.28 16.5362 10.28 16.5348C10.28 16.5341 10.2801 16.5334 10.2801 16.5329C10.2801 16.5327 10.2801 16.5324 10.2801 16.5322C10.2801 16.5321 10.2801 16.532 10.2801 16.5319C10.2801 16.5318 10.2801 16.5316 9.28024 16.5139C8.2804 16.4963 8.2804 16.4961 8.2804 16.496C8.2804 16.496 8.28041 16.4959 8.28041 16.4958C8.28041 16.4957 8.28041 16.4956 8.28041 16.4955C8.28042 16.4954 8.28042 16.4953 8.28042 16.4953C8.28042 16.4954 8.28041 16.4958 8.28039 16.4966C8.28036 16.4981 8.28029 16.5009 8.28018 16.5051C8.27996 16.5135 8.27957 16.5272 8.27893 16.5455C8.27763 16.5822 8.27533 16.6376 8.27137 16.7074C8.26343 16.8478 8.24902 17.0431 8.22344 17.2609C8.16854 17.7284 8.07483 18.1809 7.9481 18.4482L9.75524 19.305ZM8.42687 20.9729C8.86138 20.5711 9.44048 19.9689 9.75524 19.305L7.9481 18.4482C7.80612 18.7476 7.46937 19.1343 7.0689 19.5046L8.42687 20.9729Z" fill="white" mask="url(#path-11-inside-2_4_233)"/>
<mask id="path-13-inside-3_4_233" fill="white">
<path fill-rule="evenodd" clip-rule="evenodd" d="M8.43016 22.5801C7.95319 22.7216 7.54041 23.0665 7.32938 23.5597C6.95298 24.4392 7.36088 25.4574 8.24046 25.8338C9.12004 26.2102 10.1382 25.8023 10.5146 24.9227C10.7208 24.4409 10.6916 23.9174 10.4785 23.4807L9.68786 20.8004C9.68786 20.8004 9.49086 21.5964 9.17671 21.9948C8.99814 22.2213 8.69696 22.4268 8.43016 22.5801Z"/>
</mask>
<path fill-rule="evenodd" clip-rule="evenodd" d="M8.43016 22.5801C7.95319 22.7216 7.54041 23.0665 7.32938 23.5597C6.95298 24.4392 7.36088 25.4574 8.24046 25.8338C9.12004 26.2102 10.1382 25.8023 10.5146 24.9227C10.7208 24.4409 10.6916 23.9174 10.4785 23.4807L9.68786 20.8004C9.68786 20.8004 9.49086 21.5964 9.17671 21.9948C8.99814 22.2213 8.69696 22.4268 8.43016 22.5801Z" fill="white"/>
<path d="M8.43016 22.5801L8.99903 24.4975L9.22348 24.4309L9.42648 24.3143L8.43016 22.5801ZM10.4785 23.4807L8.56022 24.0466L8.60763 24.2073L8.68113 24.3579L10.4785 23.4807ZM9.68786 20.8004L11.6061 20.2345L9.5188 13.1582L7.74643 20.3199L9.68786 20.8004ZM9.17671 21.9948L7.60618 20.7565L9.17671 21.9948ZM9.16809 24.3465C9.13522 24.4233 9.06798 24.477 8.99903 24.4975L7.86129 20.6627C6.8384 20.9662 5.94561 21.7097 5.49067 22.7728L9.16809 24.3465ZM9.02731 23.9951C9.16322 24.0533 9.22625 24.2106 9.16809 24.3465L5.49067 22.7728C4.6797 24.6679 5.55854 26.8616 7.45361 27.6725L9.02731 23.9951ZM8.67591 24.1359C8.73407 24 8.8914 23.9369 9.02731 23.9951L7.45361 27.6725C9.34868 28.4835 11.5424 27.6047 12.3533 25.7096L8.67591 24.1359ZM8.68113 24.3579C8.65022 24.2946 8.64388 24.2107 8.67591 24.1359L12.3533 25.7096C12.7978 24.671 12.7331 23.5403 12.2759 22.6035L8.68113 24.3579ZM7.76958 21.3662L8.56022 24.0466L12.3968 22.9149L11.6061 20.2345L7.76958 21.3662ZM10.7472 23.2332C11.1186 22.7621 11.3342 22.2001 11.4344 21.9186C11.4952 21.7476 11.5418 21.5961 11.5735 21.4865C11.5895 21.431 11.6022 21.3846 11.6115 21.3498C11.6161 21.3323 11.62 21.3176 11.6229 21.3061C11.6244 21.3003 11.6257 21.2953 11.6267 21.291C11.6273 21.2889 11.6278 21.287 11.6282 21.2853C11.6284 21.2845 11.6286 21.2837 11.6288 21.2829C11.6289 21.2826 11.629 21.2822 11.629 21.2818C11.6291 21.2817 11.6292 21.2814 11.6292 21.2813C11.6292 21.2811 11.6293 21.2808 9.68786 20.8004C7.74643 20.3199 7.74649 20.3197 7.74655 20.3194C7.74657 20.3194 7.74663 20.3191 7.74666 20.319C7.74674 20.3187 7.74681 20.3184 7.74688 20.3181C7.74702 20.3176 7.74714 20.317 7.74726 20.3166C7.74749 20.3156 7.74769 20.3149 7.74783 20.3143C7.74813 20.3131 7.74826 20.3126 7.74822 20.3128C7.74815 20.313 7.74742 20.3159 7.74607 20.321C7.74334 20.3312 7.73821 20.3501 7.73087 20.3755C7.7158 20.4276 7.6935 20.4999 7.66579 20.5778C7.58891 20.7939 7.54895 20.8291 7.60618 20.7565L10.7472 23.2332ZM9.42648 24.3143C9.73348 24.1379 10.319 23.7763 10.7472 23.2332L7.60618 20.7565C7.63783 20.7164 7.65916 20.6967 7.65994 20.696C7.6616 20.6944 7.65321 20.7023 7.63166 20.7186C7.58619 20.7529 7.5189 20.7971 7.43384 20.8459L9.42648 24.3143Z" fill="white" mask="url(#path-13-inside-3_4_233)"/>
</svg>
