<svg width="32" height="32" viewBox="0 0 32 32" fill="none" xmlns="http://www.w3.org/2000/svg">
<rect x="3" y="3" width="26" height="26" rx="2" stroke="white" stroke-width="2"/>
<path d="M17.6042 14.3017C17.6042 14.3017 14.1428 16.6007 12.2507 18.4482C10.1625 20.4871 7.60425 24.3017 7.60425 24.3017" stroke="white"/>
<path fill-rule="evenodd" clip-rule="evenodd" d="M21.4902 13.9563L19.2844 14.5473L25.2769 11.5181C25.6429 11.3331 25.8589 10.9434 25.8217 10.535L25.5618 7.67904C25.5245 7.26943 25.2402 6.92442 24.8453 6.80949L22.3532 6.08429C21.9775 5.97496 21.5726 6.09478 21.3169 6.39092L17.9703 10.2669L18.1919 9.43983C18.3348 8.90636 18.0182 8.35803 17.4848 8.21508L16.5188 7.95627C15.9854 7.81332 15.437 8.1299 15.2941 8.66337L14 13.493V12C14 11.4477 13.5523 11 13 11C12.4477 11 12 11.4477 12 12V16.6003C11.7853 16.7843 11.6556 17.0542 11.6504 17.3414C11.7346 17.2553 11.8183 17.1715 11.9014 17.0904C12.8741 16.1406 14.2365 15.0867 15.3419 14.2785C15.8973 13.8724 16.3929 13.5246 16.7498 13.2783C16.9283 13.1551 17.0723 13.0571 17.1718 12.9898C17.2216 12.9562 17.2603 12.9302 17.2867 12.9125L17.3168 12.8924L17.3247 12.8871L17.3268 12.8857L17.3274 12.8854L17.3275 12.8853C17.3276 12.8852 17.3276 12.8852 17.6042 13.3017C17.8383 13.6541 17.8743 13.7083 17.8799 13.7167L17.8809 13.7182L17.8808 13.7182L17.8804 13.7185L17.8787 13.7196L17.8717 13.7243L17.8431 13.7434C17.8179 13.7603 17.7804 13.7855 17.7318 13.8183C17.6347 13.884 17.4934 13.9801 17.3179 14.1013C16.9666 14.3437 16.4786 14.6862 15.9321 15.0857C14.8337 15.8889 13.5193 16.9083 12.6 17.8059C12.3791 18.0216 12.1522 18.2584 11.9231 18.5093L11.9434 18.5849C12.0863 19.1183 12.6346 19.4349 13.1681 19.292L14.838 18.8445C14.8791 18.8617 14.9218 18.8763 14.9659 18.8881L18.8296 19.9234C19.3631 20.0663 19.9114 19.7498 20.0544 19.2163C20.1973 18.6828 19.8807 18.1345 19.3472 17.9915L18.6843 17.8139L22.2666 16.854C22.8001 16.7111 23.1167 16.1628 22.9737 15.6293L22.7149 14.6634C22.572 14.1299 22.0236 13.8133 21.4902 13.9563Z" fill="white"/>
</svg>
