<svg width="32" height="32" viewBox="0 0 32 32" fill="none" xmlns="http://www.w3.org/2000/svg">
<rect x="3" y="3" width="26" height="26" rx="2" stroke="white" stroke-width="2"/>
<path d="M6 15.5054C6 15.5054 9.17085 17.7863 12 17.5054C15.1331 17.1944 16.8546 14.1463 20 14.0054C22.4674 13.895 26 15.5054 26 15.5054" stroke="white" stroke-width="3"/>
<path d="M10 10.2796C10 10.2796 12.2196 12.2184 14.2 11.9796C16.3932 11.7153 17.5983 9.12433 19.8 9.00462C21.5272 8.91071 24 10.2796 24 10.2796" stroke="white" stroke-width="2"/>
<path d="M9 21.2796C9 21.2796 11.2196 23.2184 13.2 22.9796C15.3932 22.7153 16.5983 20.1243 18.8 20.0046C20.5272 19.9107 23 21.2796 23 21.2796" stroke="white" stroke-width="2"/>
</svg>
