<svg width="32" height="32" viewBox="0 0 32 32" fill="none" xmlns="http://www.w3.org/2000/svg">
<rect x="3" y="3" width="26" height="26" rx="2" stroke="white" stroke-width="2"/>
<path d="M6 14C6 13.4477 6.44772 13 7 13H11V19H7C6.44772 19 6 18.5523 6 18V14Z" fill="white"/>
<path d="M18.5 14C18.8283 14 19.1534 14.0647 19.4567 14.1903C19.76 14.3159 20.0356 14.5001 20.2678 14.7322C20.4999 14.9644 20.6841 15.24 20.8097 15.5433C20.9353 15.8466 21 16.1717 21 16.5C21 16.8283 20.9353 17.1534 20.8097 17.4567C20.6841 17.76 20.4999 18.0356 20.2678 18.2678C20.0356 18.4999 19.76 18.6841 19.4567 18.8097C19.1534 18.9353 18.8283 19 18.5 19L18.5 17.5C18.6313 17.5 18.7614 17.4741 18.8827 17.4239C19.004 17.3736 19.1142 17.3 19.2071 17.2071C19.3 17.1142 19.3736 17.004 19.4239 16.8827C19.4741 16.7614 19.5 16.6313 19.5 16.5C19.5 16.3687 19.4741 16.2386 19.4239 16.1173C19.3736 15.996 19.3 15.8858 19.2071 15.7929C19.1142 15.7 19.004 15.6264 18.8827 15.5761C18.7614 15.5259 18.6313 15.5 18.5 15.5V14Z" fill="white"/>
<path d="M19.9235 11.1874C21.093 11.5008 22.1264 12.1913 22.8634 13.1518C23.6005 14.1124 24 15.2893 24 16.5C24 17.7107 23.6005 18.8876 22.8634 19.8482C22.1264 20.8087 21.093 21.4992 19.9235 21.8126L19.4965 20.2188C20.3151 19.9995 21.0385 19.5161 21.5544 18.8437C22.0703 18.1714 22.35 17.3475 22.35 16.5C22.35 15.6525 22.0703 14.8286 21.5544 14.1563C21.0385 13.4839 20.3151 13.0005 19.4965 12.7812L19.9235 11.1874Z" fill="white"/>
<path d="M20.7 8.28963C22.5073 8.77392 24.1044 9.84105 25.2435 11.3255C26.3826 12.81 27 14.6289 27 16.5C27 18.3711 26.3826 20.19 25.2435 21.6745C24.1044 23.1589 22.5073 24.2261 20.7 24.7104L20.26 23.0683C21.7059 22.6809 22.9835 21.8272 23.8948 20.6396C24.8061 19.452 25.3 17.9969 25.3 16.5C25.3 15.0031 24.8061 13.548 23.8948 12.3604C22.9835 11.1728 21.7059 10.3191 20.26 9.9317L20.7 8.28963Z" fill="white"/>
<path fill-rule="evenodd" clip-rule="evenodd" d="M17 8L11 13V19L17 25V8ZM15 12C14.4477 12 14 12.4477 14 13V14C14 14.5523 14.4477 15 15 15C15.5523 15 16 14.5523 16 14V13C16 12.4477 15.5523 12 15 12Z" fill="white"/>
</svg>
