<svg width="32" height="32" viewBox="0 0 32 32" fill="none" xmlns="http://www.w3.org/2000/svg">
<line x1="17.9179" y1="14.2519" x2="26.1679" y2="8.75193" stroke="white" stroke-width="3"/>
<line x1="22.9084" y1="14.8292" x2="25.6584" y2="9.32918" stroke="white" stroke-width="3"/>
<line x1="18.75" y1="8.50002" x2="27" y2="8.50002" stroke="white" stroke-width="3"/>
<path d="M21.5 17.25C21.5 21.8064 17.8063 25.5 13.25 25.5C8.69365 25.5 5 21.8064 5 17.25C5 12.6937 8.69365 9.00002 13.25 9.00002C17.8063 9.00002 21.5 12.6937 21.5 17.25ZM9.125 17.25C9.125 19.5282 10.9718 21.375 13.25 21.375C15.5282 21.375 17.375 19.5282 17.375 17.25C17.375 14.9718 15.5282 13.125 13.25 13.125C10.9718 13.125 9.125 14.9718 9.125 17.25Z" fill="white"/>
<rect x="3" y="3" width="26" height="26" rx="2" stroke="white" stroke-width="2"/>
</svg>
