<svg width="32" height="32" viewBox="0 0 32 32" fill="none" xmlns="http://www.w3.org/2000/svg">
<mask id="path-1-outside-1_17_166" maskUnits="userSpaceOnUse" x="6" y="4" width="21" height="23" fill="black">
<rect fill="white" x="6" y="4" width="21" height="23"/>
<path fill-rule="evenodd" clip-rule="evenodd" d="M13.5 8L18 7L18.7741 8.80617C19.4292 9.54654 21.0984 11.4845 22 13C23.2979 15.1815 24.5 19 24.5 19L21.257 20.3899C20.6063 22.195 18.7225 23.5 16.5 23.5C14.9652 23.5 13.5918 22.8776 12.6746 21.8979C12.4523 22.2566 12.1889 22.5893 11.8891 22.8891C11.3784 23.3998 10.7721 23.8049 10.1048 24.0813C9.43747 24.3577 8.72227 24.5 8 24.5L8.00001 19L8.00001 13.5C8.72228 13.5 9.43748 13.6423 10.1048 13.9187C10.7721 14.1951 11.3784 14.6002 11.8891 15.1109C12.1889 15.4107 12.4523 15.7434 12.6746 16.1021C13.5918 15.1224 14.9652 14.5 16.5 14.5C17.0436 14.5 17.5669 14.5781 18.0569 14.7224C18.0992 13.9735 18.1298 12.8343 18 12C17.8984 11.3469 17.6266 10.4181 17.5326 10.1065L17 10L16 11.5L13 10.5L13.5 8Z"/>
</mask>
<path d="M18 7L19.8383 6.21216L19.185 4.68787L17.5661 5.04763L18 7ZM13.5 8L13.0661 6.04763L11.7944 6.33025L11.5388 7.60777L13.5 8ZM18.7741 8.80617L16.9358 9.59401L17.0627 9.89021L17.2763 10.1315L18.7741 8.80617ZM22 13L20.2812 14.0226L20.2812 14.0226L22 13ZM24.5 19L25.2878 20.8383L26.9511 20.1255L26.4077 18.3994L24.5 19ZM21.257 20.3899L20.4691 18.5516L19.6702 18.894L19.3755 19.7117L21.257 20.3899ZM12.6746 21.8979L14.1347 20.531L12.3504 18.6251L10.9748 20.8441L12.6746 21.8979ZM11.8891 22.8891L13.3033 24.3033L13.3033 24.3033L11.8891 22.8891ZM10.1048 24.0813L9.3394 22.2336L9.33939 22.2336L10.1048 24.0813ZM8 24.5L6 24.5L6 26.5H8V24.5ZM8.00001 19L10 19V19H8.00001ZM8.00001 13.5V11.5H6.00001V13.5H8.00001ZM11.8891 15.1109L13.3033 13.6967L13.3033 13.6967L11.8891 15.1109ZM12.6746 16.1021L10.9748 17.1559L12.3504 19.3749L14.1347 17.469L12.6746 16.1021ZM18.0569 14.7224L17.4917 16.6409L19.9114 17.3538L20.0537 14.8353L18.0569 14.7224ZM18 12L16.0238 12.3074L16.0238 12.3074L18 12ZM17.5326 10.1065L19.4472 9.52858L19.1007 8.38053L17.9248 8.14535L17.5326 10.1065ZM17 10L17.3922 8.03884L16.0789 7.77616L15.3359 8.8906L17 10ZM16 11.5L15.3676 13.3974L16.8168 13.8804L17.6641 12.6094L16 11.5ZM13 10.5L11.0388 10.1078L10.6926 11.839L12.3676 12.3974L13 10.5ZM17.5661 5.04763L13.0661 6.04763L13.9339 9.95237L18.4339 8.95237L17.5661 5.04763ZM20.6124 8.01833L19.8383 6.21216L16.1617 7.78784L16.9358 9.59401L20.6124 8.01833ZM23.7188 11.9774C22.7076 10.2777 20.9158 8.20853 20.2719 7.48081L17.2763 10.1315C17.9426 10.8845 19.4891 12.6913 20.2812 14.0226L23.7188 11.9774ZM24.5 19C26.4077 18.3994 26.4077 18.3993 26.4076 18.3991C26.4076 18.399 26.4075 18.3989 26.4075 18.3987C26.4074 18.3984 26.4073 18.398 26.4071 18.3976C26.4069 18.3968 26.4065 18.3957 26.4061 18.3945C26.4053 18.3919 26.4042 18.3884 26.4028 18.384C26.4 18.3752 26.3961 18.3628 26.391 18.3469C26.3809 18.3153 26.3663 18.2699 26.3474 18.2121C26.3098 18.0966 26.2552 17.9312 26.1859 17.7269C26.0475 17.3188 25.8491 16.7516 25.6081 16.1125C25.1379 14.8655 24.4625 13.2275 23.7188 11.9774L20.2812 14.0226C20.8354 14.954 21.41 16.316 21.8653 17.5237C22.0871 18.1118 22.2703 18.6356 22.3979 19.0117C22.4615 19.1994 22.511 19.3494 22.5442 19.4512C22.5608 19.5021 22.5733 19.5409 22.5814 19.5662C22.5854 19.5789 22.5884 19.5882 22.5902 19.594C22.5911 19.5969 22.5918 19.5989 22.5921 19.6C22.5923 19.6005 22.5924 19.6009 22.5924 19.601C22.5925 19.601 22.5925 19.601 22.5924 19.6009C22.5924 19.6009 22.5924 19.6008 22.5924 19.6008C22.5924 19.6007 22.5923 19.6006 24.5 19ZM22.0448 22.2282L25.2878 20.8383L23.7122 17.1617L20.4691 18.5516L22.0448 22.2282ZM16.5 25.5C19.4804 25.5 22.1741 23.7435 23.1385 21.0681L19.3755 19.7117C19.0385 20.6464 17.9646 21.5 16.5 21.5V25.5ZM11.2146 23.2648C12.5195 24.6586 14.426 25.5 16.5 25.5V21.5C15.5043 21.5 14.6641 21.0966 14.1347 20.531L11.2146 23.2648ZM13.3033 24.3033C13.7121 23.8945 14.0713 23.4408 14.3745 22.9517L10.9748 20.8441C10.8333 21.0724 10.6657 21.2841 10.4749 21.4749L13.3033 24.3033ZM10.8701 25.9291C11.7801 25.5522 12.6069 24.9997 13.3033 24.3033L10.4749 21.4749C10.1499 21.7999 9.76404 22.0577 9.3394 22.2336L10.8701 25.9291ZM8 26.5C8.98491 26.5 9.96018 26.306 10.8701 25.9291L9.33939 22.2336C8.91476 22.4095 8.45963 22.5 8 22.5V26.5ZM6.00001 19L6 24.5L10 24.5L10 19L6.00001 19ZM6.00001 13.5L6.00001 19H10V13.5H6.00001ZM10.8701 12.0709C9.96019 11.694 8.98492 11.5 8.00001 11.5V15.5C8.45963 15.5 8.91476 15.5905 9.3394 15.7664L10.8701 12.0709ZM13.3033 13.6967C12.6069 13.0003 11.7801 12.4478 10.8701 12.0709L9.3394 15.7664C9.76404 15.9423 10.1499 16.2001 10.4749 16.5251L13.3033 13.6967ZM14.3745 15.0483C14.0713 14.5592 13.7121 14.1055 13.3033 13.6967L10.4749 16.5251C10.6657 16.7159 10.8333 16.9276 10.9748 17.1559L14.3745 15.0483ZM16.5 12.5C14.426 12.5 12.5195 13.3414 11.2146 14.7352L14.1347 17.469C14.6641 16.9034 15.5043 16.5 16.5 16.5V12.5ZM18.6221 12.804C17.9492 12.6057 17.2355 12.5 16.5 12.5V16.5C16.8517 16.5 17.1847 16.5505 17.4917 16.6409L18.6221 12.804ZM16.0238 12.3074C16.118 12.9134 16.1021 13.8659 16.0601 14.6096L20.0537 14.8353C20.0963 14.081 20.1415 12.7552 19.9762 11.6926L16.0238 12.3074ZM15.6179 10.6844C15.7161 11.0097 15.9466 11.8115 16.0238 12.3074L19.9762 11.6926C19.8502 10.8823 19.5371 9.8264 19.4472 9.52858L15.6179 10.6844ZM16.6078 11.9612L17.1403 12.0677L17.9248 8.14535L17.3922 8.03884L16.6078 11.9612ZM17.6641 12.6094L18.6641 11.1094L15.3359 8.8906L14.3359 10.3906L17.6641 12.6094ZM12.3676 12.3974L15.3676 13.3974L16.6325 9.60263L13.6325 8.60263L12.3676 12.3974ZM11.5388 7.60777L11.0388 10.1078L14.9612 10.8922L15.4612 8.39223L11.5388 7.60777Z" fill="white" mask="url(#path-1-outside-1_17_166)"/>
<rect x="3" y="3" width="26" height="26" rx="2" stroke="white" stroke-width="2"/>
<line x1="12.4851" y1="15.1213" x2="11.4851" y2="19.1213" stroke="white"/>
<line x1="17.3536" y1="13.6464" x2="20.3536" y2="16.6464" stroke="white"/>
</svg>
