<svg width="32" height="32" viewBox="0 0 32 32" fill="none" xmlns="http://www.w3.org/2000/svg">
<path d="M6 14C6 13.4477 6.44772 13 7 13H11V19H7C6.44772 19 6 18.5523 6 18V14Z" fill="white"/>
<rect x="3" y="3" width="26" height="26" rx="2" stroke="white" stroke-width="2"/>
<path d="M18.5 13C18.9596 13 19.4148 13.0905 19.8394 13.2664C20.264 13.4423 20.6499 13.7001 20.9749 14.0251C21.2999 14.3501 21.5577 14.736 21.7336 15.1606C21.9095 15.5852 22 16.0404 22 16.5C22 16.9596 21.9095 17.4148 21.7336 17.8394C21.5577 18.264 21.2999 18.6499 20.9749 18.9749C20.6499 19.2999 20.264 19.5577 19.8394 19.7336C19.4148 19.9095 18.9596 20 18.5 20L18.5 17.9C18.6838 17.9 18.8659 17.8638 19.0358 17.7934C19.2056 17.7231 19.3599 17.62 19.4899 17.49C19.62 17.3599 19.7231 17.2056 19.7934 17.0358C19.8638 16.8659 19.9 16.6839 19.9 16.5C19.9 16.3161 19.8638 16.1341 19.7934 15.9642C19.7231 15.7944 19.62 15.6401 19.4899 15.5101C19.3599 15.38 19.2056 15.2769 19.0358 15.2066C18.8659 15.1362 18.6839 15.1 18.5 15.1V13Z" fill="white"/>
<path fill-rule="evenodd" clip-rule="evenodd" d="M17 8L11 13V19L17 25V8ZM15 12C14.4477 12 14 12.4477 14 13V14C14 14.5523 14.4477 15 15 15C15.5523 15 16 14.5523 16 14V13C16 12.4477 15.5523 12 15 12Z" fill="white"/>
</svg>
