<svg width="32" height="32" viewBox="0 0 32 32" fill="none" xmlns="http://www.w3.org/2000/svg">
<rect x="3" y="3" width="26" height="26" rx="2" stroke="white" stroke-width="2"/>
<path fill-rule="evenodd" clip-rule="evenodd" d="M20.8591 14.4988C19.831 14.2233 18.7743 14.8334 18.4988 15.8615C18.2233 16.8896 18.8334 17.9464 19.8615 18.2218L21.2577 18.5959C22.2858 18.8714 23.3425 18.2613 23.618 17.2332C23.8935 16.2051 23.2833 15.1484 22.2553 14.8729L20.8591 14.4988ZM20.2588 15.9659C20.1159 16.4994 20.4325 17.0477 20.9659 17.1907L21.9318 17.4495C22.4653 17.5924 23.0137 17.2759 23.1566 16.7424C23.2995 16.2089 22.983 15.6606 22.4495 15.5176L21.4836 15.2588C20.9501 15.1159 20.4018 15.4325 20.2588 15.9659Z" fill="white"/>
<path d="M7.73638 20C7.73638 20 18.2364 20 21.2364 22.5C22.8025 23.8051 25.7364 26 25.7364 26C25.7364 26 8.73638 27 7.73638 26C6.07953 24.3431 7.73638 20 7.73638 20Z" fill="white"/>
<path d="M7 20C7 18.8954 7.89543 18 9 18H11C12.1046 18 13 18.8954 13 20V24H7V20Z" fill="white"/>
<path fill-rule="evenodd" clip-rule="evenodd" d="M17.9683 12.7765C16.3679 12.3476 14.7229 13.2974 14.2941 14.8978L13.7765 16.8296C13.3476 18.43 14.2974 20.075 15.8978 20.5039L20.7274 21.798C22.3278 22.2268 23.9728 21.277 24.4016 19.6766L24.9193 17.7448C25.3481 16.1444 24.3984 14.4994 22.798 14.0706L17.9683 12.7765ZM19.2196 13.7116C18.1527 13.4257 17.056 14.0589 16.7701 15.1258L16.3827 16.5719C16.0968 17.6388 16.7299 18.7355 17.7969 19.0214L21.2341 19.9424C22.301 20.2283 23.3977 19.5951 23.6836 18.5282L24.071 17.0821C24.3569 16.0152 23.7238 14.9185 22.6568 14.6326L19.2196 13.7116Z" fill="white"/>
<line x1="10.4932" y1="12.9178" x2="11.4932" y2="18.9178" stroke="white"/>
<line x1="7.4932" y1="12.9178" x2="8.4932" y2="18.9178" stroke="white"/>
<rect x="6" y="11.5176" width="2" height="3" rx="1" transform="rotate(-15 6 11.5176)" fill="white"/>
<rect x="9" y="11.5176" width="2" height="3" rx="1" transform="rotate(-15 9 11.5176)" fill="white"/>
</svg>
