<svg width="32" height="32" viewBox="0 0 32 32" fill="none" xmlns="http://www.w3.org/2000/svg">
<rect x="3" y="3" width="26" height="26" rx="2" stroke="white" stroke-width="2"/>
<mask id="path-2-outside-1_10_2" maskUnits="userSpaceOnUse" x="5" y="6" width="22" height="18" fill="black">
<rect fill="white" x="5" y="6" width="22" height="18"/>
<path fill-rule="evenodd" clip-rule="evenodd" d="M12.3945 10.9188L14.4425 12.1012L14.4648 12.2877C14.4997 12.5792 14.616 12.8411 14.7882 13.0533C14.7628 13.4316 14.6287 13.7976 14.3978 14.1055L13.5612 15.2209C13.4659 15.348 13.323 15.4293 13.1671 15.4474L11.7459 14.4729C11.4999 14.0979 11.089 13.8368 10.6071 13.7994L7.61613 13.5673C6.79018 13.5032 6.06867 14.1208 6.00457 14.9467C5.94048 15.7727 6.55808 16.4942 7.38402 16.5583L9.43647 16.7175C9.47927 16.7542 9.52445 16.7889 9.57195 16.8214L12.738 18.9923C12.8289 19.0546 12.9241 19.1062 13.0219 19.1473L13.2741 19.5842L13.3804 20.0798C13.6768 21.463 14.8991 22.4512 16.3138 22.4512H22.8885C24.5454 22.4512 25.8885 21.1081 25.8885 19.4512V14.4745C25.8885 14.2118 25.8545 13.956 25.7903 13.7117C25.782 13.4898 25.6997 13.2793 25.5615 13.112C25.273 12.5467 24.8094 12.0816 24.235 11.7932C24.1726 11.5369 24.0097 11.3056 23.7633 11.1634L22.4083 10.3811C22.3708 10.3396 22.3292 10.3007 22.2838 10.2649L19.8025 8.31455C19.3925 7.99226 18.809 8.04146 18.4579 8.41355C18.3049 8.39922 18.1462 8.4201 17.9937 8.4812L15.7378 9.38491L13.6876 8.20121C13.1312 7.87999 12.4546 7.95571 11.9856 8.3405L6.99187 9.67857C6.29936 9.86413 5.88839 10.5759 6.07395 11.2685C6.2595 11.961 6.97132 12.3719 7.66383 12.1864L12.3945 10.9188Z"/>
</mask>
<path d="M14.4425 12.1012L15.4354 11.9822L15.3758 11.4853L14.9425 11.2351L14.4425 12.1012ZM12.3945 10.9188L12.8945 10.0528L12.5358 9.84565L12.1357 9.95286L12.3945 10.9188ZM14.4648 12.2877L15.4577 12.1688V12.1688L14.4648 12.2877ZM14.7882 13.0533L15.786 13.1205L15.8124 12.7285L15.5648 12.4233L14.7882 13.0533ZM14.3978 14.1055L15.1978 14.7055V14.7055L14.3978 14.1055ZM13.5612 15.2209L12.7612 14.6209L12.7612 14.6209L13.5612 15.2209ZM13.1671 15.4474L12.6016 16.2721L12.9104 16.4839L13.2823 16.4407L13.1671 15.4474ZM11.7459 14.4729L10.9098 15.0215L11.0179 15.1862L11.1804 15.2977L11.7459 14.4729ZM10.6071 13.7994L10.5298 14.7964H10.5298L10.6071 13.7994ZM7.61613 13.5673L7.53876 14.5643H7.53876L7.61613 13.5673ZM6.00457 14.9467L5.00757 14.8693L6.00457 14.9467ZM7.38402 16.5583L7.46139 15.5613H7.46139L7.38402 16.5583ZM9.43647 16.7175L10.0866 15.9577L9.83886 15.7458L9.51384 15.7205L9.43647 16.7175ZM9.57195 16.8214L9.00644 17.6462L9.00645 17.6462L9.57195 16.8214ZM12.738 18.9923L12.1725 19.817L12.738 18.9923ZM13.0219 19.1473L13.888 18.6473L13.7195 18.3556L13.4089 18.2252L13.0219 19.1473ZM13.2741 19.5842L14.2519 19.3746L14.2189 19.2206L14.1402 19.0842L13.2741 19.5842ZM13.3804 20.0798L14.3582 19.8703L13.3804 20.0798ZM25.7903 13.7117L24.791 13.7489L24.7951 13.859L24.8231 13.9657L25.7903 13.7117ZM25.5615 13.112L24.6708 13.5666L24.7206 13.6641L24.7903 13.7485L25.5615 13.112ZM24.235 11.7932L23.2633 12.0295L23.3727 12.4792L23.7862 12.6869L24.235 11.7932ZM23.7633 11.1634L24.2633 10.2974V10.2974L23.7633 11.1634ZM22.4083 10.3811L21.6667 11.0519L21.7722 11.1685L21.9083 11.2471L22.4083 10.3811ZM22.2838 10.2649L22.9017 9.47874L22.9017 9.47873L22.2838 10.2649ZM19.8025 8.31455L19.1845 9.10074V9.10074L19.8025 8.31455ZM18.4579 8.41355L18.3647 9.4092L18.8505 9.45466L19.1852 9.09986L18.4579 8.41355ZM17.9937 8.4812L18.3655 9.40948L17.9937 8.4812ZM15.7378 9.38491L15.2378 10.2509L15.6586 10.4939L16.1097 10.3132L15.7378 9.38491ZM13.6876 8.20121L14.1876 7.33519V7.33519L13.6876 8.20121ZM11.9856 8.3405L12.2444 9.30643L12.453 9.25054L12.6199 9.11356L11.9856 8.3405ZM6.99187 9.67857L7.25068 10.6445L6.99187 9.67857ZM7.66383 12.1864L7.92265 13.1523H7.92265L7.66383 12.1864ZM14.9425 11.2351L12.8945 10.0528L11.8945 11.7848L13.9425 12.9672L14.9425 11.2351ZM15.4577 12.1688L15.4354 11.9822L13.4496 12.2201L13.4719 12.4067L15.4577 12.1688ZM15.5648 12.4233C15.508 12.3533 15.4695 12.2674 15.4577 12.1688L13.4719 12.4067C13.5299 12.8909 13.7241 13.3289 14.0117 13.6834L15.5648 12.4233ZM15.1978 14.7055C15.5457 14.2417 15.7476 13.6902 15.786 13.1205L13.7905 12.9862C13.7779 13.1729 13.7117 13.3536 13.5978 13.5055L15.1978 14.7055ZM14.3612 15.8209L15.1978 14.7055L13.5978 13.5055L12.7612 14.6209L14.3612 15.8209ZM13.2823 16.4407C13.7091 16.3912 14.1003 16.1689 14.3612 15.8209L12.7612 14.6209C12.8315 14.5272 12.9368 14.4674 13.0518 14.454L13.2823 16.4407ZM11.1804 15.2977L12.6016 16.2721L13.7326 14.6226L12.3114 13.6482L11.1804 15.2977ZM12.582 13.9244C12.1735 13.3016 11.4881 12.8647 10.6845 12.8024L10.5298 14.7964C10.6898 14.8088 10.8263 14.8942 10.9098 15.0215L12.582 13.9244ZM10.6845 12.8024L7.6935 12.5703L7.53876 14.5643L10.5298 14.7964L10.6845 12.8024ZM7.6935 12.5703C6.31692 12.4634 5.11439 13.4928 5.00757 14.8693L7.00157 15.0241C7.02294 14.7488 7.26344 14.5429 7.53876 14.5643L7.6935 12.5703ZM5.00757 14.8693C4.90074 16.2459 5.93008 17.4485 7.30665 17.5553L7.46139 15.5613C7.18607 15.5399 6.98021 15.2994 7.00157 15.0241L5.00757 14.8693ZM7.30665 17.5553L9.35911 17.7145L9.51384 15.7205L7.46139 15.5613L7.30665 17.5553ZM10.1375 15.9967C10.1193 15.9843 10.1024 15.9712 10.0866 15.9577L8.78638 17.4774C8.85615 17.5371 8.92955 17.5935 9.00644 17.6462L10.1375 15.9967ZM13.3035 18.1675L10.1375 15.9967L9.00645 17.6462L12.1725 19.817L13.3035 18.1675ZM13.4089 18.2252C13.3734 18.2103 13.3381 18.1913 13.3035 18.1675L12.1725 19.817C12.3198 19.918 12.4748 20.0022 12.6349 20.0694L13.4089 18.2252ZM14.1402 19.0842L13.888 18.6473L12.1559 19.6473L12.4081 20.0842L14.1402 19.0842ZM14.3582 19.8703L14.2519 19.3746L12.2963 19.7937L12.4026 20.2893L14.3582 19.8703ZM16.3138 21.4512C15.3707 21.4512 14.5558 20.7924 14.3582 19.8703L12.4026 20.2893C12.7978 22.1336 14.4276 23.4512 16.3138 23.4512V21.4512ZM22.8885 21.4512H16.3138V23.4512H22.8885V21.4512ZM24.8885 19.4512C24.8885 20.5558 23.9931 21.4512 22.8885 21.4512V23.4512C25.0977 23.4512 26.8885 21.6604 26.8885 19.4512H24.8885ZM24.8885 14.4745V19.4512H26.8885V14.4745H24.8885ZM24.8231 13.9657C24.8657 14.128 24.8885 14.2985 24.8885 14.4745H26.8885C26.8885 14.1252 26.8432 13.784 26.7575 13.4576L24.8231 13.9657ZM24.7903 13.7485L24.791 13.7489L26.7896 13.6744C26.773 13.2289 26.6079 12.8087 26.3328 12.4754L24.7903 13.7485ZM23.7862 12.6869C24.1684 12.8787 24.4781 13.189 24.6708 13.5666L26.4522 12.6573C26.0678 11.9043 25.4503 11.2845 24.6837 10.8995L23.7862 12.6869ZM23.2633 12.0294L23.2633 12.0295L25.2066 11.5568C25.0824 11.0461 24.756 10.5818 24.2633 10.2974L23.2633 12.0294ZM21.9083 11.2471L23.2633 12.0294L24.2633 10.2974L22.9083 9.51509L21.9083 11.2471ZM21.6658 11.0511C21.6667 11.0518 21.6669 11.0521 21.6667 11.0519L23.15 9.71035C23.0747 9.6271 22.9918 9.54955 22.9017 9.47874L21.6658 11.0511ZM19.1845 9.10074L21.6658 11.0511L22.9017 9.47873L20.4205 7.52835L19.1845 9.10074ZM19.1852 9.09986C19.1854 9.0997 19.1852 9.09991 19.1847 9.10025C19.1843 9.10056 19.1839 9.10077 19.1837 9.10088C19.1834 9.10103 19.1838 9.10079 19.1848 9.10072C19.1856 9.10065 19.1857 9.10082 19.1849 9.10057C19.1844 9.10043 19.1839 9.10025 19.1836 9.10007C19.1832 9.09988 19.1835 9.09997 19.1845 9.10074L20.4205 7.52835C19.6 6.88344 18.4336 6.98229 17.7306 7.72724L19.1852 9.09986ZM18.3655 9.40948L18.3647 9.4092L18.5511 7.4179C18.2436 7.38911 17.9252 7.43137 17.6218 7.55292L18.3655 9.40948ZM16.1097 10.3132L18.3655 9.40948L17.6218 7.55292L15.3659 8.45663L16.1097 10.3132ZM13.1876 9.06724L15.2378 10.2509L16.2378 8.51889L14.1876 7.33519L13.1876 9.06724ZM12.6199 9.11356C12.7776 8.98422 13.0035 8.96095 13.1876 9.06724L14.1876 7.33519C13.2589 6.79903 12.1315 6.92719 11.3513 7.56744L12.6199 9.11356ZM7.25068 10.6445L12.2444 9.30643L11.7268 7.37457L6.73305 8.71264L7.25068 10.6445ZM7.03987 11.0096C6.99726 10.8506 7.09164 10.6871 7.25068 10.6445L6.73305 8.71264C5.50707 9.04114 4.77952 10.3013 5.10802 11.5273L7.03987 11.0096ZM7.40501 11.2204C7.24597 11.2631 7.08249 11.1687 7.03987 11.0096L5.10802 11.5273C5.43652 12.7532 6.69667 13.4808 7.92265 13.1523L7.40501 11.2204ZM12.1357 9.95286L7.40501 11.2204L7.92265 13.1523L12.6533 11.8847L12.1357 9.95286Z" fill="white" mask="url(#path-2-outside-1_10_2)"/>
<path fill-rule="evenodd" clip-rule="evenodd" d="M16.0551 13.3213C15.3116 13.4315 14.5874 12.9688 14.3882 12.2253L14.647 13.1913C14.8463 13.9348 15.5705 14.3974 16.314 14.2873C16.313 14.2837 16.312 14.2802 16.3111 14.2766L16.0551 13.3213Z" fill="white"/>
<mask id="path-5-outside-2_10_2" maskUnits="userSpaceOnUse" x="18" y="15" width="3.93305" height="4.64016" fill="black">
<rect fill="white" x="18" y="15" width="3.93305" height="4.64016"/>
<path d="M18.3882 17.2253C18.1738 16.4251 18.6487 15.6026 19.4489 15.3882C20.2491 15.1738 21.0716 15.6487 21.286 16.4489C21.5004 17.2491 21.0255 18.0716 20.2253 18.286C19.4251 18.5004 18.6026 18.0255 18.3882 17.2253Z"/>
</mask>
<path d="M18 15.7765L20.8978 15L18 15.7765ZM21.5448 17.4148C21.7592 18.215 21.2844 19.0375 20.4842 19.2519C19.684 19.4663 18.8615 18.9915 18.647 18.1913L18.3882 17.2253C18.4597 17.4921 19.1663 17.5345 19.9665 17.3201C20.7667 17.1057 21.3575 16.7156 21.286 16.4489L21.5448 17.4148ZM18.7765 18.6742L18 15.7765L18.7765 18.6742ZM20.8978 15L21.6742 17.8978L20.8978 15Z" fill="white" mask="url(#path-5-outside-2_10_2)"/>
<path fill-rule="evenodd" clip-rule="evenodd" d="M17.1997 15.195C16.8137 15.0135 16.5073 14.6696 16.3882 14.2253L16.647 15.1913C16.8019 15.7691 17.2738 16.1773 17.8254 16.2788L17.1997 15.195Z" fill="white"/>
</svg>
