<svg width="32" height="32" viewBox="0 0 32 32" fill="none" xmlns="http://www.w3.org/2000/svg">
<rect x="3" y="3" width="26" height="26" rx="2" stroke="white" stroke-width="2"/>
<mask id="path-2-outside-1_11_172" maskUnits="userSpaceOnUse" x="6" y="8" width="20" height="15" fill="black">
<rect fill="white" x="6" y="8" width="20" height="15"/>
<path fill-rule="evenodd" clip-rule="evenodd" d="M7 14C7 12.8744 7.37194 11.8357 7.99963 11C7.44752 10.9998 7 10.5522 7 10C7 9.44772 7.44772 9 8 9C8.55216 9 8.9998 9.44752 9 9.99963C9.83566 9.37194 10.8744 9 12 9H20C21.1256 9 22.1643 9.37195 23 9.99963C23.0002 9.44752 23.4478 9 24 9C24.5523 9 25 9.44772 25 10C25 10.5522 24.5525 10.9998 24.0004 11C24.6281 11.8357 25 12.8744 25 14V17C25 18.1256 24.6281 19.1643 24.0004 20C24.5525 20.0002 25 20.4478 25 21C25 21.5523 24.5523 22 24 22C23.4478 22 23.0002 21.5525 23 21.0004C22.1643 21.6281 21.1256 22 20 22H12C10.8744 22 9.83566 21.6281 9 21.0004C8.9998 21.5525 8.55216 22 8 22C7.44772 22 7 21.5523 7 21C7 20.4478 7.44752 20.0002 7.99963 20C7.37195 19.1643 7 18.1256 7 17V14Z"/>
</mask>
<path d="M7.99963 11L8.7992 11.6006L10.0009 10.0007L7.99999 10L7.99963 11ZM9 9.99963L8 9.99999L8.00072 12.0009L9.60058 10.7992L9 9.99963ZM23 9.99963L22.3994 10.7992L23.9993 12.0009L24 9.99999L23 9.99963ZM24.0004 11L24 10L21.9991 10.0007L23.2008 11.6006L24.0004 11ZM24.0004 20L23.2008 19.3994L21.9991 20.9993L24 21L24.0004 20ZM23 21.0004L24 21L23.9993 18.9991L22.3994 20.2008L23 21.0004ZM9 21.0004L9.60058 20.2008L8.0007 18.9991L8 21L9 21.0004ZM7.99963 20L7.99999 21L10.0009 20.9993L8.7992 19.3994L7.99963 20ZM7.20007 10.3994C6.44677 11.4023 6 12.6504 6 14H8C8 13.0984 8.29712 12.269 8.7992 11.6006L7.20007 10.3994ZM6 10C6 11.1043 6.89503 11.9996 7.99928 12L7.99999 10L8 10H6ZM8 8C6.89543 8 6 8.89543 6 10H8V8ZM10 9.99928C9.9996 8.89503 9.10433 8 8 8V10L8 9.99999L10 9.99928ZM12 8C10.6504 8 9.40231 8.44677 8.39942 9.20007L9.60058 10.7992C10.269 10.2971 11.0984 10 12 10V8ZM20 8H12V10H20V8ZM23.6006 9.20007C22.5977 8.44677 21.3496 8 20 8V10C20.9016 10 21.731 10.2971 22.3994 10.7992L23.6006 9.20007ZM24 8C22.8957 8 22.0004 8.89503 22 9.99928L24 9.99999L24 10V8ZM26 10C26 8.89543 25.1046 8 24 8V10H26ZM24.0007 12C25.105 11.9996 26 11.1043 26 10H24L24 10L24.0007 12ZM26 14C26 12.6504 25.5532 11.4023 24.7999 10.3994L23.2008 11.6006C23.7029 12.269 24 13.0984 24 14H26ZM26 17V14H24V17H26ZM24.7999 20.6006C25.5532 19.5977 26 18.3496 26 17H24C24 17.9016 23.7029 18.731 23.2008 19.3994L24.7999 20.6006ZM26 21C26 19.8957 25.105 19.0004 24.0007 19L24 21L24 21H26ZM24 23C25.1046 23 26 22.1046 26 21H24V23ZM22 21.0007C22.0004 22.105 22.8957 23 24 23V21L24 21L22 21.0007ZM20 23C21.3496 23 22.5977 22.5532 23.6006 21.7999L22.3994 20.2008C21.731 20.7029 20.9016 21 20 21V23ZM12 23H20V21H12V23ZM8.39942 21.7999C9.40231 22.5532 10.6504 23 12 23V21C11.0984 21 10.269 20.7029 9.60058 20.2008L8.39942 21.7999ZM8 21L8 21V23C9.10433 23 9.99961 22.105 10 21.0007L8 21ZM8 21H6C6 22.1046 6.89543 23 8 23V21ZM8 21L7.99999 21L7.99928 19C6.89503 19.0004 6 19.8957 6 21H8ZM6 17C6 18.3496 6.44677 19.5977 7.20007 20.6006L8.7992 19.3994C8.29712 18.731 8 17.9016 8 17H6ZM6 14V17H8V14H6Z" fill="white" mask="url(#path-2-outside-1_11_172)"/>
<ellipse cx="23" cy="15" rx="1" ry="4" fill="white"/>
</svg>
