<svg width="32" height="32" viewBox="0 0 32 32" fill="none" xmlns="http://www.w3.org/2000/svg">
<rect x="3" y="3" width="26" height="26" rx="2" stroke="white" stroke-width="2"/>
<mask id="path-2-inside-1_67_94" fill="white">
<path fill-rule="evenodd" clip-rule="evenodd" d="M9.31262 11.5145C8.51946 11.8792 7.88851 12.5812 7.6449 13.4903C7.21039 15.1119 8.17273 16.7787 9.79434 17.2133C11.416 17.6478 13.0828 16.6854 13.5173 15.0638C13.7553 14.1754 13.5741 13.2733 13.0949 12.5678L11.0535 8.10967C11.0535 8.10967 10.9098 9.54144 10.4634 10.3118C10.2097 10.7497 9.73782 11.1818 9.31262 11.5145Z"/>
</mask>
<path d="M9.31262 11.5145L9.7304 12.4231L9.83674 12.3742L9.92891 12.302L9.31262 11.5145ZM13.0949 12.5678L12.1856 12.9842L12.2205 13.0604L12.2677 13.1297L13.0949 12.5678ZM11.0535 8.10967L11.9627 7.69334L10.427 4.33937L10.0585 8.00978L11.0535 8.10967ZM10.4634 10.3118L9.59817 9.81049L9.59817 9.81049L10.4634 10.3118ZM8.61083 13.7491C8.77421 13.1394 9.19591 12.6688 9.7304 12.4231L8.89484 10.606C7.84301 11.0896 7.00281 12.0229 6.67898 13.2315L8.61083 13.7491ZM10.0532 16.2473C8.96502 15.9558 8.31926 14.8373 8.61083 13.7491L6.67898 13.2315C6.10153 15.3866 7.38044 17.6017 9.53552 18.1792L10.0532 16.2473ZM12.5514 14.805C12.2598 15.8931 11.1413 16.5389 10.0532 16.2473L9.53552 18.1792C11.6906 18.7566 13.9058 17.4777 14.4832 15.3226L12.5514 14.805ZM12.2677 13.1297C12.5905 13.6051 12.711 14.209 12.5514 14.805L14.4832 15.3226C14.7996 14.1417 14.5577 12.9416 13.9221 12.0059L12.2677 13.1297ZM10.1443 8.52599L12.1856 12.9842L14.0041 12.1515L11.9627 7.69334L10.1443 8.52599ZM11.3287 10.8131C11.6386 10.2782 11.8109 9.59103 11.9061 9.11978C11.9568 8.86846 11.9919 8.64496 12.0144 8.48388C12.0257 8.40299 12.034 8.33696 12.0395 8.28999C12.0423 8.26648 12.0444 8.24768 12.0459 8.23412C12.0466 8.22733 12.0472 8.22185 12.0477 8.21774C12.0479 8.21568 12.048 8.21396 12.0482 8.2126C12.0483 8.21191 12.0483 8.21132 12.0484 8.21081C12.0484 8.21055 12.0484 8.21032 12.0484 8.21011C12.0485 8.21001 12.0485 8.20987 12.0485 8.20981C12.0485 8.20968 12.0485 8.20955 11.0535 8.10967C10.0585 8.00978 10.0585 8.00966 10.0585 8.00955C10.0585 8.00952 10.0585 8.00941 10.0585 8.00935C10.0586 8.00923 10.0586 8.00913 10.0586 8.00905C10.0586 8.00889 10.0586 8.00881 10.0586 8.00882C10.0586 8.00883 10.0586 8.00918 10.0585 8.00986C10.0583 8.01121 10.0581 8.01386 10.0576 8.01775C10.0568 8.02553 10.0554 8.03825 10.0534 8.05539C10.0493 8.08973 10.0428 8.14158 10.0337 8.20696C10.0153 8.33841 9.9866 8.52099 9.94563 8.72391C9.85734 9.16114 9.73458 9.57505 9.59817 9.81049L11.3287 10.8131ZM9.92891 12.302C10.3724 11.955 10.9739 11.4255 11.3287 10.8131L9.59817 9.81049C9.44555 10.0739 9.10327 10.4085 8.69633 10.727L9.92891 12.302Z" fill="white" mask="url(#path-2-inside-1_67_94)"/>
<circle cx="0.91193" cy="0.91193" r="0.91193" transform="matrix(-1 8.74228e-08 8.74228e-08 1 10.5311 12.1776)" fill="white"/>
<line y1="-1" x2="15.1383" y2="-1" transform="matrix(0.5 0.866025 0.866025 -0.5 18.5453 12.6906)" stroke="white" stroke-width="2"/>
<rect x="-0.183013" y="0.683013" width="5" height="9" rx="2.5" transform="matrix(-0.866025 0.5 0.5 0.866025 14.7742 3.35289)" stroke="white"/>
<rect x="-0.183013" y="0.683013" width="5.95021" height="9" rx="2.9751" transform="matrix(-0.866025 0.5 0.5 0.866025 14.7742 3.35289)" stroke="white"/>
</svg>
