<svg width="32" height="32" viewBox="0 0 32 32" fill="none" xmlns="http://www.w3.org/2000/svg">
<rect x="3" y="3" width="26" height="26" rx="2" stroke="white" stroke-width="2"/>
<rect x="3" y="3" width="26" height="26" rx="2" stroke="white" stroke-width="2"/>
<path fill-rule="evenodd" clip-rule="evenodd" d="M13 7C13 5.89543 13.8954 5 15 5H17C18.1046 5 19 5.89543 19 7V17.9996C20.2144 18.9118 21 20.3642 21 22C21 24.7614 18.7614 27 16 27C13.2386 27 11 24.7614 11 22C11 20.3642 11.7856 18.9118 13 17.9996V7ZM13.5152 22C13.5152 23.3723 14.6277 24.4848 16 24.4848C17.3723 24.4848 18.4848 23.3723 18.4848 22C18.4848 20.8967 17.7658 19.9614 16.7709 19.637C16.914 19.4641 17 19.2421 17 19V8C17 7.44772 16.5523 7 16 7C15.4477 7 15 7.44772 15 8V19C15 19.2421 15.086 19.464 15.2291 19.637C14.2342 19.9614 13.5152 20.8967 13.5152 22Z" fill="white"/>
<rect x="16" y="8" width="2" height="1" fill="white"/>
<rect x="16" y="11" width="2" height="1" fill="white"/>
<rect x="16" y="14" width="2" height="1" fill="white"/>
<rect x="16" y="17" width="2" height="1" fill="white"/>
<path d="M8.5 12L10.6651 16.5H6.33494L8.5 12Z" fill="white"/>
<path d="M23.5 18L21.3349 13.5L25.6651 13.5L23.5 18Z" fill="white"/>
<rect x="17" y="20" width="2" height="2" rx="1" fill="white"/>
</svg>
