<svg width="32" height="32" viewBox="0 0 32 32" fill="none" xmlns="http://www.w3.org/2000/svg">
<mask id="path-1-inside-1_50_450" fill="white">
<path fill-rule="evenodd" clip-rule="evenodd" d="M20.0934 11.6656C19.3568 12.277 18.8877 13.1996 18.8877 14.2317C18.8877 16.0727 20.3801 17.565 22.221 17.565C24.062 17.565 25.5544 16.0727 25.5544 14.2317C25.5544 13.2231 25.1064 12.3192 24.3986 11.7079L20.971 7.56505C20.971 7.56505 21.2252 9.12239 20.971 10.065C20.8266 10.6009 20.4494 11.1925 20.0934 11.6656Z"/>
</mask>
<path d="M20.0934 11.6656L20.7321 12.4351L20.8222 12.3603L20.8925 12.2668L20.0934 11.6656ZM24.3986 11.7079L23.6282 12.3454L23.6816 12.41L23.745 12.4648L24.3986 11.7079ZM20.971 7.56505L21.7415 6.92759L19.39 4.08538L19.9841 7.72609L20.971 7.56505ZM20.971 10.065L21.9366 10.3253L21.9366 10.3253L20.971 10.065ZM19.8877 14.2317C19.8877 13.5096 20.2146 12.8647 20.7321 12.4351L19.4547 10.8962C18.499 11.6894 17.8877 12.8896 17.8877 14.2317L19.8877 14.2317ZM22.221 16.565C20.9324 16.565 19.8877 15.5204 19.8877 14.2317L17.8877 14.2317C17.8877 16.6249 19.8278 18.565 22.221 18.565L22.221 16.565ZM24.5544 14.2317C24.5544 15.5204 23.5097 16.565 22.221 16.565L22.221 18.565C24.6143 18.565 26.5544 16.6249 26.5544 14.2317L24.5544 14.2317ZM23.745 12.4648C24.2422 12.8941 24.5544 13.5259 24.5544 14.2317L26.5544 14.2317C26.5544 12.9203 25.9706 11.7442 25.0522 10.9511L23.745 12.4648ZM20.2006 8.20251L23.6282 12.3454L25.1691 11.0705L21.7415 6.92759L20.2006 8.20251ZM21.9366 10.3253C22.1087 9.68691 22.0972 8.92353 22.0644 8.39904C22.047 8.12082 22.0209 7.8761 21.9992 7.70053C21.9883 7.61239 21.9784 7.54079 21.9711 7.49008C21.9674 7.4647 21.9643 7.44448 21.9621 7.42997C21.961 7.42271 21.96 7.41688 21.9594 7.41253C21.959 7.41035 21.9587 7.40855 21.9585 7.40713C21.9584 7.40642 21.9583 7.4058 21.9582 7.40528C21.9582 7.40502 21.9581 7.40478 21.9581 7.40457C21.9581 7.40446 21.958 7.40432 21.958 7.40427C21.958 7.40413 21.958 7.40401 20.971 7.56505C19.9841 7.72609 19.9841 7.72598 19.9841 7.72587C19.9841 7.72584 19.984 7.72573 19.984 7.72567C19.984 7.72555 19.984 7.72546 19.984 7.72539C19.984 7.72525 19.9839 7.7252 19.984 7.72524C19.984 7.72532 19.984 7.72576 19.9842 7.72656C19.9844 7.72817 19.9849 7.73119 19.9856 7.73557C19.9869 7.74433 19.9891 7.75849 19.9918 7.77754C19.9974 7.81567 20.0054 7.8731 20.0143 7.9457C20.0323 8.09158 20.054 8.29512 20.0683 8.52406C20.099 9.01391 20.0875 9.50053 20.0055 9.80477L21.9366 10.3253ZM20.8925 12.2668C21.2624 11.7751 21.7396 11.0559 21.9366 10.3253L20.0055 9.80476C19.9135 10.1459 19.6363 10.6098 19.2943 11.0644L20.8925 12.2668Z" fill="white" mask="url(#path-1-inside-1_50_450)"/>
<mask id="path-3-inside-2_50_450" fill="white">
<path fill-rule="evenodd" clip-rule="evenodd" d="M14.2056 18.8036C13.3358 19.2036 12.644 19.9733 12.3768 20.9702C11.9004 22.7485 12.9556 24.5762 14.7339 25.0527C16.5121 25.5292 18.3399 24.4739 18.8163 22.6957C19.0774 21.7215 18.8787 20.7324 18.3532 19.9588L16.1146 15.0699C16.1146 15.0699 15.957 16.64 15.4676 17.4848C15.1894 17.9649 14.6719 18.4387 14.2056 18.8036Z"/>
</mask>
<path d="M14.2056 18.8036L14.6234 19.7122L14.7297 19.6633L14.8219 19.5912L14.2056 18.8036ZM18.3532 19.9588L17.444 20.3751L17.4789 20.4513L17.526 20.5207L18.3532 19.9588ZM16.1146 15.0699L17.0239 14.6536L15.4881 11.2996L15.1196 14.9701L16.1146 15.0699ZM15.4676 17.4848L16.3329 17.9861L15.4676 17.4848ZM13.3428 21.2291C13.5297 20.5315 14.0123 19.9932 14.6234 19.7122L13.7878 17.8951C12.6594 18.414 11.7583 19.4151 11.4109 20.7114L13.3428 21.2291ZM14.9927 24.0868C13.7479 23.7533 13.0092 22.4738 13.3428 21.2291L11.4109 20.7114C10.7915 23.0231 12.1634 25.3992 14.475 26.0186L14.9927 24.0868ZM17.8504 22.4369C17.5169 23.6816 16.2374 24.4203 14.9927 24.0868L14.475 26.0186C16.7867 26.6381 19.1629 25.2662 19.7823 22.9545L17.8504 22.4369ZM17.526 20.5207C17.8951 21.0641 18.0331 21.7551 17.8504 22.4369L19.7823 22.9545C20.1217 21.6878 19.8622 20.4007 19.1804 19.3969L17.526 20.5207ZM15.2054 15.4863L17.444 20.3751L19.2624 19.5424L17.0239 14.6536L15.2054 15.4863ZM16.3329 17.9861C16.6643 17.4139 16.8508 16.6736 16.9549 16.1585C17.01 15.8852 17.0482 15.6421 17.0727 15.4669C17.085 15.379 17.094 15.3072 17.1 15.2563C17.103 15.2309 17.1053 15.2106 17.1069 15.196C17.1077 15.1887 17.1083 15.1828 17.1088 15.1784C17.109 15.1762 17.1092 15.1744 17.1093 15.173C17.1094 15.1723 17.1095 15.1716 17.1095 15.1711C17.1095 15.1708 17.1096 15.1706 17.1096 15.1704C17.1096 15.1703 17.1096 15.1701 17.1096 15.1701C17.1096 15.17 17.1096 15.1698 16.1146 15.0699C15.1196 14.9701 15.1196 14.9699 15.1197 14.9698C15.1197 14.9698 15.1197 14.9697 15.1197 14.9696C15.1197 14.9695 15.1197 14.9694 15.1197 14.9693C15.1197 14.9692 15.1197 14.9691 15.1197 14.9692C15.1197 14.9693 15.1197 14.9697 15.1196 14.9705C15.1194 14.9721 15.1191 14.9752 15.1186 14.9796C15.1177 14.9884 15.1161 15.0026 15.1138 15.0218C15.1093 15.06 15.1021 15.1176 15.092 15.19C15.0716 15.3356 15.0398 15.5378 14.9944 15.7626C14.8973 16.2437 14.7603 16.7108 14.6023 16.9834L16.3329 17.9861ZM14.8219 19.5912C15.3064 19.212 15.9536 18.6407 16.3329 17.9861L14.6023 16.9834C14.4252 17.2892 14.0373 17.6655 13.5893 18.0161L14.8219 19.5912Z" fill="white" mask="url(#path-3-inside-2_50_450)"/>
<mask id="path-5-inside-3_50_450" fill="white">
<path fill-rule="evenodd" clip-rule="evenodd" d="M10.203 7.87527C9.25935 8.03648 8.39183 8.60089 7.87577 9.49473C6.9553 11.089 7.50155 13.1277 9.09585 14.0481C10.6902 14.9686 12.7288 14.4224 13.6493 12.8281C14.1536 11.9546 14.2176 10.9478 13.9103 10.0645L13.0133 4.76289C13.0133 4.76289 12.4547 6.23864 11.7633 6.92795C11.3703 7.31977 10.7478 7.64349 10.203 7.87527Z"/>
</mask>
<path d="M10.203 7.87527L10.3714 8.86099L10.4868 8.84128L10.5945 8.79546L10.203 7.87527ZM13.9103 10.0645L12.9243 10.2313L12.9383 10.314L12.9658 10.3932L13.9103 10.0645ZM13.0133 4.76289L13.9993 4.59607L13.3839 0.958898L12.0781 4.40888L13.0133 4.76289ZM11.7633 6.92795L12.4693 7.63613L11.7633 6.92795ZM8.7418 9.99473C9.10287 9.36933 9.70839 8.97425 10.3714 8.86099L10.0346 6.88955C8.81031 7.0987 7.68079 7.83244 7.00974 8.99473L8.7418 9.99473ZM9.59585 13.1821C8.47984 12.5378 8.09746 11.1107 8.7418 9.99473L7.00974 8.99473C5.81313 11.0673 6.52325 13.7176 8.59585 14.9142L9.59585 13.1821ZM12.7832 12.3281C12.1389 13.4441 10.7119 13.8265 9.59585 13.1821L8.59585 14.9142C10.6685 16.1108 13.3187 15.4007 14.5153 13.3281L12.7832 12.3281ZM12.9658 10.3932C13.1817 11.0136 13.1361 11.7168 12.7832 12.3281L14.5153 13.3281C15.171 12.1924 15.2535 10.8819 14.8547 9.73587L12.9658 10.3932ZM12.0273 4.9297L12.9243 10.2313L14.8963 9.8977L13.9993 4.59607L12.0273 4.9297ZM12.4693 7.63613C12.9376 7.16929 13.3094 6.50247 13.5432 6.03182C13.6672 5.78216 13.767 5.55721 13.836 5.39431C13.8707 5.31254 13.8979 5.24559 13.9169 5.19798C13.9264 5.17416 13.9338 5.15512 13.9391 5.14143C13.9418 5.13458 13.9439 5.12907 13.9455 5.12496C13.9463 5.1229 13.9469 5.1212 13.9474 5.11985C13.9477 5.11918 13.9479 5.11859 13.9481 5.1181C13.9482 5.11785 13.9483 5.11763 13.9484 5.11743C13.9484 5.11733 13.9484 5.11719 13.9485 5.11714C13.9485 5.11702 13.9486 5.11689 13.0133 4.76289C12.0781 4.40888 12.0781 4.40877 12.0782 4.40867C12.0782 4.40864 12.0782 4.40854 12.0782 4.40848C12.0783 4.40837 12.0783 4.40828 12.0783 4.40822C12.0784 4.40808 12.0784 4.40803 12.0784 4.40807C12.0784 4.40815 12.0782 4.40857 12.0779 4.40933C12.0773 4.41084 12.0762 4.4137 12.0746 4.41783C12.0714 4.4261 12.0662 4.43944 12.0591 4.45731C12.0448 4.49311 12.023 4.54683 11.9944 4.61418C11.9371 4.74953 11.8541 4.9366 11.752 5.14204C11.5337 5.5816 11.2804 5.99731 11.0573 6.21977L12.4693 7.63613ZM10.5945 8.79546C11.1606 8.55461 11.9335 8.17032 12.4693 7.63613L11.0573 6.21977C10.8071 6.46923 10.335 6.73238 9.81152 6.95508L10.5945 8.79546Z" fill="white" mask="url(#path-5-inside-3_50_450)"/>
<rect x="3" y="3" width="26" height="26" rx="2" stroke="white" stroke-width="2"/>
</svg>
