<svg width="32" height="32" viewBox="0 0 32 32" fill="none" xmlns="http://www.w3.org/2000/svg">
<rect x="3" y="3" width="26" height="26" rx="2" stroke="white" stroke-width="2"/>
<path d="M14.0028 5.25928C14.0028 5.25928 14.7267 4.98314 15.0028 5.25928C15.2789 5.53542 15.0028 6.25929 15.0028 6.25929L15.4879 7.63801" stroke="white"/>
<path fill-rule="evenodd" clip-rule="evenodd" d="M16 16.5C14.8123 16.5 13 16 13 16V18H14.5L15 20H17L17.5 18H19V16C19 16 17.1877 16.5 16 16.5Z" fill="white"/>
<path fill-rule="evenodd" clip-rule="evenodd" d="M17.9255 11.3006C18.5824 10.7503 19 9.92391 19 9C19 7.34315 17.6569 6 16 6C14.3432 6 13 7.34315 13 9C13 9.92391 13.4177 10.7503 14.0745 11.3006C12.8725 11.0795 11.5976 10.7016 10.4611 10.3057C9.58799 10.0015 8.82471 9.69691 8.28009 9.46846C8.00811 9.35438 7.79151 9.25965 7.64399 9.19394C7.57025 9.16109 7.51383 9.13553 7.47645 9.11846L7.43489 9.09938L7.42523 9.09491L7.42326 9.09399L7.42304 9.09389C7.42312 9.09392 7.42321 9.09397 7.00001 10C6.5768 10.906 6.57694 10.9061 6.57709 10.9062L6.57751 10.9064L6.57871 10.9069L6.58257 10.9087L6.59605 10.915L6.64556 10.9377C6.68836 10.9572 6.7505 10.9854 6.83023 11.0209C6.98966 11.0919 7.2197 11.1925 7.50648 11.3128C8.07939 11.5531 8.88215 11.8735 9.8031 12.1943C11.3202 12.7229 13.2398 13.2823 15 13.4498V15.9335C15.349 15.9745 15.6904 16 16 16C16.3096 16 16.651 15.9745 17 15.9335V13.4498C18.7602 13.2823 20.6798 12.7229 22.1969 12.1943C23.1179 11.8735 23.9206 11.5531 24.4935 11.3128C24.7803 11.1925 25.0104 11.0919 25.1698 11.0209C25.2495 10.9854 25.3116 10.9572 25.3545 10.9377L25.404 10.915L25.4174 10.9087L25.4213 10.9069L25.4225 10.9064L25.4229 10.9062C25.4231 10.9061 25.4232 10.906 25 10C24.5768 9.09397 24.5769 9.09392 24.577 9.09389L24.5768 9.09399L24.5748 9.09491L24.5651 9.09938L24.5236 9.11846C24.4862 9.13553 24.4298 9.16109 24.356 9.19394C24.2085 9.25965 23.9919 9.35438 23.7199 9.46846C23.1753 9.69691 22.412 10.0015 21.5389 10.3057C20.4024 10.7016 19.1275 11.0795 17.9255 11.3006ZM17.8285 18.686L17.3333 20.6667H16.4667L19 27L20.857 26.2572L17.8285 18.686ZM15.5333 20.6667H14.6667L14.1715 18.6861L11.1431 26.2572L13 27L15.5333 20.6667Z" fill="white"/>
</svg>
