<svg width="32" height="32" viewBox="0 0 32 32" fill="none" xmlns="http://www.w3.org/2000/svg">
<circle cx="16" cy="16" r="13" stroke="white" stroke-width="2"/>
<path d="M11.1905 11.0962C11.1905 11.0962 12.4794 9.80782 13.2866 9.21176C14.0194 8.6706 15.3704 8.16314 15.3704 8.16314L16.1124 11.0962L11.1905 11.0962Z" fill="white"/>
<path fill-rule="evenodd" clip-rule="evenodd" d="M21.6026 11.6572H15.3144V12.1017L5.53262 18.6441H15.3144L15.489 18.6441L17.1026 18.6441C19.5879 18.6441 21.6026 16.6294 21.6026 14.1441V11.6572Z" fill="white"/>
<path fill-rule="evenodd" clip-rule="evenodd" d="M20.4247 11.7927L14.3507 13.4202L14.4657 13.8495L6.7106 22.7008L16.3277 20.1239L16.3277 20.1239L17.8863 19.7062C20.2869 19.063 21.7116 16.5955 21.0683 14.1949L20.4247 11.7927Z" fill="white"/>
<path fill-rule="evenodd" clip-rule="evenodd" d="M18.4585 6.06763C16.722 6.06763 15.3144 7.4753 15.3144 9.21176V11.6572H21.6026V9.21175C21.6026 7.4753 20.1949 6.06763 18.4585 6.06763ZM19.4267 8.91412C19.4794 8.78696 19.5065 8.65068 19.5065 8.51305H18.4585H17.4104C17.4104 8.65068 17.4375 8.78696 17.4902 8.91412C17.5429 9.04127 17.6201 9.15681 17.7174 9.25413C17.8147 9.35145 17.9303 9.42865 18.0574 9.48132C18.1846 9.53398 18.3209 9.56109 18.4585 9.56109C18.5961 9.56109 18.7324 9.53398 18.8596 9.48132C18.9867 9.42865 19.1022 9.35145 19.1996 9.25413C19.2969 9.15681 19.3741 9.04127 19.4267 8.91412Z" fill="white"/>
<line x1="19.2822" y1="19.1847" x2="20.6796" y2="23.3769" stroke="white"/>
<line x1="18.4543" y1="24.5788" x2="19.8517" y2="23.1814" stroke="white"/>
<line x1="21.062" y1="23.0607" x2="23.1581" y2="23.7594" stroke="white"/>
<line x1="20.5588" y1="23.1815" x2="21.9562" y2="24.5788" stroke="white"/>
<line x1="16.4874" y1="19.1847" x2="17.8848" y2="23.3769" stroke="white"/>
<line x1="15.6595" y1="24.5788" x2="17.0569" y2="23.1814" stroke="white"/>
<line x1="18.2672" y1="23.0607" x2="20.3633" y2="23.7594" stroke="white"/>
<line x1="17.764" y1="23.1815" x2="19.1614" y2="24.5788" stroke="white"/>
</svg>
