<svg width="32" height="32" viewBox="0 0 32 32" fill="none" xmlns="http://www.w3.org/2000/svg">
<circle cx="16" cy="16" r="13" stroke="white" stroke-width="2"/>
<path d="M13.2063 16.5407L13.3527 16.4653L13.4671 16.3469C14.4595 15.3206 15.2317 14.2187 15.8869 13.222C16.0595 12.9593 16.2213 12.7086 16.3755 12.4697C16.8259 11.7717 17.2116 11.1742 17.6141 10.6721C18.1474 10.0072 18.5771 9.68927 18.991 9.58492C19.3781 9.48732 19.966 9.52519 20.9388 10.0868C21.8708 10.6249 22.4477 11.2922 22.7861 12.0332C23.1297 12.7854 23.2544 13.674 23.1788 14.6802C23.0257 16.7175 22.0641 19.07 20.7842 21.2869C19.5616 23.4044 17.9062 24.9163 16.1236 25.6224C14.3683 26.3177 12.4303 26.2599 10.4988 25.1447C8.55373 24.0218 7.99774 22.6446 8.30573 21.3415C8.64655 19.8996 10.1211 18.1307 13.2063 16.5407Z" stroke="white" stroke-width="2"/>
<path d="M21.9637 15.7007C21.9637 15.7007 21.3257 15.0926 20.9952 14.639C20.6341 14.1436 20.229 13.2689 20.229 13.2689L23.2024 12.9826C23.2024 12.9826 22.9717 13.9184 22.7118 14.4736C22.4739 14.982 21.9637 15.7007 21.9637 15.7007Z" fill="white"/>
<path d="M18.7425 15.6571C18.7425 15.6571 18.4575 14.823 18.3738 14.268C18.2824 13.6618 18.3271 12.699 18.3271 12.699L21.0966 13.8183C21.0966 13.8183 20.4597 14.5418 19.9728 14.9143C19.527 15.2552 18.7425 15.6571 18.7425 15.6571Z" fill="white"/>
<path d="M15.8332 13.0511C15.8332 13.0511 15.9655 12.1797 16.1476 11.6487C16.3464 11.0689 16.8306 10.2354 16.8306 10.2354L18.7703 12.5071C18.7703 12.5071 17.8713 12.8547 17.2675 12.9603C16.7146 13.0569 15.8332 13.0511 15.8332 13.0511Z" fill="white"/>
<ellipse cx="20.4673" cy="11.0976" rx="3.01753" ry="2.58645" fill="white"/>
<line x1="20.4133" y1="9.25205" x2="21.2754" y2="5.80345" stroke="white"/>
</svg>
