<svg width="32" height="32" viewBox="0 0 32 32" fill="none" xmlns="http://www.w3.org/2000/svg">
<circle cx="16" cy="16" r="13" stroke="white" stroke-width="2"/>
<mask id="path-2-inside-1_348_156" fill="white">
<path fill-rule="evenodd" clip-rule="evenodd" d="M9 20C9 17.5229 10.1258 15.3087 11.8937 13.8413C12.748 12.7058 13.6533 11.286 14 10C14.6099 7.73762 14 4 14 4L22.2263 13.9429C23.925 15.4099 25 17.5794 25 20C25 24.4183 21.4183 28 17 28C12.5817 28 9 24.4183 9 20ZM22 20C22.5523 20 23 19.5523 23 19L23 18C23 17.4477 22.5523 17 22 17C21.4477 17 21 17.4477 21 18L21 19C21 19.5523 21.4477 20 22 20Z"/>
</mask>
<path d="M11.8937 13.8413L13.1711 15.3803L13.3512 15.2307L13.492 15.0437L11.8937 13.8413ZM14 10L15.9311 10.5206L15.9311 10.5206L14 10ZM14 4L15.541 2.72508L10.838 -2.95934L12.0261 4.32209L14 4ZM22.2263 13.9429L20.6853 15.2179L20.7922 15.347L20.9191 15.4566L22.2263 13.9429ZM21 18L19 18L21 18ZM21 19L23 19L21 19ZM10.6163 12.3024C8.4103 14.1335 7 16.9029 7 20L11 20C11 18.1429 11.8414 16.484 13.1711 15.3803L10.6163 12.3024ZM12.0689 9.47943C11.8272 10.376 11.1219 11.5405 10.2955 12.639L13.492 15.0437C14.3741 13.8711 15.4794 12.1959 15.9311 10.5206L12.0689 9.47943ZM14 4C12.0261 4.32209 12.0261 4.32186 12.026 4.32164C12.026 4.32158 12.026 4.32138 12.026 4.32127C12.0259 4.32106 12.0259 4.3209 12.0259 4.32079C12.0259 4.32058 12.0259 4.32059 12.0259 4.32083C12.026 4.32129 12.0262 4.32263 12.0265 4.32483C12.0272 4.32922 12.0285 4.33704 12.0302 4.34813C12.0336 4.3703 12.039 4.40551 12.0458 4.45248C12.0594 4.54651 12.0789 4.68718 12.1009 4.86452C12.1448 5.22058 12.1976 5.7173 12.2326 6.27662C12.3067 7.45918 12.2838 8.68243 12.0689 9.47943L15.9311 10.5206C16.3261 9.05518 16.3032 7.27844 16.2248 6.02659C16.1836 5.36871 16.122 4.78962 16.0707 4.37418C16.0449 4.16577 16.0216 3.99676 16.0043 3.87756C15.9956 3.81791 15.9884 3.7706 15.9832 3.73693C15.9806 3.72008 15.9785 3.70664 15.9769 3.69675C15.9761 3.69181 15.9755 3.68775 15.975 3.68461C15.9747 3.68303 15.9745 3.68169 15.9743 3.68057C15.9742 3.68001 15.9742 3.67951 15.9741 3.67907C15.974 3.67885 15.974 3.67856 15.974 3.67845C15.9739 3.67817 15.9739 3.67791 14 4ZM23.7673 12.668L15.541 2.72508L12.459 5.27492L20.6853 15.2179L23.7673 12.668ZM27 20C27 16.9739 25.6534 14.26 23.5335 12.4293L20.9191 15.4566C22.1966 16.5599 23 18.185 23 20L27 20ZM17 30C22.5228 30 27 25.5228 27 20L23 20C23 23.3137 20.3137 26 17 26L17 30ZM7 20C7 25.5228 11.4772 30 17 30L17 26C13.6863 26 11 23.3137 11 20L7 20ZM21 19C21 18.4477 21.4477 18 22 18L22 22C23.6569 22 25 20.6569 25 19L21 19ZM21 18L21 19L25 19L25 18L21 18ZM22 19C21.4477 19 21 18.5523 21 18L25 18C25 16.3431 23.6569 15 22 15L22 19ZM23 18C23 18.5523 22.5523 19 22 19L22 15C20.3431 15 19 16.3431 19 18L23 18ZM23 19L23 18L19 18L19 19L23 19ZM22 18C22.5523 18 23 18.4477 23 19L19 19C19 20.6569 20.3431 22 22 22L22 18Z" fill="white" mask="url(#path-2-inside-1_348_156)"/>
</svg>
