<svg width="32" height="32" viewBox="0 0 32 32" fill="none" xmlns="http://www.w3.org/2000/svg">
<circle cx="16" cy="16" r="13" stroke="white" stroke-width="2"/>
<mask id="path-2-inside-1_348_156" fill="white">
<path fill-rule="evenodd" clip-rule="evenodd" d="M10 20C10 17.5229 11.1258 15.3087 12.8937 13.8413C13.748 12.7058 14.6533 11.286 15 10C15.6099 7.73762 15 4 15 4L23.2263 13.9429C24.925 15.4099 26 17.5794 26 20C26 24.4183 22.4183 28 18 28C13.5817 28 10 24.4183 10 20ZM23 20C23.5523 20 24 19.5523 24 19L24 18C24 17.4477 23.5523 17 23 17C22.4477 17 22 17.4477 22 18L22 19C22 19.5523 22.4477 20 23 20Z"/>
</mask>
<path d="M12.8937 13.8413L14.1711 15.3803L14.3512 15.2307L14.492 15.0437L12.8937 13.8413ZM15 10L16.9311 10.5206L16.9311 10.5206L15 10ZM15 4L16.541 2.72508L11.838 -2.95934L13.0261 4.32209L15 4ZM23.2263 13.9429L21.6853 15.2179L21.7922 15.347L21.9191 15.4566L23.2263 13.9429ZM22 18L20 18L22 18ZM22 19L24 19L22 19ZM11.6163 12.3024C9.4103 14.1335 8 16.9029 8 20L12 20C12 18.1429 12.8414 16.484 14.1711 15.3803L11.6163 12.3024ZM13.0689 9.47943C12.8272 10.376 12.1219 11.5405 11.2955 12.639L14.492 15.0437C15.3741 13.8711 16.4794 12.1959 16.9311 10.5206L13.0689 9.47943ZM15 4C13.0261 4.32209 13.0261 4.32186 13.026 4.32164C13.026 4.32158 13.026 4.32138 13.026 4.32127C13.0259 4.32106 13.0259 4.3209 13.0259 4.32079C13.0259 4.32058 13.0259 4.32059 13.0259 4.32083C13.026 4.32129 13.0262 4.32263 13.0265 4.32483C13.0272 4.32922 13.0285 4.33704 13.0302 4.34813C13.0336 4.3703 13.039 4.40551 13.0458 4.45248C13.0594 4.54651 13.0789 4.68718 13.1009 4.86452C13.1448 5.22058 13.1976 5.7173 13.2326 6.27662C13.3067 7.45918 13.2838 8.68243 13.0689 9.47943L16.9311 10.5206C17.3261 9.05518 17.3032 7.27844 17.2248 6.02659C17.1836 5.36871 17.122 4.78962 17.0707 4.37418C17.0449 4.16577 17.0216 3.99676 17.0043 3.87756C16.9956 3.81791 16.9884 3.7706 16.9832 3.73693C16.9806 3.72008 16.9785 3.70664 16.9769 3.69675C16.9761 3.69181 16.9755 3.68775 16.975 3.68461C16.9747 3.68303 16.9745 3.68169 16.9743 3.68057C16.9742 3.68001 16.9742 3.67951 16.9741 3.67907C16.974 3.67885 16.974 3.67856 16.974 3.67845C16.9739 3.67817 16.9739 3.67791 15 4ZM24.7673 12.668L16.541 2.72508L13.459 5.27492L21.6853 15.2179L24.7673 12.668ZM28 20C28 16.9739 26.6534 14.26 24.5335 12.4293L21.9191 15.4566C23.1966 16.5599 24 18.185 24 20L28 20ZM18 30C23.5228 30 28 25.5228 28 20L24 20C24 23.3137 21.3137 26 18 26L18 30ZM8 20C8 25.5228 12.4772 30 18 30L18 26C14.6863 26 12 23.3137 12 20L8 20ZM22 19C22 18.4477 22.4477 18 23 18L23 22C24.6569 22 26 20.6569 26 19L22 19ZM22 18L22 19L26 19L26 18L22 18ZM23 19C22.4477 19 22 18.5523 22 18L26 18C26 16.3431 24.6569 15 23 15L23 19ZM24 18C24 18.5523 23.5523 19 23 19L23 15C21.3431 15 20 16.3431 20 18L24 18ZM24 19L24 18L20 18L20 19L24 19ZM23 18C23.5523 18 24 18.4477 24 19L20 19C20 20.6569 21.3431 22 23 22L23 18Z" fill="white" mask="url(#path-2-inside-1_348_156)"/>
</svg>
