<svg width="32" height="32" viewBox="0 0 32 32" fill="none" xmlns="http://www.w3.org/2000/svg">
<mask id="path-1-inside-1_36_310" fill="white">
<path fill-rule="evenodd" clip-rule="evenodd" d="M16 29C23.1797 29 29 23.1797 29 16C29 14.6626 28.798 13.3724 28.423 12.1582C28.1246 11.1921 26.4293 11.3 25.5379 11.7772L19.8662 14.8131C18.8994 15.3306 17.7078 15.1542 16.9323 14.3788C15.9219 13.3683 15.9681 11.7163 17.0336 10.764L21.8299 6.47678C22.3931 5.9733 22.6448 4.79859 21.974 4.45092C20.1853 3.52378 18.1538 3 16 3C8.8203 3 3 8.8203 3 16C3 23.1797 8.8203 29 16 29Z"/>
</mask>
<path d="M19.8662 14.8131L20.81 16.5764L20.81 16.5764L19.8662 14.8131ZM17.0336 10.764L15.7007 9.27287L17.0336 10.764ZM21.8299 6.47678L20.497 4.98565L20.497 4.98565L21.8299 6.47678ZM21.974 4.45092L21.0537 6.22657L21.974 4.45092ZM28.423 12.1582L30.3339 11.5679L28.423 12.1582ZM25.5379 11.7772L24.5941 10.0139L25.5379 11.7772ZM27 16C27 22.0751 22.0751 27 16 27V31C24.2843 31 31 24.2843 31 16H27ZM26.5121 12.7485C26.8287 13.7736 27 14.865 27 16H31C31 14.4603 30.7673 12.9711 30.3339 11.5679L26.5121 12.7485ZM24.5941 10.0139L18.9224 13.0498L20.81 16.5764L26.4817 13.5405L24.5941 10.0139ZM18.9224 13.0498C18.7326 13.1514 18.4987 13.1168 18.3466 12.9646L15.5181 15.793C16.9168 17.1916 19.0661 17.5098 20.81 16.5764L18.9224 13.0498ZM18.3466 12.9646C18.1482 12.7663 18.1573 12.442 18.3664 12.2551L15.7007 9.27287C13.7789 10.9906 13.6955 13.9704 15.5181 15.793L18.3466 12.9646ZM18.3664 12.2551L23.1627 7.96791L20.497 4.98565L15.7007 9.27287L18.3664 12.2551ZM16 5C17.826 5 19.5426 5.44336 21.0537 6.22657L22.8944 2.67527C20.828 1.60421 18.4816 1 16 1V5ZM5 16C5 9.92487 9.92487 5 16 5V1C7.71573 1 1 7.71573 1 16H5ZM16 27C9.92487 27 5 22.0751 5 16H1C1 24.2843 7.71573 31 16 31V27ZM23.1627 7.96791C23.8512 7.35253 24.2487 6.46661 24.3496 5.6509C24.4454 4.8757 24.3099 3.40895 22.8944 2.67527L21.0537 6.22657C20.7274 6.05746 20.5279 5.77968 20.4386 5.53915C20.3616 5.33151 20.3762 5.18896 20.3798 5.15994C20.3845 5.12206 20.3913 5.11078 20.3922 5.10892C20.3941 5.10497 20.4001 5.09361 20.4133 5.07556C20.4262 5.05803 20.4523 5.02556 20.497 4.98565L23.1627 7.96791ZM30.3339 11.5679C29.8023 9.84706 28.1425 9.47893 27.3218 9.43002C26.3919 9.37459 25.3758 9.59547 24.5941 10.0139L26.4817 13.5405C26.5127 13.5239 26.604 13.4848 26.7432 13.4549C26.8796 13.4256 27.0019 13.418 27.0838 13.4229C27.1795 13.4286 27.1316 13.4446 27.007 13.376C26.9366 13.3372 26.8364 13.2678 26.7376 13.1537C26.6354 13.0356 26.5575 12.8956 26.5121 12.7485L30.3339 11.5679Z" fill="white" mask="url(#path-1-inside-1_36_310)"/>
<circle cx="11.8214" cy="9.96428" r="2.32143" fill="white"/>
<circle cx="8.10713" cy="15.5357" r="2.32143" fill="white"/>
<circle cx="9.96428" cy="22.0357" r="1.82143" stroke="white"/>
<circle cx="16.4643" cy="23.8929" r="1.82143" stroke="white"/>
<circle cx="22.0357" cy="21.1071" r="2.32143" fill="white"/>
<rect x="3" y="3" width="26" height="26" rx="2" stroke="white" stroke-width="2"/>
</svg>
