<svg width="32" height="32" viewBox="0 0 32 32" fill="none" xmlns="http://www.w3.org/2000/svg">
<circle cx="16" cy="16" r="13" stroke="white" stroke-width="2"/>
<path fill-rule="evenodd" clip-rule="evenodd" d="M18.1002 20.7343C17.5945 21.4485 17.3985 22.3741 17.6427 23.2855C18.0783 24.9111 19.7492 25.8758 21.3748 25.4402C23.0004 25.0046 23.9651 23.3337 23.5295 21.7081C23.2909 20.8176 22.6815 20.1254 21.9119 19.7531L17.905 16.9058C17.905 16.9058 18.4978 18.2208 18.4965 19.1133C18.4957 19.6207 18.3026 20.2323 18.1002 20.7343Z" fill="white"/>
<path fill-rule="evenodd" clip-rule="evenodd" d="M11.0288 16.4804C10.746 17.0954 10.2018 17.5846 9.49679 17.7735C8.2394 18.1104 6.94696 17.3642 6.61004 16.1068C6.27313 14.8495 7.01932 13.557 8.27671 13.2201C8.96559 13.0355 9.66498 13.176 10.212 13.5476L13.6689 15.1305C13.6689 15.1305 12.5587 15.2419 11.9614 15.588C11.6219 15.7847 11.2868 16.1507 11.0288 16.4804Z" fill="white"/>
<path fill-rule="evenodd" clip-rule="evenodd" d="M12.4357 21.8487C12.5322 22.2532 12.4547 22.6961 12.1855 23.0547C11.7055 23.6944 10.7978 23.8237 10.1581 23.3436C9.51852 22.8636 9.38916 21.9559 9.86922 21.3163C10.1322 20.9659 10.5236 20.7686 10.9289 20.7408L13.2001 20.1952C13.2001 20.1952 12.7057 20.67 12.5482 21.0638C12.4587 21.2876 12.4355 21.5915 12.4357 21.8487Z" fill="white"/>
<path fill-rule="evenodd" clip-rule="evenodd" d="M22.0301 13.0105C22.2202 13.4237 22.5859 13.7524 23.0595 13.8793C23.9044 14.1057 24.7728 13.6043 24.9992 12.7595C25.2256 11.9146 24.7242 11.0462 23.8793 10.8198C23.4164 10.6958 22.9465 10.7902 22.5789 11.0399L20.2562 12.1035C20.2562 12.1035 21.0021 12.1783 21.4035 12.4109C21.6317 12.5431 21.8568 12.7889 22.0301 13.0105Z" fill="white"/>
<path fill-rule="evenodd" clip-rule="evenodd" d="M18.9846 9.64848C19.4111 9.80631 19.9022 9.78016 20.3268 9.53497C21.0843 9.09764 21.3439 8.12904 20.9065 7.37155C20.4692 6.61407 19.5006 6.35453 18.7431 6.79187C18.3281 7.03148 18.0625 7.43057 17.9792 7.86703L17.0888 10.2615C17.0888 10.2615 17.6693 9.78697 18.1175 9.66759C18.3723 9.59974 18.7053 9.61442 18.9846 9.64848Z" fill="white"/>
<path fill-rule="evenodd" clip-rule="evenodd" d="M13.039 11.4299C12.4041 11.6648 11.6733 11.6259 11.0412 11.261C9.91389 10.6101 9.52764 9.16859 10.1785 8.04124C10.8294 6.91389 12.2709 6.52764 13.3983 7.17851C14.0159 7.5351 14.4111 8.129 14.5352 8.77855L15.8603 12.3422C15.8603 12.3422 14.9965 11.636 14.3294 11.4584C13.9502 11.3574 13.4545 11.3792 13.039 11.4299Z" fill="white"/>
<path d="M14.2578 12.0228C14.2578 11.2804 15.0703 10.824 15.7042 11.2104L16.8616 11.9157C16.9533 11.9715 17.0533 12.0123 17.158 12.0363L19.2865 12.5255C19.8256 12.6494 20.1616 13.1874 20.0366 13.7262L19.6838 15.2467C19.6452 15.4128 19.6498 15.586 19.6971 15.7499L20.6783 19.1513C20.9436 20.0712 19.8891 20.8022 19.1208 20.231L18.0986 19.471C17.7741 19.2297 17.3362 19.2076 16.989 19.4151L14.9686 20.6224C14.3119 21.0148 13.4757 20.5545 13.456 19.7897L13.4504 19.5743C13.4423 19.2585 13.2854 18.965 13.0272 18.7829L11.2495 17.5287C10.8255 17.2296 10.7007 16.6559 10.9622 16.2077L11.2555 15.7048C11.3341 15.5701 11.3801 15.4189 11.3898 15.2633L11.4553 14.2147C11.482 13.7873 11.7778 13.4244 12.191 13.3121L13.5561 12.9408C13.9703 12.8282 14.2578 12.4521 14.2578 12.0228Z" fill="white"/>
</svg>
