<svg width="32" height="32" viewBox="0 0 32 32" fill="none" xmlns="http://www.w3.org/2000/svg">
<circle cx="16" cy="16" r="13" stroke="white" stroke-width="2"/>
<mask id="path-2-inside-1_36_304" fill="white">
<path fill-rule="evenodd" clip-rule="evenodd" d="M15.7521 10.0554C13.5819 10.2688 11.5429 11.4902 10.3694 13.5228C8.43637 16.8709 9.5835 21.152 12.9315 23.085C16.2796 25.018 20.5607 23.8709 22.4937 20.5228C23.64 18.5374 23.7031 16.2239 22.8665 14.2665L21.0982 4.89848C21.0982 4.89848 20.2427 7.20185 19.1537 8.26636C18.2936 9.10722 16.7203 9.72979 15.7521 10.0554Z"/>
</mask>
<path d="M15.7521 10.0554L15.9479 12.0457L16.1741 12.0235L16.3896 11.951L15.7521 10.0554ZM22.8665 14.2665L20.9012 14.6375L20.9416 14.8519L21.0274 15.0526L22.8665 14.2665ZM21.0982 4.89848L23.0635 4.52752L21.7288 -2.54359L19.2233 4.20214L21.0982 4.89848ZM19.1537 8.26636L17.7557 6.83618L17.7557 6.83618L19.1537 8.26636ZM12.1014 14.5228C12.9389 13.0723 14.3919 12.1988 15.9479 12.0457L15.5563 8.06496C12.7719 8.33884 10.1469 9.90813 8.63732 12.5228L12.1014 14.5228ZM13.9315 21.3529C11.5401 19.9722 10.7207 16.9143 12.1014 14.5228L8.63732 12.5228C6.15204 16.8275 7.62691 22.3318 11.9315 24.817L13.9315 21.3529ZM20.7616 19.5228C19.3809 21.9143 16.323 22.7337 13.9315 21.3529L11.9315 24.817C16.2362 27.3023 21.7405 25.8275 24.2258 21.5228L20.7616 19.5228ZM21.0274 15.0526C21.6272 16.4559 21.5798 18.1058 20.7616 19.5228L24.2258 21.5228C25.7002 18.969 25.779 15.9919 24.7055 13.4805L21.0274 15.0526ZM19.1329 5.26945L20.9012 14.6375L24.8318 13.8956L23.0635 4.52752L19.1329 5.26945ZM20.5518 9.69653C21.3531 8.91327 21.9615 7.81021 22.3277 7.06862C22.5254 6.66818 22.6836 6.30758 22.7928 6.04636C22.8477 5.91508 22.8909 5.80718 22.9212 5.72983C22.9364 5.69112 22.9484 5.65993 22.9571 5.63716C22.9614 5.62577 22.9649 5.61648 22.9676 5.60939C22.9689 5.60585 22.9701 5.60285 22.971 5.60042C22.9714 5.5992 22.9718 5.59813 22.9722 5.5972C22.9723 5.59673 22.9725 5.5963 22.9727 5.5959C22.9727 5.59571 22.9728 5.59544 22.9729 5.59534C22.973 5.59508 22.9731 5.59483 21.0982 4.89848C19.2233 4.20214 19.2234 4.2019 19.2235 4.20168C19.2235 4.20162 19.2236 4.2014 19.2236 4.20127C19.2237 4.20102 19.2238 4.2008 19.2239 4.20061C19.224 4.20024 19.2241 4.2 19.2242 4.19989C19.2242 4.19968 19.2241 4.20001 19.2238 4.20085C19.2232 4.20255 19.2217 4.20632 19.2196 4.21206C19.2152 4.22355 19.2077 4.24289 19.1974 4.26924C19.1767 4.32202 19.1446 4.40238 19.1022 4.50368C19.017 4.70761 18.8933 4.98938 18.741 5.29784C18.4071 5.97406 18.0434 6.55494 17.7557 6.83618L20.5518 9.69653ZM16.3896 11.951C16.9211 11.7723 17.6419 11.5047 18.3658 11.1538C19.0637 10.8155 19.8957 10.338 20.5518 9.69653L17.7557 6.83618C17.5517 7.03562 17.1669 7.28981 16.621 7.55439C16.1012 7.80636 15.5514 8.01282 15.1147 8.15966L16.3896 11.951Z" fill="white" mask="url(#path-2-inside-1_36_304)"/>
<path d="M16.9481 16.904C16.9481 16.904 15.2494 20.2948 13.8508 22.2686C12.7764 23.7848 10.83 25.9451 10.83 25.9451" stroke="white"/>
<path d="M19.9873 18.9738C19.9873 18.9738 18.7066 19.337 17.9211 19.2029C17.3177 19.0999 16.4174 18.6029 16.4174 18.6029" stroke="white"/>
<path d="M13.3111 16.5684C13.3111 16.5684 13.637 17.859 14.1459 18.4723C14.5368 18.9433 15.4173 19.4745 15.4173 19.4745" stroke="white"/>
</svg>
