<svg width="32" height="32" viewBox="0 0 32 32" fill="none" xmlns="http://www.w3.org/2000/svg">
<circle cx="16" cy="16" r="13" stroke="white" stroke-width="2"/>
<path d="M6.35609 10.514L10.3742 10.514L8.36516 13.9938L6.35609 10.514Z" fill="white"/>
<path d="M25.8401 10.514L21.8219 10.514L23.831 13.9938L25.8401 10.514Z" fill="white"/>
<path fill-rule="evenodd" clip-rule="evenodd" d="M25.3776 18.2469L21.1245 10.9006H11.0717L6.81857 18.2469H9.74348L8.36516 20.9534H12.9405L14.0037 25.5932H18.1924L19.2557 20.9534H23.831L22.4527 18.2469H25.3776ZM20.3512 17.087C20.9918 17.087 21.5111 16.5676 21.5111 15.927C21.5111 15.2864 20.9918 14.7671 20.3512 14.7671C19.7106 14.7671 19.1912 15.2864 19.1912 15.927C19.1912 16.5676 19.7106 17.087 20.3512 17.087ZM13.7782 15.927C13.7782 16.5676 13.2589 17.087 12.6183 17.087C11.9776 17.087 11.4583 16.5676 11.4583 15.927C11.4583 15.2864 11.9776 14.7671 12.6183 14.7671C13.2589 14.7671 13.7782 15.2864 13.7782 15.927ZM17.4375 20.9534L16.0981 23.2733L14.7587 20.9534H17.4375Z" fill="white"/>
</svg>
