<svg width="32" height="32" viewBox="0 0 32 32" fill="none" xmlns="http://www.w3.org/2000/svg">
<circle cx="16" cy="16" r="13" stroke="white" stroke-width="2"/>
<path d="M13.1604 12.8276C13.1604 11.1517 14.519 9.79309 16.1949 9.79309H19.0224C21.2316 9.79309 23.0224 11.584 23.0224 13.7931V15.8621H16.1949C14.519 15.8621 13.1604 14.5035 13.1604 12.8276Z" fill="white"/>
<path d="M13.1604 14.3448C13.1604 16.4397 14.8586 18.1379 16.9535 18.1379H17.5052C19.7143 18.1379 21.5052 16.3471 21.5052 14.1379V10.5517H16.9535C14.8586 10.5517 13.1604 12.25 13.1604 14.3448Z" fill="white"/>
<path fill-rule="evenodd" clip-rule="evenodd" d="M8.43934 8.22297C7.85355 8.80876 7.85355 9.75851 8.43934 10.3443L8.98796 10.8929L11.9383 7.94257C12.3827 7.49818 12.3827 6.77768 11.9383 6.33329C11.4939 5.8889 10.7734 5.8889 10.329 6.33329L8.43934 8.22297ZM10.8194 7.07287C11.0289 7.07287 11.1987 6.90305 11.1987 6.69356C11.1987 6.48408 11.0289 6.31425 10.8194 6.31425C10.6099 6.31425 10.4401 6.48408 10.4401 6.69356C10.4401 6.90305 10.6099 7.07287 10.8194 7.07287Z" fill="white"/>
<path d="M11.3903 7.15184C12.0693 7.2788 13.235 7.51537 13.3975 8.5149C13.5599 9.51444 9.09731 13.4023 10.7135 15.7474C11.282 16.5723 13.6036 15.7156 13.6036 15.7156" stroke="white" stroke-width="2"/>
<line x1="18.0917" y1="17.0539" x2="22.6434" y2="22.3643" stroke="white"/>
<line x1="22.2526" y1="22.2846" x2="17.307" y2="27.2302" stroke="white"/>
<line x1="15.8159" y1="17.0539" x2="20.3676" y2="22.3643" stroke="white"/>
<line x1="19.9768" y1="22.2846" x2="15.0312" y2="27.2302" stroke="white"/>
<line x1="12.4017" y1="27" x2="19.2293" y2="27" stroke="white" stroke-width="2"/>
</svg>
