<svg width="32" height="32" viewBox="0 0 32 32" fill="none" xmlns="http://www.w3.org/2000/svg">
<circle cx="16" cy="16" r="13" stroke="white" stroke-width="2"/>
<path d="M25 15.8514C25 20.8219 20.9706 24.8514 16 24.8514C11.0294 24.8514 7 20.8219 7 15.8514C7 13.3934 7.98058 11.6056 9.5389 10.4061C11.1282 9.1827 13.3939 8.51804 16 8.51804C18.6061 8.51804 20.8718 9.1827 22.4611 10.4061C24.0194 11.6056 25 13.3934 25 15.8514Z" stroke="white" stroke-width="2"/>
<path d="M15.0025 4.89343L16.5189 6.96189L20.7897 6.57795L17.456 8.24027L18.9724 10.3087L15.3957 9.26764L12.0621 10.93L13.1852 8.62421L9.60857 7.58312L13.8794 7.19918L15.0025 4.89343Z" fill="white"/>
</svg>
