<svg width="32" height="32" viewBox="0 0 32 32" fill="none" xmlns="http://www.w3.org/2000/svg">
<circle cx="16" cy="16" r="13" stroke="white" stroke-width="2"/>
<path d="M23.591 19.9847C23.7007 20.2391 23.7719 20.7812 23.4214 21.9443C19.0968 23.0326 14.621 20.5701 13.2647 16.2613C11.884 11.8749 14.2493 7.20504 18.5622 5.70245C19.4467 5.92158 19.4942 6.18044 19.4994 6.20864C19.4995 6.20948 19.4997 6.21011 19.4998 6.21054C19.5194 6.29384 19.5255 6.45891 19.4488 6.76308C19.3729 7.06389 19.2379 7.41945 19.0529 7.85819C18.9844 8.02072 18.9089 8.19328 18.8293 8.37512C18.103 10.0345 17.0381 12.4673 17.8684 15.1051C18.7151 17.7947 20.7322 18.5547 22.0692 19.0584C22.2401 19.1227 22.3998 19.1829 22.5446 19.2424C23.2369 19.5269 23.4819 19.7317 23.591 19.9847Z" stroke="white" stroke-width="2"/>
<line x1="23.8192" y1="21.8944" x2="25.221" y2="25.2989" stroke="white" stroke-width="2"/>
<path d="M17.636 14.0892L13.0283 15.3323C12.2265 11.2333 14.5528 7.0993 18.5622 5.70245C19.4467 5.92158 19.4942 6.18044 19.4994 6.20864C19.4995 6.20948 19.4997 6.21011 19.4998 6.21054C19.5194 6.29384 19.5255 6.45891 19.4488 6.76308C19.3729 7.06389 19.2379 7.41946 19.0529 7.85819C18.9844 8.02071 18.9089 8.19327 18.8293 8.37512C18.1973 9.81901 17.3089 11.8485 17.636 14.0892Z" fill="white" stroke="white" stroke-width="2"/>
<path d="M13.9204 14.7545C13.9204 14.7545 10.3643 12.9066 8.3955 13.6786C5.68689 14.7407 5.83255 20.8204 5.83255 20.8204" stroke="white" stroke-width="3"/>
<path d="M26.1665 17.4661C26.1665 17.4661 25.4295 13.8506 23.6943 12.8523C21.3071 11.4788 16.8984 14.9827 16.8984 14.9827" stroke="white" stroke-width="3"/>
</svg>
