<svg width="16" height="32" viewBox="0 0 16 32" fill="none" xmlns="http://www.w3.org/2000/svg">
<mask id="path-1-outside-1_327_295" maskUnits="userSpaceOnUse" x="1" y="5" width="14" height="22" fill="black">
<rect fill="white" x="1" y="5" width="14" height="22"/>
<path fill-rule="evenodd" clip-rule="evenodd" d="M8 16L3 22V25H13V22L8 16ZM8 16L13 10V7H3V10L8 16Z"/>
</mask>
<path d="M3 22H1V21.2759L1.46356 20.7196L3 22ZM3 25V27H1V25H3ZM13 25H15V27H13V25ZM13 22L14.5364 20.7196L15 21.2759V22H13ZM13 10H15V10.7241L14.5364 11.2804L13 10ZM13 7V5H15V7H13ZM3 7H1V5H3V7ZM3 10L1.46356 11.2804L1 10.7241V10H3ZM1.46356 20.7196L6.46356 14.7196L9.53644 17.2804L4.53644 23.2804L1.46356 20.7196ZM1 25V22H5V25H1ZM13 27H3V23H13V27ZM15 22V25H11V22H15ZM9.53644 14.7196L14.5364 20.7196L11.4636 23.2804L6.46356 17.2804L9.53644 14.7196ZM6.46356 14.7196L11.4636 8.71963L14.5364 11.2804L9.53644 17.2804L6.46356 14.7196ZM11 10V7H15V10H11ZM13 9H3V5H13V9ZM5 7V10H1V7H5ZM4.53644 8.71963L9.53644 14.7196L6.46356 17.2804L1.46356 11.2804L4.53644 8.71963Z" fill="white" mask="url(#path-1-outside-1_327_295)"/>
<path d="M8 13L11.4641 8.5H4.5359L8 13Z" fill="white"/>
</svg>
