<svg width="16" height="32" viewBox="0 0 16 32" fill="none" xmlns="http://www.w3.org/2000/svg">
<mask id="path-1-outside-1_143_59" maskUnits="userSpaceOnUse" x="1" y="5" width="14" height="22" fill="black">
<rect fill="white" x="1" y="5" width="14" height="22"/>
<path fill-rule="evenodd" clip-rule="evenodd" d="M8 16L3 10V7H13V10L8 16ZM8 16L13 22V25H3V22L8 16Z"/>
</mask>
<path d="M3 10H1V10.7241L1.46356 11.2804L3 10ZM3 7V5H1V7H3ZM13 7H15V5H13V7ZM13 10L14.5364 11.2804L15 10.7241V10H13ZM13 22H15V21.2759L14.5364 20.7196L13 22ZM13 25V27H15V25H13ZM3 25H1V27H3V25ZM3 22L1.46356 20.7196L1 21.2759V22H3ZM1.46356 11.2804L6.46356 17.2804L9.53644 14.7196L4.53644 8.71963L1.46356 11.2804ZM1 7V10H5V7H1ZM13 5H3V9H13V5ZM15 10V7H11V10H15ZM9.53644 17.2804L14.5364 11.2804L11.4636 8.71963L6.46356 14.7196L9.53644 17.2804ZM6.46356 17.2804L11.4636 23.2804L14.5364 20.7196L9.53644 14.7196L6.46356 17.2804ZM11 22V25H15V22H11ZM13 23H3V27H13V23ZM5 25V22H1V25H5ZM4.53644 23.2804L9.53644 17.2804L6.46356 14.7196L1.46356 20.7196L4.53644 23.2804Z" fill="white" mask="url(#path-1-outside-1_143_59)"/>
</svg>
