<svg width="32" height="32" viewBox="0 0 32 32" fill="none" xmlns="http://www.w3.org/2000/svg">
<circle cx="13.5" cy="14.5" r="1.5" fill="white"/>
<circle cx="13.5" cy="17.5" r="1.5" fill="white"/>
<circle cx="16.5" cy="15.5" r="1.5" fill="white"/>
<circle cx="16.5" cy="18.5" r="1.5" fill="white"/>
<circle cx="16.5" cy="12.5" r="1.5" fill="white"/>
<circle cx="19.5" cy="14.5" r="1.5" fill="white"/>
<circle cx="19.5" cy="17.5" r="1.5" fill="white"/>
<circle cx="19.5" cy="6.5" r="1.5" fill="white"/>
<circle cx="20.049" cy="21.049" r="1.5" transform="rotate(60 20.049 21.049)" fill="white"/>
<circle cx="6.04905" cy="12.049" r="1.5" transform="rotate(60 6.04905 12.049)" fill="white"/>
<path d="M22.5 16C22.5 19.2471 21.786 22.162 20.6565 24.2471C19.5164 26.352 18.0244 27.5 16.5 27.5C14.9756 27.5 13.4836 26.352 12.3435 24.2471C11.214 22.162 10.5 19.2471 10.5 16C10.5 12.7529 11.214 9.83803 12.3435 7.75286C13.4836 5.648 14.9756 4.5 16.5 4.5C18.0244 4.5 19.5164 5.648 20.6565 7.75286C21.786 9.83803 22.5 12.7529 22.5 16Z" stroke="white"/>
<path d="M19.5 10.8038C22.312 12.4274 24.4794 14.5032 25.7205 16.5239C26.9733 18.5637 27.2215 20.4298 26.4593 21.75C25.6971 23.0702 23.9569 23.7883 21.564 23.7232C19.1934 23.6588 16.312 22.8197 13.5 21.1962C10.688 19.5726 8.52057 17.4968 7.27949 15.4761C6.0267 13.4363 5.77852 11.5702 6.54071 10.25C7.3029 8.92985 9.04311 8.21171 11.436 8.27675C13.8066 8.34119 16.688 9.18031 19.5 10.8038Z" stroke="white"/>
<path d="M19.5 21.1962C16.6879 22.8197 13.8066 23.6588 11.436 23.7232C9.04311 23.7883 7.3029 23.0702 6.54071 21.75C5.77851 20.4298 6.02669 18.5637 7.27949 16.5239C8.52057 14.5032 10.688 12.4274 13.5 10.8038C16.312 9.18031 19.1934 8.34119 21.564 8.27675C23.9569 8.21171 25.6971 8.92985 26.4593 10.25C27.2215 11.5702 26.9733 13.4363 25.7205 15.4761C24.4794 17.4968 22.312 19.5726 19.5 21.1962Z" stroke="white"/>
</svg>
