<svg width="32" height="32" viewBox="0 0 32 32" fill="none" xmlns="http://www.w3.org/2000/svg">
<rect x="3" y="3" width="26" height="26" rx="2" stroke="white" stroke-width="2"/>
<path fill-rule="evenodd" clip-rule="evenodd" d="M8 20C8 17.5229 9.12583 15.3087 10.8937 13.8413C11.748 12.7058 12.6533 11.286 13 10C13.6099 7.73762 13 4 13 4L21.2263 13.9429C22.925 15.4099 24 17.5794 24 20C24 24.4183 20.4183 28 16 28C11.5817 28 8 24.4183 8 20ZM21 20C21.5523 20 22 19.5523 22 19L22 18C22 17.4477 21.5523 17 21 17C20.4477 17 20 17.4477 20 18L20 19C20 19.5523 20.4477 20 21 20Z" fill="white"/>
</svg>
