<svg width="32" height="32" viewBox="0 0 32 32" fill="none" xmlns="http://www.w3.org/2000/svg">
<rect x="3" y="3" width="26" height="26" rx="2" stroke="white" stroke-width="2"/>
<path fill-rule="evenodd" clip-rule="evenodd" d="M7 21C7 19.297 7.77401 17.7748 8.98943 16.7659C9.57673 15.9852 10.1992 15.0091 10.4375 14.125C10.8568 12.5696 10.4375 10 10.4375 10L16.0931 16.8358C17.2609 17.8443 18 19.3359 18 21C18 24.0376 15.5376 26.5 12.5 26.5C9.46243 26.5 7 24.0376 7 21ZM15.9375 21C16.3172 21 16.625 20.6922 16.625 20.3125L16.625 19.625C16.625 19.2453 16.3172 18.9375 15.9375 18.9375C15.5578 18.9375 15.25 19.2453 15.25 19.625L15.25 20.3125C15.25 20.6922 15.5578 21 15.9375 21Z" fill="white"/>
<path fill-rule="evenodd" clip-rule="evenodd" d="M19.75 10.6651C22.1415 12.0458 24.6398 12.1957 25.3301 11C26.0205 9.80427 24.6415 7.71565 22.25 6.33494C19.8585 4.95423 17.3602 4.80427 16.6699 6C15.9795 7.19573 17.3585 9.28435 19.75 10.6651ZM24.4944 9.87302C24.4359 9.68054 24.2673 9.54797 24.0757 9.48653L22.8751 9.10143C22.7468 9.06027 22.6012 9.16984 22.4636 9.2734C22.3927 9.32674 22.324 9.37849 22.2608 9.40723C22.0888 9.48543 21.7911 9.46484 21.433 9.35C21.075 9.23516 20.686 9.03547 20.3516 8.79486C20.1391 8.64198 19.9598 8.48054 19.8278 8.32531C19.6975 8.17205 19.5423 8.03243 19.3507 7.97098C18.7117 7.76604 18.2884 8.34856 18.7991 8.78383C18.9785 8.93672 19.1725 9.08855 19.379 9.23714C20.2149 9.83867 21.1874 10.3379 22.0825 10.625C22.9776 10.9121 23.722 10.9636 24.152 10.7681C24.5045 10.6078 24.6219 10.2922 24.4944 9.87302Z" fill="white"/>
<path fill-rule="evenodd" clip-rule="evenodd" d="M23.5969 17.3042C25.9072 16.6851 27.5292 15.2468 27.2197 14.0916C26.9102 12.9364 24.7863 12.5018 22.476 13.1209C20.1656 13.74 18.5436 15.1783 18.8532 16.3334C19.1627 17.4886 21.2865 17.9232 23.5969 17.3042ZM24.8142 15.9434C25.3391 15.6937 25.1155 15.1114 24.5349 15.1397C24.3609 15.1481 24.1997 15.2302 24.0563 15.3292C23.9111 15.4294 23.7249 15.5243 23.5128 15.6046C23.1791 15.7309 22.8089 15.8108 22.4836 15.8266C22.1583 15.8424 21.9046 15.7929 21.7782 15.6889C21.7318 15.6507 21.6859 15.592 21.6385 15.5315C21.5466 15.414 21.4494 15.2897 21.3328 15.2954L20.242 15.3484C20.068 15.3569 19.8971 15.43 19.805 15.5779C19.6044 15.9 19.6319 16.1904 19.8909 16.4035C20.2068 16.6635 20.8411 16.7873 21.6544 16.7477C22.4676 16.7082 23.3932 16.5085 24.2274 16.1927C24.4335 16.1146 24.6298 16.0311 24.8142 15.9434Z" fill="white"/>
</svg>
