<svg width="32" height="32" viewBox="0 0 32 32" fill="none" xmlns="http://www.w3.org/2000/svg">
<rect x="3" y="3" width="26" height="26" rx="2" stroke="white" stroke-width="2"/>
<path d="M25.3724 22.4985C25.1174 22.9402 24.7713 23.1666 24.2684 23.2512C23.7113 23.3449 22.9433 23.2622 21.9395 22.9589C19.9313 22.3521 17.3813 20.9936 14.5 19.3301C11.6187 17.6666 9.16721 16.1375 7.63768 14.7017C6.87307 13.984 6.41744 13.3603 6.22007 12.831C6.04192 12.3532 6.06488 11.9402 6.31988 11.4985C6.60521 11.0043 7.18363 10.4786 8.07216 10.0264C8.94914 9.58002 10.0651 9.23855 11.3254 9.07397C13.8493 8.74436 16.8451 9.13707 19.5 10.6699C22.1549 12.2027 23.9929 14.6007 24.9694 16.9513C25.457 18.1251 25.7193 19.2623 25.7712 20.2449C25.8238 21.2405 25.6578 22.0043 25.3724 22.4985Z" stroke="white" stroke-width="2"/>
<path d="M15.9227 16.54C15.7995 17.0783 16.136 17.6147 16.6743 17.7379C17.2127 17.8611 17.749 17.5246 17.8723 16.9863L15.9227 16.54ZM17.3825 13.3683L16.3825 13.3576L17.3825 13.3683ZM16.8975 9.69205C15.9218 9.91121 15.9218 9.91115 15.9218 9.9111C15.9218 9.91109 15.9218 9.91105 15.9218 9.91104C15.9218 9.91101 15.9218 9.91102 15.9218 9.91106C15.9218 9.91115 15.9218 9.91136 15.9219 9.91171C15.9221 9.91241 15.9223 9.91364 15.9227 9.91538C15.9235 9.91887 15.9247 9.92442 15.9264 9.93195C15.9297 9.94701 15.9347 9.96995 15.9411 10.0001C15.954 10.0603 15.9727 10.149 15.9952 10.2605C16.0402 10.4837 16.1001 10.7962 16.1594 11.1518C16.2809 11.8795 16.3893 12.7262 16.3825 13.3576L18.3824 13.379C18.3912 12.5623 18.2571 11.571 18.1322 10.8225C18.0683 10.4401 18.0041 10.105 17.9557 9.8652C17.9315 9.74512 17.9112 9.64848 17.8968 9.5812C17.8896 9.54754 17.8838 9.5212 17.8798 9.50292C17.8778 9.49377 17.8762 9.48663 17.8751 9.4816C17.8746 9.47908 17.8741 9.47709 17.8738 9.47564C17.8736 9.47491 17.8735 9.47432 17.8734 9.47386C17.8733 9.47363 17.8733 9.47344 17.8733 9.47328C17.8733 9.47319 17.8732 9.4731 17.8732 9.47306C17.8732 9.47297 17.8732 9.4729 16.8975 9.69205ZM16.3825 13.3576C16.3762 13.9415 16.2674 14.7235 16.1496 15.3952C16.0921 15.7234 16.0349 16.0118 15.9921 16.2178C15.9708 16.3206 15.9531 16.4025 15.9409 16.458C15.9349 16.4858 15.9301 16.507 15.927 16.5209C15.9255 16.5278 15.9243 16.5329 15.9236 16.5361C15.9232 16.5377 15.923 16.5389 15.9228 16.5395C15.9227 16.5398 15.9227 16.54 15.9227 16.5401C15.9227 16.5402 15.9227 16.5402 15.9227 16.5401C15.9227 16.5401 15.9227 16.5401 15.9227 16.5401C15.9227 16.54 15.9227 16.54 16.8975 16.7631C17.8723 16.9863 17.8723 16.9862 17.8723 16.9861C17.8723 16.9861 17.8723 16.986 17.8724 16.9859C17.8724 16.9858 17.8724 16.9856 17.8725 16.9854C17.8726 16.985 17.8727 16.9844 17.8729 16.9837C17.8732 16.9824 17.8736 16.9806 17.8741 16.9782C17.8752 16.9736 17.8766 16.967 17.8785 16.9586C17.8823 16.9417 17.8877 16.9174 17.8945 16.8863C17.9082 16.8242 17.9274 16.735 17.9504 16.6242C17.9963 16.4029 18.0577 16.0937 18.1196 15.7406C18.2407 15.0496 18.3743 14.1342 18.3824 13.379L16.3825 13.3576Z" fill="white"/>
<path d="M20.1359 18.7279C20.0127 19.2663 20.3492 19.8026 20.8876 19.9259C21.4259 20.0491 21.9623 19.7126 22.0855 19.1742L20.1359 18.7279ZM21.5957 15.5563L20.5957 15.5455L21.5957 15.5563ZM21.1107 11.88C20.135 12.0992 20.135 12.0991 20.135 12.0991C20.135 12.0991 20.135 12.099 20.135 12.099C20.135 12.099 20.135 12.099 20.135 12.099C20.135 12.0991 20.1351 12.0993 20.1351 12.0997C20.1353 12.1004 20.1356 12.1016 20.136 12.1033C20.1367 12.1068 20.138 12.1124 20.1396 12.1199C20.1429 12.135 20.1479 12.1579 20.1544 12.188C20.1673 12.2483 20.1859 12.337 20.2084 12.4484C20.2534 12.6717 20.3133 12.9842 20.3727 13.3398C20.4941 14.0675 20.6025 14.9142 20.5957 15.5455L22.5956 15.567C22.6044 14.7503 22.4703 13.7589 22.3454 13.0105C22.2816 12.628 22.2173 12.293 22.169 12.0532C22.1447 11.9331 22.1244 11.8364 22.11 11.7692C22.1028 11.7355 22.0971 11.7092 22.0931 11.6909C22.0911 11.6817 22.0895 11.6746 22.0884 11.6696C22.0878 11.667 22.0873 11.6651 22.087 11.6636C22.0869 11.6629 22.0867 11.6623 22.0866 11.6618C22.0866 11.6616 22.0865 11.6614 22.0865 11.6612C22.0865 11.6612 22.0865 11.6611 22.0864 11.661C22.0864 11.6609 22.0864 11.6609 21.1107 11.88ZM20.5957 15.5455C20.5895 16.1295 20.4806 16.9115 20.3628 17.5832C20.3053 17.9114 20.2481 18.1998 20.2053 18.4057C20.184 18.5086 20.1663 18.5904 20.1542 18.646C20.1481 18.6738 20.1434 18.6949 20.1403 18.7088C20.1387 18.7158 20.1375 18.7209 20.1368 18.7241C20.1364 18.7257 20.1362 18.7268 20.136 18.7275C20.136 18.7278 20.1359 18.728 20.1359 18.7281C20.1359 18.7281 20.1359 18.7281 20.1359 18.7281C20.1359 18.7281 20.1359 18.728 20.1359 18.728C20.1359 18.728 20.1359 18.7279 21.1107 18.9511C22.0855 19.1742 22.0855 19.1742 22.0855 19.1741C22.0855 19.174 22.0856 19.174 22.0856 19.1739C22.0856 19.1737 22.0857 19.1736 22.0857 19.1733C22.0858 19.1729 22.0859 19.1724 22.0861 19.1717C22.0864 19.1704 22.0868 19.1685 22.0873 19.1662C22.0884 19.1615 22.0899 19.155 22.0918 19.1465C22.0956 19.1296 22.101 19.1053 22.1078 19.0743C22.1214 19.0122 22.1406 18.923 22.1636 18.8122C22.2095 18.5909 22.2709 18.2816 22.3328 17.9285C22.4539 17.2376 22.5875 16.3222 22.5956 15.567L20.5957 15.5455Z" fill="white"/>
<path d="M11.3543 13.9962C11.3251 14.5477 11.7485 15.0184 12.3 15.0476C12.8515 15.0768 13.3223 14.6534 13.3515 14.1019L11.3543 13.9962ZM12.4354 11.4223L11.4355 11.4115L12.4354 11.4223ZM12.0048 8.65192C11.0573 8.97161 11.0572 8.97146 11.0572 8.97131C11.0572 8.97126 11.0571 8.97112 11.0571 8.97104C11.057 8.97086 11.057 8.97071 11.0569 8.97058C11.0569 8.97031 11.0568 8.97013 11.0568 8.97002C11.0567 8.9698 11.0567 8.96989 11.0568 8.97029C11.0571 8.97109 11.0578 8.97312 11.0588 8.97633C11.0609 8.98275 11.0645 8.99391 11.0694 9.00953C11.0791 9.04078 11.094 9.08972 11.1122 9.15406C11.1488 9.28301 11.1986 9.4722 11.2481 9.70356C11.3484 10.1718 11.4422 10.7862 11.4355 11.4115L13.4354 11.433C13.4442 10.6103 13.3226 9.83955 13.2038 9.28461C13.1437 9.00438 13.0829 8.7725 13.0363 8.60826C13.013 8.526 12.9931 8.46032 12.9785 8.4136C12.9712 8.39023 12.9653 8.37157 12.9608 8.35791C12.9586 8.35109 12.9568 8.34551 12.9553 8.34122C12.9546 8.33907 12.954 8.33724 12.9535 8.33574C12.9533 8.33499 12.953 8.33432 12.9528 8.33374C12.9527 8.33344 12.9527 8.33317 12.9526 8.33292C12.9525 8.33279 12.9525 8.33262 12.9524 8.33256C12.9524 8.33239 12.9523 8.33222 12.0048 8.65192ZM11.4355 11.4115C11.4284 12.0687 11.4081 12.7155 11.3895 13.1994C11.3802 13.4409 11.3714 13.6409 11.3649 13.7803C11.3616 13.8499 11.3589 13.9043 11.3571 13.9411C11.3562 13.9595 11.3555 13.9735 11.355 13.9828C11.3547 13.9874 11.3546 13.9909 11.3544 13.9931C11.3544 13.9943 11.3543 13.9951 11.3543 13.9956C11.3543 13.9958 11.3543 13.996 11.3543 13.9961C11.3543 13.9962 11.3543 13.9962 11.3543 13.9962C11.3543 13.9962 11.3543 13.9962 11.3543 13.9962C11.3543 13.9962 11.3543 13.9962 12.3529 14.049C13.3515 14.1019 13.3515 14.1019 13.3515 14.1018C13.3515 14.1018 13.3515 14.1018 13.3515 14.1018C13.3515 14.1017 13.3515 14.1016 13.3515 14.1015C13.3515 14.1013 13.3515 14.101 13.3516 14.1006C13.3516 14.0999 13.3517 14.0988 13.3517 14.0975C13.3519 14.0948 13.3521 14.0908 13.3523 14.0857C13.3529 14.0755 13.3536 14.0605 13.3546 14.0411C13.3565 14.0022 13.3593 13.9456 13.3627 13.8736C13.3694 13.7296 13.3785 13.5241 13.388 13.2763C13.4071 12.7816 13.428 12.115 13.4354 11.433L11.4355 11.4115Z" fill="white"/>
</svg>
