<svg width="32" height="32" viewBox="0 0 32 32" fill="none" xmlns="http://www.w3.org/2000/svg">
<mask id="path-1-inside-1_65_1044" fill="white">
<path d="M16.875 16H25.5417V24.6667H16.875V16Z"/>
</mask>
<path d="M25.5417 16H27.5417V14H25.5417V16ZM16.875 18H25.5417V14H16.875V18ZM23.5417 16V24.6667H27.5417V16H23.5417Z" fill="white" mask="url(#path-1-inside-1_65_1044)"/>
<rect x="13" y="21.3333" width="6.66667" height="6.66667" stroke="white" stroke-width="2"/>
<line x1="17.5394" y1="16.7474" x2="12.6644" y2="21.0807" stroke="white" stroke-width="2"/>
<line x1="24.7905" y1="16.3737" x2="19.9155" y2="20.707" stroke="white"/>
<line x1="20.0023" y1="28.2526" x2="24.8773" y2="23.9193" stroke="white" stroke-width="2"/>
<mask id="path-7-outside-2_65_1044" maskUnits="userSpaceOnUse" x="1.69028" y="3.03395" width="28" height="25" fill="black">
<rect fill="white" x="1.69028" y="3.03395" width="28" height="25"/>
<path fill-rule="evenodd" clip-rule="evenodd" d="M13.2393 4.03395C12.1347 4.03395 11.2393 4.92938 11.2393 6.03395V12.1276H9.02056C7.06691 12.1276 5.39909 13.5389 5.07573 15.4656L3.73241 23.4695C3.42534 25.2991 4.83583 26.9661 6.69103 26.9661H11.2393H13.9372H25.1998C27.0652 26.9661 28.4783 25.2817 28.1542 23.4447L25.3119 7.33881C24.9746 5.42738 23.3138 4.03395 21.3728 4.03395H13.2393Z"/>
</mask>
<path d="M11.2393 12.1276V13.1276H12.2393V12.1276H11.2393ZM5.07573 15.4656L4.08952 15.3L5.07573 15.4656ZM3.73241 23.4695L2.7462 23.304L3.73241 23.4695ZM28.1542 23.4447L29.1389 23.2709V23.2709L28.1542 23.4447ZM25.3119 7.33881L24.3272 7.51259V7.5126L25.3119 7.33881ZM12.2393 6.03395C12.2393 5.48167 12.687 5.03395 13.2393 5.03395V3.03395C11.5824 3.03395 10.2393 4.37709 10.2393 6.03395H12.2393ZM12.2393 12.1276V6.03395H10.2393V12.1276H12.2393ZM11.2393 11.1276H9.02056V13.1276H11.2393V11.1276ZM9.02056 11.1276C6.5785 11.1276 4.49372 12.8917 4.08952 15.3L6.06193 15.6311C6.30445 14.1861 7.55532 13.1276 9.02056 13.1276V11.1276ZM4.08952 15.3L2.7462 23.304L4.71861 23.635L6.06193 15.6311L4.08952 15.3ZM2.7462 23.304C2.33678 25.7435 4.21744 27.9661 6.69103 27.9661V25.9661C5.45423 25.9661 4.5139 24.8548 4.71861 23.635L2.7462 23.304ZM6.69103 27.9661H11.2393V25.9661H6.69103V27.9661ZM11.2393 27.9661H13.9372V25.9661H11.2393V27.9661ZM25.1998 25.9661H13.9372V27.9661H25.1998V25.9661ZM27.1694 23.6185C27.3855 24.8432 26.4434 25.9661 25.1998 25.9661V27.9661C27.687 27.9661 29.5712 25.7203 29.1389 23.2709L27.1694 23.6185ZM24.3272 7.5126L27.1694 23.6185L29.1389 23.2709L26.2967 7.16502L24.3272 7.5126ZM21.3728 5.03395C22.8285 5.03395 24.0742 6.07902 24.3272 7.51259L26.2967 7.16502C25.8751 4.77574 23.799 3.03395 21.3728 3.03395V5.03395ZM13.2393 5.03395H21.3728V3.03395H13.2393V5.03395Z" fill="white" mask="url(#path-7-outside-2_65_1044)"/>
</svg>
