<svg width="32" height="32" viewBox="0 0 32 32" fill="none" xmlns="http://www.w3.org/2000/svg">
<rect x="3" y="3" width="26" height="26" rx="2" stroke="white" stroke-width="2"/>
<mask id="path-2-outside-1_65_1044" maskUnits="userSpaceOnUse" x="5" y="6" width="21" height="19" fill="black">
<rect fill="white" x="5" y="6" width="21" height="19"/>
<path fill-rule="evenodd" clip-rule="evenodd" d="M14.4553 7C13.3507 7 12.4553 7.89543 12.4553 9V13H11.6861C9.73243 13 8.0646 14.4112 7.74124 16.3379L7.04213 20.5034C6.73506 22.3331 8.14556 24 10.0008 24H12.4553H14.4553H21.8795C23.7449 24 25.1581 22.3157 24.8339 20.4786L23.0385 10.3049C22.7012 8.39343 21.0403 7 19.0994 7H14.4553Z"/>
</mask>
<path d="M12.4553 13V14H13.4553V13H12.4553ZM7.74124 16.3379L6.75503 16.1724H6.75503L7.74124 16.3379ZM7.04213 20.5034L8.02834 20.669L7.04213 20.5034ZM24.8339 20.4786L25.8187 20.3049L24.8339 20.4786ZM23.0385 10.3049L24.0233 10.1311V10.1311L23.0385 10.3049ZM13.4553 9C13.4553 8.44772 13.903 8 14.4553 8V6C12.7984 6 11.4553 7.34315 11.4553 9H13.4553ZM13.4553 13V9H11.4553V13H13.4553ZM12.4553 12H11.6861V14H12.4553V12ZM11.6861 12C9.24402 12 7.15923 13.764 6.75503 16.1724L8.72745 16.5034C8.96997 15.0584 10.2208 14 11.6861 14V12ZM6.75503 16.1724L6.05592 20.3379L8.02834 20.669L8.72745 16.5034L6.75503 16.1724ZM6.05592 20.3379C5.6465 22.7774 7.52716 25 10.0008 25V23C8.76395 23 7.82363 21.8887 8.02834 20.669L6.05592 20.3379ZM10.0008 25H12.4553V23H10.0008V25ZM12.4553 25H14.4553V23H12.4553V25ZM21.8795 23H14.4553V25H21.8795V23ZM23.8491 20.6524C24.0652 21.8771 23.1231 23 21.8795 23V25C24.3667 25 26.2509 22.7542 25.8187 20.3049L23.8491 20.6524ZM22.0537 10.4786L23.8491 20.6524L25.8187 20.3049L24.0233 10.1311L22.0537 10.4786ZM19.0994 8C20.5551 8 21.8007 9.04507 22.0537 10.4786L24.0233 10.1311C23.6017 7.74179 21.5256 6 19.0994 6V8ZM14.4553 8H19.0994V6H14.4553V8Z" fill="white" mask="url(#path-2-outside-1_65_1044)"/>
<mask id="path-4-inside-2_65_1044" fill="white">
<path d="M16.875 13H25.5417V21.6667H16.875V13Z"/>
</mask>
<path d="M25.5417 13H27.5417V11H25.5417V13ZM16.875 15H25.5417V11H16.875V15ZM23.5417 13V21.6667H27.5417V13H23.5417Z" fill="white" mask="url(#path-4-inside-2_65_1044)"/>
<rect x="13" y="18.3333" width="6.66667" height="6.66667" stroke="white" stroke-width="2"/>
<line x1="17.5394" y1="13.7474" x2="12.6644" y2="18.0807" stroke="white" stroke-width="2"/>
<line x1="24.7905" y1="13.3737" x2="19.9155" y2="17.707" stroke="white"/>
<line x1="20.0023" y1="25.2526" x2="24.8773" y2="20.9193" stroke="white" stroke-width="2"/>
</svg>
