<svg width="32" height="32" viewBox="0 0 32 32" fill="none" xmlns="http://www.w3.org/2000/svg">
<g clip-path="url(#clip0_61_143)">
<mask id="path-1-inside-1_61_143" fill="white">
<path fill-rule="evenodd" clip-rule="evenodd" d="M13.4754 15.5989C11.72 17.056 10.6021 19.2545 10.6021 21.7142C10.6021 26.1013 14.1586 29.6578 18.5458 29.6578C22.933 29.6578 26.4895 26.1013 26.4895 21.7142C26.4895 19.3107 25.422 17.1564 23.7353 15.6998L15.5669 5.8268C15.5669 5.8268 16.1725 9.5381 15.5669 11.7846C15.2227 13.0615 14.3237 14.4714 13.4754 15.5989Z"/>
</mask>
<path d="M13.4754 15.5989L14.1141 16.3684L14.2042 16.2936L14.2745 16.2001L13.4754 15.5989ZM23.7353 15.6998L22.9649 16.3372L23.0183 16.4018L23.0817 16.4566L23.7353 15.6998ZM15.5669 5.8268L16.3374 5.18934L13.9859 2.34713L14.58 5.98784L15.5669 5.8268ZM15.5669 11.7846L16.5325 12.0448L16.5325 12.0448L15.5669 11.7846ZM11.6021 21.7142C11.6021 19.5645 12.5778 17.6436 14.1141 16.3684L12.8367 14.8294C10.8622 16.4684 9.60213 18.9446 9.60213 21.7142L11.6021 21.7142ZM18.5458 28.6578C14.7109 28.6578 11.6021 25.5491 11.6021 21.7142L9.60213 21.7142C9.60213 26.6536 13.6064 30.6578 18.5458 30.6578L18.5458 28.6578ZM25.4895 21.7142C25.4895 25.5491 22.3807 28.6578 18.5458 28.6578L18.5458 30.6578C23.4853 30.6578 27.4895 26.6536 27.4895 21.7142L25.4895 21.7142ZM23.0817 16.4566C24.5578 17.7314 25.4895 19.6134 25.4895 21.7142L27.4895 21.7142C27.4895 19.0079 26.2862 16.5815 24.389 14.943L23.0817 16.4566ZM14.7964 6.46426L22.9649 16.3372L24.5058 15.0623L16.3374 5.18934L14.7964 6.46426ZM16.5325 12.0448C16.8803 10.7545 16.8688 9.1267 16.7921 7.90075C16.7527 7.27179 16.6937 6.71708 16.6445 6.3192C16.6199 6.11992 16.5977 5.95909 16.5814 5.84692C16.5732 5.79082 16.5666 5.74683 16.5618 5.71623C16.5595 5.70092 16.5576 5.68896 16.5562 5.68049C16.5556 5.67626 16.555 5.6729 16.5546 5.67044C16.5544 5.66921 16.5543 5.6682 16.5541 5.66742C16.5541 5.66703 16.554 5.66669 16.554 5.66642C16.554 5.66628 16.5539 5.66611 16.5539 5.66604C16.5539 5.66589 16.5539 5.66575 15.5669 5.8268C14.58 5.98784 14.58 5.98773 14.5799 5.98764C14.5799 5.98762 14.5799 5.98754 14.5799 5.98752C14.5799 5.98747 14.5799 5.98747 14.5799 5.98753C14.5799 5.98765 14.58 5.98799 14.5801 5.98855C14.5803 5.98967 14.5806 5.99167 14.581 5.99453C14.582 6.00025 14.5834 6.0094 14.5853 6.02182C14.5892 6.04668 14.5949 6.08462 14.6021 6.13439C14.6166 6.23396 14.6369 6.38062 14.6596 6.56437C14.7051 6.93256 14.7597 7.44609 14.796 8.02576C14.8706 9.21707 14.8591 10.5681 14.6014 11.5243L16.5325 12.0448ZM14.2745 16.2001C15.1367 15.054 16.1357 13.5165 16.5325 12.0448L14.6014 11.5243C14.3096 12.6065 13.5106 13.8887 12.6763 14.9977L14.2745 16.2001Z" fill="white" mask="url(#path-1-inside-1_61_143)"/>
<mask id="path-3-inside-2_61_143" fill="white">
<path fill-rule="evenodd" clip-rule="evenodd" d="M15.3447 18.4357C13.9033 19.2483 12.8209 20.6725 12.5025 22.4278C11.9346 25.5586 14.0123 28.557 17.1431 29.125C20.2739 29.6929 23.2723 27.6152 23.8402 24.4844C24.1513 22.7692 23.6684 21.0937 22.6533 19.8359L18.1021 11.7329C18.1021 11.7329 18.0539 14.4597 17.3309 15.9845C16.92 16.8512 16.096 17.7409 15.3447 18.4357Z"/>
</mask>
<path d="M15.3447 18.4357L16.3269 20.1779L16.5308 20.063L16.7027 19.904L15.3447 18.4357ZM22.6533 19.8359L20.9095 20.8153L20.9916 20.9614L21.0969 21.0919L22.6533 19.8359ZM18.1021 11.7329L19.8459 10.7534L16.233 4.3209L16.1025 11.6975L18.1021 11.7329ZM17.3309 15.9845L19.1381 16.8413L19.1381 16.8413L17.3309 15.9845ZM14.4704 22.7848C14.6782 21.6395 15.3815 20.7109 16.3269 20.1779L14.3625 16.6935C12.4251 17.7857 10.9637 19.7056 10.5347 22.0709L14.4704 22.7848ZM17.5 27.1571C15.4561 26.7863 14.0997 24.8288 14.4704 22.7848L10.5347 22.0709C9.7696 26.2885 12.5685 30.3278 16.7861 31.0928L17.5 27.1571ZM21.8723 24.1275C21.5016 26.1714 19.544 27.5278 17.5 27.1571L16.7861 31.0928C21.0038 31.8579 25.043 29.059 25.8081 24.8414L21.8723 24.1275ZM21.0969 21.0919C21.7625 21.9167 22.0754 23.0081 21.8723 24.1275L25.8081 24.8414C26.2273 22.5303 25.5743 20.2707 24.2097 18.5798L21.0969 21.0919ZM16.3584 12.7123L20.9095 20.8153L24.3971 18.8564L19.8459 10.7534L16.3584 12.7123ZM19.1381 16.8413C19.6478 15.7662 19.8675 14.4269 19.974 13.5201C20.031 13.035 20.0626 12.6051 20.0801 12.2958C20.0889 12.1404 20.0942 12.0137 20.0974 11.9234C20.099 11.8782 20.1001 11.8421 20.1008 11.8159C20.1011 11.8028 20.1013 11.7923 20.1015 11.7843C20.1016 11.7803 20.1017 11.7769 20.1017 11.7743C20.1017 11.7729 20.1018 11.7717 20.1018 11.7707C20.1018 11.7702 20.1018 11.7698 20.1018 11.7694C20.1018 11.7692 20.1018 11.7689 20.1018 11.7688C20.1018 11.7685 20.1018 11.7682 18.1021 11.7329C16.1025 11.6975 16.1025 11.6972 16.1025 11.697C16.1025 11.6969 16.1025 11.6967 16.1025 11.6966C16.1025 11.6963 16.1025 11.6961 16.1025 11.696C16.1025 11.6956 16.1025 11.6954 16.1025 11.6954C16.1025 11.6954 16.1025 11.696 16.1025 11.6972C16.1024 11.6996 16.1023 11.7045 16.1021 11.7118C16.1017 11.7263 16.101 11.7502 16.0999 11.7826C16.0976 11.8474 16.0935 11.9456 16.0865 12.0697C16.0724 12.3193 16.0468 12.6665 16.0013 13.0536C15.9029 13.8915 15.737 14.678 15.5238 15.1276L19.1381 16.8413ZM16.7027 19.904C17.488 19.1777 18.5543 18.0724 19.1381 16.8413L15.5238 15.1276C15.2856 15.6299 14.7039 16.3041 13.9867 16.9674L16.7027 19.904Z" fill="white" mask="url(#path-3-inside-2_61_143)"/>
<mask id="path-5-inside-3_61_143" fill="white">
<path fill-rule="evenodd" clip-rule="evenodd" d="M16.5724 22.649C15.7141 22.9037 14.9713 23.5243 14.5915 24.4117C13.9142 25.9945 14.6482 27.8267 16.231 28.504C17.8139 29.1814 19.6461 28.4473 20.3234 26.8645C20.6945 25.9974 20.642 25.0554 20.2583 24.2694L18.8356 19.4463C18.8356 19.4463 18.4811 20.8788 17.9158 21.5958C17.5945 22.0033 17.0525 22.3732 16.5724 22.649Z"/>
</mask>
<path fill-rule="evenodd" clip-rule="evenodd" d="M16.5724 22.649C15.7141 22.9037 14.9713 23.5243 14.5915 24.4117C13.9142 25.9945 14.6482 27.8267 16.231 28.504C17.8139 29.1814 19.6461 28.4473 20.3234 26.8645C20.6945 25.9974 20.642 25.0554 20.2583 24.2694L18.8356 19.4463C18.8356 19.4463 18.4811 20.8788 17.9158 21.5958C17.5945 22.0033 17.0525 22.3732 16.5724 22.649Z" fill="white"/>
<path d="M16.5724 22.649L17.1413 24.5664L17.3657 24.4998L17.5687 24.3832L16.5724 22.649ZM20.2583 24.2694L18.34 24.8353L18.3875 24.9961L18.461 25.1467L20.2583 24.2694ZM18.8356 19.4463L20.7539 18.8805L18.6666 11.8042L16.8942 18.9659L18.8356 19.4463ZM17.9158 21.5958L19.4863 22.8341L19.4863 22.8341L17.9158 21.5958ZM16.4303 25.1985C16.5661 24.8811 16.8289 24.6591 17.1413 24.5664L16.0034 20.7316C14.5992 21.1483 13.3765 22.1674 12.7528 23.6248L16.4303 25.1985ZM17.0179 26.6653C16.4506 26.4225 16.1875 25.7658 16.4303 25.1985L12.7528 23.6248C11.6409 26.2231 12.8459 29.2308 15.4442 30.3427L17.0179 26.6653ZM18.4847 26.0777C18.2419 26.645 17.5852 26.9081 17.0179 26.6653L15.4442 30.3427C18.0425 31.4546 21.0502 30.2497 22.1621 27.6514L18.4847 26.0777ZM18.461 25.1467C18.6005 25.4326 18.6175 25.7673 18.4847 26.0777L22.1621 27.6514C22.7714 26.2275 22.6834 24.6782 22.0556 23.3921L18.461 25.1467ZM16.9173 20.0122L18.34 24.8353L22.1766 23.7036L20.7539 18.8805L16.9173 20.0122ZM19.4863 22.8341C19.9833 22.2038 20.3011 21.403 20.472 20.9226C20.5682 20.6522 20.6423 20.4111 20.6927 20.2369C20.7181 20.1491 20.7379 20.0765 20.752 20.0237C20.759 19.9972 20.7647 19.9755 20.7689 19.9592C20.7709 19.9511 20.7727 19.9443 20.774 19.9388C20.7747 19.9361 20.7753 19.9338 20.7758 19.9317C20.7761 19.9307 20.7763 19.9298 20.7765 19.929C20.7766 19.9286 20.7767 19.9282 20.7768 19.9278C20.7768 19.9276 20.7769 19.9274 20.7769 19.9273C20.777 19.927 20.777 19.9268 18.8356 19.4463C16.8942 18.9659 16.8942 18.9656 16.8943 18.9654C16.8943 18.9653 16.8944 18.9651 16.8944 18.965C16.8945 18.9647 16.8945 18.9644 16.8946 18.9642C16.8947 18.9637 16.8948 18.9633 16.8949 18.963C16.8951 18.9624 16.8951 18.9621 16.8951 18.9621C16.8951 18.9621 16.8948 18.9634 16.8941 18.9659C16.8929 18.971 16.8903 18.9808 16.8866 18.9949C16.879 19.0232 16.8668 19.0681 16.8501 19.1258C16.8163 19.2426 16.7665 19.4045 16.7034 19.5818C16.5557 19.9968 16.4136 20.2708 16.3453 20.3575L19.4863 22.8341ZM17.5687 24.3832C18.089 24.0842 18.9153 23.5583 19.4863 22.8341L16.3453 20.3575C16.2736 20.4483 16.0159 20.6621 15.576 20.9148L17.5687 24.3832Z" fill="white" mask="url(#path-5-inside-3_61_143)"/>
<mask id="path-7-outside-4_61_143" maskUnits="userSpaceOnUse" x="1.69028" y="3.03395" width="28" height="25" fill="black">
<rect fill="white" x="1.69028" y="3.03395" width="28" height="25"/>
<path fill-rule="evenodd" clip-rule="evenodd" d="M13.2393 4.03395C12.1347 4.03395 11.2393 4.92938 11.2393 6.03395V12.1276H9.02056C7.06691 12.1276 5.39909 13.5389 5.07573 15.4656L3.73241 23.4695C3.42534 25.2991 4.83583 26.9661 6.69103 26.9661H11.2393H13.9372H25.1998C27.0652 26.9661 28.4783 25.2817 28.1542 23.4447L25.3119 7.33881C24.9746 5.42738 23.3138 4.03395 21.3728 4.03395H13.2393Z"/>
</mask>
<path d="M11.2393 12.1276V13.1276H12.2393V12.1276H11.2393ZM5.07573 15.4656L4.08952 15.3L5.07573 15.4656ZM3.73241 23.4695L2.7462 23.304L3.73241 23.4695ZM28.1542 23.4447L29.1389 23.2709L29.1389 23.2709L28.1542 23.4447ZM25.3119 7.33881L24.3272 7.51259L24.3272 7.5126L25.3119 7.33881ZM12.2393 6.03395C12.2393 5.48167 12.687 5.03395 13.2393 5.03395V3.03395C11.5824 3.03395 10.2393 4.37709 10.2393 6.03395H12.2393ZM12.2393 12.1276V6.03395H10.2393V12.1276H12.2393ZM11.2393 11.1276H9.02056V13.1276H11.2393V11.1276ZM9.02056 11.1276C6.5785 11.1276 4.49372 12.8917 4.08952 15.3L6.06193 15.6311C6.30445 14.1861 7.55532 13.1276 9.02056 13.1276V11.1276ZM4.08952 15.3L2.7462 23.304L4.71861 23.635L6.06193 15.6311L4.08952 15.3ZM2.7462 23.304C2.33678 25.7435 4.21744 27.9661 6.69103 27.9661V25.9661C5.45423 25.9661 4.5139 24.8548 4.71861 23.635L2.7462 23.304ZM6.69103 27.9661H11.2393V25.9661H6.69103V27.9661ZM11.2393 27.9661H13.9372V25.9661H11.2393V27.9661ZM25.1998 25.9661H13.9372V27.9661H25.1998V25.9661ZM27.1694 23.6185C27.3855 24.8432 26.4434 25.9661 25.1998 25.9661V27.9661C27.687 27.9661 29.5712 25.7203 29.1389 23.2709L27.1694 23.6185ZM24.3272 7.5126L27.1694 23.6185L29.1389 23.2709L26.2967 7.16502L24.3272 7.5126ZM21.3728 5.03395C22.8285 5.03395 24.0742 6.07902 24.3272 7.51259L26.2967 7.16502C25.8751 4.77574 23.799 3.03395 21.3728 3.03395V5.03395ZM13.2393 5.03395H21.3728V3.03395H13.2393V5.03395Z" fill="white" mask="url(#path-7-outside-4_61_143)"/>
</g>
<defs>
<clipPath id="clip0_61_143">
<rect width="32" height="32" fill="white"/>
</clipPath>
</defs>
</svg>
