<svg width="32" height="32" viewBox="0 0 32 32" fill="none" xmlns="http://www.w3.org/2000/svg">
<rect x="3" y="3" width="26" height="26" rx="2" stroke="white" stroke-width="2"/>
<mask id="path-2-outside-1_61_143" maskUnits="userSpaceOnUse" x="5" y="6" width="21" height="19" fill="black">
<rect fill="white" x="5" y="6" width="21" height="19"/>
<path fill-rule="evenodd" clip-rule="evenodd" d="M14.4553 7C13.3507 7 12.4553 7.89543 12.4553 9V13H11.6861C9.73243 13 8.0646 14.4112 7.74124 16.3379L7.04213 20.5034C6.73506 22.3331 8.14556 24 10.0008 24H12.4553H14.4553H21.8795C23.7449 24 25.1581 22.3157 24.8339 20.4786L23.0385 10.3049C22.7012 8.39343 21.0403 7 19.0994 7H14.4553Z"/>
</mask>
<path d="M12.4553 13V14H13.4553V13H12.4553ZM7.74124 16.3379L6.75503 16.1724H6.75503L7.74124 16.3379ZM7.04213 20.5034L8.02834 20.669L7.04213 20.5034ZM24.8339 20.4786L25.8187 20.3049L24.8339 20.4786ZM23.0385 10.3049L24.0233 10.1311V10.1311L23.0385 10.3049ZM13.4553 9C13.4553 8.44772 13.903 8 14.4553 8V6C12.7984 6 11.4553 7.34315 11.4553 9H13.4553ZM13.4553 13V9H11.4553V13H13.4553ZM12.4553 12H11.6861V14H12.4553V12ZM11.6861 12C9.24402 12 7.15923 13.764 6.75503 16.1724L8.72745 16.5034C8.96997 15.0584 10.2208 14 11.6861 14V12ZM6.75503 16.1724L6.05592 20.3379L8.02834 20.669L8.72745 16.5034L6.75503 16.1724ZM6.05592 20.3379C5.6465 22.7774 7.52716 25 10.0008 25V23C8.76395 23 7.82363 21.8887 8.02834 20.669L6.05592 20.3379ZM10.0008 25H12.4553V23H10.0008V25ZM12.4553 25H14.4553V23H12.4553V25ZM21.8795 23H14.4553V25H21.8795V23ZM23.8491 20.6524C24.0652 21.8771 23.1231 23 21.8795 23V25C24.3667 25 26.2509 22.7542 25.8187 20.3049L23.8491 20.6524ZM22.0537 10.4786L23.8491 20.6524L25.8187 20.3049L24.0233 10.1311L22.0537 10.4786ZM19.0994 8C20.5551 8 21.8007 9.04507 22.0537 10.4786L24.0233 10.1311C23.6017 7.74179 21.5256 6 19.0994 6V8ZM14.4553 8H19.0994V6H14.4553V8Z" fill="white" mask="url(#path-2-outside-1_61_143)"/>
<mask id="path-4-inside-2_61_143" fill="white">
<path fill-rule="evenodd" clip-rule="evenodd" d="M15.3366 16.3857C14.2256 17.3079 13.518 18.6994 13.518 20.2562C13.518 23.033 15.7691 25.284 18.5458 25.284C21.3226 25.284 23.5736 23.033 23.5736 20.2562C23.5736 18.735 22.898 17.3715 21.8304 16.4495L16.6604 10.2007C16.6604 10.2007 17.0437 12.5497 16.6604 13.9715C16.4425 14.7797 15.8735 15.672 15.3366 16.3857Z"/>
</mask>
<path d="M15.3366 16.3857L15.9753 17.1552L16.0654 17.0804L16.1357 16.9869L15.3366 16.3857ZM21.8304 16.4495L21.0599 17.087L21.1133 17.1516L21.1768 17.2064L21.8304 16.4495ZM16.6604 10.2007L17.4309 9.56321L15.0794 6.721L15.6734 10.3617L16.6604 10.2007ZM16.6604 13.9715L15.6949 13.7112L16.6604 13.9715ZM14.518 20.2562C14.518 19.0094 15.0834 17.8955 15.9753 17.1552L14.6979 15.6162C13.3678 16.7203 12.518 18.3895 12.518 20.2562L14.518 20.2562ZM18.5458 24.284C16.3213 24.284 14.518 22.4807 14.518 20.2562L12.518 20.2562C12.518 23.5853 15.2168 26.284 18.5458 26.284L18.5458 24.284ZM22.5736 20.2562C22.5736 22.4807 20.7703 24.284 18.5458 24.284L18.5458 26.284C21.8749 26.284 24.5736 23.5853 24.5736 20.2562L22.5736 20.2562ZM21.1768 17.2064C22.0338 17.9465 22.5736 19.0377 22.5736 20.2562L24.5736 20.2562C24.5736 18.4322 23.7621 16.7965 22.484 15.6927L21.1768 17.2064ZM15.8899 10.8381L21.0599 17.087L22.6009 15.8121L17.4309 9.56321L15.8899 10.8381ZM17.6259 14.2318C17.8626 13.3538 17.8512 12.2727 17.8022 11.4904C17.7767 11.0833 17.7385 10.7246 17.7068 10.4673C17.6908 10.3383 17.6764 10.2339 17.6657 10.1606C17.6604 10.124 17.656 10.095 17.6529 10.0746C17.6513 10.0644 17.65 10.0563 17.6491 10.0504C17.6486 10.0475 17.6482 10.0451 17.6479 10.0433C17.6478 10.0424 17.6477 10.0417 17.6476 10.041C17.6475 10.0407 17.6475 10.0405 17.6474 10.0402C17.6474 10.0401 17.6474 10.04 17.6474 10.0399C17.6474 10.0398 17.6473 10.0396 16.6604 10.2007C15.6734 10.3617 15.6734 10.3616 15.6734 10.3615C15.6734 10.3615 15.6734 10.3614 15.6734 10.3613C15.6734 10.3612 15.6734 10.3612 15.6734 10.3612C15.6733 10.3611 15.6734 10.3612 15.6734 10.3614C15.6735 10.3619 15.6736 10.3629 15.6739 10.3645C15.6744 10.3676 15.6752 10.3729 15.6763 10.3802C15.6786 10.3949 15.6821 10.4178 15.6865 10.4481C15.6953 10.5088 15.7078 10.5991 15.7218 10.7125C15.7499 10.9401 15.7837 11.2575 15.8061 11.6154C15.8529 12.3631 15.8415 13.1674 15.6949 13.7112L17.6259 14.2318ZM16.1357 16.9869C16.6866 16.2547 17.3556 15.2347 17.6259 14.2318L15.6949 13.7112C15.5295 14.3247 15.0605 15.0894 14.5375 15.7845L16.1357 16.9869Z" fill="white" mask="url(#path-4-inside-2_61_143)"/>
<mask id="path-6-inside-3_61_143" fill="white">
<path fill-rule="evenodd" clip-rule="evenodd" d="M16.5197 18.1812C15.6075 18.6955 14.9224 19.5969 14.7209 20.7079C14.3614 22.6895 15.6764 24.5872 17.658 24.9467C19.6396 25.3061 21.5373 23.9911 21.8968 22.0096C22.0937 20.924 21.788 19.8635 21.1455 19.0673L18.265 13.9388C18.265 13.9388 18.2345 15.6647 17.7769 16.6297C17.5168 17.1783 16.9952 17.7414 16.5197 18.1812Z"/>
</mask>
<path d="M16.5197 18.1812L17.5019 19.9234L17.7058 19.8084L17.8777 19.6495L16.5197 18.1812ZM21.1455 19.0673L19.4018 20.0468L19.4839 20.1929L19.5892 20.3234L21.1455 19.0673ZM18.265 13.9388L20.0088 12.9594L16.3959 6.52681L16.2653 13.9034L18.265 13.9388ZM17.7769 16.6297L15.9697 15.7729L15.9697 15.7729L17.7769 16.6297ZM16.6888 21.0649C16.7796 20.5639 17.0857 20.1581 17.5019 19.9234L15.5375 16.439C14.1292 17.2329 13.0652 18.63 12.753 20.3509L16.6888 21.0649ZM18.015 22.9788C17.1202 22.8165 16.5265 21.9596 16.6888 21.0649L12.753 20.3509C12.1964 23.4193 14.2326 26.358 17.301 26.9146L18.015 22.9788ZM19.9289 21.6526C19.7666 22.5473 18.9097 23.1411 18.015 22.9788L17.301 26.9146C20.3694 27.4712 23.3081 25.4349 23.8647 22.3665L19.9289 21.6526ZM19.5892 20.3234C19.8822 20.6865 20.0177 21.1628 19.9289 21.6526L23.8647 22.3665C24.1697 20.6851 23.6939 19.0405 22.7019 17.8113L19.5892 20.3234ZM16.5212 14.9182L19.4018 20.0468L22.8893 18.0879L20.0088 12.9594L16.5212 14.9182ZM19.584 17.4866C19.9611 16.6913 20.11 15.7422 20.1789 15.1556C20.2171 14.8305 20.2382 14.5433 20.2499 14.3366C20.2558 14.2325 20.2594 14.147 20.2616 14.0852C20.2627 14.0543 20.2634 14.0292 20.2639 14.0105C20.2641 14.0011 20.2643 13.9934 20.2644 13.9873C20.2645 13.9843 20.2646 13.9816 20.2646 13.9794C20.2646 13.9783 20.2646 13.9774 20.2647 13.9765C20.2647 13.976 20.2647 13.9756 20.2647 13.9752C20.2647 13.975 20.2647 13.9748 20.2647 13.9747C20.2647 13.9744 20.2647 13.9742 18.265 13.9388C16.2653 13.9034 16.2653 13.9031 16.2653 13.9029C16.2653 13.9028 16.2653 13.9026 16.2653 13.9025C16.2653 13.9022 16.2653 13.9019 16.2654 13.9017C16.2654 13.9012 16.2654 13.9009 16.2654 13.9006C16.2654 13.9001 16.2654 13.9 16.2654 13.9002C16.2654 13.9007 16.2653 13.9028 16.2652 13.9063C16.265 13.9134 16.2647 13.9263 16.264 13.9444C16.2628 13.9808 16.2604 14.0377 16.2563 14.1105C16.248 14.2575 16.2328 14.4621 16.2062 14.6891C16.1454 15.2067 16.0502 15.6031 15.9697 15.7729L19.584 17.4866ZM17.8777 19.6495C18.3873 19.1782 19.1511 18.3996 19.584 17.4866L15.9697 15.7729C15.8824 15.957 15.6032 16.3046 15.1618 16.7129L17.8777 19.6495Z" fill="white" mask="url(#path-6-inside-3_61_143)"/>
<mask id="path-8-inside-4_61_143" fill="white">
<path fill-rule="evenodd" clip-rule="evenodd" d="M17.2968 20.8479C16.7535 21.0091 16.2834 21.4019 16.0431 21.9635C15.6143 22.9653 16.0789 24.125 17.0807 24.5537C18.0825 24.9824 19.2422 24.5178 19.6709 23.516C19.9058 22.9672 19.8725 22.371 19.6297 21.8735L18.7292 18.8208C18.7292 18.8208 18.5049 19.7275 18.1471 20.1813C17.9437 20.4392 17.6006 20.6733 17.2968 20.8479Z"/>
</mask>
<path fill-rule="evenodd" clip-rule="evenodd" d="M17.2968 20.8479C16.7535 21.0091 16.2834 21.4019 16.0431 21.9635C15.6143 22.9653 16.0789 24.125 17.0807 24.5537C18.0825 24.9824 19.2422 24.5178 19.6709 23.516C19.9058 22.9672 19.8725 22.371 19.6297 21.8735L18.7292 18.8208C18.7292 18.8208 18.5049 19.7275 18.1471 20.1813C17.9437 20.4392 17.6006 20.6733 17.2968 20.8479Z" fill="white"/>
<path d="M17.2968 20.8479L17.8657 22.7653L18.0901 22.6987L18.2931 22.5821L17.2968 20.8479ZM19.6297 21.8735L17.7114 22.4394L17.7589 22.6002L17.8324 22.7508L19.6297 21.8735ZM18.7292 18.8208L20.6475 18.255L18.5602 11.1787L16.7878 18.3404L18.7292 18.8208ZM18.1471 20.1813L16.5765 18.943L18.1471 20.1813ZM17.8818 22.7504C17.8821 22.7497 17.8814 22.7513 17.8794 22.754C17.8776 22.7566 17.8754 22.7588 17.8734 22.7606C17.8697 22.7638 17.8672 22.7648 17.8657 22.7653L16.7279 18.9305C15.6387 19.2537 14.6886 20.045 14.2043 21.1767L17.8818 22.7504ZM17.8676 22.715C17.8669 22.7147 17.8681 22.7152 17.8704 22.7168C17.8726 22.7183 17.8748 22.7201 17.8766 22.722C17.8802 22.7257 17.8815 22.7284 17.882 22.7297C17.8825 22.731 17.8835 22.7339 17.8834 22.739C17.8834 22.7417 17.8831 22.7445 17.8826 22.7471C17.882 22.7499 17.8815 22.7511 17.8818 22.7504L14.2043 21.1767C13.3411 23.194 14.2766 25.5291 16.2939 26.3924L17.8676 22.715ZM17.8322 22.7292C17.8319 22.7299 17.8324 22.7286 17.834 22.7263C17.8355 22.7241 17.8373 22.722 17.8393 22.7201C17.8429 22.7166 17.8457 22.7153 17.8469 22.7147C17.8482 22.7142 17.8511 22.7133 17.8562 22.7133C17.8589 22.7133 17.8617 22.7136 17.8643 22.7141C17.8671 22.7147 17.8683 22.7153 17.8676 22.715L16.2939 26.3924C18.3112 27.2557 20.6463 26.3202 21.5096 24.3029L17.8322 22.7292ZM17.8324 22.7508C17.8317 22.7494 17.8307 22.7469 17.8305 22.7419C17.8304 22.7392 17.8307 22.7362 17.8312 22.7331C17.8318 22.7299 17.8325 22.7284 17.8322 22.7292L21.5096 24.3029C21.9827 23.1973 21.9139 21.9938 21.4271 20.9963L17.8324 22.7508ZM16.811 19.3867L17.7114 22.4394L21.548 21.3077L20.6475 18.255L16.811 19.3867ZM19.7176 21.4196C20.1108 20.9209 20.3442 20.3173 20.4566 20.0012C20.5236 19.813 20.575 19.6459 20.6099 19.5251C20.6276 19.464 20.6415 19.413 20.6516 19.3751C20.6567 19.356 20.6608 19.3402 20.664 19.3278C20.6656 19.3216 20.6669 19.3162 20.668 19.3118C20.6686 19.3096 20.6691 19.3076 20.6695 19.3059C20.6698 19.305 20.67 19.3042 20.6702 19.3034C20.6702 19.303 20.6703 19.3027 20.6704 19.3023C20.6705 19.3021 20.6705 19.3019 20.6706 19.3018C20.6706 19.3015 20.6707 19.3013 18.7292 18.8208C16.7878 18.3404 16.7879 18.3401 16.7879 18.3399C16.7879 18.3398 16.788 18.3396 16.788 18.3394C16.7881 18.3391 16.7882 18.3389 16.7883 18.3386C16.7884 18.338 16.7885 18.3375 16.7886 18.3371C16.7888 18.3362 16.789 18.3355 16.7891 18.3351C16.7894 18.3341 16.7894 18.3339 16.7893 18.3345C16.789 18.3356 16.788 18.3396 16.7862 18.3463C16.7826 18.3597 16.7763 18.3831 16.7673 18.4141C16.749 18.4774 16.7219 18.5653 16.688 18.6605C16.5988 18.9112 16.5411 18.9879 16.5765 18.943L19.7176 21.4196ZM18.2931 22.5821C18.6372 22.3844 19.2645 21.9942 19.7176 21.4196L16.5765 18.943C16.602 18.9107 16.616 18.8987 16.6088 18.9054C16.6025 18.9113 16.5854 18.9264 16.5547 18.9495C16.4911 18.9975 16.404 19.0542 16.3005 19.1137L18.2931 22.5821Z" fill="white" mask="url(#path-8-inside-4_61_143)"/>
</svg>
