<svg width="32" height="32" viewBox="0 0 32 32" fill="none" xmlns="http://www.w3.org/2000/svg">
<mask id="path-1-inside-1_25_186" fill="white">
<path fill-rule="evenodd" clip-rule="evenodd" d="M10.2554 13.5715C8.26656 15.2224 7.00001 17.7133 7.00001 20.5C7.00001 25.4706 11.0294 29.5 16 29.5C20.9706 29.5 25 25.4706 25 20.5C25 17.7769 23.7906 15.3362 21.8796 13.6858L12.625 2.50002C12.625 2.50002 13.3111 6.70483 12.625 9.25001C12.235 10.6968 11.2165 12.2941 10.2554 13.5715Z"/>
</mask>
<path d="M10.2554 13.5715L12.1715 15.8799L12.4417 15.6557L12.6528 15.3751L10.2554 13.5715ZM21.8796 13.6858L19.5681 15.5982L19.7284 15.792L19.9188 15.9563L21.8796 13.6858ZM12.625 2.50002L14.9365 0.587638L7.88195 -7.93899L9.66416 2.98315L12.625 2.50002ZM12.625 9.25001L15.5216 10.0309L12.625 9.25001ZM10 20.5C10 18.6432 10.8399 16.9852 12.1715 15.8799L8.33934 11.2631C5.69326 13.4595 4.00001 16.7834 4.00001 20.5L10 20.5ZM16 26.5C12.6863 26.5 10 23.8137 10 20.5L4.00001 20.5C4.00001 27.1274 9.37259 32.5 16 32.5L16 26.5ZM22 20.5C22 23.8137 19.3137 26.5 16 26.5L16 32.5C22.6274 32.5 28 27.1274 28 20.5L22 20.5ZM19.9188 15.9563C21.198 17.0611 22 18.6852 22 20.5L28 20.5C28 16.8685 26.3832 13.6113 23.8404 11.4153L19.9188 15.9563ZM10.3136 4.4124L19.5681 15.5982L24.191 11.7735L14.9365 0.587638L10.3136 4.4124ZM15.5216 10.0309C15.9998 8.25699 15.9655 6.15436 15.8764 4.73304C15.8289 3.97445 15.758 3.30754 15.6989 2.82903C15.6692 2.58874 15.6422 2.3933 15.622 2.25447C15.6119 2.18499 15.6035 2.1295 15.5973 2.08946C15.5942 2.06943 15.5917 2.05325 15.5897 2.0411C15.5888 2.03503 15.588 2.02995 15.5873 2.02591C15.587 2.02389 15.5867 2.02212 15.5865 2.02062C15.5863 2.01987 15.5862 2.01918 15.5861 2.01856C15.5861 2.01824 15.586 2.01783 15.586 2.01767C15.5859 2.01727 15.5858 2.01688 12.625 2.50002C9.66416 2.98315 9.66411 2.9828 9.66405 2.98246C9.66404 2.98237 9.66398 2.98204 9.66395 2.98186C9.66389 2.9815 9.66384 2.98119 9.66381 2.98095C9.66373 2.98046 9.66369 2.98023 9.66369 2.98024C9.66369 2.98026 9.66385 2.98125 9.66416 2.98321C9.66479 2.98713 9.66601 2.99487 9.66777 3.00626C9.6713 3.02906 9.67697 3.06639 9.6843 3.11686C9.69897 3.21792 9.72019 3.37086 9.74412 3.56455C9.79222 3.95398 9.84991 4.49734 9.88817 5.1081C9.97068 6.42548 9.93633 7.69786 9.72841 8.46916L15.5216 10.0309ZM12.6528 15.3751C13.6556 14.042 14.9741 12.0617 15.5216 10.0309L9.72841 8.46916C9.49586 9.33181 8.7773 10.5461 7.85807 11.768L12.6528 15.3751Z" fill="white" mask="url(#path-1-inside-1_25_186)"/>
</svg>
