<svg width="32" height="32" viewBox="0 0 32 32" fill="none" xmlns="http://www.w3.org/2000/svg">
<g clip-path="url(#clip0_44_2)">
<mask id="path-1-inside-1_44_2" fill="white">
<path fill-rule="evenodd" clip-rule="evenodd" d="M9.51839 13.2928C7.38182 15.0662 6.02121 17.7421 6.02121 20.7358C6.02121 26.0756 10.3499 30.4043 15.6896 30.4043C21.0294 30.4043 25.3581 26.0756 25.3581 20.7358C25.3581 17.8104 24.0588 15.1885 22.0059 13.4155L12.064 1.39893C12.064 1.39893 12.8011 5.91605 12.064 8.65026C11.645 10.2045 10.5508 11.9204 9.51839 13.2928Z"/>
</mask>
<path d="M9.51839 13.2928L10.1571 14.0622L10.2471 13.9875L10.3175 13.8939L9.51839 13.2928ZM22.0059 13.4155L21.2354 14.053L21.2889 14.1176L21.3523 14.1724L22.0059 13.4155ZM12.064 1.39893L12.8345 0.761472L10.483 -2.08074L11.077 1.55998L12.064 1.39893ZM12.064 8.65026L11.0984 8.38998L12.064 8.65026ZM7.02121 20.7358C7.02121 18.0521 8.23959 15.6538 10.1571 14.0622L8.8797 12.5233C6.52405 14.4786 5.02121 17.4322 5.02121 20.7358L7.02121 20.7358ZM15.6896 29.4043C10.9022 29.4043 7.02121 25.5233 7.02121 20.7358L5.02121 20.7358C5.02121 26.6278 9.79763 31.4043 15.6896 31.4043L15.6896 29.4043ZM24.3581 20.7358C24.3581 25.5233 20.4771 29.4043 15.6896 29.4043L15.6896 31.4043C21.5817 31.4043 26.3581 26.6278 26.3581 20.7358L24.3581 20.7358ZM21.3523 14.1724C23.1947 15.7634 24.3581 18.1132 24.3581 20.7358L26.3581 20.7358C26.3581 17.5076 24.923 14.6135 22.6595 12.6587L21.3523 14.1724ZM11.2935 2.03639L21.2354 14.053L22.7764 12.7781L12.8345 0.761472L11.2935 2.03639ZM13.0295 8.91055C13.4431 7.37634 13.4316 5.42514 13.3384 3.93676C13.2908 3.17659 13.2195 2.50591 13.1601 2.02487C13.1303 1.784 13.1035 1.58978 13.0838 1.45463C13.074 1.38704 13.066 1.33415 13.0603 1.29753C13.0575 1.27921 13.0553 1.26496 13.0537 1.25495C13.0529 1.24995 13.0522 1.24602 13.0518 1.24316C13.0515 1.24174 13.0514 1.24058 13.0512 1.2397C13.0511 1.23926 13.0511 1.23889 13.051 1.23859C13.051 1.23844 13.051 1.23826 13.051 1.23818C13.0509 1.23803 13.0509 1.23789 12.064 1.39893C11.077 1.55998 11.077 1.55987 11.077 1.55978C11.077 1.55977 11.077 1.5597 11.077 1.55969C11.077 1.55966 11.077 1.5597 11.077 1.55981C11.077 1.56003 11.0771 1.56051 11.0772 1.56127C11.0775 1.56278 11.0779 1.56536 11.0785 1.56899C11.0796 1.57625 11.0814 1.58769 11.0838 1.60313C11.0886 1.63401 11.0957 1.68084 11.1046 1.7421C11.1224 1.86466 11.1473 2.04471 11.1752 2.27004C11.2309 2.7214 11.2978 3.35089 11.3423 4.06178C11.4334 5.51551 11.4219 7.18997 11.0984 8.38998L13.0295 8.91055ZM10.3175 13.8939C11.3639 12.5031 12.558 10.6594 13.0295 8.91055L11.0984 8.38998C10.732 9.74948 9.73776 11.3378 8.71927 12.6916L10.3175 13.8939Z" fill="white" mask="url(#path-1-inside-1_44_2)"/>
<mask id="path-3-inside-2_44_2" fill="white">
<path fill-rule="evenodd" clip-rule="evenodd" d="M11.7934 16.7456C10.0391 17.7346 8.72176 19.4681 8.33424 21.6044C7.64302 25.415 10.1718 29.0645 13.9823 29.7557C17.7929 30.4469 21.4424 27.9181 22.1336 24.1076C22.5123 22.0199 21.9245 19.9806 20.689 18.4497L15.1496 8.58732C15.1496 8.58732 15.0909 11.9063 14.211 13.7621C13.7108 14.817 12.7078 15.8999 11.7934 16.7456Z"/>
</mask>
<path d="M11.7934 16.7456L12.7756 18.4878L12.9795 18.3728L13.1514 18.2139L11.7934 16.7456ZM13.9823 29.7557L14.3393 27.7878L13.9823 29.7557ZM20.689 18.4497L18.9452 19.4291L19.0273 19.5753L19.1326 19.7057L20.689 18.4497ZM15.1496 8.58732L16.8934 7.6079L13.2805 1.17536L13.15 8.55193L15.1496 8.58732ZM14.211 13.7621L16.0181 14.6189L16.0181 14.6189L14.211 13.7621ZM10.3021 21.9614C10.579 20.435 11.5174 19.1971 12.7756 18.4878L10.8112 15.0033C8.56091 16.272 6.86453 18.5011 6.36635 21.2475L10.3021 21.9614ZM14.3393 27.7878C11.6156 27.2937 9.80805 24.6852 10.3021 21.9614L6.36635 21.2475C5.47799 26.1449 8.72797 30.8352 13.6254 31.7236L14.3393 27.7878ZM20.1657 23.7506C19.6716 26.4743 17.0631 28.2819 14.3393 27.7878L13.6254 31.7236C18.5228 32.6119 23.2131 29.3619 24.1015 24.4645L20.1657 23.7506ZM19.1326 19.7057C20.0186 20.8036 20.4363 22.2588 20.1657 23.7506L24.1015 24.4645C24.5882 21.781 23.8304 19.1577 22.2454 17.1936L19.1326 19.7057ZM13.4059 9.56673L18.9452 19.4291L22.4327 17.4703L16.8934 7.6079L13.4059 9.56673ZM16.0181 14.6189C16.6064 13.3783 16.8679 11.8082 16.9966 10.712C17.0647 10.1321 17.1026 9.61796 17.1235 9.24794C17.134 9.06224 17.1404 8.91105 17.1442 8.80397C17.1461 8.75038 17.1473 8.7077 17.1481 8.67712C17.1485 8.66183 17.1488 8.64955 17.149 8.64044C17.1491 8.63588 17.1492 8.63211 17.1492 8.62915C17.1492 8.62767 17.1493 8.62639 17.1493 8.62531C17.1493 8.62478 17.1493 8.62429 17.1493 8.62386C17.1493 8.62364 17.1493 8.62335 17.1493 8.62324C17.1493 8.62297 17.1493 8.62271 15.1496 8.58732C13.15 8.55193 13.15 8.5517 13.15 8.55147C13.15 8.55141 13.15 8.5512 13.15 8.55109C13.15 8.55085 13.15 8.55067 13.15 8.55053C13.15 8.55027 13.15 8.55019 13.15 8.55031C13.15 8.55056 13.15 8.55158 13.1499 8.55336C13.1498 8.55691 13.1497 8.5635 13.1495 8.57297C13.149 8.59192 13.1481 8.62236 13.1466 8.66315C13.1438 8.74481 13.1387 8.86742 13.1299 9.02187C13.1124 9.33215 13.0805 9.7637 13.0239 10.2455C12.9033 11.2728 12.6955 12.2901 12.4038 12.9052L16.0181 14.6189ZM13.1514 18.2139C14.0998 17.3367 15.3452 16.0382 16.0181 14.6189L12.4038 12.9052C12.0764 13.5957 11.3158 14.463 10.4355 15.2773L13.1514 18.2139Z" fill="white" mask="url(#path-3-inside-2_44_2)"/>
<mask id="path-5-inside-3_44_2" fill="white">
<path fill-rule="evenodd" clip-rule="evenodd" d="M13.2877 21.8736C12.2431 22.1836 11.339 22.9389 10.8768 24.019C10.0524 25.9455 10.9458 28.1755 12.8723 28.9999C14.7988 29.8243 17.0288 28.9309 17.8532 27.0045C18.3049 25.949 18.2409 24.8025 17.774 23.8459L16.0424 17.9756C16.0424 17.9756 15.6109 19.7191 14.9229 20.5917C14.5317 21.0878 13.8721 21.5379 13.2877 21.8736Z"/>
</mask>
<path fill-rule="evenodd" clip-rule="evenodd" d="M13.2877 21.8736C12.2431 22.1836 11.339 22.9389 10.8768 24.019C10.0524 25.9455 10.9458 28.1755 12.8723 28.9999C14.7988 29.8243 17.0288 28.9309 17.8532 27.0045C18.3049 25.949 18.2409 24.8025 17.774 23.8459L16.0424 17.9756C16.0424 17.9756 15.6109 19.7191 14.9229 20.5917C14.5317 21.0878 13.8721 21.5379 13.2877 21.8736Z" fill="white"/>
<path d="M13.2877 21.8736L13.8566 23.791L14.0811 23.7244L14.284 23.6078L13.2877 21.8736ZM17.774 23.8459L15.8557 24.4118L15.9032 24.5725L15.9767 24.7232L17.774 23.8459ZM16.0424 17.9756L17.9607 17.4097L15.8733 10.3334L14.101 17.4951L16.0424 17.9756ZM14.9229 20.5917L13.3523 19.3534L14.9229 20.5917ZM12.7155 24.8059C12.9338 24.2957 13.3579 23.939 13.8566 23.791L12.7188 19.9562C11.1283 20.4282 9.74423 21.5821 9.03811 23.2322L12.7155 24.8059ZM13.6591 27.1612C12.7482 26.7714 12.3257 25.7168 12.7155 24.8059L9.03811 23.2322C7.77914 26.1741 9.14348 29.5797 12.0854 30.8386L13.6591 27.1612ZM16.0145 26.2176C15.6247 27.1286 14.5701 27.5511 13.6591 27.1612L12.0854 30.8386C15.0274 32.0976 18.433 30.7333 19.6919 27.7913L16.0145 26.2176ZM15.9767 24.7232C16.1995 25.1797 16.2279 25.7189 16.0145 26.2176L19.6919 27.7913C20.3818 26.1792 20.2824 24.4253 19.5713 22.9686L15.9767 24.7232ZM14.1241 18.5414L15.8557 24.4118L19.6923 23.2801L17.9607 17.4097L14.1241 18.5414ZM16.4934 21.83C17.0517 21.1219 17.4194 20.2044 17.6249 19.6268C17.7384 19.3078 17.826 19.023 17.8855 18.8172C17.9155 18.7136 17.9388 18.6283 17.9552 18.5666C17.9634 18.5357 17.97 18.5106 17.9747 18.492C17.9771 18.4827 17.9791 18.475 17.9806 18.469C17.9813 18.466 17.982 18.4634 17.9825 18.4612C17.9828 18.4601 17.983 18.4592 17.9833 18.4583C17.9834 18.4579 17.9835 18.4575 17.9836 18.4571C17.9836 18.4569 17.9837 18.4566 17.9837 18.4566C17.9838 18.4563 17.9838 18.456 16.0424 17.9756C14.101 17.4951 14.101 17.4949 14.1011 17.4947C14.1011 17.4946 14.1011 17.4944 14.1012 17.4942C14.1013 17.494 14.1013 17.4937 14.1014 17.4935C14.1015 17.493 14.1016 17.4927 14.1016 17.4925C14.1017 17.492 14.1018 17.4919 14.1017 17.4922C14.1015 17.4929 14.101 17.495 14.1 17.4987C14.0981 17.5061 14.0947 17.5193 14.0898 17.5378C14.0799 17.5749 14.0642 17.6326 14.0429 17.7061C14 17.8545 13.9367 18.0601 13.8563 18.286C13.6741 18.7983 13.482 19.1889 13.3523 19.3534L16.4934 21.83ZM14.284 23.6078C14.9086 23.249 15.8526 22.6428 16.4934 21.83L13.3523 19.3534C13.2109 19.5328 12.8356 19.8268 12.2914 20.1394L14.284 23.6078Z" fill="white" mask="url(#path-5-inside-3_44_2)"/>
</g>
<defs>
<clipPath id="clip0_44_2">
<rect width="32" height="32" fill="white"/>
</clipPath>
</defs>
</svg>
