<svg width="32" height="32" viewBox="0 0 32 32" fill="none" xmlns="http://www.w3.org/2000/svg">
<mask id="path-1-outside-1_330_705" maskUnits="userSpaceOnUse" x="1.69028" y="3.03395" width="28" height="25" fill="black">
<rect fill="white" x="1.69028" y="3.03395" width="28" height="25"/>
<path fill-rule="evenodd" clip-rule="evenodd" d="M13.2393 4.03395C12.1347 4.03395 11.2393 4.92938 11.2393 6.03395V12.1276H9.02056C7.06691 12.1276 5.39909 13.5389 5.07573 15.4656L3.73241 23.4695C3.42534 25.2991 4.83583 26.9661 6.69103 26.9661H11.2393H13.9372H25.1998C27.0652 26.9661 28.4783 25.2817 28.1542 23.4447L25.3119 7.33881C24.9746 5.42738 23.3138 4.03395 21.3728 4.03395H13.2393Z"/>
</mask>
<path d="M11.2393 12.1276V13.1276H12.2393V12.1276H11.2393ZM5.07573 15.4656L4.08952 15.3L5.07573 15.4656ZM3.73241 23.4695L2.7462 23.304L3.73241 23.4695ZM28.1542 23.4447L29.1389 23.2709V23.2709L28.1542 23.4447ZM25.3119 7.33881L24.3272 7.51259V7.5126L25.3119 7.33881ZM12.2393 6.03395C12.2393 5.48167 12.687 5.03395 13.2393 5.03395V3.03395C11.5824 3.03395 10.2393 4.37709 10.2393 6.03395H12.2393ZM12.2393 12.1276V6.03395H10.2393V12.1276H12.2393ZM11.2393 11.1276H9.02056V13.1276H11.2393V11.1276ZM9.02056 11.1276C6.5785 11.1276 4.49372 12.8917 4.08952 15.3L6.06193 15.6311C6.30445 14.1861 7.55532 13.1276 9.02056 13.1276V11.1276ZM4.08952 15.3L2.7462 23.304L4.71861 23.635L6.06193 15.6311L4.08952 15.3ZM2.7462 23.304C2.33678 25.7435 4.21744 27.9661 6.69103 27.9661V25.9661C5.45423 25.9661 4.5139 24.8548 4.71861 23.635L2.7462 23.304ZM6.69103 27.9661H11.2393V25.9661H6.69103V27.9661ZM11.2393 27.9661H13.9372V25.9661H11.2393V27.9661ZM25.1998 25.9661H13.9372V27.9661H25.1998V25.9661ZM27.1694 23.6185C27.3855 24.8432 26.4434 25.9661 25.1998 25.9661V27.9661C27.687 27.9661 29.5712 25.7203 29.1389 23.2709L27.1694 23.6185ZM24.3272 7.5126L27.1694 23.6185L29.1389 23.2709L26.2967 7.16502L24.3272 7.5126ZM21.3728 5.03395C22.8285 5.03395 24.0742 6.07902 24.3272 7.51259L26.2967 7.16502C25.8751 4.77574 23.799 3.03395 21.3728 3.03395V5.03395ZM13.2393 5.03395H21.3728V3.03395H13.2393V5.03395Z" fill="white" mask="url(#path-1-outside-1_330_705)"/>
<path d="M6.76 23L10.132 14.6H12.172L15.52 23H12.952L11.608 19.328C11.52 19.08 11.444 18.868 11.38 18.692C11.316 18.516 11.26 18.352 11.212 18.2C11.164 18.04 11.116 17.872 11.068 17.696C11.02 17.512 10.972 17.296 10.924 17.048H11.332C11.284 17.296 11.236 17.512 11.188 17.696C11.14 17.872 11.088 18.04 11.032 18.2C10.984 18.352 10.924 18.516 10.852 18.692C10.788 18.868 10.712 19.08 10.624 19.328L9.28 23H6.76ZM8.44 21.752L9.196 19.988H13.096L13.78 21.752H8.44ZM18.156 23.132C17.668 23.132 17.256 23.032 16.92 22.832C16.584 22.632 16.328 22.34 16.152 21.956C15.976 21.564 15.888 21.092 15.888 20.54V16.58H18.324V20.336C18.324 20.512 18.352 20.66 18.408 20.78C18.472 20.9 18.56 20.992 18.672 21.056C18.784 21.12 18.92 21.152 19.08 21.152C19.2 21.152 19.308 21.136 19.404 21.104C19.508 21.064 19.596 21.008 19.668 20.936C19.74 20.864 19.796 20.784 19.836 20.696C19.876 20.6 19.896 20.5 19.896 20.396V16.58H22.332V23H20.1L19.956 21.704L20.412 21.56C20.324 21.864 20.168 22.136 19.944 22.376C19.728 22.608 19.464 22.792 19.152 22.928C18.84 23.064 18.508 23.132 18.156 23.132Z" fill="white"/>
</svg>
