<svg width="32" height="32" viewBox="0 0 32 32" fill="none" xmlns="http://www.w3.org/2000/svg">
<rect x="3" y="3" width="26" height="26" rx="2" stroke="white" stroke-width="2"/>
<mask id="path-2-outside-1_330_705" maskUnits="userSpaceOnUse" x="5" y="6" width="21" height="19" fill="black">
<rect fill="white" x="5" y="6" width="21" height="19"/>
<path fill-rule="evenodd" clip-rule="evenodd" d="M14.4553 7C13.3507 7 12.4553 7.89543 12.4553 9V13H11.6861C9.73243 13 8.0646 14.4112 7.74124 16.3379L7.04213 20.5034C6.73506 22.3331 8.14556 24 10.0008 24H12.4553H14.4553H21.8795C23.7449 24 25.1581 22.3157 24.8339 20.4786L23.0385 10.3049C22.7012 8.39343 21.0403 7 19.0994 7H14.4553Z"/>
</mask>
<path d="M12.4553 13V14H13.4553V13H12.4553ZM7.74124 16.3379L6.75503 16.1724H6.75503L7.74124 16.3379ZM7.04213 20.5034L8.02834 20.669L7.04213 20.5034ZM24.8339 20.4786L25.8187 20.3049L24.8339 20.4786ZM23.0385 10.3049L24.0233 10.1311V10.1311L23.0385 10.3049ZM13.4553 9C13.4553 8.44772 13.903 8 14.4553 8V6C12.7984 6 11.4553 7.34315 11.4553 9H13.4553ZM13.4553 13V9H11.4553V13H13.4553ZM12.4553 12H11.6861V14H12.4553V12ZM11.6861 12C9.24402 12 7.15923 13.764 6.75503 16.1724L8.72745 16.5034C8.96997 15.0584 10.2208 14 11.6861 14V12ZM6.75503 16.1724L6.05592 20.3379L8.02834 20.669L8.72745 16.5034L6.75503 16.1724ZM6.05592 20.3379C5.6465 22.7774 7.52716 25 10.0008 25V23C8.76395 23 7.82363 21.8887 8.02834 20.669L6.05592 20.3379ZM10.0008 25H12.4553V23H10.0008V25ZM12.4553 25H14.4553V23H12.4553V25ZM21.8795 23H14.4553V25H21.8795V23ZM23.8491 20.6524C24.0652 21.8771 23.1231 23 21.8795 23V25C24.3667 25 26.2509 22.7542 25.8187 20.3049L23.8491 20.6524ZM22.0537 10.4786L23.8491 20.6524L25.8187 20.3049L24.0233 10.1311L22.0537 10.4786ZM19.0994 8C20.5551 8 21.8007 9.04507 22.0537 10.4786L24.0233 10.1311C23.6017 7.74179 21.5256 6 19.0994 6V8ZM14.4553 8H19.0994V6H14.4553V8Z" fill="white" mask="url(#path-2-outside-1_330_705)"/>
<path fill-rule="evenodd" clip-rule="evenodd" d="M13.8462 11L15.5782 10L16.7896 12.0982C17.0343 12.0339 17.29 12 17.5518 12H18.4424C19.6044 12 20.662 12.6711 21.1568 13.7226L23.7439 19.2201C24.1203 20.02 24.0733 20.9549 23.6184 21.7129C23.1393 22.5114 22.2764 23 21.3452 23H16.0085C14.7172 23 13.5639 22.1532 13.1556 20.9281C12.9564 20.3307 12.9473 19.6765 13.1351 19.0754L14.6883 14.1052C14.7889 13.7834 14.9402 13.488 15.1317 13.2266L13.8462 11ZM18.3262 21.43C18.4329 21.39 18.5162 21.3267 18.5762 21.24C18.6229 21.16 18.6462 21.0633 18.6462 20.95C18.6462 20.9433 18.6429 20.9167 18.6362 20.87C18.6362 20.8167 18.6329 20.7633 18.6262 20.71V20.57C18.6329 20.5233 18.6395 20.5 18.6462 20.5C18.7795 20.4733 18.9162 20.4467 19.0562 20.42C19.1962 20.3867 19.3229 20.3533 19.4362 20.32C19.5495 20.2667 19.6529 20.2167 19.7462 20.17C19.8395 20.1167 19.9262 20.0533 20.0062 19.98C20.0862 19.9133 20.1595 19.84 20.2262 19.76C20.2929 19.68 20.3529 19.5933 20.4062 19.5C20.4995 19.2867 20.5495 19.0533 20.5562 18.8C20.5695 18.42 20.4862 18.0667 20.3062 17.74C20.1329 17.4067 19.8595 17.1633 19.4862 17.01C19.3729 16.9633 19.2395 16.91 19.0862 16.85C18.9329 16.7833 18.7862 16.73 18.6462 16.69V15.31C18.7995 15.3233 18.9495 15.36 19.0962 15.42C19.2495 15.4733 19.3829 15.5267 19.4962 15.58C19.5829 15.6267 19.6729 15.6767 19.7662 15.73C19.8595 15.7767 19.9595 15.7933 20.0662 15.78C20.1595 15.7667 20.2395 15.7167 20.3062 15.63C20.3729 15.5433 20.4095 15.4533 20.4162 15.36C20.4229 15.1867 20.3795 15.0433 20.2862 14.93C20.1995 14.81 20.0829 14.7033 19.9362 14.61C19.7495 14.5033 19.5395 14.4167 19.3062 14.35C19.0795 14.2767 18.8595 14.2167 18.6462 14.17C18.6462 14.0767 18.6429 13.9933 18.6362 13.92C18.6295 13.8533 18.6229 13.7933 18.6162 13.74V13.63C18.5695 13.51 18.4995 13.4267 18.4062 13.38C18.3129 13.3333 18.2062 13.3033 18.0862 13.29C17.9529 13.2767 17.8529 13.2933 17.7862 13.34C17.7195 13.3867 17.6462 13.4667 17.5662 13.58C17.5129 13.6533 17.4862 13.7433 17.4862 13.85V14.14C17.3529 14.1533 17.1995 14.1733 17.0262 14.2C16.8529 14.2267 16.7095 14.2667 16.5962 14.32C16.4762 14.3733 16.3629 14.4267 16.2562 14.48C16.1562 14.5333 16.0662 14.6 15.9862 14.68C15.8062 14.8267 15.6762 15 15.5962 15.2C15.5562 15.3 15.5229 15.41 15.4962 15.53C15.4695 15.6433 15.4562 15.7667 15.4562 15.9C15.4562 16.0533 15.4729 16.1933 15.5062 16.32C15.5395 16.44 15.5895 16.56 15.6562 16.68C15.7895 16.92 16.0029 17.0967 16.2962 17.21C16.3495 17.2433 16.4095 17.2733 16.4762 17.3C16.5495 17.32 16.6295 17.3467 16.7162 17.38C16.8095 17.4067 16.9295 17.4367 17.0762 17.47C17.2295 17.5033 17.3662 17.54 17.4862 17.58V19.32C17.3129 19.2933 17.1229 19.2567 16.9162 19.21C16.7162 19.1567 16.5395 19.1 16.3862 19.04C16.3262 19.0133 16.2662 18.9767 16.2062 18.93C16.1462 18.8767 16.0862 18.83 16.0262 18.79C15.9662 18.75 15.9029 18.72 15.8362 18.7C15.7695 18.6733 15.7029 18.67 15.6362 18.69C15.5362 18.71 15.4562 18.7533 15.3962 18.82C15.3429 18.8867 15.3029 18.9633 15.2762 19.05C15.2562 19.1367 15.2495 19.2267 15.2562 19.32C15.2695 19.4067 15.2929 19.49 15.3262 19.57C15.3662 19.6767 15.4262 19.77 15.5062 19.85C15.5929 19.9233 15.6862 19.99 15.7862 20.05C15.8862 20.1033 15.9895 20.1533 16.0962 20.2C16.2095 20.24 16.3162 20.28 16.4162 20.32C16.5695 20.3733 16.7462 20.42 16.9462 20.46C17.1529 20.4933 17.3329 20.52 17.4862 20.54V20.62C17.4929 20.6733 17.4962 20.7333 17.4962 20.8C17.5029 20.86 17.5062 20.92 17.5062 20.98C17.5129 21.04 17.5195 21.0767 17.5262 21.09C17.5529 21.2033 17.6095 21.29 17.6962 21.35C17.7895 21.4167 17.8895 21.4567 17.9962 21.47C18.1095 21.4833 18.2195 21.47 18.3262 21.43ZM16.8462 16.13C16.8062 16.0633 16.7829 16.0033 16.7762 15.95C16.7429 15.7233 16.7962 15.5633 16.9362 15.47C17.0829 15.37 17.2662 15.3133 17.4862 15.3V16.43C17.3862 16.4167 17.2929 16.4 17.2062 16.38C17.1195 16.3533 17.0462 16.32 16.9862 16.28C16.9329 16.24 16.8862 16.19 16.8462 16.13ZM19.3462 18.39C19.3995 18.4633 19.4329 18.5433 19.4462 18.63C19.4595 18.7433 19.4429 18.8467 19.3962 18.94C19.3562 19.0333 19.2995 19.1133 19.2262 19.18C19.1529 19.24 19.0662 19.2867 18.9662 19.32C18.8662 19.3467 18.7662 19.3533 18.6662 19.34C18.6729 19.1067 18.6695 18.8733 18.6562 18.64C18.6495 18.4 18.6462 18.1633 18.6462 17.93C18.7329 17.95 18.8195 17.9833 18.9062 18.03C18.9995 18.07 19.0829 18.12 19.1562 18.18C19.2362 18.24 19.2995 18.31 19.3462 18.39Z" fill="white"/>
</svg>
