<svg width="32" height="32" viewBox="0 0 32 32" fill="none" xmlns="http://www.w3.org/2000/svg">
<path fill-rule="evenodd" clip-rule="evenodd" d="M14.1543 12.3641L16.517 11L18.101 13.7437C18.2016 13.7334 18.3033 13.7282 18.406 13.7282H21.1171C22.2792 13.7282 23.3368 14.3993 23.8316 15.4508L27.7958 23.8748C28.2218 24.7799 28.1685 25.8378 27.6538 26.6957L27.3051 27.2768C26.7629 28.1805 25.7864 28.7333 24.7326 28.7333H16.3165C15.0253 28.7333 13.8788 27.9071 13.4705 26.682L13.0965 25.56C12.8973 24.9625 12.8913 24.3176 13.0791 23.7165L15.5426 15.8334C15.6095 15.6192 15.6989 15.4166 15.8078 15.228L14.1543 12.3641ZM22.2783 25.8634C22.4145 25.7804 22.5124 25.6714 22.5721 25.5364C22.6152 25.4141 22.6219 25.2751 22.5921 25.1192C22.5903 25.1101 22.5787 25.0743 22.5573 25.0119C22.5433 24.9385 22.5246 24.8661 22.5015 24.7945L22.4646 24.602C22.4615 24.5361 22.4646 24.5022 22.4737 24.5005C22.65 24.4287 22.831 24.3561 23.0165 24.2826C23.2002 24.2 23.3656 24.1208 23.5127 24.0452C23.6545 23.942 23.7834 23.8461 23.8995 23.7574C24.0138 23.6595 24.1163 23.5496 24.207 23.4277C24.2995 23.315 24.3811 23.1949 24.4517 23.0673C24.5223 22.9398 24.582 22.8048 24.6308 22.6625C24.7031 22.3446 24.7104 22.0106 24.653 21.6605C24.5714 21.1344 24.3638 20.6705 24.0304 20.2687C23.7044 19.8559 23.2645 19.5932 22.7108 19.4805C22.5427 19.4462 22.3453 19.4079 22.1187 19.3657C21.8903 19.3144 21.6746 19.2796 21.4716 19.2614L21.1086 17.3638C21.323 17.3418 21.5389 17.3528 21.7564 17.3967C21.9812 17.4297 22.1786 17.468 22.3485 17.5115C22.4799 17.5529 22.6168 17.598 22.7592 17.6468C22.8998 17.6864 23.0417 17.683 23.1849 17.6366C23.3097 17.5938 23.4065 17.504 23.4754 17.3673C23.5443 17.2305 23.571 17.0971 23.5557 16.967C23.5192 16.727 23.422 16.5413 23.2638 16.41C23.1131 16.2677 22.9246 16.1518 22.6984 16.062C22.4136 15.9644 22.1021 15.9005 21.7637 15.8702C21.4327 15.829 21.1144 15.8043 20.8088 15.7963C20.7842 15.6679 20.7577 15.5542 20.7293 15.4551C20.7026 15.3652 20.6776 15.2845 20.6544 15.2129L20.6255 15.0616C20.5298 14.9089 20.4116 14.8127 20.271 14.7731C20.1304 14.7335 19.9758 14.7203 19.8073 14.7335C19.6204 14.7502 19.4873 14.7994 19.4079 14.8812C19.3285 14.9629 19.2487 15.0921 19.1685 15.269C19.1145 15.3839 19.1015 15.5147 19.1295 15.6613L19.2058 16.0601C19.026 16.1135 18.8204 16.1813 18.5891 16.2636C18.3577 16.3459 18.1712 16.4386 18.0294 16.5417C17.8784 16.6466 17.7366 16.7498 17.6039 16.8512C17.4804 16.9508 17.3742 17.0661 17.2852 17.1972C17.0763 17.4462 16.9431 17.7187 16.8857 18.0148C16.857 18.1628 16.8401 18.3229 16.835 18.4949C16.8282 18.6577 16.8423 18.8308 16.8773 19.0142C16.9177 19.225 16.9774 19.4131 17.0566 19.5786C17.134 19.7348 17.2343 19.8866 17.3575 20.0341C17.604 20.3291 17.9438 20.5159 18.377 20.5946C18.4591 20.6264 18.5495 20.6519 18.6481 20.671C18.7542 20.6792 18.8713 20.6948 18.9992 20.7179C19.1346 20.73 19.3075 20.7397 19.5179 20.7469C19.7375 20.7524 19.9351 20.7669 20.1106 20.7904L20.5683 23.183C20.3229 23.1919 20.052 23.1915 19.7555 23.1816C19.4665 23.1609 19.2087 23.1295 18.982 23.0873C18.8925 23.0664 18.8004 23.0318 18.7056 22.9834C18.6091 22.9258 18.5143 22.8774 18.4213 22.8382C18.3282 22.799 18.2333 22.7744 18.1363 22.7644C18.0376 22.7453 17.9451 22.7582 17.8587 22.8033C17.7264 22.8571 17.6278 22.9377 17.5629 23.0452C17.5071 23.1509 17.4722 23.2668 17.4583 23.393C17.4536 23.5174 17.4681 23.6429 17.5019 23.7695C17.543 23.8852 17.597 23.9936 17.6639 24.0949C17.7469 24.231 17.854 24.3436 17.985 24.4326C18.1235 24.5106 18.2694 24.5777 18.4227 24.6339C18.5742 24.681 18.7294 24.7225 18.8884 24.7586C19.0547 24.7838 19.2119 24.8108 19.36 24.8395C19.5848 24.8725 19.84 24.8902 20.1256 24.8926C20.4185 24.8841 20.6731 24.8734 20.8892 24.8606L20.9102 24.9706C20.9334 25.0422 20.9538 25.1238 20.9713 25.2155C20.9962 25.2962 21.0166 25.3778 21.0324 25.4603C21.0573 25.5411 21.0761 25.5898 21.0888 25.6063C21.1553 25.7552 21.256 25.8594 21.391 25.9191C21.5368 25.9863 21.6849 26.015 21.8351 26.0052C21.9944 25.9938 22.1422 25.9465 22.2783 25.8634ZM18.8492 18.9648C18.7767 18.8837 18.7288 18.8073 18.7056 18.7357C18.6001 18.4328 18.6314 18.1988 18.7994 18.0336C18.9747 17.8575 19.2119 17.7314 19.5109 17.6552L19.8081 19.209C19.6671 19.217 19.5344 19.2186 19.41 19.2139C19.2838 19.2 19.1742 19.1735 19.0812 19.1343C18.9973 19.0933 18.92 19.0368 18.8492 18.9648ZM22.8813 21.4149C22.9739 21.5018 23.0408 21.603 23.0819 21.7187C23.1301 21.871 23.1343 22.0175 23.0947 22.1581C23.0643 22.2969 23.0074 22.4219 22.9241 22.5328C22.839 22.6346 22.7321 22.7216 22.6034 22.7937C22.4729 22.8567 22.3371 22.8922 22.1961 22.9001C22.1439 22.5775 22.078 22.2575 21.9983 21.9402C21.926 21.6119 21.8591 21.2874 21.7978 20.9665C21.9222 20.9712 22.0501 20.9943 22.1816 21.0357C22.3204 21.0661 22.4482 21.1129 22.5648 21.1762C22.6906 21.2376 22.7961 21.3172 22.8813 21.4149Z" fill="white"/>
<mask id="path-2-outside-1_330_705" maskUnits="userSpaceOnUse" x="1.69028" y="3.03395" width="28" height="25" fill="black">
<rect fill="white" x="1.69028" y="3.03395" width="28" height="25"/>
<path fill-rule="evenodd" clip-rule="evenodd" d="M13.2393 4.03395C12.1347 4.03395 11.2393 4.92938 11.2393 6.03395V12.1276H9.02056C7.06691 12.1276 5.39909 13.5389 5.07573 15.4656L3.73241 23.4695C3.42534 25.2991 4.83583 26.9661 6.69103 26.9661H11.2393H13.9372H25.1998C27.0652 26.9661 28.4783 25.2817 28.1542 23.4447L25.3119 7.33881C24.9746 5.42738 23.3138 4.03395 21.3728 4.03395H13.2393Z"/>
</mask>
<path d="M11.2393 12.1276V13.1276H12.2393V12.1276H11.2393ZM5.07573 15.4656L4.08952 15.3L5.07573 15.4656ZM3.73241 23.4695L2.7462 23.304L3.73241 23.4695ZM28.1542 23.4447L29.1389 23.2709L29.1389 23.2709L28.1542 23.4447ZM25.3119 7.33881L24.3272 7.51259L24.3272 7.5126L25.3119 7.33881ZM12.2393 6.03395C12.2393 5.48167 12.687 5.03395 13.2393 5.03395V3.03395C11.5824 3.03395 10.2393 4.37709 10.2393 6.03395H12.2393ZM12.2393 12.1276V6.03395H10.2393V12.1276H12.2393ZM11.2393 11.1276H9.02056V13.1276H11.2393V11.1276ZM9.02056 11.1276C6.5785 11.1276 4.49372 12.8917 4.08952 15.3L6.06193 15.6311C6.30445 14.1861 7.55532 13.1276 9.02056 13.1276V11.1276ZM4.08952 15.3L2.7462 23.304L4.71861 23.635L6.06193 15.6311L4.08952 15.3ZM2.7462 23.304C2.33678 25.7435 4.21744 27.9661 6.69103 27.9661V25.9661C5.45423 25.9661 4.5139 24.8548 4.71861 23.635L2.7462 23.304ZM6.69103 27.9661H11.2393V25.9661H6.69103V27.9661ZM11.2393 27.9661H13.9372V25.9661H11.2393V27.9661ZM25.1998 25.9661H13.9372V27.9661H25.1998V25.9661ZM27.1694 23.6185C27.3855 24.8432 26.4434 25.9661 25.1998 25.9661V27.9661C27.687 27.9661 29.5712 25.7203 29.1389 23.2709L27.1694 23.6185ZM24.3272 7.5126L27.1694 23.6185L29.1389 23.2709L26.2967 7.16502L24.3272 7.5126ZM21.3728 5.03395C22.8285 5.03395 24.0742 6.07902 24.3272 7.51259L26.2967 7.16502C25.8751 4.77574 23.799 3.03395 21.3728 3.03395V5.03395ZM13.2393 5.03395H21.3728V3.03395H13.2393V5.03395Z" fill="white" mask="url(#path-2-outside-1_330_705)"/>
</svg>
