<svg width="32" height="32" viewBox="0 0 32 32" fill="none" xmlns="http://www.w3.org/2000/svg">
<mask id="path-1-outside-1_398_142" maskUnits="userSpaceOnUse" x="1.69028" y="3.03395" width="28" height="25" fill="black">
<rect fill="white" x="1.69028" y="3.03395" width="28" height="25"/>
<path fill-rule="evenodd" clip-rule="evenodd" d="M13.2393 4.03395C12.1347 4.03395 11.2393 4.92938 11.2393 6.03395V12.1276H9.02056C7.06691 12.1276 5.39909 13.5389 5.07573 15.4656L3.73241 23.4695C3.42534 25.2991 4.83583 26.9661 6.69103 26.9661H11.2393H13.9372H25.1998C27.0652 26.9661 28.4783 25.2817 28.1542 23.4447L25.3119 7.33881C24.9746 5.42738 23.3138 4.03395 21.3728 4.03395H13.2393Z"/>
</mask>
<path d="M11.2393 12.1276V13.1276H12.2393V12.1276H11.2393ZM5.07573 15.4656L4.08952 15.3L5.07573 15.4656ZM3.73241 23.4695L2.7462 23.304L3.73241 23.4695ZM28.1542 23.4447L29.1389 23.2709V23.2709L28.1542 23.4447ZM25.3119 7.33881L24.3272 7.51259V7.5126L25.3119 7.33881ZM12.2393 6.03395C12.2393 5.48167 12.687 5.03395 13.2393 5.03395V3.03395C11.5824 3.03395 10.2393 4.37709 10.2393 6.03395H12.2393ZM12.2393 12.1276V6.03395H10.2393V12.1276H12.2393ZM11.2393 11.1276H9.02056V13.1276H11.2393V11.1276ZM9.02056 11.1276C6.5785 11.1276 4.49372 12.8917 4.08952 15.3L6.06193 15.6311C6.30445 14.1861 7.55532 13.1276 9.02056 13.1276V11.1276ZM4.08952 15.3L2.7462 23.304L4.71861 23.635L6.06193 15.6311L4.08952 15.3ZM2.7462 23.304C2.33678 25.7435 4.21744 27.9661 6.69103 27.9661V25.9661C5.45423 25.9661 4.5139 24.8548 4.71861 23.635L2.7462 23.304ZM6.69103 27.9661H11.2393V25.9661H6.69103V27.9661ZM11.2393 27.9661H13.9372V25.9661H11.2393V27.9661ZM25.1998 25.9661H13.9372V27.9661H25.1998V25.9661ZM27.1694 23.6185C27.3855 24.8432 26.4434 25.9661 25.1998 25.9661V27.9661C27.687 27.9661 29.5712 25.7203 29.1389 23.2709L27.1694 23.6185ZM24.3272 7.5126L27.1694 23.6185L29.1389 23.2709L26.2967 7.16502L24.3272 7.5126ZM21.3728 5.03395C22.8285 5.03395 24.0742 6.07902 24.3272 7.51259L26.2967 7.16502C25.8751 4.77574 23.799 3.03395 21.3728 3.03395V5.03395ZM13.2393 5.03395H21.3728V3.03395H13.2393V5.03395Z" fill="white" mask="url(#path-1-outside-1_398_142)"/>
<path d="M7.96 23V14.6H10.552V23H7.96ZM9.196 20.048V18.008H13.552V20.048H9.196ZM9.196 16.808V14.6H13.996V16.808H9.196ZM18.3308 23.12C17.5868 23.12 16.9468 22.976 16.4108 22.688C15.8748 22.4 15.4628 22.008 15.1748 21.512C14.8868 21.008 14.7428 20.432 14.7428 19.784C14.7428 19.304 14.8228 18.86 14.9828 18.452C15.1428 18.044 15.3668 17.692 15.6548 17.396C15.9508 17.092 16.2948 16.86 16.6868 16.7C17.0868 16.532 17.5228 16.448 17.9948 16.448C18.4668 16.448 18.8948 16.532 19.2788 16.7C19.6708 16.86 20.0068 17.092 20.2868 17.396C20.5668 17.692 20.7788 18.044 20.9228 18.452C21.0748 18.86 21.1428 19.304 21.1268 19.784L21.1148 20.288H16.0868L15.8108 19.148H19.1828L18.9548 19.388V19.172C18.9548 19.02 18.9148 18.888 18.8348 18.776C18.7628 18.656 18.6588 18.564 18.5228 18.5C18.3868 18.436 18.2268 18.404 18.0428 18.404C17.8108 18.404 17.6148 18.452 17.4548 18.548C17.2948 18.644 17.1708 18.78 17.0828 18.956C17.0028 19.132 16.9628 19.344 16.9628 19.592C16.9628 19.88 17.0228 20.132 17.1428 20.348C17.2708 20.564 17.4548 20.732 17.6948 20.852C17.9428 20.972 18.2468 21.032 18.6068 21.032C18.8468 21.032 19.0508 21.004 19.2188 20.948C19.3948 20.884 19.5788 20.784 19.7708 20.648L20.8868 22.22C20.5908 22.452 20.2988 22.632 20.0108 22.76C19.7308 22.888 19.4508 22.98 19.1708 23.036C18.8988 23.092 18.6188 23.12 18.3308 23.12Z" fill="white"/>
</svg>
