<svg width="32" height="32" viewBox="0 0 32 32" fill="none" xmlns="http://www.w3.org/2000/svg">
<rect x="3" y="3" width="26" height="26" rx="2" stroke="white" stroke-width="2"/>
<path fill-rule="evenodd" clip-rule="evenodd" d="M27.5906 17.2959C27.2428 18.989 26.0314 20.388 24.385 20.9664L18.6856 22.9687C18.2446 23.1236 17.787 23.2265 17.3221 23.2752L12.5929 23.7707C9.75379 24.0682 7.09821 22.3242 6.24314 19.6006L5.56426 17.4382C5.48196 17.1761 5.4181 16.9097 5.37267 16.641C5.21536 17.5716 5.27922 18.5304 5.56425 19.4382L6.24314 21.6006C7.09821 24.3242 9.75379 26.0682 12.5929 25.7707L17.3221 25.2752C17.787 25.2265 18.2446 25.1236 18.6856 24.9687L24.385 22.9665C26.1403 22.3498 27.4011 20.8004 27.6481 18.9564C27.7244 18.3867 27.7007 17.8275 27.5906 17.2959Z" fill="white"/>
<path fill-rule="evenodd" clip-rule="evenodd" d="M27.6481 14.9564C28.0208 12.1745 26.0066 9.64025 23.2123 9.37536L17.8225 8.86442C17.2352 8.80874 16.6592 8.66674 16.1133 8.44299L13.7564 7.47699C10.5048 6.1443 6.80908 7.87879 5.75646 11.2316L5.56425 11.8438C5.19693 13.0138 5.19693 14.2682 5.56425 15.4382L6.24314 17.6006C7.09821 20.3242 9.75379 22.0682 12.5929 21.7707L17.3221 21.2752C17.787 21.2265 18.2446 21.1236 18.6856 20.9687L24.385 18.9665C26.1403 18.3498 27.4011 16.8004 27.6481 14.9564ZM11.5 16C12.8807 16 14 15.1046 14 14C14 12.8954 12.8807 12 11.5 12C10.1193 12 9 12.8954 9 14C9 15.1046 10.1193 16 11.5 16Z" fill="white"/>
</svg>
