<svg width="32" height="32" viewBox="0 0 32 32" fill="none" xmlns="http://www.w3.org/2000/svg">
<path d="M6 23.2819C6 21.7057 7.20054 20.3888 8.77007 20.2435L22.9488 18.9307C25.1231 18.7293 27 20.4405 27 22.6241V22.6241C27 24.6727 25.3393 26.3333 23.2908 26.3333H9.05141C7.36616 26.3333 6 24.9672 6 23.2819V23.2819Z" stroke="white" stroke-width="2"/>
<path d="M9 16.107C9 14.4281 10.4245 13.1017 12.0991 13.2214L20.5953 13.8282C21.9502 13.925 23 15.0524 23 16.4108V16.4108C23 17.8408 21.8408 19 20.4108 19H11.893C10.2952 19 9 17.7048 9 16.107V16.107Z" stroke="white" stroke-width="2"/>
<path d="M12.2222 7.66667H13.7778C16.7847 7.66667 19.2222 10.1042 19.2222 13.1111V13.1111H15.2222C13.5654 13.1111 12.2222 11.768 12.2222 10.1111V7.66667Z" stroke="white" stroke-width="2"/>
</svg>
