<svg width="32" height="32" viewBox="0 0 32 32" fill="none" xmlns="http://www.w3.org/2000/svg">
<path d="M17.9602 13.9602C17.9602 16.352 17.2593 18.4969 16.151 20.0314C15.0423 21.5665 13.5542 22.4602 11.9602 22.4602C10.3662 22.4602 8.87802 21.5665 7.76932 20.0314C6.6611 18.4969 5.96017 16.352 5.96017 13.9602C5.96017 11.5683 6.6611 9.4234 7.76932 7.88894C8.87802 6.35381 10.3662 5.46015 11.9602 5.46015C13.5542 5.46015 15.0423 6.35381 16.151 7.88894C17.2593 9.4234 17.9602 11.5683 17.9602 13.9602Z" stroke="white"/>
<path d="M16.2028 18.2028C14.5115 19.8941 12.4992 20.9151 10.6306 21.2165C8.76108 21.5181 7.07689 21.0977 5.94976 19.9706C4.82263 18.8434 4.40226 17.1592 4.70379 15.2898C5.00519 13.4211 6.02623 11.4088 7.71753 9.71751C9.40883 8.02621 11.4211 7.00517 13.2898 6.70378C15.1593 6.40225 16.8434 6.82262 17.9706 7.94975C19.0977 9.07688 19.5181 10.7611 19.2165 12.6305C18.9152 14.4992 17.8941 16.5115 16.2028 18.2028Z" stroke="white"/>
<path d="M15.5031 17.503C12.9258 20.0803 9.08518 20.171 6.91727 18.0031C4.74936 15.8351 4.84006 11.9945 7.41728 9.41726C9.9945 6.84004 13.8352 6.74935 16.0031 8.91726C18.171 11.0852 18.0803 14.9258 15.5031 17.503Z" stroke="white" stroke-width="2"/>
<path d="M17.7239 12.7736C17.7239 12.7736 13.3451 19.4295 15.3623 22.9956C16.1837 24.4477 16.9227 25.2309 18.4074 25.9917C21.155 27.3997 26.2627 25.1003 26.2627 25.1003" stroke="white"/>
<path d="M23.7338 25.8913L25.6824 23.2663L26.9814 25.5163L23.7338 25.8913Z" fill="white"/>
<rect x="3" y="3" width="26" height="26" rx="2" stroke="white" stroke-width="2"/>
</svg>
