<svg width="32" height="32" viewBox="0 0 32 32" fill="none" xmlns="http://www.w3.org/2000/svg">
<mask id="path-1-outside-1_433_2" maskUnits="userSpaceOnUse" x="1.69031" y="3.03395" width="28" height="25" fill="black">
<rect fill="white" x="1.69031" y="3.03395" width="28" height="25"/>
<path fill-rule="evenodd" clip-rule="evenodd" d="M13.2393 4.03395C12.1347 4.03395 11.2393 4.92938 11.2393 6.03395V12.1276H9.02059C7.06695 12.1276 5.39912 13.5389 5.07576 15.4656L3.73244 23.4695C3.42537 25.2991 4.83586 26.9661 6.69106 26.9661H11.2393H13.9372H25.1998C27.0652 26.9661 28.4784 25.2817 28.1542 23.4447L25.312 7.33881C24.9747 5.42738 23.3138 4.03395 21.3728 4.03395H13.2393Z"/>
</mask>
<path d="M11.2393 12.1276V13.1276H12.2393V12.1276H11.2393ZM5.07576 15.4656L4.08955 15.3L5.07576 15.4656ZM3.73244 23.4695L2.74623 23.304L3.73244 23.4695ZM28.1542 23.4447L29.139 23.2709L29.139 23.2709L28.1542 23.4447ZM25.312 7.33881L24.3272 7.51259L24.3272 7.5126L25.312 7.33881ZM12.2393 6.03395C12.2393 5.48167 12.687 5.03395 13.2393 5.03395V3.03395C11.5824 3.03395 10.2393 4.37709 10.2393 6.03395H12.2393ZM12.2393 12.1276V6.03395H10.2393V12.1276H12.2393ZM11.2393 11.1276H9.02059V13.1276H11.2393V11.1276ZM9.02059 11.1276C6.57854 11.1276 4.49375 12.8917 4.08955 15.3L6.06196 15.6311C6.30448 14.1861 7.55535 13.1276 9.02059 13.1276V11.1276ZM4.08955 15.3L2.74623 23.304L4.71865 23.635L6.06196 15.6311L4.08955 15.3ZM2.74623 23.304C2.33681 25.7435 4.21747 27.9661 6.69106 27.9661V25.9661C5.45426 25.9661 4.51393 24.8548 4.71865 23.635L2.74623 23.304ZM6.69106 27.9661H11.2393V25.9661H6.69106V27.9661ZM11.2393 27.9661H13.9372V25.9661H11.2393V27.9661ZM25.1998 25.9661H13.9372V27.9661H25.1998V25.9661ZM27.1694 23.6185C27.3855 24.8432 26.4434 25.9661 25.1998 25.9661V27.9661C27.687 27.9661 29.5712 25.7203 29.139 23.2709L27.1694 23.6185ZM24.3272 7.5126L27.1694 23.6185L29.139 23.2709L26.2968 7.16502L24.3272 7.5126ZM21.3728 5.03395C22.8286 5.03395 24.0742 6.07902 24.3272 7.51259L26.2968 7.16502C25.8751 4.77574 23.799 3.03395 21.3728 3.03395V5.03395ZM13.2393 5.03395H21.3728V3.03395H13.2393V5.03395Z" fill="white" mask="url(#path-1-outside-1_433_2)"/>
<mask id="path-3-outside-2_433_2" maskUnits="userSpaceOnUse" x="15" y="8.8" width="13" height="21" fill="black">
<rect fill="white" x="15" y="8.8" width="13" height="21"/>
<path fill-rule="evenodd" clip-rule="evenodd" d="M21.5 18.9L17 13.5V10.8H26V13.5L21.5 18.9ZM21.5 18.9L26 24.3V27H17V24.3L21.5 18.9Z"/>
</mask>
<path d="M17 13.5H15V14.2241L15.4636 14.7804L17 13.5ZM17 10.8V8.8H15V10.8H17ZM26 10.8H28V8.8H26V10.8ZM26 13.5L27.5364 14.7804L28 14.2241V13.5H26ZM26 24.3H28V23.5759L27.5364 23.0196L26 24.3ZM26 27V29H28V27H26ZM17 27H15V29H17V27ZM17 24.3L15.4636 23.0196L15 23.5759V24.3H17ZM15.4636 14.7804L19.9636 20.1804L23.0364 17.6196L18.5364 12.2196L15.4636 14.7804ZM15 10.8V13.5H19V10.8H15ZM26 8.8H17V12.8H26V8.8ZM28 13.5V10.8H24V13.5H28ZM23.0364 20.1804L27.5364 14.7804L24.4636 12.2196L19.9636 17.6196L23.0364 20.1804ZM19.9636 20.1804L24.4636 25.5804L27.5364 23.0196L23.0364 17.6196L19.9636 20.1804ZM24 24.3V27H28V24.3H24ZM26 25H17V29H26V25ZM19 27V24.3H15V27H19ZM18.5364 25.5804L23.0364 20.1804L19.9636 17.6196L15.4636 23.0196L18.5364 25.5804Z" fill="white" mask="url(#path-3-outside-2_433_2)"/>
<path d="M21.5 21.6L24.6177 25.65H18.3823L21.5 21.6Z" fill="white"/>
</svg>
