<svg width="32" height="32" viewBox="0 0 32 32" fill="none" xmlns="http://www.w3.org/2000/svg">
<mask id="path-1-outside-1_398_155" maskUnits="userSpaceOnUse" x="1.69028" y="3.03395" width="28" height="25" fill="black">
<rect fill="white" x="1.69028" y="3.03395" width="28" height="25"/>
<path fill-rule="evenodd" clip-rule="evenodd" d="M13.2393 4.03395C12.1347 4.03395 11.2393 4.92938 11.2393 6.03395V12.1276H9.02056C7.06691 12.1276 5.39909 13.5389 5.07573 15.4656L3.73241 23.4695C3.42534 25.2991 4.83583 26.9661 6.69103 26.9661H11.2393H13.9372H25.1998C27.0652 26.9661 28.4783 25.2817 28.1542 23.4447L25.3119 7.33881C24.9746 5.42738 23.3138 4.03395 21.3728 4.03395H13.2393Z"/>
</mask>
<path d="M11.2393 12.1276V13.1276H12.2393V12.1276H11.2393ZM5.07573 15.4656L4.08952 15.3L5.07573 15.4656ZM3.73241 23.4695L2.7462 23.304L3.73241 23.4695ZM28.1542 23.4447L29.1389 23.2709L29.1389 23.2709L28.1542 23.4447ZM25.3119 7.33881L24.3272 7.51259L24.3272 7.5126L25.3119 7.33881ZM12.2393 6.03395C12.2393 5.48167 12.687 5.03395 13.2393 5.03395V3.03395C11.5824 3.03395 10.2393 4.37709 10.2393 6.03395H12.2393ZM12.2393 12.1276V6.03395H10.2393V12.1276H12.2393ZM11.2393 11.1276H9.02056V13.1276H11.2393V11.1276ZM9.02056 11.1276C6.5785 11.1276 4.49372 12.8917 4.08952 15.3L6.06193 15.6311C6.30445 14.1861 7.55532 13.1276 9.02056 13.1276V11.1276ZM4.08952 15.3L2.7462 23.304L4.71861 23.635L6.06193 15.6311L4.08952 15.3ZM2.7462 23.304C2.33678 25.7435 4.21744 27.9661 6.69103 27.9661V25.9661C5.45423 25.9661 4.5139 24.8548 4.71861 23.635L2.7462 23.304ZM6.69103 27.9661H11.2393V25.9661H6.69103V27.9661ZM11.2393 27.9661H13.9372V25.9661H11.2393V27.9661ZM25.1998 25.9661H13.9372V27.9661H25.1998V25.9661ZM27.1694 23.6185C27.3855 24.8432 26.4434 25.9661 25.1998 25.9661V27.9661C27.687 27.9661 29.5712 25.7203 29.1389 23.2709L27.1694 23.6185ZM24.3272 7.5126L27.1694 23.6185L29.1389 23.2709L26.2967 7.16502L24.3272 7.5126ZM21.3728 5.03395C22.8285 5.03395 24.0742 6.07902 24.3272 7.51259L26.2967 7.16502C25.8751 4.77574 23.799 3.03395 21.3728 3.03395V5.03395ZM13.2393 5.03395H21.3728V3.03395H13.2393V5.03395Z" fill="white" mask="url(#path-1-outside-1_398_155)"/>
<path d="M6.76 23L10.132 14.6H12.172L15.52 23H12.952L11.608 19.328C11.52 19.08 11.444 18.868 11.38 18.692C11.316 18.516 11.26 18.352 11.212 18.2C11.164 18.04 11.116 17.872 11.068 17.696C11.02 17.512 10.972 17.296 10.924 17.048H11.332C11.284 17.296 11.236 17.512 11.188 17.696C11.14 17.872 11.088 18.04 11.032 18.2C10.984 18.352 10.924 18.516 10.852 18.692C10.788 18.868 10.712 19.08 10.624 19.328L9.28 23H6.76ZM8.44 21.752L9.196 19.988H13.096L13.78 21.752H8.44ZM18.996 25.76C18.42 25.76 17.848 25.68 17.28 25.52C16.72 25.36 16.26 25.152 15.9 24.896L16.728 23.264C16.904 23.376 17.088 23.472 17.28 23.552C17.472 23.632 17.672 23.692 17.88 23.732C18.096 23.772 18.324 23.792 18.564 23.792C18.94 23.792 19.244 23.74 19.476 23.636C19.708 23.54 19.876 23.384 19.98 23.168C20.092 22.952 20.148 22.676 20.148 22.34V21.38L20.688 21.428C20.624 21.7 20.484 21.94 20.268 22.148C20.052 22.356 19.784 22.52 19.464 22.64C19.144 22.76 18.804 22.82 18.444 22.82C17.876 22.82 17.372 22.692 16.932 22.436C16.5 22.18 16.156 21.824 15.9 21.368C15.652 20.904 15.528 20.36 15.528 19.736C15.528 19.088 15.652 18.52 15.9 18.032C16.148 17.536 16.484 17.148 16.908 16.868C17.34 16.588 17.832 16.448 18.384 16.448C18.624 16.448 18.852 16.472 19.068 16.52C19.284 16.568 19.484 16.636 19.668 16.724C19.852 16.804 20.016 16.904 20.16 17.024C20.304 17.144 20.42 17.276 20.508 17.42C20.604 17.564 20.668 17.72 20.7 17.888L20.208 17.996L20.34 16.58H22.596V22.376C22.596 22.912 22.512 23.388 22.344 23.804C22.184 24.228 21.948 24.584 21.636 24.872C21.324 25.168 20.944 25.388 20.496 25.532C20.056 25.684 19.556 25.76 18.996 25.76ZM19.056 21.08C19.304 21.08 19.512 21.028 19.68 20.924C19.856 20.82 19.988 20.672 20.076 20.48C20.164 20.28 20.208 20.04 20.208 19.76C20.208 19.48 20.164 19.24 20.076 19.04C19.988 18.84 19.856 18.688 19.68 18.584C19.512 18.48 19.304 18.428 19.056 18.428C18.808 18.428 18.6 18.48 18.432 18.584C18.264 18.688 18.136 18.84 18.048 19.04C17.96 19.24 17.916 19.48 17.916 19.76C17.916 20.04 17.96 20.28 18.048 20.48C18.136 20.672 18.264 20.82 18.432 20.924C18.6 21.028 18.808 21.08 19.056 21.08Z" fill="white"/>
</svg>
