<svg width="32" height="32" viewBox="0 0 32 32" fill="none" xmlns="http://www.w3.org/2000/svg">
<g clip-path="url(#clip0_18_276)">
<line x1="8.52778" y1="22.5026" x2="17.188" y2="17.5026" stroke="white"/>
<line x1="13.0598" y1="20.4634" x2="15.5598" y2="24.7935" stroke="white"/>
<mask id="path-3-inside-1_18_276" fill="white">
<path d="M8.98112 22.1767L16.6791 17.7323L19.1791 22.0624C20.4064 24.1881 19.6781 26.9063 17.5523 28.1336C15.4266 29.3609 12.7084 28.6326 11.4811 26.5068L8.98112 22.1767Z"/>
</mask>
<path d="M8.98112 22.1767L16.6791 17.7323L8.98112 22.1767ZM20.5452 22.4284C22.0486 25.0324 21.1564 28.3622 18.5523 29.8657C15.9483 31.3691 12.6185 30.4769 11.1151 27.8729L12.3472 26.0068C13.0222 27.176 14.9049 27.3527 16.5523 26.4016C18.1998 25.4504 18.9881 23.7315 18.3131 22.5624L20.5452 22.4284ZM18.5523 29.8657C15.9483 31.3691 12.6185 30.4769 11.1151 27.8729L8.1151 22.6767L9.84715 21.6767L12.3472 26.0068C13.0222 27.176 14.9049 27.3527 16.5523 26.4016L18.5523 29.8657ZM17.5452 17.2323L20.5452 22.4284C22.0486 25.0324 21.1564 28.3622 18.5523 29.8657L16.5523 26.4016C18.1998 25.4504 18.9881 23.7315 18.3131 22.5624L15.8131 18.2323L17.5452 17.2323Z" fill="white" mask="url(#path-3-inside-1_18_276)"/>
<rect x="2.1944" y="3.53285" width="2" height="19.5394" transform="rotate(-30 2.1944 3.53285)" fill="white"/>
<mask id="path-6-outside-2_18_276" maskUnits="userSpaceOnUse" x="1.69028" y="3.03395" width="28" height="25" fill="black">
<rect fill="white" x="1.69028" y="3.03395" width="28" height="25"/>
<path fill-rule="evenodd" clip-rule="evenodd" d="M13.2393 4.03395C12.1347 4.03395 11.2393 4.92938 11.2393 6.03395V12.1276H9.02056C7.06691 12.1276 5.39909 13.5389 5.07573 15.4656L3.73241 23.4695C3.42534 25.2991 4.83583 26.9661 6.69103 26.9661H11.2393H13.9372H25.1998C27.0652 26.9661 28.4783 25.2817 28.1542 23.4447L25.3119 7.33881C24.9746 5.42738 23.3138 4.03395 21.3728 4.03395H13.2393Z"/>
</mask>
<path d="M11.2393 12.1276V13.1276H12.2393V12.1276H11.2393ZM5.07573 15.4656L4.08952 15.3L5.07573 15.4656ZM3.73241 23.4695L2.7462 23.304L3.73241 23.4695ZM28.1542 23.4447L29.1389 23.2709V23.2709L28.1542 23.4447ZM25.3119 7.33881L24.3272 7.51259V7.5126L25.3119 7.33881ZM12.2393 6.03395C12.2393 5.48167 12.687 5.03395 13.2393 5.03395V3.03395C11.5824 3.03395 10.2393 4.37709 10.2393 6.03395H12.2393ZM12.2393 12.1276V6.03395H10.2393V12.1276H12.2393ZM11.2393 11.1276H9.02056V13.1276H11.2393V11.1276ZM9.02056 11.1276C6.5785 11.1276 4.49372 12.8917 4.08952 15.3L6.06193 15.6311C6.30445 14.1861 7.55532 13.1276 9.02056 13.1276V11.1276ZM4.08952 15.3L2.7462 23.304L4.71861 23.635L6.06193 15.6311L4.08952 15.3ZM2.7462 23.304C2.33678 25.7435 4.21744 27.9661 6.69103 27.9661V25.9661C5.45423 25.9661 4.5139 24.8548 4.71861 23.635L2.7462 23.304ZM6.69103 27.9661H11.2393V25.9661H6.69103V27.9661ZM11.2393 27.9661H13.9372V25.9661H11.2393V27.9661ZM25.1998 25.9661H13.9372V27.9661H25.1998V25.9661ZM27.1694 23.6185C27.3855 24.8432 26.4434 25.9661 25.1998 25.9661V27.9661C27.687 27.9661 29.5712 25.7203 29.1389 23.2709L27.1694 23.6185ZM24.3272 7.5126L27.1694 23.6185L29.1389 23.2709L26.2967 7.16502L24.3272 7.5126ZM21.3728 5.03395C22.8285 5.03395 24.0742 6.07902 24.3272 7.51259L26.2967 7.16502C25.8751 4.77574 23.799 3.03395 21.3728 3.03395V5.03395ZM13.2393 5.03395H21.3728V3.03395H13.2393V5.03395Z" fill="white" mask="url(#path-6-outside-2_18_276)"/>
</g>
<defs>
<clipPath id="clip0_18_276">
<rect width="32" height="32" fill="white"/>
</clipPath>
</defs>
</svg>
