<svg width="32" height="32" viewBox="0 0 32 32" fill="none" xmlns="http://www.w3.org/2000/svg">
<rect x="3" y="3" width="26" height="26" rx="2" stroke="white" stroke-width="2"/>
<mask id="path-2-outside-1_18_276" maskUnits="userSpaceOnUse" x="5" y="6" width="21" height="19" fill="black">
<rect fill="white" x="5" y="6" width="21" height="19"/>
<path fill-rule="evenodd" clip-rule="evenodd" d="M14.4553 7C13.3507 7 12.4553 7.89543 12.4553 9V13H11.6861C9.73243 13 8.0646 14.4112 7.74124 16.3379L7.04213 20.5034C6.73506 22.3331 8.14556 24 10.0008 24H12.4553H14.4553H21.8795C23.7449 24 25.1581 22.3157 24.8339 20.4786L23.0385 10.3049C22.7012 8.39343 21.0403 7 19.0994 7H14.4553Z"/>
</mask>
<path d="M12.4553 13V14H13.4553V13H12.4553ZM7.74124 16.3379L6.75503 16.1724H6.75503L7.74124 16.3379ZM7.04213 20.5034L8.02834 20.669L7.04213 20.5034ZM24.8339 20.4786L25.8187 20.3049L24.8339 20.4786ZM23.0385 10.3049L24.0233 10.1311V10.1311L23.0385 10.3049ZM13.4553 9C13.4553 8.44772 13.903 8 14.4553 8V6C12.7984 6 11.4553 7.34315 11.4553 9H13.4553ZM13.4553 13V9H11.4553V13H13.4553ZM12.4553 12H11.6861V14H12.4553V12ZM11.6861 12C9.24402 12 7.15923 13.764 6.75503 16.1724L8.72745 16.5034C8.96997 15.0584 10.2208 14 11.6861 14V12ZM6.75503 16.1724L6.05592 20.3379L8.02834 20.669L8.72745 16.5034L6.75503 16.1724ZM6.05592 20.3379C5.6465 22.7774 7.52716 25 10.0008 25V23C8.76395 23 7.82363 21.8887 8.02834 20.669L6.05592 20.3379ZM10.0008 25H12.4553V23H10.0008V25ZM12.4553 25H14.4553V23H12.4553V25ZM21.8795 23H14.4553V25H21.8795V23ZM23.8491 20.6524C24.0652 21.8771 23.1231 23 21.8795 23V25C24.3667 25 26.2509 22.7542 25.8187 20.3049L23.8491 20.6524ZM22.0537 10.4786L23.8491 20.6524L25.8187 20.3049L24.0233 10.1311L22.0537 10.4786ZM19.0994 8C20.5551 8 21.8007 9.04507 22.0537 10.4786L24.0233 10.1311C23.6017 7.74179 21.5256 6 19.0994 6V8ZM14.4553 8H19.0994V6H14.4553V8Z" fill="white" mask="url(#path-2-outside-1_18_276)"/>
<line x1="8.52778" y1="19.5026" x2="17.188" y2="14.5026" stroke="white"/>
<line x1="13.0598" y1="17.4634" x2="15.5598" y2="21.7935" stroke="white"/>
<mask id="path-6-inside-2_18_276" fill="white">
<path d="M8.98113 19.1767L16.6791 14.7323L19.1791 19.0624C20.4064 21.1881 19.6781 23.9063 17.5524 25.1336C15.4266 26.3609 12.7084 25.6326 11.4811 23.5068L8.98113 19.1767Z"/>
</mask>
<path d="M8.98113 19.1767L16.6791 14.7323L8.98113 19.1767ZM20.5452 19.4284C22.0486 22.0325 21.1564 25.3622 18.5524 26.8657C15.9483 28.3691 12.6185 27.4769 11.1151 24.8729L12.3472 23.0068C13.0222 24.176 14.9049 24.3527 16.5524 23.4016C18.1998 22.4504 18.9881 20.7316 18.3131 19.5624L20.5452 19.4284ZM18.5524 26.8657C15.9483 28.3691 12.6185 27.4769 11.1151 24.8729L8.11511 19.6767L9.84716 18.6767L12.3472 23.0068C13.0222 24.176 14.9049 24.3527 16.5524 23.4016L18.5524 26.8657ZM17.5452 14.2323L20.5452 19.4284C22.0486 22.0325 21.1564 25.3622 18.5524 26.8657L16.5524 23.4016C18.1998 22.4504 18.9881 20.7316 18.3131 19.5624L15.8131 15.2323L17.5452 14.2323Z" fill="white" mask="url(#path-6-inside-2_18_276)"/>
<rect x="5.54996" y="6.34486" width="2" height="12.8283" transform="rotate(-30 5.54996 6.34486)" fill="white"/>
</svg>
