<svg width="32" height="32" viewBox="0 0 32 32" fill="none" xmlns="http://www.w3.org/2000/svg">
<g clip-path="url(#clip0_11_241)">
<rect x="25.16" y="27.8316" width="2.83333" height="17.7083" transform="rotate(165 25.16 27.8316)" fill="white"/>
<mask id="path-2-inside-1_11_241" fill="white">
<path d="M29.9854 18.4722C30.9979 22.2509 28.7554 26.1349 24.9767 27.1474L22.2399 27.8808C18.4612 28.8933 14.5771 26.6508 13.5646 22.8721V22.8721C12.5521 19.0934 14.7946 15.2093 18.5733 14.1968L21.3101 13.4635C25.0888 12.451 28.9729 14.6934 29.9854 18.4722V18.4722Z"/>
</mask>
<path d="M30.3952 20.0015C31.6102 24.536 28.9192 29.1969 24.3848 30.4119C19.8503 31.6269 15.1894 28.9359 13.9744 24.4015L13.5646 22.8721C14.1483 25.0504 17.6847 25.9955 21.4635 24.983L24.2002 24.2497C27.979 23.2372 30.569 20.6505 29.9854 18.4722L30.3952 20.0015ZM11.7313 16.0301L28.1521 11.6302L11.7313 16.0301ZM28.1521 11.6302L31.8187 25.3141L28.1521 11.6302ZM15.3979 29.7141L11.7313 16.0301L15.3979 29.7141Z" fill="white" mask="url(#path-2-inside-1_11_241)"/>
<mask id="path-4-outside-2_11_241" maskUnits="userSpaceOnUse" x="1.69028" y="3.03395" width="28" height="25" fill="black">
<rect fill="white" x="1.69028" y="3.03395" width="28" height="25"/>
<path fill-rule="evenodd" clip-rule="evenodd" d="M13.2393 4.03395C12.1347 4.03395 11.2393 4.92938 11.2393 6.03395V12.1276H9.02056C7.06691 12.1276 5.39909 13.5389 5.07573 15.4656L3.73241 23.4695C3.42534 25.2991 4.83583 26.9661 6.69103 26.9661H11.2393H13.9372H25.1998C27.0652 26.9661 28.4783 25.2817 28.1542 23.4447L25.3119 7.33881C24.9746 5.42738 23.3138 4.03395 21.3728 4.03395H13.2393Z"/>
</mask>
<path d="M11.2393 12.1276V13.1276H12.2393V12.1276H11.2393ZM5.07573 15.4656L4.08952 15.3L5.07573 15.4656ZM3.73241 23.4695L2.7462 23.304L3.73241 23.4695ZM28.1542 23.4447L29.1389 23.2709L29.1389 23.2709L28.1542 23.4447ZM25.3119 7.33881L24.3272 7.51259L24.3272 7.5126L25.3119 7.33881ZM12.2393 6.03395C12.2393 5.48167 12.687 5.03395 13.2393 5.03395V3.03395C11.5824 3.03395 10.2393 4.37709 10.2393 6.03395H12.2393ZM12.2393 12.1276V6.03395H10.2393V12.1276H12.2393ZM11.2393 11.1276H9.02056V13.1276H11.2393V11.1276ZM9.02056 11.1276C6.5785 11.1276 4.49372 12.8917 4.08952 15.3L6.06193 15.6311C6.30445 14.1861 7.55532 13.1276 9.02056 13.1276V11.1276ZM4.08952 15.3L2.7462 23.304L4.71861 23.635L6.06193 15.6311L4.08952 15.3ZM2.7462 23.304C2.33678 25.7435 4.21744 27.9661 6.69103 27.9661V25.9661C5.45423 25.9661 4.5139 24.8548 4.71861 23.635L2.7462 23.304ZM6.69103 27.9661H11.2393V25.9661H6.69103V27.9661ZM11.2393 27.9661H13.9372V25.9661H11.2393V27.9661ZM25.1998 25.9661H13.9372V27.9661H25.1998V25.9661ZM27.1694 23.6185C27.3855 24.8432 26.4434 25.9661 25.1998 25.9661V27.9661C27.687 27.9661 29.5712 25.7203 29.1389 23.2709L27.1694 23.6185ZM24.3272 7.5126L27.1694 23.6185L29.1389 23.2709L26.2967 7.16502L24.3272 7.5126ZM21.3728 5.03395C22.8285 5.03395 24.0742 6.07902 24.3272 7.51259L26.2967 7.16502C25.8751 4.77574 23.799 3.03395 21.3728 3.03395V5.03395ZM13.2393 5.03395H21.3728V3.03395H13.2393V5.03395Z" fill="white" mask="url(#path-4-outside-2_11_241)"/>
</g>
<defs>
<clipPath id="clip0_11_241">
<rect width="32" height="32" fill="white"/>
</clipPath>
</defs>
</svg>
