<svg width="32" height="32" viewBox="0 0 32 32" fill="none" xmlns="http://www.w3.org/2000/svg">
<rect x="3" y="3" width="26" height="26" rx="2" stroke="white" stroke-width="2"/>
<path d="M8.97 13V6H11.13V13H8.97ZM4.8 13V6H6.96V13H4.8ZM5.61 10.45L5.62 8.57H10.19V10.45H5.61ZM12.0997 13L11.9297 12.59L12.9147 11.54C12.9747 11.4767 13.0397 11.405 13.1097 11.325C13.1797 11.2417 13.248 11.1567 13.3147 11.07C13.3814 10.9833 13.4347 10.9 13.4747 10.82C13.518 10.74 13.5397 10.67 13.5397 10.61C13.5397 10.5767 13.5297 10.545 13.5097 10.515C13.4897 10.4817 13.458 10.455 13.4147 10.435C13.3747 10.4117 13.3197 10.4 13.2497 10.4C13.1864 10.4 13.128 10.4133 13.0747 10.44C13.0247 10.4667 12.973 10.5117 12.9197 10.575C12.8697 10.635 12.8147 10.7167 12.7547 10.82L11.9697 10.42C12.0464 10.2267 12.1547 10.0533 12.2947 9.9C12.4347 9.74333 12.5947 9.62 12.7747 9.53C12.958 9.44 13.1497 9.39667 13.3497 9.4C13.563 9.40333 13.758 9.45 13.9347 9.54C14.1114 9.62667 14.253 9.74833 14.3597 9.905C14.4664 10.0617 14.5197 10.245 14.5197 10.455C14.5197 10.5217 14.5114 10.5917 14.4947 10.665C14.4814 10.7383 14.458 10.815 14.4247 10.895C14.3947 10.975 14.353 11.0617 14.2997 11.155C14.2464 11.245 14.1814 11.3417 14.1047 11.445C14.028 11.545 13.938 11.6517 13.8347 11.765L13.0397 12.63L12.9397 12.08H14.7097V13H12.0997ZM18.8489 13.1C18.2956 13.1 17.7889 13.01 17.3289 12.83C16.8689 12.65 16.4689 12.3967 16.1289 12.07C15.7889 11.7433 15.5256 11.3567 15.3389 10.91C15.1589 10.4633 15.0689 9.97667 15.0689 9.45C15.0689 8.91667 15.1589 8.43 15.3389 7.99C15.5256 7.54333 15.7889 7.15667 16.1289 6.83C16.4689 6.50333 16.8689 6.25 17.3289 6.07C17.7889 5.89 18.2923 5.8 18.8389 5.8C19.3923 5.8 19.8956 5.89 20.3489 6.07C20.8089 6.25 21.2089 6.50333 21.5489 6.83C21.8889 7.15667 22.1489 7.54333 22.3289 7.99C22.5156 8.43 22.6089 8.91333 22.6089 9.44C22.6089 9.97333 22.5156 10.4633 22.3289 10.91C22.1489 11.3567 21.8889 11.7433 21.5489 12.07C21.2089 12.3967 20.8089 12.65 20.3489 12.83C19.8956 13.01 19.3956 13.1 18.8489 13.1ZM18.8389 11.1C19.0656 11.1 19.2723 11.06 19.4589 10.98C19.6523 10.9 19.8189 10.7867 19.9589 10.64C20.1056 10.4867 20.2156 10.31 20.2889 10.11C20.3689 9.91 20.4089 9.69 20.4089 9.45C20.4089 9.21 20.3689 8.99 20.2889 8.79C20.2156 8.59 20.1056 8.41667 19.9589 8.27C19.8189 8.11667 19.6523 8 19.4589 7.92C19.2723 7.84 19.0656 7.8 18.8389 7.8C18.6123 7.8 18.4023 7.84 18.2089 7.92C18.0223 8 17.8556 8.11667 17.7089 8.27C17.5689 8.41667 17.4589 8.59 17.3789 8.79C17.3056 8.99 17.2689 9.21 17.2689 9.45C17.2689 9.69 17.3056 9.91 17.3789 10.11C17.4589 10.31 17.5689 10.4867 17.7089 10.64C17.8556 10.7867 18.0223 10.9 18.2089 10.98C18.4023 11.06 18.6123 11.1 18.8389 11.1Z" fill="white"/>
<path d="M4 17.3818C4 17.3818 7.96356 20.2329 11.5 19.8818C15.4164 19.493 17.5683 15.6828 21.5 15.5068C24.5843 15.3687 29 17.3818 29 17.3818" stroke="white" stroke-width="3"/>
<path d="M7.75 24.5995C7.75 24.5995 10.5245 27.023 13 26.7245C15.7415 26.3941 17.2478 23.1554 20 23.0058C22.159 22.8884 25.25 24.5995 25.25 24.5995" stroke="white" stroke-width="2"/>
</svg>
