<svg width="32" height="32" viewBox="0 0 32 32" fill="none" xmlns="http://www.w3.org/2000/svg">
<mask id="path-1-inside-1_25_194" fill="white">
<path fill-rule="evenodd" clip-rule="evenodd" d="M10 20C10 17.5229 11.1258 15.3087 12.8937 13.8413C13.748 12.7058 14.6533 11.286 15 10C15.6099 7.73762 15 4 15 4L23.2263 13.9429C24.925 15.4099 26 17.5794 26 20C26 24.4183 22.4183 28 18 28C13.5817 28 10 24.4183 10 20ZM23 20C23.5523 20 24 19.5523 24 19L24 18C24 17.4477 23.5523 17 23 17C22.4477 17 22 17.4477 22 18L22 19C22 19.5523 22.4477 20 23 20Z"/>
</mask>
<path d="M12.8937 13.8413L14.1711 15.3803L14.3512 15.2307L14.492 15.0437L12.8937 13.8413ZM15 10L16.9311 10.5206L16.9311 10.5206L15 10ZM15 4L16.541 2.72508L11.838 -2.95934L13.0261 4.32209L15 4ZM23.2263 13.9429L21.6853 15.2179L21.7922 15.347L21.9191 15.4566L23.2263 13.9429ZM11.6163 12.3024C9.4103 14.1335 8 16.9029 8 20L12 20C12 18.1429 12.8414 16.484 14.1711 15.3803L11.6163 12.3024ZM13.0689 9.47943C12.8272 10.376 12.1219 11.5405 11.2955 12.639L14.492 15.0437C15.3741 13.8711 16.4794 12.1959 16.9311 10.5206L13.0689 9.47943ZM15 4C13.0261 4.32209 13.0261 4.32186 13.026 4.32164C13.026 4.32158 13.026 4.32138 13.026 4.32127C13.0259 4.32106 13.0259 4.3209 13.0259 4.32079C13.0259 4.32058 13.0259 4.32059 13.0259 4.32083C13.026 4.32129 13.0262 4.32263 13.0265 4.32483C13.0272 4.32922 13.0285 4.33704 13.0302 4.34813C13.0336 4.3703 13.039 4.40551 13.0458 4.45248C13.0594 4.54651 13.0789 4.68718 13.1008 4.86452C13.1448 5.22058 13.1976 5.7173 13.2326 6.27662C13.3067 7.45918 13.2838 8.68243 13.0689 9.47943L16.9311 10.5206C17.3261 9.05518 17.3032 7.27844 17.2248 6.02659C17.1836 5.36871 17.122 4.78962 17.0707 4.37418C17.0449 4.16577 17.0216 3.99676 17.0042 3.87756C16.9956 3.81791 16.9884 3.7706 16.9832 3.73693C16.9806 3.72008 16.9785 3.70664 16.9769 3.69675C16.9761 3.69181 16.9755 3.68775 16.975 3.68461C16.9747 3.68303 16.9745 3.68169 16.9743 3.68057C16.9742 3.68001 16.9742 3.67951 16.9741 3.67907C16.974 3.67885 16.974 3.67856 16.974 3.67845C16.9739 3.67817 16.9739 3.67791 15 4ZM24.7673 12.668L16.541 2.72508L13.459 5.27492L21.6853 15.2179L24.7673 12.668ZM28 20C28 16.9739 26.6534 14.26 24.5335 12.4293L21.9191 15.4566C23.1966 16.5599 24 18.185 24 20L28 20ZM18 30C23.5228 30 28 25.5228 28 20L24 20C24 23.3137 21.3137 26 18 26L18 30ZM8 20C8 25.5228 12.4772 30 18 30L18 26C14.6863 26 12 23.3137 12 20L8 20ZM22 19C22 18.4477 22.4477 18 23 18L23 22C24.6569 22 26 20.6569 26 19L22 19ZM22 18L22 19L26 19L26 18L22 18ZM23 19C22.4477 19 22 18.5523 22 18L26 18C26 16.3431 24.6569 15 23 15L23 19ZM24 18C24 18.5523 23.5523 19 23 19L23 15C21.3431 15 20 16.3431 20 18L24 18ZM24 19L24 18L20 18L20 19L24 19ZM23 18C23.5523 18 24 18.4477 24 19L20 19C20 20.6569 21.3431 22 23 22L23 18Z" fill="white" mask="url(#path-1-inside-1_25_194)"/>
<rect x="3" y="3" width="26" height="26" rx="2" stroke="white" stroke-width="2"/>
<path d="M24.18 12.1C23.6267 12.1 23.12 12.01 22.66 11.83C22.2 11.65 21.8 11.3967 21.46 11.07C21.12 10.7433 20.8567 10.3567 20.67 9.91C20.49 9.46333 20.4 8.97667 20.4 8.45C20.4 7.91667 20.49 7.43 20.67 6.99C20.8567 6.54333 21.12 6.15667 21.46 5.83C21.8 5.50333 22.2 5.25 22.66 5.07C23.12 4.89 23.6233 4.8 24.17 4.8C24.7233 4.8 25.2267 4.89 25.68 5.07C26.14 5.25 26.54 5.50333 26.88 5.83C27.22 6.15667 27.48 6.54333 27.66 6.99C27.8467 7.43 27.94 7.91333 27.94 8.44C27.94 8.97333 27.8467 9.46333 27.66 9.91C27.48 10.3567 27.22 10.7433 26.88 11.07C26.54 11.3967 26.14 11.65 25.68 11.83C25.2267 12.01 24.7267 12.1 24.18 12.1ZM24.17 10.1C24.3967 10.1 24.6033 10.06 24.79 9.98C24.9833 9.9 25.15 9.78667 25.29 9.64C25.4367 9.48667 25.5467 9.31 25.62 9.11C25.7 8.91 25.74 8.69 25.74 8.45C25.74 8.21 25.7 7.99 25.62 7.79C25.5467 7.59 25.4367 7.41667 25.29 7.27C25.15 7.11667 24.9833 7 24.79 6.92C24.6033 6.84 24.3967 6.8 24.17 6.8C23.9433 6.8 23.7333 6.84 23.54 6.92C23.3533 7 23.1867 7.11667 23.04 7.27C22.9 7.41667 22.79 7.59 22.71 7.79C22.6367 7.99 22.6 8.21 22.6 8.45C22.6 8.69 22.6367 8.91 22.71 9.11C22.79 9.31 22.9 9.48667 23.04 9.64C23.1867 9.78667 23.3533 9.9 23.54 9.98C23.7333 10.06 23.9433 10.1 24.17 10.1Z" fill="white"/>
<path d="M8.97 12V5H11.13V12H8.97ZM4.8 12V5H6.96V12H4.8ZM5.61 9.45L5.62 7.57H10.19V9.45H5.61ZM12.0997 12L11.9297 11.59L12.9147 10.54C12.9747 10.4767 13.0397 10.405 13.1097 10.325C13.1797 10.2417 13.248 10.1567 13.3147 10.07C13.3814 9.98333 13.4347 9.9 13.4747 9.82C13.518 9.74 13.5397 9.67 13.5397 9.61C13.5397 9.57667 13.5297 9.545 13.5097 9.515C13.4897 9.48167 13.458 9.455 13.4147 9.435C13.3747 9.41167 13.3197 9.4 13.2497 9.4C13.1864 9.4 13.128 9.41333 13.0747 9.44C13.0247 9.46667 12.973 9.51167 12.9197 9.575C12.8697 9.635 12.8147 9.71667 12.7547 9.82L11.9697 9.42C12.0464 9.22667 12.1547 9.05333 12.2947 8.9C12.4347 8.74333 12.5947 8.62 12.7747 8.53C12.958 8.44 13.1497 8.39667 13.3497 8.4C13.563 8.40333 13.758 8.45 13.9347 8.54C14.1114 8.62667 14.253 8.74833 14.3597 8.905C14.4664 9.06167 14.5197 9.245 14.5197 9.455C14.5197 9.52167 14.5114 9.59167 14.4947 9.665C14.4814 9.73833 14.458 9.815 14.4247 9.895C14.3947 9.975 14.353 10.0617 14.2997 10.155C14.2464 10.245 14.1814 10.3417 14.1047 10.445C14.028 10.545 13.938 10.6517 13.8347 10.765L13.0397 11.63L12.9397 11.08H14.7097V12H12.0997Z" fill="white"/>
</svg>
