<svg width="32" height="32" viewBox="0 0 32 32" fill="none" xmlns="http://www.w3.org/2000/svg">
<rect x="3" y="3" width="26" height="26" rx="2" stroke="white" stroke-width="2"/>
<path d="M8.97 12V5H11.13V12H8.97ZM4.8 12V5H6.96V12H4.8ZM5.61 9.45L5.62 7.57H10.19V9.45H5.61ZM12.0997 12L11.9297 11.59L12.9147 10.54C12.9747 10.4767 13.0397 10.405 13.1097 10.325C13.1797 10.2417 13.248 10.1567 13.3147 10.07C13.3814 9.98333 13.4347 9.9 13.4747 9.82C13.518 9.74 13.5397 9.67 13.5397 9.61C13.5397 9.57667 13.5297 9.545 13.5097 9.515C13.4897 9.48167 13.458 9.455 13.4147 9.435C13.3747 9.41167 13.3197 9.4 13.2497 9.4C13.1864 9.4 13.128 9.41333 13.0747 9.44C13.0247 9.46667 12.973 9.51167 12.9197 9.575C12.8697 9.635 12.8147 9.71667 12.7547 9.82L11.9697 9.42C12.0464 9.22667 12.1547 9.05333 12.2947 8.9C12.4347 8.74333 12.5947 8.62 12.7747 8.53C12.958 8.44 13.1497 8.39667 13.3497 8.4C13.563 8.40333 13.758 8.45 13.9347 8.54C14.1114 8.62667 14.253 8.74833 14.3597 8.905C14.4664 9.06167 14.5197 9.245 14.5197 9.455C14.5197 9.52167 14.5114 9.59167 14.4947 9.665C14.4814 9.73833 14.458 9.815 14.4247 9.895C14.3947 9.975 14.353 10.0617 14.2997 10.155C14.2464 10.245 14.1814 10.3417 14.1047 10.445C14.028 10.545 13.938 10.6517 13.8347 10.765L13.0397 11.63L12.9397 11.08H14.7097V12H12.0997ZM18.8489 12.1C18.2956 12.1 17.7889 12.01 17.3289 11.83C16.8689 11.65 16.4689 11.3967 16.1289 11.07C15.7889 10.7433 15.5256 10.3567 15.3389 9.91C15.1589 9.46333 15.0689 8.97667 15.0689 8.45C15.0689 7.91667 15.1589 7.43 15.3389 6.99C15.5256 6.54333 15.7889 6.15667 16.1289 5.83C16.4689 5.50333 16.8689 5.25 17.3289 5.07C17.7889 4.89 18.2923 4.8 18.8389 4.8C19.3923 4.8 19.8956 4.89 20.3489 5.07C20.8089 5.25 21.2089 5.50333 21.5489 5.83C21.8889 6.15667 22.1489 6.54333 22.3289 6.99C22.5156 7.43 22.6089 7.91333 22.6089 8.44C22.6089 8.97333 22.5156 9.46333 22.3289 9.91C22.1489 10.3567 21.8889 10.7433 21.5489 11.07C21.2089 11.3967 20.8089 11.65 20.3489 11.83C19.8956 12.01 19.3956 12.1 18.8489 12.1ZM18.8389 10.1C19.0656 10.1 19.2723 10.06 19.4589 9.98C19.6523 9.9 19.8189 9.78667 19.9589 9.64C20.1056 9.48667 20.2156 9.31 20.2889 9.11C20.3689 8.91 20.4089 8.69 20.4089 8.45C20.4089 8.21 20.3689 7.99 20.2889 7.79C20.2156 7.59 20.1056 7.41667 19.9589 7.27C19.8189 7.11667 19.6523 7 19.4589 6.92C19.2723 6.84 19.0656 6.8 18.8389 6.8C18.6123 6.8 18.4023 6.84 18.2089 6.92C18.0223 7 17.8556 7.11667 17.7089 7.27C17.5689 7.41667 17.4589 7.59 17.3789 7.79C17.3056 7.99 17.2689 8.21 17.2689 8.45C17.2689 8.69 17.3056 8.91 17.3789 9.11C17.4589 9.31 17.5689 9.48667 17.7089 9.64C17.8556 9.78667 18.0223 9.9 18.2089 9.98C18.4023 10.06 18.6123 10.1 18.8389 10.1Z" fill="white"/>
<path d="M4 19.3818C4 19.3818 7.96356 22.2329 11.5 21.8818C15.4164 21.493 17.5683 17.6828 21.5 17.5068C24.5843 17.3687 29 19.3818 29 19.3818" stroke="white" stroke-width="3"/>
<path d="M7.75 26.5995C7.75 26.5995 10.5245 29.023 13 28.7245C15.7415 28.3941 17.2478 25.1554 20 25.0058C22.159 24.8884 25.25 26.5995 25.25 26.5995" stroke="white" stroke-width="2"/>
</svg>
