<svg width="32" height="32" viewBox="0 0 32 32" fill="none" xmlns="http://www.w3.org/2000/svg">
<g clip-path="url(#clip0_383_312)">
<mask id="path-1-inside-1_383_312" fill="white">
<path fill-rule="evenodd" clip-rule="evenodd" d="M2.83095 1L5.07836 2.66226C5.82649 3.21561 6.35723 4.04959 6.6179 4.96238C7.56583 4.51276 8.62597 4.26122 9.74486 4.26122H12.667C13.7859 4.26122 14.8461 4.51277 15.794 4.96239C16.0547 4.0496 16.5854 3.21561 17.3336 2.66226L19.581 1L21.0651 4.2931C21.8585 6.05361 21.2446 8.41106 19.6939 9.56181C19.8753 10.1989 19.9725 10.8714 19.9725 11.5666C19.9725 15.6013 16.7017 18.8721 12.667 18.8721H9.74486C5.71018 18.8721 2.43944 15.6013 2.43944 11.5666C2.43944 10.8714 2.53656 10.1988 2.71797 9.5618C1.16737 8.41104 0.553428 6.0536 1.34684 4.2931L2.83095 1Z"/>
</mask>
<path d="M5.07836 2.66226L6.26767 1.0543L6.26766 1.0543L5.07836 2.66226ZM2.83095 1L4.02025 -0.607964L2.02648 -2.08263L1.00756 0.178251L2.83095 1ZM6.6179 4.96238L4.69478 5.51158L5.34281 7.78074L7.475 6.76941L6.6179 4.96238ZM15.794 4.96239L14.9369 6.76942L17.0691 7.78077L17.7171 5.51159L15.794 4.96239ZM17.3336 2.66226L18.5229 4.27023L18.5229 4.27023L17.3336 2.66226ZM19.581 1L21.4044 0.178251L20.3854 -2.08263L18.3917 -0.607964L19.581 1ZM21.0651 4.2931L22.8885 3.47135L22.8885 3.47135L21.0651 4.2931ZM19.6939 9.56181L18.502 7.95576L17.3917 8.77975L17.7704 10.1096L19.6939 9.56181ZM2.71797 9.5618L4.6415 10.1096L5.02018 8.77975L3.90987 7.95575L2.71797 9.5618ZM1.34684 4.2931L3.17022 5.11485L3.17022 5.11485L1.34684 4.2931ZM6.26766 1.0543L4.02025 -0.607964L1.64164 2.60796L3.88905 4.27023L6.26766 1.0543ZM8.54102 4.41317C8.17701 3.13857 7.41931 1.9061 6.26767 1.0543L3.88905 4.27023C4.23366 4.52512 4.53744 4.96061 4.69478 5.51158L8.54102 4.41317ZM9.74486 2.26122C8.3233 2.26122 6.97094 2.58136 5.7608 3.15534L7.475 6.76941C8.16072 6.44417 8.92863 6.26122 9.74486 6.26122V2.26122ZM12.667 2.26122H9.74486V6.26122H12.667V2.26122ZM16.6511 3.15536C15.441 2.58136 14.0886 2.26122 12.667 2.26122V6.26122C13.4833 6.26122 14.2512 6.44417 14.9369 6.76942L16.6511 3.15536ZM16.1443 1.0543C14.9926 1.90611 14.2349 3.13858 13.8709 4.41319L17.7171 5.51159C17.8745 4.96061 18.1783 4.52512 18.5229 4.27023L16.1443 1.0543ZM18.3917 -0.607964L16.1443 1.0543L18.5229 4.27023L20.7703 2.60796L18.3917 -0.607964ZM22.8885 3.47135L21.4044 0.178251L17.7576 1.82175L19.2417 5.11485L22.8885 3.47135ZM20.8858 11.1679C23.1909 9.45722 24.0684 6.08953 22.8885 3.47135L19.2417 5.11485C19.6486 6.0177 19.2982 7.3649 18.502 7.95576L20.8858 11.1679ZM21.9725 11.5666C21.9725 10.6843 21.8491 9.82749 21.6175 9.01406L17.7704 10.1096C17.9016 10.5702 17.9725 11.0585 17.9725 11.5666H21.9725ZM12.667 20.8721C17.8063 20.8721 21.9725 16.7059 21.9725 11.5666H17.9725C17.9725 14.4968 15.5971 16.8721 12.667 16.8721V20.8721ZM9.74486 20.8721H12.667V16.8721H9.74486V20.8721ZM0.439435 11.5666C0.439435 16.7059 4.60561 20.8721 9.74486 20.8721V16.8721C6.81475 16.8721 4.43944 14.4968 4.43944 11.5666H0.439435ZM0.79444 9.01404C0.562796 9.82748 0.439435 10.6843 0.439435 11.5666H4.43944C4.43944 11.0585 4.51031 10.5702 4.6415 10.1096L0.79444 9.01404ZM-0.476547 3.47135C-1.65648 6.08952 -0.778976 9.45719 1.52607 11.1678L3.90987 7.95575C3.11371 7.36489 2.76334 6.01769 3.17022 5.11485L-0.476547 3.47135ZM1.00756 0.178251L-0.476547 3.47135L3.17022 5.11485L4.65433 1.82175L1.00756 0.178251Z" fill="white" mask="url(#path-1-inside-1_383_312)"/>
<rect x="9.47247" y="13.4193" width="2.92217" height="1.46108" rx="0.730542" fill="white"/>
<rect x="6.55029" y="11.9581" width="2.92217" height="2.19163" rx="1" transform="rotate(-90 6.55029 11.9581)" fill="white"/>
<rect x="13.1252" y="11.9581" width="2.92217" height="2.19163" rx="1" transform="rotate(-90 13.1252 11.9581)" fill="white"/>
<line x1="5.2749" y1="13.1529" x2="1.62219" y2="14.614" stroke="white"/>
<line x1="6.85029" y1="16.0108" x2="3.92812" y2="18.2025" stroke="white"/>
<line x1="6.04337" y1="14.597" x2="1.66012" y2="16.7886" stroke="white"/>
<line y1="-0.5" x2="3.93409" y2="-0.5" transform="matrix(0.928477 0.371391 0.371391 -0.928477 17.5084 12.6887)" stroke="white"/>
<line y1="-0.5" x2="3.65271" y2="-0.5" transform="matrix(0.8 0.6 0.6 -0.8 16.0473 15.6108)" stroke="white"/>
<line y1="-0.5" x2="4.90063" y2="-0.5" transform="matrix(0.894427 0.447214 0.447214 -0.894427 16.7779 14.1498)" stroke="white"/>
<path d="M10.2768 14.2114L14.6996 14.2114L12.4882 18.0417L10.2768 14.2114Z" fill="white"/>
<path d="M31.7232 14.2114L27.3004 14.2114L29.5118 18.0417L31.7232 14.2114Z" fill="white"/>
<path fill-rule="evenodd" clip-rule="evenodd" d="M31.2142 22.7232L26.5327 14.637H15.4673L10.7859 22.7232H14.0054L12.4882 25.7024H17.5244L18.6947 30.8094H23.3053L24.4757 25.7024H29.5118L27.9947 22.7232H31.2142ZM25.6815 21.4465C26.3866 21.4465 26.9583 20.8748 26.9583 20.1697C26.9583 19.4646 26.3866 18.8929 25.6815 18.8929C24.9764 18.8929 24.4047 19.4646 24.4047 20.1697C24.4047 20.8748 24.9764 21.4465 25.6815 21.4465ZM18.4465 20.1697C18.4465 20.8748 17.8748 21.4465 17.1697 21.4465C16.4646 21.4465 15.8929 20.8748 15.8929 20.1697C15.8929 19.4646 16.4646 18.8929 17.1697 18.8929C17.8748 18.8929 18.4465 19.4646 18.4465 20.1697ZM22.4743 25.7024L21 28.2559L19.5257 25.7024H22.4743Z" fill="white"/>
</g>
<defs>
<clipPath id="clip0_383_312">
<rect width="32" height="32" fill="white"/>
</clipPath>
</defs>
</svg>
