<svg width="32" height="32" viewBox="0 0 32 32" fill="none" xmlns="http://www.w3.org/2000/svg">
<ellipse cx="18.0311" cy="14.2141" rx="3.5" ry="4" transform="rotate(-30 18.0311 14.2141)" fill="white"/>
<path d="M26.1962 9.9641C27.0894 11.5112 26.6218 13.1824 25.5311 13.8122C24.4404 14.4419 22.7593 14.0112 21.866 12.4641C20.9728 10.917 21.4404 9.24575 22.5311 8.61603C23.6218 7.9863 25.3029 8.41698 26.1962 9.9641Z" stroke="white" stroke-width="2"/>
<path d="M16.6011 22.5044C16.1665 24.1266 15.1237 26.1336 13.8355 27.6168C13.1935 28.3559 12.5278 28.9216 11.8928 29.2547C11.2646 29.5842 10.7247 29.6589 10.2588 29.5341C9.77717 29.405 9.27402 29.0364 8.79219 28.3781C8.31358 27.7242 7.90632 26.8499 7.60528 25.8548C6.99697 23.8441 6.88597 21.5606 7.3008 20.0124C7.77952 18.2258 8.39497 16.5364 9.31733 15.6068C9.74476 15.176 10.206 14.9423 10.7483 14.9093C11.3048 14.8755 12.0715 15.046 13.1085 15.6686C14.2894 16.5646 15.1443 17.2576 15.7589 17.846C16.3813 18.4418 16.7053 18.8824 16.8751 19.2573C17.1929 19.9592 17.0941 20.6645 16.6011 22.5044Z" stroke="white" stroke-width="2"/>
<path d="M8.01934 12.705C9.67143 13.0068 11.9316 12.9239 13.8236 12.3949C14.7664 12.1313 15.5626 11.7719 16.1355 11.3407C16.7023 10.914 17.0011 10.4581 17.0877 9.98372C17.1774 9.4932 17.0597 8.88069 16.6712 8.16337C16.2852 7.45084 15.6695 6.70844 14.8992 6.01029C13.3426 4.59955 11.3265 3.52141 9.74984 3.23334C7.93033 2.90091 6.14017 2.73369 4.90513 3.16914C4.33281 3.37093 3.92401 3.68766 3.66205 4.16356C3.3932 4.65196 3.21898 5.41782 3.33757 6.62159C3.64161 8.07239 3.90169 9.1417 4.17023 9.9491C4.44214 10.7667 4.70158 11.2481 4.96772 11.5621C5.46585 12.1498 6.14555 12.3626 8.01934 12.705Z" stroke="white" stroke-width="2"/>
<line x1="8.53" y1="18.152" x2="16.53" y2="23.152" stroke="white" stroke-width="2"/>
<line x1="20.53" y1="15.152" x2="28.53" y2="20.152" stroke="white" stroke-width="2"/>
<path d="M24 8.15199L27 5.00005L30.53 8.15202" stroke="white" stroke-width="2"/>
<line x1="19.7071" y1="17.2929" x2="26.3779" y2="23.9637" stroke="white" stroke-width="2"/>
<line x1="17.9659" y1="17.7412" x2="20.4076" y2="26.8537" stroke="white" stroke-width="2"/>
<line x1="7.39392" y1="23.0809" x2="14.3939" y2="26.0809" stroke="white" stroke-width="2"/>
</svg>
