<svg width="32" height="32" viewBox="0 0 32 32" fill="none" xmlns="http://www.w3.org/2000/svg">
<mask id="path-1-inside-1_348_198" fill="white">
<path fill-rule="evenodd" clip-rule="evenodd" d="M27.3489 13.843C27.3489 14.7936 27.075 15.6802 26.6019 16.4283L27.0222 17.9969C28.0228 21.7311 25.8067 25.5695 22.0724 26.5701L17.663 27.7516C13.9288 28.7522 10.0904 26.5361 9.08983 22.8018L7.97681 18.648L18.1328 15.9267C17.8315 15.2956 17.6628 14.589 17.6628 13.843C17.6628 11.1683 19.8311 9 22.5059 9C24.1112 9 25.5342 9.78111 26.4154 10.984L30.0232 11.3665L27.3223 13.3325C27.3399 13.5003 27.3489 13.6706 27.3489 13.843Z"/>
</mask>
<path d="M26.6019 16.4283L24.9116 15.3592L24.4433 16.0997L24.67 16.9459L26.6019 16.4283ZM27.0222 17.9969L28.954 17.4792L27.0222 17.9969ZM22.0724 26.5701L21.5548 24.6382H21.5548L22.0724 26.5701ZM17.663 27.7516L18.1807 29.6834L17.663 27.7516ZM9.08983 22.8018L11.0217 22.2842L9.08983 22.8018ZM7.97681 18.648L7.45917 16.7161L5.52732 17.2338L6.04496 19.1656L7.97681 18.648ZM18.1328 15.9267L18.6504 17.8585L20.9739 17.236L19.9377 15.0652L18.1328 15.9267ZM26.4154 10.984L24.8019 12.1659L25.3247 12.8796L26.2045 12.9729L26.4154 10.984ZM30.0232 11.3665L31.2002 12.9835L35.4012 9.92546L30.234 9.37765L30.0232 11.3665ZM27.3223 13.3325L26.1453 11.7156L25.2131 12.3941L25.3332 13.5409L27.3223 13.3325ZM28.2921 17.4974C28.9616 16.4389 29.3489 15.1831 29.3489 13.843H25.3489C25.3489 14.4041 25.1884 14.9216 24.9116 15.3592L28.2921 17.4974ZM28.954 17.4792L28.5337 15.9107L24.67 16.9459L25.0903 18.5145L28.954 17.4792ZM22.5901 28.5019C27.3913 27.2155 30.2405 22.2804 28.954 17.4792L25.0903 18.5145C25.805 21.1818 24.2221 23.9235 21.5548 24.6382L22.5901 28.5019ZM18.1807 29.6834L22.5901 28.5019L21.5548 24.6382L17.1454 25.8197L18.1807 29.6834ZM7.15798 23.3195C8.44445 28.1207 13.3795 30.9699 18.1807 29.6834L17.1454 25.8197C14.4781 26.5344 11.7364 24.9515 11.0217 22.2842L7.15798 23.3195ZM6.04496 19.1656L7.15798 23.3195L11.0217 22.2842L9.90866 18.1303L6.04496 19.1656ZM17.6151 13.9948L7.45917 16.7161L8.49444 20.5798L18.6504 17.8585L17.6151 13.9948ZM15.6628 13.843C15.6628 14.8934 15.9009 15.8938 16.3278 16.7882L19.9377 15.0652C19.7621 14.6973 19.6628 14.2846 19.6628 13.843H15.6628ZM22.5059 7C18.7266 7 15.6628 10.0637 15.6628 13.843H19.6628C19.6628 12.2729 20.9357 11 22.5059 11V7ZM28.0288 9.80211C26.7871 8.10711 24.7756 7 22.5059 7V11C23.4468 11 24.2813 11.4551 24.8019 12.1659L28.0288 9.80211ZM26.2045 12.9729L29.8123 13.3554L30.234 9.37765L26.6262 8.99516L26.2045 12.9729ZM28.8462 9.74953L26.1453 11.7156L28.4993 14.9495L31.2002 12.9835L28.8462 9.74953ZM29.3489 13.843C29.3489 13.6009 29.3362 13.361 29.3114 13.1242L25.3332 13.5409C25.3435 13.6396 25.3489 13.7403 25.3489 13.843H29.3489Z" fill="white" mask="url(#path-1-inside-1_348_198)"/>
<line x1="19.4506" y1="26.9539" x2="18.6434" y2="30.9897" stroke="white" stroke-width="2"/>
<line x1="20.9419" y1="26.2433" x2="23.3634" y2="30.2791" stroke="white" stroke-width="2"/>
<circle cx="22.9095" cy="13.4395" r="1.21076" fill="white"/>
<path d="M12.276 8.77441C12.276 8.77441 9.40301 9.74076 7.72106 10.6853C5.86474 11.7277 3.34204 13.9324 3.34204 13.9324" stroke="white"/>
<path fill-rule="evenodd" clip-rule="evenodd" d="M18.0278 8.29931L13.4135 9.26468L14.8087 9.26468C15.361 9.26468 15.8087 9.7124 15.8087 10.2647L15.8087 10.453C15.8087 11.0053 15.361 11.453 14.8087 11.453L12.374 11.453L12.8075 11.7033C13.1564 11.9048 13.2759 12.3509 13.0745 12.6998C12.873 13.0487 12.4269 13.1682 12.078 12.9668L9.55112 11.5079C9.52225 11.4912 9.49495 11.4729 9.46928 11.453L8.47867 11.453C8.04458 11.453 7.67509 11.1765 7.53682 10.7899C7.7487 10.6541 7.95607 10.5282 8.15467 10.4166C8.96308 9.96266 10.0742 9.49539 10.9987 9.13729C11.4578 8.95946 11.8651 8.81075 12.1575 8.70655C12.3036 8.65447 12.4208 8.61357 12.5013 8.58578L12.5934 8.55418L12.6168 8.54622L12.6226 8.54428L12.6239 8.54382L12.6242 8.54373L12.6242 8.54371L12.4648 8.06981L12.3053 7.59593L12.3052 7.59598L12.3046 7.59615L12.3029 7.59675L12.2962 7.599L12.2709 7.6076L12.1748 7.64057C12.0916 7.66932 11.9713 7.7113 11.8218 7.76457C11.5229 7.87108 11.1069 8.02298 10.6375 8.2048C9.77512 8.53883 8.71278 8.98142 7.86697 9.43407L8.76178 6.09459C8.86605 5.70545 9.26604 5.47451 9.65518 5.57878C10.0443 5.68305 10.2752 6.08304 10.171 6.47218L9.88911 7.52415L11.5775 4.59979C11.8536 4.1215 12.4652 3.95763 12.9435 4.23377L13.1066 4.32795C13.5849 4.60409 13.7488 5.21568 13.4727 5.69398L13.2956 6.00061L16.2417 3.99907C16.5654 3.7792 16.9875 3.76827 17.3221 3.9711L18.6348 4.76688C18.9865 4.9801 19.1718 5.38694 19.1018 5.79224L18.8084 7.49072C18.7386 7.89481 18.4292 8.21534 18.0278 8.29931Z" fill="white"/>
</svg>
