<svg width="32" height="32" viewBox="0 0 32 32" fill="none" xmlns="http://www.w3.org/2000/svg">
<g clip-path="url(#clip0_348_198)">
<mask id="path-1-inside-1_348_198" fill="white">
<path fill-rule="evenodd" clip-rule="evenodd" d="M27.3489 13.843C27.3489 14.7936 27.075 15.6802 26.6019 16.4283L27.0222 17.9969C28.0228 21.7311 25.8067 25.5695 22.0724 26.5701L17.663 27.7516C13.9288 28.7522 10.0904 26.5361 9.08983 22.8018L7.97681 18.648L18.1328 15.9267C17.8315 15.2956 17.6628 14.589 17.6628 13.843C17.6628 11.1683 19.8311 9 22.5059 9C24.1112 9 25.5342 9.78111 26.4154 10.984L30.0232 11.3665L27.3223 13.3325C27.3399 13.5003 27.3489 13.6706 27.3489 13.843Z"/>
</mask>
<path d="M26.6019 16.4283L24.9116 15.3592L24.4433 16.0997L24.67 16.9459L26.6019 16.4283ZM27.0222 17.9969L28.954 17.4792L27.0222 17.9969ZM22.0724 26.5701L21.5548 24.6382H21.5548L22.0724 26.5701ZM17.663 27.7516L18.1807 29.6834L17.663 27.7516ZM9.08983 22.8018L11.0217 22.2842L9.08983 22.8018ZM7.97681 18.648L7.45917 16.7161L5.52732 17.2338L6.04496 19.1656L7.97681 18.648ZM18.1328 15.9267L18.6504 17.8585L20.9739 17.236L19.9377 15.0652L18.1328 15.9267ZM26.4154 10.984L24.8019 12.1659L25.3247 12.8796L26.2045 12.9729L26.4154 10.984ZM30.0232 11.3665L31.2002 12.9835L35.4012 9.92546L30.234 9.37765L30.0232 11.3665ZM27.3223 13.3325L26.1453 11.7156L25.2131 12.3941L25.3332 13.5409L27.3223 13.3325ZM28.2921 17.4974C28.9616 16.4389 29.3489 15.1831 29.3489 13.843H25.3489C25.3489 14.4041 25.1884 14.9216 24.9116 15.3592L28.2921 17.4974ZM28.954 17.4792L28.5337 15.9107L24.67 16.9459L25.0903 18.5145L28.954 17.4792ZM22.5901 28.5019C27.3913 27.2155 30.2405 22.2804 28.954 17.4792L25.0903 18.5145C25.805 21.1818 24.2221 23.9235 21.5548 24.6382L22.5901 28.5019ZM18.1807 29.6834L22.5901 28.5019L21.5548 24.6382L17.1454 25.8197L18.1807 29.6834ZM7.15798 23.3195C8.44445 28.1207 13.3795 30.9699 18.1807 29.6834L17.1454 25.8197C14.4781 26.5344 11.7364 24.9515 11.0217 22.2842L7.15798 23.3195ZM6.04496 19.1656L7.15798 23.3195L11.0217 22.2842L9.90866 18.1303L6.04496 19.1656ZM17.6151 13.9948L7.45917 16.7161L8.49444 20.5798L18.6504 17.8585L17.6151 13.9948ZM15.6628 13.843C15.6628 14.8934 15.9009 15.8938 16.3278 16.7882L19.9377 15.0652C19.7621 14.6973 19.6628 14.2846 19.6628 13.843H15.6628ZM22.5059 7C18.7266 7 15.6628 10.0637 15.6628 13.843H19.6628C19.6628 12.2729 20.9357 11 22.5059 11V7ZM28.0288 9.80211C26.7871 8.10711 24.7756 7 22.5059 7V11C23.4468 11 24.2813 11.4551 24.8019 12.1659L28.0288 9.80211ZM26.2045 12.9729L29.8123 13.3554L30.234 9.37765L26.6262 8.99516L26.2045 12.9729ZM28.8462 9.74953L26.1453 11.7156L28.4993 14.9495L31.2002 12.9835L28.8462 9.74953ZM29.3489 13.843C29.3489 13.6009 29.3362 13.361 29.3114 13.1242L25.3332 13.5409C25.3435 13.6396 25.3489 13.7403 25.3489 13.843H29.3489Z" fill="white" mask="url(#path-1-inside-1_348_198)"/>
<line x1="19.4506" y1="26.9539" x2="18.6434" y2="30.9897" stroke="white" stroke-width="2"/>
<line x1="20.9419" y1="26.2433" x2="23.3634" y2="30.2791" stroke="white" stroke-width="2"/>
<circle cx="22.9095" cy="13.4395" r="1.21076" fill="white"/>
<path d="M9.53381 9.95807C9.53381 9.95807 13.3543 8.67304 15.5909 7.41705C18.0594 6.03085 21.414 3.09902 21.414 3.09902" stroke="white"/>
<path fill-rule="evenodd" clip-rule="evenodd" d="M5.83614 9.30604L8.02133 9.30604L1.66589 10.6357C1.2645 10.7196 0.955062 11.0402 0.885261 11.4443L0.418709 14.1452C0.348699 14.5505 0.533994 14.9574 0.885714 15.1706L3.00471 16.4552C3.3393 16.658 3.76144 16.6471 4.08507 16.4272L8.17803 13.6465L7.77768 14.3399C7.50153 14.8182 7.66541 15.4298 8.1437 15.706L8.93183 16.161C9.41012 16.4371 10.0217 16.2733 10.2979 15.795L12.7078 11.6207L12.3331 13.0195C12.1944 13.537 12.5015 14.0689 13.019 14.2075C13.5364 14.3462 14.0683 14.0391 14.207 13.5216L15.3654 9.19821C15.5953 9.08147 15.774 8.8785 15.859 8.63187C15.7666 8.68637 15.6751 8.73911 15.5847 8.78989C14.4338 9.43617 12.8919 10.0819 11.6532 10.5617C11.0307 10.8028 10.4789 11.0043 10.0825 11.1455C9.88427 11.2162 9.72475 11.2718 9.61453 11.3099C9.55942 11.3289 9.51662 11.3436 9.48745 11.3535L9.4541 11.3648L9.44539 11.3678L9.44309 11.3685L9.44246 11.3688L9.44227 11.3688C9.44221 11.3688 9.44217 11.3689 9.28277 10.8949L9.12336 10.421L9.12343 10.421L9.12384 10.4209L9.1257 10.4202L9.1335 10.4176L9.16499 10.4069C9.19288 10.3974 9.23434 10.3832 9.28806 10.3647C9.39551 10.3276 9.55194 10.273 9.74681 10.2035C10.1367 10.0646 10.6798 9.86632 11.292 9.62919C12.5227 9.15248 14.0093 8.52767 15.095 7.91796C15.3584 7.77006 15.633 7.60352 15.9132 7.42407L15.9132 7.39599C15.9132 6.84371 15.4655 6.39599 14.9133 6.39599L13.2662 6.39599C13.232 6.36962 13.1957 6.34522 13.1573 6.32305L9.7971 4.38302C9.33315 4.11516 8.73989 4.27412 8.47203 4.73807C8.20417 5.20202 8.36313 5.79528 8.82708 6.06314L9.4036 6.39599L5.83615 6.39599C5.28386 6.39599 4.83615 6.84371 4.83615 7.39599L4.83615 8.30604C4.83615 8.85833 5.28386 9.30604 5.83614 9.30604Z" fill="white"/>
</g>
<defs>
<clipPath id="clip0_348_198">
<rect width="32" height="32" fill="white"/>
</clipPath>
</defs>
</svg>
