<svg width="32" height="32" viewBox="0 0 32 32" fill="none" xmlns="http://www.w3.org/2000/svg">
<mask id="path-1-inside-1_329_550" fill="white">
<path fill-rule="evenodd" clip-rule="evenodd" d="M22.9234 12.5007C22.4421 15.6154 19.7495 18 16.5 18C13.2505 18 10.5578 15.6154 10.0766 12.5007C8.1854 14.2372 7 16.7301 7 19.5C7 24.7467 11.2533 29 16.5 29C21.7467 29 26 24.7467 26 19.5C26 16.7301 24.8146 14.2372 22.9234 12.5007Z"/>
</mask>
<path d="M22.9234 12.5007L24.2761 11.0275L21.5186 8.4955L20.9469 12.1953L22.9234 12.5007ZM10.0766 12.5007L12.0531 12.1953L11.4814 8.49549L8.72387 11.0275L10.0766 12.5007ZM20.9469 12.1953C20.614 14.3499 18.7478 16 16.5 16V20C20.7513 20 24.2703 16.8809 24.9 12.8061L20.9469 12.1953ZM16.5 16C14.2522 16 12.386 14.3499 12.0531 12.1953L8.10001 12.8061C8.72966 16.8809 12.2487 20 16.5 20V16ZM9 19.5C9 17.3133 9.93325 15.3475 11.4292 13.9738L8.72387 11.0275C6.43754 13.1268 5 16.147 5 19.5H9ZM16.5 27C12.3579 27 9 23.6421 9 19.5H5C5 25.8513 10.1487 31 16.5 31V27ZM24 19.5C24 23.6421 20.6421 27 16.5 27V31C22.8513 31 28 25.8513 28 19.5H24ZM21.5708 13.9738C23.0667 15.3475 24 17.3133 24 19.5H28C28 16.147 26.5625 13.1268 24.2761 11.0275L21.5708 13.9738Z" fill="white" mask="url(#path-1-inside-1_329_550)"/>
<line x1="20.9487" y1="2.31623" x2="19.9487" y2="5.31623" stroke="white" stroke-width="2"/>
<line x1="28.3654" y1="7.81318" x2="23.582" y2="11.2368" stroke="white" stroke-width="2"/>
<line x1="30.3654" y1="10.8132" x2="25.582" y2="14.2368" stroke="white" stroke-width="2"/>
<line x1="29.4523" y1="29.8665" x2="25.2929" y2="25.7071" stroke="white" stroke-width="2"/>
<line y1="-1" x2="3.16228" y2="-1" transform="matrix(0.316228 0.948683 0.948683 -0.316228 13.1594 2)" stroke="white" stroke-width="2"/>
<line y1="-1" x2="5.8823" y2="-1" transform="matrix(0.81318 0.582012 0.582012 -0.81318 5.37605 7)" stroke="white" stroke-width="2"/>
<line y1="-1" x2="5.8823" y2="-1" transform="matrix(0.81318 0.582012 0.582012 -0.81318 3.37605 10)" stroke="white" stroke-width="2"/>
<line y1="-1" x2="5.8823" y2="-1" transform="matrix(0.707107 -0.707107 -0.707107 -0.707107 3 29.1594)" stroke="white" stroke-width="2"/>
<circle cx="16.5" cy="11.5" r="4.5" stroke="white" stroke-width="2"/>
</svg>
