<svg width="32" height="32" viewBox="0 0 32 32" fill="none" xmlns="http://www.w3.org/2000/svg">
<mask id="path-1-inside-1_108_407" fill="white">
<path fill-rule="evenodd" clip-rule="evenodd" d="M4.90878 4L9.02304 7.04306C9.59813 7.46842 10.0448 8.0596 10.339 8.72494C10.9884 8.55474 11.6701 8.46411 12.3729 8.46411H20.3729C21.0757 8.46411 21.7573 8.55474 22.4067 8.72495C22.701 8.0596 23.1476 7.46842 23.7227 7.04306L27.837 4L30.3989 9.68471C31.1931 11.447 30.5771 13.8075 29.023 14.9569L28.3132 15.482C28.3526 15.8038 28.3729 16.1316 28.3729 16.4641V20.4641C28.3729 24.8824 24.7911 28.4641 20.3729 28.4641H12.3729C7.95459 28.4641 4.37287 24.8824 4.37287 20.4641V16.4641C4.37287 16.1316 4.39316 15.8038 4.43256 15.4819L3.72271 14.9569C2.16862 13.8075 1.55262 11.447 2.34684 9.68471L4.90878 4Z"/>
</mask>
<path d="M9.02304 7.04306L7.83374 8.65102L7.83374 8.65102L9.02304 7.04306ZM4.90878 4L6.09808 2.39204L4.10431 0.917369L3.08539 3.17825L4.90878 4ZM10.339 8.72494L8.50991 9.53387L9.19871 11.0913L10.8461 10.6596L10.339 8.72494ZM22.4067 8.72495L21.8997 10.6596L23.5471 11.0914L24.2359 9.53387L22.4067 8.72495ZM23.7227 7.04306L22.5334 5.43509L22.5334 5.43509L23.7227 7.04306ZM27.837 4L29.6604 3.17825L28.6415 0.917369L26.6477 2.39204L27.837 4ZM30.3989 9.68471L28.5755 10.5065L28.5755 10.5065L30.3989 9.68471ZM29.023 14.9569L27.8337 13.349L27.8337 13.349L29.023 14.9569ZM28.3132 15.482L27.1239 13.874L26.1863 14.5675L26.328 15.725L28.3132 15.482ZM4.43256 15.4819L6.41774 15.725L6.55945 14.5674L5.62187 13.874L4.43256 15.4819ZM3.72271 14.9569L4.91202 13.349L4.91202 13.349L3.72271 14.9569ZM2.34684 9.68471L0.523453 8.86296L0.523453 8.86296L2.34684 9.68471ZM10.2124 5.43509L6.09808 2.39204L3.71947 5.60796L7.83374 8.65102L10.2124 5.43509ZM12.1681 7.91601C11.7514 6.97385 11.1 6.09162 10.2124 5.43509L7.83374 8.65102C8.09628 8.84521 8.33808 9.14535 8.50991 9.53387L12.1681 7.91601ZM12.3729 6.46411C11.4975 6.46411 10.6455 6.57707 9.83197 6.79028L10.8461 10.6596C11.3314 10.5324 11.8427 10.4641 12.3729 10.4641V6.46411ZM20.3729 6.46411H12.3729V10.4641H20.3729V6.46411ZM22.9138 6.79029C22.1003 6.57708 21.2483 6.46411 20.3729 6.46411V10.4641C20.9031 10.4641 21.4144 10.5324 21.8997 10.6596L22.9138 6.79029ZM22.5334 5.43509C21.6458 6.09163 20.9943 6.97386 20.5776 7.91602L24.2359 9.53387C24.4077 9.14535 24.6495 8.84521 24.912 8.65102L22.5334 5.43509ZM26.6477 2.39204L22.5334 5.43509L24.912 8.65102L29.0263 5.60796L26.6477 2.39204ZM32.2223 8.86296L29.6604 3.17825L26.0136 4.82175L28.5755 10.5065L32.2223 8.86296ZM30.2124 16.5649C32.5233 14.8557 33.4033 11.4835 32.2223 8.86296L28.5755 10.5065C28.983 11.4105 28.631 12.7593 27.8337 13.349L30.2124 16.5649ZM29.5025 17.0899L30.2124 16.5649L27.8337 13.349L27.1239 13.874L29.5025 17.0899ZM30.3729 16.4641C30.3729 16.0502 30.3476 15.6412 30.2984 15.2389L26.328 15.725C26.3576 15.9664 26.3729 16.213 26.3729 16.4641H30.3729ZM30.3729 20.4641V16.4641H26.3729V20.4641H30.3729ZM20.3729 30.4641C25.8957 30.4641 30.3729 25.987 30.3729 20.4641H26.3729C26.3729 23.7778 23.6866 26.4641 20.3729 26.4641V30.4641ZM12.3729 30.4641H20.3729V26.4641H12.3729V30.4641ZM2.37287 20.4641C2.37287 25.987 6.85002 30.4641 12.3729 30.4641V26.4641C9.05916 26.4641 6.37287 23.7778 6.37287 20.4641H2.37287ZM2.37287 16.4641V20.4641H6.37287V16.4641H2.37287ZM2.44738 15.2389C2.39813 15.6412 2.37287 16.0502 2.37287 16.4641H6.37287C6.37287 16.213 6.38819 15.9664 6.41774 15.725L2.44738 15.2389ZM2.53341 16.5649L3.24325 17.0899L5.62187 13.874L4.91202 13.349L2.53341 16.5649ZM0.523453 8.86296C-0.657534 11.4835 0.222501 14.8557 2.53341 16.5649L4.91202 13.349C4.11474 12.7593 3.76277 11.4106 4.17022 10.5065L0.523453 8.86296ZM3.08539 3.17825L0.523453 8.86296L4.17022 10.5065L6.73216 4.82175L3.08539 3.17825Z" fill="white" mask="url(#path-1-inside-1_108_407)"/>
<rect x="14" y="21" width="4" height="2" rx="1" fill="white"/>
<rect x="10" y="19" width="4" height="3" rx="1" transform="rotate(-90 10 19)" fill="white"/>
<rect x="19" y="19" width="4" height="3" rx="1" transform="rotate(-90 19 19)" fill="white"/>
<line x1="8.1857" y1="20.4642" x2="3.1857" y2="22.4642" stroke="white"/>
<line x1="10.3" y1="24.4" x2="6.3" y2="27.4" stroke="white"/>
<line x1="9.22361" y1="22.4472" x2="3.22361" y2="25.4472" stroke="white"/>
<line y1="-0.5" x2="5.38516" y2="-0.5" transform="matrix(0.928477 0.371391 0.371391 -0.928477 25 20)" stroke="white"/>
<line y1="-0.5" x2="5" y2="-0.5" transform="matrix(0.8 0.6 0.6 -0.8 23 24)" stroke="white"/>
<line y1="-0.5" x2="6.7082" y2="-0.5" transform="matrix(0.894427 0.447214 0.447214 -0.894427 24 22)" stroke="white"/>
</svg>
