<svg width="32" height="32" viewBox="0 0 32 32" fill="none" xmlns="http://www.w3.org/2000/svg">
<g clip-path="url(#clip0_108_407)">
<path d="M29.2078 6.01182L21.8501 7.98329L27.2363 13.3694L29.2078 6.01182Z" fill="white"/>
<path d="M2.98838 6.01182L10.346 7.98329L4.95985 13.3694L2.98838 6.01182Z" fill="white"/>
<path fill-rule="evenodd" clip-rule="evenodd" d="M13.5 9C9.35786 9 6 12.3579 6 16.5C6 20.6421 9.35786 24 13.5 24H18.5C22.6421 24 26 20.6421 26 16.5C26 12.3579 22.6421 9 18.5 9H13.5ZM11.5 17C12.8807 17 14 15.8807 14 14.5C14 13.1193 12.8807 12 11.5 12C10.1193 12 9 13.1193 9 14.5C9 15.8807 10.1193 17 11.5 17ZM23 14.5C23 15.8807 21.8807 17 20.5 17C19.1193 17 18 15.8807 18 14.5C18 13.1193 19.1193 12 20.5 12C21.8807 12 23 13.1193 23 14.5ZM15.134 20.5C15.5189 21.1667 16.4811 21.1667 16.866 20.5L17.7321 19C18.117 18.3333 17.6358 17.5 16.866 17.5H15.134C14.3642 17.5 13.883 18.3333 14.2679 19L15.134 20.5ZM9 18H11V19H9V18ZM21 18H23V19H21V18ZM9.13398 20.5L10.866 19.5L11.366 20.366L9.63398 21.366L9.13398 20.5ZM21.134 19.5L22.866 20.5L22.366 21.366L20.634 20.366L21.134 19.5Z" fill="white"/>
<circle cx="11.5" cy="14.5" r="1.5" fill="white"/>
<circle cx="20.5" cy="14.5" r="1.5" fill="white"/>
</g>
<defs>
<clipPath id="clip0_108_407">
<rect width="32" height="32" fill="white"/>
</clipPath>
</defs>
</svg>
