<svg width="32" height="32" viewBox="0 0 32 32" fill="none" xmlns="http://www.w3.org/2000/svg">
<mask id="path-1-inside-1_348_168" fill="white">
<path fill-rule="evenodd" clip-rule="evenodd" d="M26 9C26 10.1777 25.6607 11.2761 25.0745 12.2029L26.028 15.7615C27.0286 19.4957 24.8125 23.3341 21.0783 24.3347L12.3849 26.664C8.65068 27.6646 4.81233 25.4486 3.81173 21.7143L2 14.9528L14.5822 11.5814C14.2089 10.7995 14 9.92417 14 9C14 5.68629 16.6863 3 20 3C21.9889 3 23.7518 3.96772 24.8435 5.45798L29.3132 5.93185L25.9671 8.36757C25.9888 8.5754 26 8.7864 26 9Z"/>
</mask>
<path d="M25.0745 12.2029L23.3842 11.1338L22.9159 11.8743L23.1427 12.7205L25.0745 12.2029ZM26.028 15.7615L24.0962 16.2791L26.028 15.7615ZM21.0783 24.3347L21.5959 26.2665H21.5959L21.0783 24.3347ZM12.3849 26.664L11.8673 24.7322L12.3849 26.664ZM3.81173 21.7143L1.87988 22.2319L3.81173 21.7143ZM2 14.9528L1.48236 13.021L-0.44949 13.5386L0.0681484 15.4705L2 14.9528ZM14.5822 11.5814L15.0998 13.5133L17.4233 12.8907L16.3871 10.7199L14.5822 11.5814ZM24.8435 5.45798L23.23 6.63988L23.7528 7.35357L24.6326 7.44684L24.8435 5.45798ZM29.3132 5.93185L30.4902 7.54882L34.6912 4.49081L29.524 3.943L29.3132 5.93185ZM25.9671 8.36757L24.79 6.7506L23.8578 7.42918L23.978 8.57594L25.9671 8.36757ZM26.7648 13.272C27.5473 12.0348 28 10.5672 28 9H24C24 9.78818 23.7741 10.5175 23.3842 11.1338L26.7648 13.272ZM27.9599 15.2438L27.0064 11.6853L23.1427 12.7205L24.0962 16.2791L27.9599 15.2438ZM21.5959 26.2665C26.3971 24.9801 29.2464 20.045 27.9599 15.2438L24.0962 16.2791C24.8109 18.9464 23.228 21.6881 20.5606 22.4028L21.5959 26.2665ZM12.9026 28.5959L21.5959 26.2665L20.5606 22.4028L11.8673 24.7322L12.9026 28.5959ZM1.87988 22.2319C3.16636 27.0331 8.10139 29.8824 12.9026 28.5959L11.8673 24.7322C9.19998 25.4469 6.45829 23.864 5.74358 21.1967L1.87988 22.2319ZM0.0681484 15.4705L1.87988 22.2319L5.74358 21.1967L3.93185 14.4352L0.0681484 15.4705ZM14.0645 9.64959L1.48236 13.021L2.51764 16.8847L15.0998 13.5133L14.0645 9.64959ZM12 9C12 10.2286 12.2783 11.3977 12.7772 12.443L16.3871 10.7199C16.1396 10.2013 16 9.61976 16 9H12ZM20 1C15.5817 1 12 4.58172 12 9H16C16 6.79086 17.7909 5 20 5V1ZM26.4569 4.27609C25.0047 2.29372 22.6533 1 20 1V5C21.3245 5 22.4988 5.64172 23.23 6.63988L26.4569 4.27609ZM24.6326 7.44684L29.1023 7.92071L29.524 3.943L25.0543 3.46913L24.6326 7.44684ZM28.1362 4.31488L24.79 6.7506L27.1441 9.98454L30.4902 7.54882L28.1362 4.31488ZM28 9C28 8.71668 27.9852 8.43613 27.9562 8.15919L23.978 8.57594C23.9925 8.71468 24 8.85612 24 9H28Z" fill="white" mask="url(#path-1-inside-1_348_168)"/>
<line x1="15.9806" y1="25.1961" x2="14.9806" y2="30.1961" stroke="white" stroke-width="2"/>
<line x1="17.8575" y1="24.4855" x2="20.8575" y2="29.4855" stroke="white" stroke-width="2"/>
<circle cx="20.5" cy="8.5" r="1.5" fill="white"/>
</svg>
