<svg width="32" height="32" viewBox="0 0 32 32" fill="none" xmlns="http://www.w3.org/2000/svg">
<mask id="path-1-inside-1_351_405" fill="white">
<path fill-rule="evenodd" clip-rule="evenodd" d="M28.6952 15.1738C28.6952 15.9931 28.4592 16.7572 28.0514 17.4019L28.1633 17.8194C29.1639 21.5536 26.9478 25.392 23.2136 26.3926L21.2821 26.9101C17.5478 27.9107 13.7095 25.6946 12.7089 21.9604L12 19.3148L20.7526 16.9695C20.493 16.4256 20.3476 15.8167 20.3476 15.1738C20.3476 12.8687 22.2163 11 24.5214 11C25.905 11 27.1313 11.6732 27.8907 12.7099L31 13.0395L28.6723 14.7339C28.6875 14.8784 28.6952 15.0252 28.6952 15.1738Z"/>
</mask>
<path d="M28.0514 17.4019L26.3612 16.3328L25.8928 17.0732L26.1196 17.9195L28.0514 17.4019ZM28.1633 17.8194L30.0952 17.3017V17.3017L28.1633 17.8194ZM23.2136 26.3926L23.7312 28.3244H23.7312L23.2136 26.3926ZM21.2821 26.9101L20.7645 24.9783L20.7644 24.9783L21.2821 26.9101ZM12.7089 21.9604L14.6407 21.4427L12.7089 21.9604ZM12 19.3148L11.4824 17.3829L9.55051 17.9006L10.0681 19.8324L12 19.3148ZM20.7526 16.9695L21.2702 18.9014L23.5937 18.2788L22.5575 16.108L20.7526 16.9695ZM27.8907 12.7099L26.2773 13.8918L26.8001 14.6054L27.6798 14.6987L27.8907 12.7099ZM31 13.0395L32.177 14.6565L36.378 11.5985L31.2108 11.0506L31 13.0395ZM28.6723 14.7339L27.4953 13.1169L26.5631 13.7955L26.6832 14.9422L28.6723 14.7339ZM29.7417 18.471C30.3458 17.5158 30.6952 16.3826 30.6952 15.1738H26.6952C26.6952 15.6035 26.5726 15.9985 26.3612 16.3328L29.7417 18.471ZM30.0952 17.3017L29.9833 16.8842L26.1196 17.9195L26.2315 18.337L30.0952 17.3017ZM23.7312 28.3244C28.5324 27.0379 31.3816 22.1029 30.0952 17.3017L26.2315 18.337C26.9462 21.0043 25.3632 23.746 22.6959 24.4607L23.7312 28.3244ZM21.7997 28.842L23.7312 28.3244L22.6959 24.4607L20.7645 24.9783L21.7997 28.842ZM10.777 22.478C12.0635 27.2792 16.9985 30.1284 21.7997 28.842L20.7644 24.9783C18.0971 25.693 15.3554 24.1101 14.6407 21.4427L10.777 22.478ZM10.0681 19.8324L10.777 22.478L14.6407 21.4427L13.9319 18.7972L10.0681 19.8324ZM20.235 15.0377L11.4824 17.3829L12.5176 21.2466L21.2702 18.9014L20.235 15.0377ZM18.3476 15.1738C18.3476 16.1211 18.5623 17.0238 18.9477 17.8311L22.5575 16.108C22.4236 15.8274 22.3476 15.5123 22.3476 15.1738H18.3476ZM24.5214 9C21.1117 9 18.3476 11.7641 18.3476 15.1738H22.3476C22.3476 13.9732 23.3209 13 24.5214 13V9ZM29.5041 11.528C28.3842 9.99918 26.5694 9 24.5214 9V13C25.2406 13 25.8784 13.3472 26.2773 13.8918L29.5041 11.528ZM27.6798 14.6987L30.7891 15.0284L31.2108 11.0506L28.1016 10.721L27.6798 14.6987ZM29.823 11.4225L27.4953 13.1169L29.8494 16.3508L32.177 14.6565L29.823 11.4225ZM30.6952 15.1738C30.6952 14.9555 30.6838 14.7392 30.6614 14.5255L26.6832 14.9422C26.6911 15.0177 26.6952 15.0949 26.6952 15.1738H30.6952Z" fill="white" mask="url(#path-1-inside-1_351_405)"/>
<line x1="22.0238" y1="26.5001" x2="21.3282" y2="29.9782" stroke="white" stroke-width="2"/>
<line x1="23.292" y1="25.7895" x2="25.3789" y2="29.2676" stroke="white" stroke-width="2"/>
<circle cx="24.8692" cy="14.826" r="1.04345" fill="white"/>
<path d="M12 7.94116C12.2704 7.94116 12.5381 7.99442 12.7879 8.09788C13.0377 8.20135 13.2646 8.353 13.4558 8.54418C13.647 8.73536 13.7986 8.96232 13.9021 9.21211C14.0056 9.4619 14.0588 9.72962 14.0588 9.99999C14.0588 10.2704 14.0056 10.5381 13.9021 10.7879C13.7986 11.0377 13.647 11.2646 13.4558 11.4558C13.2646 11.647 13.0377 11.7986 12.7879 11.9021C12.5381 12.0056 12.2704 12.0588 12 12.0588L12 10.8235C12.1081 10.8235 12.2152 10.8022 12.3152 10.7608C12.4151 10.7194 12.5059 10.6588 12.5823 10.5823C12.6588 10.5058 12.7195 10.4151 12.7608 10.3151C12.8022 10.2152 12.8235 10.1081 12.8235 9.99999C12.8235 9.89184 12.8022 9.78475 12.7608 9.68483C12.7195 9.58492 12.6588 9.49413 12.5823 9.41766C12.5059 9.34119 12.4151 9.28053 12.3152 9.23914C12.2152 9.19776 12.1081 9.17646 12 9.17646V7.94116Z" fill="white"/>
<path d="M13.1723 5.62492C14.1354 5.88298 14.9864 6.45163 15.5934 7.24266C16.2004 8.0337 16.5294 9.00291 16.5294 9.99999C16.5294 10.9971 16.2004 11.9663 15.5934 12.7573C14.9864 13.5484 14.1354 14.117 13.1723 14.3751L12.8206 13.0625C13.4948 12.8819 14.0905 12.4838 14.5154 11.9301C14.9403 11.3764 15.1706 10.6979 15.1706 9.99999C15.1706 9.30204 14.9403 8.62359 14.5154 8.06986C14.0905 7.51614 13.4948 7.11808 12.8206 6.93744L13.1723 5.62492Z" fill="white"/>
<path d="M13.8117 3.23852C15.3002 3.63734 16.6154 4.51616 17.5535 5.73867C18.4915 6.96118 19 8.45906 19 10C19 11.5409 18.4915 13.0388 17.5535 14.2613C16.6154 15.4838 15.3002 16.3627 13.8117 16.7615L13.4494 15.4092C14.6401 15.0901 15.6923 14.3871 16.4428 13.4091C17.1932 12.4311 17.6 11.2328 17.6 10C17.6 8.76725 17.1932 7.56894 16.4428 6.59094C15.6923 5.61293 14.6401 4.90987 13.4494 4.59082L13.8117 3.23852Z" fill="white"/>
<path d="M1.64703 8.11768C1.64703 7.56539 2.09475 7.11768 2.64703 7.11768H5.76468V12.0589H2.64703C2.09475 12.0589 1.64703 11.6111 1.64703 11.0589V8.11768Z" fill="white"/>
<path fill-rule="evenodd" clip-rule="evenodd" d="M10.7059 3L5.76468 7.11765V12.0588L10.7059 17V3ZM9.05879 6.29412C8.60397 6.29412 8.23526 6.66282 8.23526 7.11765V7.94118C8.23526 8.396 8.60397 8.76471 9.05879 8.76471C9.51362 8.76471 9.88232 8.396 9.88232 7.94118V7.11765C9.88232 6.66282 9.51362 6.29412 9.05879 6.29412Z" fill="white"/>
</svg>
