<svg width="32" height="32" viewBox="0 0 32 32" fill="none" xmlns="http://www.w3.org/2000/svg">
<rect x="10" y="9" width="12" height="18" rx="4" stroke="white" stroke-width="2"/>
<path fill-rule="evenodd" clip-rule="evenodd" d="M27.3301 8.46412C27.8824 9.4207 27.5547 10.6439 26.5981 11.1962L24 12.6962L22 9.23207L24.5981 7.73207L23.5981 6.00001C24.5547 5.44773 25.7778 5.77548 26.3301 6.73207L26.8301 7.59809L27.3301 8.46412Z" fill="white"/>
<path fill-rule="evenodd" clip-rule="evenodd" d="M5 8.46412C4.44772 9.4207 4.77547 10.6439 5.73205 11.1962L8.33013 12.6962L10.3301 9.23207L7.73205 7.73207L8.73205 6.00001C7.77547 5.44773 6.55228 5.77548 6 6.73207L5.5 7.59809L5 8.46412Z" fill="white"/>
<path d="M22.5717 14.8853C22.215 14.0551 23.0551 13.215 23.8853 13.5718L26.7637 14.8085C26.999 14.9097 27.1866 15.0972 27.2877 15.3325L28.5245 18.211C28.8812 19.0412 28.0411 19.8812 27.2109 19.5245L24.3325 18.2877C24.0972 18.1866 23.9096 17.999 23.8085 17.7637L22.5717 14.8853Z" fill="white"/>
<path d="M9.52448 14.8853C9.8812 14.0551 9.04114 13.215 8.21092 13.5718L5.33251 14.8085C5.09718 14.9097 4.90962 15.0972 4.80851 15.3325L3.57172 18.211C3.215 19.0412 4.05505 19.8812 4.88528 19.5245L7.76369 18.2877C7.99902 18.1866 8.18658 17.999 8.28769 17.7637L9.52448 14.8853Z" fill="white"/>
<path fill-rule="evenodd" clip-rule="evenodd" d="M9 13C9 10.2386 11.2386 8 14 8H18C20.7614 8 23 10.2386 23 13V19H9V13ZM14 15C14 16.1046 13.3284 17 12.5 17C11.6716 17 11 16.1046 11 15C11 13.8954 11.6716 13 12.5 13C13.3284 13 14 13.8954 14 15ZM19.5 17C20.3284 17 21 16.1046 21 15C21 13.8954 20.3284 13 19.5 13C18.6716 13 18 13.8954 18 15C18 16.1046 18.6716 17 19.5 17Z" fill="white"/>
<line x1="14.5" y1="22" x2="14.5" y2="24" stroke="white"/>
<line x1="17.5" y1="22" x2="17.5" y2="24" stroke="white"/>
</svg>
