<svg width="32" height="32" viewBox="0 0 32 32" fill="none" xmlns="http://www.w3.org/2000/svg">
<path fill-rule="evenodd" clip-rule="evenodd" d="M15 14.7175C13.3431 14.7175 12 16.0607 12 17.7175H13C13.5523 17.7175 14 18.1652 14 18.7175C14 19.2698 13.5523 19.7175 13 19.7175H12V23.7175C12 25.3744 13.3431 26.7175 15 26.7175H17C18.6569 26.7175 20 25.3744 20 23.7175V19.7175H19C18.4477 19.7175 18 19.2698 18 18.7175C18 18.1652 18.4477 17.7175 19 17.7175H20C20 16.0607 18.6569 14.7175 17 14.7175H15ZM16 20.7175C14.8954 20.7175 14 21.613 14 22.7175V23.7175C14 24.8221 14.8954 25.7175 16 25.7175C17.1046 25.7175 18 24.8221 18 23.7175V22.7175C18 21.613 17.1046 20.7175 16 20.7175Z" fill="white"/>
<path d="M21 17.2175C21 15.8368 22.1193 14.7175 23.5 14.7175H30V17.2175C30 18.5982 28.8807 19.7175 27.5 19.7175H21V17.2175Z" fill="white"/>
<path d="M11 17.2175C11 15.8368 9.88071 14.7175 8.5 14.7175H2V17.2175C2 18.5982 3.11929 19.7175 4.5 19.7175H11V17.2175Z" fill="white"/>
<rect x="25.8033" y="6.94977" width="2" height="10" transform="rotate(45 25.8033 6.94977)" fill="white"/>
<rect x="22.1984" y="5.98383" width="2" height="4" transform="rotate(-15 22.1984 5.98383)" fill="white"/>
<rect x="16.8004" y="8.88159" width="2" height="4" transform="rotate(-75 16.8004 8.88159)" fill="white"/>
<rect x="18.2146" y="4.63898" width="2" height="9.03407" transform="rotate(-15 18.2146 4.63898)" fill="white"/>
<rect width="2" height="10" transform="matrix(-0.707107 0.707107 0.707107 0.707107 6.1967 6.94977)" fill="white"/>
<rect width="2" height="4" transform="matrix(-0.965926 -0.258819 -0.258819 0.965926 9.80158 5.98383)" fill="white"/>
<rect width="2" height="4" transform="matrix(-0.258819 -0.965926 -0.965926 0.258819 15.1996 8.88159)" fill="white"/>
<rect width="2" height="9.03407" transform="matrix(-0.965926 -0.258819 -0.258819 0.965926 13.7854 4.63898)" fill="white"/>
</svg>
