<svg width="32" height="32" viewBox="0 0 32 32" fill="none" xmlns="http://www.w3.org/2000/svg">
<path fill-rule="evenodd" clip-rule="evenodd" d="M21.4167 5L26 15H23.6333L20.3333 24H11.6667L8.36667 15H6L10.5833 5H21.4167ZM21.5981 13.0981C22.4265 13.0981 23.0981 12.4265 23.0981 11.5981C23.0981 10.7697 22.4265 10.0981 21.5981 10.0981C20.7696 10.0981 20.0981 10.7697 20.0981 11.5981C20.0981 12.4265 20.7696 13.0981 21.5981 13.0981ZM13.0981 11.5981C13.0981 12.4265 12.4265 13.0981 11.5981 13.0981C10.7697 13.0981 10.0981 12.4265 10.0981 11.5981C10.0981 10.7697 10.7697 10.0981 11.5981 10.0981C12.4265 10.0981 13.0981 10.7697 13.0981 11.5981ZM17.8301 18.0981L16.0981 21.0981L14.366 18.0981H17.8301Z" fill="white"/>
<path d="M23.9658 5.16943C25.0328 4.88355 26.1294 5.51671 26.4153 6.58365L30.8057 22.9687C31.0916 24.0357 30.4584 25.1323 29.3915 25.4182L28.0769 25.7705L22.6512 5.52168L23.9658 5.16943Z" fill="white"/>
<path d="M8.00871 5.16943C6.94178 4.88355 5.8451 5.51671 5.55922 6.58365L1.16885 22.9687C0.882968 24.0357 1.51613 25.1323 2.58306 25.4182L3.89768 25.7705L9.32332 5.52168L8.00871 5.16943Z" fill="white"/>
</svg>
