<svg width="32" height="32" viewBox="0 0 32 32" fill="none" xmlns="http://www.w3.org/2000/svg">
<path d="M16.9555 15.1191C16.9555 15.1191 12.7265 17.9278 10.4149 20.1849C7.86369 22.676 4.73823 27.3363 4.73823 27.3363" stroke="white"/>
<path fill-rule="evenodd" clip-rule="evenodd" d="M21.9172 14.6397L19.0082 15.4191L26.4639 11.6503C26.8298 11.4653 27.0458 11.0756 27.0086 10.6672L26.6637 6.87744C26.6265 6.46783 26.3422 6.12282 25.9473 6.0079L22.6207 5.03987C22.245 4.93054 21.8401 5.05036 21.5844 5.3465L17.4027 10.1896L17.7308 8.96503C17.8737 8.43156 17.5571 7.88322 17.0237 7.74028L15.4152 7.3093C14.8818 7.16636 14.3334 7.48294 14.1905 8.01641L12.5521 14.1311V12.0853C12.5521 11.533 12.1044 11.0853 11.5521 11.0853H11.1086C10.5563 11.0853 10.1086 11.533 10.1086 12.0853V17.8463C9.74084 18.0718 9.54849 18.5197 9.66584 18.9577L9.67638 18.997C9.80712 18.8618 9.93702 18.731 10.0656 18.6054C11.2481 17.4508 12.9073 16.1671 14.2569 15.1802C14.9345 14.6848 15.5392 14.2605 15.9746 13.96C16.1923 13.8097 16.3679 13.6902 16.4893 13.6082C16.55 13.5672 16.5971 13.5355 16.6292 13.514L16.6659 13.4895L16.6754 13.4832L16.6779 13.4815L16.6786 13.481L16.6788 13.4809C16.6788 13.4809 16.6789 13.4809 16.9555 13.8974L17.2321 14.3139L17.232 14.3139L17.2315 14.3143L17.2294 14.3157L17.2207 14.3215L17.1857 14.3449C17.1547 14.3656 17.1087 14.3965 17.0493 14.4367C16.9303 14.5171 16.7575 14.6347 16.5426 14.783C16.1129 15.0796 15.5158 15.4986 14.8472 15.9875C13.5045 16.9693 11.8933 18.2185 10.7642 19.3209C10.5082 19.5709 10.2457 19.8439 9.98067 20.1326L10.0968 20.5661C10.2398 21.0996 10.7881 21.4162 11.3216 21.2732L13.5547 20.6749L18.6667 22.0446C19.2002 22.1876 19.7485 21.871 19.8915 21.3375L20.0062 20.9092C20.1492 20.3757 19.8326 19.8274 19.2991 19.6844L18.2751 19.41L22.8658 18.18C23.3993 18.037 23.7159 17.4887 23.5729 16.9552L23.142 15.3468C22.999 14.8133 22.4507 14.4967 21.9172 14.6397Z" fill="white"/>
</svg>
