<svg width="32" height="32" viewBox="0 0 32 32" fill="none" xmlns="http://www.w3.org/2000/svg">
<g clip-path="url(#clip0_336_2706)">
<path d="M5.67898 16.1922L15.3577 14.3692L24.1164 16.439L21.8167 26.171L13.0579 24.1012L5.10404 18.6252L5.67898 16.1922Z" fill="white"/>
<path d="M19.9404 12.3696L21.7789 15.8866L16.722 14.6916L19.9404 12.3696Z" fill="white"/>
<path d="M11.8014 20.7217L13.6399 24.2388L8.58307 23.0438L11.8014 20.7217Z" fill="white"/>
<path d="M8.25361 18.342L0.389962 22.2679L2.97911 11.3113L8.25361 18.342Z" fill="white"/>
<path fill-rule="evenodd" clip-rule="evenodd" d="M29.8927 23.0513L25.3542 15.704C25.3542 15.704 21.2946 17.5944 20.509 20.8338C19.7142 24.1114 22.6309 27.537 22.6309 27.537L29.8927 23.0513ZM25.1696 22.8532C25.9758 23.0437 26.7838 22.5445 26.9743 21.7383C27.1648 20.9321 26.6657 20.1241 25.8595 19.9336C25.0533 19.743 24.2452 20.2422 24.0547 21.0484C23.8642 21.8546 24.3633 22.6626 25.1696 22.8532Z" fill="white"/>
<circle cx="26.5" cy="12.5" r="1" stroke="white"/>
<circle cx="23.5" cy="4.5" r="1" stroke="white"/>
<circle cx="28.5" cy="6.5" r="2" stroke="white"/>
</g>
<defs>
<clipPath id="clip0_336_2706">
<rect width="32" height="32" fill="white"/>
</clipPath>
</defs>
</svg>
