<svg width="32" height="32" viewBox="0 0 32 32" fill="none" xmlns="http://www.w3.org/2000/svg">
<path d="M12 11C12 8.79086 13.7909 7 16 7H21C23.2091 7 25 8.79086 25 11V15H16C13.7909 15 12 13.2091 12 11Z" fill="white"/>
<path d="M12 14C12 16.2091 13.7909 18 16 18H19C21.2091 18 23 16.2091 23 14V8H16C13.7909 8 12 9.79086 12 12V14Z" fill="white"/>
<path fill-rule="evenodd" clip-rule="evenodd" d="M5.43934 5.26777C4.85355 5.85355 4.85355 6.8033 5.43934 7.38909L6.5 8.44975L10.3891 4.56066C10.9749 3.97487 10.9749 3.02513 10.3891 2.43934C9.8033 1.85355 8.85355 1.85355 8.26777 2.43934L5.43934 5.26777ZM8.91422 3.41424C9.19036 3.41424 9.41422 3.19038 9.41422 2.91424C9.41422 2.6381 9.19036 2.41424 8.91422 2.41424C8.63807 2.41424 8.41422 2.6381 8.41422 2.91424C8.41422 3.19038 8.63807 3.41424 8.91422 3.41424Z" fill="white"/>
<path d="M9.66675 3.51836C10.5618 3.68571 12.0984 3.99755 12.3125 5.31512C12.5267 6.63269 6.64414 11.7577 8.77457 14.8489C9.52392 15.9362 12.5842 14.8069 12.5842 14.8069" stroke="white" stroke-width="2"/>
<line x1="18.3796" y1="16.6746" x2="24.3796" y2="23.6746" stroke="white"/>
<line x1="23.8727" y1="23.3536" x2="17.3535" y2="29.8728" stroke="white"/>
<line x1="15.3796" y1="16.6746" x2="21.3796" y2="23.6746" stroke="white"/>
<line x1="20.8727" y1="23.3536" x2="14.3535" y2="29.8728" stroke="white"/>
<line x1="11" y1="30" x2="20" y2="30" stroke="white" stroke-width="2"/>
</svg>
