<svg width="32" height="32" viewBox="0 0 32 32" fill="none" xmlns="http://www.w3.org/2000/svg">
<g clip-path="url(#clip0_329_597)">
<path d="M1.50606 23.5016C1.38547 23.0434 1.60296 22.5635 2.02698 22.3521L22.4248 12.1837C22.8979 11.9479 23.4727 12.1209 23.737 12.5786L24.7667 14.3621C25.0428 14.8404 24.8789 15.452 24.4006 15.7281L3.88384 27.5735C3.31281 27.9032 2.5846 27.5996 2.41678 26.962L1.50606 23.5016Z" fill="white"/>
<path d="M1.41011 16.9822C1.41222 16.5084 1.74651 16.1012 2.21079 16.0067L24.5454 11.4641C25.0633 11.3588 25.5738 11.6747 25.7106 12.1853L26.2436 14.1744C26.3865 14.7079 26.07 15.2562 25.5365 15.3992L2.65299 21.5308C2.01608 21.7015 1.39124 21.2198 1.39418 20.5604L1.41011 16.9822Z" fill="white"/>
<line x1="22.53" y1="14.152" x2="30.53" y2="19.152" stroke="white" stroke-width="2"/>
<line x1="21.7071" y1="16.2929" x2="28.3779" y2="22.9637" stroke="white" stroke-width="2"/>
<line x1="16.7071" y1="6.29289" x2="23.3779" y2="12.9637" stroke="white" stroke-width="2"/>
<line x1="24" y1="4" x2="24" y2="13.434" stroke="white" stroke-width="2"/>
<path d="M20.293 17.4859L9 11L10.5 27L6.5 30.5" stroke="white" stroke-width="2"/>
</g>
<defs>
<clipPath id="clip0_329_597">
<rect width="32" height="32" fill="white"/>
</clipPath>
</defs>
</svg>
