<svg width="32" height="32" viewBox="0 0 32 32" fill="none" xmlns="http://www.w3.org/2000/svg">
<g clip-path="url(#clip0_383_251)">
<rect x="13.9797" y="22.625" width="4" height="2" rx="1" fill="white"/>
<rect x="9.97966" y="20.625" width="4" height="3" rx="1" transform="rotate(-90 9.97966 20.625)" fill="white"/>
<rect x="18.9797" y="20.625" width="4" height="3" rx="1" transform="rotate(-90 18.9797 20.625)" fill="white"/>
<rect x="6.97966" y="12.625" width="18" height="17" rx="7" stroke="white" stroke-width="2"/>
<path d="M28.7976 8.55583L23.9356 12.9224C23.3727 13.4279 22.524 13.4436 21.9428 12.9593C21.4611 12.5579 21.2746 11.9023 21.4729 11.3075L23.2822 5.87976C23.5969 4.93566 24.3172 4.1817 25.2459 3.82422L25.7746 3.62073C27.702 2.87889 29.7739 4.30152 29.7739 6.36672C29.7739 7.20192 29.419 7.99776 28.7976 8.55583Z" stroke="white" stroke-width="2"/>
<path d="M3.22391 8.55583L8.08585 12.9224C8.64877 13.4279 9.49745 13.4436 10.0787 12.9593C10.5604 12.5579 10.7469 11.9023 10.5486 11.3075L8.73932 5.87976C8.42462 4.93566 7.70432 4.1817 6.77558 3.82422L6.24688 3.62073C4.31952 2.87889 2.24759 4.30152 2.24759 6.36672C2.24759 7.20192 2.60253 7.99776 3.22391 8.55583Z" stroke="white" stroke-width="2"/>
<path d="M13.4797 26.625H18.4797L17.4797 28.625H14.4797L13.4797 26.625ZM18.4797 28.625C18.4797 30.0057 17.3604 31.125 15.9797 31.125C14.5989 31.125 13.4797 30.0057 13.4797 28.625H14.4797C14.4797 29.4534 15.1512 30.125 15.9797 30.125C16.8081 30.125 17.4797 29.4534 17.4797 28.625H18.4797ZM15.9797 31.125C14.5989 31.125 13.4797 30.0057 13.4797 28.625V26.625L14.4797 28.625C14.4797 29.4534 15.1512 30.125 15.9797 30.125V31.125ZM18.4797 26.625V28.625C18.4797 30.0057 17.3604 31.125 15.9797 31.125V30.125C16.8081 30.125 17.4797 29.4534 17.4797 28.625L18.4797 26.625Z" fill="white"/>
</g>
<defs>
<clipPath id="clip0_383_251">
<rect width="32" height="32" fill="white"/>
</clipPath>
</defs>
</svg>
