<svg width="32" height="32" viewBox="0 0 32 32" fill="none" xmlns="http://www.w3.org/2000/svg">
<g clip-path="url(#clip0_348_280)">
<path fill-rule="evenodd" clip-rule="evenodd" d="M18.7679 13.6308L22.225 16.4704C22.2455 17.3121 22.6183 18.1403 23.32 18.7167L24.9058 20.0193C26.3995 21.2462 28.605 21.03 29.8319 19.5363L30.8172 18.3368C32.0442 16.8431 31.8279 14.6376 30.3342 13.4107L26.4301 10.2038L26.4301 10.2039L20.8117 5.58888L18.1189 2.89611C16.7521 1.52928 14.536 1.52928 13.1692 2.89612L9.95226 6.11305C9.76034 6.30497 9.59537 6.51364 9.45734 6.73435C9.35239 6.81978 9.25514 6.91669 9.16758 7.02446L3.83359 13.5894C3.61496 13.8585 3.47003 14.1798 3.41303 14.5218L1.33816 26.971C1.15296 28.0822 1.92168 29.1271 3.03768 29.281L13.3708 30.7063C14.5211 30.8649 15.5643 30.0139 15.6399 28.8552L16.5185 15.3823C16.9748 15.2437 17.4046 14.994 17.7654 14.6333L18.7679 13.6308ZM14.6845 9.10487C15.4019 9.51908 16.3193 9.27327 16.7335 8.55583C17.1477 7.83839 16.9019 6.921 16.1845 6.50679C15.467 6.09258 14.5497 6.33839 14.1354 7.05583C13.7212 7.77327 13.967 8.69065 14.6845 9.10487Z" fill="white"/>
<rect x="8" y="2.12134" width="3" height="3" transform="rotate(-45 8 2.12134)" fill="white"/>
<rect x="5" y="5.12134" width="3" height="3" transform="rotate(-45 5 5.12134)" fill="white"/>
<rect x="2" y="8.12134" width="3" height="3" transform="rotate(-45 2 8.12134)" fill="white"/>
</g>
<defs>
<clipPath id="clip0_348_280">
<rect width="32" height="32" fill="white"/>
</clipPath>
</defs>
</svg>
