<svg width="32" height="32" viewBox="0 0 32 32" fill="none" xmlns="http://www.w3.org/2000/svg">
<g clip-path="url(#clip0_360_31)">
<path d="M23.9009 10.2893L31.0021 22.1246C31.2381 22.5181 31.1761 23.0217 30.8517 23.3462L24.608 29.5899C24.2175 29.9804 23.5843 29.9804 23.1938 29.5899L13.897 20.2931L23.9009 10.2893Z" fill="white"/>
<rect x="16.398" y="1" width="3.53689" height="3.53689" transform="rotate(45 16.398 1)" fill="white"/>
<path fill-rule="evenodd" clip-rule="evenodd" d="M17.8122 4.20059C17.0312 3.41954 15.7648 3.41954 14.9838 4.20059L0.328782 18.8556L10.3326 28.8594L25.6947 13.4973C26.0853 13.1068 26.0853 12.4736 25.6947 12.0831L17.8122 4.20059ZM17.6485 14.0408C18.3391 14.7314 19.4588 14.7314 20.1494 14.0408C20.8401 13.3501 20.8401 12.2304 20.1494 11.5398C19.4588 10.8492 18.3391 10.8492 17.6485 11.5398C16.9579 12.2304 16.9579 13.3501 17.6485 14.0408Z" fill="white"/>
<rect x="8" y="5.12134" width="3" height="3" transform="rotate(-45 8 5.12134)" fill="white"/>
<rect x="5" y="8.12134" width="3" height="3" transform="rotate(-45 5 8.12134)" fill="white"/>
<rect x="2" y="11.1213" width="3" height="3" transform="rotate(-45 2 11.1213)" fill="white"/>
</g>
<defs>
<clipPath id="clip0_360_31">
<rect width="32" height="32" fill="white"/>
</clipPath>
</defs>
</svg>
