<svg width="32" height="32" viewBox="0 0 32 32" fill="none" xmlns="http://www.w3.org/2000/svg">
<g clip-path="url(#clip0_330_623)">
<path d="M21.4647 25.5822C21.4625 25.1083 21.1282 24.701 20.6639 24.6065L6.38285 21.6996C5.86494 21.5942 5.35454 21.9101 5.21783 22.4207L5.03141 23.1168C4.88855 23.6503 5.20518 24.1988 5.73863 24.3418L20.2137 28.2229C20.8506 28.3936 21.4753 27.912 21.4723 27.2526L21.4647 25.5822Z" fill="white"/>
<path d="M20.474 21.3659C20.3493 20.9088 19.9209 20.6018 19.448 20.6307L4.90228 21.5202C4.37473 21.5525 3.96345 21.9897 3.9635 22.5183L3.96357 23.2392C3.96362 23.7915 4.41138 24.2392 4.96366 24.2393L19.9489 24.2407C20.6082 24.2407 21.087 23.6138 20.9136 22.9777L20.474 21.3659Z" fill="white"/>
<line y1="-1" x2="6.27568" y2="-1" transform="matrix(-0.681808 0.731532 0.731304 0.682052 6.83224 23.3738)" stroke="white" stroke-width="2"/>
<line y1="-1" x2="6.27619" y2="-1" transform="matrix(-0.499839 0.866118 0.865933 0.500161 7.81915 24.4871)" stroke="white" stroke-width="2"/>
<line y1="-1" x2="6.27619" y2="-1" transform="matrix(-0.499839 0.866118 0.865933 0.500161 9.30942 17.1991)" stroke="white" stroke-width="2"/>
<line y1="-1" x2="6.27735" y2="-1" transform="matrix(0.258819 0.965926 0.965926 -0.258819 4.29535 16.476)" stroke="white" stroke-width="2"/>
<path d="M8.35709 24.6777L14.4957 18.5649L16.2874 29.1067L19.4601 30.6677" stroke="white" stroke-width="2"/>
<mask id="path-8-inside-1_330_623" fill="white">
<path fill-rule="evenodd" clip-rule="evenodd" d="M25.6715 8.73261C25.3171 11.0263 23.3342 12.7823 20.9413 12.7823C18.5484 12.7823 16.5655 11.0263 16.2111 8.7326C14.8185 10.0113 13.9456 11.8472 13.9456 13.8868C13.9456 17.7505 17.0777 20.8826 20.9413 20.8826C24.8049 20.8826 27.937 17.7505 27.937 13.8868C27.937 11.8472 27.0641 10.0113 25.6715 8.73261Z"/>
</mask>
<path d="M25.6715 8.73261L27.0242 7.25943L24.2666 4.72743L23.6949 8.42719L25.6715 8.73261ZM16.2111 8.7326L18.1877 8.42719L17.616 4.72743L14.8584 7.25943L16.2111 8.7326ZM23.6949 8.42719C23.4889 9.76076 22.3325 10.7823 20.9413 10.7823V14.7823C24.336 14.7823 27.1452 12.2918 27.648 9.03802L23.6949 8.42719ZM20.9413 10.7823C19.5501 10.7823 18.3937 9.76076 18.1877 8.42719L14.2346 9.03802C14.7374 12.2918 17.5467 14.7823 20.9413 14.7823V10.7823ZM15.9456 13.8868C15.9456 12.4303 16.5663 11.1217 17.5638 10.2058L14.8584 7.25943C13.0706 8.90102 11.9456 11.264 11.9456 13.8868H15.9456ZM20.9413 18.8826C18.1822 18.8826 15.9456 16.6459 15.9456 13.8868H11.9456C11.9456 18.8551 15.9731 22.8826 20.9413 22.8826V18.8826ZM25.937 13.8868C25.937 16.6459 23.7004 18.8826 20.9413 18.8826V22.8826C25.9095 22.8826 29.937 18.8551 29.937 13.8868H25.937ZM24.3188 10.2058C25.3163 11.1217 25.937 12.4303 25.937 13.8868H29.937C29.937 11.264 28.812 8.90102 27.0242 7.25943L24.3188 10.2058Z" fill="white" mask="url(#path-8-inside-1_330_623)"/>
<line x1="24.4674" y1="1.31623" x2="23.731" y2="3.52541" stroke="white" stroke-width="2"/>
<line x1="29.8323" y1="5.49513" x2="26.3099" y2="8.01622" stroke="white" stroke-width="2"/>
<line x1="31.3051" y1="7.70429" x2="27.7827" y2="10.2254" stroke="white" stroke-width="2"/>
<line x1="30.2929" y1="21.7071" x2="27.2299" y2="18.6441" stroke="white" stroke-width="2"/>
<line y1="-1" x2="2.32868" y2="-1" transform="matrix(0.316228 0.948683 0.948683 -0.316228 18.4813 1)" stroke="white" stroke-width="2"/>
<line y1="-1" x2="4.33168" y2="-1" transform="matrix(0.81318 0.582012 0.582012 -0.81318 12.7497 4.68195)" stroke="white" stroke-width="2"/>
<line y1="-1" x2="4.33168" y2="-1" transform="matrix(0.81318 0.582012 0.582012 -0.81318 11.2769 6.89111)" stroke="white" stroke-width="2"/>
<line y1="-1" x2="4.33168" y2="-1" transform="matrix(0.707107 -0.707107 -0.707107 -0.707107 11 21)" stroke="white" stroke-width="2"/>
<circle cx="20.9413" cy="7.99572" r="3.05016" stroke="white" stroke-width="2"/>
</g>
<defs>
<clipPath id="clip0_330_623">
<rect width="32" height="32" fill="white"/>
</clipPath>
</defs>
</svg>
