<svg width="32" height="32" viewBox="0 0 32 32" fill="none" xmlns="http://www.w3.org/2000/svg">
<g clip-path="url(#clip0_434_19)">
<rect x="7.29004" y="5.02515" width="7" height="7" rx="2" transform="rotate(-15 7.29004 5.02515)" fill="white"/>
<path d="M13.4927 8.72267C13.4927 8.72267 22.6151 14.3423 21.5766 19.5C20.6568 24.0688 11.3654 22.1168 12.0766 26.7227C12.8763 31.9006 25.4927 26.7227 25.4927 26.7227" stroke="white" stroke-width="2"/>
<path d="M13.4927 6.72267C13.4927 6.72267 22.6151 12.3423 21.5766 17.5" stroke="white" stroke-width="2"/>
<line x1="16.7764" y1="8.55279" x2="20.7764" y2="6.55279" stroke="white"/>
<line x1="20.5149" y1="7.12127" x2="19.5149" y2="3.12127" stroke="white"/>
<line x1="19.5528" y1="3.77639" x2="20.5528" y2="1.77639" stroke="white"/>
<line x1="19.5528" y1="4.22361" x2="18.5528" y2="2.22361" stroke="white"/>
<line x1="19.8419" y1="4.47434" x2="16.8419" y2="3.47434" stroke="white"/>
<line x1="19.7757" y1="15.5251" x2="15.3943" y2="16.4217" stroke="white"/>
<line x1="15.794" y1="15.9402" x2="15.7247" y2="20.0628" stroke="white"/>
<line x1="15.8577" y1="19.4202" x2="14.3741" y2="21.0932" stroke="white"/>
<line x1="15.9734" y1="18.9882" x2="16.4217" y2="21.1789" stroke="white"/>
<line x1="15.7591" y1="18.6712" x2="18.398" y2="20.4136" stroke="white"/>
<line y1="-0.5" x2="4.47214" y2="-0.5" transform="matrix(-0.40535 0.914161 0.914161 0.40535 15.4037 10.3401)" stroke="white"/>
<line y1="-0.5" x2="4.12311" y2="-0.5" transform="matrix(-0.980325 -0.197388 -0.197388 0.980325 13.5909 14.4284)" stroke="white"/>
<line y1="-0.5" x2="2.23607" y2="-0.5" transform="matrix(-0.872777 0.488119 0.488119 0.872777 10.5479 13.5683)" stroke="white"/>
<line y1="-0.5" x2="2.23607" y2="-0.5" transform="matrix(-0.914161 -0.40535 -0.40535 0.914161 10.5479 13.5683)" stroke="white"/>
<line y1="-0.5" x2="3.16228" y2="-0.5" transform="matrix(-0.359784 -0.933036 -0.933036 0.359784 10.5479 13.5683)" stroke="white"/>
<line y1="-0.5" x2="4.47214" y2="-0.5" transform="matrix(0.990464 -0.13777 -0.13777 -0.990464 22 15.2646)" stroke="white"/>
<line y1="-0.5" x2="4.12311" y2="-0.5" transform="matrix(0.349351 0.936992 0.936992 -0.349351 26.4295 14.6486)" stroke="white"/>
<line y1="-0.5" x2="2.23607" y2="-0.5" transform="matrix(0.875033 0.484062 0.484062 -0.875033 27.3037 17.6876)" stroke="white"/>
<line y1="-0.5" x2="2.23607" y2="-0.5" transform="matrix(0.13777 0.990464 0.990464 -0.13777 27.3037 17.6876)" stroke="white"/>
<line y1="-0.5" x2="3.16228" y2="-0.5" transform="matrix(-0.602946 0.797782 0.797782 0.602946 27.3037 17.6876)" stroke="white"/>
</g>
<defs>
<clipPath id="clip0_434_19">
<rect width="32" height="32" fill="white"/>
</clipPath>
</defs>
</svg>
