<svg width="32" height="32" viewBox="0 0 32 32" fill="none" xmlns="http://www.w3.org/2000/svg">
<g clip-path="url(#clip0_438_61)">
<mask id="path-1-inside-1_438_61" fill="white">
<path fill-rule="evenodd" clip-rule="evenodd" d="M4.94717 14.6956L8.6182 15.1131C9.49119 15.2124 10.3214 15.6252 10.9856 16.2267C11.6095 15.4068 12.4033 14.6945 13.3514 14.1471L16.8482 12.1282C17.7964 11.5808 18.8101 11.2495 19.8322 11.1191C19.6433 10.2432 19.7009 9.31779 20.0514 8.51212L21.5254 5.12418L25.2819 7.8275C26.8509 8.95658 27.4976 11.3088 26.7265 13.0813L26.5635 13.4559C27.0234 13.9259 27.4325 14.4607 27.7764 15.0564L28.1255 15.661C30.3346 19.4874 29.0236 24.3801 25.1973 26.5892L21.7005 28.6081C17.8742 30.8172 12.9814 29.5062 10.7723 25.6799L10.4232 25.0753C10.0793 24.4795 9.82064 23.8579 9.64356 23.2246L9.23771 23.1784C7.3171 22.96 5.6034 21.2238 5.41007 19.3005L4.94717 14.6956Z"/>
</mask>
<path d="M8.6182 15.1131L8.39221 17.1003L8.39221 17.1003L8.6182 15.1131ZM4.94717 14.6956L5.17316 12.7084L2.70917 12.4282L2.9572 14.8957L4.94717 14.6956ZM10.9856 16.2267L9.64303 17.7091L11.2578 19.1716L12.5771 17.4379L10.9856 16.2267ZM19.8322 11.1191L20.0853 13.1031L22.2464 12.8273L21.7873 10.6977L19.8322 11.1191ZM20.0514 8.51212L21.8854 9.31L21.8854 9.31L20.0514 8.51212ZM21.5254 5.12418L22.6936 3.50083L20.6808 2.05231L19.6914 4.3263L21.5254 5.12418ZM25.2819 7.8275L26.4501 6.20415L26.4501 6.20415L25.2819 7.8275ZM26.7265 13.0813L24.8925 12.2834L24.8925 12.2834L26.7265 13.0813ZM26.5635 13.4559L24.7295 12.658L24.1925 13.8925L25.134 14.8547L26.5635 13.4559ZM9.64356 23.2246L11.5697 22.686L11.2072 21.3895L9.86955 21.2374L9.64356 23.2246ZM9.23771 23.1784L9.01172 25.1656L9.01173 25.1656L9.23771 23.1784ZM5.41007 19.3005L7.40004 19.1005L7.40004 19.1005L5.41007 19.3005ZM8.84418 13.1259L5.17316 12.7084L4.72118 16.6828L8.39221 17.1003L8.84418 13.1259ZM12.3281 14.7443C11.3984 13.9023 10.189 13.2789 8.84418 13.1259L8.39221 17.1003C8.79333 17.1459 9.24449 17.3482 9.64303 17.7091L12.3281 14.7443ZM12.3514 12.4151C11.1694 13.0975 10.1758 13.9882 9.39401 15.0155L12.5771 17.4379C13.0433 16.8253 13.6371 16.2916 14.3514 15.8792L12.3514 12.4151ZM15.8482 10.3962L12.3514 12.4151L14.3514 15.8792L17.8482 13.8603L15.8482 10.3962ZM19.5791 9.13522C18.2985 9.2986 17.0303 9.71374 15.8482 10.3962L17.8482 13.8603C18.5626 13.4479 19.3217 13.2005 20.0853 13.1031L19.5791 9.13522ZM18.2175 7.71423C17.6775 8.9554 17.6127 10.3144 17.8771 11.5406L21.7873 10.6977C21.6739 10.1721 21.7243 9.68019 21.8854 9.31L18.2175 7.71423ZM19.6914 4.3263L18.2175 7.71423L21.8854 9.31L23.3594 5.92206L19.6914 4.3263ZM26.4501 6.20415L22.6936 3.50083L20.3572 6.74753L24.1137 9.45085L26.4501 6.20415ZM28.5604 13.8792C29.7071 11.2435 28.7831 7.88308 26.4501 6.20415L24.1137 9.45084C24.9186 10.0301 25.2881 11.3741 24.8925 12.2834L28.5604 13.8792ZM28.3975 14.2537L28.5604 13.8792L24.8925 12.2834L24.7295 12.658L28.3975 14.2537ZM29.5085 14.0564C29.0801 13.3144 28.5691 12.6458 27.993 12.0571L25.134 14.8547C25.4778 15.2059 25.7849 15.607 26.0444 16.0564L29.5085 14.0564ZM29.8575 14.661L29.5085 14.0564L26.0444 16.0564L26.3934 16.661L29.8575 14.661ZM26.1973 28.3213C30.9802 25.5599 32.619 19.444 29.8575 14.661L26.3934 16.661C28.0503 19.5308 27.067 23.2003 24.1973 24.8572L26.1973 28.3213ZM22.7005 30.3402L26.1973 28.3213L24.1973 24.8572L20.7005 26.8761L22.7005 30.3402ZM9.04025 26.6799C11.8017 31.4628 17.9176 33.1016 22.7005 30.3402L20.7005 26.8761C17.8307 28.5329 14.1612 27.5497 12.5043 24.6799L9.04025 26.6799ZM8.69119 26.0753L9.04025 26.6799L12.5043 24.6799L12.1553 24.0753L8.69119 26.0753ZM7.71743 23.7631C7.93925 24.5565 8.26276 25.3333 8.69119 26.0753L12.1553 24.0753C11.8958 23.6258 11.702 23.1594 11.5697 22.686L7.71743 23.7631ZM9.01173 25.1656L9.41757 25.2118L9.86955 21.2374L9.4637 21.1912L9.01173 25.1656ZM3.42009 19.5005C3.70758 22.3605 6.15581 24.8408 9.01172 25.1656L9.4637 21.1912C8.47839 21.0792 7.49922 20.0872 7.40004 19.1005L3.42009 19.5005ZM2.9572 14.8957L3.42009 19.5005L7.40004 19.1005L6.93714 14.4956L2.9572 14.8957Z" fill="white" mask="url(#path-1-inside-1_438_61)"/>
<rect x="18.6173" y="23.1923" width="3.33962" height="1.66981" rx="0.834906" transform="rotate(-30 18.6173 23.1923)" fill="white"/>
<rect x="14.8902" y="23.416" width="3.33962" height="2.50472" rx="1" transform="rotate(-120 14.8902 23.416)" fill="white"/>
<rect x="21.3976" y="19.6589" width="3.33962" height="2.50472" rx="1" transform="rotate(-120 21.3976 19.6589)" fill="white"/>
<line x1="14.2544" y1="25.2831" x2="11.4741" y2="28.8165" stroke="white"/>
<line x1="17.4372" y1="27.2277" x2="15.7974" y2="31.0666" stroke="white"/>
<line x1="15.8367" y1="26.2781" x2="12.7508" y2="30.9519" stroke="white"/>
<line y1="-0.5" x2="4.4961" y2="-0.5" transform="matrix(0.98978 -0.142605 -0.142605 -0.98978 26.1534 17.8773)" stroke="white"/>
<line y1="-0.5" x2="4.17453" y2="-0.5" transform="matrix(0.99282 0.119615 0.119615 -0.99282 26.3771 21.6044)" stroke="white"/>
<line y1="-0.5" x2="5.60072" y2="-0.5" transform="matrix(0.998203 -0.0599153 -0.0599153 -0.998203 26.2652 19.7408)" stroke="white"/>
<path d="M11.353 5.94116C11.6233 5.94116 11.8911 5.99442 12.1408 6.09788C12.3906 6.20135 12.6176 6.353 12.8088 6.54418C13 6.73536 13.1516 6.96232 13.2551 7.21211C13.3585 7.4619 13.4118 7.72962 13.4118 7.99999C13.4118 8.27036 13.3585 8.53808 13.2551 8.78786C13.1516 9.03765 13 9.26462 12.8088 9.45579C12.6176 9.64697 12.3906 9.79863 12.1408 9.90209C11.8911 10.0056 11.6233 10.0588 11.353 10.0588L11.353 8.82352C11.4611 8.82352 11.5682 8.80221 11.6681 8.76083C11.768 8.71944 11.8588 8.65878 11.9353 8.58231C12.0118 8.50584 12.0724 8.41505 12.1138 8.31514C12.1552 8.21522 12.1765 8.10813 12.1765 7.99999C12.1765 7.89184 12.1552 7.78475 12.1138 7.68483C12.0724 7.58492 12.0118 7.49413 11.9353 7.41766C11.8588 7.34119 11.768 7.28053 11.6681 7.23914C11.5682 7.19776 11.4611 7.17646 11.353 7.17646L11.353 5.94116Z" fill="white"/>
<path d="M12.5253 3.62492C13.4884 3.88298 14.3394 4.45163 14.9464 5.24266C15.5534 6.0337 15.8824 7.00291 15.8824 7.99999C15.8824 8.99707 15.5534 9.96629 14.9464 10.7573C14.3394 11.5484 13.4884 12.117 12.5253 12.3751L12.1736 11.0625C12.8477 10.8819 13.4435 10.4838 13.8684 9.93012C14.2933 9.3764 14.5236 8.69795 14.5236 7.99999C14.5236 7.30204 14.2933 6.62359 13.8684 6.06986C13.4435 5.51614 12.8477 5.11808 12.1736 4.93744L12.5253 3.62492Z" fill="white"/>
<path d="M13.1647 1.23852C14.6531 1.63734 15.9684 2.51616 16.9064 3.73867C17.8445 4.96118 18.353 6.45906 18.353 8C18.353 9.54094 17.8445 11.0388 16.9064 12.2613C15.9684 13.4838 14.6531 14.3627 13.1647 14.7615L12.8024 13.4092C13.9931 13.0901 15.0453 12.3871 15.7957 11.4091C16.5462 10.4311 16.953 9.23275 16.953 8C16.953 6.76725 16.5462 5.56894 15.7957 4.59094C15.0453 3.61293 13.9931 2.90987 12.8024 2.59082L13.1647 1.23852Z" fill="white"/>
<path d="M1 6.11768C1 5.56539 1.44772 5.11768 2 5.11768H5.11765V10.0589H2C1.44772 10.0589 1 9.61114 1 9.05885V6.11768Z" fill="white"/>
<path fill-rule="evenodd" clip-rule="evenodd" d="M10.0588 1L5.11765 5.11765V10.0588L10.0588 15V1ZM8.41176 4.29412C7.95694 4.29412 7.58823 4.66282 7.58823 5.11765V5.94118C7.58823 6.396 7.95694 6.76471 8.41176 6.76471C8.86658 6.76471 9.23529 6.396 9.23529 5.94118V5.11765C9.23529 4.66282 8.86658 4.29412 8.41176 4.29412Z" fill="white"/>
</g>
<defs>
<clipPath id="clip0_438_61">
<rect width="32" height="32" fill="white"/>
</clipPath>
</defs>
</svg>
