<svg width="32" height="32" viewBox="0 0 32 32" fill="none" xmlns="http://www.w3.org/2000/svg">
<mask id="path-1-inside-1_438_101" fill="white">
<path fill-rule="evenodd" clip-rule="evenodd" d="M6.2484 7.40619L9.21886 9.60325C9.92525 10.1257 10.4378 10.8984 10.7123 11.7514C11.6626 11.3532 12.7061 11.1333 13.801 11.1333L17.8387 11.1333C18.9336 11.1333 19.9771 11.3532 20.9274 11.7514C21.2019 10.8984 21.7144 10.1257 22.4208 9.60325L25.3913 7.40619L27.2929 11.6256C28.0871 13.3879 27.4711 15.7483 25.917 16.8978L25.5886 17.1407C25.7519 17.7777 25.8387 18.4454 25.8387 19.1333L25.8387 19.8314C25.8387 24.2497 22.257 27.8314 17.8387 27.8314L13.801 27.8314C9.38269 27.8314 5.80097 24.2497 5.80097 19.8314L5.80097 19.1333C5.80097 18.4454 5.8878 17.7777 6.05111 17.1407L5.72271 16.8978C4.16862 15.7483 3.55262 13.3879 4.34684 11.6256L6.2484 7.40619Z"/>
</mask>
<path d="M9.21886 9.60325L8.02955 11.2112L8.02955 11.2112L9.21886 9.60325ZM6.2484 7.40619L7.43771 5.79823L5.44393 4.32356L4.42502 6.58444L6.2484 7.40619ZM10.7123 11.7514L8.80837 12.3639L9.47562 14.4378L11.485 13.596L10.7123 11.7514ZM20.9274 11.7514L20.1547 13.596L22.1641 14.4378L22.8313 12.3639L20.9274 11.7514ZM22.4208 9.60325L23.6101 11.2112L23.6101 11.2112L22.4208 9.60325ZM25.3913 7.40619L27.2147 6.58444L26.1958 4.32356L24.202 5.79823L25.3913 7.40619ZM27.2929 11.6256L29.1162 10.8038L29.1162 10.8038L27.2929 11.6256ZM25.917 16.8978L27.1063 18.5058L27.1063 18.5058L25.917 16.8978ZM25.5886 17.1407L24.3993 15.5327L23.3169 16.3333L23.6512 17.6373L25.5886 17.1407ZM25.8387 19.1333L27.8387 19.1333L25.8387 19.1333ZM25.8387 19.8314L23.8387 19.8314L25.8387 19.8314ZM5.80097 19.8314L7.80097 19.8314L5.80097 19.8314ZM5.80097 19.1333L3.80097 19.1333L5.80097 19.1333ZM6.05111 17.1407L7.98846 17.6373L8.32277 16.3333L7.24041 15.5327L6.05111 17.1407ZM5.72271 16.8978L4.53341 18.5058L4.53341 18.5058L5.72271 16.8978ZM4.34684 11.6256L6.17022 12.4473L6.17022 12.4473L4.34684 11.6256ZM10.4082 7.99528L7.43771 5.79823L5.05909 9.01415L8.02955 11.2112L10.4082 7.99528ZM12.6161 11.1388C12.232 9.94472 11.4964 8.80017 10.4082 7.99528L8.02955 11.2112C8.35412 11.4513 8.64369 11.8521 8.80837 12.3639L12.6161 11.1388ZM13.801 9.1333C12.4361 9.1333 11.1302 9.40787 9.93951 9.90667L11.485 13.596C12.195 13.2986 12.9761 13.1333 13.801 13.1333L13.801 9.1333ZM17.8387 9.1333L13.801 9.1333L13.801 13.1333L17.8387 13.1333L17.8387 9.1333ZM21.7002 9.90668C20.5095 9.40787 19.2036 9.1333 17.8387 9.1333L17.8387 13.1333C18.6635 13.1333 19.4447 13.2986 20.1547 13.596L21.7002 9.90668ZM21.2315 7.99528C20.1433 8.80017 19.4077 9.94473 19.0235 11.1388L22.8313 12.3639C22.996 11.852 23.2856 11.4513 23.6101 11.2112L21.2315 7.99528ZM24.202 5.79823L21.2315 7.99528L23.6101 11.2112L26.5806 9.01415L24.202 5.79823ZM29.1162 10.8038L27.2147 6.58444L23.5679 8.22794L25.4695 12.4473L29.1162 10.8038ZM27.1063 18.5058C29.4172 16.7965 30.2972 13.4243 29.1162 10.8038L25.4695 12.4473C25.8769 13.3514 25.525 14.7001 24.7277 15.2898L27.1063 18.5058ZM26.7779 18.7487L27.1063 18.5058L24.7277 15.2898L24.3993 15.5327L26.7779 18.7487ZM27.8387 19.1333C27.8387 18.2764 27.7305 17.442 27.5259 16.644L23.6512 17.6373C23.7733 18.1134 23.8387 18.6143 23.8387 19.1333L27.8387 19.1333ZM27.8387 19.8314L27.8387 19.1333L23.8387 19.1333L23.8387 19.8314L27.8387 19.8314ZM17.8387 29.8314C23.3616 29.8314 27.8387 25.3543 27.8387 19.8314L23.8387 19.8314C23.8387 23.1451 21.1524 25.8314 17.8387 25.8314L17.8387 29.8314ZM13.801 29.8314L17.8387 29.8314L17.8387 25.8314L13.801 25.8314L13.801 29.8314ZM3.80097 19.8314C3.80097 25.3543 8.27812 29.8314 13.801 29.8314L13.801 25.8314C10.4873 25.8314 7.80097 23.1451 7.80097 19.8314L3.80097 19.8314ZM3.80097 19.1333L3.80097 19.8314L7.80097 19.8314L7.80097 19.1333L3.80097 19.1333ZM4.11376 16.644C3.9092 17.442 3.80097 18.2764 3.80097 19.1333L7.80097 19.1333C7.80097 18.6143 7.86641 18.1134 7.98846 17.6373L4.11376 16.644ZM4.53341 18.5058L4.8618 18.7486L7.24041 15.5327L6.91202 15.2898L4.53341 18.5058ZM2.52345 10.8038C1.34247 13.4243 2.2225 16.7965 4.53341 18.5058L6.91202 15.2898C6.11474 14.7001 5.76277 13.3514 6.17022 12.4473L2.52345 10.8038ZM4.42502 6.58444L2.52345 10.8038L6.17022 12.4473L8.07178 8.22794L4.42502 6.58444Z" fill="white" mask="url(#path-1-inside-1_438_101)"/>
<rect x="13.8387" y="21.5996" width="3.33962" height="1.66981" rx="0.834906" fill="white"/>
<rect x="10.4991" y="19.9297" width="3.33962" height="2.50472" rx="1" transform="rotate(-90 10.4991 19.9297)" fill="white"/>
<rect x="18.0132" y="19.9297" width="3.33962" height="2.50472" rx="1" transform="rotate(-90 18.0132 19.9297)" fill="white"/>
<line x1="9.01498" y1="21.2289" x2="4.84045" y2="22.8988" stroke="white"/>
<line x1="10.7991" y1="24.5043" x2="7.45947" y2="27.009" stroke="white"/>
<line x1="9.88779" y1="22.8817" x2="4.87836" y2="25.3864" stroke="white"/>
<line y1="-0.5" x2="4.4961" y2="-0.5" transform="matrix(0.928477 0.371391 0.371391 -0.928477 23.0227 20.7647)" stroke="white"/>
<line y1="-0.5" x2="4.17453" y2="-0.5" transform="matrix(0.8 0.6 0.6 -0.8 21.3529 24.1043)" stroke="white"/>
<line y1="-0.5" x2="5.60072" y2="-0.5" transform="matrix(0.894427 0.447214 0.447214 -0.894427 22.1878 22.4345)" stroke="white"/>
<path d="M13.2171 9.00001C13.2171 8.72965 13.2704 8.46192 13.3738 8.21214C13.4773 7.96235 13.629 7.73539 13.8201 7.54421C14.0113 7.35303 14.2383 7.20137 14.4881 7.09791C14.7379 6.99444 15.0056 6.94119 15.2759 6.94119C15.5463 6.94119 15.814 6.99444 16.0638 7.09791C16.3136 7.20138 16.5406 7.35303 16.7318 7.54421C16.9229 7.73539 17.0746 7.96235 17.1781 8.21214C17.2815 8.46193 17.3348 8.72965 17.3348 9.00002L16.0995 9.00001C16.0995 8.89187 16.0782 8.78478 16.0368 8.68486C15.9954 8.58495 15.9347 8.49416 15.8583 8.41769C15.7818 8.34122 15.691 8.28056 15.5911 8.23917C15.4912 8.19779 15.3841 8.17648 15.2759 8.17648C15.1678 8.17648 15.0607 8.19779 14.9608 8.23917C14.8609 8.28056 14.7701 8.34122 14.6936 8.41769C14.6172 8.49416 14.5565 8.58495 14.5151 8.68486C14.4737 8.78478 14.4524 8.89187 14.4524 9.00001L13.2171 9.00001Z" fill="white"/>
<path d="M10.9009 7.82771C11.1589 6.86461 11.7276 6.01357 12.5186 5.40658C13.3097 4.7996 14.2789 4.4706 15.2759 4.4706C16.273 4.4706 17.2422 4.7996 18.0333 5.40658C18.8243 6.01357 19.393 6.8646 19.651 7.82771L18.3385 8.1794C18.1579 7.50523 17.7598 6.9095 17.2061 6.48461C16.6524 6.05972 15.9739 5.82942 15.2759 5.82942C14.578 5.82942 13.8995 6.05972 13.3458 6.48461C12.7921 6.9095 12.394 7.50523 12.2134 8.1794L10.9009 7.82771Z" fill="white"/>
<path d="M8.51447 7.18827C8.91329 5.69983 9.79211 4.38459 11.0146 3.44653C12.2371 2.50846 13.735 2 15.2759 2C16.8169 2 18.3148 2.50846 19.5373 3.44653C20.7598 4.38459 21.6386 5.69983 22.0374 7.18827L20.6851 7.55061C20.3661 6.35987 19.663 5.30767 18.685 4.55722C17.707 3.80677 16.5087 3.4 15.2759 3.4C14.0432 3.4 12.8449 3.80677 11.8669 4.55722C10.8889 5.30767 10.1858 6.35987 9.86676 7.55061L8.51447 7.18827Z" fill="white"/>
</svg>
