<svg width="32" height="32" viewBox="0 0 32 32" fill="none" xmlns="http://www.w3.org/2000/svg">
<rect x="13" y="18" width="6" height="3" rx="1" fill="white"/>
<rect x="20" y="18" width="3" height="3" rx="1" transform="rotate(-90 20 18)" fill="white"/>
<rect x="9" y="18" width="3" height="3" rx="1" transform="rotate(-90 9 18)" fill="white"/>
<rect x="7" y="11" width="18" height="15" rx="7" stroke="white" stroke-width="2"/>
<path d="M13.9797 22.625H17.9797V23.625C17.9797 24.7296 17.0842 25.625 15.9797 25.625V25.625C14.8751 25.625 13.9797 24.7296 13.9797 23.625V22.625Z" fill="white"/>
<path d="M13.4797 21.625H18.4797L17.4797 23.625H14.4797L13.4797 21.625ZM18.4797 23.625C18.4797 25.0057 17.3604 26.125 15.9797 26.125C14.5989 26.125 13.4797 25.0057 13.4797 23.625H14.4797C14.4797 24.4534 15.1512 25.125 15.9797 25.125C16.8081 25.125 17.4797 24.4534 17.4797 23.625H18.4797ZM15.9797 26.125C14.5989 26.125 13.4797 25.0057 13.4797 23.625V21.625L14.4797 23.625C14.4797 24.4534 15.1512 25.125 15.9797 25.125V26.125ZM18.4797 21.625V23.625C18.4797 25.0057 17.3604 26.125 15.9797 26.125V25.125C16.8081 25.125 17.4797 24.4534 17.4797 23.625L18.4797 21.625Z" fill="white"/>
<rect x="1" y="5" width="9" height="9" rx="4.5" stroke="white" stroke-width="2"/>
<rect x="22" y="5" width="9" height="9" rx="4.5" stroke="white" stroke-width="2"/>
</svg>
