<svg width="32" height="32" viewBox="0 0 32 32" fill="none" xmlns="http://www.w3.org/2000/svg">
<path d="M12 9.19706C12 9.19706 13.8447 7.35312 15 6.50001C16.0489 5.72549 17.9824 4.99919 17.9824 4.99919L19.0444 9.19707L12 9.19706Z" fill="white"/>
<path fill-rule="evenodd" clip-rule="evenodd" d="M26.9022 10H17.9022V10.6361L3.90224 20H17.9022H18.1522H22.4022C24.8875 20 26.9022 17.9853 26.9022 15.5V10Z" fill="white"/>
<path fill-rule="evenodd" clip-rule="evenodd" d="M25.2163 10.194L16.523 12.5233L16.6876 13.1378L5.58819 25.806L19.1112 22.1826L19.3526 22.1179L23.4578 21.0179C25.8584 20.3747 27.283 17.9071 26.6398 15.5065L25.2163 10.194Z" fill="white"/>
<path fill-rule="evenodd" clip-rule="evenodd" d="M21.9022 2C19.6931 2 17.9022 3.79086 17.9022 6V10H26.9022V6C26.9022 3.79086 25.1114 2 22.9022 2H21.9022ZM23.7881 6.07403C23.8634 5.89204 23.9022 5.69698 23.9022 5.5H22.4022L20.9022 5.5C20.9022 5.69698 20.941 5.89204 21.0164 6.07403C21.0918 6.25601 21.2023 6.42137 21.3416 6.56066C21.4809 6.69995 21.6462 6.81044 21.8282 6.88582C22.0102 6.9612 22.2053 7 22.4022 7C22.5992 7 22.7943 6.9612 22.9763 6.88582C23.1583 6.81044 23.3236 6.69995 23.4629 6.56066C23.6022 6.42137 23.7127 6.25601 23.7881 6.07403Z" fill="white"/>
<line x1="23.3766" y1="20.8419" x2="25.3766" y2="26.8419" stroke="white"/>
<line x1="22.5487" y1="28.6464" x2="24.5487" y2="26.6464" stroke="white"/>
<line x1="26.0604" y1="26.5257" x2="29.0604" y2="27.5257" stroke="white"/>
<line x1="25.2558" y1="26.6464" x2="27.2558" y2="28.6464" stroke="white"/>
<line x1="19.3766" y1="20.8419" x2="21.3766" y2="26.8419" stroke="white"/>
<line x1="18.5487" y1="28.6464" x2="20.5487" y2="26.6464" stroke="white"/>
<line x1="22.0604" y1="26.5257" x2="25.0604" y2="27.5257" stroke="white"/>
<line x1="21.2558" y1="26.6464" x2="23.2558" y2="28.6464" stroke="white"/>
</svg>
