<svg width="32" height="32" viewBox="0 0 32 32" fill="none" xmlns="http://www.w3.org/2000/svg">
<path d="M29 14C29 16.3547 27.6655 18.5807 25.3183 20.2573C22.9729 21.9326 19.6816 23 16 23C12.3184 23 9.02709 21.9326 6.68174 20.2573C4.33448 18.5807 3 16.3547 3 14C3 11.6453 4.33448 9.41928 6.68174 7.74267C9.02709 6.06742 12.3184 5 16 5C19.6816 5 22.9729 6.06742 25.3183 7.74267C27.6655 9.41928 29 11.6453 29 14Z" stroke="white" stroke-width="2"/>
<path d="M26 17C26 21.24 21.7198 25 16 25C10.2802 25 6 21.24 6 17C6 12.76 10.2802 9 16 9C21.7198 9 26 12.76 26 17Z" stroke="white" stroke-width="2"/>
<path d="M24 21C24 24.0944 20.6667 27 16 27C11.3333 27 8 24.0944 8 21C8 17.9056 11.3333 15 16 15C20.6667 15 24 17.9056 24 21Z" fill="white" stroke="white" stroke-width="2"/>
</svg>
