<svg width="32" height="32" viewBox="0 0 32 32" fill="none" xmlns="http://www.w3.org/2000/svg">
<path d="M29 14.5C29 17.0142 27.6436 19.3666 25.2995 21.1246C22.9551 22.8829 19.6705 24 16 24C12.3295 24 9.04489 22.8829 6.70051 21.1246C4.35643 19.3666 3 17.0142 3 14.5C3 11.9858 4.35643 9.63344 6.70051 7.87538C9.04489 6.11709 12.3295 5 16 5C19.6705 5 22.9551 6.11709 25.2995 7.87538C27.6436 9.63344 29 11.9858 29 14.5Z" stroke="white" stroke-width="2"/>
<path d="M26 17C26 21.24 21.7198 25 16 25C10.2802 25 6 21.24 6 17C6 12.76 10.2802 9 16 9C21.7198 9 26 12.76 26 17Z" stroke="white" stroke-width="2"/>
<path d="M23 22C23 23.2715 22.3151 24.4989 21.0569 25.4426C19.7983 26.3866 18.0137 27 16 27C13.9863 27 12.2017 26.3866 10.9431 25.4426C9.68486 24.4989 9 23.2715 9 22C9 20.7285 9.68486 19.5011 10.9431 18.5574C12.2017 17.6134 13.9863 17 16 17C18.0137 17 19.7983 17.6134 21.0569 18.5574C22.3151 19.5011 23 20.7285 23 22Z" fill="white" stroke="white" stroke-width="2"/>
</svg>
