<svg width="32" height="32" viewBox="0 0 32 32" fill="none" xmlns="http://www.w3.org/2000/svg">
<path d="M3.5 7.59809L8.69615 7.59809L6.09808 12.0981L3.5 7.59809Z" fill="white"/>
<path d="M28.6962 7.59809L23.5 7.59809L26.0981 12.0981L28.6962 7.59809Z" fill="white"/>
<path fill-rule="evenodd" clip-rule="evenodd" d="M28.0981 17.5981L22.5981 8.09808H9.59807L4.09807 17.5981H7.88048L6.09807 21.0981H12.0147L13.3897 27.0981H18.8064L20.1814 21.0981H26.0981L24.3157 17.5981H28.0981ZM21.5981 16.0981C22.4265 16.0981 23.0981 15.4265 23.0981 14.5981C23.0981 13.7697 22.4265 13.0981 21.5981 13.0981C20.7696 13.0981 20.0981 13.7697 20.0981 14.5981C20.0981 15.4265 20.7696 16.0981 21.5981 16.0981ZM13.0981 14.5981C13.0981 15.4265 12.4265 16.0981 11.5981 16.0981C10.7696 16.0981 10.0981 15.4265 10.0981 14.5981C10.0981 13.7697 10.7696 13.0981 11.5981 13.0981C12.4265 13.0981 13.0981 13.7697 13.0981 14.5981ZM17.8301 21.0981L16.0981 24.0981L14.366 21.0981H17.8301Z" fill="white"/>
</svg>
