<svg width="32" height="32" viewBox="0 0 32 32" fill="none" xmlns="http://www.w3.org/2000/svg">
<rect x="2" y="4" width="2" height="2" fill="white"/>
<rect x="6" y="4" width="2" height="2" fill="white"/>
<rect x="10" y="4" width="2" height="2" fill="white"/>
<path fill-rule="evenodd" clip-rule="evenodd" d="M12 6H2V29H12V6ZM7 8C5.89543 8 5 8.89543 5 10V14H9V10C9 8.89543 8.10457 8 7 8Z" fill="white"/>
<rect x="20" y="4" width="2" height="2" fill="white"/>
<rect x="24" y="4" width="2" height="2" fill="white"/>
<rect x="28" y="4" width="2" height="2" fill="white"/>
<path fill-rule="evenodd" clip-rule="evenodd" d="M30 6H20V29H30V6ZM25 8C23.8954 8 23 8.89543 23 10V14H27V10C27 8.89543 26.1046 8 25 8Z" fill="white"/>
<path fill-rule="evenodd" clip-rule="evenodd" d="M30 16H2V31H30V16ZM15 22C13.8954 22 13 22.8954 13 24V29H18V24C18 22.8954 17.1046 22 16 22H15Z" fill="white"/>
<rect x="11" y="14" width="2" height="2" fill="white"/>
<rect x="15" y="14" width="2" height="2" fill="white"/>
<rect x="19" y="14" width="2" height="2" fill="white"/>
</svg>
