<svg width="32" height="32" viewBox="0 0 32 32" fill="none" xmlns="http://www.w3.org/2000/svg">
<rect x="3" y="3" width="26" height="26" rx="2" stroke="white" stroke-width="2"/>
<line x1="3" y1="12.5" x2="28" y2="12.5" stroke="white" stroke-width="3"/>
<line x1="13.8575" y1="13.5145" x2="4.85749" y2="28.5145" stroke="white" stroke-width="2"/>
<line y1="-1" x2="17.4929" y2="-1" transform="matrix(0.514496 0.857493 0.857493 -0.514496 19 13)" stroke="white" stroke-width="2"/>
<path d="M7 24.2796C7 24.2796 9.21959 26.2184 11.2 25.9796C13.3932 25.7153 14.5983 23.1243 16.8 23.0046C18.5272 22.9107 21 24.2796 21 24.2796" stroke="white" stroke-width="2"/>
<path d="M13 19.8531C13 19.8531 14.4269 21.1456 15.7 20.9864C17.1099 20.8102 17.8846 19.0829 19.3 19.0031C20.4103 18.9405 22 19.8531 22 19.8531" stroke="white" stroke-width="2"/>
<path d="M12 16.4265C12 16.4265 12.9513 17.0728 13.8 16.9932C14.7399 16.9051 15.2564 16.0414 16.2 16.0015C16.9402 15.9702 18 16.4265 18 16.4265" stroke="white" stroke-width="2"/>
<path d="M18 26.4265C18 26.4265 18.9513 27.0728 19.8 26.9932C20.7399 26.9051 21.2564 26.0414 22.2 26.0015C22.9402 25.9702 24 26.4265 24 26.4265" stroke="white" stroke-width="2"/>
</svg>
