<svg width="32" height="32" viewBox="0 0 32 32" fill="none" xmlns="http://www.w3.org/2000/svg">
<path fill-rule="evenodd" clip-rule="evenodd" d="M9.00001 1H11.6667V2.42786C16.1897 3.07484 19.6667 6.96471 19.6667 11.6667C19.6667 16.8213 15.488 21 10.3333 21C5.17868 21 1 16.8213 1 11.6667C1 6.96471 4.47695 3.07482 9.00001 2.42786V1ZM10.3333 18.3334C14.0152 18.3334 17 15.3486 17 11.6667C17 7.98479 14.0152 5.00002 10.3333 5.00002C6.65142 5.00002 3.66665 7.98479 3.66665 11.6667C3.66665 15.3486 6.65142 18.3334 10.3333 18.3334Z" fill="white"/>
<path d="M14.4772 7.34351L12.0146 13.0896L6.26857 15.5521L8.73116 9.8061L14.4772 7.34351Z" fill="white"/>
<path d="M21.96 13V4.6H28.236V6.7H24.444V10.9H28.452V13H21.96ZM23.196 9.736V7.768H27.792V9.736H23.196Z" fill="white"/>
<line y1="-1" x2="9.6" y2="-1" transform="matrix(-1 4.37114e-08 4.37114e-08 1 19.6 25.8)" stroke="white" stroke-width="2"/>
<path d="M26 24.2L18.8 20.0431L18.8 28.3569L26 24.2Z" fill="white"/>
</svg>
