<svg width="32" height="32" viewBox="0 0 32 32" fill="none" xmlns="http://www.w3.org/2000/svg">
<mask id="path-1-outside-1_41_532" maskUnits="userSpaceOnUse" x="5" y="1" width="23" height="28" fill="black">
<rect fill="white" x="5" y="1" width="23" height="28"/>
<path fill-rule="evenodd" clip-rule="evenodd" d="M16.3612 5L21.9904 14.75H19.1036L23.7224 22.75H18.8612V27H13.8612V22.75H9L13.6188 14.75H10.7321L16.3612 5Z"/>
</mask>
<path d="M21.9904 14.75V16.75H25.4545L23.7224 13.75L21.9904 14.75ZM16.3612 5L18.0933 4L16.3612 1L14.6292 4L16.3612 5ZM19.1036 14.75V12.75H15.6395L17.3716 15.75L19.1036 14.75ZM23.7224 22.75V24.75H27.1865L25.4545 21.75L23.7224 22.75ZM18.8612 22.75V20.75H16.8612V22.75H18.8612ZM18.8612 27V29H20.8612V27H18.8612ZM13.8612 27H11.8612V29H13.8612V27ZM13.8612 22.75H15.8612V20.75H13.8612V22.75ZM9 22.75L7.26795 21.75L5.5359 24.75H9V22.75ZM13.6188 14.75L15.3509 15.75L17.0829 12.75H13.6188V14.75ZM10.7321 14.75L9 13.75L7.26795 16.75H10.7321V14.75ZM23.7224 13.75L18.0933 4L14.6292 6L20.2583 15.75L23.7224 13.75ZM19.1036 16.75H21.9904V12.75H19.1036V16.75ZM17.3716 15.75L21.9904 23.75L25.4545 21.75L20.8357 13.75L17.3716 15.75ZM23.7224 20.75H18.8612V24.75H23.7224V20.75ZM20.8612 27V22.75H16.8612V27H20.8612ZM13.8612 29H18.8612V25H13.8612V29ZM11.8612 22.75V27H15.8612V22.75H11.8612ZM13.8612 20.75H9V24.75H13.8612V20.75ZM10.7321 23.75L15.3509 15.75L11.8868 13.75L7.26795 21.75L10.7321 23.75ZM10.7321 16.75H13.6188V12.75H10.7321V16.75ZM14.6292 4L9 13.75L12.4641 15.75L18.0933 6L14.6292 4Z" fill="white" mask="url(#path-1-outside-1_41_532)"/>
<path fill-rule="evenodd" clip-rule="evenodd" d="M11.2941 14.75L11.5217 15.1441L12.1229 16.1854L12.4565 16.7632L13.6188 14.75H11.2941ZM11.0131 14.2632L11.6592 13.1441H10.367L10.8217 13.9318L11.0131 14.2632ZM11.9226 12.6878L11.7313 12.3564L11.0314 11.1441L9.79348 9L8.63877 7L7.48407 9L6.24617 11.1441L5.54625 12.3564L5.09147 13.1441H6.9106L6.45582 13.9318L5.7559 15.1441L5.15469 16.1854L3.99999 18.1854H5.06336H6.30939H7.06336V18.8636V20.1854V20.8636H8.21419H9.06336H10.0891L8.99999 22.75H12.2142V22.8636H10.2142H7.06336H5.06336V20.8636V20.1854H3.99999H0.535889L2.26794 17.1854L3.4465 15.1441H1.62737L3.35942 12.1441L6.90672 6L8.63877 3L10.3708 6L13.0773 10.6878L11.9226 12.6878ZM10.2142 20.6469L11.6353 18.1854H10.9682H10.2142V18.8636V20.1854V20.6469Z" fill="white"/>
<path fill-rule="evenodd" clip-rule="evenodd" d="M21.6465 12.6017L21.3823 12.1441H21.9106L21.6465 12.6017ZM20.7369 11.0263L21.2462 10.1441L22.4841 8L23.6388 6L24.7935 8L26.0314 10.1441L26.7313 11.3564L27.1861 12.1441H25.367L25.8218 12.9318L26.5217 14.1441L27.1229 15.1854L28.2776 17.1854H27.2142H25.9682H25.2142V17.8637V19.1854V19.8637H24.0634H23.2142H22.9524L24.1071 21.8637H25.2142H27.2142V19.8637V19.1854H28.2776H31.7417L30.0096 16.1854L28.8311 14.1441H30.6502L28.9182 11.1441L25.3709 5L23.6388 2L21.9068 5L19.5822 9.02628L20.7369 11.0263ZM22.0634 18.3239L21.4061 17.1854H22.0634V17.8637V18.3239ZM20.2031 15.1017L20 14.75H20.4061L20.2031 15.1017Z" fill="white"/>
</svg>
