<svg width="32" height="32" viewBox="0 0 32 32" fill="none" xmlns="http://www.w3.org/2000/svg">
<rect x="3" y="3" width="26" height="26" rx="2" stroke="white" stroke-width="2"/>
<line x1="3" y1="15.5" x2="28" y2="15.5" stroke="white" stroke-width="3"/>
<path d="M3 17.2796C3 17.2796 5.21959 19.2184 7.2 18.9796C9.39317 18.7153 10.5983 16.1243 12.8 16.0046C14.5272 15.9107 17 17.2796 17 17.2796" stroke="white" stroke-width="2"/>
<path d="M15 19.2796C15 19.2796 17.2196 21.2184 19.2 20.9796C21.3932 20.7153 22.5983 18.1243 24.8 18.0046C26.5272 17.9107 29 19.2796 29 19.2796" stroke="white" stroke-width="2"/>
<path d="M3 24.2796C3 24.2796 5.21959 26.2184 7.2 25.9796C9.39317 25.7153 10.5983 23.1243 12.8 23.0046C14.5272 22.9107 17 24.2796 17 24.2796" stroke="white" stroke-width="2"/>
<path d="M12 25.2796C12 25.2796 14.2196 27.2184 16.2 26.9796C18.3932 26.7153 19.5983 24.1243 21.8 24.0046C23.5272 23.9107 26 25.2796 26 25.2796" stroke="white" stroke-width="2"/>
<path fill-rule="evenodd" clip-rule="evenodd" d="M12.5279 13C12.5279 11.8954 13.4233 11 14.5279 11H18.5263C19.9812 11 21.2946 11.8717 21.8596 13.2125C22.1133 13.8143 22.1328 14.4377 21.9731 15H8.33923C8.35819 14.8589 8.39499 14.7169 8.45131 14.5764C8.80628 13.6908 9.6644 13.1102 10.6185 13.1102H12.2078C12.3167 13.1102 12.4237 13.1189 12.5279 13.1357V13Z" fill="white"/>
<path d="M15.4932 5.91778C15.4932 5.91778 16.2738 7.44108 16.4932 8.49997C16.764 9.80694 16.4932 11.9178 16.4932 11.9178" stroke="white"/>
<path d="M15.4803 6.1451C15.4803 6.1451 15.6134 5.10774 15.9581 4.79354C16.3836 4.40573 17.6237 4.67116 17.6237 4.67116" stroke="white"/>
<path d="M14.4298 7.7668C14.4298 7.7668 14.5628 6.72944 14.9076 6.41524C15.3331 6.02743 16.5731 6.29287 16.5731 6.29287" stroke="white"/>
<path d="M15 5.69618C15 5.69618 16.0174 5.45397 16.4332 5.66539C16.9464 5.92634 17.1364 7.18016 17.1364 7.18016" stroke="white"/>
<path d="M15.1541 5.62782C15.1541 5.62782 14.1367 5.38561 13.7209 5.59703C13.2077 5.85798 13.0177 7.1118 13.0177 7.1118" stroke="white"/>
</svg>
