<svg width="32" height="32" viewBox="0 0 32 32" fill="none" xmlns="http://www.w3.org/2000/svg">
<path d="M2.5 28.5L2.5 5.80909L8.5 3.5L15.5 5.80909L21.5 3.5L28.5 5.80909L28.5 28.5L21.5 26.1909L15.5 28.5L8.5 26.1909L2.5 28.5Z" stroke="white" stroke-width="2"/>
<path fill-rule="evenodd" clip-rule="evenodd" d="M12.6667 9.33333C12.6667 9.96107 12.4931 10.5483 12.1914 11.0496L9.33334 16L6.47573 11.0505C6.17372 10.549 6 9.96143 6 9.33333C6 7.49238 7.49238 6 9.33333 6C11.1743 6 12.6667 7.49238 12.6667 9.33333ZM9.33333 11C10.2538 11 11 10.2538 11 9.33333C11 8.41286 10.2538 7.66667 9.33333 7.66667C8.41286 7.66667 7.66667 8.41286 7.66667 9.33333C7.66667 10.2538 8.41286 11 9.33333 11Z" fill="white"/>
</svg>
