<svg width="32" height="32" viewBox="0 0 32 32" fill="none" xmlns="http://www.w3.org/2000/svg">
<path fill-rule="evenodd" clip-rule="evenodd" d="M9.00001 5H11.6667V6.42786C16.1897 7.07484 19.6667 10.9647 19.6667 15.6667C19.6667 20.8213 15.488 25 10.3333 25C5.17868 25 1 20.8213 1 15.6667C1 10.9647 4.47695 7.07482 9.00001 6.42786V5ZM10.3333 22.3334C14.0152 22.3334 17 19.3486 17 15.6667C17 11.9848 14.0152 9.00002 10.3333 9.00002C6.65142 9.00002 3.66665 11.9848 3.66665 15.6667C3.66665 19.3486 6.65142 22.3334 10.3333 22.3334Z" fill="white"/>
<path d="M14.4772 11.3435L12.0146 17.0896L6.26854 19.5521L8.73113 13.8061L14.4772 11.3435Z" fill="white"/>
<path d="M20.96 28V19.6H23.276L27.14 24.94L26.588 24.772C26.548 24.452 26.512 24.172 26.48 23.932C26.456 23.692 26.432 23.472 26.408 23.272C26.392 23.064 26.376 22.86 26.36 22.66C26.352 22.46 26.348 22.24 26.348 22C26.348 21.76 26.348 21.48 26.348 21.16V19.6H28.844V28H26.504L22.244 22.12L23.216 22.408C23.256 22.704 23.288 22.964 23.312 23.188C23.344 23.404 23.368 23.604 23.384 23.788C23.4 23.972 23.412 24.156 23.42 24.34C23.436 24.516 23.444 24.716 23.444 24.94C23.452 25.156 23.456 25.412 23.456 25.708V28H20.96Z" fill="white"/>
<line y1="-1" x2="9.6" y2="-1" transform="matrix(0 1 1 0 26.4 8.40002)" stroke="white" stroke-width="2"/>
<path d="M24.8 2L20.6431 9.2H28.9569L24.8 2Z" fill="white"/>
</svg>
