<svg width="32" height="32" viewBox="0 0 32 32" fill="none" xmlns="http://www.w3.org/2000/svg">
<rect x="3" y="3" width="26" height="26" rx="2" stroke="white" stroke-width="2"/>
<line x1="3" y1="14.5" x2="28" y2="14.5" stroke="white" stroke-width="3"/>
<path d="M3 17.2796C3 17.2796 5.21959 19.2184 7.2 18.9796C9.39317 18.7153 10.5983 16.1243 12.8 16.0046C14.5272 15.9107 17 17.2796 17 17.2796" stroke="white" stroke-width="2"/>
<path d="M15 19.2796C15 19.2796 17.2196 21.2184 19.2 20.9796C21.3932 20.7153 22.5983 18.1243 24.8 18.0046C26.5272 17.9107 29 19.2796 29 19.2796" stroke="white" stroke-width="2"/>
<path d="M3 24.2796C3 24.2796 5.21959 26.2184 7.2 25.9796C9.39317 25.7153 10.5983 23.1243 12.8 23.0046C14.5272 22.9107 17 24.2796 17 24.2796" stroke="white" stroke-width="2"/>
<path d="M12 25.2796C12 25.2796 14.2196 27.2184 16.2 26.9796C18.3932 26.7153 19.5983 24.1243 21.8 24.0046C23.5272 23.9107 26 25.2796 26 25.2796" stroke="white" stroke-width="2"/>
</svg>
