<svg width="32" height="32" viewBox="0 0 32 32" fill="none" xmlns="http://www.w3.org/2000/svg">
<path fill-rule="evenodd" clip-rule="evenodd" d="M9.00001 5H11.6667V6.42786C16.1897 7.07484 19.6667 10.9647 19.6667 15.6667C19.6667 20.8213 15.488 25 10.3333 25C5.17868 25 1 20.8213 1 15.6667C1 10.9647 4.47695 7.07482 9.00001 6.42786V5ZM10.3333 22.3334C14.0152 22.3334 17 19.3486 17 15.6667C17 11.9848 14.0152 9.00002 10.3333 9.00002C6.65142 9.00002 3.66665 11.9848 3.66665 15.6667C3.66665 19.3486 6.65142 22.3334 10.3333 22.3334Z" fill="white"/>
<path d="M14.4772 11.3435L12.0146 17.0896L6.26854 19.5521L8.73113 13.8061L14.4772 11.3435Z" fill="white"/>
<path d="M24.9 12.12C24.268 12.12 23.708 12.052 23.22 11.916C22.74 11.772 22.316 11.572 21.948 11.316C21.588 11.06 21.264 10.76 20.976 10.416L22.476 8.736C22.876 9.248 23.292 9.588 23.724 9.756C24.164 9.916 24.576 9.996 24.96 9.996C25.112 9.996 25.248 9.984 25.368 9.96C25.488 9.928 25.58 9.88 25.644 9.816C25.708 9.752 25.74 9.664 25.74 9.552C25.74 9.448 25.704 9.36 25.632 9.288C25.568 9.216 25.48 9.156 25.368 9.108C25.256 9.052 25.132 9.008 24.996 8.976C24.868 8.936 24.74 8.904 24.612 8.88C24.492 8.856 24.384 8.832 24.288 8.808C23.808 8.696 23.388 8.56 23.028 8.4C22.668 8.24 22.368 8.048 22.128 7.824C21.888 7.6 21.708 7.344 21.588 7.056C21.476 6.768 21.42 6.444 21.42 6.084C21.42 5.676 21.512 5.304 21.696 4.968C21.888 4.632 22.14 4.344 22.452 4.104C22.772 3.864 23.132 3.68 23.532 3.552C23.94 3.424 24.36 3.36 24.792 3.36C25.424 3.36 25.952 3.42 26.376 3.54C26.8 3.652 27.156 3.816 27.444 4.032C27.732 4.248 27.98 4.5 28.188 4.788L26.676 6.24C26.5 6.072 26.316 5.936 26.124 5.832C25.932 5.72 25.732 5.64 25.524 5.592C25.324 5.536 25.124 5.508 24.924 5.508C24.74 5.508 24.584 5.524 24.456 5.556C24.328 5.58 24.228 5.624 24.156 5.688C24.084 5.744 24.048 5.824 24.048 5.928C24.048 6.032 24.092 6.12 24.18 6.192C24.276 6.256 24.392 6.312 24.528 6.36C24.672 6.408 24.812 6.448 24.948 6.48C25.092 6.504 25.212 6.524 25.308 6.54C25.748 6.62 26.152 6.732 26.52 6.876C26.888 7.012 27.208 7.188 27.48 7.404C27.76 7.612 27.972 7.876 28.116 8.196C28.268 8.508 28.344 8.88 28.344 9.312C28.344 9.928 28.188 10.444 27.876 10.86C27.572 11.276 27.16 11.592 26.64 11.808C26.12 12.016 25.54 12.12 24.9 12.12Z" fill="white"/>
<line x1="25.4" y1="23.6" x2="25.4" y2="14" stroke="white" stroke-width="2"/>
<path d="M24.8 30L20.6431 22.8H28.9569L24.8 30Z" fill="white"/>
</svg>
