<svg width="32" height="32" viewBox="0 0 32 32" fill="none" xmlns="http://www.w3.org/2000/svg">
<rect x="5" y="6" width="22" height="4" fill="white"/>
<rect x="5" y="3" width="5" height="7" fill="white"/>
<rect x="14" y="3" width="5" height="7" fill="white"/>
<rect x="22" y="3" width="5" height="7" fill="white"/>
<path fill-rule="evenodd" clip-rule="evenodd" d="M23.5918 9H8.40816C8.40816 9 7.77931 15.76 6.93878 20C6.07094 24.3778 4 31 4 31H28C28 31 25.9291 24.3778 25.0612 20C24.2207 15.76 23.5918 9 23.5918 9ZM16 10C14.8954 10 14 10.8954 14 12V16H18V12C18 10.8954 17.1046 10 16 10Z" fill="white"/>
</svg>
