<svg width="32" height="32" viewBox="0 0 32 32" fill="none" xmlns="http://www.w3.org/2000/svg">
<path fill-rule="evenodd" clip-rule="evenodd" d="M9.00001 1H11.6667V2.42786C16.1897 3.07484 19.6667 6.96471 19.6667 11.6667C19.6667 16.8213 15.488 21 10.3333 21C5.17868 21 1 16.8213 1 11.6667C1 6.96471 4.47695 3.07482 9.00001 2.42786V1ZM10.3333 18.3334C14.0152 18.3334 17 15.3486 17 11.6667C17 7.98479 14.0152 5.00002 10.3333 5.00002C6.65142 5.00002 3.66665 7.98479 3.66665 11.6667C3.66665 15.3486 6.65142 18.3334 10.3333 18.3334Z" fill="white"/>
<path d="M14.4772 7.34351L12.0146 13.0896L6.26854 15.5521L8.73113 9.8061L14.4772 7.34351Z" fill="white"/>
<path d="M21.268 12L18.88 3.6H21.472L22.456 7.392C22.52 7.64 22.572 7.88 22.612 8.112C22.66 8.336 22.696 8.544 22.72 8.736C22.744 8.928 22.76 9.104 22.768 9.264C22.784 9.424 22.792 9.56 22.792 9.672H22.6C22.6 9.472 22.604 9.26 22.612 9.036C22.628 8.804 22.66 8.556 22.708 8.292C22.756 8.02 22.836 7.72 22.948 7.392L23.992 4.428H25.972L27.016 7.392C27.128 7.712 27.216 8.008 27.28 8.28C27.344 8.544 27.388 8.792 27.412 9.024C27.444 9.248 27.46 9.464 27.46 9.672H27.28C27.28 9.576 27.28 9.468 27.28 9.348C27.28 9.228 27.28 9.096 27.28 8.952C27.288 8.808 27.3 8.656 27.316 8.496C27.332 8.328 27.356 8.152 27.388 7.968C27.42 7.784 27.46 7.592 27.508 7.392L28.492 3.6H31L28.588 12H26.548L24.724 7.476H25.048L23.428 12H21.268Z" fill="white"/>
<line x1="16.4" y1="24.8" x2="26" y2="24.8" stroke="white" stroke-width="2"/>
<path d="M10 24.2L17.2 20.0431L17.2 28.3569L10 24.2Z" fill="white"/>
</svg>
