<svg width="32" height="32" viewBox="0 0 32 32" fill="none" xmlns="http://www.w3.org/2000/svg">
<mask id="path-1-outside-1_327_1016" maskUnits="userSpaceOnUse" x="1" y="1" width="23" height="28" fill="black">
<rect fill="white" x="1" y="1" width="23" height="28"/>
<path fill-rule="evenodd" clip-rule="evenodd" d="M12.3612 5L17.9904 14.75H15.1036L19.7224 22.75H14.8612V27H9.86122V22.75H5L9.6188 14.75H6.73205L12.3612 5Z"/>
</mask>
<path d="M17.9904 14.75V16.75H21.4545L19.7224 13.75L17.9904 14.75ZM12.3612 5L14.0933 4L12.3612 1L10.6292 4L12.3612 5ZM15.1036 14.75V12.75H11.6395L13.3716 15.75L15.1036 14.75ZM19.7224 22.75V24.75H23.1865L21.4545 21.75L19.7224 22.75ZM14.8612 22.75V20.75H12.8612V22.75H14.8612ZM14.8612 27V29H16.8612V27H14.8612ZM9.86122 27H7.86122V29H9.86122V27ZM9.86122 22.75H11.8612V20.75H9.86122V22.75ZM5 22.75L3.26795 21.75L1.5359 24.75H5V22.75ZM9.6188 14.75L11.3509 15.75L13.0829 12.75H9.6188V14.75ZM6.73205 14.75L5 13.75L3.26795 16.75H6.73205V14.75ZM19.7224 13.75L14.0933 4L10.6292 6L16.2583 15.75L19.7224 13.75ZM15.1036 16.75H17.9904V12.75H15.1036V16.75ZM13.3716 15.75L17.9904 23.75L21.4545 21.75L16.8357 13.75L13.3716 15.75ZM19.7224 20.75H14.8612V24.75H19.7224V20.75ZM16.8612 27V22.75H12.8612V27H16.8612ZM9.86122 29H14.8612V25H9.86122V29ZM7.86122 22.75V27H11.8612V22.75H7.86122ZM9.86122 20.75H5V24.75H9.86122V20.75ZM6.73205 23.75L11.3509 15.75L7.88675 13.75L3.26795 21.75L6.73205 23.75ZM6.73205 16.75H9.6188V12.75H6.73205V16.75ZM10.6292 4L5 13.75L8.4641 15.75L14.0933 6L10.6292 4Z" fill="white" mask="url(#path-1-outside-1_327_1016)"/>
<path fill-rule="evenodd" clip-rule="evenodd" d="M19.4559 12.9318L18.7559 14.1441L18.1547 15.1854L17 17.1854H18.0634H19.3094H20.0634V17.8637V19.1854V19.8637H21.2142H22.0634H23.2142V19.1854V17.8637V17.1854H23.9682H25.2142H26.2776L25.1229 15.1854L24.5217 14.1441L23.8218 12.9318L23.367 12.1441H25.1861L24.7313 11.3564L24.0314 10.1441L22.7935 8L21.6388 6L20.4841 8L19.2462 10.1441L18.5463 11.3564L18.0915 12.1441H19.9106L19.4559 12.9318ZM18.0634 19.8637V19.1854H17.5608L15.5484 15.6997L16.0967 14.75H17.8868L16.0822 11.6243L16.3595 11.1441L19.9068 5L21.6388 2L23.3709 5L26.9182 11.1441L28.6502 14.1441H26.8311L28.0096 16.1854L29.7417 19.1854H26.2776H25.2142V19.8637V21.8637H23.2142H20.0634H19.1071L18.0634 20.0559V19.8637Z" fill="white"/>
</svg>
