<svg width="32" height="32" viewBox="0 0 32 32" fill="none" xmlns="http://www.w3.org/2000/svg">
<g clip-path="url(#clip0_107_158)">
<rect x="2.5" y="2.97369" width="14" height="11.5263" stroke="white"/>
<rect x="5.35714" y="6.6579" width="2.57143" height="2.68421" stroke="white"/>
<rect x="5.35714" y="9.60529" width="2.57143" height="2.68421" stroke="white"/>
<rect x="8.21429" y="6.6579" width="2.57143" height="2.68421" stroke="white"/>
<rect x="8.21429" y="9.60529" width="2.57143" height="2.68421" stroke="white"/>
<rect x="11.0714" y="6.6579" width="2.57143" height="2.68421" stroke="white"/>
<rect x="11.0714" y="9.60529" width="2.57143" height="2.68421" stroke="white"/>
<rect x="4.14286" y="1" width="2.14286" height="3.68421" rx="1.07143" fill="white"/>
<rect x="12.7143" y="1" width="2.14286" height="3.68421" rx="1.07143" fill="white"/>
<mask id="path-10-inside-1_107_158" fill="white">
<path fill-rule="evenodd" clip-rule="evenodd" d="M23.0862 13.9471C20.9377 12.9733 18.3669 13.0147 16.1681 14.2841C12.5464 16.3751 11.3055 21.0062 13.3965 24.628C15.4875 28.2497 20.1186 29.4906 23.7403 27.3996C25.8879 26.1596 27.1984 24.0265 27.4733 21.7403L30.8837 12.0076C30.8837 12.0076 28.8365 13.7028 27.2406 14.111C25.9799 14.4335 24.1693 14.1658 23.0862 13.9471Z"/>
</mask>
<path d="M23.0862 13.9471L22.2606 15.7688L22.4676 15.8626L22.6905 15.9076L23.0862 13.9471ZM27.4733 21.7403L25.5859 21.0789L25.5137 21.2849L25.4876 21.5015L27.4733 21.7403ZM30.8837 12.0076L32.7712 12.669L35.1509 5.8779L29.6082 10.4671L30.8837 12.0076ZM27.2406 14.111L27.7362 16.0486L27.2406 14.111ZM17.1681 16.0162C18.7848 15.0828 20.6742 15.0497 22.2606 15.7688L23.9119 12.1255C21.2012 10.8969 17.949 10.9466 15.1681 12.5521L17.1681 16.0162ZM15.1285 23.628C13.5898 20.9628 14.5029 17.5549 17.1681 16.0162L15.1681 12.5521C10.5898 15.1954 9.02113 21.0496 11.6644 25.628L15.1285 23.628ZM22.7403 25.6675C20.0751 27.2062 16.6672 26.2931 15.1285 23.628L11.6644 25.628C14.3077 30.2063 20.162 31.7749 24.7403 29.1316L22.7403 25.6675ZM25.4876 21.5015C25.2846 23.1895 24.3195 24.7557 22.7403 25.6675L24.7403 29.1316C27.4563 27.5635 29.1121 24.8636 29.459 21.9791L25.4876 21.5015ZM28.9963 11.3462L25.5859 21.0789L29.3608 22.4017L32.7712 12.669L28.9963 11.3462ZM27.7362 16.0486C28.8821 15.7555 30.0294 15.0647 30.771 14.5697C31.1693 14.3038 31.5097 14.0536 31.7513 13.8695C31.8727 13.777 31.9705 13.7 32.04 13.6447C32.0747 13.617 32.1024 13.5946 32.1225 13.5782C32.1325 13.5701 32.1406 13.5634 32.1468 13.5584C32.1499 13.5558 32.1525 13.5537 32.1545 13.552C32.1556 13.5512 32.1565 13.5504 32.1573 13.5497C32.1577 13.5494 32.158 13.5491 32.1584 13.5489C32.1585 13.5487 32.1587 13.5485 32.1588 13.5485C32.159 13.5483 32.1592 13.5481 30.8837 12.0076C29.6082 10.4671 29.6084 10.467 29.6086 10.4668C29.6087 10.4668 29.6088 10.4666 29.6089 10.4666C29.6091 10.4664 29.6093 10.4663 29.6095 10.4661C29.6098 10.4659 29.6099 10.4658 29.61 10.4657C29.6101 10.4656 29.6097 10.4659 29.6088 10.4666C29.6071 10.468 29.6036 10.4709 29.5982 10.4753C29.5875 10.484 29.5697 10.4984 29.5453 10.5179C29.4966 10.5568 29.422 10.6154 29.3265 10.6882C29.1344 10.8347 28.8632 11.0339 28.5502 11.2428C27.8692 11.6974 27.195 12.0583 26.7449 12.1734L27.7362 16.0486ZM22.6905 15.9076C23.281 16.0268 24.0937 16.1647 24.9525 16.2268C25.7824 16.2868 26.7996 16.2882 27.7362 16.0486L26.7449 12.1734C26.4209 12.2563 25.9025 12.2851 25.2412 12.2372C24.6087 12.1915 23.9746 12.0861 23.482 11.9867L22.6905 15.9076Z" fill="white" mask="url(#path-10-inside-1_107_158)"/>
<path d="M20.5024 21.0099C20.5024 21.0099 17.0771 23.2678 14.6992 24.3604C12.8727 25.1997 9.88078 26.1708 9.88078 26.1708" stroke="white"/>
<path d="M22.23 24.5928C22.23 24.5928 20.8339 24.2403 20.1705 23.6898C19.661 23.2669 19.0863 22.3144 19.0863 22.3144" stroke="white"/>
<path d="M17.2767 18.7284C17.2767 18.7284 16.8839 20.1138 17.029 20.9635C17.1404 21.6162 17.678 22.5901 17.678 22.5901" stroke="white"/>
</g>
<defs>
<clipPath id="clip0_107_158">
<rect width="32" height="32" fill="white"/>
</clipPath>
</defs>
</svg>
