<svg width="32" height="32" viewBox="0 0 32 32" fill="none" xmlns="http://www.w3.org/2000/svg">
<path d="M10 1L11.8558 4.21429H8.14424L10 1Z" fill="white"/>
<path d="M1.33974 6.00001L5.05128 6L3.19551 9.21429L1.33974 6.00001Z" fill="white"/>
<path d="M5.00001 2.3397L8.2143 4.19547L5.00001 6.05124L5.00001 2.3397Z" fill="white"/>
<path d="M18.6602 5.99999L16.8045 9.21428L14.9487 5.99999L18.6602 5.99999Z" fill="white"/>
<path d="M15 2.33974L15 6.05128L11.7857 4.19551L15 2.33974Z" fill="white"/>
<path d="M20 11L16.7857 12.8557L16.7857 9.1442L20 11Z" fill="white"/>
<path d="M10 21L11.8558 17.7857H8.14424L10 21Z" fill="white"/>
<path d="M18.6602 16L16.8045 12.7857L14.9487 16L18.6602 16Z" fill="white"/>
<path d="M15 19.6603L15 15.9487L11.7857 17.8045L15 19.6603Z" fill="white"/>
<path d="M1.33974 16L5.05128 16L3.19551 12.7857L1.33974 16Z" fill="white"/>
<path d="M5.00001 19.6603L8.2143 17.8045L5.00001 15.9488L5.00001 19.6603Z" fill="white"/>
<path d="M-9.36673e-08 11L3.21429 12.8557L3.21429 9.14421L-9.36673e-08 11Z" fill="white"/>
<circle cx="10" cy="11" r="5.71429" fill="white"/>
<mask id="path-14-outside-1_43_862" maskUnits="userSpaceOnUse" x="18" y="17" width="9" height="13" fill="black">
<rect fill="white" x="18" y="17" width="9" height="13"/>
<path fill-rule="evenodd" clip-rule="evenodd" d="M22.5 23.5L20 20.5V19H25V20.5L22.5 23.5ZM22.5 23.5L25 26.5V28H20V26.5L22.5 23.5Z"/>
</mask>
<path d="M20 20.5H18V21.2241L18.4636 21.7804L20 20.5ZM20 19V17H18V19H20ZM25 19H27V17H25V19ZM25 20.5L26.5364 21.7804L27 21.2241V20.5H25ZM25 26.5H27V25.7759L26.5364 25.2196L25 26.5ZM25 28V30H27V28H25ZM20 28H18V30H20V28ZM20 26.5L18.4636 25.2196L18 25.7759V26.5H20ZM18.4636 21.7804L20.9636 24.7804L24.0364 22.2196L21.5364 19.2196L18.4636 21.7804ZM18 19V20.5H22V19H18ZM25 17H20V21H25V17ZM27 20.5V19H23V20.5H27ZM24.0364 24.7804L26.5364 21.7804L23.4636 19.2196L20.9636 22.2196L24.0364 24.7804ZM20.9636 24.7804L23.4636 27.7804L26.5364 25.2196L24.0364 22.2196L20.9636 24.7804ZM23 26.5V28H27V26.5H23ZM25 26H20V30H25V26ZM22 28V26.5H18V28H22ZM21.5364 27.7804L24.0364 24.7804L20.9636 22.2196L18.4636 25.2196L21.5364 27.7804Z" fill="white" mask="url(#path-14-outside-1_43_862)"/>
<path d="M22.5 25L24.2321 27.25H20.7679L22.5 25Z" fill="white"/>
</svg>
