<svg width="32" height="32" viewBox="0 0 32 32" fill="none" xmlns="http://www.w3.org/2000/svg">
<g clip-path="url(#clip0_43_885)">
<path d="M10 1L11.8558 4.21429H8.14424L10 1Z" fill="white"/>
<path d="M1.33974 6.00001L5.05128 6L3.19551 9.21429L1.33974 6.00001Z" fill="white"/>
<path d="M4.99999 2.3397L8.21428 4.19547L4.99999 6.05124L4.99999 2.3397Z" fill="white"/>
<path d="M18.6602 5.99999L16.8045 9.21428L14.9487 5.99999L18.6602 5.99999Z" fill="white"/>
<path d="M15 2.33974L15 6.05128L11.7857 4.19551L15 2.33974Z" fill="white"/>
<path d="M20 11L16.7857 12.8557L16.7857 9.1442L20 11Z" fill="white"/>
<path d="M10 21L11.8558 17.7857H8.14424L10 21Z" fill="white"/>
<path d="M18.6602 16L16.8045 12.7857L14.9487 16L18.6602 16Z" fill="white"/>
<path d="M15 19.6603L15 15.9487L11.7857 17.8045L15 19.6603Z" fill="white"/>
<path d="M1.33974 16L5.05128 16L3.19551 12.7857L1.33974 16Z" fill="white"/>
<path d="M4.99999 19.6603L8.21428 17.8045L4.99999 15.9488L4.99999 19.6603Z" fill="white"/>
<path d="M-9.36673e-08 11L3.21429 12.8557L3.21429 9.14421L-9.36673e-08 11Z" fill="white"/>
<circle cx="9.99999" cy="11" r="5.71429" fill="white"/>
<mask id="path-14-outside-1_43_885" maskUnits="userSpaceOnUse" x="20" y="2" width="9" height="13" fill="black">
<rect fill="white" x="20" y="2" width="9" height="13"/>
<path fill-rule="evenodd" clip-rule="evenodd" d="M24.5 8.5L22 5.5V4H27V5.5L24.5 8.5ZM24.5 8.5L27 11.5V13H22V11.5L24.5 8.5Z"/>
</mask>
<path d="M22 5.5H20V6.2241L20.4636 6.78037L22 5.5ZM22 4V2H20V4H22ZM27 4H29V2H27V4ZM27 5.5L28.5364 6.78037L29 6.2241V5.5H27ZM27 11.5H29V10.7759L28.5364 10.2196L27 11.5ZM27 13V15H29V13H27ZM22 13H20V15H22V13ZM22 11.5L20.4636 10.2196L20 10.7759V11.5H22ZM20.4636 6.78037L22.9636 9.78037L26.0364 7.21963L23.5364 4.21963L20.4636 6.78037ZM20 4V5.5H24V4H20ZM27 2H22V6H27V2ZM29 5.5V4H25V5.5H29ZM26.0364 9.78037L28.5364 6.78037L25.4636 4.21963L22.9636 7.21963L26.0364 9.78037ZM22.9636 9.78037L25.4636 12.7804L28.5364 10.2196L26.0364 7.21963L22.9636 9.78037ZM25 11.5V13H29V11.5H25ZM27 11H22V15H27V11ZM24 13V11.5H20V13H24ZM23.5364 12.7804L26.0364 9.78037L22.9636 7.21963L20.4636 10.2196L23.5364 12.7804Z" fill="white" mask="url(#path-14-outside-1_43_885)"/>
<path d="M24.5 10L26.2321 12.25H22.7679L24.5 10Z" fill="white"/>
<path fill-rule="evenodd" clip-rule="evenodd" d="M15.7658 29.9218C19.286 31.9541 23.7872 30.7481 25.8195 27.2279C27.8519 23.7078 26.6458 19.2066 23.1256 17.1742C21.7169 16.3609 20.1511 16.0662 18.6492 16.2309C18.9591 16.3466 19.2635 16.4895 19.5594 16.6604C22.4395 18.3232 23.4263 22.006 21.7635 24.8861C20.1007 27.7663 16.4179 28.7531 13.5377 27.0902C13.2418 26.9193 12.9658 26.7271 12.7107 26.5167C13.3189 27.8997 14.3571 29.1084 15.7658 29.9218Z" fill="white"/>
</g>
<defs>
<clipPath id="clip0_43_885">
<rect width="32" height="32" fill="white"/>
</clipPath>
</defs>
</svg>
