<svg width="32" height="32" viewBox="0 0 32 32" fill="none" xmlns="http://www.w3.org/2000/svg">
<path d="M25.072 16.656C25.072 17.888 24.856 19.008 24.424 20.016C23.976 21.008 23.368 21.8 22.6 22.392C21.832 22.984 20.96 23.28 19.984 23.28C19.264 23.28 18.632 23.192 18.088 23.016C17.528 22.824 17.048 22.552 16.648 22.2C16.248 21.832 15.92 21.392 15.664 20.88C15.392 20.352 15.184 19.752 15.04 19.08L16.36 19.464C16.168 19.944 15.936 20.384 15.664 20.784C15.392 21.168 15.088 21.496 14.752 21.768C14.4 22.04 14.024 22.256 13.624 22.416C13.208 22.56 12.768 22.632 12.304 22.632C11.392 22.632 10.592 22.368 9.904 21.84C9.216 21.296 8.68 20.576 8.296 19.68C7.912 18.768 7.72 17.76 7.72 16.656C7.72 15.552 7.912 14.552 8.296 13.656C8.68 12.744 9.216 12.024 9.904 11.496C10.592 10.952 11.392 10.68 12.304 10.68C12.768 10.68 13.2 10.752 13.6 10.896C14 11.024 14.368 11.224 14.704 11.496C15.04 11.768 15.352 12.104 15.64 12.504C15.912 12.888 16.152 13.344 16.36 13.872L15.136 14.184C15.248 13.576 15.424 13.016 15.664 12.504C15.904 11.992 16.224 11.552 16.624 11.184C17.008 10.816 17.48 10.528 18.04 10.32C18.6 10.112 19.248 10.008 19.984 10.008C20.976 10.008 21.856 10.304 22.624 10.896C23.392 11.488 23.992 12.288 24.424 13.296C24.856 14.304 25.072 15.424 25.072 16.656ZM21.256 16.656C21.256 16.32 21.192 16.016 21.064 15.744C20.92 15.472 20.728 15.256 20.488 15.096C20.232 14.936 19.936 14.856 19.6 14.856C19.28 14.856 19 14.936 18.76 15.096C18.504 15.24 18.304 15.448 18.16 15.72C18.016 15.992 17.944 16.304 17.944 16.656C17.944 16.992 18.016 17.296 18.16 17.568C18.304 17.84 18.504 18.056 18.76 18.216C19 18.376 19.28 18.456 19.6 18.456C19.92 18.456 20.208 18.376 20.464 18.216C20.704 18.056 20.896 17.84 21.04 17.568C21.184 17.296 21.256 16.992 21.256 16.656ZM14.032 16.656C14.032 16.352 13.968 16.08 13.84 15.84C13.712 15.6 13.544 15.416 13.336 15.288C13.112 15.144 12.856 15.072 12.568 15.072C12.28 15.072 12.024 15.144 11.8 15.288C11.576 15.416 11.4 15.6 11.272 15.84C11.128 16.08 11.056 16.352 11.056 16.656C11.056 16.96 11.128 17.232 11.272 17.472C11.4 17.712 11.576 17.904 11.8 18.048C12.024 18.176 12.28 18.24 12.568 18.24C12.856 18.24 13.112 18.176 13.336 18.048C13.544 17.904 13.712 17.712 13.84 17.472C13.968 17.232 14.032 16.96 14.032 16.656Z" fill="white"/>
<rect x="3" y="3" width="26" height="26" rx="2" stroke="white" stroke-width="2"/>
</svg>
