<svg width="32" height="32" viewBox="0 0 32 32" fill="none" xmlns="http://www.w3.org/2000/svg">
<path fill-rule="evenodd" clip-rule="evenodd" d="M26 13H20V15H22V16.0709C21.167 16.19 20.3812 16.4559 19.6698 16.8414L18.8284 16L16 18.8284L16.8414 19.6698C16.3047 20.6601 16 21.7945 16 23C16 26.866 19.134 30 23 30C26.866 30 30 26.866 30 23C30 21.8585 29.7268 20.7809 29.2422 19.8289L30.2426 18.8284L27.4142 16L26.4859 16.9283C25.7341 16.4958 24.8943 16.1988 24 16.0709V15H26V13ZM23 28C25.7614 28 28 25.7614 28 23C28 20.2386 25.7614 18 23 18C20.2386 18 18 20.2386 18 23C18 25.7614 20.2386 28 23 28Z" fill="white"/>
<path d="M25 26.4641C24.4686 26.7709 23.8738 26.9513 23.2616 26.9914C22.6494 27.0316 22.0361 26.9303 21.4693 26.6955C20.9024 26.4607 20.3972 26.0987 19.9926 25.6374C19.5881 25.1761 19.2951 24.6279 19.1363 24.0353C18.9775 23.4426 18.9572 22.8214 19.0769 22.2196C19.1966 21.6179 19.4531 21.0517 19.8266 20.565C20.2001 20.0782 20.6806 19.6839 21.2308 19.4125C21.7811 19.1411 22.3864 19 23 19V23L25 26.4641Z" fill="white"/>
<path fill-rule="evenodd" clip-rule="evenodd" d="M5.76582 15.9218C9.28597 17.9541 13.7872 16.7481 15.8195 13.2279C17.8519 9.70776 16.6458 5.20656 13.1256 3.1742C11.7169 2.36087 10.1511 2.06619 8.64923 2.2309C8.95906 2.34663 9.26347 2.48951 9.5594 2.66037C12.4395 4.32321 13.4263 8.00601 11.7635 10.8861C10.1007 13.7663 6.41785 14.7531 3.53773 13.0902C3.24178 12.9193 2.96581 12.7271 2.71066 12.5167C3.31894 13.8997 4.35707 15.1084 5.76582 15.9218Z" fill="white"/>
</svg>
