<svg width="32" height="32" viewBox="0 0 32 32" fill="none" xmlns="http://www.w3.org/2000/svg">
<path fill-rule="evenodd" clip-rule="evenodd" d="M15.6381 8H8.05524V10.5276L10.5829 10.5276V11.881C9.53005 12.0316 8.53704 12.3676 7.63794 12.8548L6.5746 11.7914L3 15.366L4.06334 16.4294C3.38513 17.681 3 19.1146 3 20.6381C3 25.524 6.96079 29.4848 11.8467 29.4848C16.7326 29.4848 20.6933 25.524 20.6933 20.6381C20.6933 19.1955 20.3481 17.8336 19.7356 16.6304L21 15.366L17.4254 11.7914L16.2522 12.9647C15.302 12.418 14.2407 12.0427 13.1105 11.881V10.5276L15.6381 10.5276V8ZM11.8467 26.9572C15.3366 26.9572 18.1657 24.128 18.1657 20.6381C18.1657 17.1482 15.3366 14.319 11.8467 14.319C8.35676 14.319 5.52762 17.1482 5.52762 20.6381C5.52762 24.128 8.35676 26.9572 11.8467 26.9572Z" fill="white"/>
<line x1="12.3467" y1="15.5829" x2="12.3467" y2="20.6381" stroke="white"/>
<circle cx="24.5" cy="6.5" r="2.5" stroke="white" stroke-width="2"/>
</svg>
