<svg width="32" height="32" viewBox="0 0 32 32" fill="none" xmlns="http://www.w3.org/2000/svg">
<rect x="16.5" y="17.9737" width="14" height="11.5263" stroke="white"/>
<rect x="19.3571" y="21.6579" width="2.57143" height="2.68421" stroke="white"/>
<rect x="19.3571" y="24.6053" width="2.57143" height="2.68421" stroke="white"/>
<rect x="22.2143" y="21.6579" width="2.57143" height="2.68421" stroke="white"/>
<rect x="22.2143" y="24.6053" width="2.57143" height="2.68421" stroke="white"/>
<rect x="25.0714" y="21.6579" width="2.57143" height="2.68421" stroke="white"/>
<rect x="25.0714" y="24.6053" width="2.57143" height="2.68421" stroke="white"/>
<rect x="18.1429" y="16" width="2.14286" height="3.68421" rx="1.07143" fill="white"/>
<rect x="26.7143" y="16" width="2.14286" height="3.68421" rx="1.07143" fill="white"/>
<path fill-rule="evenodd" clip-rule="evenodd" d="M5.76582 15.9218C9.28597 17.9541 13.7872 16.7481 15.8195 13.2279C17.8519 9.70776 16.6458 5.20656 13.1256 3.1742C11.7169 2.36087 10.1511 2.06619 8.64923 2.2309C8.95906 2.34663 9.26347 2.48951 9.5594 2.66037C12.4395 4.32321 13.4263 8.00601 11.7635 10.8861C10.1007 13.7663 6.41785 14.7531 3.53773 13.0902C3.24178 12.9193 2.96581 12.7271 2.71066 12.5167C3.31894 13.8997 4.35707 15.1084 5.76582 15.9218Z" fill="white"/>
</svg>
