<svg width="32" height="32" viewBox="0 0 32 32" fill="none" xmlns="http://www.w3.org/2000/svg">
<path d="M10 1L11.8558 4.21429H8.14423L10 1Z" fill="white"/>
<path d="M1.33975 6.00001L5.05128 6L3.19552 9.21429L1.33975 6.00001Z" fill="white"/>
<path d="M5 2.3397L8.21429 4.19547L5 6.05124L5 2.3397Z" fill="white"/>
<path d="M18.6602 5.99999L16.8045 9.21428L14.9487 5.99999L18.6602 5.99999Z" fill="white"/>
<path d="M15 2.33974L15 6.05128L11.7857 4.19551L15 2.33974Z" fill="white"/>
<path d="M20 11L16.7857 12.8557L16.7857 9.1442L20 11Z" fill="white"/>
<path d="M10 21L11.8558 17.7857H8.14423L10 21Z" fill="white"/>
<path d="M18.6602 16L16.8045 12.7857L14.9487 16L18.6602 16Z" fill="white"/>
<path d="M15 19.6603L15 15.9487L11.7857 17.8045L15 19.6603Z" fill="white"/>
<path d="M1.33975 16L5.05128 16L3.19552 12.7857L1.33975 16Z" fill="white"/>
<path d="M5 19.6603L8.21429 17.8045L5 15.9488L5 19.6603Z" fill="white"/>
<path d="M-9.36673e-08 11L3.21429 12.8557L3.21429 9.14421L-9.36673e-08 11Z" fill="white"/>
<circle cx="10" cy="11" r="5.71429" fill="white"/>
<path fill-rule="evenodd" clip-rule="evenodd" d="M26 13H20V15H22V16.0709C21.167 16.19 20.3812 16.4559 19.6698 16.8414L18.8284 16L16 18.8284L16.8414 19.6698C16.3047 20.6601 16 21.7945 16 23C16 26.866 19.134 30 23 30C26.866 30 30 26.866 30 23C30 21.8585 29.7268 20.7809 29.2422 19.8289L30.2426 18.8284L27.4142 16L26.4859 16.9283C25.7341 16.4958 24.8943 16.1988 24 16.0709V15H26V13ZM23 28C25.7614 28 28 25.7614 28 23C28 20.2386 25.7614 18 23 18C20.2386 18 18 20.2386 18 23C18 25.7614 20.2386 28 23 28Z" fill="white"/>
<path d="M25 26.4641C24.4686 26.7709 23.8738 26.9513 23.2616 26.9914C22.6494 27.0316 22.0361 26.9303 21.4693 26.6955C20.9024 26.4607 20.3972 26.0987 19.9926 25.6374C19.5881 25.1761 19.2951 24.6279 19.1363 24.0353C18.9775 23.4426 18.9572 22.8214 19.0769 22.2196C19.1966 21.6179 19.4531 21.0517 19.8266 20.565C20.2001 20.0782 20.6806 19.6839 21.2308 19.4125C21.7811 19.1411 22.3864 19 23 19V23L25 26.4641Z" fill="white"/>
</svg>
