<svg width="32" height="32" viewBox="0 0 32 32" fill="none" xmlns="http://www.w3.org/2000/svg">
<path fill-rule="evenodd" clip-rule="evenodd" d="M16.7658 16.9218C20.286 18.9541 24.7872 17.7481 26.8195 14.2279C28.8519 10.7078 27.6458 6.20656 24.1256 4.1742C22.7169 3.36087 21.1511 3.06619 19.6492 3.2309C19.9591 3.34663 20.2635 3.48951 20.5594 3.66037C23.4395 5.32321 24.4263 9.00601 22.7635 11.8861C21.1007 14.7663 17.4179 15.7531 14.5377 14.0902C14.2418 13.9193 13.9658 13.7271 13.7107 13.5167C14.3189 14.8997 15.3571 16.1084 16.7658 16.9218Z" fill="white"/>
<path d="M7.5 5L8.06129 6.72746H9.87764L8.40818 7.79508L8.96946 9.52254L7.5 8.45492L6.03054 9.52254L6.59182 7.79508L5.12236 6.72746H6.93871L7.5 5Z" fill="white"/>
<path d="M3.5 12L4.06129 13.7275H5.87764L4.40818 14.7951L4.96946 16.5225L3.5 15.4549L2.03054 16.5225L2.59182 14.7951L1.12236 13.7275H2.93871L3.5 12Z" fill="white"/>
<path d="M26.5 23L27.0613 24.7275H28.8776L27.4082 25.7951L27.9695 27.5225L26.5 26.4549L25.0305 27.5225L25.5918 25.7951L24.1224 24.7275H25.9387L26.5 23Z" fill="white"/>
<mask id="path-5-outside-1_41_668" maskUnits="userSpaceOnUse" x="7" y="17" width="9" height="13" fill="black">
<rect fill="white" x="7" y="17" width="9" height="13"/>
<path fill-rule="evenodd" clip-rule="evenodd" d="M11.5 23.5L9 20.5V19H14V20.5L11.5 23.5ZM11.5 23.5L14 26.5V28H9V26.5L11.5 23.5Z"/>
</mask>
<path d="M9 20.5H7V21.2241L7.46356 21.7804L9 20.5ZM9 19V17H7V19H9ZM14 19H16V17H14V19ZM14 20.5L15.5364 21.7804L16 21.2241V20.5H14ZM14 26.5H16V25.7759L15.5364 25.2196L14 26.5ZM14 28V30H16V28H14ZM9 28H7V30H9V28ZM9 26.5L7.46356 25.2196L7 25.7759V26.5H9ZM7.46356 21.7804L9.96356 24.7804L13.0364 22.2196L10.5364 19.2196L7.46356 21.7804ZM7 19V20.5H11V19H7ZM14 17H9V21H14V17ZM16 20.5V19H12V20.5H16ZM13.0364 24.7804L15.5364 21.7804L12.4636 19.2196L9.96356 22.2196L13.0364 24.7804ZM9.96356 24.7804L12.4636 27.7804L15.5364 25.2196L13.0364 22.2196L9.96356 24.7804ZM12 26.5V28H16V26.5H12ZM14 26H9V30H14V26ZM11 28V26.5H7V28H11ZM10.5364 27.7804L13.0364 24.7804L9.96356 22.2196L7.46356 25.2196L10.5364 27.7804Z" fill="white" mask="url(#path-5-outside-1_41_668)"/>
<path d="M11.5 25L13.2321 27.25H9.76795L11.5 25Z" fill="white"/>
</svg>
