<svg width="32" height="32" viewBox="0 0 32 32" fill="none" xmlns="http://www.w3.org/2000/svg">
<g clip-path="url(#clip0_107_177)">
<rect x="2.5" y="2.97369" width="14" height="11.5263" stroke="white"/>
<rect x="5.35714" y="6.6579" width="2.57143" height="2.68421" stroke="white"/>
<rect x="5.35714" y="9.60529" width="2.57143" height="2.68421" stroke="white"/>
<rect x="8.21429" y="6.6579" width="2.57143" height="2.68421" stroke="white"/>
<rect x="8.21429" y="9.60529" width="2.57143" height="2.68421" stroke="white"/>
<rect x="11.0714" y="6.6579" width="2.57143" height="2.68421" stroke="white"/>
<rect x="11.0714" y="9.60529" width="2.57143" height="2.68421" stroke="white"/>
<rect x="4.14286" y="1" width="2.14286" height="3.68421" rx="1.07143" fill="white"/>
<rect x="12.7143" y="1" width="2.14286" height="3.68421" rx="1.07143" fill="white"/>
<circle cx="20.7189" cy="22.2001" r="3.07505" transform="rotate(15 20.7189 22.2001)" fill="white" stroke="white" stroke-width="3"/>
<path d="M24.7114 16.3496C24.526 17.0416 23.9221 18.0936 23.1372 18.9159C22.7517 19.3197 22.3652 19.6222 22.0202 19.7963C21.6728 19.9715 21.4515 19.9771 21.3237 19.9428C21.1959 19.9086 21.007 19.7932 20.7938 19.4677C20.582 19.1444 20.3986 18.6892 20.2666 18.1467C19.998 17.0422 20.001 15.8292 20.1865 15.1371C20.5213 13.8876 21.8056 13.1461 23.0552 13.4809C24.3047 13.8157 25.0462 15.1 24.7114 16.3496Z" stroke="white" stroke-width="2"/>
<path d="M17.6484 15.8171C18.155 16.3238 18.7642 17.3728 19.0838 18.4636C19.2408 18.9994 19.3095 19.4853 19.2877 19.8712C19.2658 20.2597 19.16 20.4541 19.0664 20.5476C18.9729 20.6412 18.7785 20.747 18.39 20.769C18.0041 20.7908 17.5181 20.722 16.9824 20.565C15.8915 20.2454 14.8426 19.6363 14.3359 19.1296C13.4212 18.2149 13.4212 16.7319 14.3359 15.8171C15.2506 14.9024 16.7337 14.9024 17.6484 15.8171Z" stroke="white" stroke-width="2"/>
<path d="M27.7819 22.7325C27.0898 22.9179 25.8768 22.921 24.7723 22.6524C24.2298 22.5204 23.7746 22.337 23.4513 22.1252C23.1258 21.9119 23.0104 21.7231 22.9762 21.5953C22.9419 21.4675 22.9474 21.2462 23.1227 20.8988C23.2968 20.5537 23.5993 20.1673 24.0031 19.7817C24.8253 18.9969 25.8774 18.393 26.5694 18.2076C27.819 17.8727 29.1033 18.6143 29.4381 19.8638C29.7729 21.1133 29.0314 22.3977 27.7819 22.7325Z" stroke="white" stroke-width="2"/>
<path d="M21.2512 29.2631C21.4367 28.5711 21.4397 27.3581 21.1711 26.2536C21.0392 25.7111 20.8557 25.2559 20.6439 24.9326C20.4307 24.6071 20.2418 24.4916 20.114 24.4574C19.9862 24.4232 19.7649 24.4287 19.4175 24.604C19.0725 24.778 18.686 25.0805 18.3005 25.4844C17.5156 26.3066 16.9117 27.3586 16.7263 28.0507C16.3915 29.3002 17.133 30.5846 18.3825 30.9194C19.6321 31.2542 20.9164 30.5127 21.2512 29.2631Z" stroke="white" stroke-width="2"/>
<path d="M27.1018 25.2706C26.5952 24.7639 25.5462 24.1548 24.4554 23.8352C23.9196 23.6782 23.4336 23.6094 23.0478 23.6312C22.6593 23.6532 22.4649 23.759 22.3713 23.8526C22.2778 23.9461 22.1719 24.1405 22.15 24.529C22.1282 24.9149 22.197 25.4008 22.3539 25.9366C22.6736 27.0274 23.2827 28.0764 23.7893 28.583C24.704 29.4978 26.1871 29.4978 27.1018 28.583C28.0165 27.6683 28.0165 26.1853 27.1018 25.2706Z" stroke="white" stroke-width="2"/>
<path d="M14.8683 26.1926C15.5604 26.0072 16.6124 25.4033 17.4346 24.6185C17.8385 24.233 18.141 23.8465 18.315 23.5014C18.4903 23.154 18.4958 22.9327 18.4616 22.8049C18.4274 22.6772 18.3119 22.4883 17.9864 22.275C17.6632 22.0632 17.2079 21.8798 16.6654 21.7478C15.5609 21.4792 14.3479 21.4823 13.6559 21.6677C12.4063 22.0025 11.6648 23.2869 11.9996 24.5364C12.3344 25.7859 13.6188 26.5275 14.8683 26.1926Z" stroke="white" stroke-width="2"/>
</g>
<defs>
<clipPath id="clip0_107_177">
<rect width="32" height="32" fill="white"/>
</clipPath>
</defs>
</svg>
