<svg width="32" height="32" viewBox="0 0 32 32" fill="none" xmlns="http://www.w3.org/2000/svg">
<g clip-path="url(#clip0_107_139)">
<rect x="2.5" y="2.97369" width="14" height="11.5263" stroke="white"/>
<rect x="5.35714" y="6.6579" width="2.57143" height="2.68421" stroke="white"/>
<rect x="5.35714" y="9.60529" width="2.57143" height="2.68421" stroke="white"/>
<rect x="8.21429" y="6.6579" width="2.57143" height="2.68421" stroke="white"/>
<rect x="8.21429" y="9.60529" width="2.57143" height="2.68421" stroke="white"/>
<rect x="11.0714" y="6.6579" width="2.57143" height="2.68421" stroke="white"/>
<rect x="11.0714" y="9.60529" width="2.57143" height="2.68421" stroke="white"/>
<rect x="4.14286" y="1" width="2.14286" height="3.68421" rx="1.07143" fill="white"/>
<rect x="12.7143" y="1" width="2.14286" height="3.68421" rx="1.07143" fill="white"/>
<mask id="path-10-inside-1_107_139" fill="white">
<path fill-rule="evenodd" clip-rule="evenodd" d="M16.7894 16.9693C15.2078 18.2821 14.2006 20.263 14.2006 22.4791C14.2006 26.4319 17.405 29.6363 21.3578 29.6363C25.3106 29.6363 28.515 26.4319 28.515 22.4791C28.515 20.3136 27.5533 18.3727 26.0336 17.0602L18.6739 8.16465C18.6739 8.16465 19.2195 11.5085 18.6739 13.5326C18.3637 14.6831 17.5537 15.9534 16.7894 16.9693Z"/>
</mask>
<path d="M16.7894 16.9693L17.4281 17.7387L17.5182 17.664L17.5885 17.5705L16.7894 16.9693ZM26.0336 17.0602L25.2631 17.6977L25.3165 17.7622L25.38 17.817L26.0336 17.0602ZM18.6739 8.16465L19.4443 7.52719L17.0928 4.68499L17.6869 8.3257L18.6739 8.16465ZM18.6739 13.5326L19.6394 13.7928L18.6739 13.5326ZM15.2006 22.4791C15.2006 20.573 16.0656 18.8697 17.4281 17.7387L16.1507 16.1998C14.35 17.6945 13.2006 19.953 13.2006 22.4791L15.2006 22.4791ZM21.3578 28.6363C17.9573 28.6363 15.2006 25.8796 15.2006 22.4791L13.2006 22.4791C13.2006 26.9842 16.8527 30.6363 21.3578 30.6363L21.3578 28.6363ZM27.515 22.4791C27.515 25.8796 24.7583 28.6363 21.3578 28.6363L21.3578 30.6363C25.8629 30.6363 29.515 26.9842 29.515 22.4791L27.515 22.4791ZM25.38 17.817C26.6891 18.9476 27.515 20.6163 27.515 22.4791L29.515 22.4791C29.515 20.0108 28.4175 17.7977 26.6872 16.3034L25.38 17.817ZM17.9034 8.80211L25.2631 17.6977L26.8041 16.4227L19.4443 7.52719L17.9034 8.80211ZM19.6394 13.7928C19.9573 12.6137 19.9458 11.1334 19.8765 10.0271C19.8409 9.45796 19.7875 8.95613 19.7431 8.59617C19.7208 8.41585 19.7006 8.27024 19.6859 8.16856C19.6785 8.11769 19.6724 8.07776 19.6681 8.0499C19.666 8.03597 19.6642 8.02505 19.663 8.01729C19.6624 8.01341 19.6619 8.01032 19.6615 8.00803C19.6613 8.00689 19.6612 8.00594 19.6611 8.00521C19.661 8.00484 19.661 8.00452 19.6609 8.00426C19.6609 8.00412 19.6609 8.00396 19.6609 8.00389C19.6608 8.00374 19.6608 8.00361 18.6739 8.16465C17.6869 8.3257 17.6869 8.32559 17.6869 8.32549C17.6869 8.32547 17.6869 8.32539 17.6869 8.32536C17.6869 8.32529 17.6869 8.32528 17.6869 8.32532C17.6869 8.32539 17.6869 8.32567 17.687 8.32614C17.6871 8.32708 17.6874 8.32882 17.6878 8.33133C17.6886 8.33634 17.6899 8.34445 17.6916 8.3555C17.695 8.37761 17.7002 8.41149 17.7066 8.45602C17.7196 8.54511 17.7378 8.67656 17.7581 8.84134C17.7989 9.17161 17.8479 9.63225 17.8804 10.1521C17.9476 11.2237 17.9361 12.4273 17.7083 13.2723L19.6394 13.7928ZM17.5885 17.5705C18.3667 16.536 19.2768 15.1381 19.6394 13.7928L17.7083 13.2723C17.4507 14.2281 16.7406 15.3707 15.9903 16.3681L17.5885 17.5705Z" fill="white" mask="url(#path-10-inside-1_107_139)"/>
<mask id="path-12-inside-2_107_139" fill="white">
<path fill-rule="evenodd" clip-rule="evenodd" d="M18.4736 19.5253C17.175 20.2574 16.1998 21.5406 15.9129 23.1221C15.4012 25.943 17.2731 28.6445 20.094 29.1562C22.9148 29.6679 25.6164 27.7959 26.128 24.9751C26.4084 23.4297 25.9733 21.9201 25.0586 20.7867L20.9581 13.486C20.9581 13.486 20.9146 15.9429 20.2632 17.3167C19.893 18.0976 19.1505 18.8992 18.4736 19.5253Z"/>
</mask>
<path d="M18.4736 19.5253L19.4558 21.2675L19.6597 21.1525L19.8316 20.9936L18.4736 19.5253ZM25.0586 20.7867L23.3148 21.7661L23.3969 21.9123L23.5022 22.0428L25.0586 20.7867ZM20.9581 13.486L22.7018 12.5066L19.0889 6.07408L18.9584 13.4507L20.9581 13.486ZM20.2632 17.3167L22.0704 18.1736L20.2632 17.3167ZM17.8808 23.4791C18.057 22.5076 18.6532 21.72 19.4558 21.2675L17.4914 17.7831C15.6967 18.7948 14.3425 20.5737 13.945 22.7652L17.8808 23.4791ZM20.4509 27.1883C18.7169 26.8738 17.5662 25.2131 17.8808 23.4791L13.945 22.7652C13.2362 26.6729 15.8293 30.4153 19.737 31.1241L20.4509 27.1883ZM24.1602 24.6181C23.8456 26.3522 22.1849 27.5029 20.4509 27.1883L19.737 31.1241C23.6447 31.8329 27.3871 29.2397 28.0959 25.3321L24.1602 24.6181ZM23.5022 22.0428C24.0674 22.7431 24.3324 23.6686 24.1602 24.6181L28.0959 25.3321C28.4843 23.1908 27.8791 21.0971 26.615 19.5307L23.5022 22.0428ZM19.2143 14.4655L23.3148 21.7661L26.8024 19.8073L22.7018 12.5066L19.2143 14.4655ZM22.0704 18.1736C22.5443 17.174 22.7449 15.9399 22.8413 15.1195C22.8932 14.6775 22.922 14.2861 22.9379 14.0044C22.9459 13.8629 22.9508 13.7473 22.9537 13.6647C22.9552 13.6234 22.9561 13.5902 22.9568 13.566C22.9571 13.554 22.9573 13.5441 22.9575 13.5367C22.9575 13.5329 22.9576 13.5298 22.9577 13.5272C22.9577 13.526 22.9577 13.5248 22.9577 13.5239C22.9577 13.5234 22.9577 13.5229 22.9577 13.5225C22.9577 13.5223 22.9578 13.5221 22.9578 13.5219C22.9578 13.5217 22.9578 13.5214 20.9581 13.486C18.9584 13.4507 18.9584 13.4504 18.9584 13.4502C18.9584 13.4501 18.9584 13.4499 18.9584 13.4498C18.9584 13.4495 18.9584 13.4493 18.9584 13.4491C18.9584 13.4487 18.9584 13.4485 18.9584 13.4484C18.9584 13.4482 18.9584 13.4486 18.9584 13.4496C18.9584 13.4515 18.9583 13.4556 18.9581 13.4619C18.9578 13.4744 18.9572 13.4953 18.9562 13.5239C18.9542 13.581 18.9505 13.6681 18.9443 13.7784C18.9317 14.0003 18.909 14.309 18.8686 14.653C18.7803 15.4044 18.6335 16.0857 18.4561 16.4599L22.0704 18.1736ZM19.8316 20.9936C20.5425 20.3361 21.5273 19.3189 22.0704 18.1736L18.4561 16.4599C18.2586 16.8763 17.7585 17.4624 17.1156 18.057L19.8316 20.9936Z" fill="white" mask="url(#path-12-inside-2_107_139)"/>
<mask id="path-14-inside-3_107_139" fill="white">
<path fill-rule="evenodd" clip-rule="evenodd" d="M19.5798 23.3214C18.8065 23.5508 18.1372 24.11 17.795 24.9096C17.1848 26.3357 17.8461 27.9865 19.2722 28.5967C20.6983 29.207 22.3491 28.5457 22.9594 27.1196C23.2937 26.3383 23.2464 25.4896 22.9008 24.7815L21.6189 20.4358C21.6189 20.4358 21.2995 21.7265 20.7902 22.3725C20.5007 22.7396 20.0124 23.0729 19.5798 23.3214Z"/>
</mask>
<path fill-rule="evenodd" clip-rule="evenodd" d="M19.5798 23.3214C18.8065 23.5508 18.1372 24.11 17.795 24.9096C17.1848 26.3357 17.8461 27.9865 19.2722 28.5967C20.6983 29.207 22.3491 28.5457 22.9594 27.1196C23.2937 26.3383 23.2464 25.4896 22.9008 24.7815L21.6189 20.4358C21.6189 20.4358 21.2995 21.7265 20.7902 22.3725C20.5007 22.7396 20.0124 23.0729 19.5798 23.3214Z" fill="white"/>
<path d="M19.5798 23.3214L20.1487 25.2388L20.3731 25.1722L20.5761 25.0555L19.5798 23.3214ZM22.9008 24.7815L20.9825 25.3474L21.03 25.5081L21.1035 25.6587L22.9008 24.7815ZM21.6189 20.4358L23.5372 19.87L21.4499 12.7937L19.6775 19.9554L21.6189 20.4358ZM20.7902 22.3725L19.2197 21.1341L19.2197 21.1341L20.7902 22.3725ZM19.6338 25.6964C19.732 25.4668 19.9212 25.3062 20.1487 25.2388L19.0109 21.404C17.6917 21.7954 16.5424 22.7532 15.9563 24.1227L19.6338 25.6964ZM20.0591 26.758C19.6485 26.5823 19.458 26.107 19.6338 25.6964L15.9563 24.1227C14.9115 26.5643 16.0438 29.3906 18.4854 30.4355L20.0591 26.758ZM21.1207 26.3327C20.945 26.7433 20.4697 26.9337 20.0591 26.758L18.4854 30.4355C20.927 31.4803 23.7533 30.348 24.7981 27.9064L21.1207 26.3327ZM21.1035 25.6587C21.205 25.8668 21.2168 26.1082 21.1207 26.3327L24.7981 27.9064C25.3707 26.5685 25.2879 25.1125 24.6982 23.9043L21.1035 25.6587ZM19.7007 21.0017L20.9825 25.3474L24.8191 24.2157L23.5372 19.87L19.7007 21.0017ZM22.3607 23.6108C22.8297 23.016 23.1247 22.2684 23.2799 21.8323C23.3682 21.584 23.4362 21.3629 23.4824 21.2031C23.5057 21.1225 23.5239 21.0558 23.5369 21.0069C23.5435 20.9825 23.5487 20.9624 23.5526 20.9471C23.5545 20.9395 23.5562 20.9331 23.5575 20.9279C23.5581 20.9253 23.5587 20.9231 23.5592 20.9211C23.5594 20.9202 23.5596 20.9193 23.5598 20.9185C23.5599 20.9181 23.56 20.9177 23.5601 20.9173C23.5602 20.9171 23.5602 20.9169 23.5603 20.9168C23.5603 20.9165 23.5604 20.9163 21.6189 20.4358C19.6775 19.9554 19.6776 19.9551 19.6776 19.9549C19.6777 19.9548 19.6777 19.9546 19.6777 19.9544C19.6778 19.9542 19.6779 19.9539 19.6779 19.9536C19.6781 19.9531 19.6782 19.9527 19.6783 19.9524C19.6784 19.9517 19.6785 19.9513 19.6786 19.9512C19.6786 19.9509 19.6784 19.9518 19.6779 19.9538C19.6769 19.9578 19.6747 19.966 19.6715 19.9781C19.6651 20.0024 19.6544 20.0415 19.6398 20.0921C19.6102 20.1944 19.5665 20.3363 19.5113 20.4915C19.4552 20.6492 19.3937 20.8022 19.3311 20.9326C19.3004 20.9967 19.2733 21.0473 19.2509 21.0851C19.2279 21.124 19.2166 21.1381 19.2197 21.1341L22.3607 23.6108ZM20.5761 25.0555C21.0489 24.7839 21.8215 24.2946 22.3607 23.6108L19.2197 21.1341C19.2236 21.1292 19.2124 21.1439 19.1774 21.1764C19.1434 21.2081 19.096 21.2481 19.0338 21.2951C18.9069 21.3908 18.7514 21.4907 18.5835 21.5872L20.5761 25.0555Z" fill="white" mask="url(#path-14-inside-3_107_139)"/>
</g>
<defs>
<clipPath id="clip0_107_139">
<rect width="32" height="32" fill="white"/>
</clipPath>
</defs>
</svg>
