<svg width="32" height="32" viewBox="0 0 32 32" fill="none" xmlns="http://www.w3.org/2000/svg">
<rect x="3" y="3" width="26" height="26" rx="2" stroke="white" stroke-width="2"/>
<path d="M3 16.5L15.5 8.5L29 17.5" stroke="white" stroke-width="3"/>
<path d="M15.5 12L17.6651 16.5H13.3349L15.5 12Z" fill="white"/>
<line x1="3" y1="21.5" x2="28" y2="21.5" stroke="white" stroke-width="3"/>
<path d="M23 4L23.9279 5.60714H22.0721L23 4Z" fill="white"/>
<path d="M18.6699 6.49997L20.5256 6.49997L19.5978 8.10711L18.6699 6.49997Z" fill="white"/>
<path d="M20.5 4.66985L22.1071 5.59774L20.5 6.52562L20.5 4.66985Z" fill="white"/>
<path d="M27.3301 6.50003L26.4022 8.10717L25.4744 6.50003L27.3301 6.50003Z" fill="white"/>
<path d="M25.5 4.66987L25.5 6.52564L23.8929 5.59775L25.5 4.66987Z" fill="white"/>
<path d="M28 9.00002L26.3929 9.9279L26.3929 8.07213L28 9.00002Z" fill="white"/>
<path d="M23 14L23.9279 12.3929H22.0721L23 14Z" fill="white"/>
<path d="M27.3301 11.5L26.4022 9.89283L25.4744 11.5L27.3301 11.5Z" fill="white"/>
<path d="M25.5 13.3301L25.5 11.4744L23.8929 12.4022L25.5 13.3301Z" fill="white"/>
<path d="M18.6699 11.5L20.5256 11.5L19.5978 9.89289L18.6699 11.5Z" fill="white"/>
<path d="M20.5 13.3301L22.1071 12.4023L20.5 11.4744L20.5 13.3301Z" fill="white"/>
<path d="M18 9.00002L19.6071 9.9279L19.6071 8.07213L18 9.00002Z" fill="white"/>
<circle cx="23" cy="9.00003" r="2.85714" fill="white"/>
</svg>
