<svg width="32" height="32" viewBox="0 0 32 32" fill="none" xmlns="http://www.w3.org/2000/svg">
<rect x="3" y="3" width="26" height="26" rx="2" stroke="white" stroke-width="2"/>
<path d="M24.5 11L22.3349 6.5L26.6651 6.5L24.5 11Z" fill="white"/>
<line x1="3" y1="14.5" x2="28" y2="14.5" stroke="white" stroke-width="3"/>
<path d="M16 5L16.9279 6.60714H15.0721L16 5Z" fill="white"/>
<path d="M11.6699 7.49997L13.5256 7.49997L12.5978 9.10711L11.6699 7.49997Z" fill="white"/>
<path d="M13.5 5.66985L15.1071 6.59774L13.5 7.52562L13.5 5.66985Z" fill="white"/>
<path d="M20.3301 7.50003L19.4022 9.10717L18.4744 7.50003L20.3301 7.50003Z" fill="white"/>
<path d="M18.5 5.66987L18.5 7.52564L16.8929 6.59775L18.5 5.66987Z" fill="white"/>
<path d="M21 10L19.3929 10.9279L19.3929 9.07213L21 10Z" fill="white"/>
<path d="M16 15L16.9279 13.3929H15.0721L16 15Z" fill="white"/>
<path d="M20.3301 12.5L19.4022 10.8928L18.4744 12.5L20.3301 12.5Z" fill="white"/>
<path d="M18.5 14.3301L18.5 12.4744L16.8929 13.4022L18.5 14.3301Z" fill="white"/>
<path d="M11.6699 12.5L13.5256 12.5L12.5978 10.8929L11.6699 12.5Z" fill="white"/>
<path d="M13.5 14.3301L15.1071 13.4023L13.5 12.4744L13.5 14.3301Z" fill="white"/>
<path d="M11 10L12.6071 10.9279L12.6071 9.07213L11 10Z" fill="white"/>
<circle cx="16" cy="10" r="2.85714" fill="white"/>
<path d="M3 17.2796C3 17.2796 5.21959 19.2184 7.2 18.9796C9.39317 18.7153 10.5983 16.1243 12.8 16.0046C14.5272 15.9107 17 17.2796 17 17.2796" stroke="white" stroke-width="2"/>
<path d="M15 19.2796C15 19.2796 17.2196 21.2184 19.2 20.9796C21.3932 20.7153 22.5983 18.1243 24.8 18.0046C26.5272 17.9107 29 19.2796 29 19.2796" stroke="white" stroke-width="2"/>
<path d="M3 24.2796C3 24.2796 5.21959 26.2184 7.2 25.9796C9.39317 25.7153 10.5983 23.1243 12.8 23.0046C14.5272 22.9107 17 24.2796 17 24.2796" stroke="white" stroke-width="2"/>
<path d="M12 25.2796C12 25.2796 14.2196 27.2184 16.2 26.9796C18.3932 26.7153 19.5983 24.1243 21.8 24.0046C23.5272 23.9107 26 25.2796 26 25.2796" stroke="white" stroke-width="2"/>
</svg>
