<svg width="32" height="32" viewBox="0 0 32 32" fill="none" xmlns="http://www.w3.org/2000/svg">
<path fill-rule="evenodd" clip-rule="evenodd" d="M13 2H7V4H9V5.07089C8.16695 5.19005 7.38122 5.45588 6.66981 5.84138L5.82843 5L3 7.82843L3.84138 8.66981C3.30474 9.66014 3 10.7945 3 12C3 15.866 6.13401 19 10 19C13.866 19 17 15.866 17 12C17 10.8585 16.7268 9.78089 16.2422 8.82888L17.2426 7.82843L14.4142 5L13.4859 5.92833C12.7341 5.49575 11.8943 5.19881 11 5.07089V4H13V2ZM10 17C12.7614 17 15 14.7614 15 12C15 9.23858 12.7614 7 10 7C7.23858 7 5 9.23858 5 12C5 14.7614 7.23858 17 10 17Z" fill="white"/>
<line x1="10.5" y1="8" x2="10.5" y2="12" stroke="white"/>
<mask id="path-3-outside-1_24_300" maskUnits="userSpaceOnUse" x="15" y="9" width="14" height="22" fill="black">
<rect fill="white" x="15" y="9" width="14" height="22"/>
<path fill-rule="evenodd" clip-rule="evenodd" d="M22 20L17 14V11H27V14L22 20ZM22 20L27 26V29H17V26L22 20Z"/>
</mask>
<path d="M17 14H15V14.7241L15.4636 15.2804L17 14ZM17 11V9H15V11H17ZM27 11H29V9H27V11ZM27 14L28.5364 15.2804L29 14.7241V14H27ZM27 26H29V25.2759L28.5364 24.7196L27 26ZM27 29V31H29V29H27ZM17 29H15V31H17V29ZM17 26L15.4636 24.7196L15 25.2759V26H17ZM15.4636 15.2804L20.4636 21.2804L23.5364 18.7196L18.5364 12.7196L15.4636 15.2804ZM15 11V14H19V11H15ZM27 9H17V13H27V9ZM29 14V11H25V14H29ZM23.5364 21.2804L28.5364 15.2804L25.4636 12.7196L20.4636 18.7196L23.5364 21.2804ZM20.4636 21.2804L25.4636 27.2804L28.5364 24.7196L23.5364 18.7196L20.4636 21.2804ZM25 26V29H29V26H25ZM27 27H17V31H27V27ZM19 29V26H15V29H19ZM18.5364 27.2804L23.5364 21.2804L20.4636 18.7196L15.4636 24.7196L18.5364 27.2804Z" fill="white" mask="url(#path-3-outside-1_24_300)"/>
<path d="M22 23L25.4641 27.5H18.5359L22 23Z" fill="white"/>
</svg>
