<svg width="32" height="32" viewBox="0 0 32 32" fill="none" xmlns="http://www.w3.org/2000/svg">
<path d="M10 1L11.8558 4.21429H8.14424L10 1Z" fill="white"/>
<path d="M1.33974 6.00001L5.05128 6L3.19551 9.21429L1.33974 6.00001Z" fill="white"/>
<path d="M5.00001 2.3397L8.2143 4.19547L5.00001 6.05124L5.00001 2.3397Z" fill="white"/>
<path d="M18.6602 5.99999L16.8045 9.21428L14.9487 5.99999L18.6602 5.99999Z" fill="white"/>
<path d="M15 2.33974L15 6.05128L11.7857 4.19551L15 2.33974Z" fill="white"/>
<path d="M20 11L16.7857 12.8557L16.7857 9.1442L20 11Z" fill="white"/>
<path d="M10 21L11.8558 17.7857H8.14424L10 21Z" fill="white"/>
<path d="M18.6602 16L16.8045 12.7857L14.9487 16L18.6602 16Z" fill="white"/>
<path d="M15 19.6603L15 15.9487L11.7857 17.8045L15 19.6603Z" fill="white"/>
<path d="M1.33974 16L5.05128 16L3.19551 12.7857L1.33974 16Z" fill="white"/>
<path d="M5.00001 19.6603L8.2143 17.8045L5.00001 15.9488L5.00001 19.6603Z" fill="white"/>
<path d="M-9.36673e-08 11L3.21429 12.8557L3.21429 9.14421L-9.36673e-08 11Z" fill="white"/>
<circle cx="10" cy="11" r="5.71429" fill="white"/>
<rect x="16.5" y="17.9737" width="14" height="11.5263" stroke="white"/>
<rect x="19.3571" y="21.6579" width="2.57143" height="2.68421" stroke="white"/>
<rect x="19.3571" y="24.6053" width="2.57143" height="2.68421" stroke="white"/>
<rect x="22.2143" y="21.6579" width="2.57143" height="2.68421" stroke="white"/>
<rect x="22.2143" y="24.6053" width="2.57143" height="2.68421" stroke="white"/>
<rect x="25.0714" y="21.6579" width="2.57143" height="2.68421" stroke="white"/>
<rect x="25.0714" y="24.6053" width="2.57143" height="2.68421" stroke="white"/>
<rect x="18.1429" y="16" width="2.14286" height="3.68421" rx="1.07143" fill="white"/>
<rect x="26.7143" y="16" width="2.14286" height="3.68421" rx="1.07143" fill="white"/>
</svg>
