<svg width="32" height="32" viewBox="0 0 32 32" fill="none" xmlns="http://www.w3.org/2000/svg">
<rect x="3" y="3" width="26" height="26" rx="2" stroke="white" stroke-width="2"/>
<path d="M22.4051 13.2265C22.7127 13.0933 23.0762 13.1835 23.253 13.4683C23.8181 14.379 24.071 15.3844 23.9829 16.3924C23.8794 17.5766 23.31 18.7111 22.3468 19.6526C21.3836 20.594 20.0698 21.3001 18.5715 21.6816C17.2985 22.0057 15.941 22.083 14.6241 21.9106C14.2559 21.8624 14.0415 21.482 14.1664 21.1324C14.2681 20.8476 14.5632 20.683 14.8628 20.7236C15.9277 20.8678 17.0271 20.8075 18.0572 20.5453C19.2558 20.2401 20.3069 19.6752 21.0775 18.9221C21.848 18.1689 22.3035 17.2613 22.3863 16.3139C22.4433 15.6613 22.3217 15.0101 22.0336 14.3993C21.8302 13.9679 21.9674 13.4161 22.4051 13.2265Z" fill="white"/>
<path d="M7.93382 16.42C7.55414 16.4963 7.1684 16.2834 7.09129 15.9039C6.8988 14.9565 7.01109 13.9849 7.42456 13.0714C7.93315 11.9477 8.87462 10.9623 10.1299 10.2399C11.3852 9.51747 12.8979 9.09046 14.4768 9.01285C15.77 8.94927 17.06 9.12245 18.2374 9.51324C18.6306 9.64374 18.7547 10.1225 18.502 10.4507C18.3244 10.6814 18.0137 10.7594 17.7393 10.6619C16.7577 10.3132 15.671 10.1567 14.5814 10.2103C13.3183 10.2724 12.1081 10.614 11.1039 11.1919C10.0997 11.7698 9.34652 12.5581 8.93965 13.4571C8.6608 14.0732 8.55318 14.7223 8.61853 15.365C8.66663 15.8381 8.40005 16.3263 7.93382 16.42Z" fill="white"/>
<path d="M11 14L12.1226 17.4549H15.7553L12.8164 19.5902L13.9389 23.0451L11 20.9098L8.06107 23.0451L9.18364 19.5902L6.24472 17.4549H9.87743L11 14Z" fill="white"/>
<path d="M22.5981 8.5L22.1449 10.632L24.0325 11.7218L21.8648 11.9496L21.4117 14.0816L20.5251 12.0905L18.3574 12.3183L19.9772 10.8598L19.0907 8.86864L20.9783 9.95846L22.5981 8.5Z" fill="white"/>
</svg>
