<svg width="32" height="32" viewBox="0 0 32 32" fill="none" xmlns="http://www.w3.org/2000/svg">
<path fill-rule="evenodd" clip-rule="evenodd" d="M11.7757 5.83191L8.95541 7.46022L11 8.99999L11.1926 10.3027C10.9967 10.5671 10.8422 10.8668 10.74 11.1937L7.61602 21.1905C7.42818 21.7916 7.43426 22.4366 7.63341 23.034L8.27164 24.9487C8.67998 26.1737 9.8264 27 11.1177 27H21.9117C22.9655 27 23.942 26.4471 24.4841 25.5435L25.2292 24.3018C25.7439 23.444 25.7971 22.386 25.3711 21.4809L20.3501 10.8111C19.8553 9.75967 18.7977 9.08854 17.6356 9.08854H13.6035C13.3595 9.08854 13.1207 9.11802 12.8912 9.17408L11.7757 5.83191Z" fill="white"/>
<rect x="3" y="3" width="26" height="26" rx="2" stroke="white" stroke-width="2"/>
</svg>
