<svg width="32" height="32" viewBox="0 0 32 32" fill="none" xmlns="http://www.w3.org/2000/svg">
<path fill-rule="evenodd" clip-rule="evenodd" d="M16 26C21.5228 26 26 21.5228 26 16C26 10.4772 21.5228 6 16 6C10.4772 6 6 10.4772 6 16C6 21.5228 10.4772 26 16 26ZM16.872 21.602C17.0213 21.546 17.138 21.4573 17.222 21.336C17.2873 21.224 17.32 21.0887 17.32 20.93C17.32 20.9207 17.3153 20.8833 17.306 20.818C17.306 20.7433 17.3013 20.6687 17.292 20.594V20.398C17.3013 20.3327 17.3107 20.3 17.32 20.3C17.5067 20.2627 17.698 20.2253 17.894 20.188C18.09 20.1413 18.2673 20.0947 18.426 20.048C18.5847 19.9733 18.7293 19.9033 18.86 19.838C18.9907 19.7633 19.112 19.6747 19.224 19.572C19.336 19.4787 19.4387 19.376 19.532 19.264C19.6253 19.152 19.7093 19.0307 19.784 18.9C19.9147 18.6013 19.9847 18.2747 19.994 17.92C20.0127 17.388 19.896 16.8933 19.644 16.436C19.4013 15.9693 19.0187 15.6287 18.496 15.414C18.3373 15.3487 18.1507 15.274 17.936 15.19C17.7213 15.0967 17.516 15.022 17.32 14.966V13.034C17.5347 13.0527 17.7447 13.104 17.95 13.188C18.1647 13.2627 18.3513 13.3373 18.51 13.412C18.6313 13.4773 18.7573 13.5473 18.888 13.622C19.0187 13.6873 19.1587 13.7107 19.308 13.692C19.4387 13.6733 19.5507 13.6033 19.644 13.482C19.7373 13.3607 19.7887 13.2347 19.798 13.104C19.8073 12.8613 19.7467 12.6607 19.616 12.502C19.4947 12.334 19.3313 12.1847 19.126 12.054C18.8647 11.9047 18.5707 11.7833 18.244 11.69C17.9267 11.5873 17.6187 11.5033 17.32 11.438C17.32 11.3073 17.3153 11.1907 17.306 11.088C17.2967 10.9947 17.2873 10.9107 17.278 10.836V10.682C17.2127 10.514 17.1147 10.3973 16.984 10.332C16.8533 10.2667 16.704 10.2247 16.536 10.206C16.3493 10.1873 16.2093 10.2107 16.116 10.276C16.0227 10.3413 15.92 10.4533 15.808 10.612C15.7333 10.7147 15.696 10.8407 15.696 10.99V11.396C15.5093 11.4147 15.2947 11.4427 15.052 11.48C14.8093 11.5173 14.6087 11.5733 14.45 11.648C14.282 11.7227 14.1233 11.7973 13.974 11.872C13.834 11.9467 13.708 12.04 13.596 12.152C13.344 12.3573 13.162 12.6 13.05 12.88C12.994 13.02 12.9473 13.174 12.91 13.342C12.8727 13.5007 12.854 13.6733 12.854 13.86C12.854 14.0747 12.8773 14.2707 12.924 14.448C12.9707 14.616 13.0407 14.784 13.134 14.952C13.3207 15.288 13.6193 15.5353 14.03 15.694C14.1047 15.7407 14.1887 15.7827 14.282 15.82C14.3847 15.848 14.4967 15.8853 14.618 15.932C14.7487 15.9693 14.9167 16.0113 15.122 16.058C15.3367 16.1047 15.528 16.156 15.696 16.212V18.648C15.4533 18.6107 15.1873 18.5593 14.898 18.494C14.618 18.4193 14.3707 18.34 14.156 18.256C14.072 18.2187 13.988 18.1673 13.904 18.102C13.82 18.0273 13.736 17.962 13.652 17.906C13.568 17.85 13.4793 17.808 13.386 17.78C13.2927 17.7427 13.1993 17.738 13.106 17.766C12.966 17.794 12.854 17.8547 12.77 17.948C12.6953 18.0413 12.6393 18.1487 12.602 18.27C12.574 18.3913 12.5647 18.5173 12.574 18.648C12.5927 18.7693 12.6253 18.886 12.672 18.998C12.728 19.1473 12.812 19.278 12.924 19.39C13.0453 19.4927 13.176 19.586 13.316 19.67C13.456 19.7447 13.6007 19.8147 13.75 19.88C13.9087 19.936 14.058 19.992 14.198 20.048C14.4127 20.1227 14.66 20.188 14.94 20.244C15.2293 20.2907 15.4813 20.328 15.696 20.356V20.468C15.7053 20.5427 15.71 20.6267 15.71 20.72C15.7193 20.804 15.724 20.888 15.724 20.972C15.7333 21.056 15.7427 21.1073 15.752 21.126C15.7893 21.2847 15.8687 21.406 15.99 21.49C16.1207 21.5833 16.2607 21.6393 16.41 21.658C16.5687 21.6767 16.7227 21.658 16.872 21.602ZM14.8 14.182C14.744 14.0887 14.7113 14.0047 14.702 13.93C14.6553 13.6127 14.73 13.3887 14.926 13.258C15.1313 13.118 15.388 13.0387 15.696 13.02V14.602C15.556 14.5833 15.4253 14.56 15.304 14.532C15.1827 14.4947 15.08 14.448 14.996 14.392C14.9213 14.336 14.856 14.266 14.8 14.182ZM18.3 17.346C18.3747 17.4487 18.4213 17.5607 18.44 17.682C18.4587 17.8407 18.4353 17.9853 18.37 18.116C18.314 18.2467 18.2347 18.3587 18.132 18.452C18.0293 18.536 17.908 18.6013 17.768 18.648C17.628 18.6853 17.488 18.6947 17.348 18.676C17.3573 18.3493 17.3527 18.0227 17.334 17.696C17.3247 17.36 17.32 17.0287 17.32 16.702C17.4413 16.73 17.5627 16.7767 17.684 16.842C17.8147 16.898 17.9313 16.968 18.034 17.052C18.146 17.136 18.2347 17.234 18.3 17.346Z" fill="white"/>
<rect x="3" y="3" width="26" height="26" rx="2" stroke="white" stroke-width="2"/>
</svg>
