<svg width="32" height="32" viewBox="0 0 32 32" fill="none" xmlns="http://www.w3.org/2000/svg">
<rect x="3" y="3" width="26" height="17" rx="2" stroke="white" stroke-width="2"/>
<line y1="-1.5" x2="11.6619" y2="-1.5" transform="matrix(-0.514496 0.857493 -0.803557 -0.595228 10 19)" stroke="white" stroke-width="3"/>
<line y1="-1.5" x2="13.4536" y2="-1.5" transform="matrix(-0.668965 0.743294 -0.668965 -0.743294 13 19)" stroke="white" stroke-width="3"/>
<mask id="path-4-outside-1_307_1665" maskUnits="userSpaceOnUse" x="8.87817" y="3.76596" width="16" height="15" fill="black">
<rect fill="white" x="8.87817" y="3.76596" width="16" height="15"/>
<path fill-rule="evenodd" clip-rule="evenodd" d="M17.9926 8.77659L17.1531 9.61605H18.5668H18.5668H22.1134C22.6031 9.61605 23 10.013 23 10.5027C23 10.9924 22.6031 11.3893 22.1134 11.3893L21.2267 11.3893C21.7164 11.3893 22.1134 11.7863 22.1134 12.276C22.1134 12.7657 21.7164 13.1626 21.2267 13.1626H20.3401C20.8298 13.1626 21.2267 13.5596 21.2267 14.0493C21.2267 14.539 20.8298 14.9359 20.3401 14.9359H19.4534C19.9431 14.9359 20.3401 15.3329 20.3401 15.8226C20.3401 16.3123 19.9431 16.7093 19.4534 16.7093L18.5668 16.7092L15.9068 16.7093L15.9055 16.7092H15.0671L12.4317 17.4154L10.8782 11.6174L13.6692 10.8695C13.6228 10.5679 13.7157 10.249 13.948 10.0167L16.4184 7.5463L16.586 6.64235C16.6938 6.0605 17.2529 5.67625 17.8348 5.7841C18.4166 5.89195 18.8009 6.45106 18.693 7.03291L18.5051 8.04703C18.446 8.36552 18.2518 8.62481 17.9926 8.77659Z"/>
</mask>
<path d="M17.9926 8.77659L17.4873 7.91368L17.3764 7.97862L17.2855 8.06948L17.9926 8.77659ZM17.1531 9.61605L16.446 8.90894L14.7389 10.616H17.1531V9.61605ZM22.1134 11.3893V10.3893H22.1134L22.1134 11.3893ZM19.4534 16.7093L19.4534 17.7093H19.4534V16.7093ZM18.5668 16.7092L18.5668 15.7092H18.5668L18.5668 16.7092ZM15.9068 16.7093L15.9061 17.7093H15.9068L15.9068 16.7093ZM15.9055 16.7092L15.9062 15.7092H15.9055V16.7092ZM15.0671 16.7092V15.7092H14.9354L14.8082 15.7433L15.0671 16.7092ZM12.4317 17.4154L11.4658 17.6742L11.7246 18.6401L12.6906 18.3813L12.4317 17.4154ZM10.8782 11.6174L10.6194 10.6514L9.65343 10.9102L9.91225 11.8762L10.8782 11.6174ZM13.6692 10.8695L13.928 11.8354L14.7939 11.6034L14.6575 10.7174L13.6692 10.8695ZM13.948 10.0167L14.6551 10.7238H14.6551L13.948 10.0167ZM16.4184 7.5463L17.1255 8.25341L17.3451 8.03386L17.4017 7.72856L16.4184 7.5463ZM16.586 6.64235L17.5692 6.8246L16.586 6.64235ZM17.8348 5.7841L17.6525 6.76735L17.8348 5.7841ZM18.693 7.03291L17.7098 6.85066V6.85066L18.693 7.03291ZM18.5051 8.04703L19.4883 8.22928V8.22928L18.5051 8.04703ZM17.2855 8.06948L16.446 8.90894L17.8603 10.3232L18.6997 9.48369L17.2855 8.06948ZM17.1531 10.616H18.5668V8.61605H17.1531V10.616ZM18.5668 10.616H18.5668V8.61605H18.5668V10.616ZM18.5668 10.616H22.1134V8.61605H18.5668V10.616ZM22.1134 10.616C22.0508 10.616 22 10.5653 22 10.5027H24C24 9.46073 23.1553 8.61605 22.1134 8.61605V10.616ZM22 10.5027C22 10.4401 22.0508 10.3893 22.1134 10.3893V12.3893C23.1553 12.3893 24 11.5447 24 10.5027H22ZM22.1134 10.3893L21.2267 10.3893L21.2267 12.3893L22.1134 12.3893L22.1134 10.3893ZM21.2267 12.3893C21.1641 12.3893 21.1134 12.3386 21.1134 12.276H23.1134C23.1134 11.234 22.2687 10.3893 21.2267 10.3893V12.3893ZM21.1134 12.276C21.1134 12.2134 21.1641 12.1626 21.2267 12.1626V14.1626C22.2687 14.1626 23.1134 13.318 23.1134 12.276H21.1134ZM21.2267 12.1626H20.3401V14.1626H21.2267V12.1626ZM20.3401 14.1626C20.2775 14.1626 20.2267 14.1119 20.2267 14.0493H22.2267C22.2267 13.0073 21.382 12.1626 20.3401 12.1626V14.1626ZM20.2267 14.0493C20.2267 13.9867 20.2775 13.9359 20.3401 13.9359V15.9359C21.382 15.9359 22.2267 15.0913 22.2267 14.0493H20.2267ZM20.3401 13.9359H19.4534V15.9359H20.3401V13.9359ZM19.4534 15.9359C19.3908 15.9359 19.3401 15.8852 19.3401 15.8226H21.3401C21.3401 14.7806 20.4954 13.9359 19.4534 13.9359V15.9359ZM19.3401 15.8226C19.3401 15.76 19.3908 15.7093 19.4534 15.7093V17.7093C20.4954 17.7093 21.3401 16.8646 21.3401 15.8226H19.3401ZM19.4534 15.7093L18.5668 15.7092L18.5668 17.7092L19.4534 17.7093L19.4534 15.7093ZM18.5668 15.7092L15.9068 15.7093L15.9068 17.7093L18.5668 17.7092L18.5668 15.7092ZM15.9076 15.7093L15.9062 15.7092L15.9048 17.7092L15.9061 17.7093L15.9076 15.7093ZM15.9055 15.7092H15.0671V17.7092H15.9055V15.7092ZM14.8082 15.7433L12.1729 16.4495L12.6906 18.3813L15.3259 17.6752L14.8082 15.7433ZM13.3977 17.1566L11.8441 11.3585L9.91225 11.8762L11.4658 17.6742L13.3977 17.1566ZM11.137 12.5833L13.928 11.8354L13.4104 9.90358L10.6194 10.6514L11.137 12.5833ZM14.6575 10.7174C14.6576 10.7176 14.6577 10.7181 14.6572 10.7196C14.657 10.7205 14.6565 10.7216 14.6558 10.7228C14.655 10.724 14.6545 10.7244 14.6551 10.7238L13.2409 9.30961C12.7738 9.77671 12.588 10.4188 12.6808 11.0217L14.6575 10.7174ZM14.6551 10.7238L17.1255 8.25341L15.7113 6.8392L13.2409 9.30961L14.6551 10.7238ZM17.4017 7.72856L17.5692 6.8246L15.6027 6.46009L15.4352 7.36405L17.4017 7.72856ZM17.5692 6.8246C17.5764 6.78579 17.6137 6.76015 17.6525 6.76735L18.017 4.80084C16.8922 4.59234 15.8112 5.33521 15.6027 6.46009L17.5692 6.8246ZM17.6525 6.76735C17.6913 6.77454 17.717 6.81184 17.7098 6.85066L19.6763 7.21516C19.8848 6.09028 19.1419 5.00935 18.017 4.80084L17.6525 6.76735ZM17.7098 6.85066L17.5218 7.86477L19.4883 8.22928L19.6763 7.21516L17.7098 6.85066ZM17.5218 7.86477C17.5195 7.8772 17.5153 7.88586 17.5103 7.89288C17.5047 7.90068 17.4969 7.90804 17.4873 7.91368L18.498 9.6395C18.997 9.34723 19.3741 8.84522 19.4883 8.22928L17.5218 7.86477Z" fill="white" mask="url(#path-4-outside-1_307_1665)"/>
</svg>
