<svg width="32" height="32" viewBox="0 0 32 32" fill="none" xmlns="http://www.w3.org/2000/svg">
<rect x="3" y="3" width="26" height="17" rx="2" stroke="white" stroke-width="2"/>
<line y1="-1.5" x2="11.6619" y2="-1.5" transform="matrix(-0.514496 0.857493 -0.803557 -0.595228 10 19)" stroke="white" stroke-width="3"/>
<line y1="-1.5" x2="13.4536" y2="-1.5" transform="matrix(-0.668965 0.743294 -0.668965 -0.743294 13 19)" stroke="white" stroke-width="3"/>
<path d="M15.758 13.346L15.24 11.61C15.4453 11.5633 15.6507 11.5073 15.856 11.442C16.0707 11.3767 16.276 11.302 16.472 11.218C16.668 11.134 16.8407 11.036 16.99 10.924C17.1487 10.812 17.27 10.6813 17.354 10.532C17.4473 10.3827 17.494 10.2193 17.494 10.042C17.494 9.92067 17.466 9.82267 17.41 9.748C17.3633 9.67333 17.2933 9.61733 17.2 9.58C17.1067 9.53333 16.9947 9.51 16.864 9.51C16.6027 9.51 16.332 9.60333 16.052 9.79C15.7813 9.97667 15.5107 10.3267 15.24 10.84L13.35 9.02C13.7887 8.348 14.3067 7.83 14.904 7.466C15.5107 7.102 16.1453 6.92 16.808 6.92C17.4427 6.92 18.0167 7.05067 18.53 7.312C19.0433 7.564 19.4493 7.914 19.748 8.362C20.0467 8.80067 20.196 9.29533 20.196 9.846C20.196 10.2193 20.1167 10.5927 19.958 10.966C19.8087 11.33 19.594 11.6707 19.314 11.988C19.0433 12.3053 18.7213 12.5807 18.348 12.814C17.9747 13.0473 17.564 13.2247 17.116 13.346H17.06H15.758ZM15.24 15.754C15.24 15.3433 15.366 15.0073 15.618 14.746C15.8793 14.4847 16.2153 14.354 16.626 14.354C17.0647 14.354 17.4053 14.4753 17.648 14.718C17.8907 14.9607 18.012 15.306 18.012 15.754C18.012 16.1647 17.8813 16.5007 17.62 16.762C17.368 17.0233 17.0367 17.154 16.626 17.154C16.1873 17.154 15.8467 17.0327 15.604 16.79C15.3613 16.5473 15.24 16.202 15.24 15.754Z" fill="white"/>
</svg>
