<svg width="32" height="32" viewBox="0 0 32 32" fill="none" xmlns="http://www.w3.org/2000/svg">
<g clip-path="url(#clip0_48_320)">
<rect x="9" y="23" width="4" height="4" rx="2" stroke="white" stroke-width="2"/>
<rect x="4" y="26" width="3" height="3" rx="1.5" stroke="white" stroke-width="2"/>
<mask id="path-3-outside-1_48_320" maskUnits="userSpaceOnUse" x="9.87814" y="6.41537" width="16" height="15" fill="black">
<rect fill="white" x="9.87814" y="6.41537" width="16" height="15"/>
<path fill-rule="evenodd" clip-rule="evenodd" d="M18.9926 16.4047L18.1531 15.5653H19.5667H19.5668H23.1133C23.603 15.5653 24 15.1683 24 14.6786C24 14.189 23.603 13.792 23.1133 13.792L22.2267 13.792C22.7164 13.792 23.1134 13.395 23.1134 12.9053C23.1134 12.4157 22.7164 12.0187 22.2267 12.0187H21.34C21.8297 12.0187 22.2267 11.6217 22.2267 11.132C22.2267 10.6424 21.8297 10.2454 21.34 10.2454H20.4547C20.9438 10.2447 21.3401 9.84798 21.3401 9.35874C21.3401 8.86905 20.9431 8.47209 20.4534 8.47209H19.5668H16.9068H16.067L13.4317 7.76596L11.8781 13.564L14.6692 14.3118C14.6227 14.6134 14.7157 14.9323 14.948 15.1646L17.4184 17.635L17.5859 18.539C17.6938 19.1208 18.2529 19.5051 18.8348 19.3972C19.4166 19.2894 19.8009 18.7303 19.693 18.1484L19.505 17.1343C19.446 16.8158 19.2517 16.5565 18.9926 16.4047Z"/>
</mask>
<path d="M18.9926 16.4047L18.4872 17.2677L18.3763 17.2027L18.2855 17.1119L18.9926 16.4047ZM18.1531 15.5653L17.446 16.2724L15.7389 14.5653H18.1531V15.5653ZM23.1133 13.792V14.792H23.1133L23.1133 13.792ZM20.4547 10.2454V11.2454L20.4533 9.24539L20.4547 10.2454ZM16.067 8.47209V9.47209H15.9354L15.8082 9.43801L16.067 8.47209ZM13.4317 7.76596L12.4658 7.50714L12.7246 6.54121L13.6905 6.80003L13.4317 7.76596ZM11.8781 13.564L11.6193 14.5299L10.6534 14.2711L10.9122 13.3052L11.8781 13.564ZM14.6692 14.3118L14.928 13.3459L15.7939 13.5779L15.6575 14.464L14.6692 14.3118ZM14.948 15.1646L15.6551 14.4575L15.6551 14.4575L14.948 15.1646ZM17.4184 17.635L18.1255 16.9279L18.345 17.1475L18.4016 17.4528L17.4184 17.635ZM17.5859 18.539L18.5692 18.3567L17.5859 18.539ZM18.8348 19.3972L19.017 20.3805V20.3805L18.8348 19.3972ZM19.693 18.1484L18.7098 18.3307V18.3307L19.693 18.1484ZM19.505 17.1343L20.4883 16.9521V16.9521L19.505 17.1343ZM18.2855 17.1119L17.446 16.2724L18.8602 14.8582L19.6997 15.6976L18.2855 17.1119ZM18.1531 14.5653H19.5667V16.5653H18.1531V14.5653ZM19.5667 14.5653H19.5668V16.5653H19.5667V14.5653ZM19.5668 14.5653H23.1133V16.5653H19.5668V14.5653ZM23.1133 14.5653C23.0507 14.5653 23 14.616 23 14.6786H25C25 15.7206 24.1553 16.5653 23.1133 16.5653V14.5653ZM23 14.6786C23 14.7412 23.0507 14.792 23.1133 14.792V12.792C24.1553 12.792 25 13.6367 25 14.6786H23ZM23.1133 14.792L22.2267 14.792L22.2267 12.792L23.1133 12.792L23.1133 14.792ZM22.2267 12.792C22.1641 12.792 22.1134 12.8427 22.1134 12.9053H24.1134C24.1134 13.9473 23.2687 14.792 22.2267 14.792V12.792ZM22.1134 12.9053C22.1134 12.9679 22.1641 13.0187 22.2267 13.0187V11.0187C23.2687 11.0187 24.1134 11.8634 24.1134 12.9053H22.1134ZM22.2267 13.0187H21.34V11.0187H22.2267V13.0187ZM21.34 11.0187C21.2774 11.0187 21.2267 11.0694 21.2267 11.132H23.2267C23.2267 12.174 22.382 13.0187 21.34 13.0187V11.0187ZM21.2267 11.132C21.2267 11.1946 21.2774 11.2454 21.34 11.2454V9.24539C22.382 9.24539 23.2267 10.0901 23.2267 11.132H21.2267ZM21.34 11.2454H20.4547V9.24539H21.34V11.2454ZM20.4533 9.24539C20.3907 9.24548 20.3401 9.29618 20.3401 9.35874H22.3401C22.3401 10.3998 21.4969 11.2439 20.4562 11.2454L20.4533 9.24539ZM20.3401 9.35874C20.3401 9.42134 20.3908 9.47209 20.4534 9.47209V7.47209C21.4954 7.47209 22.3401 8.31677 22.3401 9.35874H20.3401ZM20.4534 9.47209H19.5668V7.47209H20.4534V9.47209ZM19.5668 9.47209H16.9068V7.47209H19.5668V9.47209ZM16.9068 9.47209H16.067V7.47209H16.9068V9.47209ZM15.8082 9.43801L13.1729 8.73188L13.6905 6.80003L16.3258 7.50616L15.8082 9.43801ZM14.3976 8.02478L12.8441 13.8228L10.9122 13.3052L12.4658 7.50714L14.3976 8.02478ZM12.137 12.5981L14.928 13.3459L14.4103 15.2778L11.6193 14.5299L12.137 12.5981ZM15.6575 14.464C15.6576 14.4637 15.6577 14.4632 15.6572 14.4618C15.6569 14.4609 15.6564 14.4597 15.6557 14.4586C15.655 14.4573 15.6545 14.4569 15.6551 14.4575L14.2409 15.8717C13.7738 15.4046 13.588 14.7626 13.6808 14.1597L15.6575 14.464ZM15.6551 14.4575L18.1255 16.9279L16.7113 18.3421L14.2409 15.8717L15.6551 14.4575ZM18.4016 17.4528L18.5692 18.3567L16.6027 18.7212L16.4351 17.8173L18.4016 17.4528ZM18.5692 18.3567C18.5764 18.3955 18.6137 18.4212 18.6525 18.414L19.017 20.3805C17.8921 20.589 16.8112 19.8461 16.6027 18.7212L18.5692 18.3567ZM18.6525 18.414C18.6913 18.4068 18.7169 18.3695 18.7098 18.3307L20.6763 17.9662C20.8848 19.0911 20.1419 20.172 19.017 20.3805L18.6525 18.414ZM18.7098 18.3307L18.5218 17.3166L20.4883 16.9521L20.6763 17.9662L18.7098 18.3307ZM18.5218 17.3166C18.5195 17.3041 18.5153 17.2955 18.5103 17.2885C18.5047 17.2807 18.4968 17.2733 18.4872 17.2677L19.4979 15.5418C19.997 15.8341 20.3741 16.3361 20.4883 16.9521L18.5218 17.3166Z" fill="white" mask="url(#path-3-outside-1_48_320)"/>
<mask id="path-5-outside-2_48_320" maskUnits="userSpaceOnUse" x="0" y="-0.241394" width="32" height="26" fill="black">
<rect fill="white" y="-0.241394" width="32" height="26"/>
<path fill-rule="evenodd" clip-rule="evenodd" d="M6.66667 4.75861C6.66667 3.10175 8.00981 1.75861 9.66667 1.75861H13C14.6569 1.75861 16 3.10175 16 4.75861V5.50708H17.2083C17.4468 4.08873 18.6805 3.0081 20.1667 3.0081H23.5C25.1569 3.0081 26.5 4.35124 26.5 6.0081V9.25556H27C28.6569 9.25556 30 10.5987 30 12.2556V16.2515C30 17.9084 28.6569 19.2515 27 19.2515H25.3333V20C25.3333 21.6568 23.9902 23 22.3333 23H19C17.3431 23 16 21.6568 16 20V19.8758C15.493 20.2678 14.8571 20.501 14.1667 20.501H10.8333C9.17648 20.501 7.83333 19.1579 7.83333 17.501V16.7525H5C3.34315 16.7525 2 15.4094 2 13.7525V9.75658C2 8.09972 3.34315 6.75658 5 6.75658H6.66667V4.75861Z"/>
</mask>
<path d="M16 5.50708H14V7.50708H16V5.50708ZM17.2083 5.50708V7.50708H18.9001L19.1806 5.83867L17.2083 5.50708ZM26.5 9.25556H24.5V11.2556H26.5V9.25556ZM25.3333 19.2515V17.2515H23.3333V19.2515H25.3333ZM16 19.8758H18V15.8015L14.7767 18.2936L16 19.8758ZM7.83333 16.7525H9.83333V14.7525H7.83333V16.7525ZM6.66667 6.75658V8.75658H8.66667V6.75658H6.66667ZM9.66667 -0.241394C6.90524 -0.241394 4.66667 1.99718 4.66667 4.75861H8.66667C8.66667 4.20632 9.11438 3.75861 9.66667 3.75861V-0.241394ZM13 -0.241394H9.66667V3.75861H13V-0.241394ZM18 4.75861C18 1.99718 15.7614 -0.241394 13 -0.241394V3.75861C13.5523 3.75861 14 4.20632 14 4.75861H18ZM18 5.50708V4.75861H14V5.50708H18ZM17.2083 3.50708H16V7.50708H17.2083V3.50708ZM19.1806 5.83867C19.2599 5.3674 19.6733 5.0081 20.1667 5.0081V1.0081C17.6878 1.0081 15.6337 2.81005 15.236 5.17549L19.1806 5.83867ZM20.1667 5.0081H23.5V1.0081H20.1667V5.0081ZM23.5 5.0081C24.0523 5.0081 24.5 5.45581 24.5 6.0081H28.5C28.5 3.24667 26.2614 1.0081 23.5 1.0081V5.0081ZM24.5 6.0081V9.25556H28.5V6.0081H24.5ZM27 7.25556H26.5V11.2556H27V7.25556ZM32 12.2556C32 9.49414 29.7614 7.25556 27 7.25556V11.2556C27.5523 11.2556 28 11.7033 28 12.2556H32ZM32 16.2515V12.2556H28V16.2515H32ZM27 21.2515C29.7614 21.2515 32 19.0129 32 16.2515H28C28 16.8038 27.5523 17.2515 27 17.2515V21.2515ZM25.3333 21.2515H27V17.2515H25.3333V21.2515ZM27.3333 20V19.2515H23.3333V20H27.3333ZM22.3333 25C25.0948 25 27.3333 22.7614 27.3333 20H23.3333C23.3333 20.5523 22.8856 21 22.3333 21V25ZM19 25H22.3333V21H19V25ZM14 20C14 22.7614 16.2386 25 19 25V21C18.4477 21 18 20.5523 18 20H14ZM14 19.8758V20H18V19.8758H14ZM14.1667 22.501C15.3152 22.501 16.3784 22.1113 17.2233 21.4581L14.7767 18.2936C14.6077 18.4243 14.399 18.501 14.1667 18.501V22.501ZM10.8333 22.501H14.1667V18.501H10.8333V22.501ZM5.83333 17.501C5.83333 20.2624 8.07191 22.501 10.8333 22.501V18.501C10.2811 18.501 9.83333 18.0533 9.83333 17.501H5.83333ZM5.83333 16.7525V17.501H9.83333V16.7525H5.83333ZM5 18.7525H7.83333V14.7525H5V18.7525ZM0 13.7525C0 16.5139 2.23858 18.7525 5 18.7525V14.7525C4.44772 14.7525 4 14.3048 4 13.7525H0ZM0 9.75658V13.7525H4V9.75658H0ZM5 4.75658C2.23858 4.75658 0 6.99516 0 9.75658H4C4 9.20429 4.44772 8.75658 5 8.75658V4.75658ZM6.66667 4.75658H5V8.75658H6.66667V4.75658ZM4.66667 4.75861V6.75658H8.66667V4.75861H4.66667Z" fill="white" mask="url(#path-5-outside-2_48_320)"/>
</g>
<defs>
<clipPath id="clip0_48_320">
<rect width="32" height="32" fill="white"/>
</clipPath>
</defs>
</svg>
