<svg width="32" height="32" viewBox="0 0 32 32" fill="none" xmlns="http://www.w3.org/2000/svg">
<rect x="2" y="3" width="28" height="17" rx="2" stroke="white" stroke-width="2"/>
<line y1="-1.5" x2="11.6619" y2="-1.5" transform="matrix(-0.514496 0.857493 -0.803557 -0.595228 10 19)" stroke="white" stroke-width="3"/>
<line y1="-1.5" x2="13.4536" y2="-1.5" transform="matrix(-0.668965 0.743294 -0.668965 -0.743294 13 19)" stroke="white" stroke-width="3"/>
<path d="M8 9.82352C8 9.27123 8.44772 8.82352 9 8.82352H11.8235V13.4118H9C8.44771 13.4118 8 12.964 8 12.4118V9.82352Z" fill="white"/>
<path d="M17.5588 9.58823C17.8099 9.58823 18.0585 9.63768 18.2904 9.73375C18.5223 9.82983 18.7331 9.97065 18.9106 10.1482C19.0881 10.3257 19.229 10.5364 19.325 10.7684C19.4211 11.0003 19.4706 11.2489 19.4706 11.5C19.4706 11.751 19.4211 11.9996 19.325 12.2316C19.229 12.4635 19.0881 12.6743 18.9106 12.8518C18.7331 13.0293 18.5223 13.1702 18.2904 13.2662C18.0585 13.3623 17.8099 13.4118 17.5588 13.4118L17.5588 12.2647C17.6592 12.2647 17.7587 12.2449 17.8514 12.2065C17.9442 12.1681 18.0285 12.1117 18.0995 12.0407C18.1705 11.9697 18.2269 11.8854 18.2653 11.7926C18.3037 11.6999 18.3235 11.6004 18.3235 11.5C18.3235 11.3996 18.3037 11.3001 18.2653 11.2074C18.2269 11.1146 18.1705 11.0303 18.0995 10.9593C18.0285 10.8883 17.9442 10.8319 17.8514 10.7935C17.7587 10.7551 17.6592 10.7353 17.5588 10.7353V9.58823Z" fill="white"/>
<path d="M18.6474 7.43744C19.5417 7.67707 20.332 8.2051 20.8956 8.93963C21.4592 9.67416 21.7647 10.5742 21.7647 11.5C21.7647 12.4259 21.4592 13.3259 20.8956 14.0604C20.332 14.7949 19.5417 15.323 18.6474 15.5626L18.3208 14.3438C18.9469 14.1761 19.5 13.8064 19.8946 13.2923C20.2891 12.7781 20.503 12.1481 20.503 11.5C20.503 10.8519 20.2891 10.2219 19.8946 9.70775C19.5 9.19357 18.9469 8.82395 18.3208 8.65621L18.6474 7.43744Z" fill="white"/>
<path d="M19.2412 5.22148C20.6233 5.59182 21.8446 6.40786 22.7156 7.54305C23.5867 8.67824 24.0588 10.0691 24.0588 11.5C24.0588 12.9309 23.5867 14.3218 22.7156 15.4569C21.8446 16.5921 20.6233 17.4082 19.2412 17.7785L18.9047 16.5228C20.0104 16.2265 20.9874 15.5737 21.6843 14.6656C22.3811 13.7574 22.7588 12.6447 22.7588 11.5C22.7588 10.3553 22.3811 9.24259 21.6843 8.33444C20.9874 7.42629 20.0104 6.77346 18.9047 6.47719L19.2412 5.22148Z" fill="white"/>
<path fill-rule="evenodd" clip-rule="evenodd" d="M16.4118 5L11.8235 8.82353V13.4118L16.4118 18V5ZM14.8824 8.05882C14.46 8.05882 14.1176 8.40119 14.1176 8.82353V9.58824C14.1176 10.0106 14.46 10.3529 14.8824 10.3529C15.3047 10.3529 15.6471 10.0106 15.6471 9.58824V8.82353C15.6471 8.40119 15.3047 8.05882 14.8824 8.05882Z" fill="white"/>
</svg>
