<svg width="32" height="32" viewBox="0 0 32 32" fill="none" xmlns="http://www.w3.org/2000/svg">
<rect x="3" y="3" width="26" height="26" rx="2" stroke="white" stroke-width="2"/>
<line x1="16" y1="4" x2="16" y2="28" stroke="white" stroke-width="2"/>
<path d="M5.8 14L8.61 7H10.31L13.1 14H10.96L9.84 10.94C9.76667 10.7333 9.70333 10.5567 9.65 10.41C9.59667 10.2633 9.55 10.1267 9.51 10C9.47 9.86667 9.43 9.72667 9.39 9.58C9.35 9.42667 9.31 9.24667 9.27 9.04H9.61C9.57 9.24667 9.53 9.42667 9.49 9.58C9.45 9.72667 9.40667 9.86667 9.36 10C9.32 10.1267 9.27 10.2633 9.21 10.41C9.15667 10.5567 9.09333 10.7333 9.02 10.94L7.9 14H5.8ZM7.2 12.96L7.83 11.49H11.08L11.65 12.96H7.2Z" fill="white"/>
<path d="M19.8 14V7H23.02C23.5267 7 23.9533 7.07 24.3 7.21C24.6533 7.35 24.92 7.54667 25.1 7.8C25.2867 8.05333 25.38 8.35 25.38 8.69C25.38 9.11 25.2833 9.45667 25.09 9.73C24.9033 10.0033 24.6267 10.1867 24.26 10.28L24.23 10.09C24.5367 10.1633 24.8033 10.2833 25.03 10.45C25.2567 10.61 25.4333 10.8067 25.56 11.04C25.6867 11.2733 25.75 11.54 25.75 11.84C25.75 12.2067 25.6833 12.5267 25.55 12.8C25.4167 13.0667 25.2267 13.29 24.98 13.47C24.74 13.65 24.46 13.7833 24.14 13.87C23.8267 13.9567 23.4867 14 23.12 14H19.8ZM21.8 12.3H23.06C23.1867 12.3 23.2933 12.28 23.38 12.24C23.4667 12.1933 23.5333 12.1267 23.58 12.04C23.6267 11.9467 23.65 11.8367 23.65 11.71C23.65 11.5967 23.6233 11.5033 23.57 11.43C23.5233 11.35 23.4533 11.29 23.36 11.25C23.2667 11.2033 23.15 11.18 23.01 11.18H21.8V12.3ZM21.8 9.74H22.65C22.8033 9.74 22.9267 9.72 23.02 9.68C23.12 9.64 23.19 9.58333 23.23 9.51C23.2767 9.43 23.3 9.33333 23.3 9.22C23.3 9.06667 23.2467 8.94333 23.14 8.85C23.04 8.75 22.87 8.7 22.63 8.7H21.8V9.74Z" fill="white"/>
<path fill-rule="evenodd" clip-rule="evenodd" d="M18.5004 24.9348C18.2232 24.9565 18.016 25.1989 18.0377 25.4761C18.0595 25.7534 18.3018 25.9605 18.5791 25.9388L20.0016 25.8274C20.1089 26.1216 20.3532 26.3606 20.6787 26.4478L22.3711 26.9013C22.5805 26.9574 22.7921 26.9423 22.9803 26.8709L23.5691 27.465L27.6446 25.7144L26.4696 23.1597C26.4778 23.0266 26.4483 22.8897 26.3766 22.7656L24.9713 20.3314C24.7772 19.9953 24.3475 19.8802 24.0114 20.0742C23.6753 20.2682 23.5601 20.698 23.7542 21.0341L23.5372 20.6582C23.3146 20.2727 22.8216 20.1406 22.4361 20.3632C22.0506 20.5858 21.9185 21.0787 22.1411 21.4642C21.9185 21.0787 21.4256 20.9466 21.0401 21.1692C20.6547 21.3917 20.5226 21.8843 20.7447 22.2697L18.73 18.7801C18.5816 18.5231 18.253 18.435 17.9959 18.5834C17.7389 18.7318 17.6509 19.0604 17.7993 19.3174L20.486 23.971C20.5493 24.0806 20.6454 24.1595 20.7548 24.2024L20.9226 24.4931C20.6374 24.4968 20.369 24.624 20.1851 24.8356C20.1281 24.8189 20.0672 24.8121 20.0045 24.817L18.5004 24.9348Z" fill="white"/>
<path d="M18.0377 25.4761L18.5362 25.4371L18.5362 25.4371L18.0377 25.4761ZM18.5004 24.9348L18.5395 25.4333L18.5395 25.4333L18.5004 24.9348ZM18.5791 25.9388L18.6181 26.4373L18.6181 26.4373L18.5791 25.9388ZM20.0016 25.8274L20.4713 25.656L20.3412 25.2992L19.9626 25.3289L20.0016 25.8274ZM20.6787 26.4478L20.5493 26.9308L20.6787 26.4478ZM22.3711 26.9013L22.5005 26.4184L22.3711 26.9013ZM22.9803 26.8709L23.3354 26.519L23.1067 26.2882L22.803 26.4034L22.9803 26.8709ZM23.5691 27.465L23.214 27.817L23.4537 28.0588L23.7665 27.9244L23.5691 27.465ZM27.6446 25.7144L27.842 26.1738L28.3132 25.9714L28.0989 25.5055L27.6446 25.7144ZM26.4696 23.1597L25.9705 23.1288L25.9627 23.2544L26.0153 23.3687L26.4696 23.1597ZM23.5372 20.6582L23.1042 20.9082L23.1042 20.9082L23.5372 20.6582ZM20.7447 22.2697L20.3117 22.5197L21.1779 22.02L20.7447 22.2697ZM18.73 18.7801L19.163 18.5301L18.73 18.7801ZM17.7993 19.3174L17.3663 19.5674L17.7993 19.3174ZM20.486 23.971L20.919 23.721L20.486 23.971ZM20.7548 24.2024L21.1878 23.9524L21.1003 23.8009L20.9374 23.737L20.7548 24.2024ZM20.9226 24.4931L20.9291 24.993L21.7822 24.9819L21.3556 24.2431L20.9226 24.4931ZM20.1851 24.8356L20.0447 25.3155L20.3522 25.4054L20.5624 25.1636L20.1851 24.8356ZM20.0045 24.817L19.9654 24.3185L19.9654 24.3185L20.0045 24.817ZM18.5362 25.4371C18.5362 25.4366 18.5362 25.4363 18.5362 25.4361C18.5362 25.436 18.5362 25.4359 18.5362 25.4359C18.5362 25.4358 18.5362 25.4358 18.5362 25.4359C18.5362 25.4359 18.5362 25.4359 18.5362 25.4359C18.5362 25.4358 18.5364 25.4353 18.5371 25.4345C18.5377 25.4338 18.5382 25.4335 18.5383 25.4335C18.5383 25.4335 18.5383 25.4335 18.5382 25.4335C18.5382 25.4335 18.5382 25.4335 18.5382 25.4335C18.5382 25.4335 18.5383 25.4334 18.5385 25.4334C18.5387 25.4334 18.539 25.4333 18.5395 25.4333L18.4614 24.4364C17.9088 24.4796 17.496 24.9626 17.5393 25.5152L18.5362 25.4371ZM18.54 25.4403C18.5395 25.4404 18.5392 25.4404 18.539 25.4404C18.5389 25.4404 18.5388 25.4404 18.5388 25.4404C18.5387 25.4404 18.5388 25.4404 18.5388 25.4404C18.5388 25.4404 18.5388 25.4404 18.5388 25.4404C18.5387 25.4403 18.5382 25.4401 18.5374 25.4395C18.5367 25.4389 18.5364 25.4384 18.5364 25.4383C18.5364 25.4383 18.5364 25.4383 18.5364 25.4383C18.5364 25.4383 18.5364 25.4383 18.5364 25.4383C18.5364 25.4383 18.5364 25.4382 18.5363 25.4381C18.5363 25.4379 18.5363 25.4376 18.5362 25.4371L17.5393 25.5152C17.5826 26.0677 18.0656 26.4806 18.6181 26.4373L18.54 25.4403ZM19.9626 25.3289L18.54 25.4403L18.6181 26.4373L20.0407 26.3258L19.9626 25.3289ZM20.8081 25.9649C20.6467 25.9216 20.5252 25.8037 20.4713 25.656L19.5319 25.9987C19.6927 26.4395 20.0597 26.7996 20.5493 26.9308L20.8081 25.9649ZM22.5005 26.4184L20.8081 25.9649L20.5493 26.9308L22.2417 27.3843L22.5005 26.4184ZM22.803 26.4034C22.7096 26.4389 22.6052 26.4464 22.5005 26.4184L22.2417 27.3843C22.5557 27.4684 22.8746 27.4458 23.1577 27.3384L22.803 26.4034ZM23.9243 27.113L23.3354 26.519L22.6252 27.2229L23.214 27.817L23.9243 27.113ZM27.4473 25.255L23.3718 27.0056L23.7665 27.9244L27.842 26.1738L27.4473 25.255ZM26.0153 23.3687L27.1904 25.9234L28.0989 25.5055L26.9238 22.9508L26.0153 23.3687ZM25.9436 23.0156C25.9647 23.052 25.9729 23.0908 25.9705 23.1288L26.9686 23.1906C26.9827 22.9625 26.932 22.7274 26.8097 22.5156L25.9436 23.0156ZM24.5383 20.5814L25.9436 23.0156L26.8097 22.5156L25.4043 20.0814L24.5383 20.5814ZM24.2614 20.5072C24.3583 20.4512 24.4823 20.4845 24.5383 20.5814L25.4043 20.0814C25.0722 19.5062 24.3366 19.3091 23.7614 19.6412L24.2614 20.5072ZM24.1872 20.7841C24.1312 20.6871 24.1644 20.5632 24.2614 20.5072L23.7614 19.6412C23.1861 19.9733 22.9891 20.7088 23.3212 21.2841L24.1872 20.7841ZM23.1042 20.9082L23.3212 21.2841L24.1872 20.7841L23.9702 20.4082L23.1042 20.9082ZM22.6861 20.7962C22.8325 20.7117 23.0197 20.7618 23.1042 20.9082L23.9702 20.4082C23.6095 19.7836 22.8108 19.5695 22.1861 19.9302L22.6861 20.7962ZM22.5741 21.2142C22.4896 21.0679 22.5398 20.8807 22.6861 20.7962L22.1861 19.9302C21.5615 20.2908 21.3474 21.0896 21.7081 21.7142L22.5741 21.2142ZM21.2901 21.6022C21.4364 21.5177 21.6236 21.5679 21.7081 21.7142L22.5741 21.2142C22.2135 20.5896 21.4147 20.3756 20.7901 20.7362L21.2901 21.6022ZM21.1779 22.02C21.0936 21.8737 21.1438 21.6867 21.2901 21.6022L20.7901 20.7362C20.1657 21.0967 19.9516 21.8948 20.3115 22.5194L21.1779 22.02ZM18.297 19.0301L20.3117 22.5197L21.1777 22.0197L19.163 18.5301L18.297 19.0301ZM18.2459 19.0164C18.2638 19.0061 18.2867 19.0122 18.297 19.0301L19.163 18.5301C18.8765 18.0339 18.2421 17.8639 17.7459 18.1504L18.2459 19.0164ZM18.2323 19.0674C18.222 19.0496 18.2281 19.0267 18.2459 19.0164L17.7459 18.1504C17.2498 18.4368 17.0798 19.0713 17.3663 19.5674L18.2323 19.0674ZM20.919 23.721L18.2323 19.0674L17.3663 19.5674L20.053 24.221L20.919 23.721ZM20.9374 23.737C20.9333 23.7354 20.9299 23.7333 20.9271 23.7309C20.9244 23.7286 20.9217 23.7256 20.919 23.721L20.053 24.221C20.175 24.4322 20.3612 24.5851 20.5722 24.6679L20.9374 23.737ZM21.3556 24.2431L21.1878 23.9524L20.3218 24.4524L20.4896 24.7431L21.3556 24.2431ZM20.5624 25.1636C20.6542 25.058 20.7884 24.9949 20.9291 24.993L20.9161 23.9931C20.4865 23.9987 20.0838 24.1899 19.8077 24.5075L20.5624 25.1636ZM20.0435 25.3155C20.0449 25.3154 20.045 25.3155 20.0447 25.3155L20.3254 24.3556C20.2111 24.3222 20.0895 24.3088 19.9654 24.3185L20.0435 25.3155ZM18.5395 25.4333L20.0435 25.3155L19.9654 24.3185L18.4614 24.4364L18.5395 25.4333Z" fill="white"/>
</svg>
