<svg width="32" height="32" viewBox="0 0 32 32" fill="none" xmlns="http://www.w3.org/2000/svg">
<g clip-path="url(#clip0_14_528)">
<rect x="9" y="23" width="4" height="4" rx="2" stroke="white" stroke-width="2"/>
<rect x="4" y="26" width="3" height="3" rx="1.5" stroke="white" stroke-width="2"/>
<mask id="path-3-outside-1_14_528" maskUnits="userSpaceOnUse" x="0.749822" y="-6.25016" width="32.7846" height="32.7846" fill="black">
<rect fill="white" x="0.749822" y="-6.25016" width="32.7846" height="32.7846"/>
<path fill-rule="evenodd" clip-rule="evenodd" d="M6.39854 8.75058C4.78771 11.5406 5.74365 15.1082 8.53369 16.7191L10.6987 17.9691L20.8024 23.8024L26.6357 13.6988L27.8857 11.5337C29.4965 8.74367 28.5406 5.17605 25.7506 3.56522C22.9605 1.95439 19.3929 2.91033 17.7821 5.70037L16.5321 7.86544L14.367 6.61543C11.577 5.0046 8.00937 5.96054 6.39854 8.75058Z"/>
</mask>
<path d="M10.6987 17.9691L9.69875 19.7011L10.6987 17.9691ZM20.8024 23.8024L19.8024 25.5344L21.5344 26.5344L22.5344 24.8024L20.8024 23.8024ZM26.6357 13.6988L28.3678 14.6988L26.6357 13.6988ZM16.5321 7.86544L15.5321 9.59749L17.2641 10.5975L18.2641 8.86544L16.5321 7.86544ZM9.53369 14.987C7.70023 13.9285 7.07204 11.584 8.13059 9.75058L4.66649 7.75058C2.50337 11.4972 3.78706 16.288 7.53369 18.4511L9.53369 14.987ZM11.6987 16.237L9.53369 14.987L7.53369 18.4511L9.69875 19.7011L11.6987 16.237ZM21.8024 22.0703L11.6987 16.237L9.69875 19.7011L19.8024 25.5344L21.8024 22.0703ZM24.9037 12.6988L19.0703 22.8024L22.5344 24.8024L28.3678 14.6988L24.9037 12.6988ZM26.1537 10.5337L24.9037 12.6988L28.3678 14.6988L29.6178 12.5337L26.1537 10.5337ZM24.7506 5.29727C26.584 6.35582 27.2122 8.70025 26.1537 10.5337L29.6178 12.5337C31.7809 8.78708 30.4972 3.99629 26.7506 1.83317L24.7506 5.29727ZM19.5141 6.70037C20.5727 4.86692 22.9171 4.23873 24.7506 5.29727L26.7506 1.83317C23.0039 -0.329941 18.2131 0.953745 16.05 4.70037L19.5141 6.70037ZM18.2641 8.86544L19.5141 6.70037L16.05 4.70037L14.8 6.86544L18.2641 8.86544ZM13.367 8.34749L15.5321 9.59749L17.5321 6.13338L15.367 4.88338L13.367 8.34749ZM8.13059 9.75058C9.18914 7.91713 11.5336 7.28894 13.367 8.34749L15.367 4.88338C11.6204 2.72027 6.8296 4.00396 4.66649 7.75058L8.13059 9.75058Z" fill="white" mask="url(#path-3-outside-1_14_528)"/>
<path d="M10.39 13.11C10.0767 13.11 9.83333 13.0233 9.66 12.85C9.48667 12.6767 9.4 12.43 9.4 12.11C9.4 11.8167 9.49 11.5767 9.67 11.39C9.85667 11.2033 10.0967 11.11 10.39 11.11C10.7033 11.11 10.9467 11.1967 11.12 11.37C11.2933 11.5433 11.38 11.79 11.38 12.11C11.38 12.4033 11.2867 12.6433 11.1 12.83C10.92 13.0167 10.6833 13.11 10.39 13.11ZM16.6693 13.11C16.356 13.11 16.1126 13.0233 15.9393 12.85C15.766 12.6767 15.6793 12.43 15.6793 12.11C15.6793 11.8167 15.7693 11.5767 15.9493 11.39C16.136 11.2033 16.376 11.11 16.6693 11.11C16.9826 11.11 17.226 11.1967 17.3993 11.37C17.5726 11.5433 17.6593 11.79 17.6593 12.11C17.6593 12.4033 17.566 12.6433 17.3793 12.83C17.1993 13.0167 16.9626 13.11 16.6693 13.11ZM22.9486 13.11C22.6353 13.11 22.3919 13.0233 22.2186 12.85C22.0453 12.6767 21.9586 12.43 21.9586 12.11C21.9586 11.8167 22.0486 11.5767 22.2286 11.39C22.4153 11.2033 22.6553 11.11 22.9486 11.11C23.2619 11.11 23.5053 11.1967 23.6786 11.37C23.8519 11.5433 23.9386 11.79 23.9386 12.11C23.9386 12.4033 23.8453 12.6433 23.6586 12.83C23.4786 13.0167 23.2419 13.11 22.9486 13.11Z" fill="white"/>
</g>
<defs>
<clipPath id="clip0_14_528">
<rect width="32" height="32" fill="white"/>
</clipPath>
</defs>
</svg>
