<svg width="32" height="32" viewBox="0 0 32 32" fill="none" xmlns="http://www.w3.org/2000/svg">
<rect x="3" y="3" width="26" height="26" rx="2" stroke="white" stroke-width="2"/>
<path d="M15 7H16V5H15V7ZM10 15.5V12H8V15.5H10ZM13 18H12.5V20H13V18ZM23 22V19H21V22H23ZM21 12V19H23V12H21ZM19 26C21.2091 26 23 24.2091 23 22H21C21 23.1046 20.1046 24 19 24V26ZM15 22C15 24.2091 16.7909 26 19 26V24C17.8954 24 17 23.1046 17 22H15ZM13 20C14.1046 20 15 20.8954 15 22H17C17 19.7909 15.2091 18 13 18V20ZM8 15.5C8 17.9853 10.0147 20 12.5 20V18C11.1193 18 10 16.8807 10 15.5H8ZM16 7C18.7614 7 21 9.23858 21 12H23C23 8.13401 19.866 5 16 5V7ZM15 5C11.134 5 8 8.13401 8 12H10C10 9.23858 12.2386 7 15 7V5Z" fill="white"/>
<path d="M19 13C18.606 13 18.2159 13.0776 17.8519 13.2284C17.488 13.3791 17.1573 13.6001 16.8787 13.8787C16.6001 14.1573 16.3791 14.488 16.2284 14.852C16.0776 15.2159 16 15.606 16 16C16 16.394 16.0776 16.7841 16.2284 17.1481C16.3791 17.512 16.6001 17.8427 16.8787 18.1213C17.1573 18.3999 17.488 18.6209 17.852 18.7716C18.2159 18.9224 18.606 19 19 19L19 17.5C18.803 17.5 18.608 17.4612 18.426 17.3858C18.244 17.3104 18.0786 17.1999 17.9393 17.0607C17.8001 16.9214 17.6896 16.756 17.6142 16.574C17.5388 16.392 17.5 16.197 17.5 16C17.5 15.803 17.5388 15.608 17.6142 15.426C17.6896 15.244 17.8001 15.0786 17.9393 14.9393C18.0786 14.8001 18.244 14.6896 18.426 14.6142C18.608 14.5388 18.803 14.5 19 14.5V13Z" fill="white"/>
<path d="M19 13.5C19 13.0404 18.9095 12.5852 18.7336 12.1606C18.5577 11.736 18.2999 11.3501 17.9749 11.0251C17.6499 10.7001 17.264 10.4423 16.8394 10.2664C16.4148 10.0905 15.9596 10 15.5 10C15.0404 10 14.5852 10.0905 14.1606 10.2664C13.736 10.4423 13.3501 10.7001 13.0251 11.0251C12.7001 11.3501 12.4423 11.736 12.2664 12.1606C12.0905 12.5853 12 13.0404 12 13.5L13.4 13.5C13.4 13.2242 13.4543 12.9512 13.5599 12.6964C13.6654 12.4416 13.8201 12.2101 14.0151 12.0151C14.2101 11.8201 14.4416 11.6654 14.6964 11.5599C14.9511 11.4543 15.2242 11.4 15.5 11.4C15.7758 11.4 16.0489 11.4543 16.3036 11.5599C16.5584 11.6654 16.7899 11.8201 16.9849 12.0151C17.1799 12.2101 17.3346 12.4416 17.4401 12.6964C17.5457 12.9511 17.6 13.2242 17.6 13.5H19Z" fill="white"/>
</svg>
