<svg width="32" height="32" viewBox="0 0 32 32" fill="none" xmlns="http://www.w3.org/2000/svg">
<g clip-path="url(#clip0_35_211)">
<rect x="9" y="23" width="4" height="4" rx="2" stroke="white" stroke-width="2"/>
<rect x="4" y="26" width="3" height="3" rx="1.5" stroke="white" stroke-width="2"/>
<mask id="path-3-outside-1_35_211" maskUnits="userSpaceOnUse" x="0" y="-0.241394" width="32" height="26" fill="black">
<rect fill="white" y="-0.241394" width="32" height="26"/>
<path fill-rule="evenodd" clip-rule="evenodd" d="M6.66667 4.75861C6.66667 3.10175 8.00981 1.75861 9.66667 1.75861H13C14.6569 1.75861 16 3.10175 16 4.75861V5.50708H17.2083C17.4468 4.08873 18.6805 3.0081 20.1667 3.0081H23.5C25.1569 3.0081 26.5 4.35124 26.5 6.0081V9.25556H27C28.6569 9.25556 30 10.5987 30 12.2556V16.2515C30 17.9084 28.6569 19.2515 27 19.2515H25.3333V20C25.3333 21.6568 23.9902 23 22.3333 23H19C17.3431 23 16 21.6568 16 20V19.8758C15.493 20.2678 14.8571 20.501 14.1667 20.501H10.8333C9.17648 20.501 7.83333 19.1579 7.83333 17.501V16.7525H5C3.34315 16.7525 2 15.4094 2 13.7525V9.75658C2 8.09972 3.34315 6.75658 5 6.75658H6.66667V4.75861Z"/>
</mask>
<path d="M16 5.50708H14V7.50708H16V5.50708ZM17.2083 5.50708V7.50708H18.9001L19.1806 5.83867L17.2083 5.50708ZM26.5 9.25556H24.5V11.2556H26.5V9.25556ZM25.3333 19.2515V17.2515H23.3333V19.2515H25.3333ZM16 19.8758H18V15.8015L14.7767 18.2936L16 19.8758ZM7.83333 16.7525H9.83333V14.7525H7.83333V16.7525ZM6.66667 6.75658V8.75658H8.66667V6.75658H6.66667ZM9.66667 -0.241394C6.90524 -0.241394 4.66667 1.99718 4.66667 4.75861H8.66667C8.66667 4.20632 9.11438 3.75861 9.66667 3.75861V-0.241394ZM13 -0.241394H9.66667V3.75861H13V-0.241394ZM18 4.75861C18 1.99718 15.7614 -0.241394 13 -0.241394V3.75861C13.5523 3.75861 14 4.20632 14 4.75861H18ZM18 5.50708V4.75861H14V5.50708H18ZM17.2083 3.50708H16V7.50708H17.2083V3.50708ZM19.1806 5.83867C19.2599 5.3674 19.6733 5.0081 20.1667 5.0081V1.0081C17.6878 1.0081 15.6337 2.81005 15.236 5.17549L19.1806 5.83867ZM20.1667 5.0081H23.5V1.0081H20.1667V5.0081ZM23.5 5.0081C24.0523 5.0081 24.5 5.45581 24.5 6.0081H28.5C28.5 3.24667 26.2614 1.0081 23.5 1.0081V5.0081ZM24.5 6.0081V9.25556H28.5V6.0081H24.5ZM27 7.25556H26.5V11.2556H27V7.25556ZM32 12.2556C32 9.49414 29.7614 7.25556 27 7.25556V11.2556C27.5523 11.2556 28 11.7033 28 12.2556H32ZM32 16.2515V12.2556H28V16.2515H32ZM27 21.2515C29.7614 21.2515 32 19.0129 32 16.2515H28C28 16.8038 27.5523 17.2515 27 17.2515V21.2515ZM25.3333 21.2515H27V17.2515H25.3333V21.2515ZM27.3333 20V19.2515H23.3333V20H27.3333ZM22.3333 25C25.0948 25 27.3333 22.7614 27.3333 20H23.3333C23.3333 20.5523 22.8856 21 22.3333 21V25ZM19 25H22.3333V21H19V25ZM14 20C14 22.7614 16.2386 25 19 25V21C18.4477 21 18 20.5523 18 20H14ZM14 19.8758V20H18V19.8758H14ZM14.1667 22.501C15.3152 22.501 16.3784 22.1113 17.2233 21.4581L14.7767 18.2936C14.6077 18.4243 14.399 18.501 14.1667 18.501V22.501ZM10.8333 22.501H14.1667V18.501H10.8333V22.501ZM5.83333 17.501C5.83333 20.2624 8.07191 22.501 10.8333 22.501V18.501C10.2811 18.501 9.83333 18.0533 9.83333 17.501H5.83333ZM5.83333 16.7525V17.501H9.83333V16.7525H5.83333ZM5 18.7525H7.83333V14.7525H5V18.7525ZM0 13.7525C0 16.5139 2.23858 18.7525 5 18.7525V14.7525C4.44772 14.7525 4 14.3048 4 13.7525H0ZM0 9.75658V13.7525H4V9.75658H0ZM5 4.75658C2.23858 4.75658 0 6.99516 0 9.75658H4C4 9.20429 4.44772 8.75658 5 8.75658V4.75658ZM6.66667 4.75658H5V8.75658H6.66667V4.75658ZM4.66667 4.75861V6.75658H8.66667V4.75861H4.66667Z" fill="white" mask="url(#path-3-outside-1_35_211)"/>
<mask id="path-5-outside-2_35_211" maskUnits="userSpaceOnUse" x="10.8781" y="4.76596" width="16" height="15" fill="black">
<rect fill="white" x="10.8781" y="4.76596" width="16" height="15"/>
<path fill-rule="evenodd" clip-rule="evenodd" d="M19.9926 9.77659L19.1531 10.616H20.5667H20.5668H24.1133C24.603 10.616 25 11.013 25 11.5027C25 11.9924 24.603 12.3893 24.1133 12.3893L23.2267 12.3893C23.7164 12.3893 24.1134 12.7863 24.1134 13.276C24.1134 13.7657 23.7164 14.1626 23.2267 14.1626H22.34C22.8297 14.1626 23.2267 14.5596 23.2267 15.0493C23.2267 15.539 22.8297 15.9359 22.34 15.9359H21.4534C21.9431 15.9359 22.3401 16.3329 22.3401 16.8226C22.3401 17.3123 21.9431 17.7093 21.4534 17.7093L20.5668 17.7092L17.9068 17.7093L17.9055 17.7092H17.067L14.4317 18.4154L12.8781 12.6174L15.6692 11.8695C15.6227 11.5679 15.7157 11.249 15.948 11.0167L18.4184 8.5463L18.5859 7.64235C18.6938 7.0605 19.2529 6.67625 19.8348 6.7841C20.4166 6.89195 20.8009 7.45106 20.693 8.03291L20.505 9.04703C20.446 9.36552 20.2517 9.62481 19.9926 9.77659Z"/>
</mask>
<path d="M19.9926 9.77659L19.4872 8.91368L19.3763 8.97862L19.2855 9.06948L19.9926 9.77659ZM19.1531 10.616L18.446 9.90894L16.7389 11.616H19.1531V10.616ZM24.1133 12.3893V11.3893H24.1133L24.1133 12.3893ZM21.4534 17.7093L21.4534 18.7093H21.4534V17.7093ZM20.5668 17.7092L20.5668 16.7092H20.5668L20.5668 17.7092ZM17.9068 17.7093L17.9061 18.7093H17.9068L17.9068 17.7093ZM17.9055 17.7092L17.9062 16.7092H17.9055V17.7092ZM17.067 17.7092V16.7092H16.9354L16.8082 16.7433L17.067 17.7092ZM14.4317 18.4154L13.4658 18.6742L13.7246 19.6401L14.6905 19.3813L14.4317 18.4154ZM12.8781 12.6174L12.6193 11.6514L11.6534 11.9102L11.9122 12.8762L12.8781 12.6174ZM15.6692 11.8695L15.928 12.8354L16.7939 12.6034L16.6575 11.7174L15.6692 11.8695ZM15.948 11.0167L16.6551 11.7238H16.6551L15.948 11.0167ZM18.4184 8.5463L19.1255 9.25341L19.345 9.03386L19.4016 8.72856L18.4184 8.5463ZM18.5859 7.64235L19.5692 7.8246L18.5859 7.64235ZM19.8348 6.7841L19.6525 7.76735L19.8348 6.7841ZM20.693 8.03291L19.7098 7.85066V7.85066L20.693 8.03291ZM20.505 9.04703L21.4883 9.22928V9.22928L20.505 9.04703ZM19.2855 9.06948L18.446 9.90894L19.8602 11.3232L20.6997 10.4837L19.2855 9.06948ZM19.1531 11.616H20.5667V9.61605H19.1531V11.616ZM20.5667 11.616H20.5668V9.61605H20.5667V11.616ZM20.5668 11.616H24.1133V9.61605H20.5668V11.616ZM24.1133 11.616C24.0507 11.616 24 11.5653 24 11.5027H26C26 10.4607 25.1553 9.61605 24.1133 9.61605V11.616ZM24 11.5027C24 11.4401 24.0507 11.3893 24.1133 11.3893V13.3893C25.1553 13.3893 26 12.5447 26 11.5027H24ZM24.1133 11.3893L23.2267 11.3893L23.2267 13.3893L24.1133 13.3893L24.1133 11.3893ZM23.2267 13.3893C23.1641 13.3893 23.1134 13.3386 23.1134 13.276H25.1134C25.1134 12.234 24.2687 11.3893 23.2267 11.3893V13.3893ZM23.1134 13.276C23.1134 13.2134 23.1641 13.1626 23.2267 13.1626V15.1626C24.2687 15.1626 25.1134 14.318 25.1134 13.276H23.1134ZM23.2267 13.1626H22.34V15.1626H23.2267V13.1626ZM22.34 15.1626C22.2774 15.1626 22.2267 15.1119 22.2267 15.0493H24.2267C24.2267 14.0073 23.382 13.1626 22.34 13.1626V15.1626ZM22.2267 15.0493C22.2267 14.9867 22.2774 14.9359 22.34 14.9359V16.9359C23.382 16.9359 24.2267 16.0913 24.2267 15.0493H22.2267ZM22.34 14.9359H21.4534V16.9359H22.34V14.9359ZM21.4534 16.9359C21.3908 16.9359 21.3401 16.8852 21.3401 16.8226H23.3401C23.3401 15.7806 22.4954 14.9359 21.4534 14.9359V16.9359ZM21.3401 16.8226C21.3401 16.76 21.3908 16.7093 21.4534 16.7093V18.7093C22.4954 18.7093 23.3401 17.8646 23.3401 16.8226H21.3401ZM21.4534 16.7093L20.5668 16.7092L20.5668 18.7092L21.4534 18.7093L21.4534 16.7093ZM20.5668 16.7092L17.9068 16.7093L17.9068 18.7093L20.5668 18.7092L20.5668 16.7092ZM17.9075 16.7093L17.9062 16.7092L17.9048 18.7092L17.9061 18.7093L17.9075 16.7093ZM17.9055 16.7092H17.067V18.7092H17.9055V16.7092ZM16.8082 16.7433L14.1729 17.4495L14.6905 19.3813L17.3258 18.6752L16.8082 16.7433ZM15.3976 18.1566L13.8441 12.3585L11.9122 12.8762L13.4658 18.6742L15.3976 18.1566ZM13.137 13.5833L15.928 12.8354L15.4103 10.9036L12.6193 11.6514L13.137 13.5833ZM16.6575 11.7174C16.6576 11.7176 16.6577 11.7181 16.6572 11.7196C16.6569 11.7205 16.6564 11.7216 16.6557 11.7228C16.655 11.724 16.6545 11.7244 16.6551 11.7238L15.2409 10.3096C14.7738 10.7767 14.588 11.4188 14.6808 12.0217L16.6575 11.7174ZM16.6551 11.7238L19.1255 9.25341L17.7113 7.8392L15.2409 10.3096L16.6551 11.7238ZM19.4016 8.72856L19.5692 7.8246L17.6027 7.46009L17.4351 8.36405L19.4016 8.72856ZM19.5692 7.8246C19.5764 7.78579 19.6137 7.76015 19.6525 7.76735L20.017 5.80084C18.8921 5.59234 17.8112 6.33521 17.6027 7.46009L19.5692 7.8246ZM19.6525 7.76735C19.6913 7.77454 19.7169 7.81184 19.7098 7.85066L21.6763 8.21516C21.8848 7.09028 21.1419 6.00935 20.017 5.80084L19.6525 7.76735ZM19.7098 7.85066L19.5218 8.86477L21.4883 9.22928L21.6763 8.21516L19.7098 7.85066ZM19.5218 8.86477C19.5195 8.8772 19.5153 8.88586 19.5103 8.89288C19.5047 8.90068 19.4968 8.90804 19.4872 8.91368L20.4979 10.6395C20.997 10.3472 21.3741 9.84522 21.4883 9.22928L19.5218 8.86477Z" fill="white" mask="url(#path-5-outside-2_35_211)"/>
</g>
<defs>
<clipPath id="clip0_35_211">
<rect width="32" height="32" fill="white"/>
</clipPath>
</defs>
</svg>
