<svg width="32" height="32" viewBox="0 0 32 32" fill="none" xmlns="http://www.w3.org/2000/svg">
<g clip-path="url(#clip0_58_2)">
<rect x="9" y="23" width="4" height="4" rx="2" stroke="white" stroke-width="2"/>
<rect x="4" y="26" width="3" height="3" rx="1.5" stroke="white" stroke-width="2"/>
<path d="M17 8.33309C19.7906 8.3331 22.3618 9.4094 24.2725 10.5293C25.2014 11.0737 25.9571 11.6184 26.4844 12.031C25.9553 12.4814 25.1885 13.0828 24.2421 13.6837C22.3302 14.8977 19.77 16.0558 17 16.0558C14.23 16.0558 11.6698 14.8977 9.75786 13.6837C8.81155 13.0828 8.04469 12.4814 7.51557 12.031C8.04295 11.6184 8.79857 11.0737 9.72749 10.5293C11.6382 9.4094 14.2094 8.3331 17 8.33309Z" stroke="white" stroke-width="2"/>
<path fill-rule="evenodd" clip-rule="evenodd" d="M17 15C18.6569 15 20 13.6569 20 12C20 11.6925 19.9537 11.3959 19.8678 11.1166C19.6326 11.6375 19.1087 12 18.5 12C17.6716 12 17 11.3284 17 10.5C17 9.89135 17.3625 9.36736 17.8834 9.13218C17.6041 9.04625 17.3075 9 17 9C15.3431 9 14 10.3431 14 12C14 13.6569 15.3431 15 17 15Z" fill="white"/>
<mask id="path-5-outside-1_58_2" maskUnits="userSpaceOnUse" x="0" y="-0.241394" width="32" height="26" fill="black">
<rect fill="white" y="-0.241394" width="32" height="26"/>
<path fill-rule="evenodd" clip-rule="evenodd" d="M6.66667 4.75861C6.66667 3.10175 8.00981 1.75861 9.66667 1.75861H13C14.6569 1.75861 16 3.10175 16 4.75861V5.50708H17.2083C17.4468 4.08873 18.6805 3.0081 20.1667 3.0081H23.5C25.1569 3.0081 26.5 4.35124 26.5 6.0081V9.25556H27C28.6569 9.25556 30 10.5987 30 12.2556V16.2515C30 17.9084 28.6569 19.2515 27 19.2515H25.3333V20C25.3333 21.6568 23.9902 23 22.3333 23H19C17.3431 23 16 21.6568 16 20V19.8758C15.493 20.2678 14.8571 20.501 14.1667 20.501H10.8333C9.17648 20.501 7.83333 19.1579 7.83333 17.501V16.7525H5C3.34315 16.7525 2 15.4094 2 13.7525V9.75658C2 8.09972 3.34315 6.75658 5 6.75658H6.66667V4.75861Z"/>
</mask>
<path d="M16 5.50708H14V7.50708H16V5.50708ZM17.2083 5.50708V7.50708H18.9001L19.1806 5.83867L17.2083 5.50708ZM26.5 9.25556H24.5V11.2556H26.5V9.25556ZM25.3333 19.2515V17.2515H23.3333V19.2515H25.3333ZM16 19.8758H18V15.8015L14.7767 18.2936L16 19.8758ZM7.83333 16.7525H9.83333V14.7525H7.83333V16.7525ZM6.66667 6.75658V8.75658H8.66667V6.75658H6.66667ZM9.66667 -0.241394C6.90524 -0.241394 4.66667 1.99718 4.66667 4.75861H8.66667C8.66667 4.20632 9.11438 3.75861 9.66667 3.75861V-0.241394ZM13 -0.241394H9.66667V3.75861H13V-0.241394ZM18 4.75861C18 1.99718 15.7614 -0.241394 13 -0.241394V3.75861C13.5523 3.75861 14 4.20632 14 4.75861H18ZM18 5.50708V4.75861H14V5.50708H18ZM17.2083 3.50708H16V7.50708H17.2083V3.50708ZM19.1806 5.83867C19.2599 5.3674 19.6733 5.0081 20.1667 5.0081V1.0081C17.6878 1.0081 15.6337 2.81005 15.236 5.17549L19.1806 5.83867ZM20.1667 5.0081H23.5V1.0081H20.1667V5.0081ZM23.5 5.0081C24.0523 5.0081 24.5 5.45581 24.5 6.0081H28.5C28.5 3.24667 26.2614 1.0081 23.5 1.0081V5.0081ZM24.5 6.0081V9.25556H28.5V6.0081H24.5ZM27 7.25556H26.5V11.2556H27V7.25556ZM32 12.2556C32 9.49414 29.7614 7.25556 27 7.25556V11.2556C27.5523 11.2556 28 11.7033 28 12.2556H32ZM32 16.2515V12.2556H28V16.2515H32ZM27 21.2515C29.7614 21.2515 32 19.0129 32 16.2515H28C28 16.8038 27.5523 17.2515 27 17.2515V21.2515ZM25.3333 21.2515H27V17.2515H25.3333V21.2515ZM27.3333 20V19.2515H23.3333V20H27.3333ZM22.3333 25C25.0948 25 27.3333 22.7614 27.3333 20H23.3333C23.3333 20.5523 22.8856 21 22.3333 21V25ZM19 25H22.3333V21H19V25ZM14 20C14 22.7614 16.2386 25 19 25V21C18.4477 21 18 20.5523 18 20H14ZM14 19.8758V20H18V19.8758H14ZM14.1667 22.501C15.3152 22.501 16.3784 22.1113 17.2233 21.4581L14.7767 18.2936C14.6077 18.4243 14.399 18.501 14.1667 18.501V22.501ZM10.8333 22.501H14.1667V18.501H10.8333V22.501ZM5.83333 17.501C5.83333 20.2624 8.07191 22.501 10.8333 22.501V18.501C10.2811 18.501 9.83333 18.0533 9.83333 17.501H5.83333ZM5.83333 16.7525V17.501H9.83333V16.7525H5.83333ZM5 18.7525H7.83333V14.7525H5V18.7525ZM0 13.7525C0 16.5139 2.23858 18.7525 5 18.7525V14.7525C4.44772 14.7525 4 14.3048 4 13.7525H0ZM0 9.75658V13.7525H4V9.75658H0ZM5 4.75658C2.23858 4.75658 0 6.99516 0 9.75658H4C4 9.20429 4.44772 8.75658 5 8.75658V4.75658ZM6.66667 4.75658H5V8.75658H6.66667V4.75658ZM4.66667 4.75861V6.75658H8.66667V4.75861H4.66667Z" fill="white" mask="url(#path-5-outside-1_58_2)"/>
</g>
<defs>
<clipPath id="clip0_58_2">
<rect width="32" height="32" fill="white"/>
</clipPath>
</defs>
</svg>
