<svg width="32" height="32" viewBox="0 0 32 32" fill="none" xmlns="http://www.w3.org/2000/svg">
<rect x="9" y="23" width="4" height="4" rx="2" stroke="white" stroke-width="2"/>
<rect x="4" y="26" width="3" height="3" rx="1.5" stroke="white" stroke-width="2"/>
<mask id="path-3-inside-1_16_53" fill="white">
<path fill-rule="evenodd" clip-rule="evenodd" d="M22 18.7665C22 17.9517 22.508 17.238 23.201 16.8095C25.4809 15.3999 27 12.8774 27 10C27 5.58172 23.4183 2 19 2C14.5817 2 11 5.58172 11 10C11 12.8774 12.5191 15.3999 14.799 16.8095C15.492 17.238 16 17.9517 16 18.7665V21C16 22.1046 16.8954 23 18 23H20C21.1046 23 22 22.1046 22 21V18.7665Z"/>
</mask>
<path d="M14.799 16.8095L13.7473 18.5106L14.799 16.8095ZM25 10C25 12.1558 23.8644 14.048 22.1493 15.1084L24.2527 18.5106C27.0974 16.7519 29 13.599 29 10H25ZM19 4C22.3137 4 25 6.68629 25 10H29C29 4.47715 24.5228 0 19 0V4ZM13 10C13 6.68629 15.6863 4 19 4V0C13.4772 0 9 4.47715 9 10H13ZM15.8507 15.1084C14.1356 14.048 13 12.1558 13 10H9C9 13.599 10.9026 16.7519 13.7473 18.5106L15.8507 15.1084ZM18 21V18.7665H14V21H18ZM20 21H18V25H20V21ZM20 18.7665V21H24V18.7665H20ZM14 21C14 23.2091 15.7909 25 18 25V21H14ZM13.7473 18.5106C13.8636 18.5826 13.9377 18.6633 13.9747 18.7211C14.0079 18.7729 14 18.7858 14 18.7665H18C18 17.0836 16.9672 15.7986 15.8507 15.1084L13.7473 18.5106ZM20 25C22.2091 25 24 23.2091 24 21H20V21V25ZM22.1493 15.1084C21.0328 15.7986 20 17.0836 20 18.7665H24C24 18.7858 23.9921 18.7729 24.0253 18.7211C24.0623 18.6633 24.1364 18.5826 24.2527 18.5106L22.1493 15.1084Z" fill="white" mask="url(#path-3-inside-1_16_53)"/>
<line x1="14.2929" y1="10.2929" x2="16.2929" y2="8.29289" stroke="white" stroke-width="2"/>
<line x1="17.2929" y1="10.7071" x2="15.2929" y2="8.70711" stroke="white" stroke-width="2"/>
<line x1="17.2929" y1="10.2929" x2="19.2929" y2="8.29289" stroke="white" stroke-width="2"/>
<line x1="20.2929" y1="10.7071" x2="18.2929" y2="8.70711" stroke="white" stroke-width="2"/>
<line x1="20.2929" y1="10.2929" x2="22.2929" y2="8.29289" stroke="white" stroke-width="2"/>
<line x1="23.2929" y1="10.7071" x2="21.2929" y2="8.70711" stroke="white" stroke-width="2"/>
<mask id="path-11-inside-2_16_53" fill="white">
<path d="M16 21C16 19.3431 17.3431 18 19 18C20.6569 18 22 19.3431 22 21V24C22 25.6569 20.6569 27 19 27C17.3431 27 16 25.6569 16 24V21Z"/>
</mask>
<path d="M16 18H22H16ZM23 25C23 27.2091 21.2091 29 19 29C16.7909 29 15 27.2091 15 25L17 24C17 24.5523 17.8954 25 19 25C20.1046 25 21 24.5523 21 24L23 25ZM19 29C16.7909 29 15 27.2091 15 25V22C15 19.7909 16.7909 18 19 18C17.8954 18 17 19.3431 17 21V24C17 24.5523 17.8954 25 19 25V29ZM19 18C21.2091 18 23 19.7909 23 22V25C23 27.2091 21.2091 29 19 29V25C20.1046 25 21 24.5523 21 24V21C21 19.3431 20.1046 18 19 18Z" fill="white" mask="url(#path-11-inside-2_16_53)"/>
</svg>
