<svg width="32" height="32" viewBox="0 0 32 32" fill="none" xmlns="http://www.w3.org/2000/svg">
<rect x="3" y="3" width="26" height="17" rx="2" stroke="white" stroke-width="2"/>
<line y1="-1.5" x2="11.6619" y2="-1.5" transform="matrix(-0.514496 0.857493 -0.803557 -0.595228 10 19)" stroke="white" stroke-width="3"/>
<line y1="-1.5" x2="13.4536" y2="-1.5" transform="matrix(-0.668965 0.743294 -0.668965 -0.743294 13 19)" stroke="white" stroke-width="3"/>
<mask id="path-4-outside-1_307_1674" maskUnits="userSpaceOnUse" x="9" y="4.64941" width="16" height="15" fill="black">
<rect fill="white" x="9" y="4.64941" width="16" height="15"/>
<path fill-rule="evenodd" clip-rule="evenodd" d="M18.1144 14.6388L17.275 13.7993H18.6886H18.6886H22.2352C22.7249 13.7993 23.1219 13.4024 23.1219 12.9127C23.1219 12.423 22.7249 12.026 22.2352 12.026L21.3486 12.026C21.8382 12.026 22.2352 11.6291 22.2352 11.1394C22.2352 10.6497 21.8382 10.2527 21.3486 10.2527H20.4619C20.9516 10.2527 21.3486 9.85576 21.3486 9.36608C21.3486 8.87639 20.9516 8.47943 20.4619 8.47943H19.5766C20.0657 8.47872 20.4619 8.08202 20.4619 7.59278C20.4619 7.10309 20.0649 6.70613 19.5753 6.70613H18.6886H16.0287H15.1889L12.5536 6L11 11.798L13.791 12.5459C13.7446 12.8475 13.8375 13.1664 14.0698 13.3987L16.5402 15.8691L16.7078 16.773C16.8156 17.3549 17.3748 17.7391 17.9566 17.6313C18.5385 17.5234 18.9227 16.9643 18.8149 16.3825L18.6269 15.3683C18.5679 15.0499 18.3736 14.7906 18.1144 14.6388Z"/>
</mask>
<path d="M18.1144 14.6388L17.6091 15.5017L17.4982 15.4368L17.4073 15.3459L18.1144 14.6388ZM17.275 13.7993L16.5679 14.5064L14.8608 12.7993H17.275V13.7993ZM22.2352 12.026V13.026H22.2352L22.2352 12.026ZM19.5766 8.47943V9.47943L19.5751 7.47943L19.5766 8.47943ZM15.1889 6.70613V7.70613H15.0572L14.9301 7.67205L15.1889 6.70613ZM12.5536 6L11.5876 5.74118L11.8465 4.77525L12.8124 5.03407L12.5536 6ZM11 11.798L10.7412 12.7639L9.77526 12.5051L10.0341 11.5392L11 11.798ZM13.791 12.5459L14.0498 11.5799L14.9158 11.812L14.7794 12.698L13.791 12.5459ZM14.0698 13.3987L14.7769 12.6915L14.0698 13.3987ZM16.5402 15.8691L17.2473 15.162L17.4669 15.3815L17.5235 15.6868L16.5402 15.8691ZM16.7078 16.773L17.691 16.5908L16.7078 16.773ZM17.9566 17.6313L17.7744 16.648L17.9566 17.6313ZM18.8149 16.3825L17.8316 16.5647V16.5647L18.8149 16.3825ZM18.6269 15.3683L19.6101 15.1861V15.1861L18.6269 15.3683ZM17.4073 15.3459L16.5679 14.5064L17.9821 13.0922L18.8215 13.9317L17.4073 15.3459ZM17.275 12.7993H18.6886V14.7993H17.275V12.7993ZM18.6886 12.7993H18.6886V14.7993H18.6886V12.7993ZM18.6886 12.7993H22.2352V14.7993H18.6886V12.7993ZM22.2352 12.7993C22.1726 12.7993 22.1219 12.8501 22.1219 12.9127H24.1219C24.1219 13.9546 23.2772 14.7993 22.2352 14.7993V12.7993ZM22.1219 12.9127C22.1219 12.9753 22.1726 13.026 22.2352 13.026V11.026C23.2772 11.026 24.1219 11.8707 24.1219 12.9127H22.1219ZM22.2352 13.026L21.3486 13.026L21.3486 11.026L22.2352 11.026L22.2352 13.026ZM21.3486 11.026C21.286 11.026 21.2352 11.0768 21.2352 11.1394H23.2352C23.2352 12.1813 22.3905 13.026 21.3486 13.026V11.026ZM21.2352 11.1394C21.2352 11.202 21.286 11.2527 21.3486 11.2527V9.25273C22.3905 9.25273 23.2352 10.0974 23.2352 11.1394H21.2352ZM21.3486 11.2527H20.4619V9.25273H21.3486V11.2527ZM20.4619 9.25273C20.3993 9.25273 20.3486 9.30347 20.3486 9.36608H22.3486C22.3486 10.408 21.5039 11.2527 20.4619 11.2527V9.25273ZM20.3486 9.36608C20.3486 9.42868 20.3993 9.47943 20.4619 9.47943V7.47943C21.5039 7.47943 22.3486 8.32411 22.3486 9.36608H20.3486ZM20.4619 9.47943H19.5766V7.47943H20.4619V9.47943ZM19.5751 7.47943C19.5126 7.47952 19.4619 7.53022 19.4619 7.59278H21.4619C21.4619 8.63382 20.6187 9.47791 19.578 9.47942L19.5751 7.47943ZM19.4619 7.59278C19.4619 7.65538 19.5127 7.70613 19.5753 7.70613V5.70613C20.6172 5.70613 21.4619 6.55081 21.4619 7.59278H19.4619ZM19.5753 7.70613H18.6886V5.70613H19.5753V7.70613ZM18.6886 7.70613H16.0287V5.70613H18.6886V7.70613ZM16.0287 7.70613H15.1889V5.70613H16.0287V7.70613ZM14.9301 7.67205L12.2948 6.96592L12.8124 5.03407L15.4477 5.7402L14.9301 7.67205ZM13.5195 6.25882L11.9659 12.0568L10.0341 11.5392L11.5876 5.74118L13.5195 6.25882ZM11.2588 10.8321L14.0498 11.5799L13.5322 13.5118L10.7412 12.7639L11.2588 10.8321ZM14.7794 12.698C14.7794 12.6977 14.7795 12.6972 14.7791 12.6958C14.7788 12.6949 14.7783 12.6938 14.7776 12.6926C14.7768 12.6914 14.7764 12.691 14.7769 12.6915L13.3627 14.1058C12.8956 13.6387 12.7098 12.9966 12.8027 12.3937L14.7794 12.698ZM14.7769 12.6915L17.2473 15.162L15.8331 16.5762L13.3627 14.1058L14.7769 12.6915ZM17.5235 15.6868L17.691 16.5908L15.7245 16.9553L15.557 16.0513L17.5235 15.6868ZM17.691 16.5908C17.6982 16.6296 17.7355 16.6552 17.7744 16.648L18.1389 18.6145C17.014 18.823 15.9331 18.0802 15.7245 16.9553L17.691 16.5908ZM17.7744 16.648C17.8132 16.6408 17.8388 16.6035 17.8316 16.5647L19.7981 16.2002C20.0066 17.3251 19.2637 18.406 18.1389 18.6145L17.7744 16.648ZM17.8316 16.5647L17.6436 15.5506L19.6101 15.1861L19.7981 16.2002L17.8316 16.5647ZM17.6436 15.5506C17.6413 15.5382 17.6371 15.5295 17.6321 15.5225C17.6266 15.5147 17.6187 15.5073 17.6091 15.5017L18.6198 13.7759C19.1189 14.0681 19.496 14.5702 19.6101 15.1861L17.6436 15.5506Z" fill="white" mask="url(#path-4-outside-1_307_1674)"/>
</svg>
