<svg width="32" height="32" viewBox="0 0 32 32" fill="none" xmlns="http://www.w3.org/2000/svg">
<rect x="3" y="3" width="26" height="26" rx="2" stroke="white" stroke-width="2"/>
<path d="M16 12.3331C18.7906 12.3331 21.3618 13.4094 23.2725 14.5293C24.2014 15.0737 24.9571 15.6184 25.4844 16.031C24.9553 16.4814 24.1885 17.0828 23.2421 17.6837C21.3302 18.8977 18.77 20.0558 16 20.0558C13.23 20.0558 10.6698 18.8977 8.75786 17.6837C7.81155 17.0828 7.04469 16.4814 6.51557 16.031C7.04295 15.6184 7.79857 15.0737 8.72749 14.5293C10.6382 13.4094 13.2094 12.3331 16 12.3331Z" stroke="white" stroke-width="2"/>
<path fill-rule="evenodd" clip-rule="evenodd" d="M16 19C17.6569 19 19 17.6569 19 16C19 15.6925 18.9537 15.3959 18.8678 15.1166C18.6326 15.6375 18.1087 16 17.5 16C16.6716 16 16 15.3284 16 14.5C16 13.8913 16.3625 13.3674 16.8834 13.1322C16.6041 13.0463 16.3075 13 16 13C14.3431 13 13 14.3431 13 16C13 17.6569 14.3431 19 16 19Z" fill="white"/>
<line x1="6.83205" y1="9.4453" x2="8.83205" y2="12.4453" stroke="white" stroke-width="2"/>
<line y1="-1" x2="3.60555" y2="-1" transform="matrix(-0.5547 0.83205 0.83205 0.5547 26 10)" stroke="white" stroke-width="2"/>
<line x1="16" y1="7" x2="16" y2="11" stroke="white" stroke-width="2"/>
</svg>
