<svg width="32" height="32" viewBox="0 0 32 32" fill="none" xmlns="http://www.w3.org/2000/svg">
<rect x="3" y="3" width="26" height="17" rx="2" stroke="white" stroke-width="2"/>
<line y1="-1.5" x2="11.6619" y2="-1.5" transform="matrix(-0.514496 0.857493 -0.803557 -0.595228 10 19)" stroke="white" stroke-width="3"/>
<line y1="-1.5" x2="13.4536" y2="-1.5" transform="matrix(-0.668965 0.743294 -0.668965 -0.743294 13 19)" stroke="white" stroke-width="3"/>
<path d="M8.17 12.34C8.11 11.9467 8.04667 11.54 7.98 11.12C7.91333 10.7 7.85667 10.2833 7.81 9.87C7.77 9.45 7.75 9.04333 7.75 8.65V7.8H9.89V8.65C9.89 9.04333 9.86667 9.45 9.82 9.87C9.78 10.2833 9.72667 10.7 9.66 11.12C9.59333 11.54 9.53 11.9467 9.47 12.34H8.17ZM8.83 15.11C8.51667 15.11 8.27333 15.0233 8.1 14.85C7.92667 14.6767 7.84 14.43 7.84 14.11C7.84 13.8167 7.93 13.5767 8.11 13.39C8.29667 13.2033 8.53667 13.11 8.83 13.11C9.14333 13.11 9.38667 13.1967 9.56 13.37C9.73333 13.5433 9.82 13.79 9.82 14.11C9.82 14.4033 9.72667 14.6433 9.54 14.83C9.36 15.0167 9.12333 15.11 8.83 15.11ZM15.3087 12.34C15.2487 11.9467 15.1853 11.54 15.1187 11.12C15.052 10.7 14.9953 10.2833 14.9487 9.87C14.9087 9.45 14.8887 9.04333 14.8887 8.65V7.8H17.0287V8.65C17.0287 9.04333 17.0053 9.45 16.9587 9.87C16.9187 10.2833 16.8653 10.7 16.7987 11.12C16.732 11.54 16.6687 11.9467 16.6087 12.34H15.3087ZM15.9687 15.11C15.6553 15.11 15.412 15.0233 15.2387 14.85C15.0653 14.6767 14.9787 14.43 14.9787 14.11C14.9787 13.8167 15.0687 13.5767 15.2487 13.39C15.4353 13.2033 15.6753 13.11 15.9687 13.11C16.282 13.11 16.5253 13.1967 16.6987 13.37C16.872 13.5433 16.9587 13.79 16.9587 14.11C16.9587 14.4033 16.8653 14.6433 16.6787 14.83C16.4987 15.0167 16.262 15.11 15.9687 15.11ZM22.4473 12.34C22.3873 11.9467 22.324 11.54 22.2573 11.12C22.1907 10.7 22.134 10.2833 22.0873 9.87C22.0473 9.45 22.0273 9.04333 22.0273 8.65V7.8H24.1673V8.65C24.1673 9.04333 24.144 9.45 24.0973 9.87C24.0573 10.2833 24.004 10.7 23.9373 11.12C23.8707 11.54 23.8073 11.9467 23.7473 12.34H22.4473ZM23.1073 15.11C22.794 15.11 22.5507 15.0233 22.3773 14.85C22.204 14.6767 22.1173 14.43 22.1173 14.11C22.1173 13.8167 22.2073 13.5767 22.3873 13.39C22.574 13.2033 22.814 13.11 23.1073 13.11C23.4207 13.11 23.664 13.1967 23.8373 13.37C24.0107 13.5433 24.0973 13.79 24.0973 14.11C24.0973 14.4033 24.004 14.6433 23.8173 14.83C23.6373 15.0167 23.4007 15.11 23.1073 15.11Z" fill="white"/>
</svg>
