<svg width="32" height="32" viewBox="0 0 32 32" fill="none" xmlns="http://www.w3.org/2000/svg">
<rect x="2" y="3" width="28" height="17" rx="2" stroke="white" stroke-width="2"/>
<mask id="path-2-outside-1_83_8" maskUnits="userSpaceOnUse" x="4.6297" y="4" width="12" height="15" fill="black">
<rect fill="white" x="4.6297" y="4" width="12" height="15"/>
<path fill-rule="evenodd" clip-rule="evenodd" d="M11.9301 11.8692L11.9301 6.5627C11.9301 6.26197 11.6863 6.01818 11.3856 6.01818C11.0848 6.01818 10.841 6.26197 10.841 6.5627L10.841 10.496L10.3898 10.5175L10.3898 5.54452C10.3898 5.24379 10.146 5 9.84527 5C9.54454 5 9.30075 5.24379 9.30075 5.54453L9.30075 10.5694L8.62986 10.6013L8.62986 6.54422C8.62986 6.24348 8.38607 5.99969 8.08534 5.99969C7.78461 5.99969 7.54081 6.24348 7.54081 6.54422L7.54081 10.6532L7.21514 10.6687L7.21514 8.06691C7.21514 7.76618 6.97135 7.52238 6.67062 7.52238C6.36988 7.52238 6.12609 7.76618 6.12609 8.06691L6.12609 14.2595C6.12609 14.3196 6.13583 14.3774 6.15383 14.4315L6.00009 16.8183L10.597 17L10.9065 16.3102C11.1488 16.2991 11.3878 16.2011 11.5728 16.0161L12.8283 14.7606C12.9953 14.5936 13.0914 14.3825 13.1166 14.1648L14.5562 11.5979C14.7113 11.3213 14.6129 10.9713 14.3363 10.8162C14.0597 10.6611 13.7097 10.7596 13.5546 11.0362L12.714 12.535L12.2509 12.0719C12.1572 11.9782 12.0472 11.9106 11.9301 11.8692Z"/>
</mask>
<path d="M11.9301 11.8692L11.5965 12.8119L10.9301 12.5761L10.9301 11.8692L11.9301 11.8692ZM11.9301 6.5627L10.9301 6.5627L11.9301 6.5627ZM10.841 10.496L11.841 10.496L11.841 11.4495L10.8886 11.4949L10.841 10.496ZM10.3898 10.5175L10.4374 11.5164L9.3898 11.5663L9.3898 10.5175L10.3898 10.5175ZM10.3898 5.54452L9.3898 5.54452L10.3898 5.54452ZM9.30075 10.5694L10.3007 10.5694L10.3007 11.5229L9.34831 11.5682L9.30075 10.5694ZM8.62986 10.6013L8.67743 11.6002L7.62986 11.6501L7.62986 10.6013L8.62986 10.6013ZM7.54081 10.6532L8.54081 10.6532L8.54081 11.6067L7.58838 11.652L7.54081 10.6532ZM7.21514 10.6687L7.26271 11.6675L6.21514 11.7174L6.21514 10.6687L7.21514 10.6687ZM6.15383 14.4315L7.10268 14.1158L7.16431 14.301L7.15176 14.4958L6.15383 14.4315ZM6.00009 16.8183L5.9606 17.8175L4.93627 17.7771L5.00216 16.7541L6.00009 16.8183ZM10.597 17L11.5094 17.4093L11.2328 18.0259L10.5575 17.9992L10.597 17ZM10.9065 16.3102L9.99415 15.9008L10.2461 15.3392L10.861 15.3112L10.9065 16.3102ZM11.5728 16.0161L12.2799 16.7232L12.2799 16.7232L11.5728 16.0161ZM12.8283 14.7606L12.1211 14.0535L12.1211 14.0535L12.8283 14.7606ZM13.1166 14.1648L12.1233 14.0497L12.1463 13.8506L12.2444 13.6757L13.1166 14.1648ZM14.5562 11.5979L13.684 11.1087L14.5562 11.5979ZM14.3363 10.8162L14.8254 9.94401L14.8254 9.94401L14.3363 10.8162ZM13.5546 11.0362L12.6824 10.547L13.5546 11.0362ZM12.714 12.535L13.5862 13.0242L12.9404 14.1756L12.0069 13.2421L12.714 12.535ZM12.2509 12.0719L11.5438 12.779L11.5438 12.779L12.2509 12.0719ZM10.9301 11.8692L10.9301 6.5627L12.9301 6.5627L12.9301 11.8692L10.9301 11.8692ZM10.9301 6.5627C10.9301 6.81426 11.134 7.01818 11.3856 7.01818L11.3856 5.01818C12.2386 5.01818 12.9301 5.70969 12.9301 6.5627L10.9301 6.5627ZM11.3856 7.01818C11.6371 7.01818 11.841 6.81426 11.841 6.5627L9.84103 6.5627C9.84103 5.70969 10.5325 5.01818 11.3856 5.01818L11.3856 7.01818ZM11.841 6.5627L11.841 10.496L9.84103 10.496L9.84103 6.5627L11.841 6.5627ZM10.8886 11.4949L10.4374 11.5164L10.3422 9.51864L10.7935 9.49715L10.8886 11.4949ZM9.3898 10.5175L9.3898 5.54452L11.3898 5.54453L11.3898 10.5175L9.3898 10.5175ZM9.3898 5.54452C9.3898 5.79608 9.59372 6 9.84527 6L9.84528 4C10.6983 4 11.3898 4.69151 11.3898 5.54453L9.3898 5.54452ZM9.84527 6C10.0968 6 10.3007 5.79608 10.3007 5.54453L8.30075 5.54453C8.30075 4.69151 8.99226 4 9.84528 4L9.84527 6ZM10.3007 5.54453L10.3007 10.5694L8.30075 10.5694L8.30075 5.54453L10.3007 5.54453ZM9.34831 11.5682L8.67743 11.6002L8.5823 9.60244L9.25318 9.5705L9.34831 11.5682ZM7.62986 10.6013L7.62986 6.54422L9.62986 6.54422L9.62986 10.6013L7.62986 10.6013ZM7.62986 6.54422C7.62986 6.79577 7.83379 6.99969 8.08534 6.99969L8.08534 4.99969C8.93836 4.99969 9.62986 5.6912 9.62986 6.54422L7.62986 6.54422ZM8.08534 6.99969C8.33689 6.99969 8.54081 6.79577 8.54081 6.54422L6.54081 6.54422C6.54081 5.6912 7.23232 4.99969 8.08534 4.99969L8.08534 6.99969ZM8.54081 6.54422L8.54081 10.6532L6.54081 10.6532L6.54081 6.54422L8.54081 6.54422ZM7.58838 11.652L7.26271 11.6675L7.16758 9.66981L7.49325 9.6543L7.58838 11.652ZM6.21514 10.6687L6.21514 8.06691L8.21514 8.06691L8.21514 10.6687L6.21514 10.6687ZM6.21514 8.06691C6.21514 8.31846 6.41906 8.52238 6.67062 8.52238L6.67062 6.52238C7.52363 6.52238 8.21514 7.21389 8.21514 8.06691L6.21514 8.06691ZM6.67062 8.52238C6.92217 8.52238 7.12609 8.31846 7.12609 8.06691L5.12609 8.06691C5.12609 7.21389 5.8176 6.52238 6.67062 6.52238L6.67062 8.52238ZM7.12609 8.06691L7.12609 14.2595L5.12609 14.2595L5.12609 8.06691L7.12609 8.06691ZM7.12609 14.2595C7.12609 14.2109 7.11813 14.1622 7.10268 14.1158L5.20498 14.7472C5.15353 14.5926 5.12609 14.4282 5.12609 14.2595L7.12609 14.2595ZM7.15176 14.4958L6.99802 16.8826L5.00216 16.7541L5.1559 14.3672L7.15176 14.4958ZM6.03958 15.8191L10.6365 16.0008L10.5575 17.9992L5.9606 17.8175L6.03958 15.8191ZM9.68466 16.5907L9.99415 15.9008L11.8189 16.7195L11.5094 17.4093L9.68466 16.5907ZM10.861 15.3112C10.8628 15.3111 10.8637 15.3108 10.8637 15.3107C10.8637 15.3107 10.8637 15.3107 10.8637 15.3107C10.8637 15.3108 10.8637 15.3107 10.8638 15.3107C10.8638 15.3107 10.8644 15.3102 10.8657 15.309L12.2799 16.7232C11.9117 17.0914 11.4338 17.2872 10.9521 17.3091L10.861 15.3112ZM10.8657 15.309L12.1211 14.0535L13.5354 15.4677L12.2799 16.7232L10.8657 15.309ZM12.1211 14.0535C12.123 14.0516 12.1231 14.0511 12.1229 14.0516C12.1228 14.0517 12.1231 14.0511 12.1233 14.0497L14.11 14.2799C14.0597 14.7135 13.8675 15.1357 13.5354 15.4677L12.1211 14.0535ZM12.2444 13.6757L13.684 11.1087L15.4284 12.087L13.9888 14.654L12.2444 13.6757ZM13.684 11.1087C13.569 11.3138 13.642 11.5734 13.8471 11.6884L14.8254 9.94401C15.5837 10.3693 15.8537 11.3287 15.4284 12.087L13.684 11.1087ZM13.8471 11.6884C14.0522 11.8034 14.3118 11.7304 14.4268 11.5253L12.6824 10.547C13.1077 9.78871 14.0671 9.51874 14.8254 9.94401L13.8471 11.6884ZM14.4268 11.5253L13.5862 13.0242L11.8418 12.0459L12.6824 10.547L14.4268 11.5253ZM12.0069 13.2421L11.5438 12.779L12.958 11.3648L13.4211 11.8279L12.0069 13.2421ZM11.5438 12.779C11.5577 12.7929 11.5761 12.8047 11.5965 12.8119L12.2637 10.9264C12.5183 11.0166 12.7567 11.1635 12.958 11.3648L11.5438 12.779Z" fill="white" mask="url(#path-2-outside-1_83_8)"/>
<path d="M11.0903 12.3511C11.0903 12.3511 10.2016 12.5724 9.72896 12.8956C9.02954 13.3738 8.42731 14.6314 8.42731 14.6314" stroke="white"/>
<line y1="-0.5" x2="1.96331" y2="-0.5" transform="matrix(-0.83205 -0.5547 -0.5547 0.83205 9.81171 13.1679)" stroke="white"/>
<mask id="path-6-outside-2_83_8" maskUnits="userSpaceOnUse" x="15.0001" y="4" width="12" height="15" fill="black">
<rect fill="white" x="15.0001" y="4" width="12" height="15"/>
<path fill-rule="evenodd" clip-rule="evenodd" d="M19.6997 11.8692L19.6997 6.5627C19.6997 6.26197 19.9435 6.01818 20.2443 6.01818C20.545 6.01818 20.7888 6.26197 20.7888 6.5627L20.7888 10.496L21.24 10.5175L21.24 5.54452C21.24 5.24379 21.4838 5 21.7845 5C22.0853 5 22.3291 5.24379 22.3291 5.54453L22.3291 10.5694L23 10.6013L23 6.54422C23 6.24348 23.2438 5.99969 23.5445 5.99969C23.8452 5.99969 24.089 6.24348 24.089 6.54422L24.089 10.6532L24.4147 10.6687L24.4147 8.06691C24.4147 7.76618 24.6585 7.52238 24.9592 7.52238C25.2599 7.52238 25.5037 7.76618 25.5037 8.06691L25.5037 14.2595C25.5037 14.3196 25.494 14.3774 25.476 14.4315L25.6297 16.8183L21.0328 17L20.7233 16.3102C20.481 16.2991 20.242 16.2011 20.057 16.0161L18.8016 14.7606C18.6345 14.5936 18.5384 14.3825 18.5132 14.1648L17.0736 11.5979C16.9185 11.3213 17.017 10.9713 17.2936 10.8162C17.5701 10.6611 17.9201 10.7596 18.0752 11.0362L18.9158 12.535L19.3789 12.0719C19.4727 11.9782 19.5826 11.9106 19.6997 11.8692Z"/>
</mask>
<path d="M19.6997 11.8692L20.0333 12.8119L20.6997 12.5761L20.6997 11.8692L19.6997 11.8692ZM19.6997 6.5627L20.6997 6.5627L19.6997 6.5627ZM20.7888 10.496L19.7888 10.496L19.7888 11.4495L20.7412 11.4949L20.7888 10.496ZM21.24 10.5175L21.1925 11.5164L22.24 11.5663L22.24 10.5175L21.24 10.5175ZM21.24 5.54452L22.24 5.54452L21.24 5.54452ZM22.3291 10.5694L21.3291 10.5694L21.3291 11.5229L22.2815 11.5682L22.3291 10.5694ZM23 10.6013L22.9524 11.6002L24 11.6501L24 10.6013L23 10.6013ZM24.089 10.6532L23.089 10.6532L23.089 11.6067L24.0414 11.652L24.089 10.6532ZM24.4147 10.6687L24.3671 11.6675L25.4147 11.7174L25.4147 10.6687L24.4147 10.6687ZM25.476 14.4315L24.5271 14.1158L24.4655 14.301L24.4781 14.4958L25.476 14.4315ZM25.6297 16.8183L25.6692 17.8175L26.6936 17.7771L26.6277 16.7541L25.6297 16.8183ZM21.0328 17L20.1204 17.4093L20.397 18.0259L21.0723 17.9992L21.0328 17ZM20.7233 16.3102L21.6357 15.9008L21.3837 15.3392L20.7689 15.3112L20.7233 16.3102ZM20.057 16.0161L19.3499 16.7232L19.3499 16.7232L20.057 16.0161ZM18.8016 14.7606L19.5087 14.0535L19.5087 14.0535L18.8016 14.7606ZM18.5132 14.1648L19.5066 14.0497L19.4835 13.8506L19.3854 13.6757L18.5132 14.1648ZM17.0736 11.5979L17.9458 11.1087L17.0736 11.5979ZM17.2936 10.8162L16.8044 9.94401L16.8044 9.94401L17.2936 10.8162ZM18.0752 11.0362L18.9474 10.547L18.0752 11.0362ZM18.9158 12.535L18.0436 13.0242L18.6894 14.1756L19.6229 13.2421L18.9158 12.535ZM19.3789 12.0719L20.0861 12.779L20.0861 12.779L19.3789 12.0719ZM20.6997 11.8692L20.6997 6.5627L18.6997 6.5627L18.6997 11.8692L20.6997 11.8692ZM20.6997 6.5627C20.6997 6.81426 20.4958 7.01818 20.2443 7.01818L20.2443 5.01818C19.3912 5.01818 18.6997 5.70969 18.6997 6.5627L20.6997 6.5627ZM20.2443 7.01818C19.9927 7.01818 19.7888 6.81426 19.7888 6.5627L21.7888 6.5627C21.7888 5.70969 21.0973 5.01818 20.2443 5.01818L20.2443 7.01818ZM19.7888 6.5627L19.7888 10.496L21.7888 10.496L21.7888 6.5627L19.7888 6.5627ZM20.7412 11.4949L21.1925 11.5164L21.2876 9.51864L20.8364 9.49715L20.7412 11.4949ZM22.24 10.5175L22.24 5.54452L20.24 5.54453L20.24 10.5175L22.24 10.5175ZM22.24 5.54452C22.24 5.79608 22.0361 6 21.7845 6L21.7845 4C20.9315 4 20.24 4.69151 20.24 5.54453L22.24 5.54452ZM21.7845 6C21.533 6 21.3291 5.79608 21.3291 5.54453L23.3291 5.54453C23.3291 4.69151 22.6376 4 21.7845 4L21.7845 6ZM21.3291 5.54453L21.3291 10.5694L23.3291 10.5694L23.3291 5.54453L21.3291 5.54453ZM22.2815 11.5682L22.9524 11.6002L23.0475 9.60244L22.3766 9.5705L22.2815 11.5682ZM24 10.6013L24 6.54422L22 6.54422L22 10.6013L24 10.6013ZM24 6.54422C24 6.79577 23.796 6.99969 23.5445 6.99969L23.5445 4.99969C22.6915 4.99969 22 5.6912 22 6.54422L24 6.54422ZM23.5445 6.99969C23.2929 6.99969 23.089 6.79577 23.089 6.54422L25.089 6.54422C25.089 5.6912 24.3975 4.99969 23.5445 4.99969L23.5445 6.99969ZM23.089 6.54422L23.089 10.6532L25.089 10.6532L25.089 6.54422L23.089 6.54422ZM24.0414 11.652L24.3671 11.6675L24.4622 9.66981L24.1366 9.6543L24.0414 11.652ZM25.4147 10.6687L25.4147 8.06691L23.4147 8.06691L23.4147 10.6687L25.4147 10.6687ZM25.4147 8.06691C25.4147 8.31846 25.2108 8.52238 24.9592 8.52238L24.9592 6.52238C24.1062 6.52238 23.4147 7.21389 23.4147 8.06691L25.4147 8.06691ZM24.9592 8.52238C24.7077 8.52238 24.5037 8.31846 24.5037 8.06691L26.5037 8.06691C26.5037 7.21389 25.8122 6.52238 24.9592 6.52238L24.9592 8.52238ZM24.5037 8.06691L24.5037 14.2595L26.5037 14.2595L26.5037 8.06691L24.5037 8.06691ZM24.5037 14.2595C24.5037 14.2109 24.5117 14.1622 24.5271 14.1158L26.4248 14.7472C26.4763 14.5926 26.5037 14.4282 26.5037 14.2595L24.5037 14.2595ZM24.4781 14.4958L24.6318 16.8826L26.6277 16.7541L26.4739 14.3672L24.4781 14.4958ZM25.5902 15.8191L20.9933 16.0008L21.0723 17.9992L25.6692 17.8175L25.5902 15.8191ZM21.9452 16.5907L21.6357 15.9008L19.8109 16.7195L20.1204 17.4093L21.9452 16.5907ZM20.7689 15.3112C20.7671 15.3111 20.7662 15.3108 20.7661 15.3107C20.7661 15.3107 20.7661 15.3107 20.7661 15.3107C20.7661 15.3108 20.7661 15.3107 20.7661 15.3107C20.766 15.3107 20.7654 15.3102 20.7642 15.309L19.3499 16.7232C19.7181 17.0914 20.1961 17.2872 20.6777 17.3091L20.7689 15.3112ZM20.7642 15.309L19.5087 14.0535L18.0945 15.4677L19.3499 16.7232L20.7642 15.309ZM19.5087 14.0535C19.5068 14.0516 19.5067 14.0511 19.507 14.0516C19.507 14.0517 19.5067 14.0511 19.5066 14.0497L17.5198 14.2799C17.5701 14.7135 17.7624 15.1357 18.0945 15.4677L19.5087 14.0535ZM19.3854 13.6757L17.9458 11.1087L16.2014 12.087L17.641 14.654L19.3854 13.6757ZM17.9458 11.1087C18.0608 11.3138 17.9878 11.5734 17.7827 11.6884L16.8044 9.94401C16.0461 10.3693 15.7761 11.3287 16.2014 12.087L17.9458 11.1087ZM17.7827 11.6884C17.5776 11.8034 17.3181 11.7304 17.203 11.5253L18.9474 10.547C18.5222 9.78871 17.5627 9.51874 16.8044 9.94401L17.7827 11.6884ZM17.203 11.5253L18.0436 13.0242L19.788 12.0459L18.9474 10.547L17.203 11.5253ZM19.6229 13.2421L20.0861 12.779L18.6718 11.3648L18.2087 11.8279L19.6229 13.2421ZM20.0861 12.779C20.0722 12.7929 20.0537 12.8047 20.0333 12.8119L19.3662 10.9264C19.1115 11.0166 18.8732 11.1635 18.6718 11.3648L20.0861 12.779Z" fill="white" mask="url(#path-6-outside-2_83_8)"/>
<path d="M20.5395 12.3511C20.5395 12.3511 21.4282 12.5724 21.9009 12.8956C22.6003 13.3738 23.2025 14.6314 23.2025 14.6314" stroke="white"/>
<line x1="21.5408" y1="12.7519" x2="23.1743" y2="11.6628" stroke="white"/>
<line y1="-1.5" x2="11.6619" y2="-1.5" transform="matrix(-0.514496 0.857493 -0.803557 -0.595228 10 19)" stroke="white" stroke-width="3"/>
<line y1="-1.5" x2="13.4536" y2="-1.5" transform="matrix(-0.668965 0.743294 -0.668965 -0.743294 13 19)" stroke="white" stroke-width="3"/>
</svg>
