<svg width="32" height="32" viewBox="0 0 32 32" fill="none" xmlns="http://www.w3.org/2000/svg">
<rect x="3" y="3" width="26" height="26" rx="2" stroke="white" stroke-width="2"/>
<path d="M18.3118 18.5316C18.6054 18.9994 19.2226 19.1406 19.6904 18.847C20.1582 18.5534 20.2994 17.9362 20.0058 17.4684L18.3118 18.5316ZM10.153 5.53158L18.3118 18.5316L20.0058 17.4684L11.847 4.46842L10.153 5.53158Z" fill="white"/>
<path d="M16.4673 24.7921L14.0179 23.3778" stroke="white" stroke-width="2" stroke-linecap="round"/>
<path d="M9 20.1058L20.5911 17L9 20.1058ZM23.1362 20.7028C23.6743 22.7111 22.4825 24.7754 20.4741 25.3136L13.9683 27.0568C11.8345 27.6286 9.64112 26.3622 9.06935 24.2284L11.0012 23.7107C11.2871 24.7777 12.3838 25.4108 13.4507 25.1249L19.2462 23.572C20.0464 23.3576 20.4634 22.3189 20.1775 21.2519L23.1362 20.7028ZM13.9683 27.0568C11.8345 27.6286 9.64112 26.3622 9.06935 24.2284C8.49758 22.0945 9.76391 19.9011 11.8978 19.3294C10.8308 19.6153 10.3136 21.1444 10.7424 22.7448L11.0012 23.7107C11.2871 24.7777 12.3838 25.4108 13.4507 25.1249L13.9683 27.0568ZM17.949 17.708C20.2084 17.1026 22.5308 18.4434 23.1362 20.7028C23.6743 22.7111 22.4825 24.7754 20.4741 25.3136L19.2462 23.572C20.0464 23.3576 20.4634 22.3189 20.1775 21.2519L19.9187 20.286C19.4899 18.6856 18.4935 17.5621 17.6933 17.7765L17.949 17.708Z" fill="white"/>
</svg>
