<svg width="32" height="32" viewBox="0 0 32 32" fill="none" xmlns="http://www.w3.org/2000/svg">
<rect x="3" y="3" width="26" height="17" rx="2" stroke="white" stroke-width="2"/>
<line y1="-1.5" x2="11.6619" y2="-1.5" transform="matrix(-0.514496 0.857493 -0.803557 -0.595228 10 19)" stroke="white" stroke-width="3"/>
<line y1="-1.5" x2="13.4536" y2="-1.5" transform="matrix(-0.668965 0.743294 -0.668965 -0.743294 13 19)" stroke="white" stroke-width="3"/>
<path d="M9.39 16.11C9.07667 16.11 8.83333 16.0233 8.66 15.85C8.48667 15.6767 8.4 15.43 8.4 15.11C8.4 14.8167 8.49 14.5767 8.67 14.39C8.85667 14.2033 9.09667 14.11 9.39 14.11C9.70333 14.11 9.94667 14.1967 10.12 14.37C10.2933 14.5433 10.38 14.79 10.38 15.11C10.38 15.4033 10.2867 15.6433 10.1 15.83C9.92 16.0167 9.68333 16.11 9.39 16.11ZM15.6693 16.11C15.356 16.11 15.1126 16.0233 14.9393 15.85C14.766 15.6767 14.6793 15.43 14.6793 15.11C14.6793 14.8167 14.7693 14.5767 14.9493 14.39C15.136 14.2033 15.376 14.11 15.6693 14.11C15.9826 14.11 16.226 14.1967 16.3993 14.37C16.5726 14.5433 16.6593 14.79 16.6593 15.11C16.6593 15.4033 16.566 15.6433 16.3793 15.83C16.1993 16.0167 15.9626 16.11 15.6693 16.11ZM21.9486 16.11C21.6353 16.11 21.3919 16.0233 21.2186 15.85C21.0453 15.6767 20.9586 15.43 20.9586 15.11C20.9586 14.8167 21.0486 14.5767 21.2286 14.39C21.4153 14.2033 21.6553 14.11 21.9486 14.11C22.2619 14.11 22.5053 14.1967 22.6786 14.37C22.8519 14.5433 22.9386 14.79 22.9386 15.11C22.9386 15.4033 22.8453 15.6433 22.6586 15.83C22.4786 16.0167 22.2419 16.11 21.9486 16.11Z" fill="white"/>
</svg>
