<svg width="32" height="32" viewBox="0 0 32 32" fill="none" xmlns="http://www.w3.org/2000/svg">
<mask id="path-1-outside-1_8_210" maskUnits="userSpaceOnUse" x="1" y="3" width="28" height="21" fill="black">
<rect fill="white" x="1" y="3" width="28" height="21"/>
<path fill-rule="evenodd" clip-rule="evenodd" d="M7 8C7 6.34315 8.34315 5 10 5H12C13.6569 5 15 6.34315 15 8H16.1707C16.5825 6.83481 17.6938 6 19 6H21C22.6569 6 24 7.34315 24 9V11C25.6569 11 27 12.3431 27 14V16C27 17.6569 25.6569 19 24 19H23C23 20.6569 21.6569 22 20 22H18C16.42 22 15.1253 20.7786 15.0086 19.2284C14.4768 19.708 13.7725 20 13 20H11C9.34315 20 8 18.6569 8 17H6C4.34315 17 3 15.6569 3 14V12C3 10.3431 4.34315 9 6 9H7V8Z"/>
</mask>
<path d="M15 8H13V10H15V8ZM16.1707 8V10H17.5851L18.0564 8.66649L16.1707 8ZM24 11H22V13H24V11ZM23 19V17H21V19H23ZM15.0086 19.2284L17.0029 19.0783L16.6968 15.0124L13.6691 17.7432L15.0086 19.2284ZM8 17H10V15H8V17ZM7 9V11H9V9H7ZM10 3C7.23858 3 5 5.23858 5 8H9C9 7.44772 9.44772 7 10 7V3ZM12 3H10V7H12V3ZM17 8C17 5.23858 14.7614 3 12 3V7C12.5523 7 13 7.44772 13 8H17ZM16.1707 6H15V10H16.1707V6ZM18.0564 8.66649C18.1946 8.2754 18.5677 8 19 8V4C16.8198 4 14.9705 5.39422 14.285 7.33351L18.0564 8.66649ZM19 8H21V4H19V8ZM21 8C21.5523 8 22 8.44772 22 9H26C26 6.23858 23.7614 4 21 4V8ZM22 9V11H26V9H22ZM29 14C29 11.2386 26.7614 9 24 9V13C24.5523 13 25 13.4477 25 14H29ZM29 16V14H25V16H29ZM24 21C26.7614 21 29 18.7614 29 16H25C25 16.5523 24.5523 17 24 17V21ZM23 21H24V17H23V21ZM20 24C22.7614 24 25 21.7614 25 19H21C21 19.5523 20.5523 20 20 20V24ZM18 24H20V20H18V24ZM13.0142 19.3786C13.2089 21.9642 15.3657 24 18 24V20C17.4742 20 17.0417 19.593 17.0029 19.0783L13.0142 19.3786ZM13 22C14.2863 22 15.4632 21.5117 16.3481 20.7136L13.6691 17.7432C13.4904 17.9044 13.2587 18 13 18V22ZM11 22H13V18H11V22ZM6 17C6 19.7614 8.23858 22 11 22V18C10.4477 18 10 17.5523 10 17H6ZM6 19H8V15H6V19ZM1 14C1 16.7614 3.23858 19 6 19V15C5.44772 15 5 14.5523 5 14H1ZM1 12V14H5V12H1ZM6 7C3.23858 7 1 9.23858 1 12H5C5 11.4477 5.44772 11 6 11V7ZM7 7H6V11H7V7ZM5 8V9H9V8H5Z" fill="white" mask="url(#path-1-outside-1_8_210)"/>
<path d="M9.39 16.11C9.07667 16.11 8.83333 16.0233 8.66 15.85C8.48667 15.6767 8.4 15.43 8.4 15.11C8.4 14.8167 8.49 14.5767 8.67 14.39C8.85667 14.2033 9.09667 14.11 9.39 14.11C9.70333 14.11 9.94667 14.1967 10.12 14.37C10.2933 14.5433 10.38 14.79 10.38 15.11C10.38 15.4033 10.2867 15.6433 10.1 15.83C9.92 16.0167 9.68333 16.11 9.39 16.11ZM15.6693 16.11C15.356 16.11 15.1126 16.0233 14.9393 15.85C14.766 15.6767 14.6793 15.43 14.6793 15.11C14.6793 14.8167 14.7693 14.5767 14.9493 14.39C15.136 14.2033 15.376 14.11 15.6693 14.11C15.9826 14.11 16.226 14.1967 16.3993 14.37C16.5726 14.5433 16.6593 14.79 16.6593 15.11C16.6593 15.4033 16.566 15.6433 16.3793 15.83C16.1993 16.0167 15.9626 16.11 15.6693 16.11ZM21.9486 16.11C21.6353 16.11 21.3919 16.0233 21.2186 15.85C21.0453 15.6767 20.9586 15.43 20.9586 15.11C20.9586 14.8167 21.0486 14.5767 21.2286 14.39C21.4153 14.2033 21.6553 14.11 21.9486 14.11C22.2619 14.11 22.5053 14.1967 22.6786 14.37C22.8519 14.5433 22.9386 14.79 22.9386 15.11C22.9386 15.4033 22.8453 15.6433 22.6586 15.83C22.4786 16.0167 22.2419 16.11 21.9486 16.11Z" fill="white"/>
<rect x="9" y="23" width="4" height="4" rx="2" stroke="white" stroke-width="2"/>
<rect x="4" y="26" width="3" height="3" rx="1.5" stroke="white" stroke-width="2"/>
</svg>
