<svg width="32" height="32" viewBox="0 0 32 32" fill="none" xmlns="http://www.w3.org/2000/svg">
<g clip-path="url(#clip0_34_176)">
<rect x="9" y="23" width="4" height="4" rx="2" stroke="white" stroke-width="2"/>
<rect x="4" y="26" width="3" height="3" rx="1.5" stroke="white" stroke-width="2"/>
<mask id="path-3-outside-1_34_176" maskUnits="userSpaceOnUse" x="1.26795" y="-6.73206" width="32.7846" height="32.7846" fill="black">
<rect fill="white" x="1.26795" y="-6.73206" width="32.7846" height="32.7846"/>
<path fill-rule="evenodd" clip-rule="evenodd" d="M6.91667 8.26868C5.30584 11.0587 6.26177 14.6263 9.05181 16.2372L11.2169 17.4872L21.3205 23.3205L27.1538 13.2169L28.4038 11.0518C30.0147 8.26176 29.0587 4.69415 26.2687 3.08332C23.4787 1.47249 19.911 2.42843 18.3002 5.21847L17.0502 7.38353L14.8851 6.13353C12.0951 4.5227 8.5275 5.47864 6.91667 8.26868Z"/>
</mask>
<path d="M21.3205 23.3205L20.3205 25.0525L22.0526 26.0525L23.0526 24.3205L21.3205 23.3205ZM17.0502 7.38353L16.0502 9.11558L17.7823 10.1156L18.7823 8.38353L17.0502 7.38353ZM10.0518 14.5051C8.21836 13.4466 7.59017 11.1021 8.64872 9.26868L5.18462 7.26868C3.0215 11.0153 4.30519 15.8061 8.05181 17.9692L10.0518 14.5051ZM12.2169 15.7551L10.0518 14.5051L8.05181 17.9692L10.2169 19.2192L12.2169 15.7551ZM22.3205 21.5884L12.2169 15.7551L10.2169 19.2192L20.3205 25.0525L22.3205 21.5884ZM25.4218 12.2169L19.5885 22.3205L23.0526 24.3205L28.8859 14.2169L25.4218 12.2169ZM26.6718 10.0518L25.4218 12.2169L28.8859 14.2169L30.1359 12.0518L26.6718 10.0518ZM25.2687 4.81537C27.1021 5.87392 27.7303 8.21835 26.6718 10.0518L30.1359 12.0518C32.299 8.30518 31.0153 3.51438 27.2687 1.35127L25.2687 4.81537ZM20.0323 6.21847C21.0908 4.38501 23.4352 3.75683 25.2687 4.81537L27.2687 1.35127C23.5221 -0.811844 18.7313 0.471842 16.5682 4.21847L20.0323 6.21847ZM18.7823 8.38353L20.0323 6.21847L16.5682 4.21847L15.3182 6.38353L18.7823 8.38353ZM13.8851 7.86558L16.0502 9.11558L18.0502 5.65148L15.8851 4.40148L13.8851 7.86558ZM8.64872 9.26868C9.70726 7.43523 12.0517 6.80704 13.8851 7.86558L15.8851 4.40148C12.1385 2.23837 7.34773 3.52206 5.18462 7.26868L8.64872 9.26868Z" fill="white" mask="url(#path-3-outside-1_34_176)"/>
<path d="M21.0811 13.0271C20.8661 12.5132 20.642 11.9824 20.4089 11.4346C20.1757 10.8867 19.9573 10.3401 19.7536 9.79452C19.5567 9.23765 19.3914 8.6921 19.2579 8.15787L18.9693 7.0034L21.8759 6.27684L22.1644 7.43131C22.298 7.96554 22.4044 8.5258 22.4836 9.11209C22.5696 9.68707 22.6386 10.2711 22.6907 10.8642C22.7427 11.4573 22.7948 12.0311 22.8468 12.5857L21.0811 13.0271ZM22.918 16.5652C22.4924 16.6716 22.1325 16.6365 21.8382 16.4599C21.544 16.2834 21.3425 15.9778 21.2339 15.5431C21.1343 15.1447 21.175 14.7882 21.3561 14.4736C21.5463 14.1566 21.8406 13.9484 22.239 13.8488C22.6645 13.7424 23.0245 13.7775 23.3187 13.9541C23.613 14.1307 23.8145 14.4363 23.9231 14.8709C24.0227 15.2693 23.9774 15.627 23.7873 15.9439C23.6062 16.2585 23.3164 16.4656 22.918 16.5652Z" fill="white"/>
</g>
<defs>
<clipPath id="clip0_34_176">
<rect width="32" height="32" fill="white"/>
</clipPath>
</defs>
</svg>
