<svg width="32" height="32" viewBox="0 0 32 32" fill="none" xmlns="http://www.w3.org/2000/svg">
<mask id="path-1-outside-1_43_941" maskUnits="userSpaceOnUse" x="1" y="5" width="30" height="23" fill="black">
<rect fill="white" x="1" y="5" width="30" height="23"/>
<path fill-rule="evenodd" clip-rule="evenodd" d="M7.33333 10C7.33333 8.34315 8.67648 7 10.3333 7H13C14.6569 7 16 8.34315 16 10V10.3529H17.1817C17.5198 9.06649 18.6908 8.11765 20.0833 8.11765H22.75C24.4069 8.11765 25.75 9.46079 25.75 11.1176V13.7059H26C27.6569 13.7059 29 15.049 29 16.7059V19.6471C29 21.3039 27.6569 22.6471 26 22.6471H24.6667V23C24.6667 24.6569 23.3235 26 21.6667 26H19C17.3672 26 16.0391 24.6956 16.0009 23.072C15.4809 23.5046 14.8125 23.7647 14.0833 23.7647H11.4167C9.75981 23.7647 8.41667 22.4216 8.41667 20.7647V20.4118H6C4.34315 20.4118 3 19.0686 3 17.4118V14.4706C3 12.8137 4.34315 11.4706 6 11.4706H7.33333V10Z"/>
</mask>
<path d="M16 10.3529H14V12.3529H16V10.3529ZM17.1817 10.3529V12.3529H18.7239L19.116 10.8613L17.1817 10.3529ZM25.75 13.7059H23.75V15.7059H25.75V13.7059ZM24.6667 22.6471V20.6471H22.6667V22.6471H24.6667ZM16.0009 23.072L18.0003 23.0249L17.9029 18.8879L14.7217 21.5345L16.0009 23.072ZM8.41667 20.4118H10.4167V18.4118H8.41667V20.4118ZM7.33333 11.4706V13.4706H9.33333V11.4706H7.33333ZM10.3333 5C7.57191 5 5.33333 7.23858 5.33333 10H9.33333C9.33333 9.44772 9.78105 9 10.3333 9V5ZM13 5H10.3333V9H13V5ZM18 10C18 7.23858 15.7614 5 13 5V9C13.5523 9 14 9.44771 14 10H18ZM18 10.3529V10H14V10.3529H18ZM17.1817 8.35294H16V12.3529H17.1817V8.35294ZM19.116 10.8613C19.2288 10.432 19.6219 10.1176 20.0833 10.1176V6.11765C17.7596 6.11765 15.8108 7.70102 15.2474 9.84455L19.116 10.8613ZM20.0833 10.1176H22.75V6.11765H20.0833V10.1176ZM22.75 10.1176C23.3023 10.1176 23.75 10.5654 23.75 11.1176H27.75C27.75 8.35622 25.5114 6.11765 22.75 6.11765V10.1176ZM23.75 11.1176V13.7059H27.75V11.1176H23.75ZM26 11.7059H25.75V15.7059H26V11.7059ZM31 16.7059C31 13.9445 28.7614 11.7059 26 11.7059V15.7059C26.5523 15.7059 27 16.1536 27 16.7059H31ZM31 19.6471V16.7059H27V19.6471H31ZM26 24.6471C28.7614 24.6471 31 22.4085 31 19.6471H27C27 20.1993 26.5523 20.6471 26 20.6471V24.6471ZM24.6667 24.6471H26V20.6471H24.6667V24.6471ZM26.6667 23V22.6471H22.6667V23H26.6667ZM21.6667 28C24.4281 28 26.6667 25.7614 26.6667 23H22.6667C22.6667 23.5523 22.219 24 21.6667 24V28ZM19 28H21.6667V24H19V28ZM14.0014 23.1191C14.0652 25.826 16.2784 28 19 28V24C18.456 24 18.013 23.5652 18.0003 23.0249L14.0014 23.1191ZM14.0833 25.7647C15.2969 25.7647 16.4142 25.3298 17.28 24.6095L14.7217 21.5345C14.5477 21.6793 14.3281 21.7647 14.0833 21.7647V25.7647ZM11.4167 25.7647H14.0833V21.7647H11.4167V25.7647ZM6.41667 20.7647C6.41667 23.5261 8.65524 25.7647 11.4167 25.7647V21.7647C10.8644 21.7647 10.4167 21.317 10.4167 20.7647H6.41667ZM6.41667 20.4118V20.7647H10.4167V20.4118H6.41667ZM6 22.4118H8.41667V18.4118H6V22.4118ZM1 17.4118C1 20.1732 3.23858 22.4118 6 22.4118V18.4118C5.44771 18.4118 5 17.964 5 17.4118H1ZM1 14.4706V17.4118H5V14.4706H1ZM6 9.47059C3.23858 9.47059 1 11.7092 1 14.4706H5C5 13.9183 5.44772 13.4706 6 13.4706V9.47059ZM7.33333 9.47059H6V13.4706H7.33333V9.47059ZM5.33333 10V11.4706H9.33333V10H5.33333Z" fill="white" mask="url(#path-1-outside-1_43_941)"/>
</svg>
