<svg width="32" height="32" viewBox="0 0 32 32" fill="none" xmlns="http://www.w3.org/2000/svg">
<path fill-rule="evenodd" clip-rule="evenodd" d="M20.742 11.8648C23.3051 13.3446 26.5825 12.4664 28.0623 9.90336C29.5421 7.34028 28.6639 4.06287 26.1008 2.58308C25.0751 1.99088 23.935 1.77632 22.8415 1.89624C23.067 1.98051 23.2887 2.08454 23.5042 2.20895C25.6012 3.41969 26.3197 6.1012 25.109 8.19827C23.8982 10.2953 21.2167 11.0138 19.1197 9.8031C18.9042 9.67869 18.7032 9.53874 18.5175 9.38549C18.9604 10.3925 19.7162 11.2726 20.742 11.8648Z" fill="white"/>
<mask id="path-2-outside-1_42_743" maskUnits="userSpaceOnUse" x="3" y="10" width="28" height="21" fill="black">
<rect fill="white" x="3" y="10" width="28" height="21"/>
<path fill-rule="evenodd" clip-rule="evenodd" d="M9 15C9 13.3431 10.3431 12 12 12H14C15.6569 12 17 13.3431 17 15H18.1707C18.5825 13.8348 19.6938 13 21 13H23C24.6569 13 26 14.3431 26 16V18C27.6569 18 29 19.3431 29 21V23C29 24.6569 27.6569 26 26 26H25C25 27.6569 23.6569 29 22 29H20C18.42 29 17.1253 27.7786 17.0086 26.2284C16.4768 26.708 15.7725 27 15 27H13C11.3431 27 10 25.6569 10 24H8C6.34315 24 5 22.6569 5 21V19C5 17.3431 6.34315 16 8 16H9V15Z"/>
</mask>
<path d="M17 15H15V17H17V15ZM18.1707 15V17H19.5851L20.0564 15.6665L18.1707 15ZM26 18H24V20H26V18ZM25 26V24H23V26H25ZM17.0086 26.2284L19.0029 26.0783L18.6968 22.0124L15.6691 24.7432L17.0086 26.2284ZM10 24H12V22H10V24ZM9 16V18H11V16H9ZM12 10C9.23858 10 7 12.2386 7 15H11C11 14.4477 11.4477 14 12 14V10ZM14 10H12V14H14V10ZM19 15C19 12.2386 16.7614 10 14 10V14C14.5523 14 15 14.4477 15 15H19ZM18.1707 13H17V17H18.1707V13ZM20.0564 15.6665C20.1946 15.2754 20.5677 15 21 15V11C18.8198 11 16.9705 12.3942 16.285 14.3335L20.0564 15.6665ZM21 15H23V11H21V15ZM23 15C23.5523 15 24 15.4477 24 16H28C28 13.2386 25.7614 11 23 11V15ZM24 16V18H28V16H24ZM31 21C31 18.2386 28.7614 16 26 16V20C26.5523 20 27 20.4477 27 21H31ZM31 23V21H27V23H31ZM26 28C28.7614 28 31 25.7614 31 23H27C27 23.5523 26.5523 24 26 24V28ZM25 28H26V24H25V28ZM22 31C24.7614 31 27 28.7614 27 26H23C23 26.5523 22.5523 27 22 27V31ZM20 31H22V27H20V31ZM15.0142 26.3786C15.2089 28.9642 17.3657 31 20 31V27C19.4742 27 19.0417 26.593 19.0029 26.0783L15.0142 26.3786ZM15 29C16.2863 29 17.4632 28.5117 18.3481 27.7136L15.6691 24.7432C15.4904 24.9044 15.2587 25 15 25V29ZM13 29H15V25H13V29ZM8 24C8 26.7614 10.2386 29 13 29V25C12.4477 25 12 24.5523 12 24H8ZM8 26H10V22H8V26ZM3 21C3 23.7614 5.23858 26 8 26V22C7.44772 22 7 21.5523 7 21H3ZM3 19V21H7V19H3ZM8 14C5.23858 14 3 16.2386 3 19H7C7 18.4477 7.44772 18 8 18V14ZM9 14H8V18H9V14ZM7 15V16H11V15H7Z" fill="white" mask="url(#path-2-outside-1_42_743)"/>
<path d="M8 1L9.29904 3.25H6.70096L8 1Z" fill="white"/>
<path d="M1.93781 4.50003L4.53588 4.50003L3.23684 6.75003L1.93781 4.50003Z" fill="white"/>
<path d="M4.5 1.93787L6.75 3.2369L4.5 4.53594L4.5 1.93787Z" fill="white"/>
<path d="M14.0622 4.49997L12.7632 6.74997L11.4641 4.49997L14.0622 4.49997Z" fill="white"/>
<path d="M11.5 1.93781L11.5 4.53588L9.25 3.23684L11.5 1.93781Z" fill="white"/>
<path d="M15 8L12.75 9.29904L12.75 6.70096L15 8Z" fill="white"/>
<path d="M8 15L9.29904 12.75H6.70096L8 15Z" fill="white"/>
<path d="M14.0622 11.5L12.7632 9.25003L11.4641 11.5L14.0622 11.5Z" fill="white"/>
<path d="M1.93781 11.5L4.53588 11.5L3.23684 9.24997L1.93781 11.5Z" fill="white"/>
<path d="M4.5 14.0621L6.75 12.7631L4.5 11.4641L4.5 14.0621Z" fill="white"/>
<path d="M1 8L3.25 9.29904L3.25 6.70096L1 8Z" fill="white"/>
<circle cx="8" cy="8" r="4" fill="white"/>
</svg>
