<svg width="32" height="32" viewBox="0 0 32 32" fill="none" xmlns="http://www.w3.org/2000/svg">
<mask id="path-1-outside-1_338_3524" maskUnits="userSpaceOnUse" x="1" y="2" width="30" height="16" fill="black">
<rect fill="white" x="1" y="2" width="30" height="16"/>
<path fill-rule="evenodd" clip-rule="evenodd" d="M7.33331 6.82352C7.33332 5.26413 8.59745 4 10.1568 4H13.1765C14.4921 4 15.5976 4.89984 15.911 6.11764H17.4611C17.9493 5.27369 18.8617 4.70588 19.9068 4.70588H22.9265C24.4858 4.70588 25.75 5.97002 25.75 7.52941C25.75 7.77315 25.7191 8.00968 25.661 8.23529H26.1765C27.7358 8.23529 29 9.49942 29 11.0588C29 12.6182 27.7358 13.8823 26.1765 13.8823H24.5777C24.2643 15.1002 23.1588 16 21.8431 16H18.8235C17.5177 16 16.4189 15.1136 16.0961 13.9096C15.6024 14.3327 14.961 14.5882 14.2598 14.5882H11.2402C9.92457 14.5882 8.81908 13.6884 8.50564 12.4706H5.82353C4.26414 12.4706 3 11.2064 3 9.64705C3 8.08766 4.26414 6.82352 5.82353 6.82352H7.33331Z"/>
</mask>
<path d="M7.33331 6.82352V8.82352H9.33331L9.33331 6.82353L7.33331 6.82352ZM15.911 6.11764L13.9742 6.61616L14.3606 8.11764H15.911V6.11764ZM17.4611 6.11764V8.11764H18.6146L19.1923 7.1191L17.4611 6.11764ZM25.661 8.23529L23.7242 7.73678L23.0811 10.2353H25.661V8.23529ZM24.5777 13.8823V11.8823H23.0273L22.6408 13.3838L24.5777 13.8823ZM16.0961 13.9096L18.0279 13.3916L17.2056 10.325L14.7947 12.3909L16.0961 13.9096ZM8.50564 12.4706L10.4425 11.9721L10.0561 10.4706H8.50564V12.4706ZM10.1568 2C7.49288 2 5.33332 4.15956 5.33331 6.82352L9.33331 6.82353C9.33331 6.36871 9.70202 6 10.1568 6V2ZM13.1765 2H10.1568V6H13.1765V2ZM17.8479 5.61912C17.3125 3.53914 15.4268 2 13.1765 2V6C13.5574 6 13.8826 6.26054 13.9742 6.61616L17.8479 5.61912ZM17.4611 4.11764H15.911V8.11764H17.4611V4.11764ZM19.1923 7.1191C19.3377 6.86773 19.6045 6.70588 19.9068 6.70588V2.70588C18.1189 2.70588 16.5608 3.67965 15.7298 5.11619L19.1923 7.1191ZM19.9068 6.70588H22.9265V2.70588H19.9068V6.70588ZM22.9265 6.70588C23.3813 6.70588 23.75 7.07459 23.75 7.52941H27.75C27.75 4.86545 25.5904 2.70588 22.9265 2.70588V6.70588ZM23.75 7.52941C23.75 7.60357 23.7407 7.67264 23.7242 7.73678L27.5979 8.73379C27.6975 8.34671 27.75 7.94273 27.75 7.52941H23.75ZM26.1765 6.23529H25.661V10.2353H26.1765V6.23529ZM31 11.0588C31 8.39485 28.8404 6.23529 26.1765 6.23529V10.2353C26.6313 10.2353 27 10.604 27 11.0588H31ZM26.1765 15.8823C28.8404 15.8823 31 13.7228 31 11.0588H27C27 11.5136 26.6313 11.8823 26.1765 11.8823V15.8823ZM24.5777 15.8823H26.1765V11.8823H24.5777V15.8823ZM21.8431 18C24.0935 18 25.9793 16.4609 26.5146 14.3809L22.6408 13.3838C22.5493 13.7395 22.2241 14 21.8431 14V18ZM18.8235 18H21.8431V14H18.8235V18ZM14.1644 14.4276C14.7156 16.4836 16.5899 18 18.8235 18V14C18.4455 14 18.1222 13.7435 18.0279 13.3916L14.1644 14.4276ZM14.2598 16.5882C15.4561 16.5882 16.5551 16.1502 17.3975 15.4283L14.7947 12.3909C14.6498 12.5151 14.4659 12.5882 14.2598 12.5882V16.5882ZM11.2402 16.5882H14.2598V12.5882H11.2402V16.5882ZM6.56877 12.9691C7.10412 15.0491 8.98991 16.5882 11.2402 16.5882V12.5882C10.8592 12.5882 10.534 12.3277 10.4425 11.9721L6.56877 12.9691ZM5.82353 14.4706H8.50564V10.4706H5.82353V14.4706ZM1 9.64705C1 12.311 3.15957 14.4706 5.82353 14.4706V10.4706C5.36871 10.4706 5 10.1019 5 9.64705H1ZM5.82353 4.82352C3.15957 4.82352 1 6.98309 1 9.64705H5C5 9.19223 5.36871 8.82352 5.82353 8.82352V4.82352ZM7.33331 4.82352H5.82353V8.82352H7.33331V4.82352Z" fill="white" mask="url(#path-1-outside-1_338_3524)"/>
<line x1="6.5" y1="19" x2="6.5" y2="25" stroke="white"/>
<line x1="3.65198" y1="20.067" x2="8.84813" y2="23.067" stroke="white"/>
<line x1="4.27332" y1="23.1883" x2="9.46947" y2="20.1883" stroke="white"/>
<line x1="15.4037" y1="24.8109" x2="20.8633" y2="27.2995" stroke="white"/>
<line x1="15.1933" y1="27.8449" x2="20.0783" y2="24.3611" stroke="white"/>
<line x1="18.2912" y1="28.5742" x2="17.7167" y2="22.6018" stroke="white"/>
<line x1="29.2512" y1="23.6259" x2="25.5221" y2="18.9255" stroke="white"/>
<line x1="30.8192" y1="21.0199" x2="24.884" y2="21.8992" stroke="white"/>
<line x1="28.3925" y1="18.9608" x2="26.1864" y2="24.5405" stroke="white"/>
</svg>
