<svg width="32" height="32" viewBox="0 0 32 32" fill="none" xmlns="http://www.w3.org/2000/svg">
<mask id="path-1-outside-1_349_317" maskUnits="userSpaceOnUse" x="2" y="2" width="30" height="16" fill="black">
<rect fill="white" x="2" y="2" width="30" height="16"/>
<path fill-rule="evenodd" clip-rule="evenodd" d="M8.33331 6.82352C8.33332 5.26413 9.59745 4 11.1568 4H14.1765C15.4921 4 16.5976 4.89984 16.911 6.11764H18.4611C18.9493 5.27369 19.8617 4.70588 20.9068 4.70588H23.9265C25.4858 4.70588 26.75 5.97002 26.75 7.52941C26.75 7.77315 26.7191 8.00968 26.661 8.23529H27.1765C28.7358 8.23529 30 9.49942 30 11.0588C30 12.6182 28.7358 13.8823 27.1765 13.8823H25.5777C25.2643 15.1002 24.1588 16 22.8431 16H19.8235C18.5177 16 17.4189 15.1136 17.0961 13.9096C16.6024 14.3327 15.961 14.5882 15.2598 14.5882H12.2402C10.9246 14.5882 9.81908 13.6884 9.50564 12.4706H6.82353C5.26414 12.4706 4 11.2064 4 9.64705C4 8.08766 5.26414 6.82352 6.82353 6.82352H8.33331Z"/>
</mask>
<path d="M8.33331 6.82352V8.82352H10.3333L10.3333 6.82353L8.33331 6.82352ZM16.911 6.11764L14.9742 6.61616L15.3606 8.11764H16.911V6.11764ZM18.4611 6.11764V8.11764H19.6146L20.1923 7.1191L18.4611 6.11764ZM26.661 8.23529L24.7242 7.73678L24.0811 10.2353H26.661V8.23529ZM25.5777 13.8823V11.8823H24.0273L23.6408 13.3838L25.5777 13.8823ZM17.0961 13.9096L19.0279 13.3916L18.2056 10.325L15.7947 12.3909L17.0961 13.9096ZM9.50564 12.4706L11.4425 11.9721L11.0561 10.4706H9.50564V12.4706ZM11.1568 2C8.49288 2 6.33332 4.15956 6.33331 6.82352L10.3333 6.82353C10.3333 6.36871 10.702 6 11.1568 6V2ZM14.1765 2H11.1568V6H14.1765V2ZM18.8479 5.61912C18.3125 3.53914 16.4268 2 14.1765 2V6C14.5574 6 14.8826 6.26054 14.9742 6.61616L18.8479 5.61912ZM18.4611 4.11764H16.911V8.11764H18.4611V4.11764ZM20.1923 7.1191C20.3377 6.86773 20.6045 6.70588 20.9068 6.70588V2.70588C19.1189 2.70588 17.5608 3.67965 16.7298 5.11619L20.1923 7.1191ZM20.9068 6.70588H23.9265V2.70588H20.9068V6.70588ZM23.9265 6.70588C24.3813 6.70588 24.75 7.07459 24.75 7.52941H28.75C28.75 4.86545 26.5904 2.70588 23.9265 2.70588V6.70588ZM24.75 7.52941C24.75 7.60357 24.7407 7.67264 24.7242 7.73678L28.5979 8.73379C28.6975 8.34671 28.75 7.94273 28.75 7.52941H24.75ZM27.1765 6.23529H26.661V10.2353H27.1765V6.23529ZM32 11.0588C32 8.39485 29.8404 6.23529 27.1765 6.23529V10.2353C27.6313 10.2353 28 10.604 28 11.0588H32ZM27.1765 15.8823C29.8404 15.8823 32 13.7228 32 11.0588H28C28 11.5136 27.6313 11.8823 27.1765 11.8823V15.8823ZM25.5777 15.8823H27.1765V11.8823H25.5777V15.8823ZM22.8431 18C25.0935 18 26.9793 16.4609 27.5146 14.3809L23.6408 13.3838C23.5493 13.7395 23.2241 14 22.8431 14V18ZM19.8235 18H22.8431V14H19.8235V18ZM15.1644 14.4276C15.7156 16.4836 17.5899 18 19.8235 18V14C19.4455 14 19.1222 13.7435 19.0279 13.3916L15.1644 14.4276ZM15.2598 16.5882C16.4561 16.5882 17.5551 16.1502 18.3975 15.4283L15.7947 12.3909C15.6498 12.5151 15.4659 12.5882 15.2598 12.5882V16.5882ZM12.2402 16.5882H15.2598V12.5882H12.2402V16.5882ZM7.56877 12.9691C8.10412 15.0491 9.98991 16.5882 12.2402 16.5882V12.5882C11.8592 12.5882 11.534 12.3277 11.4425 11.9721L7.56877 12.9691ZM6.82353 14.4706H9.50564V10.4706H6.82353V14.4706ZM2 9.64705C2 12.311 4.15957 14.4706 6.82353 14.4706V10.4706C6.36871 10.4706 6 10.1019 6 9.64705H2ZM6.82353 4.82352C4.15957 4.82352 2 6.98309 2 9.64705H6C6 9.19223 6.36871 8.82352 6.82353 8.82352V4.82352ZM8.33331 4.82352H6.82353V8.82352H8.33331V4.82352Z" fill="white" mask="url(#path-1-outside-1_349_317)"/>
<path d="M3 22.5054C3 22.5054 6.17085 24.7863 9 24.5054C12.1331 24.1944 13.8546 21.1463 17 21.0054C19.4674 20.895 23 22.5054 23 22.5054" stroke="white" stroke-width="3"/>
<path d="M7 17.2796C7 17.2796 9.21959 19.2184 11.2 18.9796C13.3932 18.7153 14.5983 16.1243 16.8 16.0046C18.5272 15.9107 21 17.2796 21 17.2796" stroke="white" stroke-width="2"/>
<path d="M6 28.2796C6 28.2796 8.21959 30.2184 10.2 29.9796C12.3932 29.7153 13.5983 27.1243 15.8 27.0046C17.5272 26.9107 20 28.2796 20 28.2796" stroke="white" stroke-width="2"/>
</svg>
