<svg width="32" height="32" viewBox="0 0 32 32" fill="none" xmlns="http://www.w3.org/2000/svg">
<path d="M16.24 24.2C14.84 24.2 13.6533 23.92 12.68 23.36C11.7067 22.8 10.9667 21.9867 10.46 20.92C9.95333 19.84 9.7 18.5333 9.7 17C9.7 15.4667 9.95333 14.1667 10.46 13.1C10.9667 12.02 11.7067 11.2 12.68 10.64C13.6533 10.08 14.84 9.8 16.24 9.8C17.64 9.8 18.8267 10.08 19.8 10.64C20.7867 11.2 21.5333 12.02 22.04 13.1C22.5467 14.1667 22.8 15.4667 22.8 17C22.8 18.5333 22.5467 19.84 22.04 20.92C21.5333 21.9867 20.7867 22.8 19.8 23.36C18.8267 23.92 17.64 24.2 16.24 24.2ZM16.24 20.64C17.0267 20.64 17.6333 20.3267 18.06 19.7C18.4867 19.0733 18.7 18.1733 18.7 17C18.7 15.76 18.4867 14.8133 18.06 14.16C17.6333 13.4933 17.0267 13.16 16.24 13.16C15.4533 13.16 14.8467 13.4933 14.42 14.16C13.9933 14.8133 13.78 15.76 13.78 17C13.78 18.1733 13.9933 19.0733 14.42 19.7C14.8467 20.3267 15.4533 20.64 16.24 20.64Z" fill="white"/>
</svg>
