<svg width="32" height="32" viewBox="0 0 32 32" fill="none" xmlns="http://www.w3.org/2000/svg">
<path d="M11.68 24L11 22.36L14.94 18.16C15.18 17.9067 15.44 17.62 15.72 17.3C16 16.9667 16.2733 16.6267 16.54 16.28C16.8067 15.9333 17.02 15.6 17.18 15.28C17.3533 14.96 17.44 14.68 17.44 14.44C17.44 14.3067 17.4 14.18 17.32 14.06C17.24 13.9267 17.1133 13.82 16.94 13.74C16.78 13.6467 16.56 13.6 16.28 13.6C16.0267 13.6 15.7933 13.6533 15.58 13.76C15.38 13.8667 15.1733 14.0467 14.96 14.3C14.76 14.54 14.54 14.8667 14.3 15.28L11.16 13.68C11.4667 12.9067 11.9 12.2133 12.46 11.6C13.02 10.9733 13.66 10.48 14.38 10.12C15.1133 9.76 15.88 9.58667 16.68 9.6C17.5333 9.61333 18.3133 9.8 19.02 10.16C19.7267 10.5067 20.2933 10.9933 20.72 11.62C21.1467 12.2467 21.36 12.98 21.36 13.82C21.36 14.0867 21.3267 14.3667 21.26 14.66C21.2067 14.9533 21.1133 15.26 20.98 15.58C20.86 15.9 20.6933 16.2467 20.48 16.62C20.2667 16.98 20.0067 17.3667 19.7 17.78C19.3933 18.18 19.0333 18.6067 18.62 19.06L15.44 22.52L15.04 20.32H22.12V24H11.68Z" fill="white"/>
</svg>
