<svg width="32" height="32" viewBox="0 0 32 32" fill="none" xmlns="http://www.w3.org/2000/svg">
<path d="M16.28 24.2C15.04 24.2 13.9467 23.96 13 23.48C12.0667 22.9867 11.2333 22.12 10.5 20.88L13.52 18.94C13.7733 19.38 14.0533 19.7267 14.36 19.98C14.6667 20.2333 14.9867 20.42 15.32 20.54C15.6533 20.6467 16 20.7 16.36 20.7C16.6667 20.7 16.9467 20.64 17.2 20.52C17.4533 20.4 17.6533 20.2333 17.8 20.02C17.96 19.7933 18.04 19.5267 18.04 19.22C18.04 18.8867 17.96 18.6133 17.8 18.4C17.6533 18.1733 17.44 18.0067 17.16 17.9C16.88 17.78 16.54 17.72 16.14 17.72C15.9667 17.72 15.7733 17.74 15.56 17.78C15.3467 17.82 15.1267 17.88 14.9 17.96C14.6733 18.04 14.4467 18.14 14.22 18.26L13.36 16L16.08 13.08L17.38 13.5L11.64 13.3V9.8H20.68L21.46 11.36L16.78 16.22L15.78 14.96C15.8867 14.9067 16.06 14.86 16.3 14.82C16.5533 14.7667 16.82 14.74 17.1 14.74C17.74 14.74 18.3467 14.86 18.92 15.1C19.5067 15.3267 20.0267 15.6467 20.48 16.06C20.9333 16.46 21.2867 16.9333 21.54 17.48C21.8067 18.0267 21.94 18.62 21.94 19.26C21.94 20.2067 21.6867 21.0533 21.18 21.8C20.6867 22.5333 20.0067 23.12 19.14 23.56C18.2867 23.9867 17.3333 24.2 16.28 24.2Z" fill="white"/>
</svg>
