<svg width="32" height="32" viewBox="0 0 32 32" fill="none" xmlns="http://www.w3.org/2000/svg">
<path d="M15.02 24.14C13.86 24.14 12.8067 23.9267 11.86 23.5C10.9267 23.0733 10.1467 22.4533 9.52 21.64L11.82 19.14C12.3 19.6733 12.7733 20.04 13.24 20.24C13.7067 20.44 14.2333 20.54 14.82 20.54C15.1667 20.54 15.4667 20.4733 15.72 20.34C15.9867 20.2067 16.1867 20.0267 16.32 19.8C16.4667 19.56 16.54 19.2933 16.54 19C16.54 18.6933 16.46 18.4267 16.3 18.2C16.1533 17.96 15.9467 17.7733 15.68 17.64C15.4133 17.4933 15.1 17.42 14.74 17.42C14.3933 17.42 14.0733 17.4533 13.78 17.52C13.5 17.5867 13.2133 17.6867 12.92 17.82C12.64 17.9533 12.3333 18.1333 12 18.36L10.32 16.16L11.22 9.8H19.62V13.3H13.02L14.24 11.62L13.58 16.06L11.88 15.78C12.2133 15.5 12.58 15.2533 12.98 15.04C13.3933 14.8267 13.82 14.66 14.26 14.54C14.7133 14.4067 15.1733 14.34 15.64 14.34C16.56 14.34 17.38 14.5467 18.1 14.96C18.82 15.3733 19.3867 15.9533 19.8 16.7C20.2267 17.4333 20.44 18.28 20.44 19.24C20.44 20.16 20.2 20.9933 19.72 21.74C19.24 22.4733 18.5933 23.06 17.78 23.5C16.9667 23.9267 16.0467 24.14 15.02 24.14Z" fill="white"/>
</svg>
