<svg width="32" height="32" viewBox="0 0 32 32" fill="none" xmlns="http://www.w3.org/2000/svg">
<path d="M16.04 24C15.2933 24 14.5933 23.8667 13.94 23.6C13.2867 23.3333 12.7067 22.96 12.2 22.48C11.7067 22 11.3133 21.4533 11.02 20.84C10.74 20.2133 10.6 19.5467 10.6 18.84C10.6 18.2667 10.6533 17.7467 10.76 17.28C10.8667 16.8 11.0133 16.3467 11.2 15.92C11.3867 15.4933 11.6067 15.0667 11.86 14.64C12.1133 14.2 12.3867 13.7333 12.68 13.24L14.74 9.8H18.66L18.74 10L15.64 14.72C15.3333 15.1867 15.0733 15.62 14.86 16.02C14.66 16.4067 14.4667 16.8133 14.28 17.24C14.0933 17.6667 13.86 18.1867 13.58 18.8L12.82 17.94C12.86 17.42 13.0267 16.9333 13.32 16.48C13.6133 16.0267 13.9733 15.6333 14.4 15.3C14.84 14.9533 15.2933 14.6867 15.76 14.5C16.24 14.3133 16.6867 14.22 17.1 14.22C17.9 14.22 18.6333 14.4333 19.3 14.86C19.98 15.2733 20.52 15.8267 20.92 16.52C21.32 17.2133 21.52 17.9733 21.52 18.8C21.52 19.7867 21.28 20.6733 20.8 21.46C20.32 22.2467 19.6667 22.8667 18.84 23.32C18.0133 23.7733 17.08 24 16.04 24ZM16.12 20.6C16.4667 20.6 16.7733 20.5333 17.04 20.4C17.3067 20.2533 17.5133 20.0533 17.66 19.8C17.82 19.5333 17.9 19.2333 17.9 18.9C17.9 18.6067 17.82 18.3333 17.66 18.08C17.5 17.8267 17.2867 17.62 17.02 17.46C16.7533 17.3 16.4533 17.22 16.12 17.22C15.7733 17.22 15.4667 17.3 15.2 17.46C14.9333 17.6067 14.72 17.8067 14.56 18.06C14.4133 18.3133 14.34 18.5933 14.34 18.9C14.34 19.2333 14.4133 19.5267 14.56 19.78C14.72 20.0333 14.9333 20.2333 15.2 20.38C15.4667 20.5267 15.7733 20.6 16.12 20.6Z" fill="white"/>
</svg>
