<svg width="32" height="32" viewBox="0 0 32 32" fill="none" xmlns="http://www.w3.org/2000/svg">
<path d="M16.12 24.06C15.0933 24.06 14.16 23.88 13.32 23.52C12.4933 23.1467 11.8333 22.64 11.34 22C10.8467 21.36 10.6 20.6333 10.6 19.82C10.6 19.22 10.6733 18.6933 10.82 18.24C10.98 17.7733 11.2067 17.3733 11.5 17.04C11.8067 16.7067 12.1733 16.4333 12.6 16.22C13.04 15.9933 13.54 15.82 14.1 15.7L13.78 16.8C13.38 16.64 13.0133 16.4467 12.68 16.22C12.36 15.9933 12.0867 15.74 11.86 15.46C11.6333 15.1667 11.4533 14.8533 11.32 14.52C11.2 14.1733 11.14 13.8067 11.14 13.42C11.14 12.66 11.36 11.9933 11.8 11.42C12.2533 10.8467 12.8533 10.4 13.6 10.08C14.36 9.76 15.2 9.6 16.12 9.6C17.04 9.6 17.8733 9.76 18.62 10.08C19.38 10.4 19.98 10.8467 20.42 11.42C20.8733 11.9933 21.1 12.66 21.1 13.42C21.1 13.8067 21.04 14.1667 20.92 14.5C20.8133 14.8333 20.6467 15.14 20.42 15.42C20.1933 15.7 19.9133 15.96 19.58 16.2C19.26 16.4267 18.88 16.6267 18.44 16.8L18.18 15.78C18.6867 15.8733 19.1533 16.02 19.58 16.22C20.0067 16.42 20.3733 16.6867 20.68 17.02C20.9867 17.34 21.2267 17.7333 21.4 18.2C21.5733 18.6667 21.66 19.2067 21.66 19.82C21.66 20.6467 21.4133 21.38 20.92 22.02C20.4267 22.66 19.76 23.16 18.92 23.52C18.08 23.88 17.1467 24.06 16.12 24.06ZM16.12 20.88C16.4 20.88 16.6533 20.8267 16.88 20.72C17.1067 20.6 17.2867 20.44 17.42 20.24C17.5533 20.0267 17.62 19.78 17.62 19.5C17.62 19.2333 17.5533 19 17.42 18.8C17.3 18.5867 17.1267 18.42 16.9 18.3C16.6733 18.18 16.4133 18.12 16.12 18.12C15.84 18.12 15.5867 18.18 15.36 18.3C15.1333 18.42 14.9533 18.5867 14.82 18.8C14.6867 19 14.62 19.2333 14.62 19.5C14.62 19.7667 14.6867 20.0067 14.82 20.22C14.9533 20.42 15.1333 20.58 15.36 20.7C15.5867 20.82 15.84 20.88 16.12 20.88ZM16.12 14.86C16.3733 14.86 16.6 14.8067 16.8 14.7C17 14.5933 17.1533 14.4533 17.26 14.28C17.38 14.0933 17.44 13.88 17.44 13.64C17.44 13.4 17.38 13.1867 17.26 13C17.1533 12.8133 17 12.6667 16.8 12.56C16.6 12.44 16.3733 12.38 16.12 12.38C15.8667 12.38 15.64 12.44 15.44 12.56C15.24 12.6667 15.08 12.8133 14.96 13C14.8533 13.1867 14.8 13.4 14.8 13.64C14.8 13.88 14.8533 14.0933 14.96 14.28C15.08 14.4533 15.24 14.5933 15.44 14.7C15.64 14.8067 15.8667 14.86 16.12 14.86Z" fill="white"/>
</svg>
