<svg width="32" height="32" viewBox="0 0 32 32" fill="none" xmlns="http://www.w3.org/2000/svg">
<path d="M12.86 24L12.78 23.8L17.34 14.96L18.3 15.82C18.2467 16.3533 18.0667 16.8467 17.76 17.3C17.4667 17.74 17.0933 18.1333 16.64 18.48C16.1867 18.8133 15.7067 19.0733 15.2 19.26C14.7067 19.4467 14.2467 19.54 13.82 19.54C13.06 19.54 12.36 19.3267 11.72 18.9C11.08 18.46 10.5667 17.8867 10.18 17.18C9.79333 16.4733 9.6 15.7067 9.6 14.88C9.6 13.8933 9.84 13 10.32 12.2C10.8 11.4 11.4533 10.7667 12.28 10.3C13.1067 9.83333 14.04 9.6 15.08 9.6C15.8267 9.6 16.5267 9.73333 17.18 10C17.8467 10.2533 18.4267 10.6133 18.92 11.08C19.4267 11.5333 19.82 12.06 20.1 12.66C20.38 13.2467 20.52 13.88 20.52 14.56C20.52 15.1333 20.4667 15.6867 20.36 16.22C20.2667 16.74 20.1267 17.24 19.94 17.72C19.7667 18.2 19.5667 18.6733 19.34 19.14C19.1133 19.5933 18.88 20.0533 18.64 20.52L16.78 24H12.86ZM14.9 16.34C15.2333 16.34 15.5267 16.2667 15.78 16.12C16.0333 15.96 16.2267 15.7533 16.36 15.5C16.5067 15.2467 16.58 14.9667 16.58 14.66C16.58 14.3267 16.5067 14.0333 16.36 13.78C16.2267 13.5267 16.0333 13.3267 15.78 13.18C15.5267 13.0333 15.2333 12.96 14.9 12.96C14.5667 12.96 14.2733 13.0333 14.02 13.18C13.78 13.3133 13.5867 13.5133 13.44 13.78C13.2933 14.0333 13.22 14.3267 13.22 14.66C13.22 14.9533 13.2933 15.2267 13.44 15.48C13.6 15.7333 13.8067 15.94 14.06 16.1C14.3133 16.26 14.5933 16.34 14.9 16.34Z" fill="white"/>
</svg>
