<svg width="32" height="32" viewBox="0 0 32 32" fill="none" xmlns="http://www.w3.org/2000/svg">
<rect x="3" y="3" width="26" height="26" rx="2" stroke="white" stroke-width="2"/>
<path d="M21.6569 10.3431C22.7757 11.462 23.5376 12.8874 23.8463 14.4393C24.155 15.9911 23.9965 17.5997 23.391 19.0615C22.7855 20.5233 21.7602 21.7727 20.4446 22.6518C19.129 23.5308 17.5822 24 16 24C14.4177 24 12.871 23.5308 11.5554 22.6518C10.2398 21.7727 9.21446 20.5233 8.60896 19.0615C8.00346 17.5997 7.84504 15.9911 8.15372 14.4393C8.4624 12.8874 9.22433 11.462 10.3431 10.3431L12.6059 12.6059C11.9346 13.2772 11.4774 14.1325 11.2922 15.0636C11.107 15.9947 11.2021 16.9598 11.5654 17.8369C11.9287 18.714 12.5439 19.4636 13.3333 19.9911C14.1226 20.5185 15.0506 20.8 16 20.8C16.9494 20.8 17.8774 20.5185 18.6667 19.9911C19.4561 19.4636 20.0713 18.714 20.4346 17.8369C20.7979 16.9598 20.893 15.9947 20.7078 15.0636C20.5226 14.1325 20.0654 13.2772 19.3941 12.6059L21.6569 10.3431Z" fill="white"/>
</svg>
