<svg width="32" height="32" viewBox="0 0 32 32" fill="none" xmlns="http://www.w3.org/2000/svg">
<g clip-path="url(#clip0_67_75)">
<mask id="path-1-outside-1_67_75" maskUnits="userSpaceOnUse" x="-2.12132" y="6.97661" width="22.6274" height="22.6274" fill="black">
<rect fill="white" x="-2.12132" y="6.97661" width="22.6274" height="22.6274"/>
<path fill-rule="evenodd" clip-rule="evenodd" d="M4.7323 15.7029C4.80995 15.6873 4.89027 15.6791 4.97251 15.6791L6.1417 15.6791C6.32877 15.6791 6.50596 15.7214 6.66423 15.797L11.9606 10.5005C12.2608 10.2004 12.7475 10.2004 13.0476 10.5005C13.3478 10.8007 13.3478 11.2874 13.0476 11.5875L7.61271 17.0225L7.61272 17.0225L8.97144 15.6637C9.42169 15.2135 10.1517 15.2135 10.6019 15.6637C11.0512 16.113 11.0522 16.8407 10.605 17.2912C11.0554 16.844 11.7832 16.845 12.2324 17.2942C12.6826 17.7445 12.6826 18.4745 12.2324 18.9247L11.7934 19.3637C12.1859 18.9712 12.8223 18.9712 13.2149 19.3637C13.6074 19.7562 13.6074 20.3926 13.2149 20.7851L10.372 23.628C10.227 23.773 10.0488 23.8644 9.86183 23.9023L6.76712 26.4717L2.83966 21.4888L3.44245 20.4554C3.27409 20.2217 3.17492 19.9349 3.17492 19.6249L3.17492 17.1187C3.17492 16.3333 3.81164 15.6965 4.59708 15.6965C4.64268 15.6965 4.68779 15.6987 4.7323 15.7029Z"/>
</mask>
<path d="M4.7323 15.7029L4.6384 16.6985L4.7848 16.7123L4.92898 16.6833L4.7323 15.7029ZM4.97251 15.6791L4.97251 14.6791L4.97251 14.6791L4.97251 15.6791ZM6.1417 15.6791L6.1417 14.6791L6.1417 14.6791L6.1417 15.6791ZM6.66423 15.797L6.23351 16.6994L6.87148 17.0039L7.37134 16.5041L6.66423 15.797ZM7.61271 17.0225L6.9056 16.3153L6.19849 17.0225L6.9056 17.7296L7.61271 17.0225ZM7.61272 17.0225L6.90561 17.7296L7.61272 18.4367L8.31982 17.7296L7.61272 17.0225ZM10.605 17.2912L9.89527 16.5867L11.3095 18.0009L10.605 17.2912ZM12.2324 18.9247L11.5253 18.2176L11.5253 18.2176L12.2324 18.9247ZM13.2149 20.7851L12.5077 20.078L13.2149 20.7851ZM10.372 23.628L11.0791 24.3351L10.372 23.628ZM9.86183 23.9023L9.66319 22.9222L9.41662 22.9722L9.22306 23.1329L9.86183 23.9023ZM6.76712 26.4717L5.98175 27.0907L6.61671 27.8963L7.4059 27.241L6.76712 26.4717ZM2.83966 21.4888L1.97586 20.985L1.63281 21.5731L2.05429 22.1078L2.83966 21.4888ZM3.44245 20.4554L4.30625 20.9592L4.63362 20.3979L4.25378 19.8708L3.44245 20.4554ZM3.17492 19.6249L2.17492 19.6249L3.17492 19.6249ZM3.17492 17.1187L4.17492 17.1187L4.17492 17.1187L3.17492 17.1187ZM4.59708 15.6965L4.59708 16.6965L4.59708 16.6965L4.59708 15.6965ZM4.92898 16.6833C4.94223 16.6807 4.95668 16.6791 4.97251 16.6791L4.97251 14.6791C4.82386 14.6791 4.67766 14.6939 4.53561 14.7224L4.92898 16.6833ZM4.97251 16.6791L6.1417 16.6791L6.1417 14.6791L4.97251 14.6791L4.97251 16.6791ZM6.1417 16.6791C6.17658 16.6791 6.20689 16.6867 6.23351 16.6994L7.09496 14.8945C6.80503 14.7561 6.48095 14.6791 6.1417 14.6791L6.1417 16.6791ZM7.37134 16.5041L12.6678 11.2076L11.2535 9.79343L5.95713 15.0898L7.37134 16.5041ZM12.6678 11.2076C12.5774 11.298 12.4309 11.298 12.3405 11.2076L13.7547 9.79343C13.0641 9.10274 11.9442 9.10274 11.2535 9.79343L12.6678 11.2076ZM12.3405 11.2076C12.2502 11.1173 12.2502 10.9708 12.3405 10.8804L13.7547 12.2946C14.4454 11.6039 14.4454 10.4841 13.7547 9.79343L12.3405 11.2076ZM12.3405 10.8804L6.9056 16.3153L8.31981 17.7296L13.7547 12.2946L12.3405 10.8804ZM6.9056 17.7296L6.90561 17.7296L8.31983 16.3154L8.31981 16.3153L6.9056 17.7296ZM8.31982 17.7296L9.67855 16.3708L8.26434 14.9566L6.90561 16.3154L8.31982 17.7296ZM9.67855 16.3708C9.73827 16.3111 9.8351 16.3111 9.89482 16.3708L11.309 14.9566C10.4683 14.1159 9.10511 14.1159 8.26434 14.9566L9.67855 16.3708ZM9.89482 16.3708C9.95439 16.4304 9.95454 16.527 9.89527 16.5867L11.3146 17.9957C12.1498 17.1544 12.1479 15.7955 11.309 14.9566L9.89482 16.3708ZM11.3095 18.0009C11.3692 17.9416 11.4657 17.9417 11.5253 18.0013L12.9395 16.5871C12.1006 15.7482 10.7417 15.7463 9.90044 16.5815L11.3095 18.0009ZM11.5253 18.0013C11.585 18.061 11.585 18.1579 11.5253 18.2176L12.9395 19.6318C13.7803 18.791 13.7803 17.4279 12.9395 16.5871L11.5253 18.0013ZM11.5253 18.2176L11.0863 18.6566L12.5005 20.0708L12.9395 19.6318L11.5253 18.2176ZM12.5005 20.0708C12.5017 20.0696 12.5022 20.0693 12.5021 20.0694C12.502 20.0695 12.5018 20.0695 12.5017 20.0696C12.5016 20.0696 12.5024 20.0693 12.5041 20.0693C12.5058 20.0693 12.5067 20.0696 12.5066 20.0696C12.5064 20.0695 12.5063 20.0695 12.5062 20.0694C12.506 20.0693 12.5066 20.0696 12.5077 20.0708L13.922 18.6566C13.1389 17.8735 11.8693 17.8735 11.0863 18.6566L12.5005 20.0708ZM12.5077 20.0708C12.5089 20.072 12.5092 20.0725 12.5091 20.0723C12.5091 20.0723 12.509 20.0721 12.5089 20.072C12.5089 20.0719 12.5092 20.0727 12.5092 20.0744C12.5092 20.0761 12.5089 20.0769 12.5089 20.0768C12.509 20.0767 12.5091 20.0765 12.5091 20.0765C12.5092 20.0763 12.5089 20.0768 12.5077 20.078L13.922 21.4922C14.705 20.7092 14.705 19.4396 13.922 18.6566L12.5077 20.0708ZM12.5077 20.078L9.66485 22.9209L11.0791 24.3351L13.922 21.4922L12.5077 20.078ZM9.66485 22.9209C9.66329 22.9225 9.66288 22.9225 9.66346 22.9222C9.66381 22.922 9.6638 22.9221 9.66319 22.9222L10.0605 24.8824C10.4341 24.8066 10.7909 24.6233 11.0791 24.3351L9.66485 22.9209ZM9.22306 23.1329L6.12835 25.7023L7.4059 27.241L10.5006 24.6717L9.22306 23.1329ZM7.55249 25.8526L3.62503 20.8698L2.05429 22.1078L5.98175 27.0907L7.55249 25.8526ZM3.70345 21.9926L4.30625 20.9592L2.57865 19.9515L1.97586 20.985L3.70345 21.9926ZM4.25378 19.8708C4.204 19.8017 4.17492 19.7182 4.17492 19.6249H2.17492C2.17492 20.1516 2.34419 20.6417 2.63111 21.0399L4.25378 19.8708ZM4.17492 19.6249L4.17492 17.1187L2.17492 17.1187L2.17492 19.6249H4.17492ZM4.17492 17.1187C4.17492 16.8855 4.36392 16.6965 4.59708 16.6965L4.59708 14.6965C3.25936 14.6965 2.17492 15.781 2.17492 17.1187L4.17492 17.1187ZM4.59708 16.6965C4.61128 16.6965 4.62505 16.6972 4.6384 16.6985L4.8262 14.7073C4.75053 14.7002 4.67409 14.6965 4.59708 14.6965L4.59708 16.6965Z" fill="white" mask="url(#path-1-outside-1_67_75)"/>
<mask id="path-3-outside-2_67_75" maskUnits="userSpaceOnUse" x="10.7675" y="2.24824" width="22.6274" height="22.6274" fill="black">
<rect fill="white" x="10.7675" y="2.24824" width="22.6274" height="22.6274"/>
<path fill-rule="evenodd" clip-rule="evenodd" d="M26.5413 16.1494C26.4636 16.165 26.3833 16.1731 26.3011 16.1731L25.1319 16.1731C24.9448 16.1731 24.7676 16.1309 24.6093 16.0553L19.3129 21.3517C19.0127 21.6519 18.5261 21.6519 18.2259 21.3517C17.9258 21.0516 17.9258 20.5649 18.2259 20.2647L23.6609 14.8298L23.6608 14.8298L22.3021 16.1885C21.8519 16.6388 21.1219 16.6388 20.6716 16.1885C20.2224 15.7393 20.2214 15.0116 20.6686 14.5611C20.2181 15.0083 19.4904 15.0073 19.0412 14.558C18.5909 14.1078 18.5909 13.3778 19.0412 12.9276L19.4802 12.4886C19.0876 12.8811 18.4512 12.8811 18.0587 12.4886C17.6662 12.0961 17.6662 11.4597 18.0587 11.0671L20.9016 8.22425C21.0466 8.07928 21.2248 7.98785 21.4117 7.94996L24.5064 5.38061L28.4339 10.3635L27.8311 11.3969C27.9995 11.6306 28.0986 11.9174 28.0986 12.2274L28.0986 14.7336C28.0986 15.519 27.4619 16.1557 26.6765 16.1557C26.6309 16.1557 26.5858 16.1536 26.5413 16.1494Z"/>
</mask>
<path fill-rule="evenodd" clip-rule="evenodd" d="M26.5413 16.1494C26.4636 16.165 26.3833 16.1731 26.3011 16.1731L25.1319 16.1731C24.9448 16.1731 24.7676 16.1309 24.6093 16.0553L19.3129 21.3517C19.0127 21.6519 18.5261 21.6519 18.2259 21.3517C17.9258 21.0516 17.9258 20.5649 18.2259 20.2647L23.6609 14.8298L23.6608 14.8298L22.3021 16.1885C21.8519 16.6388 21.1219 16.6388 20.6716 16.1885C20.2224 15.7393 20.2214 15.0116 20.6686 14.5611C20.2181 15.0083 19.4904 15.0073 19.0412 14.558C18.5909 14.1078 18.5909 13.3778 19.0412 12.9276L19.4802 12.4886C19.0876 12.8811 18.4512 12.8811 18.0587 12.4886C17.6662 12.0961 17.6662 11.4597 18.0587 11.0671L20.9016 8.22425C21.0466 8.07928 21.2248 7.98785 21.4117 7.94996L24.5064 5.38061L28.4339 10.3635L27.8311 11.3969C27.9995 11.6306 28.0986 11.9174 28.0986 12.2274L28.0986 14.7336C28.0986 15.519 27.4619 16.1557 26.6765 16.1557C26.6309 16.1557 26.5858 16.1536 26.5413 16.1494Z" fill="white"/>
<path d="M26.5413 16.1494L26.6352 15.1538L26.4888 15.14L26.3446 15.1689L26.5413 16.1494ZM26.3011 16.1731L26.3011 17.1731L26.3011 17.1731L26.3011 16.1731ZM25.1319 16.1731L25.1319 17.1731L25.1319 17.1731L25.1319 16.1731ZM24.6093 16.0553L25.0401 15.1528L24.4021 14.8483L23.9022 15.3482L24.6093 16.0553ZM23.6609 14.8298L24.368 15.5369L25.0751 14.8298L24.368 14.1227L23.6609 14.8298ZM23.6608 14.8298L24.3679 14.1227L23.6608 13.4156L22.9537 14.1227L23.6608 14.8298ZM20.6686 14.5611L21.3783 15.2656L19.9641 13.8514L20.6686 14.5611ZM19.0412 12.9276L19.7483 13.6347L19.7483 13.6347L19.0412 12.9276ZM21.4117 7.94996L21.6104 8.93003L21.8569 8.88006L22.0505 8.71935L21.4117 7.94996ZM24.5064 5.38061L25.2918 4.76158L24.6568 3.956L23.8677 4.61122L24.5064 5.38061ZM28.4339 10.3635L29.2977 10.8673L29.6407 10.2792L29.2193 9.74443L28.4339 10.3635ZM27.8311 11.3969L26.9673 10.8931L26.6399 11.4543L27.0198 11.9815L27.8311 11.3969ZM28.0986 12.2274L29.0986 12.2274L28.0986 12.2274ZM28.0986 14.7336L27.0986 14.7336L27.0986 14.7336L28.0986 14.7336ZM26.6765 16.1557L26.6765 15.1557L26.6765 15.1557L26.6765 16.1557ZM26.3446 15.1689C26.3313 15.1716 26.3169 15.1731 26.301 15.1731L26.3011 17.1731C26.4497 17.1731 26.5959 17.1584 26.7379 17.1299L26.3446 15.1689ZM26.3011 15.1731L25.1319 15.1731L25.1319 17.1731L26.3011 17.1731L26.3011 15.1731ZM25.1319 15.1731C25.097 15.1731 25.0667 15.1655 25.0401 15.1528L24.1786 16.9578C24.4685 17.0962 24.7926 17.1731 25.1319 17.1731L25.1319 15.1731ZM23.9022 15.3482L18.6058 20.6446L20.02 22.0588L25.3164 16.7624L23.9022 15.3482ZM18.6058 20.6446C18.6962 20.5543 18.8427 20.5543 18.933 20.6446L17.5188 22.0588C18.2095 22.7495 19.3293 22.7495 20.02 22.0588L18.6058 20.6446ZM18.933 20.6446C19.0234 20.735 19.0234 20.8815 18.933 20.9718L17.5188 19.5576C16.8281 20.2483 16.8281 21.3681 17.5188 22.0588L18.933 20.6446ZM18.933 20.9718L24.368 15.5369L22.9537 14.1227L17.5188 19.5576L18.933 20.9718ZM24.368 14.1227L24.3679 14.1227L22.9537 15.5369L22.9537 15.5369L24.368 14.1227ZM22.9537 14.1227L21.595 15.4814L23.0092 16.8956L24.3679 15.5369L22.9537 14.1227ZM21.595 15.4814C21.5353 15.5411 21.4385 15.5411 21.3787 15.4814L19.9645 16.8956C20.8053 17.7364 22.1685 17.7364 23.0092 16.8956L21.595 15.4814ZM21.3787 15.4814C21.3192 15.4218 21.319 15.3253 21.3783 15.2656L19.9589 13.8566C19.1238 14.6978 19.1256 16.0567 19.9645 16.8956L21.3787 15.4814ZM19.9641 13.8514C19.9044 13.9107 19.8078 13.9105 19.7483 13.8509L18.3341 15.2652C19.173 16.104 20.5318 16.1059 21.3731 15.2708L19.9641 13.8514ZM19.7483 13.8509C19.6886 13.7912 19.6886 13.6944 19.7483 13.6347L18.3341 12.2205C17.4933 13.0612 17.4933 14.4244 18.3341 15.2652L19.7483 13.8509ZM19.7483 13.6347L20.1873 13.1957L18.773 11.7815L18.3341 12.2205L19.7483 13.6347ZM18.773 11.7815C18.7719 11.7827 18.7713 11.783 18.7715 11.7829C18.7716 11.7828 18.7717 11.7827 18.7719 11.7827C18.772 11.7826 18.7711 11.783 18.7694 11.783C18.7677 11.783 18.7669 11.7826 18.767 11.7827C18.7671 11.7827 18.7673 11.7828 18.7674 11.7829C18.7675 11.783 18.767 11.7827 18.7658 11.7815L17.3516 13.1957C18.1346 13.9787 19.4042 13.9787 20.1873 13.1957L18.773 11.7815ZM18.7658 11.7815C18.7646 11.7803 18.7643 11.7798 18.7644 11.7799C18.7645 11.78 18.7646 11.7802 18.7646 11.7803C18.7647 11.7804 18.7643 11.7795 18.7643 11.7779C18.7643 11.7762 18.7647 11.7753 18.7646 11.7754C18.7646 11.7756 18.7645 11.7757 18.7644 11.7758C18.7643 11.7759 18.7646 11.7754 18.7658 11.7742L17.3516 10.36C16.5686 11.1431 16.5686 12.4126 17.3516 13.1957L18.7658 11.7815ZM18.7658 11.7742L21.6087 8.93135L20.1945 7.51714L17.3516 10.36L18.7658 11.7742ZM21.6087 8.93135C21.6103 8.92979 21.6107 8.92975 21.6101 8.93006C21.6097 8.93024 21.6098 8.93016 21.6104 8.93003L21.2131 6.96989C20.8395 7.04562 20.4827 7.22896 20.1945 7.51714L21.6087 8.93135ZM22.0505 8.71935L25.1452 6.15L23.8677 4.61122L20.7729 7.18057L22.0505 8.71935ZM23.7211 5.99964L27.6485 10.9825L29.2193 9.74443L25.2918 4.76158L23.7211 5.99964ZM27.5701 9.85961L26.9673 10.8931L28.6949 11.9007L29.2977 10.8673L27.5701 9.85961ZM27.0198 11.9815C27.0696 12.0506 27.0986 12.1341 27.0986 12.2274L29.0986 12.2274C29.0986 11.7007 28.9294 11.2105 28.6424 10.8123L27.0198 11.9815ZM27.0986 12.2274L27.0986 14.7336L29.0986 14.7336L29.0986 12.2274L27.0986 12.2274ZM27.0986 14.7336C27.0986 14.9667 26.9096 15.1557 26.6765 15.1557L26.6765 17.1557C28.0142 17.1557 29.0986 16.0713 29.0986 14.7336L27.0986 14.7336ZM26.6765 15.1557C26.6623 15.1557 26.6485 15.1551 26.6352 15.1538L26.4474 17.145C26.523 17.1521 26.5995 17.1557 26.6765 17.1557L26.6765 15.1557Z" fill="white" mask="url(#path-3-outside-2_67_75)"/>
</g>
<defs>
<clipPath id="clip0_67_75">
<rect width="32" height="32" fill="white"/>
</clipPath>
</defs>
</svg>
