<svg width="32" height="32" viewBox="0 0 32 32" fill="none" xmlns="http://www.w3.org/2000/svg">
<rect x="3" y="3" width="26" height="26" rx="2" stroke="white" stroke-width="2"/>
<line x1="9" y1="16.6" x2="21" y2="16.6" stroke="white" stroke-width="2"/>
<path d="M15.8 9C15.8 9 16.8052 12.007 18 13.6C19.1948 15.193 21.8 17 21.8 17" stroke="white" stroke-width="2"/>
<path d="M15.8 24.2C15.8 24.2 16.8052 21.193 18 19.6C19.1948 18.007 21.8 16.2 21.8 16.2" stroke="white" stroke-width="2"/>
<path d="M8.35483 10.6481L8.31837 9.35455C8.46866 9.36032 8.62069 9.35964 8.77443 9.35252C8.93462 9.34713 9.09009 9.33358 9.24085 9.31186C9.39161 9.29013 9.52886 9.25444 9.6526 9.20477C9.78277 9.15683 9.89064 9.08911 9.97621 9.00161C10.0682 8.91583 10.1306 8.81177 10.1634 8.68942C10.1858 8.6057 10.1846 8.53291 10.1598 8.47104C10.1414 8.4109 10.1034 8.35932 10.046 8.31631C9.99018 8.26686 9.91722 8.23005 9.82707 8.2059C9.64676 8.15758 9.44276 8.17194 9.21507 8.24897C8.99382 8.32772 8.74236 8.51916 8.46072 8.82329L7.49318 7.21819C7.92007 6.83564 8.37323 6.57401 8.85265 6.4333C9.33851 6.29431 9.81004 6.28607 10.2672 6.40858C10.7051 6.52591 11.077 6.72218 11.3829 6.99739C11.6905 7.26615 11.9059 7.58269 12.0291 7.947C12.1541 8.30487 12.1657 8.67378 12.0639 9.05371C11.9948 9.31129 11.8711 9.5542 11.6926 9.78245C11.5223 10.006 11.3112 10.2013 11.0593 10.3685C10.8139 10.5374 10.5409 10.6679 10.2401 10.7598C9.93942 10.8518 9.6233 10.8982 9.29177 10.8991L9.25314 10.8888L8.35483 10.6481ZM7.55226 12.2137C7.62818 11.9304 7.77723 11.7218 7.99941 11.5881C8.22803 11.4561 8.48401 11.4281 8.76735 11.504C9.07001 11.5851 9.28262 11.7318 9.40518 11.9441C9.52775 12.1564 9.54762 12.4171 9.4648 12.7262C9.38888 13.0095 9.23661 13.2172 9.00799 13.3492C8.78581 13.4829 8.53305 13.5118 8.24971 13.4359C7.94705 13.3548 7.73444 13.2081 7.61188 12.9958C7.48931 12.7835 7.46944 12.5228 7.55226 12.2137Z" fill="white"/>
</svg>
