<svg width="32" height="32" viewBox="0 0 32 32" fill="none" xmlns="http://www.w3.org/2000/svg">
<path fill-rule="evenodd" clip-rule="evenodd" d="M16.4 8C16.4 6.34314 17.7431 5 19.4 5H20.6C22.2569 5 23.6 6.34315 23.6 8V11.6C23.6 13.0514 22.5693 14.262 21.2 14.54V17H22C24.2091 17 26 18.7909 26 21V30.2H14V21C14 18.7909 15.7909 17 18 17H18.8V14.54C17.4307 14.262 16.4 13.0514 16.4 11.6V8Z" fill="white"/>
<mask id="path-2-outside-1_29_328" maskUnits="userSpaceOnUse" x="1.31189" y="7.18133" width="14" height="15" fill="black">
<rect fill="white" x="1.31189" y="7.18133" width="14" height="15"/>
<path fill-rule="evenodd" clip-rule="evenodd" d="M10.5348 13.6189L9.76052 14.3932L9.76052 13.0893L9.76052 9.81784C9.76052 9.36615 9.39436 8.99998 8.94267 8.99998C8.49098 8.99998 8.12481 9.36615 8.12481 9.81784L8.12481 10.6357C8.12481 10.184 7.75864 9.81784 7.30695 9.81784C6.85526 9.81784 6.48909 10.184 6.48909 10.6357L6.48909 11.4536C6.48909 11.0019 6.12293 10.6357 5.67124 10.6357C5.21954 10.6357 4.85338 11.0019 4.85338 11.4536L4.85338 12.2714C4.85338 11.8197 4.48721 11.4536 4.03552 11.4536C3.58383 11.4536 3.21766 11.8197 3.21766 12.2714L3.21766 15.5428L3.21767 15.5457L3.21767 16.3175L2.56633 18.7483L7.9145 20.1813L8.60432 17.6069C8.88251 17.6497 9.17666 17.564 9.39094 17.3497L11.6697 15.0709L12.5035 14.9164C13.0402 14.8169 13.3946 14.3012 13.2952 13.7645C13.1957 13.2278 12.6799 12.8733 12.1432 12.9728L11.2078 13.1462C10.914 13.2007 10.6748 13.3798 10.5348 13.6189Z"/>
</mask>
<path d="M10.5348 13.6189L11.3978 14.1242L11.3328 14.2351L11.242 14.326L10.5348 13.6189ZM9.76052 14.3932L10.4676 15.1003L8.76052 16.8074L8.76052 14.3932L9.76052 14.3932ZM9.76052 13.0893L10.7605 13.0893L9.76052 13.0893ZM8.12481 9.81784L9.12481 9.81784L9.12481 9.81784L8.12481 9.81784ZM6.48909 10.6357L7.48909 10.6357L7.48909 10.6357L6.48909 10.6357ZM4.85338 11.4536L5.85338 11.4536L5.85338 11.4536L4.85338 11.4536ZM3.21766 12.2714L2.21766 12.2714L3.21766 12.2714ZM3.21766 15.5428L2.21766 15.5445L2.21766 15.5428L3.21766 15.5428ZM3.21767 15.5457L4.21767 15.544L4.21767 15.5457L3.21767 15.5457ZM3.21767 16.3175L4.21767 16.3175L4.21767 16.4491L4.18359 16.5763L3.21767 16.3175ZM2.56633 18.7483L2.30751 19.7142L1.34158 19.4554L1.6004 18.4895L2.56633 18.7483ZM7.9145 20.1813L8.88042 20.4402L8.6216 21.4061L7.65568 21.1473L7.9145 20.1813ZM8.60432 17.6069L7.6384 17.3481L7.87042 16.4821L8.75647 16.6185L8.60432 17.6069ZM9.39094 17.3497L10.098 18.0568L10.098 18.0568L9.39094 17.3497ZM11.6697 15.0709L10.9626 14.3638L11.1821 14.1443L11.4874 14.0877L11.6697 15.0709ZM12.5035 14.9164L12.6858 15.8996L12.6858 15.8996L12.5035 14.9164ZM13.2952 13.7645L12.3119 13.9467L12.3119 13.9467L13.2952 13.7645ZM12.1432 12.9728L11.961 11.9896L11.961 11.9896L12.1432 12.9728ZM11.2078 13.1462L11.0256 12.1629L11.0256 12.1629L11.2078 13.1462ZM11.242 14.326L10.4676 15.1003L9.05342 13.6861L9.82774 12.9118L11.242 14.326ZM8.76052 14.3932L8.76052 13.0893L10.7605 13.0893L10.7605 14.3932L8.76052 14.3932ZM8.76052 13.0893L8.76052 9.81784L10.7605 9.81784L10.7605 13.0893L8.76052 13.0893ZM8.76052 9.81784C8.76052 9.91843 8.84207 9.99998 8.94267 9.99998L8.94267 7.99998C9.94664 7.99998 10.7605 8.81386 10.7605 9.81784L8.76052 9.81784ZM8.94267 9.99998C9.04326 9.99998 9.12481 9.91843 9.12481 9.81784L7.12481 9.81784C7.12481 8.81387 7.93869 7.99998 8.94267 7.99998L8.94267 9.99998ZM9.12481 9.81784L9.12481 10.6357L7.12481 10.6357L7.12481 9.81784L9.12481 9.81784ZM7.12481 10.6357C7.12481 10.7363 7.20636 10.8178 7.30695 10.8178L7.30695 8.81784C8.31092 8.81784 9.12481 9.63172 9.12481 10.6357L7.12481 10.6357ZM7.30695 10.8178C7.40755 10.8178 7.48909 10.7363 7.48909 10.6357L5.48909 10.6357C5.48909 9.63172 6.30298 8.81784 7.30695 8.81784L7.30695 10.8178ZM7.48909 10.6357L7.48909 11.4536L5.48909 11.4536L5.48909 10.6357L7.48909 10.6357ZM5.48909 11.4536C5.48909 11.5542 5.57064 11.6357 5.67123 11.6357L5.67124 9.6357C6.67521 9.6357 7.48909 10.4496 7.48909 11.4536L5.48909 11.4536ZM5.67123 11.6357C5.77183 11.6357 5.85338 11.5542 5.85338 11.4536L3.85338 11.4536C3.85338 10.4496 4.66726 9.6357 5.67124 9.6357L5.67123 11.6357ZM5.85338 11.4536L5.85338 12.2714L3.85338 12.2714L3.85338 11.4536L5.85338 11.4536ZM3.85338 12.2714C3.85338 12.372 3.93493 12.4536 4.03552 12.4536L4.03552 10.4536C5.03949 10.4536 5.85338 11.2674 5.85338 12.2714L3.85338 12.2714ZM4.03552 12.4536C4.13611 12.4536 4.21766 12.372 4.21766 12.2714L2.21766 12.2714C2.21766 11.2674 3.03154 10.4536 4.03552 10.4536L4.03552 12.4536ZM4.21766 12.2714L4.21766 15.5428L2.21766 15.5428L2.21766 12.2714L4.21766 12.2714ZM4.21766 15.5412L4.21766 15.544L2.21767 15.5474L2.21766 15.5445L4.21766 15.5412ZM4.21767 15.5457L4.21767 16.3175L2.21767 16.3175L2.21767 15.5457L4.21767 15.5457ZM4.18359 16.5763L3.53226 19.0071L1.6004 18.4895L2.25174 16.0587L4.18359 16.5763ZM2.82515 17.7824L8.17332 19.2154L7.65568 21.1473L2.30751 19.7142L2.82515 17.7824ZM6.94857 19.9225L7.6384 17.3481L9.57025 17.8657L8.88042 20.4402L6.94857 19.9225ZM8.75647 16.6185C8.74448 16.6167 8.73195 16.6175 8.71917 16.6215C8.70522 16.6259 8.69258 16.6338 8.68383 16.6426L10.098 18.0568C9.64897 18.5059 9.03167 18.6844 8.45217 18.5952L8.75647 16.6185ZM8.68383 16.6426L10.9626 14.3638L12.3768 15.778L10.098 18.0568L8.68383 16.6426ZM11.4874 14.0877L12.3212 13.9331L12.6858 15.8996L11.8519 16.0542L11.4874 14.0877ZM12.3212 13.9331C12.3217 13.933 12.3212 13.9331 12.32 13.9336C12.3189 13.934 12.3177 13.9347 12.3167 13.9353C12.3148 13.9366 12.314 13.9376 12.3138 13.938C12.3135 13.9384 12.3128 13.9395 12.3123 13.9417C12.3121 13.9429 12.3119 13.9442 12.3119 13.9454C12.3119 13.9467 12.312 13.9472 12.3119 13.9467L14.2784 13.5822C14.4786 14.662 13.7655 15.6995 12.6858 15.8996L12.3212 13.9331ZM12.3119 13.9467C12.3118 13.9462 12.3119 13.9468 12.3124 13.9479C12.3128 13.9491 12.3134 13.9502 12.3141 13.9512C12.3154 13.9532 12.3164 13.9539 12.3168 13.9542C12.3172 13.9545 12.3182 13.9551 12.3205 13.9556C12.3217 13.9559 12.323 13.9561 12.3242 13.9561C12.3255 13.9561 12.326 13.956 12.3255 13.9561L11.961 11.9896C13.0407 11.7894 14.0783 12.5025 14.2784 13.5822L12.3119 13.9467ZM12.3255 13.9561L11.3901 14.1294L11.0256 12.1629L11.961 11.9896L12.3255 13.9561ZM11.3901 14.1294C11.3895 14.1295 11.3902 14.1295 11.3916 14.1289C11.3929 14.1283 11.3941 14.1276 11.3951 14.1269C11.3969 14.1256 11.3975 14.1247 11.3978 14.1242L9.67193 13.1136C9.95242 12.6346 10.4343 12.2725 11.0256 12.1629L11.3901 14.1294Z" fill="white" mask="url(#path-2-outside-1_29_328)"/>
</svg>
