<svg width="32" height="32" viewBox="0 0 32 32" fill="none" xmlns="http://www.w3.org/2000/svg">
<rect x="3" y="3" width="26" height="26" rx="2" stroke="white" stroke-width="2"/>
<path d="M24 16C24 20.4183 20.4183 24 16 24C11.5817 24 8 20.4183 8 16C8 11.5817 11.5817 8 16 8C20.4183 8 24 11.5817 24 16ZM11.2 16C11.2 18.651 13.349 20.8 16 20.8C18.651 20.8 20.8 18.651 20.8 16C20.8 13.349 18.651 11.2 16 11.2C13.349 11.2 11.2 13.349 11.2 16Z" fill="white"/>
<line x1="24.617" y1="8.06066" x2="8.617" y2="24.0607" stroke="white" stroke-width="3"/>
</svg>
