<svg width="32" height="32" viewBox="0 0 32 32" fill="none" xmlns="http://www.w3.org/2000/svg">
<mask id="path-1-outside-1_29_495" maskUnits="userSpaceOnUse" x="0.201169" y="-0.053099" width="22.9519" height="20.744" fill="black">
<rect fill="white" x="0.201169" y="-0.053099" width="22.9519" height="20.744"/>
<path fill-rule="evenodd" clip-rule="evenodd" d="M13.0149 5.33919C13.0502 5.41012 13.079 5.48555 13.1004 5.56495L13.4046 6.69387C13.4533 6.87449 13.4585 7.05658 13.4268 7.22906L19.9189 10.9649C20.2868 11.1766 20.4135 11.6465 20.2017 12.0144C19.99 12.3824 19.5201 12.509 19.1522 12.2973L12.4903 8.46375L12.4903 8.46376L14.1557 9.42214C14.7076 9.73972 14.8976 10.4446 14.58 10.9965C14.2631 11.5471 13.5607 11.7374 13.0094 11.4228C13.5584 11.7414 13.7468 12.4444 13.4299 12.995C13.1124 13.5469 12.4075 13.7368 11.8556 13.4193L11.3175 13.1096C11.7987 13.3865 11.9643 14.001 11.6874 14.4821C11.4105 14.9633 10.7961 15.1288 10.3149 14.852L6.83023 12.8468C6.65253 12.7445 6.51788 12.5962 6.43266 12.4256L3.14655 10.106L6.93581 5.01728L8.09051 5.3304C8.27231 5.10704 8.52345 4.93665 8.82276 4.85599L11.2426 4.20386C12.001 3.99949 12.7815 4.4486 12.9859 5.20698C12.9977 5.25102 13.0074 5.29513 13.0149 5.33919Z"/>
</mask>
<path d="M13.0149 5.33919L12.0292 5.50758L12.054 5.65254L12.1194 5.78423L13.0149 5.33919ZM13.1004 5.56495L14.0659 5.30475L14.0659 5.30475L13.1004 5.56495ZM13.4046 6.69387L14.3701 6.43367L14.3701 6.43367L13.4046 6.69387ZM13.4268 7.22906L12.4433 7.048L12.3153 7.74323L12.928 8.0958L13.4268 7.22906ZM12.4903 8.46375L12.989 7.597L12.1223 7.09825L11.6235 7.96499L12.4903 8.46375ZM12.4903 8.46376L11.6235 7.965L11.1248 8.83174L11.9915 9.3305L12.4903 8.46376ZM13.0094 11.4228L13.505 10.5543L12.5075 12.2878L13.0094 11.4228ZM11.8556 13.4193L12.3544 12.5525L12.3544 12.5525L11.8556 13.4193ZM6.43266 12.4256L7.32728 11.9787L7.21487 11.7537L7.00933 11.6086L6.43266 12.4256ZM3.14655 10.106L2.34449 9.50877L1.73188 10.3315L2.56988 10.923L3.14655 10.106ZM6.93581 5.01728L7.19753 4.05213L6.54039 3.87394L6.13375 4.42003L6.93581 5.01728ZM8.09051 5.3304L7.82879 6.29554L8.4559 6.46559L8.86607 5.96167L8.09051 5.3304ZM8.82276 4.85599L8.56256 3.89043L8.82276 4.85599ZM11.2426 4.20386L11.5028 5.16942L11.5028 5.16942L11.2426 4.20386ZM12.9859 5.20698L12.0203 5.46719L12.0203 5.46719L12.9859 5.20698ZM12.1194 5.78423C12.1254 5.79633 12.1307 5.80988 12.1348 5.82516L14.0659 5.30475C14.0272 5.16122 13.9749 5.0239 13.9104 4.89416L12.1194 5.78423ZM12.1348 5.82516L12.439 6.95408L14.3701 6.43367L14.0659 5.30475L12.1348 5.82516ZM12.439 6.95408C12.4481 6.98775 12.4486 7.01899 12.4433 7.048L14.4102 7.41012C14.4684 7.09418 14.4584 6.76123 14.3701 6.43367L12.439 6.95408ZM12.928 8.0958L19.4201 11.8316L20.4177 10.0981L13.9255 6.36232L12.928 8.0958ZM19.4201 11.8316C19.3094 11.7679 19.2713 11.6264 19.335 11.5157L21.0685 12.5132C21.5557 11.6666 21.2643 10.5853 20.4177 10.0981L19.4201 11.8316ZM19.335 11.5157C19.3987 11.4049 19.5402 11.3668 19.651 11.4305L18.6534 13.164C19.5001 13.6512 20.5813 13.3598 21.0685 12.5132L19.335 11.5157ZM19.651 11.4305L12.989 7.597L11.9915 9.33049L18.6534 13.164L19.651 11.4305ZM11.6235 7.96499L11.6235 7.965L13.357 8.96252L13.357 8.9625L11.6235 7.96499ZM11.9915 9.3305L13.657 10.2889L14.6545 8.55539L12.989 7.59702L11.9915 9.3305ZM13.657 10.2889C13.7302 10.331 13.7554 10.4245 13.7133 10.4977L15.4467 11.4952C16.0398 10.4646 15.6851 9.14843 14.6545 8.55539L13.657 10.2889ZM13.7133 10.4977C13.6712 10.5707 13.5781 10.596 13.505 10.5543L12.5138 12.2914C13.5434 12.8789 14.855 12.5235 15.4467 11.4952L13.7133 10.4977ZM12.5075 12.2878C12.5802 12.33 12.6052 12.4232 12.5632 12.4963L14.2967 13.4938C14.8884 12.4655 14.5366 11.1529 13.5113 10.5579L12.5075 12.2878ZM12.5632 12.4963C12.5211 12.5695 12.4276 12.5946 12.3544 12.5525L11.3569 14.286C12.3875 14.879 13.7037 14.5243 14.2967 13.4938L12.5632 12.4963ZM12.3544 12.5525L11.8163 12.2429L10.8188 13.9764L11.3569 14.286L12.3544 12.5525ZM10.8188 13.9764C10.8202 13.9772 10.8207 13.9776 10.8205 13.9775C10.8205 13.9774 10.8203 13.9773 10.8202 13.9772C10.8202 13.9771 10.8207 13.9779 10.8212 13.9795C10.8216 13.9811 10.8215 13.982 10.8215 13.9819C10.8215 13.9818 10.8216 13.9816 10.8216 13.9815C10.8217 13.9813 10.8215 13.9819 10.8207 13.9834L12.5542 14.9809C13.1065 14.021 12.7761 12.7952 11.8163 12.2429L10.8188 13.9764ZM10.8207 13.9834C10.8198 13.9848 10.8194 13.9852 10.8195 13.9851C10.8196 13.985 10.8197 13.9849 10.8198 13.9848C10.8199 13.9847 10.8192 13.9853 10.8176 13.9857C10.8159 13.9862 10.815 13.9861 10.8151 13.9861C10.8153 13.9861 10.8155 13.9861 10.8156 13.9862C10.8157 13.9862 10.8151 13.9861 10.8137 13.9852L9.81617 15.7187C10.776 16.271 12.0018 15.9407 12.5542 14.9809L10.8207 13.9834ZM10.8137 13.9852L7.32899 11.98L6.33147 13.7135L9.81617 15.7187L10.8137 13.9852ZM7.32899 11.98C7.32707 11.9789 7.32692 11.9785 7.32737 11.979C7.32764 11.9793 7.32756 11.9793 7.32728 11.9787L5.53804 12.8724C5.70836 13.2134 5.97823 13.5102 6.33147 13.7135L7.32899 11.98ZM7.00933 11.6086L3.72323 9.28904L2.56988 10.923L5.85598 13.2425L7.00933 11.6086ZM3.94861 10.7033L7.73787 5.61452L6.13375 4.42003L2.34449 9.50877L3.94861 10.7033ZM6.67409 5.98242L7.82879 6.29554L8.35223 4.36525L7.19753 4.05213L6.67409 5.98242ZM8.86607 5.96167C8.91983 5.89563 8.99291 5.84581 9.08296 5.82154L8.56256 3.89043C8.054 4.02748 7.6248 4.31845 7.31495 4.69912L8.86607 5.96167ZM9.08296 5.82154L11.5028 5.16942L10.9824 3.23831L8.56256 3.89043L9.08296 5.82154ZM11.5028 5.16942C11.728 5.10875 11.9596 5.24207 12.0203 5.46719L13.9514 4.94678C13.6033 3.65514 12.2741 2.89023 10.9824 3.23831L11.5028 5.16942ZM12.0203 5.46719C12.024 5.4809 12.0269 5.49437 12.0292 5.50758L14.0006 5.17081C13.9878 5.09588 13.9714 5.02113 13.9514 4.94678L12.0203 5.46719Z" fill="white" mask="url(#path-1-outside-1_29_495)"/>
<mask id="path-3-outside-2_29_495" maskUnits="userSpaceOnUse" x="8.12045" y="11.1614" width="22.9519" height="20.744" fill="black">
<rect fill="white" x="8.12045" y="11.1614" width="22.9519" height="20.744"/>
<path fill-rule="evenodd" clip-rule="evenodd" d="M18.2586 26.5131C18.2234 26.4422 18.1946 26.3667 18.1732 26.2873L17.869 25.1584C17.8203 24.9778 17.815 24.7957 17.8468 24.6232L11.3546 20.8874C10.9867 20.6757 10.8601 20.2058 11.0718 19.8379C11.2835 19.4699 11.7534 19.3433 12.1214 19.555L18.7833 23.3885L18.7833 23.3885L17.1178 22.4302C16.5659 22.1126 16.376 21.4077 16.6935 20.8558C17.0104 20.3052 17.7128 20.1149 18.2641 20.4294C17.7151 20.1108 17.5267 19.4079 17.8436 18.8573C18.1612 18.3054 18.866 18.1154 19.4179 18.433L19.956 18.7427C19.4749 18.4658 19.3093 17.8513 19.5861 17.3702C19.863 16.889 20.4775 16.7234 20.9586 17.0003L24.4433 19.0055C24.621 19.1078 24.7557 19.2561 24.8409 19.4267L28.127 21.7463L24.3377 26.835L23.183 26.5219C23.0012 26.7453 22.7501 26.9156 22.4508 26.9963L20.0309 27.6484C19.2725 27.8528 18.4921 27.4037 18.2877 26.6453C18.2758 26.6013 18.2662 26.5572 18.2586 26.5131Z"/>
</mask>
<path d="M18.2586 26.5131L19.2444 26.3447L19.2196 26.1998L19.1541 26.0681L18.2586 26.5131ZM18.1732 26.2873L19.1388 26.0271L19.1388 26.0271L18.1732 26.2873ZM17.869 25.1584L16.9034 25.4186L16.9034 25.4186L17.869 25.1584ZM17.8468 24.6232L18.8302 24.8043L18.9582 24.1091L18.3455 23.7565L17.8468 24.6232ZM11.3546 20.8874L11.8534 20.0207L11.3546 20.8874ZM18.7833 23.3885L18.2845 24.2553L19.1512 24.754L19.65 23.8873L18.7833 23.3885ZM18.7833 23.3885L19.65 23.8873L20.1488 23.0205L19.282 22.5218L18.7833 23.3885ZM18.2641 20.4294L17.7685 21.298L18.7661 19.5645L18.2641 20.4294ZM19.4179 18.433L18.9192 19.2998L18.9192 19.2998L19.4179 18.433ZM24.8409 19.4267L23.9463 19.8736L24.0587 20.0986L24.2642 20.2437L24.8409 19.4267ZM28.127 21.7463L28.9291 22.3435L29.5417 21.5208L28.7037 20.9293L28.127 21.7463ZM24.3377 26.835L24.076 27.8002L24.7332 27.9784L25.1398 27.4323L24.3377 26.835ZM23.183 26.5219L23.4448 25.5568L22.8177 25.3867L22.4075 25.8906L23.183 26.5219ZM22.4508 26.9963L22.711 27.9619L22.711 27.9619L22.4508 26.9963ZM20.0309 27.6484L19.7707 26.6829L19.7707 26.6829L20.0309 27.6484ZM18.2877 26.6453L19.2532 26.3851L19.2532 26.3851L18.2877 26.6453ZM19.1541 26.0681C19.1481 26.056 19.1429 26.0424 19.1388 26.0271L17.2076 26.5475C17.2463 26.6911 17.2986 26.8284 17.3631 26.9581L19.1541 26.0681ZM19.1388 26.0271L18.8345 24.8982L16.9034 25.4186L17.2076 26.5475L19.1388 26.0271ZM18.8345 24.8982C18.8254 24.8645 18.8249 24.8333 18.8302 24.8043L16.8633 24.4422C16.8051 24.7581 16.8151 25.0911 16.9034 25.4186L18.8345 24.8982ZM18.3455 23.7565L11.8534 20.0207L10.8559 21.7541L17.348 25.49L18.3455 23.7565ZM11.8534 20.0207C11.9642 20.0844 12.0023 20.2259 11.9386 20.3366L10.2051 19.3391C9.71789 20.1857 10.0093 21.267 10.8559 21.7541L11.8534 20.0207ZM11.9386 20.3366C11.8748 20.4474 11.7334 20.4855 11.6226 20.4218L12.6201 18.6883C11.7735 18.2011 10.6922 18.4925 10.2051 19.3391L11.9386 20.3366ZM11.6226 20.4218L18.2845 24.2553L19.282 22.5218L12.6201 18.6883L11.6226 20.4218ZM19.65 23.8873L19.65 23.8873L17.9165 22.8898L17.9165 22.8898L19.65 23.8873ZM19.282 22.5218L17.6166 21.5634L16.619 23.2969L18.2845 24.2553L19.282 22.5218ZM17.6166 21.5634C17.5434 21.5213 17.5182 21.4278 17.5603 21.3546L15.8268 20.3571C15.2338 21.3877 15.5885 22.7039 16.619 23.2969L17.6166 21.5634ZM17.5603 21.3546C17.6023 21.2816 17.6955 21.2563 17.7685 21.298L18.7597 19.5609C17.7301 18.9734 16.4185 19.3288 15.8268 20.3571L17.5603 21.3546ZM18.7661 19.5645C18.6933 19.5223 18.6683 19.4291 18.7103 19.356L16.9769 18.3585C16.3852 19.3868 16.7369 20.6994 17.7622 21.2944L18.7661 19.5645ZM18.7103 19.356C18.7525 19.2828 18.846 19.2576 18.9192 19.2998L19.9167 17.5663C18.8861 16.9732 17.5699 17.3279 16.9769 18.3585L18.7103 19.356ZM18.9192 19.2998L19.4573 19.6094L20.4548 17.8759L19.9167 17.5663L18.9192 19.2998ZM20.4548 17.8759C20.4533 17.8751 20.4529 17.8747 20.453 17.8748C20.4531 17.8748 20.4532 17.875 20.4533 17.8751C20.4534 17.8752 20.4528 17.8744 20.4524 17.8728C20.4519 17.8712 20.452 17.8703 20.452 17.8704C20.452 17.8705 20.452 17.8707 20.4519 17.8708C20.4519 17.871 20.4521 17.8704 20.4529 17.8689L18.7194 16.8714C18.1671 17.8312 18.4974 19.0571 19.4572 19.6094L20.4548 17.8759ZM20.4529 17.8689C20.4537 17.8675 20.4541 17.8671 20.454 17.8672C20.454 17.8673 20.4538 17.8674 20.4537 17.8675C20.4536 17.8675 20.4544 17.867 20.456 17.8665C20.4576 17.8661 20.4585 17.8662 20.4584 17.8662C20.4583 17.8662 20.4581 17.8661 20.458 17.8661C20.4578 17.8661 20.4584 17.8662 20.4599 17.8671L21.4574 16.1336C20.4976 15.5812 19.2717 15.9116 18.7194 16.8714L20.4529 17.8689ZM20.4599 17.8671L23.9446 19.8723L24.9421 18.1388L21.4574 16.1336L20.4599 17.8671ZM23.9446 19.8723C23.9465 19.8734 23.9466 19.8738 23.9462 19.8733C23.9459 19.873 23.946 19.873 23.9463 19.8736L25.7355 18.9799C25.5652 18.6389 25.2953 18.3421 24.9421 18.1388L23.9446 19.8723ZM24.2642 20.2437L27.5503 22.5633L28.7037 20.9293L25.4176 18.6098L24.2642 20.2437ZM27.3249 21.149L23.5357 26.2378L25.1398 27.4323L28.9291 22.3435L27.3249 21.149ZM24.5995 25.8699L23.4448 25.5568L22.9213 27.487L24.076 27.8002L24.5995 25.8699ZM22.4075 25.8906C22.3537 25.9567 22.2806 26.0065 22.1906 26.0308L22.711 27.9619C23.2196 27.8248 23.6487 27.5338 23.9586 27.1532L22.4075 25.8906ZM22.1906 26.0308L19.7707 26.6829L20.2911 28.614L22.711 27.9619L22.1906 26.0308ZM19.7707 26.6829C19.5456 26.7435 19.3139 26.6102 19.2532 26.3851L17.3221 26.9055C17.6702 28.1972 18.9995 28.9621 20.2911 28.614L19.7707 26.6829ZM19.2532 26.3851C19.2495 26.3714 19.2466 26.3579 19.2444 26.3447L17.2729 26.6815C17.2857 26.7564 17.3021 26.8312 17.3221 26.9055L19.2532 26.3851Z" fill="white" mask="url(#path-3-outside-2_29_495)"/>
</svg>
