<svg width="32" height="32" viewBox="0 0 32 32" fill="none" xmlns="http://www.w3.org/2000/svg">
<rect x="3" y="3" width="26" height="26" rx="2" stroke="white" stroke-width="2"/>
<mask id="path-2-outside-1_11_131" maskUnits="userSpaceOnUse" x="8" y="4.47092" width="16" height="24" fill="black">
<rect fill="white" x="8" y="4.47092" width="16" height="24"/>
<path fill-rule="evenodd" clip-rule="evenodd" d="M9.67218 18.4359C9.72929 18.3501 9.79567 18.2687 9.87132 18.1931L10.9469 17.1174C11.119 16.9453 11.321 16.8212 11.5361 16.7451L11.5361 7C11.5361 6.44772 11.9838 6 12.5361 6C13.0883 6 13.5361 6.44772 13.5361 7L13.5361 14.4983C13.537 13.6707 14.2082 13 15.0361 13C15.8645 13 16.5361 13.6716 16.5361 14.5C16.5361 13.6716 17.2076 13 18.0361 13C18.8645 13 19.5361 13.6716 19.5361 14.5L19.5361 15.3077C19.5361 14.5855 20.1215 14 20.8438 14C21.566 14 22.1514 14.5855 22.1514 15.3077L22.1514 20.5385C22.1514 20.8052 22.0716 21.0533 21.9344 21.2601L21.4511 26.4709L13.2539 25.5L12.8577 23.9947C12.4879 23.9346 12.1328 23.762 11.8476 23.4768L9.54194 21.1712C8.81935 20.4486 8.81936 19.2771 9.54194 18.5545C9.5839 18.5125 9.62737 18.473 9.67218 18.4359Z"/>
</mask>
<path d="M9.67218 18.4359L10.3098 19.2063L10.4231 19.1125L10.5046 18.9901L9.67218 18.4359ZM9.87132 18.1931L9.16422 17.486L9.16421 17.486L9.87132 18.1931ZM10.9469 17.1174L10.2398 16.4103L10.2398 16.4103L10.9469 17.1174ZM11.5361 16.7451L11.8696 17.6878L12.5361 17.452L12.5361 16.7451L11.5361 16.7451ZM13.5361 7L12.5361 7L13.5361 7ZM13.5361 14.4983L12.5361 14.4983L14.5361 14.4994L13.5361 14.4983ZM19.5361 14.5L18.5361 14.5L18.5361 14.5L19.5361 14.5ZM21.9344 21.2601L21.101 20.7076L20.962 20.9173L20.9387 21.1678L21.9344 21.2601ZM21.4511 26.4709L21.3335 27.464L22.3521 27.5846L22.4469 26.5633L21.4511 26.4709ZM13.2539 25.5L12.2868 25.7545L12.4601 26.413L13.1363 26.4931L13.2539 25.5ZM12.8577 23.9947L13.8248 23.7402L13.6594 23.1118L13.018 23.0076L12.8577 23.9947ZM11.8476 23.4768L11.1405 24.1839L11.8476 23.4768ZM9.54194 21.1712L10.249 20.4641L10.249 20.4641L9.54194 21.1712ZM9.54194 18.5545L10.249 19.2616L10.249 19.2616L9.54194 18.5545ZM10.5046 18.9901C10.5253 18.959 10.5497 18.9289 10.5784 18.9002L9.16421 17.486C9.0416 17.6086 8.93332 17.7412 8.83981 17.8817L10.5046 18.9901ZM10.5784 18.9002L11.6541 17.8245L10.2398 16.4103L9.16422 17.486L10.5784 18.9002ZM11.6541 17.8245C11.7185 17.7601 11.7921 17.7153 11.8696 17.6878L11.2025 15.8024C10.8499 15.9272 10.5196 16.1306 10.2398 16.4103L11.6541 17.8245ZM12.5361 16.7451L12.5361 7L10.5361 7L10.5361 16.7451L12.5361 16.7451ZM12.5361 7L12.5361 7L12.5361 5C11.4315 5 10.5361 5.89544 10.5361 7L12.5361 7ZM12.5361 7L12.5361 7L14.5361 7C14.5361 5.89544 13.6406 5 12.5361 5L12.5361 7ZM12.5361 7L12.5361 14.4983L14.5361 14.4983L14.5361 7L12.5361 7ZM14.5361 14.4994C14.5364 14.2236 14.7601 14 15.0361 14L15.0361 12C13.6563 12 12.5376 13.1178 12.5361 14.4972L14.5361 14.4994ZM15.0361 14C15.3122 14 15.5361 14.2239 15.5361 14.5L17.5361 14.5C17.5361 13.1193 16.4168 12 15.0361 12L15.0361 14ZM17.5361 14.5C17.5361 14.2239 17.7599 14 18.0361 14L18.0361 12C16.6553 12 15.5361 13.1193 15.5361 14.5L17.5361 14.5ZM18.0361 14C18.3122 14 18.5361 14.2239 18.5361 14.5L20.5361 14.5C20.5361 13.1193 19.4168 12 18.0361 12L18.0361 14ZM18.5361 14.5L18.5361 15.3077L20.5361 15.3077L20.5361 14.5L18.5361 14.5ZM20.5361 15.3077C20.5361 15.1378 20.6738 15 20.8438 15L20.8438 13C19.5693 13 18.5361 14.0332 18.5361 15.3077L20.5361 15.3077ZM20.8438 15C21.0137 15 21.1514 15.1378 21.1514 15.3077L23.1514 15.3077C23.1514 14.0332 22.1183 13 20.8438 13L20.8438 15ZM21.1514 15.3077L21.1514 20.5385L23.1514 20.5385L23.1514 15.3077L21.1514 15.3077ZM21.1514 20.5385C21.1514 20.6027 21.1329 20.6595 21.101 20.7076L22.7679 21.8127C23.0103 21.4471 23.1514 21.0078 23.1514 20.5385L21.1514 20.5385ZM20.9387 21.1678L20.4554 26.3786L22.4469 26.5633L22.9302 21.3525L20.9387 21.1678ZM21.5688 25.4779L13.3715 24.5069L13.1363 26.4931L21.3335 27.464L21.5688 25.4779ZM14.221 25.2455L13.8248 23.7402L11.8906 24.2492L12.2868 25.7545L14.221 25.2455ZM13.018 23.0076C12.8484 22.9801 12.6866 22.9016 12.5547 22.7697L11.1405 24.1839C11.5789 24.6223 12.1273 24.8891 12.6973 24.9817L13.018 23.0076ZM12.5547 22.7697L10.249 20.4641L8.83483 21.8783L11.1405 24.1839L12.5547 22.7697ZM10.249 20.4641C9.91699 20.132 9.91699 19.5936 10.249 19.2616L8.83483 17.8474C7.72173 18.9605 7.72172 20.7652 8.83483 21.8783L10.249 20.4641ZM10.249 19.2616C10.2688 19.2418 10.2891 19.2234 10.3098 19.2063L9.0346 17.6655C8.96567 17.7226 8.89899 17.7832 8.83483 17.8474L10.249 19.2616Z" fill="white" mask="url(#path-2-outside-1_11_131)"/>
</svg>
