<svg width="32" height="32" viewBox="0 0 32 32" fill="none" xmlns="http://www.w3.org/2000/svg">
<rect x="3" y="3" width="26" height="26" rx="2" stroke="white" stroke-width="2"/>
<path fill-rule="evenodd" clip-rule="evenodd" d="M21.4793 14.035C21.4222 14.1208 21.3558 14.2022 21.2801 14.2779L20.2045 15.3535C20.0324 15.5256 19.8305 15.6497 19.6154 15.7258L19.6154 25.4709C19.6154 26.0232 19.1677 26.4709 18.6154 26.4709C18.0631 26.4709 17.6154 26.0232 17.6154 25.4709L17.6154 17.9726C17.6145 18.8003 16.9432 19.4709 16.1154 19.4709C15.287 19.4709 14.6154 18.7993 14.6154 17.9709C14.6154 18.7993 13.9438 19.4709 13.1154 19.4709C12.287 19.4709 11.6154 18.7993 11.6154 17.9709L11.6154 17.1632C11.6154 17.8854 11.0299 18.4709 10.3077 18.4709C9.58547 18.4709 9 17.8854 9 17.1632L9 11.9324C9 11.6657 9.07987 11.4176 9.217 11.2108L9.70031 6L17.8976 6.97091L18.2938 8.47623C18.6636 8.53631 19.0187 8.70893 19.3039 8.99411L21.6095 11.2998C22.3321 12.0223 22.3321 13.1939 21.6095 13.9164C21.5675 13.9584 21.5241 13.9979 21.4793 14.035Z" fill="white"/>
<path d="M21.4793 14.035L21.1605 13.6498L21.1038 13.6967L21.0631 13.7579L21.4793 14.035ZM21.2801 14.2779L21.6337 14.6314L21.6337 14.6314L21.2801 14.2779ZM20.2045 15.3535L20.558 15.707L20.558 15.707L20.2045 15.3535ZM19.6154 15.7258L19.4486 15.2544L19.1154 15.3723L19.1154 15.7258L19.6154 15.7258ZM17.6154 25.4709L17.1154 25.4709L17.6154 25.4709ZM17.6154 17.9726L18.1154 17.9726L17.1154 17.9721L17.6154 17.9726ZM11.6154 17.9709L12.1154 17.9709L12.1154 17.9709L11.6154 17.9709ZM9.217 11.2108L9.63372 11.4871L9.70324 11.3822L9.71486 11.257L9.217 11.2108ZM9.70031 6L9.75912 5.50347L9.24982 5.44315L9.20245 5.95382L9.70031 6ZM17.8976 6.97091L18.3811 6.84365L18.2944 6.51443L17.9564 6.47438L17.8976 6.97091ZM18.2938 8.47623L17.8102 8.60349L17.8929 8.91767L18.2136 8.96976L18.2938 8.47623ZM19.3039 8.99411L18.9503 9.34766L19.3039 8.99411ZM21.6095 11.2998L21.256 11.6533L21.6095 11.2998ZM21.6095 13.9164L21.256 13.5629L21.256 13.5629L21.6095 13.9164ZM21.0631 13.7579C21.0242 13.8163 20.9787 13.8721 20.9266 13.9243L21.6337 14.6314C21.7328 14.5323 21.8201 14.4252 21.8954 14.3121L21.0631 13.7579ZM20.9266 13.9243L19.8509 14.9999L20.558 15.707L21.6337 14.6314L20.9266 13.9243ZM19.8509 14.9999C19.7327 15.1182 19.5949 15.2027 19.4486 15.2544L19.7822 16.1972C20.066 16.0967 20.3321 15.9329 20.558 15.707L19.8509 14.9999ZM19.1154 15.7258L19.1154 25.4709L20.1154 25.4709L20.1154 15.7258L19.1154 15.7258ZM19.1154 25.4709C19.1154 25.7471 18.8915 25.9709 18.6154 25.9709L18.6154 26.9709C19.4438 26.9709 20.1154 26.2993 20.1154 25.4709L19.1154 25.4709ZM18.6154 25.9709C18.3392 25.9709 18.1154 25.7471 18.1154 25.4709L17.1154 25.4709C17.1154 26.2993 17.787 26.9709 18.6154 26.9709L18.6154 25.9709ZM18.1154 25.4709L18.1154 17.9726L17.1154 17.9726L17.1154 25.4709L18.1154 25.4709ZM17.1154 17.9721C17.1148 18.5238 16.6673 18.9709 16.1154 18.9709L16.1154 19.9709C17.2192 19.9709 18.1142 19.0767 18.1154 17.9732L17.1154 17.9721ZM16.1154 18.9709C15.5631 18.9709 15.1154 18.5232 15.1154 17.9709L14.1154 17.9709C14.1154 19.0755 15.0108 19.9709 16.1154 19.9709L16.1154 18.9709ZM14.1154 17.9709C14.1154 18.5232 13.6677 18.9709 13.1154 18.9709L13.1154 19.9709C14.22 19.9709 15.1154 19.0755 15.1154 17.9709L14.1154 17.9709ZM13.1154 18.9709C12.5631 18.9709 12.1154 18.5232 12.1154 17.9709L11.1154 17.9709C11.1154 19.0755 12.0108 19.9709 13.1154 19.9709L13.1154 18.9709ZM12.1154 17.9709L12.1154 17.1632L11.1154 17.1632L11.1154 17.9709L12.1154 17.9709ZM11.1154 17.1632C11.1154 17.6093 10.7538 17.9709 10.3077 17.9709L10.3077 18.9709C11.3061 18.9709 12.1154 18.1616 12.1154 17.1632L11.1154 17.1632ZM10.3077 17.9709C9.86161 17.9709 9.5 17.6093 9.5 17.1632L8.5 17.1632C8.5 18.1616 9.30933 18.9709 10.3077 18.9709L10.3077 17.9709ZM9.5 17.1632L9.5 11.9324L8.5 11.9324L8.5 17.1632L9.5 17.1632ZM9.5 11.9324C9.5 11.767 9.54922 11.6145 9.63372 11.4871L8.80026 10.9345C8.61051 11.2207 8.5 11.5644 8.5 11.9324L9.5 11.9324ZM9.71486 11.257L10.1982 6.04618L9.20245 5.95382L8.71913 11.1646L9.71486 11.257ZM9.6415 6.49653L17.8387 7.46744L17.9564 6.47438L9.75912 5.50347L9.6415 6.49653ZM17.414 7.09818L17.8102 8.60349L18.7773 8.34896L18.3811 6.84365L17.414 7.09818ZM18.2136 8.96976C18.4833 9.01358 18.7418 9.13911 18.9503 9.34766L19.6574 8.64056C19.2956 8.27876 18.8439 8.05904 18.3739 7.9827L18.2136 8.96976ZM18.9503 9.34766L21.256 11.6533L21.9631 10.9462L19.6574 8.64056L18.9503 9.34766ZM21.256 11.6533C21.7833 12.1806 21.7833 13.0356 21.256 13.5629L21.9631 14.27C22.8809 13.3522 22.8809 11.864 21.9631 10.9462L21.256 11.6533ZM21.256 13.5629C21.2251 13.5938 21.1932 13.6227 21.1605 13.6498L21.7981 14.4202C21.8549 14.3731 21.91 14.3231 21.9631 14.27L21.256 13.5629Z" fill="white"/>
</svg>
