<svg width="32" height="32" viewBox="0 0 32 32" fill="none" xmlns="http://www.w3.org/2000/svg">
<path fill-rule="evenodd" clip-rule="evenodd" d="M12.4 8C12.4 6.34314 13.7431 5 15.4 5H16.6C18.2569 5 19.6 6.34315 19.6 8V11.6C19.6 13.0514 18.5693 14.262 17.2 14.54V17H18C20.2091 17 22 18.7909 22 21V30.2H10V21C10 18.7909 11.7909 17 14 17H14.8V14.54C13.4307 14.262 12.4 13.0514 12.4 11.6V8Z" fill="white"/>
<mask id="path-2-inside-1_29_342" fill="white">
<path fill-rule="evenodd" clip-rule="evenodd" d="M20.4 8C20.4 6.34314 21.7431 5 23.4 5H24.6C26.2569 5 27.6 6.34315 27.6 8V11.6C27.6 13.0514 26.5693 14.262 25.2 14.54V17H26C28.2091 17 30 18.7909 30 21V30.2H18V21C18 18.7909 19.7909 17 22 17H22.8V14.54C21.4307 14.262 20.4 13.0514 20.4 11.6V8Z"/>
</mask>
<path d="M25.2 14.54L24.8021 12.58L23.2 12.9052V14.54H25.2ZM25.2 17H23.2V19H25.2V17ZM30 30.2V32.2H32V30.2H30ZM18 30.2H16V32.2H18V30.2ZM22.8 17V19H24.8V17H22.8ZM22.8 14.54H24.8V12.9052L23.1979 12.58L22.8 14.54ZM23.4 3C20.6386 3 18.4 5.23857 18.4 8H22.4C22.4 7.44772 22.8477 7 23.4 7V3ZM24.6 3H23.4V7H24.6V3ZM29.6 8C29.6 5.23858 27.3614 3 24.6 3V7C25.1523 7 25.6 7.44772 25.6 8H29.6ZM29.6 11.6V8H25.6V11.6H29.6ZM25.5979 16.5C27.8809 16.0366 29.6 14.0213 29.6 11.6H25.6C25.6 12.0815 25.2577 12.4875 24.8021 12.58L25.5979 16.5ZM23.2 14.54V17H27.2V14.54H23.2ZM26 15H25.2V19H26V15ZM32 21C32 17.6863 29.3137 15 26 15V19C27.1046 19 28 19.8954 28 21H32ZM32 30.2V21H28V30.2H32ZM18 32.2H30V28.2H18V32.2ZM16 21V30.2H20V21H16ZM22 15C18.6863 15 16 17.6863 16 21H20C20 19.8954 20.8954 19 22 19V15ZM22.8 15H22V19H22.8V15ZM24.8 17V14.54H20.8V17H24.8ZM18.4 11.6C18.4 14.0213 20.1191 16.0366 22.4021 16.5L23.1979 12.58C22.7423 12.4875 22.4 12.0815 22.4 11.6H18.4ZM18.4 8V11.6H22.4V8H18.4Z" fill="white" mask="url(#path-2-inside-1_29_342)"/>
<mask id="path-4-outside-2_29_342" maskUnits="userSpaceOnUse" x="-0.64917" y="8.18133" width="13" height="13" fill="black">
<rect fill="white" x="-0.64917" y="8.18133" width="13" height="13"/>
<path fill-rule="evenodd" clip-rule="evenodd" d="M8.07053 13.7927L7.43469 14.4285L7.43469 13.3578L7.43469 10.6716C7.43469 10.3007 7.13402 9.99999 6.76313 9.99999C6.39223 9.99999 6.09156 10.3007 6.09156 10.6716L6.09156 11.3413C6.09058 10.9713 5.79029 10.6716 5.42 10.6716C5.0491 10.6716 4.74843 10.9722 4.74843 11.3431L4.74843 12.0129C4.74745 11.6428 4.44716 11.3431 4.07686 11.3431C3.70597 11.3431 3.4053 11.6438 3.4053 12.0147L3.4053 13.3578L3.40527 13.3578L3.40527 12.6863C3.40527 12.3154 3.1046 12.0147 2.73371 12.0147C2.36281 12.0147 2.06214 12.3154 2.06214 12.6863L2.06214 15.3725L2.06216 15.3775L2.06216 16.0086L1.52732 18.0046L5.91886 19.1813L6.48529 17.0674C6.71372 17.1025 6.95525 17.0321 7.1312 16.8562L9.00235 14.985L9.68704 14.8581C10.1277 14.7764 10.4188 14.353 10.3371 13.9123C10.2554 13.4715 9.83192 13.1805 9.39122 13.2622L8.62311 13.4046C8.38188 13.4493 8.1855 13.5964 8.07053 13.7927Z"/>
</mask>
<path d="M8.07053 13.7927L8.93343 14.2981L8.86849 14.4089L8.77764 14.4998L8.07053 13.7927ZM7.43469 14.4285L8.1418 15.1356L6.43469 16.8427L6.43469 14.4285L7.43469 14.4285ZM7.43469 13.3578L8.43469 13.3578L7.43469 13.3578ZM7.43469 10.6716L6.43469 10.6716L7.43469 10.6716ZM6.09156 10.6716L7.09156 10.6716L6.09156 10.6716ZM6.09156 11.3413L7.09156 11.3413L5.09156 11.344L6.09156 11.3413ZM4.74843 12.0129L5.74843 12.0129L3.74843 12.0155L4.74843 12.0129ZM3.4053 12.0147L2.4053 12.0147L3.4053 12.0147ZM3.4053 13.3578L4.4053 13.3578L4.4053 14.3578L3.4053 14.3578L3.4053 13.3578ZM3.40527 13.3578L3.40527 14.3578L2.40527 14.3578L2.40527 13.3578L3.40527 13.3578ZM2.06214 15.3725L1.06214 15.3762L1.06214 15.3725L2.06214 15.3725ZM2.06216 15.3775L3.06216 15.3739L3.06216 15.3775L2.06216 15.3775ZM2.06216 16.0086L3.06216 16.0086L3.06216 16.1402L3.02808 16.2674L2.06216 16.0086ZM1.52732 18.0046L1.2685 18.9706L0.302571 18.7117L0.56139 17.7458L1.52732 18.0046ZM5.91886 19.1813L6.88478 19.4402L6.62596 20.4061L5.66004 20.1473L5.91886 19.1813ZM6.48529 17.0674L5.51937 16.8085L5.75139 15.9426L6.63743 16.079L6.48529 17.0674ZM9.00235 14.985L8.29524 14.2779L8.5148 14.0584L8.8201 14.0018L9.00235 14.985ZM9.68704 14.8581L9.50478 13.8749L9.50478 13.8749L9.68704 14.8581ZM10.3371 13.9123L11.3203 13.73L10.3371 13.9123ZM9.39122 13.2622L9.57347 14.2454L9.57347 14.2454L9.39122 13.2622ZM8.62311 13.4046L8.44085 12.4213L8.44085 12.4213L8.62311 13.4046ZM8.77764 14.4998L8.1418 15.1356L6.72759 13.7214L7.36343 13.0856L8.77764 14.4998ZM6.43469 14.4285L6.43469 13.3578L8.43469 13.3578L8.43469 14.4285L6.43469 14.4285ZM6.43469 13.3578L6.43469 10.6716L8.43469 10.6716L8.43469 13.3578L6.43469 13.3578ZM6.43469 10.6716C6.43469 10.8529 6.58174 11 6.76313 11L6.76313 8.99999C7.68631 8.99999 8.43469 9.74838 8.43469 10.6716L6.43469 10.6716ZM6.76313 11C6.94452 11 7.09156 10.8529 7.09156 10.6716L5.09156 10.6716C5.09156 9.74838 5.83994 8.99999 6.76313 8.99999L6.76313 11ZM7.09156 10.6716L7.09156 11.3413L5.09156 11.3413L5.09156 10.6716L7.09156 10.6716ZM5.09156 11.344C5.09204 11.525 5.23889 11.6716 5.42 11.6716L5.42 9.67156C6.34169 9.67156 7.08913 10.4175 7.09156 11.3387L5.09156 11.344ZM5.42 11.6716C5.60138 11.6716 5.74843 11.5245 5.74843 11.3431L3.74843 11.3431C3.74843 10.4199 4.49681 9.67156 5.42 9.67156L5.42 11.6716ZM5.74843 11.3431L5.74843 12.0129L3.74843 12.0129L3.74843 11.3431L5.74843 11.3431ZM3.74843 12.0155C3.74891 12.1966 3.89575 12.3431 4.07686 12.3431L4.07686 10.3431C4.99856 10.3431 5.746 11.0891 5.74842 12.0102L3.74843 12.0155ZM4.07686 12.3431C4.25825 12.3431 4.4053 12.1961 4.4053 12.0147L2.4053 12.0147C2.4053 11.0915 3.15368 10.3431 4.07686 10.3431L4.07686 12.3431ZM4.4053 12.0147L4.4053 13.3578L2.4053 13.3578L2.4053 12.0147L4.4053 12.0147ZM3.4053 14.3578L3.40527 14.3578L3.40527 12.3578L3.4053 12.3578L3.4053 14.3578ZM2.40527 13.3578L2.40527 12.6863L4.40527 12.6863L4.40527 13.3578L2.40527 13.3578ZM2.40527 12.6863C2.40527 12.8677 2.55232 13.0147 2.73371 13.0147L2.73371 11.0147C3.65689 11.0147 4.40527 11.7631 4.40527 12.6863L2.40527 12.6863ZM2.73371 13.0147C2.9151 13.0147 3.06214 12.8677 3.06214 12.6863L1.06214 12.6863C1.06214 11.7631 1.81052 11.0147 2.73371 11.0147L2.73371 13.0147ZM3.06214 12.6863L3.06214 15.3725L1.06214 15.3725L1.06214 12.6863L3.06214 12.6863ZM3.06213 15.3689L3.06215 15.3739L1.06216 15.3812L1.06215 15.3762L3.06213 15.3689ZM3.06216 15.3775L3.06216 16.0086L1.06216 16.0086L1.06216 15.3775L3.06216 15.3775ZM3.02808 16.2674L2.49324 18.2634L0.56139 17.7458L1.09623 15.7498L3.02808 16.2674ZM1.78614 17.0387L6.17768 18.2154L5.66004 20.1473L1.2685 18.9706L1.78614 17.0387ZM4.95293 18.9225L5.51937 16.8085L7.45122 17.3262L6.88478 19.4402L4.95293 18.9225ZM6.63743 16.079C6.56455 16.0678 6.48293 16.0902 6.42409 16.1491L7.83831 17.5633C7.42757 17.974 6.86289 18.1373 6.33315 18.0557L6.63743 16.079ZM6.42409 16.1491L8.29524 14.2779L9.70946 15.6921L7.83831 17.5633L6.42409 16.1491ZM8.8201 14.0018L9.50478 13.8749L9.86929 15.8414L9.1846 15.9683L8.8201 14.0018ZM9.50478 13.8749C9.40245 13.8938 9.33487 13.9922 9.35384 14.0945L11.3203 13.73C11.5027 14.7137 10.853 15.659 9.86929 15.8414L9.50478 13.8749ZM9.35384 14.0945C9.37281 14.1968 9.47114 14.2644 9.57347 14.2454L9.20896 12.2789C10.1927 12.0966 11.138 12.7463 11.3203 13.73L9.35384 14.0945ZM9.57347 14.2454L8.80536 14.3878L8.44085 12.4213L9.20896 12.2789L9.57347 14.2454ZM8.80536 14.3878C8.86157 14.3774 8.9079 14.3417 8.93343 14.2981L7.20764 13.2873C7.46309 12.8511 7.90219 12.5212 8.44085 12.4213L8.80536 14.3878Z" fill="white" mask="url(#path-4-outside-2_29_342)"/>
</svg>
