<svg width="32" height="32" viewBox="0 0 32 32" fill="none" xmlns="http://www.w3.org/2000/svg">
<rect x="3" y="3" width="26" height="26" rx="2" stroke="white" stroke-width="2"/>
<path d="M13.728 18.736L12.84 15.76C13.192 15.68 13.544 15.584 13.896 15.472C14.264 15.36 14.616 15.232 14.952 15.088C15.288 14.944 15.584 14.776 15.84 14.584C16.112 14.392 16.32 14.168 16.464 13.912C16.624 13.656 16.704 13.376 16.704 13.072C16.704 12.864 16.656 12.696 16.56 12.568C16.48 12.44 16.36 12.344 16.2 12.28C16.04 12.2 15.848 12.16 15.624 12.16C15.176 12.16 14.712 12.32 14.232 12.64C13.768 12.96 13.304 13.56 12.84 14.44L9.6 11.32C10.352 10.168 11.24 9.28 12.264 8.656C13.304 8.032 14.392 7.72 15.528 7.72C16.616 7.72 17.6 7.944 18.48 8.392C19.36 8.824 20.056 9.424 20.568 10.192C21.08 10.944 21.336 11.792 21.336 12.736C21.336 13.376 21.2 14.016 20.928 14.656C20.672 15.28 20.304 15.864 19.824 16.408C19.36 16.952 18.808 17.424 18.168 17.824C17.528 18.224 16.824 18.528 16.056 18.736H15.96H13.728ZM12.84 22.864C12.84 22.16 13.056 21.584 13.488 21.136C13.936 20.688 14.512 20.464 15.216 20.464C15.968 20.464 16.552 20.672 16.968 21.088C17.384 21.504 17.592 22.096 17.592 22.864C17.592 23.568 17.368 24.144 16.92 24.592C16.488 25.04 15.92 25.264 15.216 25.264C14.464 25.264 13.88 25.056 13.464 24.64C13.048 24.224 12.84 23.632 12.84 22.864Z" fill="white"/>
</svg>
