<svg width="32" height="32" viewBox="0 0 32 32" fill="none" xmlns="http://www.w3.org/2000/svg">
<rect x="3" y="3" width="26" height="26" rx="2" stroke="white" stroke-width="2"/>
<path fill-rule="evenodd" clip-rule="evenodd" d="M19 7H13V9H15V10.0709C14.167 10.19 13.3812 10.4559 12.6698 10.8414L11.8284 10L9 12.8284L9.84138 13.6698C9.30474 14.6601 9 15.7945 9 17C9 20.866 12.134 24 16 24C19.866 24 23 20.866 23 17C23 15.8585 22.7268 14.7809 22.2422 13.8289L23.2426 12.8284L20.4142 10L19.4859 10.9283C18.7341 10.4958 17.8943 10.1988 17 10.0709V9H19V7ZM16 22C18.7614 22 21 19.7614 21 17C21 14.2386 18.7614 12 16 12C13.2386 12 11 14.2386 11 17C11 19.7614 13.2386 22 16 22Z" fill="white"/>
<line x1="16.5" y1="13" x2="16.5" y2="17" stroke="white"/>
</svg>
