<svg width="32" height="32" viewBox="0 0 32 32" fill="none" xmlns="http://www.w3.org/2000/svg">
<rect x="3" y="3" width="26" height="26" rx="2" stroke="white" stroke-width="2"/>
<path fill-rule="evenodd" clip-rule="evenodd" d="M20 7H14V9H16V10.0709C15.167 10.19 14.3812 10.4559 13.6698 10.8414L12.8284 10L10 12.8284L10.8414 13.6698C10.3047 14.6601 10 15.7945 10 17C10 20.866 13.134 24 17 24C20.866 24 24 20.866 24 17C24 15.8585 23.7268 14.7809 23.2422 13.8289L24.2426 12.8284L21.4142 10L20.4859 10.9283C19.7341 10.4958 18.8943 10.1988 18 10.0709V9H20V7ZM17 22C19.7614 22 22 19.7614 22 17C22 14.2386 19.7614 12 17 12C14.2386 12 12 14.2386 12 17C12 19.7614 14.2386 22 17 22Z" fill="white"/>
<line x1="17.5" y1="13" x2="17.5" y2="17" stroke="white"/>
<path d="M6.77475 10.0931L6.73829 8.79959C6.88859 8.80535 7.04061 8.80468 7.19436 8.79756C7.35454 8.79217 7.51002 8.77861 7.66077 8.75689C7.81153 8.73517 7.94878 8.69948 8.07252 8.64981C8.2027 8.60187 8.31057 8.53415 8.39613 8.44665C8.48813 8.36087 8.55052 8.2568 8.58331 8.13445C8.60574 8.05074 8.60454 7.97795 8.5797 7.91608C8.56131 7.85594 8.52337 7.80436 8.46587 7.76135C8.41011 7.71189 8.33715 7.67509 8.24699 7.65093C8.06669 7.60262 7.86269 7.61698 7.63499 7.694C7.41374 7.77275 7.16229 7.9642 6.88064 8.26833L5.91311 6.66322C6.34 6.28068 6.79315 6.01905 7.27257 5.87833C7.75843 5.73935 8.22997 5.73111 8.68717 5.85362C9.12506 5.97095 9.49693 6.16722 9.80279 6.44242C10.1104 6.71119 10.3258 7.02773 10.449 7.39204C10.574 7.74991 10.5856 8.11881 10.4838 8.49874C10.4148 8.75632 10.291 8.99924 10.1125 9.22749C9.94219 9.45102 9.7311 9.64638 9.47925 9.81356C9.23384 9.98246 8.96078 10.1129 8.66006 10.2049C8.35934 10.2968 8.04322 10.3433 7.7117 10.3442L7.67306 10.3338L6.77475 10.0931ZM5.97219 11.6587C6.04811 11.3754 6.19716 11.1669 6.41934 11.0331C6.64795 10.9012 6.90393 10.8731 7.18727 10.949C7.48993 11.0301 7.70254 11.1768 7.8251 11.3891C7.94767 11.6014 7.96754 11.8621 7.88472 12.1712C7.8088 12.4545 7.65653 12.6622 7.42791 12.7942C7.20573 12.9279 6.95297 12.9568 6.66963 12.8809C6.36698 12.7998 6.15437 12.6531 6.0318 12.4408C5.90924 12.2285 5.88936 11.9678 5.97219 11.6587Z" fill="white"/>
</svg>
