<svg width="32" height="32" viewBox="0 0 32 32" fill="none" xmlns="http://www.w3.org/2000/svg">
<rect x="3" y="3" width="26" height="26" rx="2" stroke="white" stroke-width="2"/>
<path fill-rule="evenodd" clip-rule="evenodd" d="M24 12C24 13.507 23.5833 14.9166 22.8589 16.1201L16 28L9.14112 16.1201C8.41668 14.9166 8 13.507 8 12C8 7.58172 11.5817 4 16 4C20.4183 4 24 7.58172 24 12ZM16 16C18.2091 16 20 14.2091 20 12C20 9.79086 18.2091 8 16 8C13.7909 8 12 9.79086 12 12C12 14.2091 13.7909 16 16 16Z" fill="white"/>
</svg>
