<svg width="32" height="32" viewBox="0 0 32 32" fill="none" xmlns="http://www.w3.org/2000/svg">
<rect x="3" y="3" width="26" height="26" rx="2" stroke="white" stroke-width="2"/>
<path fill-rule="evenodd" clip-rule="evenodd" d="M24 12C24 13.507 23.5833 14.9166 22.8589 16.1201L16 28L9.14112 16.1201C8.41668 14.9166 8 13.507 8 12C8 7.58172 11.5817 4 16 4C20.4183 4 24 7.58172 24 12ZM14.594 11.8964L14.645 13.7073L15.9027 14.0443L15.9568 14.0588C16.4209 14.0575 16.8635 13.9925 17.2845 13.8638C17.7055 13.735 18.0878 13.5524 18.4313 13.3159C18.7839 13.0819 19.0795 12.8084 19.3179 12.4954C19.5678 12.1759 19.7411 11.8358 19.8377 11.4752C19.9802 10.9433 19.964 10.4268 19.789 9.9258C19.6165 9.41577 19.3149 8.97261 18.8843 8.59634C18.4561 8.21105 17.9355 7.93628 17.3224 7.77201C16.6823 7.6005 16.0222 7.61204 15.342 7.80662C14.6708 8.00361 14.0364 8.36989 13.4387 8.90546L14.7933 11.1526C15.1876 10.7268 15.5396 10.4588 15.8494 10.3486C16.1681 10.2407 16.4537 10.2206 16.7062 10.2883C16.8324 10.3221 16.9345 10.3736 17.0126 10.4428C17.0931 10.503 17.1462 10.5753 17.172 10.6595C17.2067 10.7461 17.2084 10.848 17.177 10.9652C17.1311 11.1365 17.0438 11.2822 16.915 11.4023C16.7952 11.5248 16.6442 11.6196 16.4619 11.6867C16.2887 11.7562 16.0965 11.8062 15.8855 11.8366C15.6744 11.867 15.4567 11.886 15.2325 11.8935C15.0172 11.9035 14.8044 11.9044 14.594 11.8964ZM14.1475 15.0234C13.8364 15.2106 13.6277 15.5025 13.5214 15.8992C13.4055 16.3319 13.4333 16.6969 13.6049 16.9941C13.7765 17.2913 14.0742 17.4967 14.4979 17.6102C14.8945 17.7165 15.2484 17.676 15.5595 17.4888C15.8795 17.304 16.0927 17.0133 16.199 16.6166C16.3149 16.1839 16.2871 15.8189 16.1155 15.5217C15.9439 15.2245 15.6463 15.0191 15.2226 14.9056C14.8259 14.7993 14.4675 14.8386 14.1475 15.0234Z" fill="white"/>
</svg>
