<svg width="32" height="32" viewBox="0 0 32 32" fill="none" xmlns="http://www.w3.org/2000/svg">
<rect x="3" y="3" width="26" height="26" rx="2" stroke="white" stroke-width="2"/>
<path fill-rule="evenodd" clip-rule="evenodd" d="M16 7C14.3431 7 13 8.34315 13 10V12C13 13.3062 13.8348 14.4175 15 14.8293V17C12.7909 17 11 18.7909 11 21V28H21V21C21 18.7909 19.2091 17 17 17V14.8293C18.1652 14.4175 19 13.3062 19 12V10C19 8.34315 17.6569 7 16 7ZM15.3184 21.3546L15.3549 22.6481L16.2532 22.8888L16.2918 22.8991C16.6233 22.8982 16.9395 22.8518 17.2402 22.7598C17.5409 22.6679 17.814 22.5374 18.0594 22.3685C18.3112 22.2013 18.5223 22.006 18.6926 21.7824C18.8711 21.5542 18.9949 21.3113 19.0639 21.0537C19.1657 20.6738 19.1541 20.3049 19.0291 19.947C18.9059 19.5827 18.6905 19.2662 18.3829 18.9974C18.077 18.7222 17.7052 18.5259 17.2673 18.4086C16.8101 18.2861 16.3385 18.2943 15.8527 18.4333C15.3733 18.574 14.9201 18.8356 14.4932 19.2182L15.4607 20.8233C15.7424 20.5192 15.9938 20.3277 16.2151 20.249C16.4428 20.1719 16.6468 20.1576 16.8271 20.2059C16.9173 20.2301 16.9902 20.2669 17.046 20.3163C17.1035 20.3593 17.1414 20.4109 17.1598 20.471C17.1846 20.5329 17.1858 20.6057 17.1634 20.6894C17.1306 20.8118 17.0682 20.9158 16.9762 21.0016C16.8907 21.0891 16.7828 21.1568 16.6526 21.2048C16.5289 21.2544 16.3916 21.2901 16.2409 21.3119C16.0901 21.3336 15.9347 21.3471 15.7745 21.3525C15.6207 21.3596 15.4687 21.3603 15.3184 21.3546ZM14.9994 23.5881C14.7773 23.7218 14.6282 23.9304 14.5523 24.2137C14.4695 24.5228 14.4893 24.7835 14.6119 24.9958C14.7345 25.2081 14.9471 25.3548 15.2497 25.4359C15.5331 25.5118 15.7858 25.4829 16.008 25.3492C16.2366 25.2172 16.3889 25.0095 16.4648 24.7262C16.5476 24.4171 16.5278 24.1564 16.4052 23.9441C16.2826 23.7318 16.07 23.5851 15.7674 23.504C15.484 23.4281 15.2281 23.4561 14.9994 23.5881Z" fill="white"/>
</svg>
