<svg width="32" height="32" viewBox="0 0 32 32" fill="none" xmlns="http://www.w3.org/2000/svg">
<path fill-rule="evenodd" clip-rule="evenodd" d="M6.4 8C6.4 6.34314 7.74315 5 9.4 5H10.6C12.2569 5 13.6 6.34315 13.6 8V11.6C13.6 13.0514 12.5693 14.262 11.2 14.54V17H12C14.2091 17 16 18.7909 16 21V30.2H4V21C4 18.7909 5.79086 17 8 17H8.8V14.54C7.43066 14.262 6.4 13.0514 6.4 11.6V8Z" fill="white"/>
<mask id="path-2-outside-1_29_262" maskUnits="userSpaceOnUse" x="11.5121" y="8.51216" width="16.2635" height="16.2635" fill="black">
<rect fill="white" x="11.5121" y="8.51216" width="16.2635" height="16.2635"/>
<path fill-rule="evenodd" clip-rule="evenodd" d="M17.9334 19.3772C17.9226 19.3234 17.917 19.2678 17.917 19.2109L17.917 18.4012C17.917 18.2717 17.9462 18.149 17.9986 18.0394L14.3308 14.3716C14.123 14.1638 14.123 13.8268 14.3308 13.6189C14.5387 13.411 14.8757 13.411 15.0836 13.6189L17.9059 16.4412C17.5945 16.1294 17.5947 15.6242 17.9063 15.3126C18.2181 15.0008 18.7236 15.0008 19.0354 15.3126C18.7236 15.0008 18.7236 14.4952 19.0354 14.1835C19.3472 13.8717 19.8527 13.8717 20.1645 14.1835L20.4679 14.4869C20.1967 14.215 20.1969 13.7747 20.4685 13.5031C20.7403 13.2313 21.181 13.2313 21.4528 13.5031L23.4215 15.4718C23.5219 15.5722 23.5852 15.6956 23.6114 15.8251L25.3907 17.9681L21.9401 20.6879L21.2245 20.2704C21.0627 20.387 20.864 20.4557 20.6494 20.4557L18.9139 20.4557C18.3699 20.4557 17.929 20.0148 17.929 19.4709C17.929 19.4393 17.9305 19.408 17.9334 19.3772Z"/>
</mask>
<path d="M17.9334 19.3772L18.929 19.4711L18.9428 19.3247L18.9139 19.1805L17.9334 19.3772ZM17.917 19.2109L18.917 19.2109L18.917 19.2109L17.917 19.2109ZM17.917 18.4012L18.917 18.4012L18.917 18.4012L17.917 18.4012ZM17.9986 18.0394L18.901 18.4701L19.2055 17.8321L18.7057 17.3323L17.9986 18.0394ZM14.3308 14.3716L15.0379 13.6645L14.3308 14.3716ZM17.9059 16.4412L17.1988 17.1483L18.6135 15.7346L17.9059 16.4412ZM20.4679 14.4869L19.7608 15.194L21.1758 13.7806L20.4679 14.4869ZM21.4528 13.5031L20.7457 14.2102L21.4528 13.5031ZM23.4215 15.4718L24.1286 14.7647L23.4215 15.4718ZM23.6114 15.8251L22.6314 16.0237L22.6813 16.2703L22.8421 16.4638L23.6114 15.8251ZM25.3907 17.9681L26.0097 18.7535L26.8153 18.1185L26.1601 17.3293L25.3907 17.9681ZM21.9401 20.6879L21.4363 21.5517L22.0244 21.8947L22.5592 21.4732L21.9401 20.6879ZM21.2245 20.2704L21.7283 19.4066L21.1671 19.0793L20.6399 19.4591L21.2245 20.2704ZM20.6494 20.4557L20.6494 21.4557L20.6494 20.4557ZM18.9139 20.4557L18.9139 19.4557L18.9139 20.4557ZM17.929 19.4709L18.929 19.4709L18.929 19.4709L17.929 19.4709ZM18.9139 19.1805C18.916 19.1912 18.917 19.2014 18.917 19.2109L16.917 19.2109C16.917 19.3342 16.9292 19.4557 16.9529 19.5739L18.9139 19.1805ZM18.917 19.2109L18.917 18.4012L16.917 18.4012L16.917 19.2109L18.917 19.2109ZM18.917 18.4012C18.917 18.4239 18.9116 18.448 18.901 18.4701L17.0961 17.6086C16.9809 17.8499 16.917 18.1195 16.917 18.4012L18.917 18.4012ZM18.7057 17.3323L15.0379 13.6645L13.6237 15.0787L17.2915 18.7465L18.7057 17.3323ZM15.0379 13.6645C15.2206 13.8472 15.2206 14.1433 15.0379 14.326L13.6237 12.9118C13.0253 13.5102 13.0253 14.4804 13.6237 15.0787L15.0379 13.6645ZM15.0379 14.326C14.8553 14.5087 14.5591 14.5087 14.3765 14.326L15.7907 12.9118C15.1923 12.3134 14.2221 12.3134 13.6237 12.9118L15.0379 14.326ZM14.3765 14.326L17.1988 17.1483L18.613 15.7341L15.7907 12.9118L14.3765 14.326ZM18.6135 15.7346C18.6921 15.8134 18.6921 15.941 18.6134 16.0197L17.1992 14.6054C16.4972 15.3074 16.4969 16.4454 17.1982 17.1478L18.6135 15.7346ZM18.6134 16.0197C18.5347 16.0984 18.407 16.0984 18.3283 16.0197L19.7425 14.6054C19.0402 13.9031 17.9015 13.9031 17.1992 14.6054L18.6134 16.0197ZM19.7425 14.6054C19.8212 14.6842 19.8212 14.8118 19.7425 14.8906L18.3283 13.4763C17.626 14.1787 17.626 15.3173 18.3283 16.0197L19.7425 14.6054ZM19.7425 14.8906C19.6638 14.9693 19.5361 14.9693 19.4574 14.8906L20.8716 13.4763C20.1693 12.774 19.0306 12.774 18.3283 13.4763L19.7425 14.8906ZM19.4574 14.8906L19.7608 15.194L21.175 13.7798L20.8716 13.4763L19.4574 14.8906ZM21.1758 13.7806C21.2943 13.8993 21.2942 14.0916 21.1756 14.2102L19.7614 12.796C19.0995 13.4579 19.099 14.5307 19.76 15.1931L21.1758 13.7806ZM21.1756 14.2102C21.0569 14.3289 20.8644 14.3289 20.7457 14.2102L22.1599 12.796C21.4976 12.1337 20.4237 12.1337 19.7614 12.796L21.1756 14.2102ZM20.7457 14.2102L22.7144 16.1789L24.1286 14.7647L22.1599 12.796L20.7457 14.2102ZM22.7144 16.1789C22.6716 16.1361 22.643 16.0809 22.6314 16.0237L24.5915 15.6265C24.5275 15.3103 24.3722 15.0083 24.1286 14.7647L22.7144 16.1789ZM22.8421 16.4638L24.6213 18.6069L26.1601 17.3293L24.3808 15.1863L22.8421 16.4638ZM24.7717 17.1828L21.3211 19.9025L22.5592 21.4732L26.0097 18.7535L24.7717 17.1828ZM22.444 19.8241L21.7283 19.4066L20.7206 21.1342L21.4363 21.5517L22.444 19.8241ZM20.6399 19.4591C20.6409 19.4584 20.6425 19.4574 20.6449 19.4566C20.6476 19.4558 20.6495 19.4557 20.6494 19.4557L20.6494 21.4557C21.0807 21.4557 21.4827 21.3169 21.809 21.0818L20.6399 19.4591ZM20.6494 19.4557L18.9139 19.4557L18.9139 21.4557L20.6494 21.4557L20.6494 19.4557ZM18.9139 19.4557C18.9136 19.4557 18.9144 19.4557 18.9158 19.456C18.9173 19.4563 18.9187 19.4567 18.9201 19.4573C18.9226 19.4584 18.9239 19.4595 18.9246 19.4601C18.9252 19.4608 18.9263 19.4621 18.9274 19.4646C18.928 19.466 18.9284 19.4674 18.9287 19.4689C18.929 19.4703 18.929 19.4711 18.929 19.4709L16.929 19.4709C16.929 20.567 17.8177 21.4557 18.9139 21.4557L18.9139 19.4557ZM18.929 19.4709L18.929 19.4711L16.9378 19.2833C16.932 19.3453 16.929 19.4079 16.929 19.4709L18.929 19.4709Z" fill="white" mask="url(#path-2-outside-1_29_262)"/>
</svg>
