<svg width="32" height="32" viewBox="0 0 32 32" fill="none" xmlns="http://www.w3.org/2000/svg">
<path fill-rule="evenodd" clip-rule="evenodd" d="M4.4 8C4.4 6.34314 5.74315 5 7.4 5H8.6C10.2569 5 11.6 6.34315 11.6 8V11.6C11.6 13.0514 10.5693 14.262 9.2 14.54V17H10C12.2091 17 14 18.7909 14 21V30.2H2V21C2 18.7909 3.79086 17 6 17H6.8V14.54C5.43066 14.262 4.4 13.0514 4.4 11.6V8Z" fill="white"/>
<mask id="path-2-inside-1_29_267" fill="white">
<path fill-rule="evenodd" clip-rule="evenodd" d="M12.4 8C12.4 6.34314 13.7431 5 15.4 5H16.6C18.2569 5 19.6 6.34315 19.6 8V11.6C19.6 13.0514 18.5693 14.262 17.2 14.54V17H18C20.2091 17 22 18.7909 22 21V30.2H10V21C10 18.7909 11.7909 17 14 17H14.8V14.54C13.4307 14.262 12.4 13.0514 12.4 11.6V8Z"/>
</mask>
<path d="M17.2 14.54L16.8021 12.58L15.2 12.9052V14.54H17.2ZM17.2 17H15.2V19H17.2V17ZM22 30.2V32.2H24V30.2H22ZM10 30.2H8V32.2H10V30.2ZM14.8 17V19H16.8V17H14.8ZM14.8 14.54H16.8V12.9052L15.1979 12.58L14.8 14.54ZM15.4 3C12.6386 3 10.4 5.23857 10.4 8H14.4C14.4 7.44772 14.8477 7 15.4 7V3ZM16.6 3H15.4V7H16.6V3ZM21.6 8C21.6 5.23858 19.3614 3 16.6 3V7C17.1523 7 17.6 7.44772 17.6 8H21.6ZM21.6 11.6V8H17.6V11.6H21.6ZM17.5979 16.5C19.8809 16.0366 21.6 14.0213 21.6 11.6H17.6C17.6 12.0815 17.2577 12.4875 16.8021 12.58L17.5979 16.5ZM15.2 14.54V17H19.2V14.54H15.2ZM18 15H17.2V19H18V15ZM24 21C24 17.6863 21.3137 15 18 15V19C19.1046 19 20 19.8954 20 21H24ZM24 30.2V21H20V30.2H24ZM10 32.2H22V28.2H10V32.2ZM8 21V30.2H12V21H8ZM14 15C10.6863 15 8 17.6863 8 21H12C12 19.8954 12.8954 19 14 19V15ZM14.8 15H14V19H14.8V15ZM16.8 17V14.54H12.8V17H16.8ZM10.4 11.6C10.4 14.0213 12.1191 16.0366 14.4021 16.5L15.1979 12.58C14.7423 12.4875 14.4 12.0815 14.4 11.6H10.4ZM10.4 8V11.6H14.4V8H10.4Z" fill="white" mask="url(#path-2-inside-1_29_267)"/>
<mask id="path-4-outside-2_29_267" maskUnits="userSpaceOnUse" x="16.5121" y="8.51216" width="16.2635" height="16.2635" fill="black">
<rect fill="white" x="16.5121" y="8.51216" width="16.2635" height="16.2635"/>
<path fill-rule="evenodd" clip-rule="evenodd" d="M22.9334 19.3772C22.9226 19.3234 22.917 19.2678 22.917 19.2109L22.917 18.4012C22.917 18.2717 22.9462 18.149 22.9986 18.0394L19.3308 14.3716C19.123 14.1638 19.123 13.8268 19.3308 13.6189C19.5387 13.411 19.8757 13.411 20.0836 13.6189L22.9059 16.4412C22.5945 16.1294 22.5947 15.6242 22.9063 15.3126C23.2181 15.0008 23.7236 15.0008 24.0354 15.3126C23.7236 15.0008 23.7236 14.4952 24.0354 14.1835C24.3472 13.8717 24.8527 13.8717 25.1645 14.1835L25.4679 14.4869C25.1967 14.215 25.1969 13.7747 25.4685 13.5031C25.7403 13.2313 26.181 13.2313 26.4528 13.5031L28.4215 15.4718C28.5219 15.5722 28.5852 15.6956 28.6114 15.8251L30.3907 17.9681L26.9401 20.6879L26.2245 20.2704C26.0627 20.387 25.864 20.4557 25.6494 20.4557L23.9139 20.4557C23.3699 20.4557 22.929 20.0148 22.929 19.4709C22.929 19.4393 22.9305 19.408 22.9334 19.3772Z"/>
</mask>
<path d="M22.9334 19.3772L23.929 19.4711L23.9428 19.3247L23.9139 19.1805L22.9334 19.3772ZM22.917 19.2109L23.917 19.2109L23.917 19.2109L22.917 19.2109ZM22.917 18.4012L23.917 18.4012L23.917 18.4012L22.917 18.4012ZM22.9986 18.0394L23.901 18.4701L24.2055 17.8321L23.7057 17.3323L22.9986 18.0394ZM22.9059 16.4412L22.1988 17.1483L23.6135 15.7346L22.9059 16.4412ZM25.4679 14.4869L24.7608 15.194L26.1758 13.7806L25.4679 14.4869ZM28.6114 15.8251L27.6314 16.0237L27.6813 16.2703L27.8421 16.4638L28.6114 15.8251ZM30.3907 17.9681L31.0097 18.7535L31.8153 18.1185L31.1601 17.3293L30.3907 17.9681ZM26.9401 20.6879L26.4363 21.5517L27.0244 21.8947L27.5592 21.4732L26.9401 20.6879ZM26.2245 20.2704L26.7283 19.4066L26.1671 19.0793L25.6399 19.4591L26.2245 20.2704ZM25.6494 20.4557L25.6494 19.4557L25.6494 20.4557ZM23.9139 20.4557L23.9139 21.4557L23.9139 21.4557L23.9139 20.4557ZM22.929 19.4709L23.929 19.4709L23.929 19.4709L22.929 19.4709ZM23.9139 19.1805C23.916 19.1912 23.917 19.2014 23.917 19.2109L21.917 19.2109C21.917 19.3342 21.9292 19.4557 21.9529 19.5739L23.9139 19.1805ZM23.917 19.2109L23.917 18.4012L21.917 18.4012L21.917 19.2109L23.917 19.2109ZM23.917 18.4012C23.917 18.4239 23.9116 18.448 23.901 18.4701L22.0961 17.6086C21.9809 17.8499 21.917 18.1195 21.917 18.4012L23.917 18.4012ZM23.7057 17.3323L20.0379 13.6645L18.6237 15.0787L22.2915 18.7465L23.7057 17.3323ZM20.0379 13.6645C20.2206 13.8472 20.2206 14.1434 20.0379 14.326L18.6237 12.9118C18.0253 13.5102 18.0253 14.4804 18.6237 15.0787L20.0379 13.6645ZM20.0379 14.326C19.8553 14.5087 19.5591 14.5087 19.3765 14.326L20.7907 12.9118C20.1923 12.3134 19.2221 12.3134 18.6237 12.9118L20.0379 14.326ZM19.3765 14.326L22.1988 17.1483L23.613 15.7341L20.7907 12.9118L19.3765 14.326ZM23.6135 15.7346C23.6921 15.8134 23.6921 15.941 23.6134 16.0197L22.1992 14.6054C21.4972 15.3074 21.4969 16.4454 22.1982 17.1478L23.6135 15.7346ZM23.6134 16.0197C23.5347 16.0984 23.407 16.0984 23.3283 16.0197L24.7425 14.6054C24.0402 13.9031 22.9015 13.9031 22.1992 14.6054L23.6134 16.0197ZM24.7425 14.6054C24.8212 14.6842 24.8212 14.8118 24.7425 14.8906L23.3283 13.4764C22.626 14.1787 22.626 15.3173 23.3283 16.0197L24.7425 14.6054ZM24.7425 14.8906C24.6638 14.9693 24.5361 14.9693 24.4574 14.8906L25.8716 13.4763C25.1693 12.774 24.0306 12.774 23.3283 13.4764L24.7425 14.8906ZM24.4574 14.8906L24.7608 15.194L26.175 13.7798L25.8716 13.4763L24.4574 14.8906ZM26.1758 13.7806C26.2943 13.8993 26.2942 14.0916 26.1756 14.2102L24.7614 12.796C24.0995 13.4579 24.099 14.5307 24.76 15.1931L26.1758 13.7806ZM26.1756 14.2102C26.0569 14.3289 25.8644 14.3289 25.7457 14.2102L27.1599 12.796C26.4976 12.1337 25.4237 12.1337 24.7614 12.796L26.1756 14.2102ZM25.7457 14.2102L27.7144 16.1789L29.1286 14.7647L27.1599 12.796L25.7457 14.2102ZM27.7144 16.1789C27.6716 16.1361 27.643 16.0809 27.6314 16.0237L29.5915 15.6265C29.5275 15.3103 29.3722 15.0083 29.1286 14.7647L27.7144 16.1789ZM27.8421 16.4638L29.6213 18.6069L31.1601 17.3293L29.3808 15.1863L27.8421 16.4638ZM29.7717 17.1828L26.3211 19.9025L27.5592 21.4732L31.0097 18.7535L29.7717 17.1828ZM27.444 19.8241L26.7283 19.4066L25.7206 21.1342L26.4363 21.5517L27.444 19.8241ZM25.6399 19.4591C25.6409 19.4584 25.6425 19.4574 25.6449 19.4566C25.6476 19.4558 25.6495 19.4557 25.6494 19.4557L25.6494 21.4557C26.0807 21.4557 26.4827 21.3169 26.809 21.0818L25.6399 19.4591ZM25.6494 19.4557L23.9139 19.4557L23.9139 21.4557L25.6494 21.4557L25.6494 19.4557ZM23.9139 19.4557C23.9136 19.4557 23.9144 19.4557 23.9158 19.456C23.9173 19.4563 23.9187 19.4567 23.9201 19.4573C23.9226 19.4584 23.9239 19.4595 23.9246 19.4601C23.9252 19.4608 23.9263 19.4621 23.9274 19.4646C23.928 19.466 23.9284 19.4674 23.9287 19.4689C23.929 19.4703 23.929 19.4711 23.929 19.4709L21.929 19.4709C21.929 20.567 22.8177 21.4557 23.9139 21.4557L23.9139 19.4557ZM23.929 19.4709L23.929 19.4711L21.9378 19.2833C21.932 19.3453 21.929 19.4079 21.929 19.4709L23.929 19.4709Z" fill="white" mask="url(#path-4-outside-2_29_267)"/>
</svg>
